<svg width="92" height="88" viewBox="0 0 92 88" fill="none" xmlns="http://www.w3.org/2000/svg">
<path fill-rule="evenodd" clip-rule="evenodd" d="M7.97749 24.8828H8.47749H17.18H17.68V25.3828V31.8269H74.6516V25.3828V24.8828H75.1516H83.2078H83.7078V25.3828V62.3868H91.2489C91.5251 62.3868 91.7489 62.6107 91.7489 62.8868C91.7489 63.163 91.5251 63.3868 91.2489 63.3868H83.7078H83.2078H75.1516H74.6516H17.68H17.18H8.47749H7.97749H0.751954C0.475811 63.3868 0.251953 63.163 0.251953 62.8868C0.251953 62.6107 0.475811 62.3868 0.751954 62.3868H7.97749V25.3828V24.8828ZM17.68 36.1054V32.8214H74.6516V36.1054H17.68ZM17.68 37.0999V45.2906H27.038C27.0094 45.2279 26.9935 45.1582 26.9935 45.0848V37.0999H17.68ZM45.8414 45.2906H27.9435C27.9721 45.2279 27.988 45.1582 27.988 45.0848V37.0999H45.8414V45.2906ZM46.8359 45.2906H62.9452C62.9166 45.2279 62.9007 45.1582 62.9007 45.0848V37.0999H46.8359V45.2906ZM74.6516 45.2906H63.8507C63.8793 45.2279 63.8952 45.1582 63.8952 45.0848V37.0999H74.6516V45.2906ZM17.68 54.2665V46.2851H19.8992V54.2665H17.68ZM20.8937 54.2665V46.2851H36.6429V54.2665H20.8937ZM37.6374 54.2665H54.1982V46.2851H37.6374V54.2665ZM55.1927 54.2665V46.2851H71.6783V54.2665H55.1927ZM72.6728 54.2665H74.6516V46.2851H72.6728V54.2665ZM17.68 55.261V62.3868H27.0274V55.261H17.68ZM27.9541 55.261V62.3868H45.8753V55.3023C45.8753 55.2883 45.8759 55.2746 45.8771 55.261H27.9541ZM62.9526 62.3868H46.802V55.3023C46.802 55.2939 46.8018 55.2856 46.8013 55.2773C46.801 55.2718 46.8006 55.2664 46.8002 55.261H62.9364C62.9352 55.2746 62.9346 55.2883 62.9346 55.3023V62.2585C62.9346 62.303 62.9409 62.3461 62.9526 62.3868ZM63.8433 62.3868H74.6516V55.261H63.8595C63.8607 55.2746 63.8613 55.2883 63.8613 55.3023V62.2585C63.8613 62.303 63.855 62.3461 63.8433 62.3868ZM82.7078 62.3868V25.8828H75.6516V62.3868H82.7078ZM16.68 25.8828V62.3868H8.97749V25.8828H16.68Z" fill="#243E68"/>
</svg>
