<svg width="120" height="85" viewBox="0 0 120 85" fill="none" xmlns="http://www.w3.org/2000/svg">
<g clip-path="url(#clip0_3123_7321)">
<path d="M25.4357 64.8516H30.0703C30.4352 69.5283 34.3399 73.1873 39.1204 73.1873C43.8888 73.1873 47.8057 69.5283 48.1706 64.8516H71.2705C71.7205 69.8918 75.978 73.8416 81.1478 73.8416C86.3176 73.8416 90.5629 69.8918 91.013 64.8516H99.6739L119.635 84.7339H0.365234L20.2659 64.8516H23.0028" stroke="#243E68" stroke-width="0.75" stroke-miterlimit="10"/>
<path d="M81.1474 54.1016C79.6269 54.1864 77.9848 54.5135 76.4277 55.2889C77.8266 54.5377 79.4323 54.1016 81.1474 54.1016Z" stroke="#243E68" stroke-width="0.75" stroke-miterlimit="10"/>
<path d="M88.2756 54.5408C87.5701 54.662 86.4266 54.6377 85.7333 54.4923C84.5777 54.2379 82.9476 54.0077 81.1473 54.1046C79.4322 54.1046 77.8265 54.5408 76.4276 55.292C74.5787 56.2007 72.8513 57.7515 71.5741 60.2474C70.9659 61.4348 69.713 62.1739 68.3749 62.1739H28.6344C27.9897 62.1739 27.4058 61.7983 27.1504 61.2046C26.5543 59.787 26.0434 56.8428 29.048 52.5417C31.7606 48.6524 33.1838 46.7139 33.865 45.8052C34.1083 45.4902 33.9745 45.0298 33.5974 44.8965C32.6973 44.5694 31.4322 43.7576 31.8214 41.7463C32.2958 39.2989 35.5559 40.0138 36.8453 40.4015C37.344 40.5469 37.8427 40.6559 38.3536 40.7528L48.7054 42.655C49.0825 42.7156 49.788 42.4006 50.1651 42.3279C52.1722 41.9402 55.0186 41.4677 56.9649 42.4006C58.2665 43.0306 59.045 45.2236 58.3273 46.52C58.1448 46.8593 57.8529 47.0531 57.5123 47.1985C57.4028 47.2349 56.8919 47.3076 56.4661 47.3439C56.0526 47.3924 55.712 47.6711 55.6147 48.0709C55.1038 50.0579 53.9603 55.7403 57.5001 56.1886C61.8062 56.7338 67.4869 56.6369 67.4869 56.6369C67.4869 56.6369 68.898 57.2911 71.866 47.5014C71.9755 47.138 71.9755 46.7502 71.8539 46.3868C71.197 44.3392 68.8858 37.0938 68.0708 34.5737C67.9248 34.0891 67.4018 33.8104 66.9152 33.9679L64.2756 34.7797C63.7525 34.9493 63.0105 34.9735 62.4874 34.8039C61.271 34.392 61.271 32.9744 62.013 32.2474C62.1712 32.0899 62.3536 31.9688 62.5726 31.8961C63.789 31.4841 65.0176 31.0722 66.2218 30.6239C69.2142 29.5213 72.5594 28.3946 75.0896 26.4075C78.1306 24.0086 80.7216 31.4357 78.4712 34.186C78.1306 34.5858 78.0698 35.1431 78.3861 35.5672C79.8579 37.5421 83.4585 42.7399 82.7652 45.6113C82.6192 46.2535 82.8868 46.9199 83.495 47.1985C86.4753 48.5313 94.2604 53.4988 88.2756 54.5408Z" stroke="#243E68" stroke-width="0.75" stroke-miterlimit="10"/>
<path d="M81.1482 54.1016C79.6277 54.1864 77.9855 54.5135 76.4285 55.2889C73.3388 56.9609 71.2344 60.2201 71.2344 63.964C71.2344 64.2669 71.2465 64.5576 71.2709 64.8484C71.7209 69.8887 75.9784 73.8385 81.1482 73.8385C86.318 73.8385 90.5633 69.8887 91.0134 64.8484C91.0377 64.5576 91.0499 64.2669 91.0499 63.964C91.0499 58.5118 86.6221 54.1016 81.1482 54.1016ZM85.4908 64.8484C85.0773 66.8718 83.2891 68.3863 81.1482 68.3863C79.0073 68.3863 77.207 66.8718 76.7934 64.8484C76.7326 64.5698 76.7083 64.279 76.7083 63.9761C76.7083 61.5287 78.7032 59.5537 81.1482 59.5537C83.5932 59.5537 85.576 61.5287 85.576 63.9761C85.576 64.279 85.5517 64.5698 85.4908 64.8484Z" stroke="#243E68" stroke-width="0.75" stroke-miterlimit="10"/>
<path d="M81.1474 54.1016C79.6269 54.1864 77.9848 54.5135 76.4277 55.2889C77.8266 54.5377 79.4323 54.1016 81.1474 54.1016Z" stroke="#243E68" stroke-width="0.75" stroke-miterlimit="10"/>
<path d="M85.5747 63.977C85.5747 64.2799 85.5504 64.5707 85.4896 64.8494C85.076 66.8727 83.2879 68.3872 81.147 68.3872C79.0061 68.3872 77.2058 66.8727 76.7922 64.8494C76.7314 64.5707 76.707 64.2799 76.707 63.977C76.707 61.5296 78.702 59.5547 81.147 59.5547C83.592 59.5547 85.5747 61.5175 85.5747 63.977Z" stroke="#243E68" stroke-width="0.75" stroke-miterlimit="10"/>
<path d="M43.547 63.965C43.547 64.2679 43.5105 64.5708 43.4618 64.8495C43.0482 66.8608 41.2601 68.3752 39.1192 68.3752C36.9783 68.3752 35.1901 66.8608 34.7766 64.8495C34.7279 64.5708 34.6914 64.2679 34.6914 63.965C34.6914 63.3229 34.8252 62.7171 35.0807 62.1719H43.1577C43.4131 62.7171 43.547 63.3229 43.547 63.965Z" stroke="#243E68" stroke-width="0.75" stroke-miterlimit="10"/>
<path d="M48.2065 64.1347C48.2065 64.377 48.1944 64.6193 48.17 64.8495C47.8051 69.5263 43.8882 73.1853 39.1199 73.1853C34.3393 73.1853 30.4346 69.5263 30.0697 64.8495C30.0454 64.6193 30.0332 64.377 30.0332 64.1347C30.0332 63.4562 30.1062 62.8019 30.2522 62.1719H35.0814C34.8259 62.7171 34.6921 63.3229 34.6921 63.965C34.6921 64.2679 34.7286 64.5708 34.7772 64.8495C35.1908 66.8608 36.979 68.3752 39.1199 68.3752C41.2608 68.3752 43.0489 66.8608 43.4625 64.8495C43.5112 64.5708 43.5476 64.2679 43.5476 63.965C43.5476 63.3229 43.4138 62.7171 43.1584 62.1719H47.9876C48.1336 62.8019 48.2065 63.4562 48.2065 64.1347Z" stroke="#243E68" stroke-width="0.75" stroke-miterlimit="10"/>
<path d="M54.4704 19.4174C52.5363 21.2711 49.5926 22.2041 45.6392 22.2041H40.6154C39.7882 22.2041 39.1192 22.8704 39.1192 23.6943V34.8289C39.1192 35.6528 38.4501 36.3192 37.623 36.3192H36.1876C35.3604 36.3192 34.6914 35.6528 34.6914 34.8289V4.00589C34.6914 3.182 35.3604 2.51562 36.1876 2.51562H45.6392C49.4709 2.51562 52.3782 3.43644 54.3731 5.27807C56.368 7.11969 57.3655 9.49442 57.3655 12.4023C57.3655 15.2253 56.4045 17.5515 54.4704 19.4174Z" stroke="#243E68" stroke-width="0.75" stroke-miterlimit="10"/>
<path d="M51.0907 16.9715C52.2584 15.9053 52.8423 14.3908 52.8423 12.4159C52.8423 8.24801 50.446 6.16406 45.6411 6.16406H40.6173C39.7901 6.16406 39.1211 6.83044 39.1211 7.65433V17.0805C39.1211 17.9044 39.7901 18.5708 40.6173 18.5708H45.6411C48.1105 18.5708 49.9229 18.0377 51.0907 16.9715Z" stroke="#243E68" stroke-width="0.75" stroke-miterlimit="10"/>
<path d="M25.4348 1.03125H23.002V71.5704H25.4348V1.03125Z" stroke="#243E68" stroke-width="0.75" stroke-miterlimit="10"/>
</g>
<defs>
<clipPath id="clip0_3123_7321">
<rect width="120" height="84" fill="white" transform="translate(0 0.882812)"/>
</clipPath>
</defs>
</svg>
