<svg width="88" height="86" viewBox="0 0 88 86" fill="none" xmlns="http://www.w3.org/2000/svg">
<g clip-path="url(#clip0_3123_7339)">
<path d="M69.4668 62.6699H67.7582C67.4598 59.9749 65.1545 57.8457 62.361 57.8457C59.5404 57.8457 57.2622 59.9749 56.9639 62.6699H27.5643C27.2659 59.9749 24.9606 57.8457 22.1671 57.8457C19.3465 57.8457 17.0683 59.9749 16.7699 62.6699H12.756C10.2879 62.2926 9.98957 59.1124 11.1016 58.0883C11.5897 57.6301 11.8881 57.0103 11.8881 56.3365V50.2456C11.8067 46.2299 13.6781 42.5107 15.0884 40.3008C15.9292 38.9802 17.3395 38.1177 18.9125 38.0099C27.5914 37.3901 45.4915 38.6029 49.9394 38.8993C50.6175 38.9532 51.2141 39.2766 51.6481 39.7887L58.5911 48.0626C59.2149 48.7903 60.0557 49.2754 61.0049 49.464L68.2735 50.8385C72.7756 51.9705 73.0469 56.3095 73.0469 56.3095C73.1011 56.3904 73.1553 56.4982 73.2096 56.579C76.9795 60.7295 72.6129 62.6699 69.4668 62.6699Z" stroke="#243E68" stroke-miterlimit="10"/>
<path d="M27.5656 62.6758C27.2672 59.9807 24.9619 57.8516 22.1684 57.8516C19.3478 57.8516 17.0696 59.9807 16.7713 62.6758C16.7441 62.8644 16.7441 63.0531 16.7441 63.2417C16.7441 66.2333 19.1579 68.6319 22.1684 68.6319C25.1518 68.6319 27.5927 66.2333 27.5927 63.2417C27.5927 63.0531 27.5927 62.8644 27.5656 62.6758ZM22.1684 64.6432C21.3819 64.6432 20.7581 64.0233 20.7581 63.2417C20.7581 63.0531 20.8124 62.8644 20.8937 62.6758C21.1107 62.1906 21.5989 61.8403 22.1684 61.8403C22.738 61.8403 23.2262 62.1906 23.4431 62.6758C23.5245 62.8644 23.5787 63.0531 23.5787 63.2417C23.5787 64.0233 22.9278 64.6432 22.1684 64.6432Z" stroke="#243E68" stroke-miterlimit="10"/>
<path d="M67.7589 62.6758C67.4606 59.9807 65.1553 57.8516 62.3618 57.8516C59.5412 57.8516 57.263 59.9807 56.9646 62.6758C56.9375 62.8644 56.9375 63.0531 56.9375 63.2417C56.9375 66.2333 59.3513 68.6319 62.3618 68.6319C65.3451 68.6319 67.7861 66.2333 67.7861 63.2417C67.7861 63.0531 67.7861 62.8644 67.7589 62.6758ZM62.6059 64.6432C61.8465 64.6432 61.1956 64.0233 61.1956 63.2417C61.1956 63.0531 61.2498 62.8644 61.3312 62.6758C61.5481 62.1906 62.0363 61.8403 62.6059 61.8403C63.1754 61.8403 63.6636 62.1906 63.8806 62.6758C63.9619 62.8644 64.0162 63.0531 64.0162 63.2417C64.0162 64.0233 63.3924 64.6432 62.6059 64.6432Z" stroke="#243E68" stroke-miterlimit="10"/>
<path d="M23.5784 63.2452C23.5784 64.0268 22.9275 64.6466 22.1681 64.6466C21.3816 64.6466 20.7578 64.0268 20.7578 63.2452C20.7578 63.0565 20.8121 62.8679 20.8934 62.6792C21.1104 62.1941 21.5986 61.8438 22.1681 61.8438C22.7377 61.8438 23.2259 62.1941 23.4428 62.6792C23.5242 62.8679 23.5784 63.0565 23.5784 63.2452Z" stroke="#243E68" stroke-miterlimit="10"/>
<path d="M64.0159 63.2452C64.0159 64.0268 63.3921 64.6466 62.6056 64.6466C61.8462 64.6466 61.1953 64.0268 61.1953 63.2452C61.1953 63.0565 61.2496 62.8679 61.3309 62.6792C61.5479 62.1941 62.0361 61.8438 62.6056 61.8438C63.1752 61.8438 63.6634 62.1941 63.8803 62.6792C63.9617 62.8679 64.0159 63.0565 64.0159 63.2452Z" stroke="#243E68" stroke-miterlimit="10"/>
<path d="M60.1379 49.1953H11.916" stroke="#243E68" stroke-miterlimit="10"/>
<path d="M36.8672 38.1484V49.1983" stroke="#243E68" stroke-miterlimit="10"/>
<path d="M5.48633 74.5078H82.2128" stroke="#243E68" stroke-miterlimit="10" stroke-linecap="round"/>
<path d="M85.4147 81.1619V1.17188H2.58594V81.1619" stroke="#243E68" stroke-miterlimit="10" stroke-linecap="round"/>
<path d="M51.865 19.6047C50.2649 21.1409 47.7968 21.9224 44.5151 21.9224H40.3384C39.6604 21.9224 39.0909 22.4614 39.0909 23.1622V32.3793C39.0909 33.0531 38.5213 33.6191 37.8433 33.6191H36.6499C35.9719 33.6191 35.4023 33.0801 35.4023 32.3793V6.85692C35.4023 6.18315 35.9719 5.61719 36.6499 5.61719H44.5151C47.7155 5.61719 50.1293 6.37181 51.7837 7.90801C53.4381 9.4442 54.2788 11.3847 54.2788 13.8102C54.2788 16.155 53.4923 18.0685 51.865 19.6047Z" stroke="#243E68" stroke-miterlimit="10"/>
<path d="M49.0434 17.5883C50.0198 16.6989 50.508 15.4592 50.508 13.8152C50.508 10.3655 48.501 8.64062 44.5141 8.64062H40.3374C39.6594 8.64062 39.0898 9.17964 39.0898 9.88036V17.6691C39.0898 18.3429 39.6594 18.9089 40.3374 18.9089H44.5141C46.5754 18.9089 48.0942 18.4777 49.0434 17.5883Z" stroke="#243E68" stroke-miterlimit="10"/>
</g>
<defs>
<clipPath id="clip0_3123_7339">
<rect width="88" height="85" fill="white" transform="translate(0 0.882812)"/>
</clipPath>
</defs>
</svg>
