<svg width="40" height="41" viewBox="0 0 40 41" fill="none" xmlns="http://www.w3.org/2000/svg">
<g clip-path="url(#clip0_3442_7725)">
<path d="M20.1332 27.9589C20.3997 27.9589 20.5996 27.8922 20.7329 27.7589C20.8661 27.6255 20.9328 27.4255 20.9328 27.1589V23.5589C20.9328 23.2033 20.7995 22.9589 20.533 22.8255C20.2664 22.6922 19.9999 22.6922 19.7334 22.8255C19.4668 22.9589 19.3336 23.2033 19.3336 23.5589V27.1589C19.3336 27.4255 19.4224 27.6255 19.6001 27.7589C19.7778 27.8922 19.9555 27.9589 20.1332 27.9589ZM20.1332 11.5589C20.3997 11.5589 20.5996 11.4922 20.7329 11.3589C20.8661 11.2255 20.9328 11.07 20.9328 10.8922V7.15885C20.9328 6.89219 20.7995 6.69218 20.533 6.55885C20.2664 6.42552 19.9999 6.42552 19.7334 6.55885C19.4668 6.69218 19.3336 6.89219 19.3336 7.15885V10.8922C19.3336 11.07 19.4224 11.2255 19.6001 11.3589C19.7778 11.4922 19.9555 11.5589 20.1332 11.5589ZM20.1332 19.8255C20.3997 19.8255 20.5996 19.7366 20.7329 19.5589C20.8661 19.3811 20.9328 19.2033 20.9328 19.0255V15.4255C20.9328 15.1589 20.8661 14.9589 20.7329 14.8255C20.5996 14.6922 20.4219 14.6255 20.1998 14.6255C19.9777 14.6255 19.7778 14.6922 19.6001 14.8255C19.4224 14.9589 19.3336 15.1589 19.3336 15.4255V19.0255C19.3336 19.2033 19.4224 19.3811 19.6001 19.5589C19.7778 19.7366 19.9555 19.8255 20.1332 19.8255ZM25.5971 11.5589C25.7748 11.5589 25.9525 11.4922 26.1302 11.3589C26.3079 11.2255 26.3967 11.07 26.3967 10.8922V7.15885C26.3967 6.98108 26.3079 6.8033 26.1302 6.62552C25.9525 6.44774 25.7748 6.35885 25.5971 6.35885C25.4194 6.35885 25.2417 6.44774 25.064 6.62552C24.8864 6.8033 24.7975 6.98108 24.7975 7.15885V10.8922C24.7975 11.07 24.8864 11.2255 25.064 11.3589C25.2417 11.4922 25.4194 11.5589 25.5971 11.5589ZM25.5971 19.8255C25.7748 19.8255 25.9525 19.7366 26.1302 19.5589C26.3079 19.3811 26.3967 19.2033 26.3967 19.0255V15.4255C26.3967 15.1589 26.3079 14.9589 26.1302 14.8255C25.9525 14.6922 25.7748 14.6255 25.5971 14.6255C25.4194 14.6255 25.2417 14.6922 25.064 14.8255C24.8864 14.9589 24.7975 15.1589 24.7975 15.4255V19.0255C24.7975 19.2033 24.8864 19.3811 25.064 19.5589C25.2417 19.7366 25.4194 19.8255 25.5971 19.8255ZM25.5971 27.9589C25.7748 27.9589 25.9525 27.8922 26.1302 27.7589C26.3079 27.6255 26.3967 27.4255 26.3967 27.1589V23.5589C26.3967 23.2922 26.3079 23.0922 26.1302 22.9589C25.9525 22.8255 25.7748 22.7589 25.5971 22.7589C25.4194 22.7589 25.2417 22.8255 25.064 22.9589C24.8864 23.0922 24.7975 23.2922 24.7975 23.5589V27.1589C24.7975 27.4255 24.8864 27.6255 25.064 27.7589C25.2417 27.8922 25.4194 27.9589 25.5971 27.9589ZM34.6592 30.8922H35.3256C35.5033 30.8922 35.6587 30.8255 35.792 30.6922C35.9253 30.5589 35.9919 30.3811 35.9919 30.1589C35.9919 29.9366 35.9253 29.7589 35.792 29.6255C35.6587 29.4922 35.5033 29.4255 35.3256 29.4255H34.6592C34.3927 29.4255 34.1928 29.4922 34.0595 29.6255C33.9263 29.7589 33.8596 29.9366 33.8596 30.1589C33.8596 30.3811 33.9263 30.5589 34.0595 30.6922C34.1928 30.8255 34.3927 30.8922 34.6592 30.8922ZM34.6592 26.4922H35.3256C35.5033 26.4922 35.6587 26.4255 35.792 26.2922C35.9253 26.1589 35.9919 25.9811 35.9919 25.7589C35.9919 25.5366 35.9253 25.3366 35.792 25.1589C35.6587 24.9811 35.5033 24.8922 35.3256 24.8922H34.6592C34.3927 24.8922 34.1928 24.9811 34.0595 25.1589C33.9263 25.3366 33.8596 25.5366 33.8596 25.7589C33.8596 25.9811 33.9263 26.1589 34.0595 26.2922C34.1928 26.4255 34.3927 26.4922 34.6592 26.4922ZM34.6592 35.2922H35.3256C35.5033 35.2922 35.6587 35.2033 35.792 35.0255C35.9253 34.8477 35.9919 34.67 35.9919 34.4922C35.9919 34.3144 35.9253 34.1366 35.792 33.9589C35.6587 33.7811 35.5033 33.6922 35.3256 33.6922H34.6592C34.3927 33.6922 34.1928 33.7811 34.0595 33.9589C33.9263 34.1366 33.8596 34.3144 33.8596 34.4922C33.8596 34.67 33.9263 34.8477 34.0595 35.0255C34.1928 35.2033 34.3927 35.2922 34.6592 35.2922ZM10.9378 22.0922H11.6041C11.7818 22.0922 11.9373 22.0255 12.0705 21.8922C12.2038 21.7589 12.2704 21.5811 12.2704 21.3589C12.2704 21.1366 12.2038 20.9589 12.0705 20.8255C11.9373 20.6922 11.7818 20.6255 11.6041 20.6255H10.9378C10.6712 20.6255 10.4713 20.6922 10.3381 20.8255C10.2048 20.9589 10.1382 21.1366 10.1382 21.3589C10.1382 21.5811 10.2048 21.7589 10.3381 21.8922C10.4713 22.0255 10.6712 22.0922 10.9378 22.0922ZM10.9378 17.6922H11.6041C11.7818 17.6922 11.9373 17.6255 12.0705 17.4922C12.2038 17.3589 12.2704 17.1811 12.2704 16.9589C12.2704 16.7366 12.2038 16.5589 12.0705 16.4255C11.9373 16.2922 11.7818 16.2255 11.6041 16.2255H10.9378C10.6712 16.2255 10.4713 16.2922 10.3381 16.4255C10.2048 16.5589 10.1382 16.7366 10.1382 16.9589C10.1382 17.1811 10.2048 17.3589 10.3381 17.4922C10.4713 17.6255 10.6712 17.6922 10.9378 17.6922ZM10.9378 26.4922H11.6041C11.7818 26.4922 11.9373 26.4255 12.0705 26.2922C12.2038 26.1589 12.2704 25.9811 12.2704 25.7589C12.2704 25.5366 12.2038 25.3366 12.0705 25.1589C11.9373 24.9811 11.7818 24.8922 11.6041 24.8922H10.9378C10.5824 24.8922 10.3381 25.0255 10.2048 25.2922C10.0715 25.5589 10.0715 25.8255 10.2048 26.0922C10.3381 26.3589 10.5824 26.4922 10.9378 26.4922ZM38.9238 18.6255H31.7274V2.09219C31.7274 1.82552 31.6607 1.62552 31.5275 1.49218C31.3942 1.35885 31.1943 1.29219 30.9278 1.29219H14.8025C14.6248 1.29219 14.4471 1.38107 14.2694 1.55885C14.0918 1.73663 14.0029 1.91441 14.0029 2.09219V11.6922H7.6061C7.42841 11.6922 7.25073 11.7589 7.07304 11.8922C6.89535 12.0255 6.8065 12.2255 6.8065 12.4922V21.9589C6.8065 22.2255 6.89535 22.4255 7.07304 22.5589C7.25073 22.6922 7.45063 22.7589 7.67274 22.7589C7.89485 22.7589 8.07254 22.6922 8.2058 22.5589C8.33907 22.4255 8.4057 22.2255 8.4057 21.9589V13.1589H14.0029V38.8922H8.4057C8.13917 38.8922 7.93927 38.9811 7.806 39.1589C7.67274 39.3366 7.6061 39.5366 7.6061 39.7589C7.6061 39.9811 7.67274 40.1589 7.806 40.2922C7.93927 40.4255 8.13917 40.4922 8.4057 40.4922H36.2584C37.2357 40.4922 38.0575 40.1589 38.7239 39.4922C39.3902 38.8255 39.7234 38.0477 39.7234 37.1589V19.4255C39.7234 19.2477 39.6345 19.07 39.4568 18.8922C39.2792 18.7144 39.1015 18.6255 38.9238 18.6255ZM20.9328 38.8922V32.8922H24.7975V38.8922H20.9328ZM30.1282 38.8922H26.3967V32.0922C26.3967 31.8255 26.3079 31.6255 26.1302 31.4922C25.9525 31.3589 25.7748 31.2922 25.5971 31.2922H20.1332C19.9555 31.2922 19.7778 31.3589 19.6001 31.4922C19.4224 31.6255 19.3336 31.8255 19.3336 32.0922V38.8922H15.6021V2.75885H30.1282V38.8922ZM38.1242 37.1589C38.1242 37.6033 37.9465 38.0255 37.5911 38.4255C37.2357 38.8255 36.7915 39.0255 36.2584 39.0255H31.7274V20.2255H38.1242V37.1589ZM9.73837 29.8255C9.73837 28.4922 9.07204 27.2033 7.73937 25.9589C7.02861 25.2477 6.27344 24.67 5.47384 24.2255C5.29615 24.1366 5.07404 24.1366 4.8075 24.2255C4.09675 24.67 3.34157 25.2477 2.54197 25.9589C1.2093 27.2033 0.542969 28.5144 0.542969 29.8922C0.542969 31.27 0.898347 32.4922 1.6091 33.5589C2.31986 34.6255 3.25272 35.2477 4.4077 35.4255V39.6922C4.4077 39.9589 4.47434 40.1589 4.6076 40.2922C4.74087 40.4255 4.91856 40.4922 5.14067 40.4922C5.36278 40.4922 5.54047 40.4255 5.67374 40.2922C5.807 40.1589 5.87364 39.9589 5.87364 39.6922V35.4255C7.02861 35.2477 7.96148 34.6255 8.67224 33.5589C9.38299 32.4922 9.73837 31.2477 9.73837 29.8255ZM2.0089 29.8255C2.0089 29.1144 2.4087 28.3144 3.2083 27.4255C3.74137 26.8922 4.4077 26.3589 5.2073 25.8255C5.91806 26.3589 6.53997 26.8922 7.07304 27.4255C7.87264 28.3144 8.27244 29.1144 8.27244 29.8255C8.27244 30.8033 8.05033 31.67 7.6061 32.4255C7.16188 33.1811 6.58439 33.6477 5.87364 33.8255V32.0922C5.87364 31.8255 5.807 31.6255 5.67374 31.4922C5.54047 31.3589 5.36278 31.2922 5.14067 31.2922C4.91856 31.2922 4.74087 31.3589 4.6076 31.4922C4.47434 31.6255 4.4077 31.8255 4.4077 32.0922V33.8255C3.69695 33.6477 3.11946 33.1811 2.67524 32.4255C2.23101 31.67 2.0089 30.8033 2.0089 29.8255Z" fill="#243E68"/>
</g>
<defs>
<clipPath id="clip0_3442_7725">
<rect width="40" height="40" fill="white" transform="matrix(1 0 0 -1 0 40.625)"/>
</clipPath>
</defs>
</svg>
