<svg width="40" height="41" viewBox="0 0 40 41" fill="none" xmlns="http://www.w3.org/2000/svg">
<path d="M39.1902 38.1036H36.7914V25.437C36.7914 25.2592 36.7247 25.0814 36.5915 24.9036C36.4582 24.7259 36.2805 24.637 36.0584 24.637C35.8363 24.637 35.6364 24.7259 35.4587 24.9036C35.281 25.0814 35.1922 25.2592 35.1922 25.437V38.1036H29.595V31.5703C29.595 31.3925 29.5283 31.2148 29.3951 31.037C29.2618 30.8592 29.0619 30.7703 28.7954 30.7703H23.7312C23.5536 30.7703 23.3759 30.8592 23.1982 31.037C23.0205 31.2148 22.9316 31.3925 22.9316 31.5703V38.1036H17.4677V5.97031H35.1922V18.5036C35.1922 18.7703 35.281 18.9703 35.4587 19.1036C35.6364 19.237 35.8363 19.3036 36.0584 19.3036C36.2805 19.3036 36.4582 19.237 36.5915 19.1036C36.7247 18.9703 36.7914 18.7703 36.7914 18.5036V5.17031C36.7914 4.90364 36.7247 4.70364 36.5915 4.57031C36.4582 4.43698 36.2583 4.37031 35.9918 4.37031H34.126V2.10365C34.126 1.92587 34.0372 1.77031 33.8595 1.63698C33.6818 1.50364 33.5041 1.43698 33.3264 1.43698H19.6C19.4223 1.43698 19.2446 1.50364 19.0669 1.63698C18.8892 1.77031 18.8004 1.92587 18.8004 2.10365V4.37031H16.6681C16.4904 4.37031 16.3349 4.43698 16.2017 4.57031C16.0684 4.70364 16.0018 4.90364 16.0018 5.17031V17.3036H9.8715V14.9036C9.8715 14.637 9.78266 14.437 9.60497 14.3036C9.42728 14.1703 9.24959 14.1036 9.0719 14.1036H3.60797C3.43028 14.1036 3.25259 14.1703 3.0749 14.3036C2.89721 14.437 2.80837 14.637 2.80837 14.9036V38.1036H0.809366C0.542832 38.1036 0.342932 38.1703 0.209666 38.3036C0.076399 38.437 0.00976562 38.6148 0.00976562 38.837C0.00976562 39.0592 0.076399 39.237 0.209666 39.3703C0.342932 39.5036 0.542832 39.5703 0.809366 39.5703H39.1902C39.4567 39.5703 39.6566 39.5036 39.7899 39.3703C39.9231 39.237 39.9898 39.0592 39.9898 38.837C39.9898 38.6148 39.9231 38.437 39.7899 38.3036C39.6566 38.1703 39.4567 38.1036 39.1902 38.1036ZM20.3996 2.90364H32.5268V4.37031H20.3996V2.90364ZM4.40757 15.7036H8.2723V17.3036H4.40757V15.7036ZM11.0709 38.1036H9.20517V35.3036H11.0709V38.1036ZM16.0018 38.1036H12.6701V34.5036C12.6701 34.3259 12.5813 34.1481 12.4036 33.9703C12.2259 33.7925 12.0482 33.7036 11.8705 33.7036H8.40557C8.22788 33.7036 8.05019 33.7925 7.8725 33.9703C7.69481 34.1481 7.60597 34.3259 7.60597 34.5036V38.1036H4.40757V18.9036H16.0018V38.1036ZM28.129 38.1036H24.5308V32.3703H28.129V38.1036ZM36.6581 21.7036C36.4804 21.3481 36.2139 21.2148 35.8585 21.3036C35.5031 21.3925 35.3032 21.6148 35.2588 21.9703C35.2144 22.3259 35.3477 22.5925 35.6586 22.7703C35.9696 22.9481 36.2361 22.9481 36.4582 22.7703C36.6803 22.5925 36.7914 22.4148 36.7914 22.237C36.7914 22.0592 36.747 21.8814 36.6581 21.7036ZM25.0639 9.43698C25.0639 9.2592 24.9751 9.10364 24.7974 8.97031C24.6197 8.83698 24.442 8.77031 24.2643 8.77031H20.9326C20.755 8.77031 20.5773 8.83698 20.3996 8.97031C20.2219 9.10364 20.133 9.2592 20.133 9.43698V12.7703C20.133 13.037 20.2219 13.237 20.3996 13.3703C20.5773 13.5036 20.755 13.5703 20.9326 13.5703H24.2643C24.442 13.5703 24.6197 13.5036 24.7974 13.3703C24.9751 13.237 25.0639 13.037 25.0639 12.7703V9.43698ZM23.4647 11.9703H21.7322V10.237H23.4647V11.9703ZM32.3936 9.43698C32.3936 9.2592 32.3047 9.10364 32.127 8.97031C31.9494 8.83698 31.7717 8.77031 31.594 8.77031H28.2623C28.0846 8.77031 27.9069 8.83698 27.7292 8.97031C27.5516 9.10364 27.4627 9.2592 27.4627 9.43698V12.7703C27.4627 13.037 27.5516 13.237 27.7292 13.3703C27.9069 13.5036 28.0846 13.5703 28.2623 13.5703H31.594C31.7717 13.5703 31.9494 13.5036 32.127 13.3703C32.3047 13.237 32.3936 13.037 32.3936 12.7703V9.43698ZM30.7944 11.9703H29.0619V10.237H30.7944V11.9703ZM25.0639 16.3703C25.0639 16.1036 24.9751 15.9036 24.7974 15.7703C24.6197 15.637 24.442 15.5703 24.2643 15.5703H20.9326C20.755 15.5703 20.5773 15.637 20.3996 15.7703C20.2219 15.9036 20.133 16.1036 20.133 16.3703V19.5703C20.133 19.837 20.2219 20.037 20.3996 20.1703C20.5773 20.3036 20.755 20.3703 20.9326 20.3703H24.2643C24.442 20.3703 24.6197 20.3036 24.7974 20.1703C24.9751 20.037 25.0639 19.837 25.0639 19.5703V16.3703ZM23.4647 18.9036H21.7322V17.1703H23.4647V18.9036ZM32.3936 16.3703C32.3936 16.1036 32.3047 15.9036 32.127 15.7703C31.9494 15.637 31.7717 15.5703 31.594 15.5703H28.2623C28.0846 15.5703 27.9069 15.637 27.7292 15.7703C27.5516 15.9036 27.4627 16.1036 27.4627 16.3703V19.5703C27.4627 19.837 27.5516 20.037 27.7292 20.1703C27.9069 20.3036 28.0846 20.3703 28.2623 20.3703H31.594C31.7717 20.3703 31.9494 20.3036 32.127 20.1703C32.3047 20.037 32.3936 19.837 32.3936 19.5703V16.3703ZM30.7944 18.9036H29.0619V17.1703H30.7944V18.9036ZM24.2643 22.3703H20.9326C20.755 22.3703 20.5773 22.437 20.3996 22.5703C20.2219 22.7036 20.133 22.9036 20.133 23.1703V26.5036C20.133 26.6814 20.2219 26.8592 20.3996 27.037C20.5773 27.2148 20.755 27.3036 20.9326 27.3036H24.2643C24.442 27.3036 24.6197 27.2148 24.7974 27.037C24.9751 26.8592 25.0639 26.6814 25.0639 26.5036V23.1703C25.0639 22.9036 24.9751 22.7036 24.7974 22.5703C24.6197 22.437 24.442 22.3703 24.2643 22.3703ZM23.4647 25.7036H21.7322V23.9703H23.4647V25.7036ZM31.594 22.3703H28.2623C28.0846 22.3703 27.9069 22.437 27.7292 22.5703C27.5516 22.7036 27.4627 22.9036 27.4627 23.1703V26.5036C27.4627 26.6814 27.5516 26.8592 27.7292 27.037C27.9069 27.2148 28.0846 27.3036 28.2623 27.3036H31.594C31.7717 27.3036 31.9494 27.2148 32.127 27.037C32.3047 26.8592 32.3936 26.6814 32.3936 26.5036V23.1703C32.3936 22.9036 32.3047 22.7036 32.127 22.5703C31.9494 22.437 31.7717 22.3703 31.594 22.3703ZM30.7944 25.7036H29.0619V23.9703H30.7944V25.7036ZM6.93963 20.637C6.76195 20.637 6.58426 20.7259 6.40657 20.9036C6.22888 21.0814 6.14003 21.2592 6.14003 21.437V31.3036C6.14003 31.4814 6.22888 31.6592 6.40657 31.837C6.58426 32.0148 6.76195 32.1036 6.93963 32.1036C7.11732 32.1036 7.29501 32.0148 7.4727 31.837C7.65039 31.6592 7.73924 31.4814 7.73924 31.3036V21.437C7.73924 21.2592 7.65039 21.0814 7.4727 20.9036C7.29501 20.7259 7.11732 20.637 6.93963 20.637ZM10.138 32.1036C10.3157 32.1036 10.4934 32.0148 10.6711 31.837C10.8488 31.6592 10.9376 31.4814 10.9376 31.3036V21.437C10.9376 21.2592 10.8488 21.0814 10.6711 20.9036C10.4934 20.7259 10.3157 20.637 10.138 20.637C9.96035 20.637 9.78266 20.7259 9.60497 20.9036C9.42728 21.0814 9.33844 21.2592 9.33844 21.437V31.3036C9.33844 31.4814 9.42728 31.6592 9.60497 31.837C9.78266 32.0148 9.96035 32.1036 10.138 32.1036ZM13.3364 32.1036C13.5141 32.1036 13.6918 32.0148 13.8695 31.837C14.0472 31.6592 14.136 31.4814 14.136 31.3036V21.437C14.136 21.2592 14.0472 21.0814 13.8695 20.9036C13.6918 20.7259 13.5141 20.637 13.3364 20.637C13.1587 20.637 12.9811 20.7259 12.8034 20.9036C12.6257 21.0814 12.5368 21.2592 12.5368 21.437V31.3036C12.5368 31.4814 12.6257 31.6592 12.8034 31.837C12.9811 32.0148 13.1587 32.1036 13.3364 32.1036Z" fill="#243E68"/>
</svg>
