<svg width="40" height="41" viewBox="0 0 40 41" fill="none" xmlns="http://www.w3.org/2000/svg">
<path d="M5 20.5C5 22.4698 5.38799 24.4204 6.14181 26.2403C6.89563 28.0601 8.00052 29.7137 9.3934 31.1066C10.7863 32.4995 12.4399 33.6044 14.2597 34.3582C16.0796 35.112 18.0302 35.5 20 35.5C21.9698 35.5 23.9204 35.112 25.7403 34.3582C27.5601 33.6044 29.2137 32.4995 30.6066 31.1066C31.9995 29.7137 33.1044 28.0601 33.8582 26.2403C34.612 24.4204 35 22.4698 35 20.5C35 18.5302 34.612 16.5796 33.8582 14.7597C33.1044 12.9399 31.9995 11.2863 30.6066 9.8934C29.2137 8.50052 27.5601 7.39563 25.7403 6.64181C23.9204 5.88799 21.9698 5.5 20 5.5C18.0302 5.5 16.0796 5.88799 14.2597 6.64181C12.4399 7.39563 10.7863 8.50052 9.3934 9.8934C8.00052 11.2863 6.89563 12.9399 6.14181 14.7597C5.38799 16.5796 5 18.5302 5 20.5Z" stroke="#243E68" stroke-width="2" stroke-linecap="round" stroke-linejoin="round"/>
<path d="M25 13.8359H15H16.6667C17.9927 13.8359 19.2645 14.3627 20.2022 15.3004C21.1399 16.2381 21.6667 17.5099 21.6667 18.8359C21.6667 20.162 21.1399 21.4338 20.2022 22.3715C19.2645 23.3092 17.9927 23.8359 16.6667 23.8359H15L20 28.8359M15 18.8359H25" stroke="#243E68" stroke-width="2" stroke-linecap="round" stroke-linejoin="round"/>
</svg>
