<svg width="40" height="41" viewBox="0 0 40 41" fill="none" xmlns="http://www.w3.org/2000/svg">
<g clip-path="url(#clip0_3442_7713)">
<path d="M28 28.5667C27.6444 28.5667 27.4 28.3889 27.2667 28.0333C27.1333 27.6778 27.2 27.3667 27.4667 27.1C27.7333 26.8333 28.0444 26.8111 28.4 27.0333C28.7556 27.2556 28.8889 27.5 28.8 27.7667C28.7111 28.0333 28.6 28.2333 28.4667 28.3667C28.3333 28.5 28.1778 28.5667 28 28.5667ZM23.6 13.9H16.4C16.1333 13.9 15.9333 13.9667 15.8 14.1C15.6667 14.2333 15.6 14.4333 15.6 14.7V24.5667C15.6 24.8333 15.6667 25.0333 15.8 25.1667C15.9333 25.3 16.1333 25.3667 16.4 25.3667H23.6C23.8667 25.3667 24.0667 25.3 24.2 25.1667C24.3333 25.0333 24.4 24.8333 24.4 24.5667V14.7C24.4 14.4333 24.3333 14.2333 24.2 14.1C24.0667 13.9667 23.8667 13.9 23.6 13.9ZM17.0667 15.5H19.2V23.9H17.0667V15.5ZM22.9333 23.9H20.8V15.5H22.9333V23.9ZM39.6 21.1L28.8 14.7V8.96667C28.8 8.7 28.7111 8.47778 28.5333 8.3L20.5333 2.03333C20.1778 1.85555 19.8222 1.85555 19.4667 2.03333L11.4667 8.3C11.2889 8.47778 11.2 8.7 11.2 8.96667V14.7L0.4 21.1C0.133333 21.1889 0 21.4111 0 21.7667V26.0333C0 26.3 0.0888889 26.5 0.266667 26.6333C0.444444 26.7667 0.6 26.8333 0.733333 26.8333C0.866667 26.8333 1.02222 26.7889 1.2 26.7L1.73333 26.4333V38.7C1.73333 38.8778 1.8 39.0556 1.93333 39.2333C2.06667 39.4111 2.26667 39.5 2.53333 39.5H37.4667C37.7333 39.5 37.9333 39.4111 38.0667 39.2333C38.2 39.0556 38.2667 38.8778 38.2667 38.7V26.4333L38.8 26.7C38.9778 26.7889 39.1333 26.8333 39.2667 26.8333C39.4 26.8333 39.5556 26.7667 39.7333 26.6333C39.9111 26.5 40 26.3 40 26.0333V21.7667C40 21.4111 39.8667 21.1889 39.6 21.1ZM20 3.63333L27.2 9.36666V11.9L20.5333 6.7C20.1778 6.43333 19.8222 6.43333 19.4667 6.7L12.8 11.9V9.36666L20 3.63333ZM1.6 22.1667L11.2 16.4333V18.9667L1.6 24.7V22.1667ZM3.33333 29.2333H6.66667V33.9H3.33333V29.2333ZM3.33333 35.3667H7.46667C7.73333 35.3667 7.93333 35.3 8.06667 35.1667C8.2 35.0333 8.26667 34.8333 8.26667 34.5667V28.4333C8.26667 28.1667 8.2 27.9667 8.06667 27.8333C7.93333 27.7 7.73333 27.6333 7.46667 27.6333H3.33333V25.5L11.2 20.8333V37.9H3.33333V35.3667ZM18.1333 37.9V29.3667H21.8667V37.9H18.1333ZM36.6667 33.9H33.0667V29.2333H36.6667V33.9ZM36.6667 27.6333H32.2667C32.0889 27.6333 31.9333 27.7 31.8 27.8333C31.6667 27.9667 31.6 28.1667 31.6 28.4333V34.5667C31.6 34.8333 31.6667 35.0333 31.8 35.1667C31.9333 35.3 32.0889 35.3667 32.2667 35.3667H36.6667V37.9H28.8V31.2333C28.8 31.0556 28.7333 30.8778 28.6 30.7C28.4667 30.5222 28.2889 30.4333 28.0667 30.4333C27.8444 30.4333 27.6444 30.5222 27.4667 30.7C27.2889 30.8778 27.2 31.0556 27.2 31.2333V37.9H23.3333V28.7C23.3333 28.4333 23.2667 28.2333 23.1333 28.1C23 27.9667 22.8444 27.9 22.6667 27.9H17.3333C17.1556 27.9 17 27.9667 16.8667 28.1C16.7333 28.2333 16.6667 28.4333 16.6667 28.7V37.9H12.8V13.9L20 8.3L27.2 13.9V24.1667C27.2 24.4333 27.2889 24.6333 27.4667 24.7667C27.6444 24.9 27.8444 24.9667 28.0667 24.9667C28.2889 24.9667 28.4667 24.9 28.6 24.7667C28.7333 24.6333 28.8 24.4333 28.8 24.1667V20.8333L36.6667 25.5V27.6333ZM38.4 24.7L28.8 18.9667V16.4333L38.4 22.1667V24.7Z" fill="#243E68"/>
</g>
<defs>
<clipPath id="clip0_3442_7713">
<rect width="40" height="40" fill="white" transform="matrix(1 0 0 -1 0 40.5)"/>
</clipPath>
</defs>
</svg>
