<svg width="51" height="32" viewBox="0 0 51 32" fill="none" xmlns="http://www.w3.org/2000/svg">
<path fill-rule="evenodd" clip-rule="evenodd" d="M8.37959 1.30469L6.33123 7.41437H7.57369C7.59886 7.41437 7.62379 7.41539 7.64844 7.41741C8.11736 7.45251 8.48692 7.84412 8.48692 8.32201V12.8963H27.2554V8.32153C27.2554 7.82054 27.6615 7.41437 28.1625 7.41437H29.4364L27.4293 1.30469H8.37959ZM30.4672 7.41437C30.4604 7.34861 30.4461 7.28218 30.4238 7.21596L28.3582 0.928183L28.3575 0.926118C28.235 0.558618 27.8865 0.304688 27.4943 0.304688H8.31508C7.92303 0.304688 7.57465 0.55837 7.45199 0.925583L7.45181 0.926118L5.34335 7.21505L5.34329 7.21503L5.34095 7.22238C5.32063 7.28626 5.30766 7.35054 5.30152 7.41437H0.907163C0.406169 7.41437 0 7.82054 0 8.32153V13.8517C0 14.3526 0.406169 14.7588 0.907163 14.7588H1.71981V30.7884C1.71981 31.2894 2.12597 31.6956 2.62697 31.6956H7.57369C8.07469 31.6956 8.48086 31.2894 8.48086 30.7884V29.5686H27.2554V30.7823C27.2554 31.2833 27.6615 31.6895 28.1625 31.6895H33.1093C33.6102 31.6895 34.0164 31.2833 34.0164 30.7823V14.7588H34.8291C35.33 14.7588 35.7362 14.3526 35.7362 13.8517V8.32153C35.7362 7.82054 35.33 7.41437 34.8291 7.41437H30.4672ZM28.2554 13.0096C28.2555 13.0028 28.2556 12.996 28.2556 12.9892V8.41484H29.5666C29.5765 8.41484 29.5864 8.41468 29.5962 8.41437H34.7362V13.7588H33.9236C33.4226 13.7588 33.0164 14.165 33.0164 14.666V30.6895H28.2554V13.0096ZM1 8.41437H6.17614C6.18615 8.41468 6.19622 8.41484 6.20635 8.41484H7.48086V13.5546C7.45712 13.6356 7.44439 13.7213 7.44439 13.81V20.5555C7.44439 20.6442 7.45712 20.73 7.48086 20.811V30.6956H2.71981V14.666C2.71981 14.165 2.31364 13.7588 1.81264 13.7588H1V8.41437ZM8.48086 20.4627H27.2131V13.9029H8.48086V20.4627ZM8.48712 22.3429V28.5686H27.2497V22.3429H8.48712Z" fill="#222222" fill-opacity="0.8"/>
<path d="M50.0386 6.61754H40.0333C39.8225 6.61754 39.6799 6.40677 39.7543 6.2084L41.862 0.691196C41.9054 0.573413 42.017 0.499023 42.141 0.499023H47.9247C48.0487 0.499023 48.1603 0.573413 48.2037 0.691196L50.3114 6.2084C50.392 6.40677 50.2494 6.61754 50.0386 6.61754Z" stroke="#222222" stroke-opacity="0.8" stroke-miterlimit="10"/>
<path d="M45.0352 6.61719V30.7565" stroke="#222222" stroke-opacity="0.8" stroke-miterlimit="10"/>
<path d="M48.5869 31.1288C48.5869 31.3334 48.4258 31.5007 48.2336 31.5007H41.8299C41.6377 31.5007 41.4766 31.3334 41.4766 31.1288C41.4766 30.9242 41.6377 30.7568 41.8299 30.7568H48.2398C48.432 30.7568 48.5869 30.9242 48.5869 31.1288Z" stroke="#222222" stroke-opacity="0.8" stroke-miterlimit="10"/>
<path d="M11.0559 10.056C10.6879 10.056 10.3572 9.992 10.0639 9.864C9.77588 9.73067 9.54921 9.54933 9.38388 9.32C9.21854 9.08533 9.13321 8.816 9.12788 8.512H9.90388C9.93054 8.77333 10.0372 8.99467 10.2239 9.176C10.4159 9.352 10.6932 9.44 11.0559 9.44C11.4025 9.44 11.6745 9.35467 11.8719 9.184C12.0745 9.008 12.1759 8.784 12.1759 8.512C12.1759 8.29867 12.1172 8.12533 11.9999 7.992C11.8825 7.85867 11.7359 7.75733 11.5599 7.688C11.3839 7.61867 11.1465 7.544 10.8479 7.464C10.4799 7.368 10.1839 7.272 9.95988 7.176C9.74121 7.08 9.55188 6.93067 9.39188 6.728C9.23721 6.52 9.15988 6.24267 9.15988 5.896C9.15988 5.592 9.23721 5.32267 9.39188 5.088C9.54654 4.85333 9.76254 4.672 10.0399 4.544C10.3225 4.416 10.6452 4.352 11.0079 4.352C11.5305 4.352 11.9572 4.48267 12.2879 4.744C12.6239 5.00533 12.8132 5.352 12.8559 5.784H12.0559C12.0292 5.57067 11.9172 5.384 11.7199 5.224C11.5225 5.05867 11.2612 4.976 10.9359 4.976C10.6319 4.976 10.3839 5.056 10.1919 5.216C9.99988 5.37067 9.90388 5.58933 9.90388 5.872C9.90388 6.07467 9.95988 6.24 10.0719 6.368C10.1892 6.496 10.3305 6.59467 10.4959 6.664C10.6665 6.728 10.9039 6.80267 11.2079 6.888C11.5759 6.98933 11.8719 7.09067 12.0959 7.192C12.3199 7.288 12.5119 7.44 12.6719 7.648C12.8319 7.85067 12.9119 8.128 12.9119 8.48C12.9119 8.752 12.8399 9.008 12.6959 9.248C12.5519 9.488 12.3385 9.68267 12.0559 9.832C11.7732 9.98133 11.4399 10.056 11.0559 10.056ZM14.7112 5.016V6.88H16.7432V7.48H14.7112V9.4H16.9832V10H13.9832V4.416H16.9832V5.016H14.7112ZM23.7408 4.464V10H23.0128V5.872L21.1728 10H20.6608L18.8128 5.864V10H18.0848V4.464H18.8688L20.9168 9.04L22.9648 4.464H23.7408ZM25.7034 4.424V10H24.9754V4.424H25.7034Z" fill="#222222" fill-opacity="0.8"/>
</svg>
