<svg width="32" height="51" viewBox="0 0 32 51" fill="none" xmlns="http://www.w3.org/2000/svg">
<path d="M18.8554 26.8594L19.2218 22.5287L13.5149 17.4033L13.1484 21.7345L18.8554 26.8594Z" stroke="#222222" stroke-opacity="0.8" stroke-miterlimit="10"/>
<path d="M13.5147 17.4033L7.80783 12.2783L7.44141 16.6091L13.1483 21.7344L13.5147 17.4033Z" stroke="#222222" stroke-opacity="0.8" stroke-miterlimit="10"/>
<path d="M2.46645 2.82324L1.36719 15.8155L7.0741 20.9409L7.44052 16.6097L1.73361 11.4847L7.44052 16.6097L7.80695 12.2789L2.10003 7.15399L7.80695 12.2789L8.17337 7.94818L7.80695 12.2789L13.5139 17.4039L13.8803 13.0731L13.5139 17.4039L19.2208 22.5292L19.5872 18.1985L19.2208 22.5292L24.9277 27.6542L25.2941 23.3234L24.9277 27.6542L30.6346 32.7791L31.001 28.4484L2.46645 2.82324Z" stroke="#222222" stroke-opacity="0.8" stroke-miterlimit="10"/>
<path d="M13.1477 21.7344L12.7812 26.0651L18.4885 31.1901L18.8546 26.8593L13.1477 21.7344Z" stroke="#222222" stroke-opacity="0.8" stroke-miterlimit="10"/>
<path d="M18.4883 31.1901L24.1952 36.3155L24.5612 31.9843L18.8543 26.8594L18.4883 31.1901Z" stroke="#222222" stroke-opacity="0.8" stroke-miterlimit="10"/>
<path d="M24.5624 31.985L24.9288 27.6542L19.2219 22.5293L18.8555 26.86L24.5624 31.985Z" stroke="#222222" stroke-opacity="0.8" stroke-miterlimit="10"/>
<path d="M18.4875 31.1897L18.1211 35.5209L18.4875 31.1897ZM18.4875 31.1897L12.7802 26.0648L12.4142 30.3955L12.7802 26.0648L7.07334 20.9398L6.70729 25.2706L7.07334 20.9398L1.36642 15.8145L1 20.1456L13.472 31.3455L14.0859 31.8906V31.8967L23.828 40.6458L24.1945 36.3151L18.4875 31.1897Z" stroke="#222222" stroke-opacity="0.8" stroke-miterlimit="10"/>
<path d="M24.5606 31.985L30.2679 37.1104L24.5606 31.985ZM24.5606 31.985L24.1945 36.3162L29.9015 41.4412L24.1945 36.3162L23.8281 40.647L29.535 45.7719L30.6339 32.7792L24.927 27.6543L24.5606 31.985Z" stroke="#222222" stroke-opacity="0.8" stroke-miterlimit="10"/>
<path d="M13.1476 21.7347L7.44064 16.6094L7.07422 20.9406L12.7811 26.0655L13.1476 21.7347Z" stroke="#222222" stroke-opacity="0.8" stroke-miterlimit="10"/>
<path d="M11.793 29.8574V47.3544H14.0839V31.8972L13.47 31.346L11.793 29.8574Z" stroke="#222222" stroke-opacity="0.8" stroke-miterlimit="10"/>
<path d="M13.4727 31.3457L14.0865 31.8969V31.8908L13.4727 31.3457Z" stroke="#222222" stroke-opacity="0.8" stroke-miterlimit="10"/>
<path d="M6.5 47.3545V50.0005H19.3791V47.3545H14.085H11.7941H6.5Z" stroke="#222222" stroke-opacity="0.8" stroke-miterlimit="10"/>
<path d="M7.72744 4.4396C7.72741 4.43958 7.72738 4.43955 7.72735 4.43953C7.6418 4.36711 7.60787 4.18892 7.68524 4.06889C7.71871 4.01741 7.75789 3.99898 7.78543 3.99425C7.81176 3.98974 7.84299 3.9945 7.87639 4.02264C7.87641 4.02266 7.87644 4.02268 7.87647 4.0227L9.02636 4.99327C9.02637 4.99328 9.02639 4.99329 9.0264 4.99331C9.11198 5.0657 9.14594 5.24392 9.06856 5.36397C9.03509 5.41545 8.9959 5.43389 8.96836 5.43862C8.94203 5.44313 8.9108 5.43837 8.87741 5.41023C8.87738 5.41021 8.87735 5.41019 8.87732 5.41016L7.72744 4.4396Z" stroke="#222222" stroke-opacity="0.8" stroke-width="0.8" stroke-miterlimit="10"/>
<path d="M10.999 1.39647C10.9404 1.23954 11.0123 1.10104 11.0908 1.05554C11.1231 1.0412 11.1488 1.04356 11.1728 1.05428C11.2012 1.06698 11.2431 1.10017 11.2724 1.17082L11.8458 2.66699C11.9044 2.82391 11.8325 2.96241 11.754 3.00791C11.7217 3.02225 11.696 3.01989 11.672 3.00917C11.6436 2.99647 11.6017 2.96327 11.5724 2.89263L10.999 1.39647Z" stroke="#222222" stroke-opacity="0.8" stroke-width="0.8" stroke-miterlimit="10"/>
<path d="M10.6145 6.69889L10.6145 6.69894C10.4355 6.97527 10.282 7.26447 10.1564 7.56258L17.4501 13.7194C17.6371 13.5137 17.8125 13.2874 17.972 13.0412C18.7341 11.8642 19.012 10.4288 18.8344 9.07586C18.6567 7.7225 18.0263 6.45357 17.0029 5.58983L10.6145 6.69889ZM10.6145 6.69889C11.3768 5.52148 12.4767 4.8227 13.6204 4.62663M10.6145 6.69889L13.6204 4.62663M13.6204 4.62663C14.7735 4.4368 15.9917 4.73642 17.0029 5.58982L13.6204 4.62663Z" stroke="#222222" stroke-opacity="0.8" stroke-width="0.8" stroke-miterlimit="10"/>
<path d="M22.4024 10.824L22.4024 10.824L22.4053 10.8244C22.4352 10.8281 22.472 10.8457 22.5047 10.8922C22.5375 10.9389 22.5605 11.009 22.5532 11.092C22.5434 11.174 22.508 11.2313 22.4735 11.2624C22.4406 11.2922 22.4122 11.297 22.3893 11.2937L22.3893 11.2936L22.3838 11.2929L20.958 11.105L20.958 11.105L20.9552 11.1046C20.925 11.1009 20.8885 11.0831 20.8568 11.0378C20.8246 10.992 20.8033 10.9241 20.8122 10.8448L20.8122 10.8448L20.8129 10.8383C20.8209 10.7536 20.8562 10.6961 20.8895 10.6656C20.9211 10.6368 20.9485 10.632 20.9711 10.6353L20.9711 10.6354L20.9766 10.6361L22.4024 10.824Z" stroke="#222222" stroke-opacity="0.8" stroke-width="0.8" stroke-miterlimit="10"/>
<path d="M20.8677 15.3175C20.8677 15.3175 20.8678 15.3175 20.8678 15.3176C20.9526 15.3893 20.9879 15.5674 20.9079 15.6909L21.2437 15.9081L20.9081 15.6906C20.8746 15.7422 20.8354 15.7607 20.8078 15.7654C20.7815 15.77 20.7502 15.7652 20.7168 15.7371C20.7168 15.737 20.7168 15.737 20.7168 15.737L19.5669 14.7664C19.5668 14.7664 19.5668 14.7664 19.5668 14.7664C19.482 14.6946 19.4467 14.5165 19.5266 14.393L19.1908 14.1757L19.5264 14.3934C19.5599 14.3417 19.5992 14.3232 19.6268 14.3185C19.6531 14.314 19.6843 14.3187 19.7177 14.3469C19.7177 14.3469 19.7178 14.3469 19.7178 14.3469L20.8677 15.3175Z" stroke="#222222" stroke-opacity="0.8" stroke-width="0.8" stroke-miterlimit="10"/>
<path d="M15.176 0.613296L15.176 0.613298L15.1764 0.609092C15.1845 0.524584 15.2199 0.465642 15.2546 0.433383C15.2884 0.401989 15.3163 0.398318 15.3341 0.4006L15.3355 0.400768C15.3657 0.404531 15.4022 0.4223 15.4339 0.467554C15.466 0.513395 15.4874 0.581327 15.4785 0.660609L15.4785 0.660606L15.478 0.664919L15.3135 2.2928L15.3134 2.2928L15.3132 2.295C15.3051 2.3797 15.2699 2.43721 15.2365 2.46766C15.205 2.49647 15.1776 2.50125 15.155 2.49795L15.155 2.49786L15.1466 2.49681C15.1164 2.49305 15.0799 2.47528 15.0482 2.43003C15.0161 2.38419 14.9947 2.31625 15.0036 2.23697L15.0038 2.23467L15.176 0.613296Z" stroke="#222222" stroke-opacity="0.8" stroke-width="0.8" stroke-miterlimit="10"/>
<path d="M19.1252 2.30636C19.1252 2.30633 19.1253 2.30629 19.1253 2.30626C19.1606 2.25188 19.2003 2.23396 19.2253 2.22954C19.2481 2.22554 19.2791 2.22839 19.3165 2.25983C19.4012 2.33167 19.4364 2.50962 19.3565 2.63305L18.5065 3.94598C18.5064 3.94602 18.5064 3.94607 18.5064 3.94612C18.4731 3.99738 18.435 4.01469 18.4089 4.01903C18.3837 4.02323 18.3519 4.01878 18.3171 3.9895C18.2316 3.91702 18.1977 3.73879 18.2752 3.6188C18.2752 3.61875 18.2752 3.61871 18.2752 3.61867L19.1252 2.30636Z" stroke="#222222" stroke-opacity="0.8" stroke-width="0.8" stroke-miterlimit="10"/>
<path d="M21.7804 6.05566C21.8148 6.03905 21.8418 6.04111 21.8669 6.05233C21.895 6.06492 21.9365 6.09768 21.9658 6.16716C22.024 6.3283 21.9475 6.46468 21.8724 6.50462L20.5619 7.15934C20.5275 7.17596 20.5005 7.17389 20.4754 7.16268C20.4472 7.15008 20.4058 7.11732 20.3765 7.04786C20.3198 6.89087 20.3933 6.75299 20.4721 6.70928L21.7804 6.05566Z" stroke="#222222" stroke-opacity="0.8" stroke-width="0.8" stroke-miterlimit="10"/>
</svg>
