<svg width="28" height="37" viewBox="0 0 28 37" fill="none" xmlns="http://www.w3.org/2000/svg">
<path d="M12.0221 1L1 8.68992V30.1073L12.0221 36L27 30.1073V8.68992L12.0221 1ZM18.5626 6.55467C18.5626 6.42791 18.6745 6.3419 18.7747 6.39321L21.3328 7.69548C21.3873 7.72415 21.4242 7.78753 21.4242 7.85695V11.6763C21.4242 11.797 21.3211 11.883 21.2224 11.8422L18.6642 10.801C18.6038 10.7769 18.5626 10.709 18.5626 10.635V6.55467ZM13.2445 4.02104C13.2445 3.87014 13.3962 3.76904 13.5302 3.8294L16.972 5.37311C17.0457 5.40631 17.0943 5.48176 17.0943 5.56476V10.0918C17.0943 10.2351 16.9558 10.3363 16.8233 10.2895L13.3814 9.05661C13.299 9.02794 13.2445 8.94796 13.2445 8.85893V4.02104ZM13.1016 18.1333L13.2401 13.2471C13.243 13.1596 13.3211 13.0932 13.405 13.1083L16.9779 13.7481C17.0457 13.7602 17.0943 13.8206 17.0943 13.89V18.337C17.0943 18.42 17.0265 18.4864 16.9455 18.4819L13.2342 18.2812C13.1591 18.2782 13.0987 18.2118 13.1016 18.1333ZM19.8306 32.1128C19.8306 32.1837 19.7865 32.2486 19.7217 32.2727L15.3225 33.9161C15.2136 33.9568 15.0987 33.8738 15.0987 33.7561V22.4717C15.0987 22.3827 15.1649 22.3087 15.2504 22.3012L19.6495 21.9209C19.7467 21.9119 19.8292 21.9903 19.8292 22.0914V32.1128H19.8306ZM21.461 18.6569C21.461 18.7294 21.4094 18.7867 21.349 18.7822L18.5538 18.6087C18.4963 18.6056 18.4507 18.5483 18.4536 18.4789L18.5582 14.2355C18.5596 14.1586 18.6186 14.1027 18.6834 14.1148L21.3756 14.6701C21.4271 14.6807 21.4639 14.7335 21.4639 14.7939V18.6569H21.461ZM25.0486 29.9534C25.0486 30.0092 25.0191 30.0605 24.9735 30.0802L21.9735 31.3749C21.8999 31.4066 21.8218 31.3417 21.8218 31.2481V22.354C21.8218 22.2846 21.8675 22.2257 21.9264 22.2197L24.9264 21.9194C24.9926 21.9134 25.0501 21.9753 25.0501 22.0537V29.9534H25.0486ZM25.9205 19.0055C25.9205 19.0689 25.8837 19.1187 25.838 19.1157L23.785 18.9633C23.7423 18.9602 23.7099 18.9105 23.7113 18.8501L23.7879 15.1349C23.7894 15.0685 23.8321 15.0187 23.8792 15.0293L25.8557 15.5167C25.8925 15.5257 25.9205 15.571 25.9205 15.6253V19.0055ZM25.9205 12.8261C25.9205 12.9272 25.8409 12.9997 25.7644 12.9649L23.7894 12.0927C23.7423 12.0716 23.7113 12.0158 23.7113 11.9539V8.52997C23.7113 8.42283 23.7982 8.3519 23.8748 8.39415L25.8498 9.48668C25.8925 9.51082 25.9205 9.56364 25.9205 9.62249V12.8261Z" stroke="#222222" stroke-opacity="0.5" stroke-miterlimit="10" stroke-linecap="round" stroke-linejoin="round"/>
</svg>
