<svg width="36" height="37" viewBox="0 0 36 37" fill="none" xmlns="http://www.w3.org/2000/svg">
<path fill-rule="evenodd" clip-rule="evenodd" d="M1.46055 1.49902C1.20605 1.49902 1 1.70512 1 1.95949V35.0411C1 35.2955 1.20605 35.5016 1.46055 35.5016H7.35769C7.0148 34.4471 6.83039 33.3254 6.83039 32.163C6.83039 27.0778 10.3467 22.8072 15.1423 21.4438C12.2733 20.3057 10.2446 17.5053 10.2446 14.231C10.2446 9.94715 13.7174 6.47439 18.0012 6.47439C22.2851 6.47439 25.7579 9.94715 25.7579 14.231C25.7579 17.3821 23.8789 20.0943 21.1803 21.3084C26.1939 22.4971 29.9671 26.8577 30.0264 32.0383C30.0402 33.2455 29.8549 34.4094 29.4994 35.5016H34.542C34.7965 35.5016 35.0026 35.2955 35.0026 35.0411V1.95949C35.0026 1.70463 34.796 1.49902 34.5434 1.49902H1.46055ZM0 1.95949C0 1.15275 0.653843 0.499023 1.46055 0.499023H34.5434C35.3492 0.499023 36.0026 1.15324 36.0026 1.95949V35.0411C36.0026 35.8479 35.3487 36.5016 34.542 36.5016H1.46055C0.653843 36.5016 0 35.8479 0 35.0411V1.95949ZM18.0012 7.47439C14.2696 7.47439 11.2446 10.4994 11.2446 14.231C11.2446 17.9626 14.2696 20.9876 18.0012 20.9876C21.7328 20.9876 24.7579 17.9626 24.7579 14.231C24.7579 10.4994 21.7328 7.47439 18.0012 7.47439ZM7.83039 32.163C7.83039 26.4782 12.6985 21.8532 18.6902 21.9912L18.6904 21.9912C24.378 22.124 28.9643 26.6212 29.0265 32.0498C29.0404 33.261 28.8336 34.4227 28.442 35.5015H8.41496C8.03601 34.4564 7.83039 33.3332 7.83039 32.163Z" fill="#222222" fill-opacity="0.5"/>
</svg>
