<svg width="74" height="41" viewBox="0 0 74 41" fill="none" xmlns="http://www.w3.org/2000/svg">
<path d="M66.9219 12.4395H25.9219L32.6626 2.43945H60.1117L66.9219 12.4395Z" stroke="#222222" stroke-opacity="0.8" stroke-width="0.5" stroke-miterlimit="10"/>
<path d="M72.9219 21.4395V31.7846C72.9219 32.6518 72.575 33.4572 72.02 34.0766C71.257 34.8819 70.147 35.4395 68.8289 35.4395H24.0148C23.0436 35.4395 22.1418 35.1297 21.3787 34.5722C20.4768 33.9527 19.9219 32.9616 19.9219 31.8465V21.4395H72.9219Z" stroke="#222222" stroke-opacity="0.8" stroke-width="0.5" stroke-miterlimit="10"/>
<path d="M72.9219 21.4395H19.9219L25.9572 12.4395H66.8865L72.9219 21.4395Z" stroke="#222222" stroke-opacity="0.8" stroke-width="0.5" stroke-miterlimit="10"/>
<path d="M70.3196 12.4395H67.5128C67.1435 12.4395 66.9219 12.2395 66.9219 12.0395V10.8395C66.9219 10.5895 67.2173 10.4395 67.5128 10.4395H70.3196C70.6889 10.4395 70.9105 10.6395 70.9105 10.8395V12.0395C70.9843 12.2395 70.6889 12.4395 70.3196 12.4395Z" stroke="#222222" stroke-opacity="0.8" stroke-width="0.5" stroke-miterlimit="10"/>
<path d="M25.3196 12.4395H22.5128C22.1435 12.4395 21.9219 12.2395 21.9219 12.0395V10.8395C21.9219 10.5895 22.2173 10.4395 22.5128 10.4395H25.3196C25.6889 10.4395 25.9105 10.6395 25.9105 10.8395V12.0395C25.9843 12.2395 25.6889 12.4395 25.3196 12.4395Z" stroke="#222222" stroke-opacity="0.8" stroke-width="0.5" stroke-miterlimit="10"/>
<path d="M31.9219 36.251V38.1641C31.9219 38.8597 31.2552 39.4395 30.4552 39.4395H23.3885C22.5885 39.4395 21.9219 38.8597 21.9219 38.1641V35.4395C22.5885 35.9612 23.4552 36.251 24.4552 36.251H31.9219Z" fill="#222222" fill-opacity="0.8"/>
<path d="M60.9219 36.251V38.1641C60.9219 38.8597 61.5885 39.4395 62.3885 39.4395H69.4552C70.2552 39.4395 70.9219 38.8597 70.9219 38.1641V35.4395C70.2552 35.9612 69.3885 36.251 68.3885 36.251H60.9219Z" fill="#222222" fill-opacity="0.8"/>
<path d="M28.9821 27.4395H24.7893C24.2833 27.4395 23.9219 27.0184 23.9219 26.5973V24.2816C23.9219 23.7903 24.3556 23.4395 24.7893 23.4395H29.0544C29.5604 23.4395 29.9219 23.8605 29.9219 24.2816V26.5973C29.9219 27.0886 29.4881 27.4395 28.9821 27.4395Z" stroke="#222222" stroke-opacity="0.8" stroke-width="0.5" stroke-miterlimit="10"/>
<path d="M68.0544 27.4395H63.7893C63.2833 27.4395 62.9219 27.0184 62.9219 26.5973V24.2816C62.9219 23.7903 63.3556 23.4395 63.7893 23.4395H68.0544C68.5604 23.4395 68.9219 23.8605 68.9219 24.2816V26.5973C68.9219 27.0886 68.5604 27.4395 68.0544 27.4395Z" stroke="#222222" stroke-opacity="0.8" stroke-width="0.5" stroke-miterlimit="10"/>
<path d="M9.46094 35.9873H13.6537V39.2088C13.6537 39.8893 13.1024 40.4395 12.4205 40.4395H10.6941C10.0122 40.4395 9.46094 39.8893 9.46094 39.2088V35.9873Z" fill="#222222" fill-opacity="0.8" stroke="#222222" stroke-opacity="0.8" stroke-width="0.5"/>
<path d="M9.06143 4.97596H2.3468C1.60207 4.97596 1 4.45231 1 3.80559C1 3.48223 1.15233 3.18783 1.39413 2.97548C1.63834 2.76553 1.97443 2.63281 2.3468 2.63281H8.80996C8.72292 2.91032 8.67456 3.20714 8.67456 3.5136C8.67456 3.58358 8.67697 3.65115 8.68423 3.71872C8.71324 4.1748 8.84623 4.59951 9.06143 4.97596Z" stroke="#222222" stroke-opacity="0.8" stroke-width="0.5" stroke-miterlimit="10"/>
<path d="M22.1065 3.80559C22.1065 4.12895 21.9541 4.42094 21.7123 4.63329C21.4681 4.84565 21.132 4.97596 20.7597 4.97596H14.207C14.4077 4.62364 14.5383 4.22789 14.577 3.80559L14.5842 3.71872C14.5915 3.65115 14.5939 3.58358 14.5939 3.5136C14.5939 3.20714 14.548 2.91032 14.4585 2.63281H20.7597C21.5044 2.63281 22.1065 3.15887 22.1065 3.80559Z" stroke="#222222" stroke-opacity="0.8" stroke-width="0.5" stroke-miterlimit="10"/>
<path d="M16.9764 12.0011V29.7038C16.9764 31.7067 15.8883 33.4538 14.2683 34.3876V26.7235C14.2683 25.4808 13.2576 24.4745 12.0147 24.4745H11.1008C9.85552 24.4745 8.84724 25.4808 8.84724 26.7235V34.3876C7.22721 33.4538 6.13672 31.7067 6.13672 29.7038V12.0011C6.13672 9.0136 8.56434 6.59082 11.5578 6.59082C13.0545 6.59082 14.4085 7.19652 15.3902 8.17625C16.3695 9.15356 16.9764 10.5073 16.9764 12.0011Z" stroke="#222222" stroke-opacity="0.8" stroke-width="0.5" stroke-miterlimit="10"/>
<path d="M14.2648 26.7236V35.5291C14.2648 35.7825 14.0593 35.9876 13.8054 35.9876H9.30316C9.04927 35.9876 8.84375 35.7825 8.84375 35.5291V26.7236C8.84375 25.4809 9.85203 24.4746 11.0973 24.4746H12.0113C13.2541 24.4746 14.2648 25.4809 14.2648 26.7236Z" stroke="#222222" stroke-opacity="0.8" stroke-width="0.5" stroke-miterlimit="10"/>
<path d="M11.5525 12.614C12.7356 12.614 13.6948 11.6567 13.6948 10.4759C13.6948 9.29512 12.7356 8.33789 11.5525 8.33789C10.3693 8.33789 9.41016 9.29512 9.41016 10.4759C9.41016 11.6567 10.3693 12.614 11.5525 12.614Z" stroke="#222222" stroke-opacity="0.8" stroke-width="0.5" stroke-miterlimit="10"/>
<path d="M14.5153 3.51421C14.5153 3.5842 14.5129 3.65176 14.5056 3.71933L14.4984 3.8062C14.4597 4.2285 14.3291 4.62425 14.1284 4.97657C13.9858 5.22512 13.8068 5.45437 13.5989 5.64983C13.0694 6.15659 12.3488 6.46788 11.5557 6.46788C10.7602 6.46788 10.0397 6.15659 9.51015 5.64983C9.30463 5.45437 9.1257 5.22512 8.98062 4.97657C8.76542 4.60012 8.63244 4.17541 8.60342 3.71933C8.59617 3.65176 8.59375 3.5842 8.59375 3.51421C8.59375 3.20775 8.64211 2.91093 8.72916 2.63342C8.82346 2.32696 8.96853 2.04221 9.1523 1.78883C9.68908 1.04317 10.5668 0.560547 11.5557 0.560547C12.5447 0.560547 13.42 1.04317 13.9568 1.78883C14.1405 2.04221 14.2856 2.32696 14.3799 2.63342C14.4694 2.91093 14.5153 3.20775 14.5153 3.51421Z" stroke="#222222" stroke-opacity="0.8" stroke-width="0.5" stroke-miterlimit="10"/>
<path d="M20.7828 3.80566H14.4961" stroke="#222222" stroke-opacity="0.8" stroke-width="0.5" stroke-miterlimit="10" stroke-linecap="round" stroke-linejoin="round"/>
<path d="M8.61478 3.80566H2.32812" stroke="#222222" stroke-opacity="0.8" stroke-width="0.5" stroke-miterlimit="10" stroke-linecap="round" stroke-linejoin="round"/>
</svg>
