<svg width="42" height="41" viewBox="0 0 42 41" fill="none" xmlns="http://www.w3.org/2000/svg">
<path d="M15.8498 13.3896H9.83984V36.9796H15.8498V13.3896Z" stroke="#222222" stroke-opacity="0.8" stroke-width="0.5" stroke-miterlimit="10"/>
<path d="M21.5789 36.9805H4.87891V40.5005H21.5789V36.9805Z" stroke="#222222" stroke-opacity="0.8" stroke-width="0.5" stroke-miterlimit="10"/>
<path d="M40.9995 30.1904H25.7695V34.4904H40.9995V30.1904Z" stroke="#222222" stroke-opacity="0.8" stroke-width="0.5" stroke-miterlimit="10"/>
<path d="M33.3719 30.1905H27.6719L30.5219 28.2105L33.3719 26.2305L36.2219 28.2105L39.0819 30.1905H33.3719Z" stroke="#222222" stroke-opacity="0.8" stroke-width="0.5" stroke-miterlimit="10"/>
<path d="M38.0306 13.3896H28.8906V16.5196H38.0306V13.3896Z" stroke="#222222" stroke-opacity="0.8" stroke-width="0.5" stroke-miterlimit="10"/>
<path d="M35.5305 16.5195H31.2305V20.4095H35.5305V16.5195Z" stroke="#222222" stroke-opacity="0.8" stroke-width="0.5" stroke-miterlimit="10"/>
<path d="M33.9681 22.26V19.71H32.7981V22.26C33.2981 22.26 33.6981 22.65 33.7181 23.15C33.7181 23.29 33.7181 23.43 33.7081 23.57C33.6581 24.53 32.0781 24.24 32.0781 24.24V26.22H34.3281C35.4281 26.22 35.1781 25.49 35.1781 24.39C35.1781 23.29 35.4281 22.25 34.3281 22.25H33.9681V22.26Z" stroke="#222222" stroke-opacity="0.8" stroke-width="0.5" stroke-miterlimit="10"/>
<path d="M41 9.87988H1V13.3999H41V9.87988Z" stroke="#222222" stroke-opacity="0.8" stroke-width="0.5" stroke-miterlimit="10"/>
<path d="M15.8495 0.5H10.7695V9.88H15.8495V0.5Z" stroke="#222222" stroke-opacity="0.8" stroke-width="0.5" stroke-miterlimit="10"/>
<path d="M5.75 4.37988H1V6.75988H5.75V4.37988Z" stroke="#222222" stroke-opacity="0.8" stroke-width="0.5" stroke-miterlimit="10"/>
<path d="M9.23 6.75977H1V9.87977H9.23V6.75977Z" stroke="#222222" stroke-opacity="0.8" stroke-width="0.5" stroke-miterlimit="10"/>
<path d="M15.8398 1.38965L39.7398 9.87965H36.9698L15.8398 2.56965V1.38965Z" stroke="#222222" stroke-opacity="0.8" stroke-width="0.5" stroke-miterlimit="10"/>
<path d="M15.8398 32.9395L9.83984 35.4295" stroke="#222222" stroke-opacity="0.8" stroke-width="0.5" stroke-miterlimit="10"/>
<path d="M15.8398 30.3701L9.83984 32.8601" stroke="#222222" stroke-opacity="0.8" stroke-width="0.5" stroke-miterlimit="10"/>
<path d="M15.8398 27.7998L9.83984 30.2998" stroke="#222222" stroke-opacity="0.8" stroke-width="0.5" stroke-miterlimit="10"/>
<path d="M15.8398 25.2393L9.83984 27.7293" stroke="#222222" stroke-opacity="0.8" stroke-width="0.5" stroke-miterlimit="10"/>
<path d="M15.8398 22.6699L9.83984 25.1599" stroke="#222222" stroke-opacity="0.8" stroke-width="0.5" stroke-miterlimit="10"/>
<path d="M15.8398 20.0996L9.83984 22.5896" stroke="#222222" stroke-opacity="0.8" stroke-width="0.5" stroke-miterlimit="10"/>
<path d="M15.8398 17.5293L9.83984 20.0293" stroke="#222222" stroke-opacity="0.8" stroke-width="0.5" stroke-miterlimit="10"/>
<path d="M15.8398 14.9697L9.83984 17.4597" stroke="#222222" stroke-opacity="0.8" stroke-width="0.5" stroke-miterlimit="10"/>
<path d="M13.4598 13.3896L9.83984 14.8896" stroke="#222222" stroke-opacity="0.8" stroke-width="0.5" stroke-miterlimit="10"/>
<path d="M15.8405 35.4893L12.2305 36.9793" stroke="#222222" stroke-opacity="0.8" stroke-width="0.5" stroke-miterlimit="10"/>
<path d="M27.3095 30.1904L25.7695 31.7304L29.4795 30.2404L25.7695 33.3204L32.3295 30.1904L27.1695 34.4804L34.9595 30.1904L30.5695 34.4804L37.5795 30.1904L33.4595 34.4804L39.2995 30.1904L36.3195 34.4804L40.9995 31.2804L38.4395 34.4804L40.9995 33.2704" stroke="#222222" stroke-opacity="0.8" stroke-width="0.5" stroke-miterlimit="10" stroke-linecap="round" stroke-linejoin="round"/>
<path d="M39.4595 30.1904L40.9995 31.7304L37.2895 30.2404L40.9995 33.3204L34.4295 30.1904L39.5895 34.4804L31.8095 30.1904L36.1995 34.4804L29.1795 30.1904L33.2995 34.4804L27.4595 30.1904L30.4495 34.4804L25.7695 31.2804L28.3195 34.4804L25.7695 33.2704" stroke="#222222" stroke-opacity="0.8" stroke-width="0.5" stroke-miterlimit="10" stroke-linecap="round" stroke-linejoin="round"/>
</svg>
