<svg width="51" height="33" viewBox="0 0 51 33" fill="none" xmlns="http://www.w3.org/2000/svg">
<path fill-rule="evenodd" clip-rule="evenodd" d="M8.37959 1.80469L6.33123 7.91437H7.57369C7.59886 7.91437 7.62379 7.91539 7.64844 7.91741C8.11736 7.95251 8.48692 8.34412 8.48692 8.82201V13.3963H27.2554V8.82153C27.2554 8.32054 27.6615 7.91437 28.1625 7.91437H29.4364L27.4293 1.80469H8.37959ZM30.4672 7.91437C30.4604 7.84861 30.4461 7.78218 30.4238 7.71596L28.3582 1.42818L28.3575 1.42612C28.235 1.05862 27.8865 0.804688 27.4943 0.804688H8.31508C7.92303 0.804688 7.57465 1.05837 7.45199 1.42558L7.45181 1.42612L5.34335 7.71505L5.34329 7.71503L5.34095 7.72238C5.32063 7.78626 5.30766 7.85054 5.30152 7.91437H0.907163C0.406169 7.91437 0 8.32054 0 8.82153V14.3517C0 14.8526 0.406169 15.2588 0.907163 15.2588H1.71981V31.2884C1.71981 31.7894 2.12597 32.1956 2.62697 32.1956H7.57369C8.07469 32.1956 8.48086 31.7894 8.48086 31.2884V30.0686H27.2554V31.2823C27.2554 31.7833 27.6615 32.1895 28.1625 32.1895H33.1093C33.6102 32.1895 34.0164 31.7833 34.0164 31.2823V15.2588H34.8291C35.33 15.2588 35.7362 14.8526 35.7362 14.3517V8.82153C35.7362 8.32054 35.33 7.91437 34.8291 7.91437H30.4672ZM28.2554 13.5096C28.2555 13.5028 28.2556 13.496 28.2556 13.4892V8.91484H29.5666C29.5765 8.91484 29.5864 8.91468 29.5962 8.91437H34.7362V14.2588H33.9236C33.4226 14.2588 33.0164 14.665 33.0164 15.166V31.1895H28.2554V13.5096ZM1 8.91437H6.17614C6.18615 8.91468 6.19622 8.91484 6.20635 8.91484H7.48086V14.0546C7.45712 14.1356 7.44439 14.2213 7.44439 14.31V21.0555C7.44439 21.1442 7.45712 21.23 7.48086 21.311V31.1956H2.71981V15.166C2.71981 14.665 2.31364 14.2588 1.81264 14.2588H1V8.91437ZM8.48086 20.9627H27.2131V14.4029H8.48086V20.9627ZM8.48712 22.8429V29.0686H27.2497V22.8429H8.48712Z" fill="#222222" fill-opacity="0.5"/>
<path d="M50.0386 7.11754H40.0333C39.8225 7.11754 39.6799 6.90677 39.7543 6.7084L41.862 1.1912C41.9054 1.07341 42.017 0.999023 42.141 0.999023H47.9247C48.0487 0.999023 48.1603 1.07341 48.2037 1.1912L50.3114 6.7084C50.392 6.90677 50.2494 7.11754 50.0386 7.11754Z" stroke="#222222" stroke-opacity="0.5" stroke-miterlimit="10"/>
<path d="M45.0352 7.11719V31.2565" stroke="#222222" stroke-opacity="0.5" stroke-miterlimit="10"/>
<path d="M48.5869 31.6288C48.5869 31.8334 48.4258 32.0007 48.2336 32.0007H41.8299C41.6377 32.0007 41.4766 31.8334 41.4766 31.6288C41.4766 31.4242 41.6377 31.2568 41.8299 31.2568H48.2398C48.432 31.2568 48.5869 31.4242 48.5869 31.6288Z" stroke="#222222" stroke-opacity="0.5" stroke-miterlimit="10"/>
</svg>
