<svg width="26" height="41" viewBox="0 0 26 41" fill="none" xmlns="http://www.w3.org/2000/svg">
<mask id="path-1-outside-1_1060_4700" maskUnits="userSpaceOnUse" x="0.00390625" y="-0.5" width="26" height="42" fill="black">
<rect fill="white" x="0.00390625" y="-0.5" width="26" height="42"/>
<path fill-rule="evenodd" clip-rule="evenodd" d="M23.7672 8.79989L13.5331 1.17052C13.2259 0.943161 12.813 0.943161 12.5059 1.17052L2.27178 8.79989C1.7884 9.15901 1.50391 9.73516 1.50391 10.3475V27.2132C1.50391 27.7093 1.89414 28.1097 2.37752 28.1097H7.3196C7.80298 28.1097 8.19321 27.7093 8.19321 27.2132V12.9233C8.19321 12.4273 8.58345 12.0268 9.06683 12.0268H16.9721C17.4555 12.0268 17.8458 12.4273 17.8458 12.9233V27.2132C17.8458 27.7093 18.236 28.1097 18.7194 28.1097H23.6615C24.1448 28.1097 24.5351 27.7093 24.5351 27.2132V10.3475C24.5351 9.73516 24.2481 9.1616 23.7672 8.79989ZM1.00391 10.3475C1.00391 9.58153 1.35961 8.85489 1.9732 8.39883L1.9736 8.39853L12.2071 0.769651L12.2084 0.768636C12.6923 0.410454 13.3467 0.410454 13.8306 0.768639L13.8319 0.769648L24.066 8.39902L24.0678 8.40031C24.6751 8.85712 25.0351 9.5791 25.0351 10.3475V27.2132C25.0351 27.9731 24.4331 28.6097 23.6615 28.6097H18.7194C18.5958 28.6097 18.4765 28.5934 18.3634 28.5628C19.3673 29.8272 19.9688 31.4516 19.9688 33.2167C19.9688 37.2149 16.8815 40.4994 13.0201 40.4994C9.15909 40.4994 6.07138 37.2153 6.07138 33.2245C6.07138 31.4549 6.67525 29.8265 7.68375 28.5606C7.56821 28.5926 7.44619 28.6097 7.3196 28.6097H2.37752C1.60588 28.6097 1.00391 27.9731 1.00391 27.2132V10.3475ZM8.64944 27.5637C9.13528 27.1515 9.67577 26.8064 10.2585 26.5422V15.3176V15.0887L10.4318 14.9391L12.6934 12.9868L13.0201 12.7047L13.3468 12.9868L15.6085 14.9391L15.7817 15.0887V15.3176V16.6591V16.8314L15.6756 16.9671L15.3208 17.4208L15.6756 17.8745L15.9161 18.182L15.6761 18.4899L15.3204 18.9463L15.6756 19.4005L15.9165 19.7085L15.6756 20.0166L15.3208 20.4703L15.6756 20.924L15.9161 21.2315L15.6761 21.5393L15.3204 21.9958L15.6756 22.45L15.7817 22.5857V22.758V26.5345C16.3628 26.7982 16.902 27.1425 17.387 27.5536C17.36 27.4443 17.3458 27.3302 17.3458 27.2132V12.9233C17.3458 12.6911 17.1673 12.5268 16.9721 12.5268H9.06683C8.8717 12.5268 8.69321 12.6911 8.69321 12.9233V27.2132C8.69321 27.3338 8.67805 27.4514 8.64944 27.5637ZM15.2817 26.8656V22.758L14.6861 21.9963L15.2817 21.232L14.6861 20.4703L15.2817 19.7085L14.6861 18.9468L15.2817 18.1825L14.6861 17.4208L15.2817 16.6591V15.3176L13.0201 13.3652L10.7585 15.3176V26.8734C8.31148 27.8353 6.57138 30.318 6.57138 33.2245C6.57138 36.9629 9.45836 39.9994 13.0201 39.9994C16.5819 39.9994 19.4688 36.9629 19.4688 33.2167C19.4688 30.3102 17.7263 27.8275 15.2817 26.8656ZM14.3418 37.0513C14.3418 37.8573 13.7265 38.4673 13.0201 38.4673C12.3117 38.4673 11.6985 37.8577 11.6985 37.0513C11.6985 36.2452 12.3137 35.6353 13.0201 35.6353C13.7265 35.6353 14.3418 36.2452 14.3418 37.0513ZM14.8418 37.0513C14.8418 38.1094 14.0261 38.9673 13.0201 38.9673C12.0116 38.9673 11.1985 38.1094 11.1985 37.0513C11.1985 35.9932 12.0141 35.1353 13.0201 35.1353C14.0261 35.1353 14.8418 35.9932 14.8418 37.0513Z"/>
</mask>
<path fill-rule="evenodd" clip-rule="evenodd" d="M23.7672 8.79989L13.5331 1.17052C13.2259 0.943161 12.813 0.943161 12.5059 1.17052L2.27178 8.79989C1.7884 9.15901 1.50391 9.73516 1.50391 10.3475V27.2132C1.50391 27.7093 1.89414 28.1097 2.37752 28.1097H7.3196C7.80298 28.1097 8.19321 27.7093 8.19321 27.2132V12.9233C8.19321 12.4273 8.58345 12.0268 9.06683 12.0268H16.9721C17.4555 12.0268 17.8458 12.4273 17.8458 12.9233V27.2132C17.8458 27.7093 18.236 28.1097 18.7194 28.1097H23.6615C24.1448 28.1097 24.5351 27.7093 24.5351 27.2132V10.3475C24.5351 9.73516 24.2481 9.1616 23.7672 8.79989ZM1.00391 10.3475C1.00391 9.58153 1.35961 8.85489 1.9732 8.39883L1.9736 8.39853L12.2071 0.769651L12.2084 0.768636C12.6923 0.410454 13.3467 0.410454 13.8306 0.768639L13.8319 0.769648L24.066 8.39902L24.0678 8.40031C24.6751 8.85712 25.0351 9.5791 25.0351 10.3475V27.2132C25.0351 27.9731 24.4331 28.6097 23.6615 28.6097H18.7194C18.5958 28.6097 18.4765 28.5934 18.3634 28.5628C19.3673 29.8272 19.9688 31.4516 19.9688 33.2167C19.9688 37.2149 16.8815 40.4994 13.0201 40.4994C9.15909 40.4994 6.07138 37.2153 6.07138 33.2245C6.07138 31.4549 6.67525 29.8265 7.68375 28.5606C7.56821 28.5926 7.44619 28.6097 7.3196 28.6097H2.37752C1.60588 28.6097 1.00391 27.9731 1.00391 27.2132V10.3475ZM8.64944 27.5637C9.13528 27.1515 9.67577 26.8064 10.2585 26.5422V15.3176V15.0887L10.4318 14.9391L12.6934 12.9868L13.0201 12.7047L13.3468 12.9868L15.6085 14.9391L15.7817 15.0887V15.3176V16.6591V16.8314L15.6756 16.9671L15.3208 17.4208L15.6756 17.8745L15.9161 18.182L15.6761 18.4899L15.3204 18.9463L15.6756 19.4005L15.9165 19.7085L15.6756 20.0166L15.3208 20.4703L15.6756 20.924L15.9161 21.2315L15.6761 21.5393L15.3204 21.9958L15.6756 22.45L15.7817 22.5857V22.758V26.5345C16.3628 26.7982 16.902 27.1425 17.387 27.5536C17.36 27.4443 17.3458 27.3302 17.3458 27.2132V12.9233C17.3458 12.6911 17.1673 12.5268 16.9721 12.5268H9.06683C8.8717 12.5268 8.69321 12.6911 8.69321 12.9233V27.2132C8.69321 27.3338 8.67805 27.4514 8.64944 27.5637ZM15.2817 26.8656V22.758L14.6861 21.9963L15.2817 21.232L14.6861 20.4703L15.2817 19.7085L14.6861 18.9468L15.2817 18.1825L14.6861 17.4208L15.2817 16.6591V15.3176L13.0201 13.3652L10.7585 15.3176V26.8734C8.31148 27.8353 6.57138 30.318 6.57138 33.2245C6.57138 36.9629 9.45836 39.9994 13.0201 39.9994C16.5819 39.9994 19.4688 36.9629 19.4688 33.2167C19.4688 30.3102 17.7263 27.8275 15.2817 26.8656ZM14.3418 37.0513C14.3418 37.8573 13.7265 38.4673 13.0201 38.4673C12.3117 38.4673 11.6985 37.8577 11.6985 37.0513C11.6985 36.2452 12.3137 35.6353 13.0201 35.6353C13.7265 35.6353 14.3418 36.2452 14.3418 37.0513ZM14.8418 37.0513C14.8418 38.1094 14.0261 38.9673 13.0201 38.9673C12.0116 38.9673 11.1985 38.1094 11.1985 37.0513C11.1985 35.9932 12.0141 35.1353 13.0201 35.1353C14.0261 35.1353 14.8418 35.9932 14.8418 37.0513Z" fill="#222222" fill-opacity="0.5"/>
<path d="M13.5331 1.17052L13.6526 1.01017L13.6521 1.00977L13.5331 1.17052ZM23.7672 8.79989L23.8874 8.64006L23.8867 8.63954L23.7672 8.79989ZM12.5059 1.17052L12.3869 1.00977L12.3864 1.01017L12.5059 1.17052ZM2.27178 8.79989L2.39105 8.96043L2.39132 8.96024L2.27178 8.79989ZM1.9732 8.39883L2.09251 8.55935L2.09254 8.55933L1.9732 8.39883ZM1.9736 8.39853L2.09293 8.55903L2.09313 8.55888L1.9736 8.39853ZM12.2071 0.769651L12.3266 0.929998V0.929997L12.2071 0.769651ZM12.2084 0.768636L12.0894 0.607883L12.0889 0.60829L12.2084 0.768636ZM13.8306 0.768639L13.7116 0.92939L13.7116 0.929405L13.8306 0.768639ZM13.8319 0.769648L13.9515 0.609301L13.9509 0.608882L13.8319 0.769648ZM24.066 8.39902L24.1856 8.23873L24.1856 8.23868L24.066 8.39902ZM24.0678 8.40031L24.188 8.24048L24.1874 8.24001L24.0678 8.40031ZM18.3634 28.5628L18.4156 28.3698L17.8289 28.2113L18.2068 28.6872L18.3634 28.5628ZM7.68375 28.5606L7.84018 28.6852L8.22399 28.2035L7.63037 28.3679L7.68375 28.5606ZM8.64944 27.5637L8.45562 27.5144L8.30102 28.1216L8.77883 27.7162L8.64944 27.5637ZM10.2585 26.5422L10.3411 26.7243L10.4585 26.6711V26.5422H10.2585ZM10.2585 15.0887L10.1278 14.9373L10.0585 14.9972V15.0887H10.2585ZM10.4318 14.9391L10.3011 14.7878H10.3011L10.4318 14.9391ZM12.6934 12.9868L12.5627 12.8354L12.6934 12.9868ZM13.0201 12.7047L13.1508 12.5533L13.0201 12.4405L12.8894 12.5533L13.0201 12.7047ZM13.3468 12.9868L13.4775 12.8354H13.4775L13.3468 12.9868ZM15.6085 14.9391L15.4778 15.0905H15.4778L15.6085 14.9391ZM15.7817 15.0887H15.9817V14.9972L15.9124 14.9373L15.7817 15.0887ZM15.7817 16.8314L15.9393 16.9546L15.9817 16.9003V16.8314H15.7817ZM15.6756 16.9671L15.8331 17.0903L15.6756 16.9671ZM15.3208 17.4208L15.1632 17.2976L15.0669 17.4208L15.1632 17.544L15.3208 17.4208ZM15.6756 17.8745L15.8331 17.7513L15.6756 17.8745ZM15.9161 18.182L16.0738 18.3049L16.1698 18.1818L16.0736 18.0588L15.9161 18.182ZM15.6761 18.4899L15.5184 18.3669H15.5184L15.6761 18.4899ZM15.3204 18.9463L15.1626 18.8234L15.0666 18.9465L15.1628 19.0695L15.3204 18.9463ZM15.6756 19.4005L15.5181 19.5237L15.6756 19.4005ZM15.9165 19.7085L16.074 19.8318L16.1704 19.7085L16.074 19.5853L15.9165 19.7085ZM15.6756 20.0166L15.8331 20.1398L15.6756 20.0166ZM15.3208 20.4703L15.1632 20.3471L15.0669 20.4703L15.1632 20.5935L15.3208 20.4703ZM15.6756 20.924L15.5181 21.0472L15.6756 20.924ZM15.9161 21.2315L16.0738 21.3544L16.1698 21.2312L16.0736 21.1083L15.9161 21.2315ZM15.6761 21.5393L15.8339 21.6623L15.8339 21.6623L15.6761 21.5393ZM15.3204 21.9958L15.1626 21.8728L15.0666 21.996L15.1628 22.119L15.3204 21.9958ZM15.6756 22.45L15.5181 22.5732H15.5181L15.6756 22.45ZM15.7817 22.5857H15.9817V22.5168L15.9393 22.4625L15.7817 22.5857ZM15.7817 26.5345H15.5817V26.6633L15.6991 26.7166L15.7817 26.5345ZM17.387 27.5536L17.2577 27.7062L17.7293 28.106L17.5812 27.5057L17.387 27.5536ZM15.2817 22.758H15.4817V22.6891L15.4393 22.6348L15.2817 22.758ZM15.2817 26.8656H15.0817V27.0018L15.2085 27.0517L15.2817 26.8656ZM14.6861 21.9963L14.5283 21.8734L14.4323 21.9965L14.5285 22.1195L14.6861 21.9963ZM15.2817 21.232L15.4395 21.3549L15.5355 21.2318L15.4393 21.1088L15.2817 21.232ZM14.6861 20.4703L14.5285 20.3471L14.4322 20.4703L14.5285 20.5935L14.6861 20.4703ZM15.2817 19.7085L15.4393 19.8318L15.5356 19.7085L15.4393 19.5853L15.2817 19.7085ZM14.6861 18.9468L14.5283 18.8239L14.4323 18.947L14.5285 19.07L14.6861 18.9468ZM15.2817 18.1825L15.4395 18.3055L15.5355 18.1823L15.4393 18.0593L15.2817 18.1825ZM14.6861 17.4208L14.5285 17.2976L14.4322 17.4208L14.5285 17.544L14.6861 17.4208ZM15.2817 16.6591L15.4393 16.7823L15.4817 16.728V16.6591H15.2817ZM15.2817 15.3176H15.4817V15.2261L15.4124 15.1662L15.2817 15.3176ZM13.0201 13.3652L13.1508 13.2138L13.0201 13.101L12.8894 13.2138L13.0201 13.3652ZM10.7585 15.3176L10.6278 15.1662L10.5585 15.2261V15.3176H10.7585ZM10.7585 26.8734L10.8317 27.0595L10.9585 27.0096V26.8734H10.7585ZM13.4135 1.33086L23.6477 8.96024L23.8867 8.63954L13.6526 1.01017L13.4135 1.33086ZM12.6249 1.33127C12.8613 1.15624 13.1776 1.15624 13.4141 1.33127L13.6521 1.00977C13.2742 0.730078 12.7647 0.730078 12.3869 1.00977L12.6249 1.33127ZM2.39132 8.96024L12.6254 1.33086L12.3864 1.01017L2.15224 8.63954L2.39132 8.96024ZM1.70391 10.3475C1.70391 9.79667 1.95985 9.28079 2.39105 8.96043L2.15251 8.63935C1.61694 9.03724 1.30391 9.67364 1.30391 10.3475H1.70391ZM1.70391 27.2132V10.3475H1.30391V27.2132H1.70391ZM2.37752 27.9097C2.00944 27.9097 1.70391 27.6037 1.70391 27.2132H1.30391C1.30391 27.8148 1.77883 28.3097 2.37752 28.3097V27.9097ZM7.3196 27.9097H2.37752V28.3097H7.3196V27.9097ZM7.99322 27.2132C7.99322 27.6037 7.68768 27.9097 7.3196 27.9097V28.3097C7.91829 28.3097 8.39321 27.8148 8.39321 27.2132H7.99322ZM7.99322 12.9233V27.2132H8.39321V12.9233H7.99322ZM9.06683 11.8268C8.46814 11.8268 7.99322 12.3217 7.99322 12.9233H8.39321C8.39321 12.5328 8.69875 12.2268 9.06683 12.2268V11.8268ZM16.9721 11.8268H9.06683V12.2268H16.9721V11.8268ZM18.0458 12.9233C18.0458 12.3217 17.5708 11.8268 16.9721 11.8268V12.2268C17.3402 12.2268 17.6458 12.5328 17.6458 12.9233H18.0458ZM18.0458 27.2132V12.9233H17.6458V27.2132H18.0458ZM18.7194 27.9097C18.3513 27.9097 18.0458 27.6037 18.0458 27.2132H17.6458C17.6458 27.8148 18.1207 28.3097 18.7194 28.3097V27.9097ZM23.6615 27.9097H18.7194V28.3097H23.6615V27.9097ZM24.3351 27.2132C24.3351 27.6037 24.0295 27.9097 23.6615 27.9097V28.3097C24.2601 28.3097 24.7351 27.8148 24.7351 27.2132H24.3351ZM24.3351 10.3475V27.2132H24.7351V10.3475H24.3351ZM23.647 8.95972C24.0773 9.28339 24.3351 9.79758 24.3351 10.3475H24.7351C24.7351 9.67273 24.4189 9.0398 23.8874 8.64006L23.647 8.95972ZM1.8539 8.23831C1.18811 8.73316 0.803906 9.52007 0.803906 10.3475H1.20391C1.20391 9.643 1.5311 8.97662 2.09251 8.55935L1.8539 8.23831ZM1.85427 8.23804L1.85387 8.23833L2.09254 8.55933L2.09293 8.55903L1.85427 8.23804ZM12.0875 0.609304L1.85406 8.23819L2.09313 8.55888L12.3266 0.929998L12.0875 0.609304ZM12.0889 0.60829L12.0875 0.609304L12.3266 0.929997L12.328 0.928983L12.0889 0.60829ZM13.9495 0.607887C13.395 0.197371 12.644 0.197372 12.0894 0.607884L12.3274 0.929389C12.7406 0.623537 13.2984 0.623537 13.7116 0.92939L13.9495 0.607887ZM13.9509 0.608882L13.9495 0.607872L13.7116 0.929405L13.713 0.930415L13.9509 0.608882ZM24.1856 8.23868L13.9515 0.609302L13.7124 0.929995L23.9465 8.55937L24.1856 8.23868ZM24.1874 8.24001L24.1856 8.23873L23.9464 8.55932L23.9482 8.56061L24.1874 8.24001ZM25.2351 10.3475C25.2351 9.51669 24.8459 8.73533 24.188 8.24048L23.9475 8.56014C24.5042 8.9789 24.8351 9.64152 24.8351 10.3475H25.2351ZM25.2351 27.2132V10.3475H24.8351V27.2132H25.2351ZM23.6615 28.8097C24.5489 28.8097 25.2351 28.0781 25.2351 27.2132H24.8351C24.8351 27.8681 24.3173 28.4097 23.6615 28.4097V28.8097ZM18.7194 28.8097H23.6615V28.4097H18.7194V28.8097ZM18.3113 28.7559C18.4413 28.791 18.5781 28.8097 18.7194 28.8097V28.4097C18.6135 28.4097 18.5118 28.3957 18.4156 28.3698L18.3113 28.7559ZM18.2068 28.6872C19.183 29.9168 19.7688 31.4975 19.7688 33.2167H20.1688C20.1688 31.4058 19.5516 29.7377 18.52 28.4385L18.2068 28.6872ZM19.7688 33.2167C19.7688 37.1143 16.7614 40.2994 13.0201 40.2994V40.6994C17.0015 40.6994 20.1688 37.3155 20.1688 33.2167H19.7688ZM13.0201 40.2994C9.27899 40.2994 6.27138 37.1145 6.27138 33.2245H5.87138C5.87138 37.3161 9.03919 40.6994 13.0201 40.6994V40.2994ZM6.27138 33.2245C6.27138 31.5008 6.85948 29.9162 7.84018 28.6852L7.52732 28.436C6.49101 29.7367 5.87138 31.4089 5.87138 33.2245H6.27138ZM7.3196 28.8097C7.46432 28.8097 7.6043 28.7901 7.73713 28.7533L7.63037 28.3679C7.53212 28.3951 7.42805 28.4097 7.3196 28.4097V28.8097ZM2.37752 28.8097H7.3196V28.4097H2.37752V28.8097ZM0.803906 27.2132C0.803906 28.0781 1.49005 28.8097 2.37752 28.8097V28.4097C1.72171 28.4097 1.20391 27.8681 1.20391 27.2132H0.803906ZM0.803906 10.3475V27.2132H1.20391V10.3475H0.803906ZM8.77883 27.7162C9.25086 27.3158 9.77567 26.9807 10.3411 26.7243L10.1759 26.36C9.57586 26.6321 9.01969 26.9873 8.52005 27.4112L8.77883 27.7162ZM10.4585 26.5422V15.3176H10.0585V26.5422H10.4585ZM10.4585 15.3176V15.0887H10.0585V15.3176H10.4585ZM10.3892 15.2401L10.5624 15.0905L10.3011 14.7878L10.1278 14.9373L10.3892 15.2401ZM10.5624 15.0905L12.8241 13.1381L12.5627 12.8354L10.3011 14.7878L10.5624 15.0905ZM12.8241 13.1381L13.1508 12.8561L12.8894 12.5533L12.5627 12.8354L12.8241 13.1381ZM12.8894 12.8561L13.2161 13.1381L13.4775 12.8354L13.1508 12.5533L12.8894 12.8561ZM13.2161 13.1381L15.4778 15.0905L15.7392 14.7878L13.4775 12.8354L13.2161 13.1381ZM15.4778 15.0905L15.651 15.2401L15.9124 14.9373L15.7392 14.7878L15.4778 15.0905ZM15.5817 15.0887V15.3176H15.9817V15.0887H15.5817ZM15.5817 15.3176V16.6591H15.9817V15.3176H15.5817ZM15.5817 16.6591V16.8314H15.9817V16.6591H15.5817ZM15.6242 16.7082L15.5181 16.8439L15.8331 17.0903L15.9393 16.9546L15.6242 16.7082ZM15.5181 16.8439L15.1632 17.2976L15.4783 17.544L15.8331 17.0903L15.5181 16.8439ZM15.1632 17.544L15.5181 17.9977L15.8331 17.7513L15.4783 17.2976L15.1632 17.544ZM15.5181 17.9977L15.7585 18.3052L16.0736 18.0588L15.8331 17.7513L15.5181 17.9977ZM15.7583 18.059L15.5184 18.3669L15.8339 18.6128L16.0738 18.3049L15.7583 18.059ZM15.5184 18.3669L15.1626 18.8234L15.4781 19.0692L15.8339 18.6128L15.5184 18.3669ZM15.1628 19.0695L15.5181 19.5237L15.8331 19.2773L15.4779 18.8231L15.1628 19.0695ZM15.5181 19.5237L15.7589 19.8318L16.074 19.5853L15.8331 19.2773L15.5181 19.5237ZM15.7589 19.5853L15.5181 19.8934L15.8331 20.1398L16.074 19.8318L15.7589 19.5853ZM15.5181 19.8934L15.1632 20.3471L15.4783 20.5935L15.8331 20.1398L15.5181 19.8934ZM15.1632 20.5935L15.5181 21.0472L15.8331 20.8008L15.4783 20.3471L15.1632 20.5935ZM15.5181 21.0472L15.7585 21.3547L16.0736 21.1083L15.8331 20.8008L15.5181 21.0472ZM15.7583 21.1085L15.5184 21.4164L15.8339 21.6623L16.0738 21.3544L15.7583 21.1085ZM15.5184 21.4164L15.1626 21.8728L15.4781 22.1187L15.8339 21.6623L15.5184 21.4164ZM15.1628 22.119L15.5181 22.5732L15.8331 22.3268L15.4779 21.8726L15.1628 22.119ZM15.5181 22.5732L15.6242 22.7089L15.9393 22.4625L15.8331 22.3268L15.5181 22.5732ZM15.5817 22.5857V22.758H15.9817V22.5857H15.5817ZM15.5817 22.758V26.5345H15.9817V22.758H15.5817ZM15.6991 26.7166C16.2629 26.9725 16.7865 27.3067 17.2577 27.7062L17.5163 27.4011C17.0176 26.9783 16.4627 26.6239 15.8644 26.3524L15.6991 26.7166ZM17.1458 27.2132C17.1458 27.3465 17.162 27.4767 17.1928 27.6016L17.5812 27.5057C17.558 27.4119 17.5458 27.3139 17.5458 27.2132H17.1458ZM17.1458 12.9233V27.2132H17.5458V12.9233H17.1458ZM16.9721 12.7268C17.0539 12.7268 17.1458 12.7986 17.1458 12.9233H17.5458C17.5458 12.5836 17.2807 12.3268 16.9721 12.3268V12.7268ZM9.06683 12.7268H16.9721V12.3268H9.06683V12.7268ZM8.89321 12.9233C8.89321 12.7986 8.98511 12.7268 9.06683 12.7268V12.3268C8.7583 12.3268 8.49322 12.5837 8.49322 12.9233H8.89321ZM8.89321 27.2132V12.9233H8.49322V27.2132H8.89321ZM8.84326 27.6131C8.87593 27.4847 8.89321 27.3507 8.89321 27.2132H8.49322C8.49322 27.317 8.48017 27.418 8.45562 27.5144L8.84326 27.6131ZM15.0817 22.758V26.8656H15.4817V22.758H15.0817ZM14.5285 22.1195L15.1242 22.8812L15.4393 22.6348L14.8436 21.8731L14.5285 22.1195ZM15.124 21.109L14.5283 21.8734L14.8438 22.1192L15.4395 21.3549L15.124 21.109ZM14.5285 20.5935L15.1242 21.3552L15.4393 21.1088L14.8436 20.3471L14.5285 20.5935ZM15.1242 19.5853L14.5285 20.3471L14.8436 20.5935L15.4393 19.8318L15.1242 19.5853ZM14.5285 19.07L15.1242 19.8318L15.4393 19.5853L14.8436 18.8236L14.5285 19.07ZM15.124 18.0596L14.5283 18.8239L14.8438 19.0698L15.4395 18.3055L15.124 18.0596ZM14.5285 17.544L15.1242 18.3057L15.4393 18.0593L14.8436 17.2976L14.5285 17.544ZM15.1242 16.5359L14.5285 17.2976L14.8436 17.544L15.4393 16.7823L15.1242 16.5359ZM15.0817 15.3176V16.6591H15.4817V15.3176H15.0817ZM12.8894 13.5166L15.151 15.469L15.4124 15.1662L13.1508 13.2138L12.8894 13.5166ZM10.8892 15.469L13.1508 13.5166L12.8894 13.2138L10.6278 15.1662L10.8892 15.469ZM10.9585 26.8734V15.3176H10.5585V26.8734H10.9585ZM6.77138 33.2245C6.77138 30.3979 8.4633 27.9905 10.8317 27.0595L10.6853 26.6872C8.15965 27.68 6.37138 30.2381 6.37138 33.2245H6.77138ZM13.0201 39.7994C9.57806 39.7994 6.77138 36.8619 6.77138 33.2245H6.37138C6.37138 37.0639 9.33865 40.1994 13.0201 40.1994V39.7994ZM19.2688 33.2167C19.2688 36.8621 16.462 39.7994 13.0201 39.7994V40.1994C16.7017 40.1994 19.6688 37.0637 19.6688 33.2167H19.2688ZM15.2085 27.0517C17.5745 27.9827 19.2688 30.3902 19.2688 33.2167H19.6688C19.6688 30.2302 17.878 27.6723 15.355 26.6795L15.2085 27.0517ZM13.0201 38.6673C13.8453 38.6673 14.5418 37.9592 14.5418 37.0513H14.1418C14.1418 37.7554 13.6076 38.2673 13.0201 38.2673V38.6673ZM11.4985 37.0513C11.4985 37.9595 12.1927 38.6673 13.0201 38.6673V38.2673C12.4307 38.2673 11.8984 37.756 11.8984 37.0513H11.4985ZM13.0201 35.4353C12.1949 35.4353 11.4985 36.1433 11.4985 37.0513H11.8984C11.8984 36.3471 12.4326 35.8353 13.0201 35.8353V35.4353ZM14.5418 37.0513C14.5418 36.1433 13.8453 35.4353 13.0201 35.4353V35.8353C13.6076 35.8353 14.1418 36.3471 14.1418 37.0513H14.5418ZM13.0201 39.1673C14.146 39.1673 15.0418 38.2102 15.0418 37.0513H14.6418C14.6418 38.0085 13.9062 38.7673 13.0201 38.7673V39.1673ZM10.9985 37.0513C10.9985 38.21 11.8916 39.1673 13.0201 39.1673V38.7673C12.1317 38.7673 11.3984 38.0087 11.3984 37.0513H10.9985ZM13.0201 34.9353C11.8943 34.9353 10.9985 35.8924 10.9985 37.0513H11.3984C11.3984 36.094 12.134 35.3353 13.0201 35.3353V34.9353ZM15.0418 37.0513C15.0418 35.8924 14.146 34.9353 13.0201 34.9353V35.3353C13.9062 35.3353 14.6418 36.094 14.6418 37.0513H15.0418Z" fill="black" fill-opacity="0.5" mask="url(#path-1-outside-1_1060_4700)"/>
</svg>
