<svg width="28" height="28" viewBox="0 0 28 28" fill="none" xmlns="http://www.w3.org/2000/svg">
<path d="M27 26.25H23.75V1.75H25C25.1989 1.75 25.3897 1.67098 25.5303 1.53033C25.671 1.38968 25.75 1.19891 25.75 1C25.75 0.801088 25.671 0.610322 25.5303 0.46967C25.3897 0.329018 25.1989 0.25 25 0.25H3C2.80109 0.25 2.61032 0.329018 2.46967 0.46967C2.32902 0.610322 2.25 0.801088 2.25 1C2.25 1.19891 2.32902 1.38968 2.46967 1.53033C2.61032 1.67098 2.80109 1.75 3 1.75H4.25V26.25H1C0.801088 26.25 0.610322 26.329 0.46967 26.4697C0.329018 26.6103 0.25 26.8011 0.25 27C0.25 27.1989 0.329018 27.3897 0.46967 27.5303C0.610322 27.671 0.801088 27.75 1 27.75H27C27.1989 27.75 27.3897 27.671 27.5303 27.5303C27.671 27.3897 27.75 27.1989 27.75 27C27.75 26.8011 27.671 26.6103 27.5303 26.4697C27.3897 26.329 27.1989 26.25 27 26.25ZM5.75 1.75H22.25V26.25H17.75V21C17.75 20.8011 17.671 20.6103 17.5303 20.4697C17.3897 20.329 17.1989 20.25 17 20.25H11C10.8011 20.25 10.6103 20.329 10.4697 20.4697C10.329 20.6103 10.25 20.8011 10.25 21V26.25H5.75V1.75ZM16.25 26.25H11.75V21.75H16.25V26.25ZM9.25 6C9.25 5.80109 9.32902 5.61032 9.46967 5.46967C9.61032 5.32902 9.80109 5.25 10 5.25H12C12.1989 5.25 12.3897 5.32902 12.5303 5.46967C12.671 5.61032 12.75 5.80109 12.75 6C12.75 6.19891 12.671 6.38968 12.5303 6.53033C12.3897 6.67098 12.1989 6.75 12 6.75H10C9.80109 6.75 9.61032 6.67098 9.46967 6.53033C9.32902 6.38968 9.25 6.19891 9.25 6ZM15.25 6C15.25 5.80109 15.329 5.61032 15.4697 5.46967C15.6103 5.32902 15.8011 5.25 16 5.25H18C18.1989 5.25 18.3897 5.32902 18.5303 5.46967C18.671 5.61032 18.75 5.80109 18.75 6C18.75 6.19891 18.671 6.38968 18.5303 6.53033C18.3897 6.67098 18.1989 6.75 18 6.75H16C15.8011 6.75 15.6103 6.67098 15.4697 6.53033C15.329 6.38968 15.25 6.19891 15.25 6ZM9.25 11C9.25 10.8011 9.32902 10.6103 9.46967 10.4697C9.61032 10.329 9.80109 10.25 10 10.25H12C12.1989 10.25 12.3897 10.329 12.5303 10.4697C12.671 10.6103 12.75 10.8011 12.75 11C12.75 11.1989 12.671 11.3897 12.5303 11.5303C12.3897 11.671 12.1989 11.75 12 11.75H10C9.80109 11.75 9.61032 11.671 9.46967 11.5303C9.32902 11.3897 9.25 11.1989 9.25 11ZM15.25 11C15.25 10.8011 15.329 10.6103 15.4697 10.4697C15.6103 10.329 15.8011 10.25 16 10.25H18C18.1989 10.25 18.3897 10.329 18.5303 10.4697C18.671 10.6103 18.75 10.8011 18.75 11C18.75 11.1989 18.671 11.3897 18.5303 11.5303C18.3897 11.671 18.1989 11.75 18 11.75H16C15.8011 11.75 15.6103 11.671 15.4697 11.5303C15.329 11.3897 15.25 11.1989 15.25 11ZM10 16.75C9.80109 16.75 9.61032 16.671 9.46967 16.5303C9.32902 16.3897 9.25 16.1989 9.25 16C9.25 15.8011 9.32902 15.6103 9.46967 15.4697C9.61032 15.329 9.80109 15.25 10 15.25H12C12.1989 15.25 12.3897 15.329 12.5303 15.4697C12.671 15.6103 12.75 15.8011 12.75 16C12.75 16.1989 12.671 16.3897 12.5303 16.5303C12.3897 16.671 12.1989 16.75 12 16.75H10ZM15.25 16C15.25 15.8011 15.329 15.6103 15.4697 15.4697C15.6103 15.329 15.8011 15.25 16 15.25H18C18.1989 15.25 18.3897 15.329 18.5303 15.4697C18.671 15.6103 18.75 15.8011 18.75 16C18.75 16.1989 18.671 16.3897 18.5303 16.5303C18.3897 16.671 18.1989 16.75 18 16.75H16C15.8011 16.75 15.6103 16.671 15.4697 16.5303C15.329 16.3897 15.25 16.1989 15.25 16Z" fill="#222222" fill-opacity="0.8"/>
</svg>
