<svg width="1920" height="817" viewBox="0 0 1920 817" fill="none" xmlns="http://www.w3.org/2000/svg">
<rect width="1920" height="817" fill="#C8DFF1"/>
<rect width="1000" height="817" fill="#C8DFF1"/>
<path opacity="0.5" d="M113.888 577.949C75.8834 533.353 59.3866 471.226 70.2675 413.663C74.2844 392.389 82.0648 371.407 95.7732 354.637C109.481 337.868 129.625 325.7 151.269 324.627C186.018 322.911 221.742 348.788 253.448 334.455C271.524 326.285 282.015 307 287.495 287.929C301.808 238.165 335.971 189.455 379.495 161.063C432.241 126.666 501.816 123.078 559.165 147.999C617.43 173.309 669.592 238.497 659.53 304.835C656.82 322.755 652.12 340.968 655.572 358.752C666.043 412.805 727.058 405.746 767.091 420.254C796.321 430.843 820.54 454.476 831.85 483.414C843.16 512.371 841.366 546.145 827.072 573.737L113.888 577.949Z" fill="white"/>
<path opacity="0.5" d="M752.641 244.269C768.923 249.241 788.579 244.386 798.465 230.502C806.558 219.153 807.162 203.924 804.237 190.293C801.488 177.54 795.657 165.061 785.712 156.617C765.511 139.477 715.338 127.348 707.557 162.584C700.752 193.355 722.319 235.006 752.641 244.269Z" fill="white"/>
<path opacity="0.5" d="M132.102 118.339C110.867 137.409 95.9883 164.67 96.0078 193.198C96.0273 221.726 112.758 250.703 139.297 261.194C155.736 267.687 174.124 266.946 191.576 264.197C212.441 260.901 230.03 246.998 243.289 231.281C279.578 188.343 265.168 96.9279 200.546 91.039C174.904 88.699 150.666 101.686 132.102 118.339Z" fill="white"/>
<path d="M85.3984 463.523H180.031V515.997H229.736V418.732H247.909V564.532H279.46V382.482H301.436H326.298V455.002H391.311V428.892H404.687V402.782H446.768V428.892H467.789V466.604H485.962V382.482H513.691V456.445H566.262V424.543H627.277V541.074H661.87V470.017H731.133V499.734H742.189V431.797H756.521V483.998H779.473V452.175H795.716V468.047H829.138V746.582H85.3984V463.523Z" fill="#FF984D" fill-opacity="0.5"/>
<path d="M847.333 542.302H734.683L734.507 591.324H684.803V564.532H666.629V623.869H635.078V515.412H613.082H588.24V550.414H523.228V532.922H509.831V515.412H467.77V532.922H446.73V558.194H428.576V501.801H400.847V551.389H348.256V529.997H308.321V608.133H267.079V529.997H183.405V580.424H172.349V534.853H158.017V569.874H135.066V511.512H118.822V594.074H62.0195V742.857H847.157L847.333 542.302Z" fill="#FF984D"/>
<path d="M837.974 757.248H55.9169C51.549 757.248 48 753.699 48 749.331C48 744.963 51.549 741.414 55.9169 741.414H837.974C842.342 741.414 845.891 744.963 845.891 749.331C845.891 753.699 842.342 757.248 837.974 757.248Z" fill="#FF984D"/>
<path d="M313.393 620.203C296.155 620.203 282.193 633.287 282.193 649.433C282.193 650.525 282.271 651.598 282.388 652.651C279.834 651.929 277.123 651.52 274.296 651.52C258.891 651.52 246.411 663.22 246.411 677.63C246.411 685.566 250.194 692.645 256.161 697.442C255.322 697.364 254.484 697.305 253.626 697.305C240.581 697.305 230.012 707.211 230.012 719.418C230.012 731.625 240.581 741.531 253.626 741.531H344.612V649.414C344.612 633.287 330.63 620.203 313.393 620.203Z" fill="#31985B"/>
<path d="M622.875 620.203C640.113 620.203 654.075 633.287 654.075 649.433C654.075 650.525 653.997 651.598 653.88 652.651C656.434 651.929 659.145 651.52 661.972 651.52C677.377 651.52 689.857 663.22 689.857 677.63C689.857 685.566 686.074 692.645 680.107 697.442C680.946 697.364 681.784 697.305 682.642 697.305C695.687 697.305 706.256 707.211 706.256 719.418C706.256 731.625 695.687 741.531 682.642 741.531H591.656V649.414C591.676 633.287 605.657 620.203 622.875 620.203Z" fill="#31985B"/>
<path d="M258.617 309.297H131.576C113.48 309.297 98.6797 324.097 98.6797 342.193C98.6797 360.289 113.48 375.089 131.576 375.089H217.531L253.449 413.621V375.089H258.617C276.712 375.089 291.513 360.289 291.513 342.193C291.513 324.117 276.712 309.297 258.617 309.297Z" fill="#456BA3"/>
<path d="M136.741 332.131L140.017 338.761L147.329 339.833L142.045 345.001L143.293 352.294L136.741 348.842L130.189 352.294L131.437 345.001L126.133 339.833L133.465 338.761L136.741 332.131Z" fill="#FF984D"/>
<path d="M165.913 332.131L169.189 338.761L176.52 339.833L171.216 345.001L172.464 352.294L165.913 348.842L159.361 352.294L160.609 345.001L155.305 339.833L162.637 338.761L165.913 332.131Z" fill="#FF984D"/>
<path d="M195.084 332.131L198.36 338.761L205.692 339.833L200.388 345.001L201.636 352.294L195.084 348.842L188.533 352.294L189.781 345.001L184.496 339.833L191.809 338.761L195.084 332.131Z" fill="#FF984D"/>
<path d="M224.272 332.131L227.548 338.761L234.86 339.833L229.556 345.001L230.824 352.294L224.272 348.842L217.72 352.294L218.968 345.001L213.664 339.833L220.996 338.761L224.272 332.131Z" fill="#FF984D"/>
<path d="M253.444 332.131L256.72 338.761L264.032 339.833L258.748 345.001L259.996 352.294L253.444 348.842L246.892 352.294L248.14 345.001L242.836 339.833L250.168 338.761L253.444 332.131Z" fill="white"/>
<path d="M585.218 741.765H350.558C336.928 741.765 325.891 730.728 325.891 717.098V233.952C325.891 220.322 336.928 209.285 350.558 209.285H585.218C598.848 209.285 609.885 220.322 609.885 233.952V717.098C609.885 730.708 598.848 741.765 585.218 741.765Z" fill="#2F4B74"/>
<path d="M582.959 245.73H351.789V705.32H582.959V245.73Z" fill="#1F2D41"/>
<path d="M582.959 250.469H351.789V705.32H582.959V250.469Z" fill="#B3D7F3"/>
<path d="M500.627 233.387H421.926C419.333 233.387 417.227 231.262 417.227 228.688C417.227 226.094 419.352 223.988 421.926 223.988H500.627C503.22 223.988 505.326 226.114 505.326 228.688C505.346 231.281 503.22 233.387 500.627 233.387Z" fill="#002B49"/>
<path d="M510.008 727.356H429.123C427.134 727.356 425.516 725.737 425.516 723.748C425.516 721.759 427.134 720.141 429.123 720.141H510.008C511.997 720.141 513.616 721.759 513.616 723.748C513.635 725.737 511.997 727.356 510.008 727.356Z" fill="#002B49"/>
<path d="M527.708 228.688C527.708 231.866 525.134 234.421 521.975 234.421C518.797 234.421 516.242 231.847 516.242 228.688C516.242 225.51 518.816 222.955 521.975 222.955C525.134 222.955 527.708 225.51 527.708 228.688Z" fill="#002B49"/>
<path d="M524.297 228.688C524.297 229.975 523.244 231.028 521.957 231.028C520.67 231.028 519.617 229.975 519.617 228.688C519.617 227.401 520.67 226.348 521.957 226.348C523.244 226.348 524.297 227.401 524.297 228.688Z" fill="#2F4B74"/>
<path d="M524.902 226.992C524.902 227.675 524.356 228.24 523.654 228.24C522.972 228.24 522.406 227.694 522.406 226.992C522.406 226.31 522.952 225.744 523.654 225.744C524.337 225.764 524.902 226.31 524.902 226.992Z" fill="white"/>
<g opacity="0.5">
<path d="M541.891 636.936V705.029H582.977V636.936H541.891Z" fill="#619FC5"/>
<path d="M541.891 552.114V620.207H582.977V552.114H541.891Z" fill="#619FC5"/>
<path d="M462.336 659.808H523.702V552.111L462.336 659.808Z" fill="#619FC5"/>
<path d="M462.332 672.983V705.021H523.698V672.983H462.332Z" fill="#619FC5"/>
<path d="M503.712 546.183L444.55 644.91L354.617 616.44L413.76 517.713L503.712 546.183Z" fill="#619FC5"/>
<path d="M351.805 670.977V705.023H440.002V670.977H351.805Z" fill="#619FC5"/>
<path d="M351.789 658.151H439.986L351.789 630.812V658.151Z" fill="#31985B"/>
<path d="M509.094 484.608V534.371H582.978V484.608H509.094Z" fill="#619FC5"/>
<path d="M541.879 402.798V470.891H582.965V402.798H541.879Z" fill="#619FC5"/>
<path d="M541.875 317.975V386.068H582.961V317.975H541.875Z" fill="#619FC5"/>
<path d="M462.336 425.676H523.702V317.979L462.336 425.676Z" fill="#31985B"/>
<path d="M462.316 438.843V470.881H523.682V438.843H462.316Z" fill="#619FC5"/>
<path d="M503.712 312.05L444.55 410.777L354.617 382.288L413.76 283.561L503.712 312.05Z" fill="#619FC5"/>
<path d="M351.789 436.836V470.883H439.986V436.836H351.789Z" fill="#619FC5"/>
<path d="M351.789 424.018H439.986L351.789 396.68V424.018Z" fill="#31985B"/>
<path d="M505.996 250.465V300.229H582.962V250.465H505.996Z" fill="#619FC5"/>
<path d="M493.006 529.999L416.84 505.917H351.789V484.604H493.006V529.999Z" fill="#619FC5"/>
<path d="M351.789 594.076V516.506H395.898L351.789 594.076Z" fill="#619FC5"/>
<path d="M493.007 291.635V250.471H422.398V268.605L493.007 291.635Z" fill="#619FC5"/>
<path d="M351.789 356.452L406.427 266.538V250.471H351.789V356.452Z" fill="#619FC5"/>
</g>
<path d="M580.849 250.469H571.957H362.822H351.805V260.511V650.194V705.027H362.822H571.937H582.955V650.194V250.469H580.849ZM362.822 636.934V260.511H571.937V636.934H362.822Z" fill="white"/>
<path d="M504.178 670.981H434.974C428.675 670.981 423.508 665.813 423.508 659.515V657.097C423.508 650.798 428.675 645.631 434.974 645.631H504.178C510.477 645.631 515.644 650.798 515.644 657.097V659.515C515.644 665.813 510.477 670.981 504.178 670.981Z" fill="#488CAE"/>
<path d="M504.178 669.4H434.974C428.675 669.4 423.508 664.233 423.508 657.935V655.517C423.508 649.218 428.675 644.051 434.974 644.051H504.178C510.477 644.051 515.644 649.218 515.644 655.517V657.935C515.644 664.233 510.477 669.4 504.178 669.4Z" fill="#70B6E0"/>
<path d="M441.32 656.266V652.329H442.697C442.971 652.329 443.197 652.376 443.375 652.471C443.554 652.565 443.686 652.691 443.773 652.85C443.86 653.007 443.904 653.182 443.904 653.375C443.904 653.544 443.874 653.683 443.814 653.794C443.755 653.904 443.677 653.991 443.579 654.055C443.483 654.119 443.379 654.167 443.266 654.197V654.236C443.386 654.243 443.507 654.286 443.629 654.363C443.751 654.439 443.853 654.55 443.935 654.693C444.017 654.837 444.058 655.012 444.058 655.22C444.058 655.417 444.013 655.595 443.923 655.752C443.834 655.91 443.692 656.035 443.498 656.127C443.305 656.219 443.053 656.266 442.743 656.266H441.32ZM441.797 655.843H442.743C443.054 655.843 443.275 655.782 443.406 655.662C443.538 655.54 443.604 655.393 443.604 655.22C443.604 655.087 443.57 654.964 443.502 654.851C443.434 654.737 443.338 654.646 443.212 654.578C443.086 654.509 442.938 654.474 442.766 654.474H441.797V655.843ZM441.797 654.059H442.681C442.825 654.059 442.954 654.031 443.07 653.974C443.186 653.918 443.279 653.838 443.347 653.736C443.416 653.633 443.45 653.513 443.45 653.375C443.45 653.202 443.39 653.055 443.27 652.934C443.149 652.813 442.958 652.752 442.697 652.752H441.797V654.059ZM447.425 652.329H447.901V654.935C447.901 655.205 447.838 655.445 447.711 655.656C447.585 655.866 447.408 656.032 447.179 656.154C446.949 656.275 446.68 656.335 446.371 656.335C446.062 656.335 445.793 656.275 445.564 656.154C445.334 656.032 445.156 655.866 445.029 655.656C444.904 655.445 444.841 655.205 444.841 654.935V652.329H445.318V654.897C445.318 655.089 445.36 655.26 445.445 655.41C445.529 655.559 445.65 655.676 445.806 655.762C445.964 655.847 446.152 655.889 446.371 655.889C446.59 655.889 446.779 655.847 446.936 655.762C447.094 655.676 447.214 655.559 447.298 655.41C447.382 655.26 447.425 655.089 447.425 654.897V652.329ZM448.515 652.329H449.061L450.153 654.167H450.199L451.291 652.329H451.837L450.414 654.643V656.266H449.938V654.643L448.515 652.329ZM457.097 652.329V656.266H456.636L454.491 653.175H454.452V656.266H453.976V652.329H454.437L456.59 655.428H456.628V652.329H457.097ZM461.373 654.297C461.373 654.712 461.298 655.071 461.148 655.374C460.998 655.676 460.793 655.909 460.531 656.073C460.27 656.237 459.971 656.319 459.635 656.319C459.3 656.319 459.001 656.237 458.74 656.073C458.478 655.909 458.272 655.676 458.123 655.374C457.973 655.071 457.898 654.712 457.898 654.297C457.898 653.882 457.973 653.523 458.123 653.221C458.272 652.918 458.478 652.685 458.74 652.521C459.001 652.357 459.3 652.275 459.635 652.275C459.971 652.275 460.27 652.357 460.531 652.521C460.793 652.685 460.998 652.918 461.148 653.221C461.298 653.523 461.373 653.882 461.373 654.297ZM460.912 654.297C460.912 653.956 460.855 653.669 460.741 653.434C460.628 653.2 460.475 653.022 460.281 652.902C460.089 652.781 459.874 652.721 459.635 652.721C459.397 652.721 459.181 652.781 458.988 652.902C458.795 653.022 458.642 653.2 458.528 653.434C458.415 653.669 458.359 653.956 458.359 654.297C458.359 654.638 458.415 654.926 458.528 655.16C458.642 655.395 458.795 655.572 458.988 655.693C459.181 655.813 459.397 655.873 459.635 655.873C459.874 655.873 460.089 655.813 460.281 655.693C460.475 655.572 460.628 655.395 460.741 655.16C460.855 654.926 460.912 654.638 460.912 654.297ZM462.89 656.266L461.813 652.329H462.298L463.12 655.535H463.159L463.997 652.329H464.535L465.373 655.535H465.412L466.234 652.329H466.719L465.642 656.266H465.15L464.281 653.128H464.251L463.382 656.266H462.89ZM467.851 652.329L467.813 655.158H467.367L467.328 652.329H467.851ZM467.59 656.296C467.495 656.296 467.413 656.262 467.346 656.195C467.278 656.127 467.244 656.045 467.244 655.95C467.244 655.856 467.278 655.774 467.346 655.706C467.413 655.638 467.495 655.604 467.59 655.604C467.685 655.604 467.766 655.638 467.834 655.706C467.902 655.774 467.936 655.856 467.936 655.95C467.936 656.013 467.92 656.071 467.888 656.123C467.857 656.176 467.815 656.218 467.763 656.25C467.711 656.281 467.654 656.296 467.59 656.296Z" fill="white"/>
<path d="M582.959 680.867H351.789V705.3H582.959V680.867Z" fill="#002B49"/>
<path d="M421.305 693.288L428.968 697.714V688.861L421.305 693.288Z" stroke="white" stroke-width="0.6496" stroke-miterlimit="10"/>
<path d="M467.926 697.714C470.371 697.714 472.353 695.732 472.353 693.288C472.353 690.843 470.371 688.861 467.926 688.861C465.482 688.861 463.5 690.843 463.5 693.288C463.5 695.732 465.482 697.714 467.926 697.714Z" stroke="white" stroke-width="0.6496" stroke-miterlimit="10"/>
<path d="M517.831 689.389H510.012V697.208H517.831V689.389Z" stroke="white" stroke-width="0.6496" stroke-miterlimit="10"/>
<path d="M857.962 757.248H75.9247C71.5568 757.248 68.0078 753.699 68.0078 749.331C68.0078 744.963 71.5568 741.414 75.9247 741.414H857.982C862.35 741.414 865.899 744.963 865.899 749.331C865.899 753.699 862.35 757.248 857.962 757.248Z" fill="#FF984D"/>
<path d="M462.918 432.239C462.918 429.301 465.301 426.918 468.239 426.918V420C461.48 420 456 425.48 456 432.239C456 438.998 468.239 454 468.239 454V437.56C465.301 437.56 462.918 435.177 462.918 432.239Z" fill="#053255"/>
<path d="M468.242 420V426.918C471.18 426.918 473.564 429.301 473.564 432.239C473.564 435.177 471.18 437.56 468.242 437.56V454C468.242 454 480.481 438.998 480.481 432.239C480.481 425.48 475.001 420 468.242 420Z" fill="#2F4B74"/>
<path d="M570.773 515.209L559.25 528.908L617.286 577.723L628.809 564.023L570.773 515.209Z" fill="#BFBFAF"/>
<path d="M580.973 503.109L570.781 515.227L628.817 564.041L639.01 551.924L580.973 503.109Z" fill="#CABABA"/>
<path d="M738.916 642.473C744.278 636.096 743.459 626.581 737.083 621.218L657.036 553.905C650.66 548.542 641.144 549.361 635.782 555.738L628.781 564.064L731.915 650.799L738.916 642.473Z" fill="#053255"/>
<path d="M628.781 564.045L619.831 574.692C614.468 581.068 615.287 590.584 621.664 595.946L701.71 663.26C708.087 668.622 717.602 667.803 722.965 661.427L731.915 650.78L628.781 564.045Z" fill="#002B49"/>
<path d="M555.227 340.772C528.687 318.445 495.05 307.798 460.497 310.781C425.924 313.765 394.627 330.028 372.319 356.547C349.992 383.086 339.345 416.724 342.328 451.277C345.312 485.831 361.575 517.147 388.094 539.455C414.633 561.782 448.27 572.429 482.824 569.446C484.345 569.309 485.866 569.153 487.367 568.978C520.107 565.019 549.669 549.049 571.002 523.68C593.329 497.14 603.976 463.503 600.992 428.95C598.028 394.396 581.766 363.08 555.227 340.772ZM484.988 550.102C424.247 557.453 369.043 514.164 361.692 453.422C354.34 392.68 397.63 337.477 458.371 330.125C519.113 322.774 574.317 366.063 581.668 426.805C589 487.547 545.73 542.75 484.988 550.102Z" fill="#053255"/>
<path d="M458.372 330.126C397.631 337.477 354.341 392.681 361.692 453.423C369.044 514.165 424.248 557.454 484.989 550.103C545.731 542.751 589.021 487.548 581.669 426.806C574.318 366.064 519.114 322.775 458.372 330.126ZM550.645 506.54C533.154 527.327 509.15 539.475 484.092 542.517C456.676 545.832 427.992 538.227 405.235 519.098C361.692 482.458 356.057 417.231 392.697 373.688C410.188 352.902 434.193 340.753 459.25 337.711C486.666 334.396 515.35 342.001 538.107 361.131C581.65 397.771 587.285 462.997 550.645 506.54Z" fill="#002B49"/>
<path opacity="0.5" d="M499.279 398.511C512.062 398.511 522.425 388.148 522.425 375.365C522.425 362.582 512.062 352.219 499.279 352.219C486.496 352.219 476.133 362.582 476.133 375.365C476.133 388.148 486.496 398.511 499.279 398.511Z" fill="white"/>
<rect x="278" y="763.5" width="139" height="39" rx="7.5" fill="white"/>
<rect x="278" y="763.5" width="139" height="39" rx="7.5" stroke="#FC6600"/>
<path d="M296.58 777.88V789H294.756V784.136H289.524V789H287.7V777.88H289.524V782.648H294.756V777.88H296.58ZM302.805 789.144C301.973 789.144 301.221 788.957 300.549 788.584C299.877 788.2 299.349 787.667 298.965 786.984C298.581 786.291 298.389 785.491 298.389 784.584C298.389 783.688 298.587 782.893 298.981 782.2C299.376 781.507 299.915 780.973 300.597 780.6C301.28 780.227 302.043 780.04 302.885 780.04C303.728 780.04 304.491 780.227 305.173 780.6C305.856 780.973 306.395 781.507 306.789 782.2C307.184 782.893 307.381 783.688 307.381 784.584C307.381 785.48 307.179 786.275 306.773 786.968C306.368 787.661 305.813 788.2 305.109 788.584C304.416 788.957 303.648 789.144 302.805 789.144ZM302.805 787.56C303.275 787.56 303.712 787.448 304.117 787.224C304.533 787 304.869 786.664 305.125 786.216C305.381 785.768 305.509 785.224 305.509 784.584C305.509 783.944 305.387 783.405 305.141 782.968C304.896 782.52 304.571 782.184 304.165 781.96C303.76 781.736 303.323 781.624 302.853 781.624C302.384 781.624 301.947 781.736 301.541 781.96C301.147 782.184 300.832 782.52 300.597 782.968C300.363 783.405 300.245 783.944 300.245 784.584C300.245 785.533 300.485 786.269 300.965 786.792C301.456 787.304 302.069 787.56 302.805 787.56ZM321.024 780.184L318.288 789H316.368L314.592 782.488L312.816 789H310.896L308.144 780.184H310L311.84 787.272L313.712 780.184H315.616L317.408 787.24L319.232 780.184H321.024ZM327.472 779.016C327.141 779.016 326.864 778.904 326.64 778.68C326.416 778.456 326.304 778.179 326.304 777.848C326.304 777.517 326.416 777.24 326.64 777.016C326.864 776.792 327.141 776.68 327.472 776.68C327.792 776.68 328.064 776.792 328.288 777.016C328.512 777.24 328.624 777.517 328.624 777.848C328.624 778.179 328.512 778.456 328.288 778.68C328.064 778.904 327.792 779.016 327.472 779.016ZM328.368 780.184V789H326.544V780.184H328.368ZM332.891 781.672V786.552C332.891 786.883 332.965 787.123 333.115 787.272C333.275 787.411 333.541 787.48 333.915 787.48H335.035V789H333.595C332.773 789 332.144 788.808 331.707 788.424C331.269 788.04 331.051 787.416 331.051 786.552V781.672H330.011V780.184H331.051V777.992H332.891V780.184H335.035V781.672H332.891ZM352.712 780.184L349.976 789H348.056L346.28 782.488L344.504 789H342.584L339.832 780.184H341.688L343.528 787.272L345.4 780.184H347.304L349.096 787.24L350.92 780.184H352.712ZM357.899 789.144C357.067 789.144 356.315 788.957 355.643 788.584C354.971 788.2 354.443 787.667 354.059 786.984C353.675 786.291 353.483 785.491 353.483 784.584C353.483 783.688 353.68 782.893 354.075 782.2C354.47 781.507 355.008 780.973 355.691 780.6C356.374 780.227 357.136 780.04 357.979 780.04C358.822 780.04 359.584 780.227 360.267 780.6C360.95 780.973 361.488 781.507 361.883 782.2C362.278 782.893 362.475 783.688 362.475 784.584C362.475 785.48 362.272 786.275 361.867 786.968C361.462 787.661 360.907 788.2 360.203 788.584C359.51 788.957 358.742 789.144 357.899 789.144ZM357.899 787.56C358.368 787.56 358.806 787.448 359.211 787.224C359.627 787 359.963 786.664 360.219 786.216C360.475 785.768 360.603 785.224 360.603 784.584C360.603 783.944 360.48 783.405 360.235 782.968C359.99 782.52 359.664 782.184 359.259 781.96C358.854 781.736 358.416 781.624 357.947 781.624C357.478 781.624 357.04 781.736 356.635 781.96C356.24 782.184 355.926 782.52 355.691 782.968C355.456 783.405 355.339 783.944 355.339 784.584C355.339 785.533 355.579 786.269 356.059 786.792C356.55 787.304 357.163 787.56 357.899 787.56ZM366.102 781.464C366.369 781.016 366.721 780.669 367.158 780.424C367.606 780.168 368.134 780.04 368.742 780.04V781.928H368.278C367.563 781.928 367.019 782.109 366.646 782.472C366.283 782.835 366.102 783.464 366.102 784.36V789H364.278V780.184H366.102V781.464ZM373.907 784.6L377.971 789H375.507L372.243 785.208V789H370.419V777.16H372.243V784.04L375.443 780.184H377.971L373.907 784.6ZM382.478 789.144C381.785 789.144 381.161 789.021 380.606 788.776C380.062 788.52 379.63 788.179 379.31 787.752C378.99 787.315 378.819 786.829 378.798 786.296H380.686C380.718 786.669 380.894 786.984 381.214 787.24C381.545 787.485 381.955 787.608 382.446 787.608C382.958 787.608 383.353 787.512 383.63 787.32C383.918 787.117 384.062 786.861 384.062 786.552C384.062 786.221 383.902 785.976 383.582 785.816C383.273 785.656 382.777 785.48 382.094 785.288C381.433 785.107 380.894 784.931 380.478 784.76C380.062 784.589 379.699 784.328 379.39 783.976C379.091 783.624 378.942 783.16 378.942 782.584C378.942 782.115 379.081 781.688 379.358 781.304C379.635 780.909 380.03 780.6 380.542 780.376C381.065 780.152 381.662 780.04 382.334 780.04C383.337 780.04 384.142 780.296 384.75 780.808C385.369 781.309 385.699 781.997 385.742 782.872H383.918C383.886 782.477 383.726 782.163 383.438 781.928C383.15 781.693 382.761 781.576 382.27 781.576C381.79 781.576 381.422 781.667 381.166 781.848C380.91 782.029 380.782 782.269 380.782 782.568C380.782 782.803 380.867 783 381.038 783.16C381.209 783.32 381.417 783.448 381.662 783.544C381.907 783.629 382.27 783.741 382.75 783.88C383.39 784.051 383.913 784.227 384.318 784.408C384.734 784.579 385.091 784.835 385.39 785.176C385.689 785.517 385.843 785.971 385.854 786.536C385.854 787.037 385.715 787.485 385.438 787.88C385.161 788.275 384.766 788.584 384.254 788.808C383.753 789.032 383.161 789.144 382.478 789.144ZM390.817 777.72C391.905 777.72 392.774 778.019 393.425 778.616C394.086 779.213 394.417 780.029 394.417 781.064C394.417 782.141 394.076 782.952 393.393 783.496C392.71 784.04 391.804 784.312 390.673 784.312L390.609 785.576H389.025L388.945 783.064H389.473C390.508 783.064 391.297 782.925 391.841 782.648C392.396 782.371 392.673 781.843 392.673 781.064C392.673 780.499 392.508 780.056 392.177 779.736C391.857 779.416 391.409 779.256 390.833 779.256C390.257 779.256 389.804 779.411 389.473 779.72C389.142 780.029 388.977 780.461 388.977 781.016H387.265C387.265 780.376 387.409 779.805 387.697 779.304C387.985 778.803 388.396 778.413 388.929 778.136C389.473 777.859 390.102 777.72 390.817 777.72ZM389.793 789.112C389.462 789.112 389.185 789 388.961 788.776C388.737 788.552 388.625 788.275 388.625 787.944C388.625 787.613 388.737 787.336 388.961 787.112C389.185 786.888 389.462 786.776 389.793 786.776C390.113 786.776 390.385 786.888 390.609 787.112C390.833 787.336 390.945 787.613 390.945 787.944C390.945 788.275 390.833 788.552 390.609 788.776C390.385 789 390.113 789.112 389.793 789.112Z" fill="#FC6600"/>
<path fill-rule="evenodd" clip-rule="evenodd" d="M408.301 783.444L404.46 787L403.5 786.111L406.861 783L403.5 779.889L404.46 779L408.301 782.556C408.428 782.673 408.5 782.833 408.5 783C408.5 783.167 408.428 783.327 408.301 783.444Z" fill="#FC6600"/>
<rect x="498" y="763.5" width="139" height="39" rx="7.5" fill="white"/>
<rect x="498" y="763.5" width="139" height="39" rx="7.5" stroke="#FC6600"/>
<path d="M542.244 777.88V779.368H537.524V782.648H541.204V784.136H537.524V789H535.7V777.88H542.244ZM550.638 786.728H545.982L545.182 789H543.278L547.262 777.864H549.374L553.358 789H551.438L550.638 786.728ZM550.126 785.24L548.318 780.072L546.494 785.24H550.126ZM563.699 791.016L561.747 788.904C561.267 789.043 560.739 789.112 560.163 789.112C559.128 789.112 558.173 788.872 557.299 788.392C556.435 787.901 555.747 787.224 555.235 786.36C554.733 785.485 554.483 784.504 554.483 783.416C554.483 782.328 554.733 781.352 555.235 780.488C555.747 779.624 556.435 778.952 557.299 778.472C558.173 777.981 559.128 777.736 560.163 777.736C561.208 777.736 562.163 777.981 563.027 778.472C563.901 778.952 564.589 779.624 565.091 780.488C565.592 781.352 565.843 782.328 565.843 783.416C565.843 784.44 565.619 785.368 565.171 786.2C564.733 787.021 564.125 787.683 563.347 788.184L566.019 791.016H563.699ZM556.355 783.416C556.355 784.237 556.515 784.963 556.835 785.592C557.165 786.211 557.619 786.691 558.195 787.032C558.771 787.363 559.427 787.528 560.163 787.528C560.899 787.528 561.555 787.363 562.131 787.032C562.707 786.691 563.155 786.211 563.475 785.592C563.805 784.963 563.971 784.237 563.971 783.416C563.971 782.595 563.805 781.875 563.475 781.256C563.155 780.637 562.707 780.163 562.131 779.832C561.555 779.501 560.899 779.336 560.163 779.336C559.427 779.336 558.771 779.501 558.195 779.832C557.619 780.163 557.165 780.637 556.835 781.256C556.515 781.875 556.355 782.595 556.355 783.416ZM570.676 777.72C571.764 777.72 572.634 778.019 573.284 778.616C573.946 779.213 574.276 780.029 574.276 781.064C574.276 782.141 573.935 782.952 573.252 783.496C572.57 784.04 571.663 784.312 570.532 784.312L570.468 785.576H568.884L568.804 783.064H569.332C570.367 783.064 571.156 782.925 571.7 782.648C572.255 782.371 572.532 781.843 572.532 781.064C572.532 780.499 572.367 780.056 572.036 779.736C571.716 779.416 571.268 779.256 570.692 779.256C570.116 779.256 569.663 779.411 569.332 779.72C569.002 780.029 568.836 780.461 568.836 781.016H567.124C567.124 780.376 567.268 779.805 567.556 779.304C567.844 778.803 568.255 778.413 568.788 778.136C569.332 777.859 569.962 777.72 570.676 777.72ZM569.652 789.112C569.322 789.112 569.044 789 568.82 788.776C568.596 788.552 568.484 788.275 568.484 787.944C568.484 787.613 568.596 787.336 568.82 787.112C569.044 786.888 569.322 786.776 569.652 786.776C569.972 786.776 570.244 786.888 570.468 787.112C570.692 787.336 570.804 787.613 570.804 787.944C570.804 788.275 570.692 788.552 570.468 788.776C570.244 789 569.972 789.112 569.652 789.112Z" fill="#FC6600"/>
<path fill-rule="evenodd" clip-rule="evenodd" d="M600.301 783.444L596.46 787L595.5 786.111L598.861 783L595.5 779.889L596.46 779L600.301 782.556C600.428 782.673 600.5 782.833 600.5 783C600.5 783.167 600.428 783.327 600.301 783.444Z" fill="#FC6600"/>
</svg>
