<svg width="1000" height="817" viewBox="0 0 1000 817" fill="none" xmlns="http://www.w3.org/2000/svg">
<rect width="1000" height="817" fill="#C8DFF1"/>
<path opacity="0.5" d="M113.888 577.949C75.8834 533.353 59.3866 471.227 70.2675 413.663C74.2844 392.389 82.0648 371.407 95.7732 354.638C109.481 337.868 129.625 325.7 151.269 324.627C186.018 322.911 221.742 348.788 253.448 334.455C271.524 326.285 282.015 307 287.495 287.929C301.808 238.166 335.971 189.455 379.495 161.064C432.241 126.666 501.816 123.078 559.165 147.999C617.43 173.309 669.592 238.497 659.53 304.835C656.82 322.755 652.12 340.968 655.572 358.752C666.043 412.805 727.058 405.746 767.091 420.254C796.321 430.843 820.54 454.476 831.85 483.414C843.16 512.371 841.366 546.145 827.072 573.737L113.888 577.949Z" fill="white"/>
<path opacity="0.5" d="M752.641 244.269C768.923 249.241 788.579 244.386 798.465 230.502C806.558 219.153 807.162 203.924 804.237 190.293C801.488 177.54 795.657 165.061 785.712 156.617C765.511 139.477 715.338 127.348 707.557 162.584C700.752 193.355 722.319 235.006 752.641 244.269Z" fill="white"/>
<path opacity="0.5" d="M132.102 118.339C110.867 137.409 95.9883 164.67 96.0078 193.198C96.0273 221.726 112.758 250.703 139.297 261.194C155.736 267.687 174.124 266.946 191.576 264.197C212.441 260.901 230.03 246.998 243.289 231.281C279.578 188.343 265.168 96.928 200.546 91.039C174.904 88.6991 150.666 101.686 132.102 118.339Z" fill="white"/>
<path d="M85.3984 463.523H180.031V515.997H229.736V418.733H247.909V564.532H279.46V382.482H301.436H326.298V455.002H391.311V428.892H404.687V402.782H446.768V428.892H467.789V466.604H485.962V382.482H513.691V456.445H566.262V424.543H627.277V541.074H661.87V470.017H731.133V499.734H742.189V431.797H756.521V483.998H779.473V452.175H795.716V468.047H829.138V746.582H85.3984V463.523Z" fill="#FF984D" fill-opacity="0.5"/>
<path d="M847.329 542.302H734.679L734.503 591.324H684.799V564.532H666.625V623.869H635.074V515.412H613.079H588.236V550.414H523.224V532.922H509.827V515.412H467.766V532.922H446.726V558.194H428.572V501.801H400.843V551.389H348.252V529.998H308.317V608.133H267.075V529.998H183.402V580.424H172.345V534.853H158.013V569.874H135.062V511.512H118.818V594.074H62.0156V742.857H847.154L847.329 542.302Z" fill="#FF984D"/>
<path d="M837.974 757.248H55.9169C51.549 757.248 48 753.699 48 749.331C48 744.963 51.549 741.414 55.9169 741.414H837.974C842.342 741.414 845.891 744.963 845.891 749.331C845.891 753.699 842.342 757.248 837.974 757.248Z" fill="#FF984D"/>
<path d="M313.397 620.203C296.159 620.203 282.197 633.288 282.197 649.433C282.197 650.525 282.275 651.598 282.392 652.651C279.837 651.929 277.127 651.52 274.3 651.52C258.895 651.52 246.415 663.22 246.415 677.63C246.415 685.566 250.198 692.645 256.165 697.442C255.326 697.364 254.488 697.305 253.63 697.305C240.584 697.305 230.016 707.211 230.016 719.418C230.016 731.625 240.584 741.531 253.63 741.531H344.616V649.414C344.616 633.288 330.634 620.203 313.397 620.203Z" fill="#31985B"/>
<path d="M622.875 620.203C640.113 620.203 654.075 633.288 654.075 649.433C654.075 650.525 653.997 651.598 653.88 652.651C656.434 651.929 659.145 651.52 661.972 651.52C677.377 651.52 689.857 663.22 689.857 677.63C689.857 685.566 686.074 692.645 680.107 697.442C680.946 697.364 681.784 697.305 682.642 697.305C695.687 697.305 706.256 707.211 706.256 719.418C706.256 731.625 695.687 741.531 682.642 741.531H591.656V649.414C591.676 633.288 605.657 620.203 622.875 620.203Z" fill="#31985B"/>
<path d="M258.617 309.297H131.576C113.48 309.297 98.6797 324.097 98.6797 342.193C98.6797 360.289 113.48 375.089 131.576 375.089H217.531L253.449 413.621V375.089H258.617C276.712 375.089 291.513 360.289 291.513 342.193C291.513 324.117 276.712 309.297 258.617 309.297Z" fill="#456BA3"/>
<path d="M136.741 332.131L140.017 338.761L147.329 339.833L142.045 345.001L143.293 352.294L136.741 348.842L130.189 352.294L131.437 345.001L126.133 339.833L133.465 338.761L136.741 332.131Z" fill="#FF984D"/>
<path d="M165.913 332.131L169.189 338.761L176.52 339.833L171.216 345.001L172.464 352.294L165.913 348.842L159.361 352.294L160.609 345.001L155.305 339.833L162.637 338.761L165.913 332.131Z" fill="#FF984D"/>
<path d="M195.088 332.131L198.364 338.761L205.696 339.833L200.392 345.001L201.64 352.294L195.088 348.842L188.536 352.294L189.784 345.001L184.5 339.833L191.812 338.761L195.088 332.131Z" fill="#FF984D"/>
<path d="M224.272 332.131L227.548 338.761L234.86 339.833L229.556 345.001L230.824 352.294L224.272 348.842L217.72 352.294L218.968 345.001L213.664 339.833L220.996 338.761L224.272 332.131Z" fill="#FF984D"/>
<path d="M253.444 332.131L256.72 338.761L264.032 339.833L258.748 345.001L259.996 352.294L253.444 348.842L246.892 352.294L248.14 345.001L242.836 339.833L250.168 338.761L253.444 332.131Z" fill="white"/>
<path d="M585.218 741.765H350.558C336.928 741.765 325.891 730.728 325.891 717.098V233.952C325.891 220.322 336.928 209.285 350.558 209.285H585.218C598.848 209.285 609.885 220.322 609.885 233.952V717.098C609.885 730.708 598.848 741.765 585.218 741.765Z" fill="#2F4B74"/>
<path d="M582.959 245.731H351.789V705.32H582.959V245.731Z" fill="#1F2D41"/>
<path d="M582.959 250.469H351.789V705.32H582.959V250.469Z" fill="#B3D7F3"/>
<path d="M500.627 233.387H421.926C419.333 233.387 417.227 231.262 417.227 228.688C417.227 226.094 419.352 223.988 421.926 223.988H500.627C503.22 223.988 505.326 226.114 505.326 228.688C505.346 231.281 503.22 233.387 500.627 233.387Z" fill="#002B49"/>
<path d="M510.008 727.356H429.123C427.134 727.356 425.516 725.737 425.516 723.748C425.516 721.759 427.134 720.141 429.123 720.141H510.008C511.997 720.141 513.616 721.759 513.616 723.748C513.635 725.737 511.997 727.356 510.008 727.356Z" fill="#002B49"/>
<path d="M527.708 228.688C527.708 231.866 525.134 234.421 521.975 234.421C518.797 234.421 516.242 231.847 516.242 228.688C516.242 225.51 518.816 222.955 521.975 222.955C525.134 222.955 527.708 225.51 527.708 228.688Z" fill="#002B49"/>
<path d="M524.297 228.688C524.297 229.975 523.244 231.028 521.957 231.028C520.67 231.028 519.617 229.975 519.617 228.688C519.617 227.401 520.67 226.348 521.957 226.348C523.244 226.348 524.297 227.401 524.297 228.688Z" fill="#2F4B74"/>
<path d="M524.902 226.992C524.902 227.675 524.356 228.24 523.654 228.24C522.972 228.24 522.406 227.694 522.406 226.992C522.406 226.31 522.952 225.744 523.654 225.744C524.337 225.764 524.902 226.31 524.902 226.992Z" fill="white"/>
<g opacity="0.5">
<path d="M541.891 636.936V705.029H582.977V636.936H541.891Z" fill="#619FC5"/>
<path d="M541.891 552.114V620.207H582.977V552.114H541.891Z" fill="#619FC5"/>
<path d="M462.336 659.808H523.702V552.111L462.336 659.808Z" fill="#619FC5"/>
<path d="M462.328 672.983V705.022H523.694V672.983H462.328Z" fill="#619FC5"/>
<path d="M503.712 546.183L444.55 644.91L354.617 616.44L413.76 517.713L503.712 546.183Z" fill="#619FC5"/>
<path d="M351.805 670.977V705.023H440.002V670.977H351.805Z" fill="#619FC5"/>
<path d="M351.789 658.151H439.986L351.789 630.813V658.151Z" fill="#31985B"/>
<path d="M509.094 484.608V534.371H582.978V484.608H509.094Z" fill="#619FC5"/>
<path d="M541.875 402.798V470.891H582.961V402.798H541.875Z" fill="#619FC5"/>
<path d="M541.875 317.975V386.068H582.961V317.975H541.875Z" fill="#619FC5"/>
<path d="M462.336 425.676H523.702V317.979L462.336 425.676Z" fill="#31985B"/>
<path d="M462.312 438.843V470.881H523.678V438.843H462.312Z" fill="#619FC5"/>
<path d="M503.712 312.05L444.55 410.777L354.617 382.288L413.76 283.561L503.712 312.05Z" fill="#619FC5"/>
<path d="M351.789 436.836V470.883H439.986V436.836H351.789Z" fill="#619FC5"/>
<path d="M351.789 424.018H439.986L351.789 396.68V424.018Z" fill="#31985B"/>
<path d="M506 250.465V300.229H582.966V250.465H506Z" fill="#619FC5"/>
<path d="M493.006 529.999L416.84 505.917H351.789V484.604H493.006V529.999Z" fill="#619FC5"/>
<path d="M351.789 594.076V516.506H395.898L351.789 594.076Z" fill="#619FC5"/>
<path d="M493.007 291.635V250.471H422.398V268.605L493.007 291.635Z" fill="#619FC5"/>
<path d="M351.789 356.452L406.427 266.539V250.471H351.789V356.452Z" fill="#619FC5"/>
</g>
<path d="M580.849 250.469H571.957H362.822H351.805V260.511V650.194V705.027H362.822H571.937H582.955V650.194V250.469H580.849ZM362.822 636.934V260.511H571.937V636.934H362.822Z" fill="white"/>
<path d="M504.178 670.981H434.974C428.675 670.981 423.508 665.813 423.508 659.515V657.097C423.508 650.798 428.675 645.631 434.974 645.631H504.178C510.477 645.631 515.644 650.798 515.644 657.097V659.515C515.644 665.813 510.477 670.981 504.178 670.981Z" fill="#488CAE"/>
<path d="M504.178 669.401H434.974C428.675 669.401 423.508 664.233 423.508 657.935V655.517C423.508 649.218 428.675 644.051 434.974 644.051H504.178C510.477 644.051 515.644 649.218 515.644 655.517V657.935C515.644 664.233 510.477 669.401 504.178 669.401Z" fill="#70B6E0"/>
<path d="M441.32 656.266V652.329H442.697C442.971 652.329 443.197 652.376 443.375 652.471C443.554 652.565 443.686 652.691 443.773 652.85C443.86 653.007 443.904 653.182 443.904 653.375C443.904 653.544 443.874 653.683 443.814 653.794C443.755 653.904 443.677 653.991 443.579 654.055C443.483 654.119 443.379 654.167 443.266 654.197V654.236C443.386 654.243 443.507 654.286 443.629 654.363C443.751 654.44 443.853 654.55 443.935 654.693C444.017 654.837 444.058 655.012 444.058 655.22C444.058 655.417 444.013 655.595 443.923 655.752C443.834 655.91 443.692 656.035 443.498 656.127C443.305 656.22 443.053 656.266 442.743 656.266H441.32ZM441.797 655.843H442.743C443.054 655.843 443.275 655.783 443.406 655.662C443.538 655.54 443.604 655.393 443.604 655.22C443.604 655.087 443.57 654.964 443.502 654.851C443.434 654.737 443.338 654.646 443.212 654.578C443.086 654.509 442.938 654.474 442.766 654.474H441.797V655.843ZM441.797 654.059H442.681C442.825 654.059 442.954 654.031 443.07 653.974C443.186 653.918 443.279 653.839 443.347 653.736C443.416 653.633 443.45 653.513 443.45 653.375C443.45 653.202 443.39 653.055 443.27 652.934C443.149 652.813 442.958 652.752 442.697 652.752H441.797V654.059ZM447.425 652.329H447.901V654.935C447.901 655.205 447.838 655.445 447.711 655.656C447.585 655.866 447.408 656.032 447.179 656.154C446.949 656.275 446.68 656.335 446.371 656.335C446.062 656.335 445.793 656.275 445.564 656.154C445.334 656.032 445.156 655.866 445.029 655.656C444.904 655.445 444.841 655.205 444.841 654.935V652.329H445.318V654.897C445.318 655.089 445.36 655.26 445.445 655.41C445.529 655.559 445.65 655.676 445.806 655.762C445.964 655.847 446.152 655.889 446.371 655.889C446.59 655.889 446.779 655.847 446.936 655.762C447.094 655.676 447.214 655.559 447.298 655.41C447.382 655.26 447.425 655.089 447.425 654.897V652.329ZM448.515 652.329H449.061L450.153 654.167H450.199L451.291 652.329H451.837L450.414 654.643V656.266H449.938V654.643L448.515 652.329ZM457.097 652.329V656.266H456.636L454.491 653.175H454.452V656.266H453.976V652.329H454.437L456.59 655.428H456.628V652.329H457.097ZM461.373 654.297C461.373 654.712 461.298 655.071 461.148 655.374C460.998 655.676 460.793 655.909 460.531 656.073C460.27 656.237 459.971 656.32 459.635 656.32C459.3 656.32 459.001 656.237 458.74 656.073C458.478 655.909 458.272 655.676 458.123 655.374C457.973 655.071 457.898 654.712 457.898 654.297C457.898 653.882 457.973 653.523 458.123 653.221C458.272 652.918 458.478 652.685 458.74 652.521C459.001 652.357 459.3 652.275 459.635 652.275C459.971 652.275 460.27 652.357 460.531 652.521C460.793 652.685 460.998 652.918 461.148 653.221C461.298 653.523 461.373 653.882 461.373 654.297ZM460.912 654.297C460.912 653.956 460.855 653.669 460.741 653.434C460.628 653.2 460.475 653.022 460.281 652.902C460.089 652.781 459.874 652.721 459.635 652.721C459.397 652.721 459.181 652.781 458.988 652.902C458.795 653.022 458.642 653.2 458.528 653.434C458.415 653.669 458.359 653.956 458.359 654.297C458.359 654.638 458.415 654.926 458.528 655.16C458.642 655.395 458.795 655.572 458.988 655.693C459.181 655.813 459.397 655.874 459.635 655.874C459.874 655.874 460.089 655.813 460.281 655.693C460.475 655.572 460.628 655.395 460.741 655.16C460.855 654.926 460.912 654.638 460.912 654.297ZM462.89 656.266L461.813 652.329H462.298L463.12 655.535H463.159L463.997 652.329H464.535L465.373 655.535H465.412L466.234 652.329H466.719L465.642 656.266H465.15L464.281 653.129H464.251L463.382 656.266H462.89ZM467.851 652.329L467.813 655.158H467.367L467.328 652.329H467.851ZM467.59 656.296C467.495 656.296 467.413 656.262 467.346 656.195C467.278 656.127 467.244 656.045 467.244 655.95C467.244 655.856 467.278 655.774 467.346 655.706C467.413 655.638 467.495 655.604 467.59 655.604C467.685 655.604 467.766 655.638 467.834 655.706C467.902 655.774 467.936 655.856 467.936 655.95C467.936 656.013 467.92 656.071 467.888 656.123C467.857 656.176 467.815 656.218 467.763 656.25C467.711 656.281 467.654 656.296 467.59 656.296Z" fill="white"/>
<path d="M582.959 680.867H351.789V705.3H582.959V680.867Z" fill="#002B49"/>
<path d="M421.305 693.288L428.968 697.714V688.861L421.305 693.288Z" stroke="white" stroke-width="0.6496" stroke-miterlimit="10"/>
<path d="M467.926 697.714C470.371 697.714 472.353 695.732 472.353 693.288C472.353 690.843 470.371 688.861 467.926 688.861C465.482 688.861 463.5 690.843 463.5 693.288C463.5 695.732 465.482 697.714 467.926 697.714Z" stroke="white" stroke-width="0.6496" stroke-miterlimit="10"/>
<path d="M517.835 689.389H510.016V697.208H517.835V689.389Z" stroke="white" stroke-width="0.6496" stroke-miterlimit="10"/>
<path d="M857.962 757.248H75.9247C71.5568 757.248 68.0078 753.699 68.0078 749.331C68.0078 744.963 71.5568 741.414 75.9247 741.414H857.982C862.35 741.414 865.899 744.963 865.899 749.331C865.899 753.699 862.35 757.248 857.962 757.248Z" fill="#FF984D"/>
<path d="M462.918 432.239C462.918 429.301 465.301 426.918 468.239 426.918V420C461.48 420 456 425.48 456 432.239C456 438.998 468.239 454 468.239 454V437.561C465.301 437.561 462.918 435.177 462.918 432.239Z" fill="#053255"/>
<path d="M468.242 420V426.918C471.18 426.918 473.564 429.301 473.564 432.239C473.564 435.177 471.18 437.561 468.242 437.561V454C468.242 454 480.481 438.998 480.481 432.239C480.481 425.48 475.001 420 468.242 420Z" fill="#2F4B74"/>
<path d="M570.773 515.209L559.25 528.908L617.286 577.723L628.809 564.023L570.773 515.209Z" fill="#BFBFAF"/>
<path d="M580.973 503.109L570.781 515.227L628.817 564.041L639.01 551.924L580.973 503.109Z" fill="#CABABA"/>
<path d="M738.916 642.473C744.278 636.096 743.459 626.581 737.083 621.218L657.036 553.905C650.66 548.543 641.144 549.362 635.782 555.738L628.781 564.064L731.915 650.799L738.916 642.473Z" fill="#053255"/>
<path d="M628.781 564.045L619.831 574.692C614.468 581.068 615.287 590.584 621.664 595.947L701.71 663.26C708.087 668.622 717.602 667.803 722.965 661.427L731.915 650.78L628.781 564.045Z" fill="#002B49"/>
<path d="M555.227 340.772C528.687 318.445 495.05 307.798 460.497 310.781C425.924 313.765 394.627 330.028 372.319 356.547C349.992 383.087 339.345 416.724 342.328 451.277C345.312 485.831 361.575 517.147 388.094 539.455C414.633 561.782 448.27 572.429 482.824 569.446C484.345 569.309 485.866 569.153 487.367 568.978C520.107 565.019 549.669 549.049 571.002 523.68C593.329 497.141 603.976 463.504 600.992 428.95C598.028 394.396 581.766 363.08 555.227 340.772ZM484.988 550.102C424.247 557.453 369.043 514.164 361.692 453.422C354.34 392.68 397.63 337.477 458.371 330.125C519.113 322.774 574.317 366.063 581.668 426.805C589 487.547 545.73 542.751 484.988 550.102Z" fill="#053255"/>
<path d="M458.368 330.126C397.627 337.478 354.337 392.681 361.689 453.423C369.04 514.165 424.244 557.454 484.985 550.103C545.727 542.751 589.017 487.548 581.665 426.806C574.314 366.064 519.11 322.775 458.368 330.126ZM550.641 506.54C533.15 527.327 509.146 539.475 484.088 542.517C456.672 545.832 427.988 538.227 405.231 519.098C361.689 482.458 356.053 417.231 392.693 373.689C410.184 352.902 434.189 340.753 459.246 337.712C486.662 334.397 515.347 342.001 538.103 361.131C581.646 397.771 587.281 462.997 550.641 506.54Z" fill="#002B49"/>
<path opacity="0.5" d="M499.279 398.511C512.062 398.511 522.425 388.148 522.425 375.365C522.425 362.582 512.062 352.219 499.279 352.219C486.496 352.219 476.133 362.582 476.133 375.365C476.133 388.148 486.496 398.511 499.279 398.511Z" fill="white"/>
</svg>
