<svg width="1920" height="1117" viewBox="0 0 1920 1117" fill="none" xmlns="http://www.w3.org/2000/svg">
<rect width="1920" height="1117" fill="#C8DFF1"/>
<path d="M1333 0H0V1117H1333V0Z" fill="#C8DFF1"/>
<path opacity="0.5" d="M156.084 791.503C104.124 730.531 81.5694 645.592 96.4456 566.892C101.938 537.806 112.575 509.12 131.317 486.192C150.059 463.265 177.599 446.629 207.191 445.163C254.699 442.816 303.541 478.194 346.89 458.599C371.604 447.429 385.947 421.062 393.438 394.988C413.006 326.952 459.715 260.355 519.22 221.538C591.335 174.51 686.458 169.605 764.865 203.676C844.525 238.281 915.841 327.405 902.084 418.103C898.378 442.603 891.953 467.504 896.672 491.818C910.989 565.719 994.408 556.068 1049.14 575.903C1089.1 590.38 1122.22 622.691 1137.68 662.255C1153.14 701.845 1150.69 748.02 1131.15 785.744L156.084 791.503Z" fill="white"/>
<path opacity="0.5" d="M1029.39 335.297C1051.65 342.095 1078.52 335.457 1092.04 316.475C1103.1 300.959 1103.93 280.137 1099.93 261.502C1096.17 244.066 1088.2 227.004 1074.6 215.46C1046.98 192.026 978.385 175.443 967.748 223.618C958.443 265.687 987.929 322.633 1029.39 335.297Z" fill="white"/>
<path opacity="0.5" d="M180.984 163.126C151.952 189.2 131.61 226.47 131.637 265.474C131.663 304.478 154.538 344.094 190.822 358.438C213.296 367.315 238.437 366.302 262.297 362.543C290.824 358.038 314.871 339.029 333 317.541C382.614 258.836 362.912 133.854 274.561 125.802C239.503 122.603 206.365 140.359 180.984 163.126Z" fill="white"/>
<path d="M117.134 635.062H246.515V706.804H314.471V573.824H339.318V773.16H382.454V524.263H412.5H446.491V623.411H535.376V587.714H553.665V552.016H611.197V587.714H639.936V639.274H664.784V524.263H702.694V625.384H774.569V581.768H857.989V741.088H905.283V643.939H999.98V684.569H1015.1V591.686H1034.69V663.055H1066.07V619.546H1088.28V641.247H1133.97V1022.06H117.134V635.062Z" fill="#9ACBED"/>
<path d="M1158.85 742.768H1004.83L1004.59 809.791H936.635V773.161H911.788V854.287H868.653V706.004H838.58H804.615V753.859H715.731V729.945H697.415V706.004H639.91V729.945H611.144V764.496H586.323V687.395H548.413V755.192H476.511V725.946H421.911V832.772H365.525V725.946H251.127V794.888H236.011V732.584H216.416V780.465H185.037V700.672H162.829V813.55H85.1685V1016.97H1158.61L1158.85 742.768Z" fill="#70B6E0"/>
<path d="M1146.05 1036.64H76.824C70.8521 1036.64 66 1031.79 66 1025.82C66 1019.85 70.8521 1014.99 76.824 1014.99H1146.05C1152.02 1014.99 1156.87 1019.85 1156.87 1025.82C1156.87 1031.79 1152.02 1036.64 1146.05 1036.64Z" fill="#456BA3"/>
<path d="M428.842 849.275C405.275 849.275 386.186 867.164 386.186 889.238C386.186 890.731 386.293 892.197 386.453 893.637C382.961 892.651 379.255 892.091 375.389 892.091C354.328 892.091 337.265 908.087 337.265 927.788C337.265 938.639 342.437 948.317 350.595 954.875C349.449 954.768 348.303 954.688 347.13 954.688C329.294 954.688 314.844 968.232 314.844 984.921C314.844 1001.61 329.294 1015.15 347.13 1015.15H471.525V889.211C471.525 867.164 452.41 849.275 428.842 849.275Z" fill="#31985B"/>
<path d="M851.963 849.275C875.531 849.275 894.619 867.164 894.619 889.238C894.619 890.731 894.513 892.197 894.353 893.637C897.845 892.651 901.551 892.091 905.417 892.091C926.478 892.091 943.541 908.087 943.541 927.788C943.541 938.639 938.369 948.317 930.211 954.875C931.357 954.768 932.503 954.688 933.676 954.688C951.512 954.688 965.962 968.232 965.962 984.921C965.962 1001.61 951.512 1015.15 933.676 1015.15H809.281V889.211C809.307 867.164 828.423 849.275 851.963 849.275Z" fill="#31985B"/>
<path d="M1173.38 1036.64H104.177C98.2052 1036.64 93.353 1031.79 93.353 1025.82C93.353 1019.85 98.2052 1014.99 104.177 1014.99H1173.4C1179.37 1014.99 1184.23 1019.85 1184.23 1025.82C1184.23 1031.79 1179.37 1036.64 1173.38 1036.64Z" fill="#456BA3"/>
<path d="M353.955 424.208H180.265C155.524 424.208 135.29 444.443 135.29 469.183C135.29 493.924 155.524 514.159 180.265 514.159H297.782L346.89 566.839V514.159H353.955C378.695 514.159 398.93 493.924 398.93 469.183C398.93 444.469 378.695 424.208 353.955 424.208Z" fill="#456BA3"/>
<path d="M187.33 455.427L191.809 464.491L201.806 465.957L194.581 473.022L196.287 482.993L187.33 478.274L178.372 482.993L180.078 473.022L172.827 465.957L182.851 464.491L187.33 455.427Z" fill="#FC6600"/>
<path d="M227.213 455.427L231.692 464.491L241.716 465.957L234.465 473.022L236.171 482.993L227.213 478.274L218.255 482.993L219.961 473.022L212.71 465.957L222.734 464.491L227.213 455.427Z" fill="#FC6600"/>
<path d="M267.096 455.427L271.575 464.491L281.6 465.957L274.348 473.022L276.054 482.993L267.096 478.274L258.139 482.993L259.845 473.022L252.62 465.957L262.618 464.491L267.096 455.427Z" fill="#FC6600"/>
<path d="M307.006 455.427L311.485 464.491L321.483 465.957L314.231 473.022L315.964 482.993L307.006 478.274L298.049 482.993L299.755 473.022L292.503 465.957L302.528 464.491L307.006 455.427Z" fill="#FC6600"/>
<path d="M346.89 455.427L351.369 464.491L361.366 465.957L354.141 473.022L355.848 482.993L346.89 478.274L337.932 482.993L339.638 473.022L332.387 465.957L342.411 464.491L346.89 455.427Z" fill="white"/>
<path d="M800.483 1015.47H479.657C461.021 1015.47 445.932 1000.38 445.932 981.748V321.194C445.932 302.558 461.021 287.469 479.657 287.469H800.483C819.118 287.469 834.208 302.558 834.208 321.194V981.748C834.208 1000.36 819.118 1015.47 800.483 1015.47Z" fill="#2F4B74"/>
<path d="M797.39 337.296H481.336V965.646H797.39V337.296Z" fill="#1F2D41"/>
<path d="M797.39 343.775H481.336V965.646H797.39V343.775Z" fill="#B3D7F3"/>
<path d="M684.832 320.42H577.232C573.686 320.42 570.807 317.514 570.807 313.995C570.807 310.45 573.713 307.57 577.232 307.57H684.832C688.378 307.57 691.257 310.476 691.257 313.995C691.284 317.541 688.378 320.42 684.832 320.42Z" fill="#002B49"/>
<path d="M697.655 995.772H587.07C584.35 995.772 582.138 993.559 582.138 990.839C582.138 988.12 584.35 985.907 587.07 985.907H697.655C700.375 985.907 702.588 988.12 702.588 990.839C702.614 993.559 700.375 995.772 697.655 995.772Z" fill="#002B49"/>
<path d="M721.863 313.995C721.863 318.341 718.343 321.833 714.025 321.833C709.679 321.833 706.187 318.314 706.187 313.995C706.187 309.65 709.706 306.157 714.025 306.157C718.343 306.157 721.863 309.65 721.863 313.995Z" fill="#002B49"/>
<path d="M717.197 313.995C717.197 315.755 715.758 317.195 713.998 317.195C712.239 317.195 710.799 315.755 710.799 313.995C710.799 312.236 712.239 310.796 713.998 310.796C715.758 310.796 717.197 312.236 717.197 313.995Z" fill="#2F4B74"/>
<path d="M718.023 311.676C718.023 312.609 717.277 313.382 716.317 313.382C715.384 313.382 714.611 312.636 714.611 311.676C714.611 310.743 715.357 309.97 716.317 309.97C717.25 309.996 718.023 310.743 718.023 311.676Z" fill="white"/>
<g opacity="0.5">
<path d="M741.244 872.15V965.247H797.416V872.15H741.244Z" fill="#619FC5"/>
<path d="M741.242 756.181V849.277H797.415V756.181H741.242Z" fill="#619FC5"/>
<path d="M632.472 903.421H716.371V756.178L632.472 903.421Z" fill="#619FC5"/>
<path d="M632.468 921.432V965.235H716.367V921.432H632.468Z" fill="#619FC5"/>
<path d="M689.044 748.073L608.158 883.053L485.202 844.129L566.061 709.15L689.044 748.073Z" fill="#619FC5"/>
<path d="M481.356 918.689V965.238H601.939V918.689H481.356Z" fill="#619FC5"/>
<path d="M481.336 901.155H601.919L481.336 863.778V901.155Z" fill="#31985B"/>
<path d="M696.403 663.887V731.923H797.418V663.887H696.403Z" fill="#619FC5"/>
<path d="M741.226 552.035V645.132H797.398V552.035H741.226Z" fill="#619FC5"/>
<path d="M741.224 436.066V529.163H797.396V436.066H741.224Z" fill="#619FC5"/>
<path d="M632.472 583.315H716.371V436.071L632.472 583.315Z" fill="#31985B"/>
<path d="M632.45 601.317V645.12H716.349V601.317H632.45Z" fill="#619FC5"/>
<path d="M689.044 427.967L608.158 562.946L485.202 523.996L566.061 389.017L689.044 427.967Z" fill="#619FC5"/>
<path d="M481.338 598.574V645.123H601.921V598.574H481.338Z" fill="#619FC5"/>
<path d="M481.336 581.049H601.919L481.336 543.671V581.049Z" fill="#31985B"/>
<path d="M692.167 343.767V411.803H797.395V343.767H692.167Z" fill="#619FC5"/>
<path d="M674.408 725.946L570.274 693.021H481.336V663.881H674.408V725.946Z" fill="#619FC5"/>
<path d="M481.336 813.55V707.497H541.641L481.336 813.55Z" fill="#619FC5"/>
<path d="M674.407 400.054V343.775H577.872V368.568L674.407 400.054Z" fill="#619FC5"/>
<path d="M481.336 488.671L556.037 365.742V343.774H481.336V488.671Z" fill="#619FC5"/>
</g>
<path d="M794.511 343.775H782.354H496.426H481.363V357.504V890.278V965.246H496.426H782.328H797.39V890.278V343.775H794.511ZM496.426 872.149V357.504H782.328V872.149H496.426Z" fill="white"/>
<path d="M689.684 918.697H595.068C586.457 918.697 579.392 911.633 579.392 903.021V899.716C579.392 891.104 586.457 884.039 595.068 884.039H689.684C698.295 884.039 705.36 891.104 705.36 899.716V903.021C705.36 911.633 698.295 918.697 689.684 918.697Z" fill="#488CAE"/>
<path d="M689.684 916.538H595.068C586.457 916.538 579.392 909.473 579.392 900.862V897.556C579.392 888.945 586.457 881.88 595.068 881.88H689.684C698.295 881.88 705.36 888.945 705.36 897.556V900.862C705.36 909.473 698.295 916.538 689.684 916.538Z" fill="#70B6E0"/>
<path d="M603.572 896.746V892.809H604.948C605.223 892.809 605.449 892.856 605.627 892.951C605.805 893.045 605.938 893.171 606.025 893.33C606.112 893.487 606.155 893.662 606.155 893.854C606.155 894.024 606.125 894.163 606.065 894.273C606.006 894.384 605.928 894.471 605.831 894.535C605.734 894.599 605.63 894.646 605.517 894.677V894.716C605.638 894.723 605.759 894.766 605.881 894.842C606.002 894.919 606.104 895.03 606.186 895.173C606.268 895.317 606.309 895.492 606.309 895.7C606.309 895.897 606.264 896.075 606.175 896.232C606.085 896.39 605.943 896.515 605.75 896.607C605.556 896.699 605.305 896.746 604.994 896.746H603.572ZM604.049 896.323H604.994C605.306 896.323 605.527 896.262 605.658 896.142C605.79 896.02 605.856 895.873 605.856 895.7C605.856 895.567 605.822 895.444 605.754 895.331C605.686 895.217 605.589 895.126 605.463 895.058C605.338 894.989 605.189 894.954 605.017 894.954H604.049V896.323ZM604.049 894.539H604.933C605.076 894.539 605.206 894.511 605.321 894.454C605.438 894.398 605.53 894.318 605.598 894.216C605.667 894.113 605.702 893.993 605.702 893.854C605.702 893.681 605.642 893.535 605.521 893.414C605.401 893.292 605.21 893.232 604.948 893.232H604.049V894.539ZM609.676 892.809H610.153V895.415C610.153 895.684 610.089 895.925 609.963 896.136C609.837 896.346 609.659 896.512 609.43 896.634C609.201 896.754 608.932 896.815 608.623 896.815C608.314 896.815 608.045 896.754 607.815 896.634C607.586 896.512 607.408 896.346 607.281 896.136C607.155 895.925 607.093 895.684 607.093 895.415V892.809H607.569V895.377C607.569 895.569 607.612 895.74 607.696 895.89C607.781 896.039 607.901 896.156 608.058 896.242C608.215 896.326 608.404 896.369 608.623 896.369C608.842 896.369 609.03 896.326 609.188 896.242C609.345 896.156 609.466 896.039 609.549 895.89C609.634 895.74 609.676 895.569 609.676 895.377V892.809ZM610.766 892.809H611.312L612.404 894.646H612.45L613.542 892.809H614.088L612.666 895.123V896.746H612.189V895.123L610.766 892.809ZM619.349 892.809V896.746H618.888L616.742 893.655H616.704V896.746H616.227V892.809H616.689L618.841 895.907H618.88V892.809H619.349ZM623.625 894.777C623.625 895.192 623.55 895.551 623.4 895.854C623.25 896.156 623.044 896.389 622.783 896.553C622.521 896.717 622.223 896.799 621.887 896.799C621.551 896.799 621.252 896.717 620.991 896.553C620.73 896.389 620.524 896.156 620.374 895.854C620.224 895.551 620.149 895.192 620.149 894.777C620.149 894.362 620.224 894.003 620.374 893.701C620.524 893.398 620.73 893.165 620.991 893.001C621.252 892.837 621.551 892.755 621.887 892.755C622.223 892.755 622.521 892.837 622.783 893.001C623.044 893.165 623.25 893.398 623.4 893.701C623.55 894.003 623.625 894.362 623.625 894.777ZM623.163 894.777C623.163 894.436 623.106 894.149 622.992 893.914C622.879 893.68 622.726 893.502 622.533 893.382C622.34 893.261 622.125 893.201 621.887 893.201C621.648 893.201 621.433 893.261 621.239 893.382C621.047 893.502 620.894 893.68 620.78 893.914C620.667 894.149 620.61 894.436 620.61 894.777C620.61 895.118 620.667 895.406 620.78 895.64C620.894 895.875 621.047 896.052 621.239 896.173C621.433 896.293 621.648 896.353 621.887 896.353C622.125 896.353 622.34 896.293 622.533 896.173C622.726 896.052 622.879 895.875 622.992 895.64C623.106 895.406 623.163 895.118 623.163 894.777ZM625.141 896.746L624.065 892.809H624.549L625.372 896.015H625.41L626.248 892.809H626.787L627.625 896.015H627.663L628.486 892.809H628.97L627.894 896.746H627.402L626.533 893.608H626.502L625.633 896.746H625.141ZM630.103 892.809L630.064 895.638H629.618L629.58 892.809H630.103ZM629.841 896.776C629.746 896.776 629.665 896.742 629.597 896.674C629.529 896.606 629.495 896.525 629.495 896.43C629.495 896.335 629.529 896.254 629.597 896.186C629.665 896.118 629.746 896.084 629.841 896.084C629.936 896.084 630.017 896.118 630.085 896.186C630.153 896.254 630.187 896.335 630.187 896.43C630.187 896.493 630.171 896.551 630.139 896.603C630.108 896.656 630.067 896.698 630.014 896.73C629.963 896.761 629.905 896.776 629.841 896.776Z" fill="white"/>
<path d="M797.39 932.214H481.336V965.619H797.39V932.214Z" fill="#002B49"/>
<path d="M576.379 949.197L586.856 955.248V943.145L576.379 949.197Z" stroke="white" stroke-width="0.6496" stroke-miterlimit="10"/>
<path d="M640.123 955.248C643.465 955.248 646.175 952.539 646.175 949.197C646.175 945.854 643.465 943.145 640.123 943.145C636.781 943.145 634.071 945.854 634.071 949.197C634.071 952.539 636.781 955.248 640.123 955.248Z" stroke="white" stroke-width="0.6496" stroke-miterlimit="10"/>
<path d="M708.346 943.865H697.655V954.555H708.346V943.865Z" stroke="white" stroke-width="0.6496" stroke-miterlimit="10"/>
<path d="M1002.75 459.506L938.182 591.259L941.088 598.591L1008 462.092L1002.75 459.506Z" fill="#FF984D"/>
<path d="M755.267 662.095C755.267 668.627 707.093 673.932 647.641 673.932C588.189 673.932 540.015 668.627 540.015 662.095C540.015 655.563 588.189 650.258 647.641 650.258C707.066 650.258 755.267 655.563 755.267 662.095Z" fill="#456BA3"/>
<path d="M729.7 582.382H557.104V657.856H729.7V582.382Z" fill="#FF984D"/>
<path d="M729.7 582.382H557.104V598.058H729.7V582.382Z" fill="#FF984D"/>
<path d="M744.71 589.926H540.015L558.383 519.357H726.341L744.71 589.926Z" fill="#213653"/>
<path d="M676.46 568.865L642.362 545.484L608.264 568.865V664.841H676.46V568.865Z" fill="#FF984D"/>
<path d="M656.119 623.411H631.059V662.068H656.119V623.411Z" fill="white"/>
<path d="M653.426 625.837H633.778V662.042H653.426V625.837Z" fill="#2F4B74"/>
<path d="M639.696 645.699C639.696 646.659 638.923 647.459 637.937 647.459C636.977 647.459 636.177 646.685 636.177 645.699C636.177 644.739 636.95 643.939 637.937 643.939C638.923 643.939 639.696 644.739 639.696 645.699Z" fill="white"/>
<path d="M657.585 565.852H629.246V594.192H657.585V565.852Z" fill="white"/>
<path d="M655.452 567.985H631.378V592.059H655.452V567.985Z" fill="#70B6E0"/>
<path d="M645.695 565.852H641.456V594.192H645.695V565.852Z" fill="white"/>
<path d="M600.959 610.828H567.421V634.315H600.959V610.828Z" fill="white"/>
<path d="M598.453 612.614H569.954V632.556H598.453V612.614Z" fill="#70B6E0"/>
<path d="M586.109 610.828H582.724V634.315H586.109V610.828Z" fill="white"/>
<path d="M720.236 610.828H686.698V634.315H720.236V610.828Z" fill="white"/>
<path d="M717.703 612.614H689.204V632.556H717.703V612.614Z" fill="#70B6E0"/>
<path d="M705.36 610.828H701.974V634.315H705.36V610.828Z" fill="white"/>
<path d="M661.371 660.469H625.593V664.841H661.371V660.469Z" fill="white"/>
<path d="M676.46 577.716V568.865L642.362 545.484L608.264 568.865V579.716L643.775 554.922L676.46 577.716Z" fill="#FF984D"/>
<path d="M598.667 572.571L643.562 541.778L688.457 572.571" stroke="#2F4B74" stroke-width="3.7269" stroke-miterlimit="10"/>
<path d="M602.639 643.006C599.546 643.006 597.014 645.352 597.014 648.258C597.014 648.445 597.04 648.658 597.04 648.845C596.587 648.712 596.081 648.632 595.574 648.632C592.801 648.632 590.562 650.738 590.562 653.324C590.562 654.763 591.255 656.016 592.322 656.896C592.162 656.87 592.028 656.87 591.868 656.87C589.522 656.87 587.629 658.656 587.629 660.842C587.629 663.028 589.522 664.814 591.868 664.814H608.238V648.232C608.264 645.352 605.758 643.006 602.639 643.006Z" fill="#31985B"/>
<path d="M682.086 643.006C685.178 643.006 687.711 645.352 687.711 648.258C687.711 648.445 687.684 648.658 687.684 648.845C688.137 648.712 688.644 648.632 689.151 648.632C691.923 648.632 694.163 650.738 694.163 653.324C694.163 654.763 693.469 656.016 692.403 656.896C692.563 656.87 692.696 656.87 692.856 656.87C695.202 656.87 697.095 658.656 697.095 660.842C697.095 663.028 695.202 664.814 692.856 664.814H676.487V648.232C676.46 645.352 678.966 643.006 682.086 643.006Z" fill="#31985B"/>
<path d="M1045.84 380.779C1021.39 368.808 992.542 377.526 981.398 400.267C972.947 417.489 977.079 437.804 990.196 451.854L953.885 525.942L956.231 535.913L940.235 544.604L943.594 563.053L928.851 567.825L938.182 591.233L990.196 489L1008.03 462.038L941.115 598.538L941.221 598.831C943.567 604.723 952.019 605.416 954.711 599.924L1019.52 467.69C1040.08 471.316 1060.82 462.065 1069.88 443.59C1081.05 420.902 1070.28 392.749 1045.84 380.779ZM1063.46 441.084C1053.51 460.865 1028.4 468.33 1007.36 457.773C986.33 447.215 977.319 422.608 987.263 402.826C997.207 383.045 1022.32 375.58 1043.36 386.137C1064.36 396.695 1073.37 421.302 1063.46 441.084Z" fill="#FF984D"/>
<path d="M1043.33 386.137C1022.29 375.58 997.18 383.045 987.236 402.826C977.292 422.608 986.303 447.215 1007.34 457.773C1028.37 468.33 1053.49 460.865 1063.43 441.084C1073.37 421.302 1064.36 396.695 1043.33 386.137ZM1048.02 409.625C1044.72 416.396 1036.13 418.982 1028.85 415.41C1021.57 411.838 1018.38 403.466 1021.71 396.721C1025.01 389.95 1033.6 387.364 1040.88 390.936C1048.13 394.508 1051.33 402.853 1048.02 409.625Z" fill="#FF984D"/>
<path d="M622.634 139.639C622.634 125.802 633.858 114.579 647.695 114.579V82C615.863 82 590.056 107.807 590.056 139.639C590.056 171.471 647.695 242.12 647.695 242.12V164.699C633.858 164.699 622.634 153.475 622.634 139.639Z" fill="#053255"/>
<path d="M647.721 82V114.579C661.558 114.579 672.782 125.802 672.782 139.639C672.782 153.475 661.558 164.699 647.721 164.699V242.12C647.721 242.12 705.36 171.471 705.36 139.639C705.36 107.807 679.553 82 647.721 82Z" fill="#2F4B74"/>
<path d="M780.36 704.392L764.606 723.122L843.953 789.861L859.707 771.131L780.36 704.392Z" fill="#BFBFAF"/>
<path d="M794.301 687.85L780.366 704.417L859.713 771.156L873.648 754.589L794.301 687.85Z" fill="#CABABA"/>
<path d="M1010.24 878.387C1017.58 869.669 1016.46 856.659 1007.74 849.328L898.298 757.298C889.581 749.966 876.57 751.086 869.239 759.804L859.668 771.187L1000.67 889.771L1010.24 878.387Z" fill="#053255"/>
<path d="M859.668 771.161L847.431 785.717C840.099 794.435 841.219 807.445 849.937 814.777L959.376 906.807C968.094 914.138 981.104 913.019 988.436 904.301L1000.67 889.744L859.668 771.161Z" fill="#002B49"/>
<path d="M759.106 465.904C722.822 435.378 676.834 420.822 629.592 424.901C582.324 428.98 539.535 451.214 509.036 487.472C478.51 523.756 463.954 569.744 468.033 616.986C472.112 664.227 494.346 707.043 530.604 737.542C566.888 768.068 612.876 782.625 660.118 778.546C662.197 778.359 664.277 778.146 666.33 777.906C711.092 772.494 751.508 750.659 780.674 715.975C811.2 679.69 825.756 633.702 821.677 586.46C817.625 539.219 795.391 496.403 759.106 465.904ZM663.077 752.099C580.031 762.15 504.557 702.964 494.506 619.919C484.455 536.873 543.64 461.398 626.686 451.347C709.732 441.297 785.207 500.482 795.257 583.528C805.282 666.574 746.123 742.048 663.077 752.099Z" fill="#053255"/>
<path d="M626.686 451.347C543.64 461.398 484.455 536.873 494.506 619.919C504.557 702.965 580.031 762.15 663.077 752.099C746.123 742.048 805.308 666.574 795.257 583.528C785.207 500.482 709.732 441.297 626.686 451.347ZM752.841 692.54C728.927 720.96 696.109 737.569 661.851 741.728C624.367 746.26 585.15 735.863 554.038 709.709C494.506 659.615 486.801 570.438 536.895 510.906C560.809 482.486 593.628 465.877 627.886 461.718C665.37 457.186 704.587 467.583 735.699 493.737C795.231 543.831 802.935 633.009 752.841 692.54Z" fill="#002B49"/>
<path opacity="0.5" d="M682.619 544.844C700.096 544.844 714.265 530.676 714.265 513.199C714.265 495.721 700.096 481.553 682.619 481.553C665.142 481.553 650.974 495.721 650.974 513.199C650.974 530.676 665.142 544.844 682.619 544.844Z" fill="white"/>
</svg>
