<svg width="1436" height="80" viewBox="0 0 1436 80" fill="none" xmlns="http://www.w3.org/2000/svg">
<rect x="0.5" y="0.5" width="1435" height="79" rx="9.5" fill="#FFF4EC"/>
<rect x="0.5" y="0.5" width="1435" height="79" rx="9.5" stroke="#FBE4E4" stroke-opacity="0.5"/>
<rect x="0.5" y="0.5" width="1435" height="79" rx="9.5" stroke="#FC6600"/>
<path d="M113.5 36.639C113.5 36.86 113.588 37.072 113.744 37.2283C113.9 37.3845 114.112 37.4723 114.333 37.4723C114.554 37.4723 114.766 37.3845 114.923 37.2283C115.079 37.072 115.167 36.86 115.167 36.639V34.9723C115.167 34.7513 115.079 34.5394 114.923 34.3831C114.766 34.2268 114.554 34.139 114.333 34.139C114.112 34.139 113.9 34.2268 113.744 34.3831C113.588 34.5394 113.5 34.7513 113.5 34.9723V36.639ZM113.5 36.639C113.5 38.8491 114.378 40.9688 115.941 42.5316C117.504 44.0944 119.623 44.9723 121.833 44.9723M121.833 44.9723H123.5C123.721 44.9723 123.933 44.8845 124.089 44.7283C124.246 44.572 124.333 44.36 124.333 44.139C124.333 43.918 124.246 43.706 124.089 43.5497C123.933 43.3935 123.721 43.3057 123.5 43.3057H121.833C121.612 43.3057 121.4 43.3935 121.244 43.5497C121.088 43.706 121 43.918 121 44.139C121 44.36 121.088 44.572 121.244 44.7283C121.4 44.8845 121.612 44.9723 121.833 44.9723ZM103.5 54.9719L106.25 48.6385C104.146 45.652 103.204 42.0003 103.602 38.3687C103.999 34.7372 105.708 31.3754 108.408 28.9144C111.108 26.4534 114.613 25.0622 118.266 25.002C121.918 24.9418 125.467 26.2168 128.247 28.5875C131.026 30.9582 132.845 34.2618 133.362 37.8783C133.879 41.4948 133.058 45.1756 131.054 48.2298C129.049 51.2841 125.999 53.5019 122.476 54.4671C118.952 55.4322 115.198 55.0783 111.917 53.4719L103.5 54.9719Z" stroke="#222222" stroke-width="2" stroke-linecap="round" stroke-linejoin="round"/>
<path d="M177.227 36C176.977 35.2348 176.648 34.5492 176.239 33.9432C175.837 33.3295 175.356 32.8068 174.795 32.375C174.242 31.9432 173.614 31.6136 172.909 31.3864C172.205 31.1591 171.432 31.0455 170.591 31.0455C169.212 31.0455 167.958 31.4015 166.83 32.1136C165.701 32.8258 164.803 33.875 164.136 35.2614C163.47 36.6477 163.136 38.3485 163.136 40.3636C163.136 42.3788 163.473 44.0795 164.148 45.4659C164.822 46.8523 165.735 47.9015 166.886 48.6136C168.038 49.3258 169.333 49.6818 170.773 49.6818C172.106 49.6818 173.28 49.3977 174.295 48.8295C175.318 48.2538 176.114 47.4432 176.682 46.3977C177.258 45.3447 177.545 44.1061 177.545 42.6818L178.409 42.8636H171.409V40.3636H180.273V42.8636C180.273 44.7803 179.864 46.447 179.045 47.8636C178.235 49.2803 177.114 50.3788 175.682 51.1591C174.258 51.9318 172.621 52.3182 170.773 52.3182C168.712 52.3182 166.902 51.8333 165.341 50.8636C163.788 49.8939 162.576 48.5152 161.705 46.7273C160.841 44.9394 160.409 42.8182 160.409 40.3636C160.409 38.5227 160.655 36.8674 161.148 35.3977C161.648 33.9205 162.352 32.6629 163.261 31.625C164.17 30.5871 165.246 29.7917 166.489 29.2386C167.731 28.6856 169.098 28.4091 170.591 28.4091C171.818 28.4091 172.962 28.5947 174.023 28.9659C175.091 29.3295 176.042 29.8485 176.875 30.5227C177.716 31.1894 178.417 31.9886 178.977 32.9205C179.538 33.8447 179.924 34.8712 180.136 36H177.227ZM185.83 52V34.5455H188.511V52H185.83ZM187.193 31.6364C186.67 31.6364 186.22 31.4583 185.841 31.1023C185.47 30.7462 185.284 30.3182 185.284 29.8182C185.284 29.3182 185.47 28.8902 185.841 28.5341C186.22 28.178 186.67 28 187.193 28C187.716 28 188.163 28.178 188.534 28.5341C188.913 28.8902 189.102 29.3182 189.102 29.8182C189.102 30.3182 188.913 30.7462 188.534 31.1023C188.163 31.4583 187.716 31.6364 187.193 31.6364ZM207.696 34.5455L201.241 52H198.514L192.06 34.5455H194.969L199.787 48.4545H199.969L204.787 34.5455H207.696ZM217.929 52.3636C216.247 52.3636 214.796 51.9924 213.577 51.25C212.365 50.5 211.429 49.4545 210.77 48.1136C210.118 46.7652 209.793 45.197 209.793 43.4091C209.793 41.6212 210.118 40.0455 210.77 38.6818C211.429 37.3106 212.346 36.2424 213.52 35.4773C214.702 34.7045 216.08 34.3182 217.656 34.3182C218.565 34.3182 219.463 34.4697 220.349 34.7727C221.236 35.0758 222.043 35.5682 222.77 36.25C223.497 36.9242 224.077 37.8182 224.509 38.9318C224.94 40.0455 225.156 41.4167 225.156 43.0455V44.1818H211.702V41.8636H222.429C222.429 40.8788 222.232 40 221.838 39.2273C221.452 38.4545 220.899 37.8447 220.179 37.3977C219.467 36.9508 218.626 36.7273 217.656 36.7273C216.588 36.7273 215.664 36.9924 214.884 37.5227C214.111 38.0455 213.516 38.7273 213.099 39.5682C212.683 40.4091 212.474 41.3106 212.474 42.2727V43.8182C212.474 45.1364 212.702 46.2538 213.156 47.1705C213.618 48.0795 214.259 48.7727 215.077 49.25C215.895 49.7197 216.846 49.9545 217.929 49.9545C218.634 49.9545 219.27 49.8561 219.838 49.6591C220.414 49.4545 220.91 49.1515 221.327 48.75C221.743 48.3409 222.065 47.8333 222.293 47.2273L224.884 47.9545C224.611 48.8333 224.152 49.6061 223.509 50.2727C222.865 50.9318 222.069 51.447 221.122 51.8182C220.175 52.1818 219.111 52.3636 217.929 52.3636ZM243.372 52.4091C242.266 52.4091 241.262 52.2008 240.361 51.7841C239.459 51.3598 238.743 50.75 238.213 49.9545C237.683 49.1515 237.418 48.1818 237.418 47.0455C237.418 46.0455 237.615 45.2348 238.009 44.6136C238.402 43.9848 238.929 43.4924 239.588 43.1364C240.247 42.7803 240.974 42.5152 241.77 42.3409C242.573 42.1591 243.38 42.0152 244.19 41.9091C245.251 41.7727 246.111 41.6705 246.77 41.6023C247.437 41.5265 247.921 41.4015 248.224 41.2273C248.535 41.053 248.69 40.75 248.69 40.3182V40.2273C248.69 39.1061 248.384 38.2348 247.77 37.6136C247.164 36.9924 246.243 36.6818 245.009 36.6818C243.728 36.6818 242.724 36.9621 241.997 37.5227C241.27 38.0833 240.759 38.6818 240.463 39.3182L237.918 38.4091C238.372 37.3485 238.978 36.5227 239.736 35.9318C240.501 35.3333 241.334 34.9167 242.236 34.6818C243.145 34.4394 244.039 34.3182 244.918 34.3182C245.478 34.3182 246.122 34.3864 246.849 34.5227C247.584 34.6515 248.293 34.9205 248.974 35.3295C249.664 35.7386 250.236 36.3561 250.69 37.1818C251.145 38.0076 251.372 39.1136 251.372 40.5V52H248.69V49.6364H248.554C248.372 50.0152 248.069 50.4205 247.645 50.8523C247.221 51.2841 246.656 51.6515 245.952 51.9545C245.247 52.2576 244.387 52.4091 243.372 52.4091ZM243.781 50C244.842 50 245.736 49.7917 246.463 49.375C247.198 48.9583 247.751 48.4205 248.122 47.7614C248.501 47.1023 248.69 46.4091 248.69 45.6818V43.2273C248.577 43.3636 248.327 43.4886 247.94 43.6023C247.562 43.7083 247.122 43.803 246.622 43.8864C246.13 43.9621 245.649 44.0303 245.179 44.0909C244.717 44.1439 244.342 44.1894 244.054 44.2273C243.357 44.3182 242.705 44.4659 242.099 44.6705C241.501 44.8674 241.016 45.1667 240.645 45.5682C240.281 45.9621 240.099 46.5 240.099 47.1818C240.099 48.1136 240.444 48.8182 241.134 49.2955C241.83 49.7652 242.713 50 243.781 50ZM265.631 52V28.7273H268.449V39.0909H280.858V28.7273H283.676V52H280.858V41.5909H268.449V52H265.631ZM288.955 52V34.5455H291.636V52H288.955ZM290.318 31.6364C289.795 31.6364 289.345 31.4583 288.966 31.1023C288.595 30.7462 288.409 30.3182 288.409 29.8182C288.409 29.3182 288.595 28.8902 288.966 28.5341C289.345 28.178 289.795 28 290.318 28C290.841 28 291.288 28.178 291.659 28.5341C292.038 28.8902 292.227 29.3182 292.227 29.8182C292.227 30.3182 292.038 30.7462 291.659 31.1023C291.288 31.4583 290.841 31.6364 290.318 31.6364ZM296.548 52V34.5455H299.23V52H296.548ZM297.912 31.6364C297.389 31.6364 296.938 31.4583 296.56 31.1023C296.188 30.7462 296.003 30.3182 296.003 29.8182C296.003 29.3182 296.188 28.8902 296.56 28.5341C296.938 28.178 297.389 28 297.912 28C298.435 28 298.882 28.178 299.253 28.5341C299.632 28.8902 299.821 29.3182 299.821 29.8182C299.821 30.3182 299.632 30.7462 299.253 31.1023C298.882 31.4583 298.435 31.6364 297.912 31.6364ZM306.097 52.1818C305.536 52.1818 305.055 51.9811 304.653 51.5795C304.252 51.178 304.051 50.697 304.051 50.1364C304.051 49.5758 304.252 49.0947 304.653 48.6932C305.055 48.2917 305.536 48.0909 306.097 48.0909C306.657 48.0909 307.138 48.2917 307.54 48.6932C307.941 49.0947 308.142 49.5758 308.142 50.1364C308.142 50.5076 308.047 50.8485 307.858 51.1591C307.676 51.4697 307.43 51.7197 307.119 51.9091C306.816 52.0909 306.475 52.1818 306.097 52.1818ZM314.909 52.1818C314.348 52.1818 313.867 51.9811 313.466 51.5795C313.064 51.178 312.864 50.697 312.864 50.1364C312.864 49.5758 313.064 49.0947 313.466 48.6932C313.867 48.2917 314.348 48.0909 314.909 48.0909C315.47 48.0909 315.951 48.2917 316.352 48.6932C316.754 49.0947 316.955 49.5758 316.955 50.1364C316.955 50.5076 316.86 50.8485 316.67 51.1591C316.489 51.4697 316.242 51.7197 315.932 51.9091C315.629 52.0909 315.288 52.1818 314.909 52.1818ZM323.722 52.1818C323.161 52.1818 322.68 51.9811 322.278 51.5795C321.877 51.178 321.676 50.697 321.676 50.1364C321.676 49.5758 321.877 49.0947 322.278 48.6932C322.68 48.2917 323.161 48.0909 323.722 48.0909C324.282 48.0909 324.763 48.2917 325.165 48.6932C325.566 49.0947 325.767 49.5758 325.767 50.1364C325.767 50.5076 325.672 50.8485 325.483 51.1591C325.301 51.4697 325.055 51.7197 324.744 51.9091C324.441 52.0909 324.1 52.1818 323.722 52.1818ZM339.58 52V34.5455H342.17V37.2727H342.398C342.761 36.3409 343.348 35.6174 344.159 35.1023C344.97 34.5795 345.943 34.3182 347.08 34.3182C348.231 34.3182 349.189 34.5795 349.955 35.1023C350.727 35.6174 351.33 36.3409 351.761 37.2727H351.943C352.39 36.3712 353.061 35.6553 353.955 35.125C354.848 34.5871 355.92 34.3182 357.17 34.3182C358.731 34.3182 360.008 34.8068 361 35.7841C361.992 36.7538 362.489 38.2652 362.489 40.3182V52H359.807V40.3182C359.807 39.0303 359.455 38.1098 358.75 37.5568C358.045 37.0038 357.216 36.7273 356.261 36.7273C355.034 36.7273 354.083 37.0985 353.409 37.8409C352.735 38.5758 352.398 39.5076 352.398 40.6364V52H349.67V40.0455C349.67 39.053 349.348 38.2538 348.705 37.6477C348.061 37.0341 347.231 36.7273 346.216 36.7273C345.519 36.7273 344.867 36.9129 344.261 37.2841C343.663 37.6553 343.178 38.1705 342.807 38.8295C342.443 39.4811 342.261 40.2348 342.261 41.0909V52H339.58ZM374.71 52.3636C373.028 52.3636 371.578 51.9924 370.358 51.25C369.146 50.5 368.21 49.4545 367.551 48.1136C366.9 46.7652 366.574 45.197 366.574 43.4091C366.574 41.6212 366.9 40.0455 367.551 38.6818C368.21 37.3106 369.127 36.2424 370.301 35.4773C371.483 34.7045 372.862 34.3182 374.438 34.3182C375.347 34.3182 376.244 34.4697 377.131 34.7727C378.017 35.0758 378.824 35.5682 379.551 36.25C380.278 36.9242 380.858 37.8182 381.29 38.9318C381.722 40.0455 381.938 41.4167 381.938 43.0455V44.1818H368.483V41.8636H379.21C379.21 40.8788 379.013 40 378.619 39.2273C378.233 38.4545 377.68 37.8447 376.96 37.3977C376.248 36.9508 375.407 36.7273 374.438 36.7273C373.369 36.7273 372.445 36.9924 371.665 37.5227C370.892 38.0455 370.297 38.7273 369.881 39.5682C369.464 40.4091 369.256 41.3106 369.256 42.2727V43.8182C369.256 45.1364 369.483 46.2538 369.938 47.1705C370.4 48.0795 371.04 48.7727 371.858 49.25C372.676 49.7197 373.627 49.9545 374.71 49.9545C375.415 49.9545 376.051 49.8561 376.619 49.6591C377.195 49.4545 377.691 49.1515 378.108 48.75C378.525 48.3409 378.847 47.8333 379.074 47.2273L381.665 47.9545C381.392 48.8333 380.934 49.6061 380.29 50.2727C379.646 50.9318 378.85 51.447 377.903 51.8182C376.956 52.1818 375.892 52.3636 374.71 52.3636ZM398.381 38.4545L395.972 39.1364C395.82 38.7348 395.597 38.3447 395.301 37.9659C395.013 37.5795 394.619 37.2614 394.119 37.0114C393.619 36.7614 392.979 36.6364 392.199 36.6364C391.131 36.6364 390.241 36.8826 389.528 37.375C388.824 37.8598 388.472 38.4773 388.472 39.2273C388.472 39.8939 388.714 40.4205 389.199 40.8068C389.684 41.1932 390.441 41.5152 391.472 41.7727L394.062 42.4091C395.623 42.7879 396.786 43.3674 397.551 44.1477C398.316 44.9205 398.699 45.9167 398.699 47.1364C398.699 48.1364 398.411 49.0303 397.835 49.8182C397.267 50.6061 396.472 51.2273 395.449 51.6818C394.426 52.1364 393.237 52.3636 391.881 52.3636C390.1 52.3636 388.627 51.9773 387.46 51.2045C386.294 50.4318 385.555 49.303 385.244 47.8182L387.79 47.1818C388.032 48.1212 388.491 48.8258 389.165 49.2955C389.847 49.7652 390.737 50 391.835 50C393.085 50 394.078 49.7348 394.812 49.2045C395.555 48.6667 395.926 48.0227 395.926 47.2727C395.926 46.6667 395.714 46.1591 395.29 45.75C394.866 45.3333 394.214 45.0227 393.335 44.8182L390.426 44.1364C388.828 43.7576 387.653 43.1705 386.903 42.375C386.161 41.572 385.79 40.5682 385.79 39.3636C385.79 38.3788 386.066 37.5076 386.619 36.75C387.18 35.9924 387.941 35.3977 388.903 34.9659C389.873 34.5341 390.972 34.3182 392.199 34.3182C393.926 34.3182 395.282 34.697 396.267 35.4545C397.259 36.2121 397.964 37.2121 398.381 38.4545ZM415.099 38.4545L412.69 39.1364C412.539 38.7348 412.315 38.3447 412.02 37.9659C411.732 37.5795 411.338 37.2614 410.838 37.0114C410.338 36.7614 409.698 36.6364 408.918 36.6364C407.849 36.6364 406.959 36.8826 406.247 37.375C405.543 37.8598 405.19 38.4773 405.19 39.2273C405.19 39.8939 405.433 40.4205 405.918 40.8068C406.402 41.1932 407.16 41.5152 408.19 41.7727L410.781 42.4091C412.342 42.7879 413.505 43.3674 414.27 44.1477C415.035 44.9205 415.418 45.9167 415.418 47.1364C415.418 48.1364 415.13 49.0303 414.554 49.8182C413.986 50.6061 413.19 51.2273 412.168 51.6818C411.145 52.1364 409.955 52.3636 408.599 52.3636C406.819 52.3636 405.346 51.9773 404.179 51.2045C403.012 50.4318 402.274 49.303 401.963 47.8182L404.509 47.1818C404.751 48.1212 405.209 48.8258 405.884 49.2955C406.565 49.7652 407.455 50 408.554 50C409.804 50 410.796 49.7348 411.531 49.2045C412.274 48.6667 412.645 48.0227 412.645 47.2727C412.645 46.6667 412.433 46.1591 412.009 45.75C411.584 45.3333 410.933 45.0227 410.054 44.8182L407.145 44.1364C405.546 43.7576 404.372 43.1705 403.622 42.375C402.88 41.572 402.509 40.5682 402.509 39.3636C402.509 38.3788 402.785 37.5076 403.338 36.75C403.899 35.9924 404.66 35.3977 405.622 34.9659C406.592 34.5341 407.69 34.3182 408.918 34.3182C410.645 34.3182 412.001 34.697 412.986 35.4545C413.978 36.2121 414.683 37.2121 415.099 38.4545ZM424.591 52.4091C423.485 52.4091 422.481 52.2008 421.58 51.7841C420.678 51.3598 419.962 50.75 419.432 49.9545C418.902 49.1515 418.636 48.1818 418.636 47.0455C418.636 46.0455 418.833 45.2348 419.227 44.6136C419.621 43.9848 420.148 43.4924 420.807 43.1364C421.466 42.7803 422.193 42.5152 422.989 42.3409C423.792 42.1591 424.598 42.0152 425.409 41.9091C426.47 41.7727 427.33 41.6705 427.989 41.6023C428.655 41.5265 429.14 41.4015 429.443 41.2273C429.754 41.053 429.909 40.75 429.909 40.3182V40.2273C429.909 39.1061 429.602 38.2348 428.989 37.6136C428.383 36.9924 427.462 36.6818 426.227 36.6818C424.947 36.6818 423.943 36.9621 423.216 37.5227C422.489 38.0833 421.977 38.6818 421.682 39.3182L419.136 38.4091C419.591 37.3485 420.197 36.5227 420.955 35.9318C421.72 35.3333 422.553 34.9167 423.455 34.6818C424.364 34.4394 425.258 34.3182 426.136 34.3182C426.697 34.3182 427.341 34.3864 428.068 34.5227C428.803 34.6515 429.511 34.9205 430.193 35.3295C430.883 35.7386 431.455 36.3561 431.909 37.1818C432.364 38.0076 432.591 39.1136 432.591 40.5V52H429.909V49.6364H429.773C429.591 50.0152 429.288 50.4205 428.864 50.8523C428.439 51.2841 427.875 51.6515 427.17 51.9545C426.466 52.2576 425.606 52.4091 424.591 52.4091ZM425 50C426.061 50 426.955 49.7917 427.682 49.375C428.417 48.9583 428.97 48.4205 429.341 47.7614C429.72 47.1023 429.909 46.4091 429.909 45.6818V43.2273C429.795 43.3636 429.545 43.4886 429.159 43.6023C428.78 43.7083 428.341 43.803 427.841 43.8864C427.348 43.9621 426.867 44.0303 426.398 44.0909C425.936 44.1439 425.561 44.1894 425.273 44.2273C424.576 44.3182 423.924 44.4659 423.318 44.6705C422.72 44.8674 422.235 45.1667 421.864 45.5682C421.5 45.9621 421.318 46.5 421.318 47.1818C421.318 48.1136 421.663 48.8182 422.352 49.2955C423.049 49.7652 423.932 50 425 50ZM444.531 58.9091C443.236 58.9091 442.122 58.7424 441.19 58.4091C440.259 58.0833 439.482 57.6515 438.861 57.1136C438.247 56.5833 437.759 56.0152 437.395 55.4091L439.531 53.9091C439.774 54.2273 440.08 54.5909 440.452 55C440.823 55.4167 441.33 55.7765 441.974 56.0795C442.626 56.3902 443.478 56.5455 444.531 56.5455C445.94 56.5455 447.103 56.2045 448.02 55.5227C448.937 54.8409 449.395 53.7727 449.395 52.3182V48.7727H449.168C448.971 49.0909 448.69 49.4848 448.327 49.9545C447.971 50.4167 447.455 50.8295 446.781 51.1932C446.115 51.5492 445.213 51.7273 444.077 51.7273C442.668 51.7273 441.402 51.3939 440.281 50.7273C439.168 50.0606 438.285 49.0909 437.634 47.8182C436.99 46.5455 436.668 45 436.668 43.1818C436.668 41.3939 436.982 39.8371 437.611 38.5114C438.24 37.178 439.115 36.1477 440.236 35.4205C441.357 34.6856 442.652 34.3182 444.122 34.3182C445.259 34.3182 446.16 34.5076 446.827 34.8864C447.501 35.2576 448.016 35.6818 448.372 36.1591C448.736 36.6288 449.016 37.0152 449.213 37.3182H449.486V34.5455H452.077V52.5C452.077 54 451.736 55.2197 451.054 56.1591C450.38 57.1061 449.471 57.7992 448.327 58.2386C447.19 58.6856 445.925 58.9091 444.531 58.9091ZM444.44 49.3182C445.516 49.3182 446.425 49.072 447.168 48.5795C447.91 48.0871 448.474 47.3788 448.861 46.4545C449.247 45.5303 449.44 44.4242 449.44 43.1364C449.44 41.8788 449.251 40.7689 448.872 39.8068C448.493 38.8447 447.933 38.0909 447.19 37.5455C446.448 37 445.531 36.7273 444.44 36.7273C443.304 36.7273 442.357 37.0152 441.599 37.5909C440.849 38.1667 440.285 38.9394 439.906 39.9091C439.535 40.8788 439.349 41.9545 439.349 43.1364C439.349 44.3485 439.539 45.4205 439.918 46.3523C440.304 47.2765 440.872 48.0038 441.622 48.5341C442.38 49.0568 443.319 49.3182 444.44 49.3182ZM464.304 52.3636C462.622 52.3636 461.171 51.9924 459.952 51.25C458.74 50.5 457.804 49.4545 457.145 48.1136C456.493 46.7652 456.168 45.197 456.168 43.4091C456.168 41.6212 456.493 40.0455 457.145 38.6818C457.804 37.3106 458.721 36.2424 459.895 35.4773C461.077 34.7045 462.455 34.3182 464.031 34.3182C464.94 34.3182 465.838 34.4697 466.724 34.7727C467.611 35.0758 468.418 35.5682 469.145 36.25C469.872 36.9242 470.452 37.8182 470.884 38.9318C471.315 40.0455 471.531 41.4167 471.531 43.0455V44.1818H458.077V41.8636H468.804C468.804 40.8788 468.607 40 468.213 39.2273C467.827 38.4545 467.274 37.8447 466.554 37.3977C465.842 36.9508 465.001 36.7273 464.031 36.7273C462.963 36.7273 462.039 36.9924 461.259 37.5227C460.486 38.0455 459.891 38.7273 459.474 39.5682C459.058 40.4091 458.849 41.3106 458.849 42.2727V43.8182C458.849 45.1364 459.077 46.2538 459.531 47.1705C459.993 48.0795 460.634 48.7727 461.452 49.25C462.27 49.7197 463.221 49.9545 464.304 49.9545C465.009 49.9545 465.645 49.8561 466.213 49.6591C466.789 49.4545 467.285 49.1515 467.702 48.75C468.118 48.3409 468.44 47.8333 468.668 47.2273L471.259 47.9545C470.986 48.8333 470.527 49.6061 469.884 50.2727C469.24 50.9318 468.444 51.447 467.497 51.8182C466.55 52.1818 465.486 52.3636 464.304 52.3636ZM492.202 34.5455V36.8182H483.156V34.5455H492.202ZM485.793 30.3636H488.474V47C488.474 47.7576 488.584 48.3258 488.804 48.7045C489.031 49.0758 489.319 49.3258 489.668 49.4545C490.024 49.5758 490.399 49.6364 490.793 49.6364C491.088 49.6364 491.33 49.6212 491.52 49.5909C491.709 49.553 491.861 49.5227 491.974 49.5L492.52 51.9091C492.338 51.9773 492.084 52.0455 491.759 52.1136C491.433 52.1894 491.02 52.2273 490.52 52.2273C489.762 52.2273 489.02 52.0644 488.293 51.7386C487.573 51.4129 486.974 50.9167 486.497 50.25C486.027 49.5833 485.793 48.7424 485.793 47.7273V30.3636ZM503.139 52.3636C501.563 52.3636 500.181 51.9886 498.991 51.2386C497.81 50.4886 496.885 49.4394 496.219 48.0909C495.56 46.7424 495.23 45.1667 495.23 43.3636C495.23 41.5455 495.56 39.9583 496.219 38.6023C496.885 37.2462 497.81 36.1932 498.991 35.4432C500.181 34.6932 501.563 34.3182 503.139 34.3182C504.715 34.3182 506.094 34.6932 507.276 35.4432C508.465 36.1932 509.389 37.2462 510.048 38.6023C510.715 39.9583 511.048 41.5455 511.048 43.3636C511.048 45.1667 510.715 46.7424 510.048 48.0909C509.389 49.4394 508.465 50.4886 507.276 51.2386C506.094 51.9886 504.715 52.3636 503.139 52.3636ZM503.139 49.9545C504.336 49.9545 505.321 49.6477 506.094 49.0341C506.866 48.4205 507.438 47.6136 507.81 46.6136C508.181 45.6136 508.366 44.5303 508.366 43.3636C508.366 42.197 508.181 41.1098 507.81 40.1023C507.438 39.0947 506.866 38.2803 506.094 37.6591C505.321 37.0379 504.336 36.7273 503.139 36.7273C501.942 36.7273 500.957 37.0379 500.185 37.6591C499.412 38.2803 498.84 39.0947 498.469 40.1023C498.098 41.1098 497.912 42.197 497.912 43.3636C497.912 44.5303 498.098 45.6136 498.469 46.6136C498.84 47.6136 499.412 48.4205 500.185 49.0341C500.957 49.6477 501.942 49.9545 503.139 49.9545ZM797.483 34.5455V36.8182H788.438V34.5455H797.483ZM791.074 30.3636H793.756V47C793.756 47.7576 793.866 48.3258 794.085 48.7045C794.313 49.0758 794.6 49.3258 794.949 49.4545C795.305 49.5758 795.68 49.6364 796.074 49.6364C796.369 49.6364 796.612 49.6212 796.801 49.5909C796.991 49.553 797.142 49.5227 797.256 49.5L797.801 51.9091C797.619 51.9773 797.366 52.0455 797.04 52.1136C796.714 52.1894 796.301 52.2273 795.801 52.2273C795.044 52.2273 794.301 52.0644 793.574 51.7386C792.854 51.4129 792.256 50.9167 791.778 50.25C791.309 49.5833 791.074 48.7424 791.074 47.7273V30.3636ZM808.42 52.3636C806.845 52.3636 805.462 51.9886 804.273 51.2386C803.091 50.4886 802.167 49.4394 801.5 48.0909C800.841 46.7424 800.511 45.1667 800.511 43.3636C800.511 41.5455 800.841 39.9583 801.5 38.6023C802.167 37.2462 803.091 36.1932 804.273 35.4432C805.462 34.6932 806.845 34.3182 808.42 34.3182C809.996 34.3182 811.375 34.6932 812.557 35.4432C813.746 36.1932 814.67 37.2462 815.33 38.6023C815.996 39.9583 816.33 41.5455 816.33 43.3636C816.33 45.1667 815.996 46.7424 815.33 48.0909C814.67 49.4394 813.746 50.4886 812.557 51.2386C811.375 51.9886 809.996 52.3636 808.42 52.3636ZM808.42 49.9545C809.617 49.9545 810.602 49.6477 811.375 49.0341C812.148 48.4205 812.72 47.6136 813.091 46.6136C813.462 45.6136 813.648 44.5303 813.648 43.3636C813.648 42.197 813.462 41.1098 813.091 40.1023C812.72 39.0947 812.148 38.2803 811.375 37.6591C810.602 37.0379 809.617 36.7273 808.42 36.7273C807.223 36.7273 806.239 37.0379 805.466 37.6591C804.693 38.2803 804.121 39.0947 803.75 40.1023C803.379 41.1098 803.193 42.197 803.193 43.3636C803.193 44.5303 803.379 45.6136 803.75 46.6136C804.121 47.6136 804.693 48.4205 805.466 49.0341C806.239 49.6477 807.223 49.9545 808.42 49.9545ZM836.469 58.9091C835.173 58.9091 834.06 58.7424 833.128 58.4091C832.196 58.0833 831.42 57.6515 830.798 57.1136C830.185 56.5833 829.696 56.0152 829.332 55.4091L831.469 53.9091C831.711 54.2273 832.018 54.5909 832.389 55C832.76 55.4167 833.268 55.7765 833.912 56.0795C834.563 56.3902 835.416 56.5455 836.469 56.5455C837.878 56.5455 839.041 56.2045 839.957 55.5227C840.874 54.8409 841.332 53.7727 841.332 52.3182V48.7727H841.105C840.908 49.0909 840.628 49.4848 840.264 49.9545C839.908 50.4167 839.393 50.8295 838.719 51.1932C838.052 51.5492 837.151 51.7273 836.014 51.7273C834.605 51.7273 833.34 51.3939 832.219 50.7273C831.105 50.0606 830.223 49.0909 829.571 47.8182C828.927 46.5455 828.605 45 828.605 43.1818C828.605 41.3939 828.92 39.8371 829.548 38.5114C830.177 37.178 831.052 36.1477 832.173 35.4205C833.295 34.6856 834.59 34.3182 836.06 34.3182C837.196 34.3182 838.098 34.5076 838.764 34.8864C839.438 35.2576 839.954 35.6818 840.31 36.1591C840.673 36.6288 840.954 37.0152 841.151 37.3182H841.423V34.5455H844.014V52.5C844.014 54 843.673 55.2197 842.991 56.1591C842.317 57.1061 841.408 57.7992 840.264 58.2386C839.128 58.6856 837.863 58.9091 836.469 58.9091ZM836.378 49.3182C837.454 49.3182 838.363 49.072 839.105 48.5795C839.848 48.0871 840.412 47.3788 840.798 46.4545C841.185 45.5303 841.378 44.4242 841.378 43.1364C841.378 41.8788 841.188 40.7689 840.81 39.8068C840.431 38.8447 839.87 38.0909 839.128 37.5455C838.385 37 837.469 36.7273 836.378 36.7273C835.241 36.7273 834.295 37.0152 833.537 37.5909C832.787 38.1667 832.223 38.9394 831.844 39.9091C831.473 40.8788 831.287 41.9545 831.287 43.1364C831.287 44.3485 831.476 45.4205 831.855 46.3523C832.241 47.2765 832.81 48.0038 833.56 48.5341C834.317 49.0568 835.257 49.3182 836.378 49.3182ZM856.241 52.3636C854.56 52.3636 853.109 51.9924 851.889 51.25C850.677 50.5 849.741 49.4545 849.082 48.1136C848.431 46.7652 848.105 45.197 848.105 43.4091C848.105 41.6212 848.431 40.0455 849.082 38.6818C849.741 37.3106 850.658 36.2424 851.832 35.4773C853.014 34.7045 854.393 34.3182 855.969 34.3182C856.878 34.3182 857.776 34.4697 858.662 34.7727C859.548 35.0758 860.355 35.5682 861.082 36.25C861.81 36.9242 862.389 37.8182 862.821 38.9318C863.253 40.0455 863.469 41.4167 863.469 43.0455V44.1818H850.014V41.8636H860.741C860.741 40.8788 860.545 40 860.151 39.2273C859.764 38.4545 859.211 37.8447 858.491 37.3977C857.779 36.9508 856.938 36.7273 855.969 36.7273C854.901 36.7273 853.976 36.9924 853.196 37.5227C852.423 38.0455 851.829 38.7273 851.412 39.5682C850.995 40.4091 850.787 41.3106 850.787 42.2727V43.8182C850.787 45.1364 851.014 46.2538 851.469 47.1705C851.931 48.0795 852.571 48.7727 853.389 49.25C854.207 49.7197 855.158 49.9545 856.241 49.9545C856.946 49.9545 857.582 49.8561 858.151 49.6591C858.726 49.4545 859.223 49.1515 859.639 48.75C860.056 48.3409 860.378 47.8333 860.605 47.2273L863.196 47.9545C862.923 48.8333 862.465 49.6061 861.821 50.2727C861.177 50.9318 860.382 51.447 859.435 51.8182C858.488 52.1818 857.423 52.3636 856.241 52.3636ZM875.139 34.5455V36.8182H866.094V34.5455H875.139ZM868.73 30.3636H871.412V47C871.412 47.7576 871.522 48.3258 871.741 48.7045C871.969 49.0758 872.257 49.3258 872.605 49.4545C872.961 49.5758 873.336 49.6364 873.73 49.6364C874.026 49.6364 874.268 49.6212 874.457 49.5909C874.647 49.553 874.798 49.5227 874.912 49.5L875.457 51.9091C875.276 51.9773 875.022 52.0455 874.696 52.1136C874.37 52.1894 873.957 52.2273 873.457 52.2273C872.7 52.2273 871.957 52.0644 871.23 51.7386C870.51 51.4129 869.912 50.9167 869.435 50.25C868.965 49.5833 868.73 48.7424 868.73 47.7273V30.3636ZM890.855 41.5V52H888.173V28.7273H890.855V37.2727H891.082C891.491 36.3712 892.105 35.6553 892.923 35.125C893.749 34.5871 894.848 34.3182 896.219 34.3182C897.408 34.3182 898.45 34.5568 899.344 35.0341C900.238 35.5038 900.931 36.2273 901.423 37.2045C901.923 38.1742 902.173 39.4091 902.173 40.9091V52H899.491V41.0909C899.491 39.7045 899.132 38.6326 898.412 37.875C897.7 37.1098 896.711 36.7273 895.446 36.7273C894.567 36.7273 893.779 36.9129 893.082 37.2841C892.393 37.6553 891.848 38.197 891.446 38.9091C891.052 39.6212 890.855 40.4848 890.855 41.5ZM914.398 52.3636C912.716 52.3636 911.265 51.9924 910.045 51.25C908.833 50.5 907.898 49.4545 907.239 48.1136C906.587 46.7652 906.261 45.197 906.261 43.4091C906.261 41.6212 906.587 40.0455 907.239 38.6818C907.898 37.3106 908.814 36.2424 909.989 35.4773C911.17 34.7045 912.549 34.3182 914.125 34.3182C915.034 34.3182 915.932 34.4697 916.818 34.7727C917.705 35.0758 918.511 35.5682 919.239 36.25C919.966 36.9242 920.545 37.8182 920.977 38.9318C921.409 40.0455 921.625 41.4167 921.625 43.0455V44.1818H908.17V41.8636H918.898C918.898 40.8788 918.701 40 918.307 39.2273C917.92 38.4545 917.367 37.8447 916.648 37.3977C915.936 36.9508 915.095 36.7273 914.125 36.7273C913.057 36.7273 912.133 36.9924 911.352 37.5227C910.58 38.0455 909.985 38.7273 909.568 39.5682C909.152 40.4091 908.943 41.3106 908.943 42.2727V43.8182C908.943 45.1364 909.17 46.2538 909.625 47.1705C910.087 48.0795 910.727 48.7727 911.545 49.25C912.364 49.7197 913.314 49.9545 914.398 49.9545C915.102 49.9545 915.739 49.8561 916.307 49.6591C916.883 49.4545 917.379 49.1515 917.795 48.75C918.212 48.3409 918.534 47.8333 918.761 47.2273L921.352 47.9545C921.08 48.8333 920.621 49.6061 919.977 50.2727C919.333 50.9318 918.538 51.447 917.591 51.8182C916.644 52.1818 915.58 52.3636 914.398 52.3636ZM928.386 28.7273V52H925.705V28.7273H928.386ZM933.298 58.5455V34.5455H935.889V37.3182H936.207C936.404 37.0152 936.677 36.6288 937.026 36.1591C937.382 35.6818 937.889 35.2576 938.548 34.8864C939.215 34.5076 940.116 34.3182 941.253 34.3182C942.723 34.3182 944.018 34.6856 945.139 35.4205C946.26 36.1553 947.135 37.197 947.764 38.5455C948.393 39.8939 948.707 41.4848 948.707 43.3182C948.707 45.1667 948.393 46.7689 947.764 48.125C947.135 49.4735 946.264 50.5189 945.151 51.2614C944.037 51.9962 942.753 52.3636 941.298 52.3636C940.177 52.3636 939.279 52.178 938.605 51.8068C937.931 51.428 937.412 51 937.048 50.5227C936.685 50.0379 936.404 49.6364 936.207 49.3182H935.98V58.5455H933.298ZM935.935 43.2727C935.935 44.5909 936.128 45.7538 936.514 46.7614C936.901 47.7614 937.465 48.5455 938.207 49.1136C938.95 49.6742 939.859 49.9545 940.935 49.9545C942.056 49.9545 942.991 49.6591 943.741 49.0682C944.499 48.4697 945.067 47.6667 945.446 46.6591C945.832 45.6439 946.026 44.5152 946.026 43.2727C946.026 42.0455 945.836 40.9394 945.457 39.9545C945.086 38.9621 944.522 38.178 943.764 37.6023C943.014 37.0189 942.071 36.7273 940.935 36.7273C939.844 36.7273 938.927 37.0038 938.185 37.5568C937.442 38.1023 936.882 38.8674 936.503 39.8523C936.124 40.8295 935.935 41.9697 935.935 43.2727ZM965.753 52L960.435 34.5455H963.253L967.026 47.9091H967.207L970.935 34.5455H973.798L977.48 47.8636H977.662L981.435 34.5455H984.253L978.935 52H976.298L972.48 38.5909H972.207L968.389 52H965.753ZM987.798 52V34.5455H990.48V52H987.798ZM989.162 31.6364C988.639 31.6364 988.188 31.4583 987.81 31.1023C987.438 30.7462 987.253 30.3182 987.253 29.8182C987.253 29.3182 987.438 28.8902 987.81 28.5341C988.188 28.178 988.639 28 989.162 28C989.685 28 990.132 28.178 990.503 28.5341C990.882 28.8902 991.071 29.3182 991.071 29.8182C991.071 30.3182 990.882 30.7462 990.503 31.1023C990.132 31.4583 989.685 31.6364 989.162 31.6364ZM1002.98 34.5455V36.8182H993.938V34.5455H1002.98ZM996.574 30.3636H999.256V47C999.256 47.7576 999.366 48.3258 999.585 48.7045C999.813 49.0758 1000.1 49.3258 1000.45 49.4545C1000.8 49.5758 1001.18 49.6364 1001.57 49.6364C1001.87 49.6364 1002.11 49.6212 1002.3 49.5909C1002.49 49.553 1002.64 49.5227 1002.76 49.5L1003.3 51.9091C1003.12 51.9773 1002.87 52.0455 1002.54 52.1136C1002.21 52.1894 1001.8 52.2273 1001.3 52.2273C1000.54 52.2273 999.801 52.0644 999.074 51.7386C998.354 51.4129 997.756 50.9167 997.278 50.25C996.809 49.5833 996.574 48.7424 996.574 47.7273V30.3636ZM1010.07 41.5V52H1007.39V28.7273H1010.07V37.2727H1010.3C1010.71 36.3712 1011.32 35.6553 1012.14 35.125C1012.97 34.5871 1014.07 34.3182 1015.44 34.3182C1016.63 34.3182 1017.67 34.5568 1018.56 35.0341C1019.46 35.5038 1020.15 36.2273 1020.64 37.2045C1021.14 38.1742 1021.39 39.4091 1021.39 40.9091V52H1018.71V41.0909C1018.71 39.7045 1018.35 38.6326 1017.63 37.875C1016.92 37.1098 1015.93 36.7273 1014.66 36.7273C1013.79 36.7273 1013 36.9129 1012.3 37.2841C1011.61 37.6553 1011.07 38.197 1010.66 38.9091C1010.27 39.6212 1010.07 40.4848 1010.07 41.5ZM1037.03 58.5455C1036.57 58.5455 1036.17 58.5076 1035.81 58.4318C1035.45 58.3636 1035.21 58.2955 1035.07 58.2273L1035.75 55.8636C1036.4 56.0303 1036.98 56.0909 1037.48 56.0455C1037.98 56 1038.42 55.7765 1038.81 55.375C1039.2 54.9811 1039.56 54.3409 1039.89 53.4545L1040.39 52.0909L1033.93 34.5455H1036.84L1041.66 48.4545H1041.84L1046.66 34.5455H1049.57L1042.16 54.5455C1041.83 55.447 1041.42 56.1932 1040.92 56.7841C1040.43 57.3826 1039.86 57.8258 1039.21 58.1136C1038.56 58.4015 1037.84 58.5455 1037.03 58.5455ZM1059.58 52.3636C1058 52.3636 1056.62 51.9886 1055.43 51.2386C1054.25 50.4886 1053.32 49.4394 1052.66 48.0909C1052 46.7424 1051.67 45.1667 1051.67 43.3636C1051.67 41.5455 1052 39.9583 1052.66 38.6023C1053.32 37.2462 1054.25 36.1932 1055.43 35.4432C1056.62 34.6932 1058 34.3182 1059.58 34.3182C1061.15 34.3182 1062.53 34.6932 1063.71 35.4432C1064.9 36.1932 1065.83 37.2462 1066.49 38.6023C1067.15 39.9583 1067.49 41.5455 1067.49 43.3636C1067.49 45.1667 1067.15 46.7424 1066.49 48.0909C1065.83 49.4394 1064.9 50.4886 1063.71 51.2386C1062.53 51.9886 1061.15 52.3636 1059.58 52.3636ZM1059.58 49.9545C1060.77 49.9545 1061.76 49.6477 1062.53 49.0341C1063.3 48.4205 1063.88 47.6136 1064.25 46.6136C1064.62 45.6136 1064.8 44.5303 1064.8 43.3636C1064.8 42.197 1064.62 41.1098 1064.25 40.1023C1063.88 39.0947 1063.3 38.2803 1062.53 37.6591C1061.76 37.0379 1060.77 36.7273 1059.58 36.7273C1058.38 36.7273 1057.39 37.0379 1056.62 37.6591C1055.85 38.2803 1055.28 39.0947 1054.91 40.1023C1054.54 41.1098 1054.35 42.197 1054.35 43.3636C1054.35 44.5303 1054.54 45.6136 1054.91 46.6136C1055.28 47.6136 1055.85 48.4205 1056.62 49.0341C1057.39 49.6477 1058.38 49.9545 1059.58 49.9545ZM1082.58 44.8636V34.5455H1085.26V52H1082.58V49.0455H1082.4C1081.99 49.9318 1081.35 50.6856 1080.49 51.3068C1079.63 51.9205 1078.53 52.2273 1077.22 52.2273C1076.12 52.2273 1075.16 51.9886 1074.31 51.5114C1073.46 51.0265 1072.79 50.2992 1072.31 49.3295C1071.82 48.3523 1071.58 47.1212 1071.58 45.6364V34.5455H1074.26V45.4545C1074.26 46.7273 1074.62 47.7424 1075.33 48.5C1076.05 49.2576 1076.97 49.6364 1078.08 49.6364C1078.75 49.6364 1079.42 49.4659 1080.11 49.125C1080.81 48.7841 1081.39 48.2614 1081.86 47.5568C1082.34 46.8523 1082.58 45.9545 1082.58 44.8636ZM1090.17 52V34.5455H1092.76V37.1818H1092.95C1093.26 36.3182 1093.84 35.6174 1094.67 35.0795C1095.51 34.5417 1096.45 34.2727 1097.49 34.2727C1097.69 34.2727 1097.93 34.2765 1098.23 34.2841C1098.53 34.2917 1098.75 34.303 1098.9 34.3182V37.0455C1098.81 37.0227 1098.6 36.9886 1098.28 36.9432C1097.96 36.8902 1097.62 36.8636 1097.26 36.8636C1096.42 36.8636 1095.66 37.0417 1094.99 37.3977C1094.33 37.7462 1093.81 38.2311 1093.42 38.8523C1093.04 39.4659 1092.86 40.1667 1092.86 40.9545V52H1090.17ZM1111.08 58.5455V34.5455H1113.67V37.3182H1113.99C1114.19 37.0152 1114.46 36.6288 1114.81 36.1591C1115.16 35.6818 1115.67 35.2576 1116.33 34.8864C1117 34.5076 1117.9 34.3182 1119.03 34.3182C1120.5 34.3182 1121.8 34.6856 1122.92 35.4205C1124.04 36.1553 1124.92 37.197 1125.55 38.5455C1126.17 39.8939 1126.49 41.4848 1126.49 43.3182C1126.49 45.1667 1126.17 46.7689 1125.55 48.125C1124.92 49.4735 1124.05 50.5189 1122.93 51.2614C1121.82 51.9962 1120.53 52.3636 1119.08 52.3636C1117.96 52.3636 1117.06 52.178 1116.39 51.8068C1115.71 51.428 1115.19 51 1114.83 50.5227C1114.47 50.0379 1114.19 49.6364 1113.99 49.3182H1113.76V58.5455H1111.08ZM1113.72 43.2727C1113.72 44.5909 1113.91 45.7538 1114.3 46.7614C1114.68 47.7614 1115.25 48.5455 1115.99 49.1136C1116.73 49.6742 1117.64 49.9545 1118.72 49.9545C1119.84 49.9545 1120.77 49.6591 1121.52 49.0682C1122.28 48.4697 1122.85 47.6667 1123.23 46.6591C1123.61 45.6439 1123.81 44.5152 1123.81 43.2727C1123.81 42.0455 1123.62 40.9394 1123.24 39.9545C1122.87 38.9621 1122.3 38.178 1121.55 37.6023C1120.8 37.0189 1119.85 36.7273 1118.72 36.7273C1117.63 36.7273 1116.71 37.0038 1115.97 37.5568C1115.22 38.1023 1114.66 38.8674 1114.28 39.8523C1113.91 40.8295 1113.72 41.9697 1113.72 43.2727ZM1130.58 52V34.5455H1133.17V37.1818H1133.35C1133.67 36.3182 1134.25 35.6174 1135.08 35.0795C1135.91 34.5417 1136.85 34.2727 1137.9 34.2727C1138.09 34.2727 1138.34 34.2765 1138.64 34.2841C1138.93 34.2917 1139.16 34.303 1139.31 34.3182V37.0455C1139.22 37.0227 1139.01 36.9886 1138.68 36.9432C1138.36 36.8902 1138.03 36.8636 1137.67 36.8636C1136.82 36.8636 1136.06 37.0417 1135.4 37.3977C1134.74 37.7462 1134.22 38.2311 1133.83 38.8523C1133.45 39.4659 1133.26 40.1667 1133.26 40.9545V52H1130.58ZM1149.05 52.3636C1147.47 52.3636 1146.09 51.9886 1144.9 51.2386C1143.72 50.4886 1142.79 49.4394 1142.12 48.0909C1141.47 46.7424 1141.14 45.1667 1141.14 43.3636C1141.14 41.5455 1141.47 39.9583 1142.12 38.6023C1142.79 37.2462 1143.72 36.1932 1144.9 35.4432C1146.09 34.6932 1147.47 34.3182 1149.05 34.3182C1150.62 34.3182 1152 34.6932 1153.18 35.4432C1154.37 36.1932 1155.3 37.2462 1155.95 38.6023C1156.62 39.9583 1156.95 41.5455 1156.95 43.3636C1156.95 45.1667 1156.62 46.7424 1155.95 48.0909C1155.3 49.4394 1154.37 50.4886 1153.18 51.2386C1152 51.9886 1150.62 52.3636 1149.05 52.3636ZM1149.05 49.9545C1150.24 49.9545 1151.23 49.6477 1152 49.0341C1152.77 48.4205 1153.34 47.6136 1153.72 46.6136C1154.09 45.6136 1154.27 44.5303 1154.27 43.3636C1154.27 42.197 1154.09 41.1098 1153.72 40.1023C1153.34 39.0947 1152.77 38.2803 1152 37.6591C1151.23 37.0379 1150.24 36.7273 1149.05 36.7273C1147.85 36.7273 1146.86 37.0379 1146.09 37.6591C1145.32 38.2803 1144.75 39.0947 1144.38 40.1023C1144 41.1098 1143.82 42.197 1143.82 43.3636C1143.82 44.5303 1144 45.6136 1144.38 46.6136C1144.75 47.6136 1145.32 48.4205 1146.09 49.0341C1146.86 49.6477 1147.85 49.9545 1149.05 49.9545ZM1161.05 58.5455V34.5455H1163.64V37.3182H1163.96C1164.15 37.0152 1164.43 36.6288 1164.78 36.1591C1165.13 35.6818 1165.64 35.2576 1166.3 34.8864C1166.96 34.5076 1167.87 34.3182 1169 34.3182C1170.47 34.3182 1171.77 34.6856 1172.89 35.4205C1174.01 36.1553 1174.89 37.197 1175.51 38.5455C1176.14 39.8939 1176.46 41.4848 1176.46 43.3182C1176.46 45.1667 1176.14 46.7689 1175.51 48.125C1174.89 49.4735 1174.01 50.5189 1172.9 51.2614C1171.79 51.9962 1170.5 52.3636 1169.05 52.3636C1167.93 52.3636 1167.03 52.178 1166.36 51.8068C1165.68 51.428 1165.16 51 1164.8 50.5227C1164.43 50.0379 1164.15 49.6364 1163.96 49.3182H1163.73V58.5455H1161.05ZM1163.68 43.2727C1163.68 44.5909 1163.88 45.7538 1164.26 46.7614C1164.65 47.7614 1165.21 48.5455 1165.96 49.1136C1166.7 49.6742 1167.61 49.9545 1168.68 49.9545C1169.81 49.9545 1170.74 49.6591 1171.49 49.0682C1172.25 48.4697 1172.82 47.6667 1173.2 46.6591C1173.58 45.6439 1173.78 44.5152 1173.78 43.2727C1173.78 42.0455 1173.59 40.9394 1173.21 39.9545C1172.84 38.9621 1172.27 38.178 1171.51 37.6023C1170.76 37.0189 1169.82 36.7273 1168.68 36.7273C1167.59 36.7273 1166.68 37.0038 1165.93 37.5568C1165.19 38.1023 1164.63 38.8674 1164.25 39.8523C1163.87 40.8295 1163.68 41.9697 1163.68 43.2727ZM1187.87 52.3636C1186.18 52.3636 1184.73 51.9924 1183.51 51.25C1182.3 50.5 1181.37 49.4545 1180.71 48.1136C1180.06 46.7652 1179.73 45.197 1179.73 43.4091C1179.73 41.6212 1180.06 40.0455 1180.71 38.6818C1181.37 37.3106 1182.28 36.2424 1183.46 35.4773C1184.64 34.7045 1186.02 34.3182 1187.59 34.3182C1188.5 34.3182 1189.4 34.4697 1190.29 34.7727C1191.17 35.0758 1191.98 35.5682 1192.71 36.25C1193.43 36.9242 1194.01 37.8182 1194.45 38.9318C1194.88 40.0455 1195.09 41.4167 1195.09 43.0455V44.1818H1181.64V41.8636H1192.37C1192.37 40.8788 1192.17 40 1191.78 39.2273C1191.39 38.4545 1190.84 37.8447 1190.12 37.3977C1189.4 36.9508 1188.56 36.7273 1187.59 36.7273C1186.53 36.7273 1185.6 36.9924 1184.82 37.5227C1184.05 38.0455 1183.45 38.7273 1183.04 39.5682C1182.62 40.4091 1182.41 41.3106 1182.41 42.2727V43.8182C1182.41 45.1364 1182.64 46.2538 1183.09 47.1705C1183.56 48.0795 1184.2 48.7727 1185.01 49.25C1185.83 49.7197 1186.78 49.9545 1187.87 49.9545C1188.57 49.9545 1189.21 49.8561 1189.78 49.6591C1190.35 49.4545 1190.85 49.1515 1191.26 48.75C1191.68 48.3409 1192 47.8333 1192.23 47.2273L1194.82 47.9545C1194.55 48.8333 1194.09 49.6061 1193.45 50.2727C1192.8 50.9318 1192.01 51.447 1191.06 51.8182C1190.11 52.1818 1189.05 52.3636 1187.87 52.3636ZM1199.17 52V34.5455H1201.76V37.1818H1201.95C1202.26 36.3182 1202.84 35.6174 1203.67 35.0795C1204.51 34.5417 1205.45 34.2727 1206.49 34.2727C1206.69 34.2727 1206.93 34.2765 1207.23 34.2841C1207.53 34.2917 1207.75 34.303 1207.9 34.3182V37.0455C1207.81 37.0227 1207.6 36.9886 1207.28 36.9432C1206.96 36.8902 1206.62 36.8636 1206.26 36.8636C1205.42 36.8636 1204.66 37.0417 1203.99 37.3977C1203.33 37.7462 1202.81 38.2311 1202.42 38.8523C1202.04 39.4659 1201.86 40.1667 1201.86 40.9545V52H1199.17ZM1219.76 34.5455V36.8182H1210.72V34.5455H1219.76ZM1213.36 30.3636H1216.04V47C1216.04 47.7576 1216.15 48.3258 1216.37 48.7045C1216.59 49.0758 1216.88 49.3258 1217.23 49.4545C1217.59 49.5758 1217.96 49.6364 1218.36 49.6364C1218.65 49.6364 1218.89 49.6212 1219.08 49.5909C1219.27 49.553 1219.42 49.5227 1219.54 49.5L1220.08 51.9091C1219.9 51.9773 1219.65 52.0455 1219.32 52.1136C1219 52.1894 1218.58 52.2273 1218.08 52.2273C1217.32 52.2273 1216.58 52.0644 1215.86 51.7386C1215.14 51.4129 1214.54 50.9167 1214.06 50.25C1213.59 49.5833 1213.36 48.7424 1213.36 47.7273V30.3636ZM1225.53 58.5455C1225.07 58.5455 1224.67 58.5076 1224.31 58.4318C1223.95 58.3636 1223.71 58.2955 1223.57 58.2273L1224.25 55.8636C1224.9 56.0303 1225.48 56.0909 1225.98 56.0455C1226.48 56 1226.92 55.7765 1227.31 55.375C1227.7 54.9811 1228.06 54.3409 1228.39 53.4545L1228.89 52.0909L1222.43 34.5455H1225.34L1230.16 48.4545H1230.34L1235.16 34.5455H1238.07L1230.66 54.5455C1230.33 55.447 1229.92 56.1932 1229.42 56.7841C1228.93 57.3826 1228.36 57.8258 1227.71 58.1136C1227.06 58.4015 1226.34 58.5455 1225.53 58.5455ZM1253.29 28.7273V52H1250.61V28.7273H1253.29ZM1258.2 52V34.5455H1260.89V52H1258.2ZM1259.57 31.6364C1259.05 31.6364 1258.59 31.4583 1258.22 31.1023C1257.84 30.7462 1257.66 30.3182 1257.66 29.8182C1257.66 29.3182 1257.84 28.8902 1258.22 28.5341C1258.59 28.178 1259.05 28 1259.57 28C1260.09 28 1260.54 28.178 1260.91 28.5341C1261.29 28.8902 1261.48 29.3182 1261.48 29.8182C1261.48 30.3182 1261.29 30.7462 1260.91 31.1023C1260.54 31.4583 1260.09 31.6364 1259.57 31.6364ZM1278.16 38.4545L1275.75 39.1364C1275.6 38.7348 1275.38 38.3447 1275.08 37.9659C1274.79 37.5795 1274.4 37.2614 1273.9 37.0114C1273.4 36.7614 1272.76 36.6364 1271.98 36.6364C1270.91 36.6364 1270.02 36.8826 1269.31 37.375C1268.61 37.8598 1268.25 38.4773 1268.25 39.2273C1268.25 39.8939 1268.5 40.4205 1268.98 40.8068C1269.46 41.1932 1270.22 41.5152 1271.25 41.7727L1273.84 42.4091C1275.4 42.7879 1276.57 43.3674 1277.33 44.1477C1278.1 44.9205 1278.48 45.9167 1278.48 47.1364C1278.48 48.1364 1278.19 49.0303 1277.62 49.8182C1277.05 50.6061 1276.25 51.2273 1275.23 51.6818C1274.21 52.1364 1273.02 52.3636 1271.66 52.3636C1269.88 52.3636 1268.41 51.9773 1267.24 51.2045C1266.07 50.4318 1265.34 49.303 1265.03 47.8182L1267.57 47.1818C1267.81 48.1212 1268.27 48.8258 1268.95 49.2955C1269.63 49.7652 1270.52 50 1271.62 50C1272.87 50 1273.86 49.7348 1274.59 49.2045C1275.34 48.6667 1275.71 48.0227 1275.71 47.2727C1275.71 46.6667 1275.5 46.1591 1275.07 45.75C1274.65 45.3333 1274 45.0227 1273.12 44.8182L1270.21 44.1364C1268.61 43.7576 1267.43 43.1705 1266.68 42.375C1265.94 41.572 1265.57 40.5682 1265.57 39.3636C1265.57 38.3788 1265.85 37.5076 1266.4 36.75C1266.96 35.9924 1267.72 35.3977 1268.68 34.9659C1269.65 34.5341 1270.75 34.3182 1271.98 34.3182C1273.71 34.3182 1275.06 34.697 1276.05 35.4545C1277.04 36.2121 1277.75 37.2121 1278.16 38.4545ZM1290.11 34.5455V36.8182H1281.06V34.5455H1290.11ZM1283.7 30.3636H1286.38V47C1286.38 47.7576 1286.49 48.3258 1286.71 48.7045C1286.94 49.0758 1287.23 49.3258 1287.57 49.4545C1287.93 49.5758 1288.3 49.6364 1288.7 49.6364C1288.99 49.6364 1289.24 49.6212 1289.43 49.5909C1289.62 49.553 1289.77 49.5227 1289.88 49.5L1290.43 51.9091C1290.24 51.9773 1289.99 52.0455 1289.66 52.1136C1289.34 52.1894 1288.93 52.2273 1288.43 52.2273C1287.67 52.2273 1286.93 52.0644 1286.2 51.7386C1285.48 51.4129 1284.88 50.9167 1284.4 50.25C1283.93 49.5833 1283.7 48.7424 1283.7 47.7273V30.3636ZM1294.14 52V34.5455H1296.82V52H1294.14ZM1295.51 31.6364C1294.98 31.6364 1294.53 31.4583 1294.15 31.1023C1293.78 30.7462 1293.6 30.3182 1293.6 29.8182C1293.6 29.3182 1293.78 28.8902 1294.15 28.5341C1294.53 28.178 1294.98 28 1295.51 28C1296.03 28 1296.48 28.178 1296.85 28.5341C1297.23 28.8902 1297.41 29.3182 1297.41 29.8182C1297.41 30.3182 1297.23 30.7462 1296.85 31.1023C1296.48 31.4583 1296.03 31.6364 1295.51 31.6364ZM1304.42 41.5V52H1301.74V34.5455H1304.33V37.2727H1304.55C1304.96 36.3864 1305.58 35.6742 1306.42 35.1364C1307.25 34.5909 1308.33 34.3182 1309.64 34.3182C1310.83 34.3182 1311.86 34.5606 1312.75 35.0455C1313.63 35.5227 1314.32 36.25 1314.82 37.2273C1315.31 38.197 1315.55 39.4242 1315.55 40.9091V52H1312.87V41.0909C1312.87 39.7197 1312.52 38.6515 1311.8 37.8864C1311.09 37.1136 1310.11 36.7273 1308.87 36.7273C1308.02 36.7273 1307.25 36.9129 1306.58 37.2841C1305.91 37.6553 1305.38 38.197 1305 38.9091C1304.61 39.6212 1304.42 40.4848 1304.42 41.5ZM1327.5 58.9091C1326.2 58.9091 1325.09 58.7424 1324.16 58.4091C1323.23 58.0833 1322.45 57.6515 1321.83 57.1136C1321.22 56.5833 1320.73 56.0152 1320.36 55.4091L1322.5 53.9091C1322.74 54.2273 1323.05 54.5909 1323.42 55C1323.79 55.4167 1324.3 55.7765 1324.94 56.0795C1325.59 56.3902 1326.45 56.5455 1327.5 56.5455C1328.91 56.5455 1330.07 56.2045 1330.99 55.5227C1331.91 54.8409 1332.36 53.7727 1332.36 52.3182V48.7727H1332.14C1331.94 49.0909 1331.66 49.4848 1331.3 49.9545C1330.94 50.4167 1330.42 50.8295 1329.75 51.1932C1329.08 51.5492 1328.18 51.7273 1327.05 51.7273C1325.64 51.7273 1324.37 51.3939 1323.25 50.7273C1322.14 50.0606 1321.25 49.0909 1320.6 47.8182C1319.96 46.5455 1319.64 45 1319.64 43.1818C1319.64 41.3939 1319.95 39.8371 1320.58 38.5114C1321.21 37.178 1322.08 36.1477 1323.2 35.4205C1324.33 34.6856 1325.62 34.3182 1327.09 34.3182C1328.23 34.3182 1329.13 34.5076 1329.8 34.8864C1330.47 35.2576 1330.98 35.6818 1331.34 36.1591C1331.7 36.6288 1331.98 37.0152 1332.18 37.3182H1332.45V34.5455H1335.05V52.5C1335.05 54 1334.7 55.2197 1334.02 56.1591C1333.35 57.1061 1332.44 57.7992 1331.3 58.2386C1330.16 58.6856 1328.89 58.9091 1327.5 58.9091ZM1327.41 49.3182C1328.48 49.3182 1329.39 49.072 1330.14 48.5795C1330.88 48.0871 1331.44 47.3788 1331.83 46.4545C1332.22 45.5303 1332.41 44.4242 1332.41 43.1364C1332.41 41.8788 1332.22 40.7689 1331.84 39.8068C1331.46 38.8447 1330.9 38.0909 1330.16 37.5455C1329.42 37 1328.5 36.7273 1327.41 36.7273C1326.27 36.7273 1325.33 37.0152 1324.57 37.5909C1323.82 38.1667 1323.25 38.9394 1322.88 39.9091C1322.5 40.8788 1322.32 41.9545 1322.32 43.1364C1322.32 44.3485 1322.51 45.4205 1322.89 46.3523C1323.27 47.2765 1323.84 48.0038 1324.59 48.5341C1325.35 49.0568 1326.29 49.3182 1327.41 49.3182Z" fill="#222222"/>
<path d="M530.96 47.9091V32.9091H533.506V47.9091H530.96ZM524.733 41.6818V39.1364H539.733V41.6818H524.733ZM552.599 28.4091C553.554 28.4167 554.509 28.5985 555.463 28.9545C556.418 29.3106 557.289 29.9015 558.077 30.7273C558.865 31.5455 559.497 32.6629 559.974 34.0795C560.452 35.4962 560.69 37.2727 560.69 39.4091C560.69 41.4773 560.493 43.3144 560.099 44.9205C559.713 46.5189 559.152 47.8674 558.418 48.9659C557.69 50.0644 556.804 50.8977 555.759 51.4659C554.721 52.0341 553.546 52.3182 552.236 52.3182C550.933 52.3182 549.77 52.0606 548.747 51.5455C547.732 51.0227 546.899 50.2992 546.247 49.375C545.603 48.4432 545.19 47.3636 545.009 46.1364H547.781C548.031 47.2045 548.527 48.0871 549.27 48.7841C550.02 49.4735 551.009 49.8182 552.236 49.8182C554.031 49.8182 555.448 49.0341 556.486 47.4659C557.531 45.8977 558.054 43.6818 558.054 40.8182H557.872C557.448 41.4545 556.944 42.0038 556.361 42.4659C555.777 42.928 555.13 43.2841 554.418 43.5341C553.705 43.7841 552.948 43.9091 552.145 43.9091C550.812 43.9091 549.588 43.5795 548.474 42.9205C547.368 42.2538 546.482 41.3409 545.815 40.1818C545.156 39.0152 544.827 37.6818 544.827 36.1818C544.827 34.7576 545.145 33.4545 545.781 32.2727C546.425 31.0833 547.327 30.1364 548.486 29.4318C549.652 28.7273 551.024 28.3864 552.599 28.4091ZM552.599 30.9091C551.645 30.9091 550.785 31.1477 550.02 31.625C549.262 32.0947 548.66 32.7311 548.213 33.5341C547.774 34.3295 547.554 35.2121 547.554 36.1818C547.554 37.1515 547.766 38.0341 548.19 38.8295C548.622 39.6174 549.209 40.2462 549.952 40.7159C550.702 41.178 551.554 41.4091 552.509 41.4091C553.228 41.4091 553.899 41.2689 554.52 40.9886C555.141 40.7008 555.683 40.3106 556.145 39.8182C556.615 39.3182 556.982 38.7538 557.247 38.125C557.512 37.4886 557.645 36.8258 557.645 36.1364C557.645 35.2273 557.425 34.375 556.986 33.5795C556.554 32.7841 555.955 32.1402 555.19 31.6477C554.433 31.1553 553.569 30.9091 552.599 30.9091ZM573.341 28.7273V52H570.523V31.6818H570.386L564.705 35.4545V32.5909L570.523 28.7273H573.341ZM589.761 52L600.17 31.4091V31.2273H588.17V28.7273H603.08V31.3636L592.716 52H589.761ZM607.315 52V49.9545L614.997 41.5455C615.899 40.5606 616.641 39.7045 617.224 38.9773C617.808 38.2424 618.24 37.553 618.52 36.9091C618.808 36.2576 618.952 35.5758 618.952 34.8636C618.952 34.0455 618.755 33.3371 618.361 32.7386C617.974 32.1402 617.444 31.678 616.77 31.3523C616.096 31.0265 615.338 30.8636 614.497 30.8636C613.603 30.8636 612.823 31.0492 612.156 31.4205C611.497 31.7841 610.986 32.2955 610.622 32.9545C610.266 33.6136 610.088 34.3864 610.088 35.2727H607.406C607.406 33.9091 607.721 32.7121 608.349 31.6818C608.978 30.6515 609.834 29.8485 610.918 29.2727C612.009 28.697 613.232 28.4091 614.588 28.4091C615.952 28.4091 617.16 28.697 618.213 29.2727C619.266 29.8485 620.092 30.625 620.69 31.6023C621.289 32.5795 621.588 33.6667 621.588 34.8636C621.588 35.7197 621.433 36.5568 621.122 37.375C620.819 38.1856 620.289 39.0909 619.531 40.0909C618.781 41.0833 617.74 42.2955 616.406 43.7273L611.179 49.3182V49.5H621.997V52H607.315ZM634.872 28.7273V52H632.054V31.6818H631.918L626.236 35.4545V32.5909L632.054 28.7273H634.872ZM648.974 28.4091C649.929 28.4167 650.884 28.5985 651.838 28.9545C652.793 29.3106 653.664 29.9015 654.452 30.7273C655.24 31.5455 655.872 32.6629 656.349 34.0795C656.827 35.4962 657.065 37.2727 657.065 39.4091C657.065 41.4773 656.868 43.3144 656.474 44.9205C656.088 46.5189 655.527 47.8674 654.793 48.9659C654.065 50.0644 653.179 50.8977 652.134 51.4659C651.096 52.0341 649.921 52.3182 648.611 52.3182C647.308 52.3182 646.145 52.0606 645.122 51.5455C644.107 51.0227 643.274 50.2992 642.622 49.375C641.978 48.4432 641.565 47.3636 641.384 46.1364H644.156C644.406 47.2045 644.902 48.0871 645.645 48.7841C646.395 49.4735 647.384 49.8182 648.611 49.8182C650.406 49.8182 651.823 49.0341 652.861 47.4659C653.906 45.8977 654.429 43.6818 654.429 40.8182H654.247C653.823 41.4545 653.319 42.0038 652.736 42.4659C652.152 42.928 651.505 43.2841 650.793 43.5341C650.08 43.7841 649.323 43.9091 648.52 43.9091C647.187 43.9091 645.963 43.5795 644.849 42.9205C643.743 42.2538 642.857 41.3409 642.19 40.1818C641.531 39.0152 641.202 37.6818 641.202 36.1818C641.202 34.7576 641.52 33.4545 642.156 32.2727C642.8 31.0833 643.702 30.1364 644.861 29.4318C646.027 28.7273 647.399 28.3864 648.974 28.4091ZM648.974 30.9091C648.02 30.9091 647.16 31.1477 646.395 31.625C645.637 32.0947 645.035 32.7311 644.588 33.5341C644.149 34.3295 643.929 35.2121 643.929 36.1818C643.929 37.1515 644.141 38.0341 644.565 38.8295C644.997 39.6174 645.584 40.2462 646.327 40.7159C647.077 41.178 647.929 41.4091 648.884 41.4091C649.603 41.4091 650.274 41.2689 650.895 40.9886C651.516 40.7008 652.058 40.3106 652.52 39.8182C652.99 39.3182 653.357 38.7538 653.622 38.125C653.887 37.4886 654.02 36.8258 654.02 36.1364C654.02 35.2273 653.8 34.375 653.361 33.5795C652.929 32.7841 652.33 32.1402 651.565 31.6477C650.808 31.1553 649.944 30.9091 648.974 30.9091ZM669.125 52.3182C667.413 52.3182 665.955 51.8523 664.75 50.9205C663.545 49.9811 662.625 48.6212 661.989 46.8409C661.352 45.053 661.034 42.8939 661.034 40.3636C661.034 37.8485 661.352 35.7008 661.989 33.9205C662.633 32.1326 663.557 30.7689 664.761 29.8295C665.973 28.8826 667.428 28.4091 669.125 28.4091C670.822 28.4091 672.273 28.8826 673.477 29.8295C674.689 30.7689 675.614 32.1326 676.25 33.9205C676.894 35.7008 677.216 37.8485 677.216 40.3636C677.216 42.8939 676.898 45.053 676.261 46.8409C675.625 48.6212 674.705 49.9811 673.5 50.9205C672.295 51.8523 670.837 52.3182 669.125 52.3182ZM669.125 49.8182C670.822 49.8182 672.14 49 673.08 47.3636C674.019 45.7273 674.489 43.3939 674.489 40.3636C674.489 38.3485 674.273 36.6326 673.841 35.2159C673.417 33.7992 672.803 32.7197 672 31.9773C671.205 31.2348 670.246 30.8636 669.125 30.8636C667.443 30.8636 666.129 31.6932 665.182 33.3523C664.235 35.0038 663.761 37.3409 663.761 40.3636C663.761 42.3788 663.973 44.0909 664.398 45.5C664.822 46.9091 665.432 47.9811 666.227 48.7159C667.03 49.4508 667.996 49.8182 669.125 49.8182ZM689.125 52.3182C687.413 52.3182 685.955 51.8523 684.75 50.9205C683.545 49.9811 682.625 48.6212 681.989 46.8409C681.352 45.053 681.034 42.8939 681.034 40.3636C681.034 37.8485 681.352 35.7008 681.989 33.9205C682.633 32.1326 683.557 30.7689 684.761 29.8295C685.973 28.8826 687.428 28.4091 689.125 28.4091C690.822 28.4091 692.273 28.8826 693.477 29.8295C694.689 30.7689 695.614 32.1326 696.25 33.9205C696.894 35.7008 697.216 37.8485 697.216 40.3636C697.216 42.8939 696.898 45.053 696.261 46.8409C695.625 48.6212 694.705 49.9811 693.5 50.9205C692.295 51.8523 690.837 52.3182 689.125 52.3182ZM689.125 49.8182C690.822 49.8182 692.14 49 693.08 47.3636C694.019 45.7273 694.489 43.3939 694.489 40.3636C694.489 38.3485 694.273 36.6326 693.841 35.2159C693.417 33.7992 692.803 32.7197 692 31.9773C691.205 31.2348 690.246 30.8636 689.125 30.8636C687.443 30.8636 686.129 31.6932 685.182 33.3523C684.235 35.0038 683.761 37.3409 683.761 40.3636C683.761 42.3788 683.973 44.0909 684.398 45.5C684.822 46.9091 685.432 47.9811 686.227 48.7159C687.03 49.4508 687.996 49.8182 689.125 49.8182ZM708.943 28.4091C709.898 28.4167 710.852 28.5985 711.807 28.9545C712.761 29.3106 713.633 29.9015 714.42 30.7273C715.208 31.5455 715.841 32.6629 716.318 34.0795C716.795 35.4962 717.034 37.2727 717.034 39.4091C717.034 41.4773 716.837 43.3144 716.443 44.9205C716.057 46.5189 715.496 47.8674 714.761 48.9659C714.034 50.0644 713.148 50.8977 712.102 51.4659C711.064 52.0341 709.89 52.3182 708.58 52.3182C707.277 52.3182 706.114 52.0606 705.091 51.5455C704.076 51.0227 703.242 50.2992 702.591 49.375C701.947 48.4432 701.534 47.3636 701.352 46.1364H704.125C704.375 47.2045 704.871 48.0871 705.614 48.7841C706.364 49.4735 707.352 49.8182 708.58 49.8182C710.375 49.8182 711.792 49.0341 712.83 47.4659C713.875 45.8977 714.398 43.6818 714.398 40.8182H714.216C713.792 41.4545 713.288 42.0038 712.705 42.4659C712.121 42.928 711.473 43.2841 710.761 43.5341C710.049 43.7841 709.292 43.9091 708.489 43.9091C707.155 43.9091 705.932 43.5795 704.818 42.9205C703.712 42.2538 702.826 41.3409 702.159 40.1818C701.5 39.0152 701.17 37.6818 701.17 36.1818C701.17 34.7576 701.489 33.4545 702.125 32.2727C702.769 31.0833 703.67 30.1364 704.83 29.4318C705.996 28.7273 707.367 28.3864 708.943 28.4091ZM708.943 30.9091C707.989 30.9091 707.129 31.1477 706.364 31.625C705.606 32.0947 705.004 32.7311 704.557 33.5341C704.117 34.3295 703.898 35.2121 703.898 36.1818C703.898 37.1515 704.11 38.0341 704.534 38.8295C704.966 39.6174 705.553 40.2462 706.295 40.7159C707.045 41.178 707.898 41.4091 708.852 41.4091C709.572 41.4091 710.242 41.2689 710.864 40.9886C711.485 40.7008 712.027 40.3106 712.489 39.8182C712.958 39.3182 713.326 38.7538 713.591 38.125C713.856 37.4886 713.989 36.8258 713.989 36.1364C713.989 35.2273 713.769 34.375 713.33 33.5795C712.898 32.7841 712.299 32.1402 711.534 31.6477C710.777 31.1553 709.913 30.9091 708.943 30.9091ZM729.094 52.3182C727.382 52.3182 725.923 51.8523 724.719 50.9205C723.514 49.9811 722.594 48.6212 721.957 46.8409C721.321 45.053 721.003 42.8939 721.003 40.3636C721.003 37.8485 721.321 35.7008 721.957 33.9205C722.601 32.1326 723.526 30.7689 724.73 29.8295C725.942 28.8826 727.397 28.4091 729.094 28.4091C730.791 28.4091 732.241 28.8826 733.446 29.8295C734.658 30.7689 735.582 32.1326 736.219 33.9205C736.863 35.7008 737.185 37.8485 737.185 40.3636C737.185 42.8939 736.866 45.053 736.23 46.8409C735.594 48.6212 734.673 49.9811 733.469 50.9205C732.264 51.8523 730.806 52.3182 729.094 52.3182ZM729.094 49.8182C730.791 49.8182 732.109 49 733.048 47.3636C733.988 45.7273 734.457 43.3939 734.457 40.3636C734.457 38.3485 734.241 36.6326 733.81 35.2159C733.385 33.7992 732.772 32.7197 731.969 31.9773C731.173 31.2348 730.215 30.8636 729.094 30.8636C727.412 30.8636 726.098 31.6932 725.151 33.3523C724.204 35.0038 723.73 37.3409 723.73 40.3636C723.73 42.3788 723.942 44.0909 724.366 45.5C724.791 46.9091 725.401 47.9811 726.196 48.7159C726.999 49.4508 727.965 49.8182 729.094 49.8182ZM749.23 52.3182C748.276 52.303 747.321 52.1212 746.366 51.7727C745.412 51.4242 744.541 50.8371 743.753 50.0114C742.965 49.178 742.332 48.053 741.855 46.6364C741.378 45.2121 741.139 43.4242 741.139 41.2727C741.139 39.2121 741.332 37.3864 741.719 35.7955C742.105 34.197 742.666 32.8523 743.401 31.7614C744.135 30.6629 745.022 29.8295 746.06 29.2614C747.105 28.6932 748.283 28.4091 749.594 28.4091C750.897 28.4091 752.056 28.6705 753.071 29.1932C754.094 29.7083 754.927 30.428 755.571 31.3523C756.215 32.2765 756.632 33.3409 756.821 34.5455H754.048C753.791 33.5 753.291 32.6326 752.548 31.9432C751.806 31.2538 750.821 30.9091 749.594 30.9091C747.791 30.9091 746.37 31.6932 745.332 33.2614C744.302 34.8295 743.783 37.0303 743.776 39.8636H743.957C744.382 39.2197 744.885 38.6705 745.469 38.2159C746.06 37.7538 746.711 37.3977 747.423 37.1477C748.135 36.8977 748.889 36.7727 749.685 36.7727C751.018 36.7727 752.238 37.1061 753.344 37.7727C754.45 38.4318 755.336 39.3447 756.003 40.5114C756.67 41.6705 757.003 43 757.003 44.5C757.003 45.9394 756.681 47.2576 756.037 48.4545C755.393 49.6439 754.488 50.5909 753.321 51.2955C752.162 51.9924 750.798 52.3333 749.23 52.3182ZM749.23 49.8182C750.185 49.8182 751.041 49.5795 751.798 49.1023C752.563 48.625 753.166 47.9848 753.605 47.1818C754.052 46.3788 754.276 45.4848 754.276 44.5C754.276 43.5379 754.06 42.6629 753.628 41.875C753.204 41.0795 752.616 40.447 751.866 39.9773C751.124 39.5076 750.276 39.2727 749.321 39.2727C748.601 39.2727 747.931 39.4167 747.31 39.7045C746.688 39.9848 746.143 40.3712 745.673 40.8636C745.211 41.3561 744.848 41.9205 744.582 42.5568C744.317 43.1856 744.185 43.8485 744.185 44.5455C744.185 45.4697 744.401 46.3333 744.832 47.1364C745.272 47.9394 745.87 48.5871 746.628 49.0795C747.393 49.572 748.26 49.8182 749.23 49.8182ZM761.472 52V49.9545L769.153 41.5455C770.055 40.5606 770.797 39.7045 771.381 38.9773C771.964 38.2424 772.396 37.553 772.676 36.9091C772.964 36.2576 773.108 35.5758 773.108 34.8636C773.108 34.0455 772.911 33.3371 772.517 32.7386C772.131 32.1402 771.6 31.678 770.926 31.3523C770.252 31.0265 769.494 30.8636 768.653 30.8636C767.759 30.8636 766.979 31.0492 766.312 31.4205C765.653 31.7841 765.142 32.2955 764.778 32.9545C764.422 33.6136 764.244 34.3864 764.244 35.2727H761.562C761.562 33.9091 761.877 32.7121 762.506 31.6818C763.134 30.6515 763.991 29.8485 765.074 29.2727C766.165 28.697 767.388 28.4091 768.744 28.4091C770.108 28.4091 771.316 28.697 772.369 29.2727C773.422 29.8485 774.248 30.625 774.847 31.6023C775.445 32.5795 775.744 33.6667 775.744 34.8636C775.744 35.7197 775.589 36.5568 775.278 37.375C774.975 38.1856 774.445 39.0909 773.688 40.0909C772.938 41.0833 771.896 42.2955 770.562 43.7273L765.335 49.3182V49.5H776.153V52H761.472Z" fill="#FC6600"/>
<path d="M542.781 58.3636H778.438V60.5455H542.781V58.3636Z" fill="#FC6600"/>
</svg>
