<svg width="20" height="20" viewBox="0 0 20 20" fill="none" xmlns="http://www.w3.org/2000/svg">
<path d="M17 2.91002C16.0831 1.98413 14.991 1.24999 13.7875 0.750386C12.584 0.250782 11.2931 -0.00429369 9.99 2.33776e-05C4.53 2.33776e-05 0.0800002 4.45002 0.0800002 9.91002C0.0800002 11.66 0.54 13.36 1.4 14.86L0 20L5.25 18.62C6.7 19.41 8.33 19.83 9.99 19.83C15.45 19.83 19.9 15.38 19.9 9.92002C19.9 7.27002 18.87 4.78002 17 2.91002ZM9.99 18.15C8.51 18.15 7.06 17.75 5.79 17L5.49 16.82L2.37 17.64L3.2 14.6L3 14.29C2.17755 12.9771 1.74092 11.4593 1.74 9.91002C1.74 5.37002 5.44 1.67002 9.98 1.67002C12.18 1.67002 14.25 2.53002 15.8 4.09002C16.5676 4.85389 17.1759 5.76257 17.5896 6.76335C18.0033 7.76414 18.2142 8.83711 18.21 9.92002C18.23 14.46 14.53 18.15 9.99 18.15ZM14.51 11.99C14.26 11.87 13.04 11.27 12.82 11.18C12.59 11.1 12.43 11.06 12.26 11.3C12.09 11.55 11.62 12.11 11.48 12.27C11.34 12.44 11.19 12.46 10.94 12.33C10.69 12.21 9.89 11.94 8.95 11.1C8.21 10.44 7.72 9.63002 7.57 9.38002C7.43 9.13002 7.55 9.00002 7.68 8.87002C7.79 8.76002 7.93 8.58002 8.05 8.44002C8.17 8.30002 8.22 8.19002 8.3 8.03002C8.38 7.86002 8.34 7.72002 8.28 7.60002C8.22 7.48002 7.72 6.26002 7.52 5.76002C7.32 5.28002 7.11 5.34002 6.96 5.33002H6.48C6.31 5.33002 6.05 5.39002 5.82 5.64002C5.6 5.89002 4.96 6.49002 4.96 7.71002C4.96 8.93002 5.85 10.11 5.97 10.27C6.09 10.44 7.72 12.94 10.2 14.01C10.79 14.27 11.25 14.42 11.61 14.53C12.2 14.72 12.74 14.69 13.17 14.63C13.65 14.56 14.64 14.03 14.84 13.45C15.05 12.87 15.05 12.38 14.98 12.27C14.91 12.16 14.76 12.11 14.51 11.99Z" fill="#222222" fill-opacity="0.8"/>
</svg>
