<svg width="960" height="746" viewBox="0 0 960 746" fill="none" xmlns="http://www.w3.org/2000/svg">
<path opacity="0.08" d="M70 67.6992C70 56.6535 78.9543 47.6992 90 47.6992H940C951.046 47.6992 960 56.6535 960 67.6992V726.001C960 737.047 951.046 746.001 940 746.001H90C78.9543 746.001 70 737.047 70 726.001V67.6992Z" fill="#FC6600"/>
<ellipse cx="3" cy="2.86189" rx="3" ry="2.86189" transform="matrix(1 0 0 -1 829 121.023)" fill="#FC6600"/>
<ellipse cx="3" cy="2.86189" rx="3" ry="2.86189" transform="matrix(1 0 0 -1 883.578 121.023)" fill="#FC6600"/>
<ellipse cx="3" cy="2.86189" rx="3" ry="2.86189" transform="matrix(1 0 0 -1 856.297 121.023)" fill="#FC6600"/>
<ellipse cx="3" cy="2.86189" rx="3" ry="2.86189" transform="matrix(1 0 0 -1 910.875 121.023)" fill="#FC6600"/>
<ellipse cx="3" cy="2.86189" rx="3" ry="2.86189" transform="matrix(1 0 0 -1 829 97.9648)" fill="#FC6600"/>
<ellipse cx="3" cy="2.86189" rx="3" ry="2.86189" transform="matrix(1 0 0 -1 883.578 97.9648)" fill="#FC6600"/>
<ellipse cx="3" cy="2.86189" rx="3" ry="2.86189" transform="matrix(1 0 0 -1 856.297 97.9648)" fill="#FC6600"/>
<ellipse cx="3" cy="2.86189" rx="3" ry="2.86189" transform="matrix(1 0 0 -1 910.875 97.9648)" fill="#FC6600"/>
<ellipse cx="3" cy="2.86189" rx="3" ry="2.86189" transform="matrix(1 0 0 -1 829 74.9023)" fill="#FC6600"/>
<ellipse cx="3" cy="2.86189" rx="3" ry="2.86189" transform="matrix(1 0 0 -1 883.578 74.9023)" fill="#FC6600"/>
<ellipse cx="3" cy="2.86189" rx="3" ry="2.86189" transform="matrix(1 0 0 -1 856.297 74.9023)" fill="#FC6600"/>
<ellipse cx="3" cy="2.86189" rx="3" ry="2.86189" transform="matrix(1 0 0 -1 910.875 74.9023)" fill="#FC6600"/>
<ellipse cx="3" cy="2.86189" rx="3" ry="2.86189" transform="matrix(1 0 0 -1 829 51.8398)" fill="#FC6600"/>
<ellipse cx="3" cy="2.86189" rx="3" ry="2.86189" transform="matrix(1 0 0 -1 883.578 51.8398)" fill="#FC6600"/>
<ellipse cx="3" cy="2.86189" rx="3" ry="2.86189" transform="matrix(1 0 0 -1 856.297 51.8398)" fill="#FC6600"/>
<ellipse cx="3" cy="2.86189" rx="3" ry="2.86189" transform="matrix(1 0 0 -1 910.875 51.8398)" fill="#FC6600"/>
<ellipse cx="3" cy="2.86189" rx="3" ry="2.86189" transform="matrix(1 0 0 -1 829 28.7852)" fill="#FC6600"/>
<ellipse cx="3" cy="2.86189" rx="3" ry="2.86189" transform="matrix(1 0 0 -1 883.578 28.7852)" fill="#FC6600"/>
<ellipse cx="3" cy="2.86189" rx="3" ry="2.86189" transform="matrix(1 0 0 -1 856.297 28.7852)" fill="#FC6600"/>
<ellipse cx="3" cy="2.86189" rx="3" ry="2.86189" transform="matrix(1 0 0 -1 910.875 28.7852)" fill="#FC6600"/>
<ellipse cx="3" cy="2.86189" rx="3" ry="2.86189" transform="matrix(1 0 0 -1 829 5.72656)" fill="#FC6600"/>
<ellipse cx="3" cy="2.86189" rx="3" ry="2.86189" transform="matrix(1 0 0 -1 883.578 5.72656)" fill="#FC6600"/>
<ellipse cx="3" cy="2.86189" rx="3" ry="2.86189" transform="matrix(1 0 0 -1 856.297 5.72656)" fill="#FC6600"/>
<ellipse cx="3" cy="2.86189" rx="3" ry="2.86189" transform="matrix(1 0 0 -1 910.875 5.72656)" fill="#FC6600"/>
<ellipse cx="123.859" cy="426.424" rx="2.86189" ry="3" transform="rotate(90 123.859 426.424)" fill="#FC6600"/>
<ellipse cx="123.859" cy="478.495" rx="2.86189" ry="3" transform="rotate(90 123.859 478.495)" fill="#FC6600"/>
<ellipse cx="123.859" cy="452.46" rx="2.86189" ry="3" transform="rotate(90 123.859 452.46)" fill="#FC6600"/>
<ellipse cx="123.859" cy="504.53" rx="2.86189" ry="3" transform="rotate(90 123.859 504.53)" fill="#FC6600"/>
<ellipse cx="99.6875" cy="426.424" rx="2.86189" ry="3" transform="rotate(90 99.6875 426.424)" fill="#FC6600"/>
<ellipse cx="99.6875" cy="478.495" rx="2.86189" ry="3" transform="rotate(90 99.6875 478.495)" fill="#FC6600"/>
<ellipse cx="99.6875" cy="452.46" rx="2.86189" ry="3" transform="rotate(90 99.6875 452.46)" fill="#FC6600"/>
<ellipse cx="99.6875" cy="504.53" rx="2.86189" ry="3" transform="rotate(90 99.6875 504.53)" fill="#FC6600"/>
<ellipse cx="75.5156" cy="426.424" rx="2.86189" ry="3" transform="rotate(90 75.5156 426.424)" fill="#FC6600"/>
<ellipse cx="75.5156" cy="478.495" rx="2.86189" ry="3" transform="rotate(90 75.5156 478.495)" fill="#FC6600"/>
<ellipse cx="75.5156" cy="452.46" rx="2.86189" ry="3" transform="rotate(90 75.5156 452.46)" fill="#FC6600"/>
<ellipse cx="75.5156" cy="504.53" rx="2.86189" ry="3" transform="rotate(90 75.5156 504.53)" fill="#FC6600"/>
<ellipse cx="51.3438" cy="426.424" rx="2.86189" ry="3" transform="rotate(90 51.3438 426.424)" fill="#FC6600"/>
<ellipse cx="51.3438" cy="478.495" rx="2.86189" ry="3" transform="rotate(90 51.3438 478.495)" fill="#FC6600"/>
<ellipse cx="51.3438" cy="452.46" rx="2.86189" ry="3" transform="rotate(90 51.3438 452.46)" fill="#FC6600"/>
<ellipse cx="51.3438" cy="504.53" rx="2.86189" ry="3" transform="rotate(90 51.3438 504.53)" fill="#FC6600"/>
<ellipse cx="27.1719" cy="426.424" rx="2.86189" ry="3" transform="rotate(90 27.1719 426.424)" fill="#FC6600"/>
<ellipse cx="27.1719" cy="478.495" rx="2.86189" ry="3" transform="rotate(90 27.1719 478.495)" fill="#FC6600"/>
<ellipse cx="27.1719" cy="452.46" rx="2.86189" ry="3" transform="rotate(90 27.1719 452.46)" fill="#FC6600"/>
<ellipse cx="27.1719" cy="504.53" rx="2.86189" ry="3" transform="rotate(90 27.1719 504.53)" fill="#FC6600"/>
<ellipse cx="3" cy="426.424" rx="2.86189" ry="3" transform="rotate(90 3 426.424)" fill="#FC6600"/>
<ellipse cx="3" cy="478.495" rx="2.86189" ry="3" transform="rotate(90 3 478.495)" fill="#FC6600"/>
<ellipse cx="3" cy="452.46" rx="2.86189" ry="3" transform="rotate(90 3 452.46)" fill="#FC6600"/>
<ellipse cx="3" cy="504.53" rx="2.86189" ry="3" transform="rotate(90 3 504.53)" fill="#FC6600"/>
</svg>
