<svg width="88" height="122" viewBox="0 0 88 122" fill="none" xmlns="http://www.w3.org/2000/svg">
<ellipse cx="3" cy="2.86189" rx="3" ry="2.86189" transform="matrix(1 0 0 -1 0 121.023)" fill="#FC6600"/>
<ellipse cx="3" cy="2.86189" rx="3" ry="2.86189" transform="matrix(1 0 0 -1 54.5781 121.023)" fill="#FC6600"/>
<ellipse cx="3" cy="2.86189" rx="3" ry="2.86189" transform="matrix(1 0 0 -1 27.2969 121.023)" fill="#FC6600"/>
<ellipse cx="3" cy="2.86189" rx="3" ry="2.86189" transform="matrix(1 0 0 -1 81.875 121.023)" fill="#FC6600"/>
<ellipse cx="3" cy="2.86189" rx="3" ry="2.86189" transform="matrix(1 0 0 -1 0 97.9648)" fill="#FC6600"/>
<ellipse cx="3" cy="2.86189" rx="3" ry="2.86189" transform="matrix(1 0 0 -1 54.5781 97.9648)" fill="#FC6600"/>
<ellipse cx="3" cy="2.86189" rx="3" ry="2.86189" transform="matrix(1 0 0 -1 27.2969 97.9648)" fill="#FC6600"/>
<ellipse cx="3" cy="2.86189" rx="3" ry="2.86189" transform="matrix(1 0 0 -1 81.875 97.9648)" fill="#FC6600"/>
<ellipse cx="3" cy="2.86189" rx="3" ry="2.86189" transform="matrix(1 0 0 -1 0 74.9023)" fill="#FC6600"/>
<ellipse cx="3" cy="2.86189" rx="3" ry="2.86189" transform="matrix(1 0 0 -1 54.5781 74.9023)" fill="#FC6600"/>
<ellipse cx="3" cy="2.86189" rx="3" ry="2.86189" transform="matrix(1 0 0 -1 27.2969 74.9023)" fill="#FC6600"/>
<ellipse cx="3" cy="2.86189" rx="3" ry="2.86189" transform="matrix(1 0 0 -1 81.875 74.9023)" fill="#FC6600"/>
<ellipse cx="3" cy="2.86189" rx="3" ry="2.86189" transform="matrix(1 0 0 -1 0 51.8398)" fill="#FC6600"/>
<ellipse cx="3" cy="2.86189" rx="3" ry="2.86189" transform="matrix(1 0 0 -1 54.5781 51.8398)" fill="#FC6600"/>
<ellipse cx="3" cy="2.86189" rx="3" ry="2.86189" transform="matrix(1 0 0 -1 27.2969 51.8398)" fill="#FC6600"/>
<ellipse cx="3" cy="2.86189" rx="3" ry="2.86189" transform="matrix(1 0 0 -1 81.875 51.8398)" fill="#FC6600"/>
<ellipse cx="3" cy="2.86189" rx="3" ry="2.86189" transform="matrix(1 0 0 -1 0 28.7852)" fill="#FC6600"/>
<ellipse cx="3" cy="2.86189" rx="3" ry="2.86189" transform="matrix(1 0 0 -1 54.5781 28.7852)" fill="#FC6600"/>
<ellipse cx="3" cy="2.86189" rx="3" ry="2.86189" transform="matrix(1 0 0 -1 27.2969 28.7852)" fill="#FC6600"/>
<ellipse cx="3" cy="2.86189" rx="3" ry="2.86189" transform="matrix(1 0 0 -1 81.875 28.7852)" fill="#FC6600"/>
<ellipse cx="3" cy="2.86189" rx="3" ry="2.86189" transform="matrix(1 0 0 -1 0 5.72656)" fill="#FC6600"/>
<ellipse cx="3" cy="2.86189" rx="3" ry="2.86189" transform="matrix(1 0 0 -1 54.5781 5.72656)" fill="#FC6600"/>
<ellipse cx="3" cy="2.86189" rx="3" ry="2.86189" transform="matrix(1 0 0 -1 27.2969 5.72656)" fill="#FC6600"/>
<ellipse cx="3" cy="2.86189" rx="3" ry="2.86189" transform="matrix(1 0 0 -1 81.875 5.72656)" fill="#FC6600"/>
</svg>
