<svg width="18" height="21" viewBox="0 0 18 21" fill="none" xmlns="http://www.w3.org/2000/svg">
<path d="M11.5 5L6.5 8.5M11.5 16L6.5 12.5M6.5 10.5C6.5 11.163 6.23661 11.7989 5.76777 12.2678C5.29893 12.7366 4.66304 13 4 13C3.33696 13 2.70107 12.7366 2.23223 12.2678C1.76339 11.7989 1.5 11.163 1.5 10.5C1.5 9.83696 1.76339 9.20107 2.23223 8.73223C2.70107 8.26339 3.33696 8 4 8C4.66304 8 5.29893 8.26339 5.76777 8.73223C6.23661 9.20107 6.5 9.83696 6.5 10.5ZM16.5 17C16.5 17.663 16.2366 18.2989 15.7678 18.7678C15.2989 19.2366 14.663 19.5 14 19.5C13.337 19.5 12.7011 19.2366 12.2322 18.7678C11.7634 18.2989 11.5 17.663 11.5 17C11.5 16.337 11.7634 15.7011 12.2322 15.2322C12.7011 14.7634 13.337 14.5 14 14.5C14.663 14.5 15.2989 14.7634 15.7678 15.2322C16.2366 15.7011 16.5 16.337 16.5 17ZM16.5 4C16.5 4.66304 16.2366 5.29893 15.7678 5.76777C15.2989 6.23661 14.663 6.5 14 6.5C13.337 6.5 12.7011 6.23661 12.2322 5.76777C11.7634 5.29893 11.5 4.66304 11.5 4C11.5 3.33696 11.7634 2.70107 12.2322 2.23223C12.7011 1.76339 13.337 1.5 14 1.5C14.663 1.5 15.2989 1.76339 15.7678 2.23223C16.2366 2.70107 16.5 3.33696 16.5 4Z" stroke="#FC6600" stroke-width="2" stroke-linecap="round" stroke-linejoin="round"/>
</svg>
