<svg width="14" height="14" viewBox="0 0 14 14" fill="none" xmlns="http://www.w3.org/2000/svg">
<mask id="mask0_629_5240" style="mask-type:luminance" maskUnits="userSpaceOnUse" x="0" y="0" width="14" height="14">
<path d="M0.5 0.5H13.5V13.5H0.5V0.5Z" fill="white"/>
</mask>
<g mask="url(#mask0_629_5240)">
<path d="M7.00195 13.1191C5.47852 10.834 2.8125 7.73633 2.8125 5.07031C2.8125 2.76025 4.69189 0.880859 7.00195 0.880859C9.31202 0.880859 11.1914 2.76025 11.1914 5.07031C11.1914 7.73633 8.52539 10.834 7.00195 13.1191Z" stroke="#949494" stroke-miterlimit="10" stroke-linecap="round" stroke-linejoin="round"/>
<path d="M7.00195 6.97461C5.95197 6.97461 5.09766 6.12029 5.09766 5.07031C5.09766 4.02033 5.95197 3.16602 7.00195 3.16602C8.05193 3.16602 8.90625 4.02033 8.90625 5.07031C8.90625 6.12029 8.05193 6.97461 7.00195 6.97461Z" stroke="#949494" stroke-miterlimit="10" stroke-linecap="round" stroke-linejoin="round"/>
</g>
</svg>
