<svg width="20" height="18" viewBox="0 0 20 18" fill="none" xmlns="http://www.w3.org/2000/svg">
<path d="M9.99996 4.46069L9.20265 3.40732C8.88154 2.98309 8.52312 2.62729 8.13517 2.34067L8.13512 2.34063C7.37611 1.77978 6.52701 1.5 5.58701 1.5C4.303 1.5 3.1455 1.98826 2.30612 2.858L9.99996 4.46069ZM9.99996 4.46069L10.7973 3.40737M9.99996 4.46069L10.7973 3.40737M10.7973 3.40737C11.1186 2.98298 11.4768 2.62731 11.8647 2.34068L10.7973 3.40737ZM7.58053 14.5752L7.58058 14.5753L7.58375 14.5779C8.27052 15.1371 9.05389 15.775 9.86792 16.455L9.8686 16.4555C9.89855 16.4806 9.94461 16.5 10 16.5C10.0555 16.5 10.1017 16.4804 10.1312 16.4558L10.1317 16.4553C10.9397 15.7803 11.7179 15.1465 12.4012 14.5901L12.4198 14.5749L12.4199 14.5748C14.458 12.9156 16.1197 11.5584 17.2611 10.2426L17.2611 10.2425C18.5017 8.8125 19 7.55701 19 6.24238C19 4.91281 18.5244 3.7189 17.6938 2.85805C16.8544 1.98826 15.697 1.5 14.413 1.5C13.4731 1.5 12.624 1.77974 11.8648 2.34057L7.58053 14.5752ZM7.58053 14.5752C5.54226 12.9157 3.88042 11.5584 2.73905 10.2427C1.49845 8.81245 1 7.55694 1 6.24252C1 4.91284 1.47553 3.71894 2.30603 2.85809L7.58053 14.5752Z" stroke="#FC6600" stroke-width="2"/>
</svg>
