<svg width="295" height="337" viewBox="0 0 295 337" fill="none" xmlns="http://www.w3.org/2000/svg">
<path opacity="0.7" d="M219.573 96.5914C225.898 94.6287 232.218 92.8357 238.525 91.2094C244.964 90.3029 251.48 89.5447 258.065 88.9409C264.648 88.3374 271.19 87.8981 277.685 87.6184C284.185 88.0708 290.729 88.6849 297.309 89.465C303.878 90.2438 310.375 91.1754 316.791 92.2532C323.049 94.0459 329.317 96.0056 335.586 98.1348C341.858 100.265 348.026 102.53 354.084 104.921C359.825 107.972 365.541 111.188 371.222 114.57C376.907 117.953 382.463 121.447 387.886 125.041C392.875 129.224 397.803 133.564 402.664 138.059C407.522 142.551 412.232 147.125 416.79 151.769C420.798 156.897 424.716 162.165 428.534 167.57C432.355 172.978 436.012 178.433 439.507 183.927C442.359 189.772 445.095 195.736 447.704 201.814C450.315 207.894 452.757 213.986 455.031 220.081C456.608 226.397 458.045 232.805 459.335 239.298C460.625 245.79 461.747 252.26 462.705 258.699C462.934 265.202 463.007 271.765 462.919 278.381C462.831 284.996 462.584 291.555 462.182 298.05C461.054 304.46 459.76 310.898 458.298 317.353C456.835 323.811 455.228 330.181 453.484 336.454C451.049 342.486 448.447 348.509 445.676 354.515C442.909 360.515 440.02 366.398 437.016 372.159C433.373 377.564 429.568 382.926 425.602 388.236C421.634 393.548 417.57 398.719 413.419 403.747C408.746 408.261 403.925 412.699 398.957 417.054C393.983 421.415 388.943 425.62 383.849 429.667C378.33 433.118 372.68 436.464 366.904 439.697C361.133 442.928 355.331 445.992 349.509 448.89C343.39 451.119 337.166 453.219 330.841 455.181C324.525 457.141 318.214 458.932 311.917 460.556C305.468 461.464 298.942 462.224 292.347 462.829C285.749 463.434 279.192 463.873 272.682 464.153C266.198 463.701 259.669 463.088 253.106 462.31C246.532 461.53 240.031 460.598 233.611 459.519C227.357 457.728 221.094 455.769 214.83 453.642C208.569 451.515 202.412 449.255 196.364 446.868C190.611 443.811 184.883 440.589 179.191 437.201C173.503 433.816 167.944 430.32 162.518 426.724C157.533 422.543 152.607 418.206 147.75 413.714C142.891 409.221 138.181 404.647 133.622 400.002C129.615 394.875 125.697 389.608 121.879 384.203C118.062 378.8 114.408 373.35 110.917 367.861C108.061 362.01 105.322 356.04 102.71 349.956C100.098 343.873 97.6552 337.778 95.3795 331.679C93.804 325.367 92.3682 318.963 91.0788 312.474C89.7893 305.985 88.6676 299.518 87.71 293.082C87.4811 286.577 87.408 280.011 87.4959 273.393C87.5838 266.774 87.8314 260.213 88.233 253.716C89.3613 247.308 90.6545 240.873 92.116 234.42C93.5769 227.969 95.182 221.607 96.9241 215.34C99.3615 209.303 101.966 203.273 104.739 197.26C107.516 191.241 110.415 185.339 113.429 179.56C117.062 174.172 120.856 168.826 124.81 163.533C128.763 158.241 132.812 153.088 136.946 148.078C141.634 143.548 146.472 139.093 151.457 134.723C156.435 130.359 161.478 126.152 166.575 122.103C172.092 118.654 177.739 115.309 183.512 112.078C189.29 108.843 195.099 105.775 200.929 102.874C207.04 100.648 213.256 98.5514 219.573 96.5914ZM257.974 87.9451C254.356 88.2769 250.758 88.6552 247.183 89.0789C250.748 88.2437 254.307 87.4615 257.858 86.732C261.484 86.8034 265.126 86.9252 268.784 87.0981C265.193 87.3315 261.589 87.6136 257.974 87.9451ZM253.319 86.6689C248.334 87.7511 243.336 88.9366 238.33 90.227C233.203 90.9494 228.125 91.7656 223.098 92.6726C227.943 90.6218 232.794 88.6834 237.646 86.8569C242.83 86.6896 248.056 86.6261 253.319 86.6689ZM277.698 86.617C272.54 86.2586 267.409 86.0018 262.311 85.8444C267.48 84.8447 272.632 83.9563 277.762 83.1779C282.866 84.0917 287.99 85.1158 293.128 86.2516C288.018 86.2738 282.873 86.3949 277.698 86.617ZM274.7 82.6426C269.079 83.5396 263.432 84.5681 257.767 85.7301C251.986 85.6179 246.248 85.6335 240.559 85.7737C246.127 83.7294 251.694 81.8323 257.252 80.0817C263.036 80.7921 268.854 81.645 274.7 82.6426ZM297.674 86.2578C292.044 84.9467 286.429 83.7694 280.837 82.724C286.711 81.8813 292.554 81.1827 298.358 80.6259C303.868 82.5233 309.382 84.5674 314.892 86.7587C309.203 86.4671 303.461 86.299 297.674 86.2578ZM296.073 79.8471C290.011 80.4647 283.909 81.2363 277.775 82.1645C271.672 81.0746 265.597 80.1419 259.558 79.3639C265.684 77.4785 271.798 75.771 277.89 74.2404C283.937 75.9317 290.001 77.8004 296.073 79.8471ZM318 86.9305C312.256 84.5954 306.507 82.4198 300.762 80.4031C307.144 79.8328 313.477 79.434 319.752 79.2035C325.314 82.1148 330.858 85.2033 336.37 88.4672C330.316 87.8115 324.189 87.2978 318 86.9305ZM317.961 78.2729C311.523 78.5411 305.025 78.9855 298.478 79.6098C292.259 77.472 286.045 75.5204 279.849 73.7543C286.491 72.1256 293.105 70.7074 299.677 69.4985C305.785 72.2107 311.884 75.1362 317.961 78.2729ZM338.773 88.7353C333.134 85.3514 327.462 82.1508 321.768 79.1352C328.605 78.9229 335.37 78.9109 342.051 79.0949C347.461 83.0175 352.819 87.147 358.111 91.4786C351.757 90.4022 345.307 89.4859 338.773 88.7353ZM340.613 78.0581C333.816 77.9003 326.934 77.9443 319.98 78.1946C313.814 74.973 307.623 71.9682 301.422 69.1824C308.58 67.9047 315.686 66.8757 322.723 66.0936C328.736 69.8311 334.705 73.8213 340.613 78.0581ZM360.102 91.8218C354.74 87.3886 349.309 83.1624 343.823 79.1484C351.091 79.3868 358.257 79.8578 365.304 80.556C370.408 85.4619 375.417 90.6061 380.315 95.9787C373.699 94.4109 366.957 93.0229 360.102 91.8218ZM364.134 79.4378C356.999 78.7597 349.744 78.3132 342.388 78.1039C336.427 73.79 330.402 69.7262 324.331 65.919C332 65.1066 339.584 64.5882 347.06 64.3617C352.85 69.094 358.548 74.1236 364.134 79.4378ZM382.042 96.3925C377.108 90.9334 372.06 85.7058 366.913 80.7197C374.582 81.5192 382.107 82.5888 389.465 83.9213C394.145 89.7539 398.673 95.8582 403.032 102.218C396.195 100.071 389.193 98.1265 382.042 96.3925ZM388.507 82.7338C381.079 81.419 373.485 80.3704 365.747 79.5952C360.134 74.2125 354.407 69.1163 348.585 64.3195C356.729 64.1156 364.743 64.2594 372.595 64.7479C378.064 70.4037 383.375 76.4062 388.507 82.7338ZM404.577 102.707C400.206 96.275 395.663 90.0994 390.966 84.1971C398.975 85.691 406.785 87.4979 414.364 89.6085C418.538 96.2777 422.485 103.253 426.189 110.51C419.196 107.679 411.985 105.074 404.577 102.707ZM413.573 88.3526C405.938 86.2607 398.074 84.4748 390.011 83.0041C384.874 76.6185 379.555 70.558 374.076 64.8443C375.986 64.974 377.886 65.1242 379.776 65.2949C386.333 65.887 392.766 66.7251 399.058 67.8074C403.009 72.8216 406.813 78.0765 410.459 83.5568C411.51 85.1368 412.548 86.7356 413.573 88.3526ZM427.604 111.087C423.907 103.773 419.964 96.7387 415.793 90.0107C417.634 90.5347 419.462 91.0767 421.275 91.6367C427.565 93.5789 433.683 95.7362 439.612 98.1029C442.435 103.829 445.063 109.761 447.491 115.88C448.19 117.644 448.873 119.423 449.539 121.217C442.506 117.584 435.185 114.202 427.604 111.087ZM448.42 115.511C446.125 109.724 443.649 104.103 441 98.6618C449.233 102.01 457.095 105.766 464.537 109.913C467.675 117.835 470.369 126.12 472.611 134.721C467.563 131.381 462.314 128.191 456.877 125.157C454.896 124.052 452.889 122.967 450.858 121.903C450.07 119.751 449.257 117.62 448.42 115.511ZM473.858 135.551C471.657 126.941 469.007 118.636 465.915 110.688C473.82 115.176 481.242 120.111 488.122 125.474C490.878 133.751 493.049 142.396 494.637 151.345C488.179 145.775 481.238 140.502 473.858 135.551ZM495.832 152.385C494.308 143.474 492.212 134.856 489.541 126.593C496.66 132.265 503.182 138.406 509.04 144.993C511.592 153.43 513.417 162.2 514.531 171.234C508.882 164.637 502.632 158.344 495.832 152.385ZM515.702 172.617C514.688 163.741 512.997 155.111 510.613 146.79C516.391 153.505 521.489 160.671 525.839 168.266C528.35 176.65 530.035 185.281 530.925 194.094C526.534 186.634 521.44 179.464 515.702 172.617ZM532.124 196.168C531.421 187.993 530.045 179.966 527.971 172.137C531.739 179.258 534.864 186.739 537.292 194.563C539.72 202.388 541.379 210.325 542.303 218.33C539.582 210.701 536.172 203.305 532.124 196.168ZM532.31 198.557C536.565 206.326 540.062 214.395 542.737 222.728C543.45 231.45 543.304 240.242 542.342 249.047C539.598 240.838 536.106 232.768 531.918 224.878C532.772 215.985 532.912 207.192 532.31 198.557ZM543.084 251.325C544.096 243.183 544.419 235.046 544.017 226.957C546.223 234.705 547.724 242.672 548.472 250.829C549.22 258.987 549.192 267.094 548.433 275.114C547.356 267.088 545.559 259.146 543.084 251.325ZM531.735 226.68C535.931 234.758 539.391 243.019 542.064 251.419C540.963 260.164 539.063 268.918 536.406 277.624C533.93 269.3 530.779 261.01 526.992 252.802C529.224 244.041 530.814 235.316 531.735 226.68ZM536.913 279.363C539.597 270.843 541.563 262.271 542.769 253.7C545.316 262.183 547.058 270.8 547.943 279.505C546.827 288.186 544.857 296.755 542.085 305.169C541.107 296.57 539.37 287.95 536.913 279.363ZM526.595 254.335C530.352 262.612 533.455 270.966 535.869 279.349C533.233 287.666 529.909 295.936 525.933 304.11C523.982 295.808 521.466 287.463 518.406 279.119C521.687 270.859 524.424 262.583 526.595 254.335ZM526.289 305.654C530.293 297.548 533.663 289.344 536.36 281.088C538.785 289.86 540.452 298.66 541.32 307.431C538.425 315.758 534.746 323.926 530.336 331.89C529.644 323.234 528.287 314.47 526.289 305.654ZM517.848 280.51C520.868 288.868 523.338 297.223 525.236 305.529C521.448 313.161 517.093 320.708 512.202 328.128C511.306 322.143 510.164 316.108 508.781 310.038C508.277 307.826 507.74 305.61 507.172 303.389C508.244 301.362 509.284 299.332 510.292 297.298C513.056 291.72 515.577 286.119 517.848 280.51ZM512.419 329.611C517.346 322.214 521.744 314.687 525.582 307.071C527.536 315.948 528.834 324.765 529.452 333.466C525.145 341.053 520.174 348.451 514.586 355.62C514.404 347.094 513.678 338.408 512.419 329.611ZM507.806 310.26C509.269 316.679 510.46 323.056 511.375 329.374C507.827 334.682 504.004 339.924 499.919 345.085C498.741 346.573 497.541 348.055 496.319 349.529C495.949 341.622 495.218 333.592 494.125 325.47C498.611 318.61 502.732 311.678 506.473 304.701C506.94 306.557 507.384 308.41 507.806 310.26ZM496.385 351.015C497.855 349.255 499.294 347.485 500.703 345.706C504.566 340.824 508.197 335.87 511.584 330.855C512.801 339.658 513.479 348.344 513.609 356.862C508.317 363.54 502.488 370.016 496.161 376.258C496.529 370.218 496.667 364.079 496.576 357.855C496.543 355.586 496.479 353.305 496.385 351.015ZM493.286 326.746C494.34 334.825 495.034 342.81 495.369 350.67C490.316 356.7 484.901 362.61 479.144 368.376C479.676 360.851 479.925 353.189 479.887 345.412C484.654 339.267 489.123 333.038 493.286 326.746ZM479.033 369.9C484.847 364.123 490.318 358.199 495.428 352.153C495.499 354.066 495.548 355.972 495.576 357.869C495.672 364.451 495.512 370.935 495.093 377.305C490.519 381.759 485.69 386.092 480.62 390.292C479.159 391.502 477.678 392.701 476.177 393.889C477.459 386.078 478.413 378.071 479.033 369.9ZM478.891 346.69C478.897 354.4 478.62 361.995 478.064 369.453C472.752 374.717 467.153 379.859 461.284 384.859C462.704 377.836 463.906 370.669 464.883 363.376C469.797 357.898 474.469 352.33 478.891 346.69ZM460.959 386.447C466.899 381.427 472.567 376.263 477.946 370.974C477.298 379.095 476.317 387.049 475.011 394.807C468.814 399.655 462.289 404.311 455.459 408.753C457.543 401.504 459.379 394.061 460.959 386.447ZM463.694 364.694C462.697 371.896 461.48 378.972 460.05 385.905C454.637 390.469 448.997 394.913 443.142 399.224C445.392 392.809 447.476 386.251 449.387 379.561C454.357 374.691 459.128 369.731 463.694 364.694ZM442.55 400.897C448.495 396.561 454.222 392.086 459.719 387.489C458.122 395.032 456.272 402.403 454.178 409.582C447.888 413.626 441.343 417.492 434.563 421.162C437.412 414.588 440.078 407.827 442.55 400.897ZM447.94 380.971C446.029 387.537 443.95 393.975 441.711 400.271C436.308 404.204 430.724 408.024 424.968 411.72C427.955 406.01 430.818 400.161 433.551 394.18C438.513 389.862 443.311 385.455 447.94 380.971ZM431.722 395.761C429.026 401.572 426.204 407.256 423.267 412.805C417.964 416.167 412.518 419.423 406.935 422.565C410.53 417.65 414.037 412.602 417.45 407.425C422.344 403.619 427.103 399.728 431.722 395.761ZM414.986 409.326C411.684 414.252 408.295 419.059 404.827 423.742C399.726 426.57 394.513 429.302 389.193 431.933C393.211 427.905 397.173 423.757 401.072 419.489C405.821 416.178 410.46 412.788 414.986 409.326ZM397.328 422.067C393.735 425.912 390.091 429.657 386.401 433.299C381.736 435.559 376.991 437.741 372.168 439.842C376.286 436.822 380.374 433.703 384.427 430.485C388.81 427.743 393.111 424.936 397.328 422.067ZM376.807 435.135C373.886 437.351 370.948 439.516 367.996 441.63C364.65 443.042 361.269 444.414 357.852 445.745C361.04 444.07 364.221 442.345 367.392 440.57C370.568 438.792 373.707 436.98 376.807 435.135ZM335.965 456.416C340.622 454.318 345.27 452.117 349.904 449.81C354.767 448.038 359.563 446.184 364.29 444.252C359.975 447.268 355.63 450.175 351.261 452.972C346.224 454.214 341.124 455.363 335.965 456.416ZM331.137 456.136C334.617 455.057 338.065 453.936 341.483 452.775C338.164 454.336 334.84 455.843 331.512 457.298C327.946 457.983 324.352 458.622 320.732 459.214C324.198 458.239 327.667 457.213 331.137 456.136ZM312.113 461.538C317.238 460.816 322.316 459.999 327.342 459.092C322.489 461.146 317.63 463.088 312.77 464.918C307.582 465.085 302.352 465.149 297.085 465.106C302.082 464.021 307.093 462.832 312.113 461.538ZM292.638 466.044C298.422 466.157 304.164 466.141 309.857 466.001C304.288 468.046 298.719 469.943 293.159 471.694C287.373 470.984 281.551 470.13 275.703 469.132C281.324 468.235 286.972 467.206 292.638 466.044ZM295.557 471.981C301.356 470.117 307.162 468.094 312.968 465.912C319.166 465.709 325.305 465.358 331.376 464.863C325.777 467.981 320.152 470.922 314.512 473.685C308.244 473.288 301.922 472.721 295.557 471.981ZM272.627 469.61C278.734 470.7 284.812 471.634 290.854 472.412C284.732 474.296 278.621 476.003 272.532 477.533C266.484 475.841 260.418 473.972 254.345 471.925C260.401 471.308 266.499 470.537 272.627 469.61ZM274.477 478.071C280.717 476.47 286.98 474.685 293.253 472.713C299.782 473.512 306.267 474.129 312.697 474.568C306.54 477.542 300.365 480.304 294.189 482.853C287.65 481.469 281.074 479.876 274.477 478.071ZM251.939 472.162C258.16 474.301 264.375 476.253 270.573 478.019C263.93 479.648 257.314 481.067 250.74 482.276C244.631 479.563 238.53 476.637 232.452 473.5C238.891 473.231 245.391 472.787 251.939 472.162ZM252.362 482.991C259.044 481.732 265.768 480.258 272.518 478.567C279.221 480.437 285.903 482.089 292.548 483.524C285.812 486.263 279.074 488.747 272.352 490.976C265.693 488.57 259.023 485.907 252.362 482.991ZM230.433 473.578C236.601 476.8 242.793 479.806 248.996 482.592C241.838 483.87 234.731 484.899 227.694 485.681C221.68 481.943 215.709 477.952 209.8 473.714C216.597 473.872 223.479 473.828 230.433 473.578ZM229.07 486.532C236.189 485.712 243.378 484.64 250.617 483.315C257.346 486.296 264.085 489.019 270.815 491.481C263.484 493.87 256.174 495.954 248.909 497.73C242.26 494.304 235.64 490.569 229.07 486.532ZM208.025 473.669C213.988 477.983 220.013 482.048 226.085 485.856C218.418 486.668 210.835 487.186 203.361 487.413C197.57 482.68 191.87 477.65 186.283 472.335C193.417 473.013 200.67 473.459 208.025 473.669ZM204.545 488.375C212.084 488.117 219.73 487.564 227.46 486.713C234.07 490.812 240.733 494.606 247.426 498.088C239.502 499.981 231.633 501.507 223.851 502.661C217.325 498.266 210.881 493.498 204.545 488.375ZM184.671 472.178C190.284 477.561 196.013 482.658 201.836 487.455C193.69 487.659 185.675 487.516 177.822 487.027C172.352 481.371 167.04 475.367 161.907 469.039C169.336 470.354 176.932 471.402 184.671 472.178ZM178.856 488.091C186.76 488.55 194.824 488.662 203.017 488.424C209.371 493.602 215.834 498.425 222.383 502.875C220.486 503.146 218.594 503.394 216.709 503.62C210.173 504.404 203.707 504.922 197.329 505.171C192.42 501.087 187.605 496.737 182.898 492.133C181.542 490.807 180.194 489.459 178.856 488.091ZM160.403 468.768C165.541 475.155 170.861 481.216 176.341 486.931C174.43 486.801 172.53 486.651 170.639 486.48C164.083 485.888 157.65 485.05 151.358 483.968C147.407 478.953 143.602 473.697 139.956 468.216C138.904 466.636 137.866 465.037 136.841 463.42C144.476 465.512 152.34 467.298 160.403 468.768ZM152.288 485.139C158.257 486.137 164.349 486.916 170.549 487.476C172.81 487.68 175.084 487.855 177.372 488.001C178.968 489.646 180.577 491.262 182.199 492.848C186.651 497.202 191.2 501.331 195.834 505.225C186.951 505.515 178.241 505.282 169.755 504.52C163.666 498.559 157.834 492.085 152.288 485.139ZM139.123 468.77C142.572 473.954 146.162 478.938 149.885 483.709C141.136 482.146 132.665 480.107 124.522 477.597C119.806 470.501 115.448 462.956 111.467 455.009C117.098 457.225 122.895 459.255 128.844 461.091C131.012 461.761 133.201 462.405 135.408 463.023C136.628 464.965 137.866 466.881 139.123 468.77ZM110.074 454.455C114.017 462.421 118.336 469.994 123.013 477.126C114.348 474.38 106.062 471.096 98.2166 467.28C93.7997 459.756 89.8788 451.751 86.4644 443.326C93.9395 447.432 101.825 451.147 110.074 454.455ZM85.079 442.558C88.423 450.958 92.2653 458.952 96.5961 466.481C88.4534 462.412 80.7973 457.762 73.6981 452.537C69.4469 444.814 65.8386 436.615 62.8707 428.008C69.7673 433.288 77.1894 438.143 85.079 442.558ZM61.438 426.9C64.275 435.371 67.7233 443.462 71.7862 451.105C64.7379 445.738 58.2609 439.789 52.4271 433.263C48.2278 425.585 44.7856 417.494 42.083 409.059C47.9293 415.442 54.4022 421.395 61.438 426.9ZM40.479 407.279C42.866 415.129 45.8805 422.694 49.537 429.92C44.371 423.739 39.7594 417.072 35.7582 409.924C31.7564 402.775 28.4837 395.357 25.9156 387.721C30.1632 394.615 35.0358 401.14 40.479 407.279ZM39.8006 404.981C34.0235 398.267 28.9261 391.103 24.5771 383.509C22.0654 375.126 20.3804 366.495 19.4904 357.682C23.8817 365.14 28.9751 372.309 34.7124 379.155C35.7258 388.03 37.4163 396.66 39.8006 404.981ZM18.2914 355.607C18.9944 363.782 20.3704 371.81 22.4451 379.639C18.6759 372.517 15.5504 365.035 13.1222 357.21C10.6944 349.385 9.03561 341.45 8.11124 333.446C10.8329 341.074 14.2429 348.47 18.2914 355.607ZM34.5164 377.354C28.7327 370.326 23.6301 362.964 19.2699 355.304C18.5276 346.52 18.5664 337.563 19.3554 328.495C23.5084 336.122 28.3136 343.576 33.7252 350.818C33.3636 359.851 33.6222 368.716 34.5164 377.354ZM18.4976 326.899C17.6437 335.791 17.5031 344.584 18.1055 353.219C13.85 345.45 10.3531 337.381 7.67756 329.049C6.96367 320.326 7.1098 311.533 8.07163 302.727C10.8165 310.937 14.3085 319.008 18.4976 326.899ZM33.7948 349.236C28.3988 341.921 23.6257 334.394 19.5217 326.696C20.3706 318.013 21.9034 309.232 24.0929 300.41C27.7269 308.125 31.9235 315.765 36.6521 323.291C35.1598 332.052 34.203 340.717 33.7948 349.236ZM23.4235 298.974C21.1917 307.735 19.6015 316.461 18.6802 325.097C14.4836 317.018 11.0228 308.756 8.35036 300.355C9.45051 291.609 11.351 282.854 14.0085 274.148C16.4849 282.473 19.6355 290.764 23.4235 298.974ZM36.9085 321.815C32.2161 314.267 28.0633 306.607 24.4797 298.877C26.5978 290.624 29.2886 282.337 32.53 274.062C34.6505 279.729 37.0215 285.394 39.6364 291.043C40.59 293.103 41.576 295.161 42.5942 297.216C41.9669 299.421 41.3716 301.624 40.8086 303.823C39.2644 309.853 37.963 315.856 36.9085 321.815ZM32.0095 272.657C28.7282 280.917 25.991 289.193 23.8206 297.44C20.063 289.163 16.959 280.807 14.5451 272.423C17.1808 264.106 20.5054 255.837 24.4811 247.663C26.4319 255.966 28.9485 264.312 32.0095 272.657ZM40.5439 290.623C37.7789 284.65 35.2883 278.66 33.08 272.671C35.447 266.742 38.0962 260.819 41.0194 254.921C41.862 253.221 42.7274 251.522 43.6154 249.827C45.6215 257.485 48.0069 265.188 50.7647 272.906C47.8029 280.548 45.2138 288.185 43.005 295.787C42.1619 294.067 41.3415 292.346 40.5439 290.623ZM43.2427 248.387C42.1708 250.414 41.1309 252.444 40.1234 254.477C37.3589 260.055 34.8377 265.656 32.5671 271.266C29.5464 262.907 27.0764 254.551 25.1782 246.244C28.9659 238.612 33.3209 231.065 38.2122 223.645C39.1081 229.63 40.2496 235.665 41.6331 241.735C42.1375 243.948 42.6741 246.166 43.2427 248.387ZM51.3205 271.483C48.6095 263.799 46.2696 256.133 44.3076 248.514C47.9967 241.564 52.0642 234.658 56.4965 227.821C57.5415 235.293 58.8913 242.84 60.5453 250.439C57.1604 257.441 54.0835 264.463 51.3205 271.483ZM56.2888 226.307C51.8029 233.167 47.6826 240.098 43.9415 247.075C43.4745 245.218 43.03 243.364 42.6081 241.513C41.1452 235.094 39.9542 228.717 39.0393 222.399C42.5873 217.091 46.4098 211.849 50.4954 206.687C51.6733 205.199 52.8729 203.718 54.0941 202.244C54.4641 210.152 55.1958 218.184 56.2888 226.307ZM61.2543 248.982C59.6448 241.441 58.3365 233.954 57.3298 226.543C61.4312 220.289 65.8379 214.096 70.5394 207.984C70.6109 215.15 70.9253 222.411 71.4862 229.749C67.8186 236.129 64.4064 242.546 61.2543 248.982ZM70.5274 206.364C65.7605 212.509 61.2906 218.739 57.1284 225.031C56.074 216.951 55.3791 208.965 55.0441 201.103C60.0977 195.073 65.5125 189.162 71.2696 183.397C70.7383 190.923 70.4894 198.587 70.5274 206.364ZM72.3749 228.213C71.8522 220.96 71.5716 213.785 71.5293 206.705C75.8749 201.115 80.4674 195.595 85.2988 190.162C84.4314 196.905 83.7559 203.755 83.2779 210.697C79.4292 216.493 75.7937 222.337 72.3749 228.213ZM85.5298 188.402C80.6162 193.88 75.9448 199.447 71.5237 205.086C71.5172 197.375 71.7943 189.779 72.3504 182.32C77.6622 177.056 83.2601 171.914 89.1294 166.914C87.7093 173.939 86.507 181.107 85.5298 188.402ZM84.4003 209.017C84.9038 202.195 85.5989 195.466 86.4802 188.84C90.9476 183.869 95.6154 178.972 100.477 174.16C98.7426 180.367 97.1571 186.685 95.7276 193.106C91.772 198.361 87.9953 203.668 84.4003 209.017ZM101.027 172.216C96.0564 177.086 91.2849 182.046 86.7186 187.084C87.7154 179.88 88.9328 172.803 90.3637 165.868C95.7771 161.303 101.417 156.859 107.274 152.548C105.023 158.964 102.938 165.524 101.027 172.216ZM97.1877 191.179C98.6175 184.933 100.196 178.785 101.916 172.745C106.404 168.354 111.055 164.036 115.863 159.801C113.368 165.358 110.986 171.026 108.723 176.801C104.727 181.542 100.881 186.338 97.1877 191.179ZM110.739 174.429C112.945 168.923 115.261 163.515 117.68 158.211C122.08 154.387 126.609 150.632 131.264 146.954C128.169 151.732 125.154 156.617 122.226 161.606C118.273 165.829 114.443 170.105 110.739 174.429ZM125.352 158.305C128.068 153.794 130.856 149.37 133.711 145.037C137.803 141.856 141.991 138.735 146.271 135.678C142.866 139.494 139.511 143.401 136.211 147.398C132.497 150.988 128.877 154.625 125.352 158.305ZM142.698 141.265C145.099 138.484 147.527 135.749 149.981 133.061C152.966 130.98 155.995 128.931 159.068 126.914C156.293 129.219 153.536 131.571 150.798 133.971C148.053 136.377 145.353 138.809 142.698 141.265ZM183.023 111.205C179.85 112.981 176.715 114.792 173.618 116.635C176.541 114.417 179.481 112.25 182.435 110.135C185.783 108.723 189.166 107.35 192.585 106.018C189.39 107.697 186.202 109.426 183.023 111.205ZM200.533 101.954C195.668 103.726 190.87 105.581 186.141 107.513C190.458 104.497 194.804 101.59 199.175 98.7919C204.213 97.5498 209.315 96.4008 214.475 95.348C209.817 97.4456 205.169 99.6473 200.533 101.954ZM196.16 99.548C191.389 102.654 186.647 105.891 181.943 109.257C176.61 111.509 171.368 113.86 166.221 116.305C170.478 112.171 174.794 108.171 179.162 104.309C184.74 102.604 190.408 101.015 196.16 99.548ZM218.63 93.5053C212.949 94.5977 207.338 95.8063 201.799 97.1266C206.818 93.9709 211.867 90.9592 216.938 88.0924C222.744 87.5847 228.614 87.2094 234.54 86.9699C229.232 89.0145 223.926 91.1928 218.63 93.5053ZM214.534 88.3105C209.252 91.3374 203.996 94.5211 198.775 97.8606C192.75 99.3484 186.815 100.969 180.976 102.716C185.803 98.5044 190.691 94.4597 195.631 90.5856C201.847 89.6705 208.151 88.9105 214.534 88.3105ZM237.449 85.8629C231.251 86.0656 225.114 86.4164 219.044 86.911C224.642 83.7944 230.265 80.8542 235.904 78.0915C242.17 78.4886 248.491 79.0555 254.855 79.7952C249.057 81.6587 243.252 83.681 237.449 85.8629ZM233.89 77.9696C228.117 80.8331 222.362 83.8821 216.635 87.1151C210.08 87.6921 203.606 88.4371 197.223 89.3449C202.628 85.1549 208.094 81.1686 213.607 77.3905C220.293 77.384 227.058 77.5757 233.89 77.9696ZM257.159 79.0628C250.631 78.2648 244.147 77.6479 237.718 77.2088C243.879 74.2336 250.056 71.4703 256.235 68.9206C262.774 70.3039 269.348 71.8975 275.945 73.7024C269.701 75.3037 263.435 77.0902 257.159 79.0628ZM254.5 68.5582C248.225 71.179 241.954 74.0192 235.702 77.0768C228.755 76.6418 221.873 76.4149 215.072 76.3922C221.093 72.3124 227.168 68.4806 233.28 64.903C240.297 65.8721 247.376 67.0901 254.5 68.5582ZM277.904 73.206C271.202 71.3367 264.521 69.6846 257.876 68.2488C264.611 65.5111 271.348 63.0273 278.068 60.7995C284.726 63.2053 291.395 65.8674 298.055 68.7833C291.375 70.0419 284.653 71.5157 277.904 73.206ZM276.545 60.2536C269.752 62.5357 262.944 65.078 256.14 67.8784C248.936 66.3611 241.776 65.0985 234.679 64.0892C241.353 60.2285 248.069 56.6707 254.806 53.4234C262.023 55.3921 269.277 57.6699 276.545 60.2536ZM299.801 68.4592C293.073 65.4788 286.335 62.7562 279.605 60.2943C286.936 57.9056 294.246 55.822 301.51 54.0463C308.158 57.4714 314.777 61.2063 321.346 65.243C314.227 66.063 307.039 67.1346 299.801 68.4592ZM300.152 53.3511C292.831 55.1713 285.466 57.3023 278.082 59.7415C270.762 57.106 263.454 54.7792 256.182 52.7645C263.54 49.2652 270.92 46.1366 278.292 43.3888C285.591 46.3321 292.888 49.6564 300.152 53.3511ZM322.957 65.0616C316.347 60.9635 309.686 57.1695 302.993 53.6879C310.919 51.7949 318.788 50.2692 326.572 49.1144C333.097 53.5097 339.54 58.2768 345.876 63.3994C338.335 63.6576 330.688 64.211 322.957 65.0616ZM325.338 48.2887C317.512 49.4833 309.601 51.0504 301.636 52.9863C294.343 49.2408 287.016 45.8665 279.685 42.8744C281.483 42.2157 283.281 41.5797 285.078 40.9665C291.308 38.8407 297.526 36.9897 303.714 35.4193C309.364 38.3933 314.977 41.6472 320.538 45.1711C322.143 46.1879 323.743 47.2272 325.338 48.2887ZM347.403 63.3511C341.051 58.1729 334.588 53.3506 328.04 48.9008C329.934 48.6308 331.823 48.3828 333.706 48.1569C340.243 47.3728 346.711 46.855 353.091 46.6055C357.997 50.6882 362.81 55.0368 367.515 59.6386C368.873 60.9661 370.221 62.3146 371.56 63.6839C363.658 63.2252 355.595 63.1134 347.403 63.3511ZM351.938 45.6527C345.891 45.9181 339.769 46.4225 333.587 47.164C331.335 47.4341 329.076 47.7357 326.809 48.0686C324.904 46.7895 322.992 45.542 321.073 44.3264C315.814 40.9938 310.507 37.9008 305.165 35.0561C313.793 32.926 322.361 31.3433 330.819 30.3238C338.016 34.8896 345.068 40.0109 351.938 45.6527ZM368.215 58.9237C363.765 54.5717 359.218 50.4441 354.585 46.552C363.468 46.2624 372.178 46.4956 380.664 47.2573C386.752 53.2178 392.583 59.6912 398.128 66.6358C392.159 65.6383 386.067 64.8589 379.866 64.299C377.606 64.0949 375.332 63.92 373.044 63.7742C371.447 62.1279 369.837 60.5108 368.215 58.9237ZM379.53 46.156C371.032 45.4454 362.317 45.2595 353.435 45.5919C346.592 39.9171 339.565 34.755 332.389 30.141C341.422 29.1252 350.328 28.7551 359.047 29.05C366.144 34.1278 372.983 39.8468 379.53 46.156ZM399.605 66.8874C394.093 59.9163 388.295 53.4081 382.238 47.4049C391.285 48.2896 400.072 49.7792 408.539 51.8807C414.423 58.3211 419.922 65.3347 425.013 72.8644C416.848 70.4025 408.362 68.4088 399.605 66.8874ZM426.528 73.3277C421.511 65.8076 416.091 58.788 410.291 52.3252C419.101 54.612 427.557 57.5689 435.587 61.2038C441.35 67.8729 446.583 75.1421 451.275 82.9417C443.432 79.212 435.163 76.0056 426.528 73.3277ZM452.907 83.7283C448.371 76.0333 443.317 68.8374 437.755 62.2063C445.766 65.9913 453.339 70.465 460.403 75.6354C466.105 82.271 471.153 89.4683 475.549 97.1553C468.503 92.1272 460.933 87.6496 452.907 83.7283ZM477.488 98.5627C473.522 91.3824 469.002 84.6107 463.924 78.3042C470.261 83.2756 476.157 88.8376 481.556 94.9965C486.956 101.156 491.699 107.73 495.798 114.664C490.21 108.804 484.088 103.435 477.488 98.5627ZM509.934 144.492C507.546 136.642 504.531 129.075 500.874 121.849C506.042 128.031 510.655 134.701 514.657 141.851C518.659 149 521.932 156.418 524.5 164.055C520.252 157.158 515.378 150.632 509.934 144.492ZM478.629 100.669C485.675 106.035 492.151 111.983 497.983 118.506C502.183 126.184 505.627 134.276 508.33 142.712C502.483 136.329 496.011 130.376 488.975 124.872C486.138 116.402 482.691 108.312 478.629 100.669ZM453.818 85.2938C461.961 89.3625 469.618 94.0128 476.717 99.2379C480.967 106.96 484.575 115.158 487.542 123.763C480.646 118.484 473.224 113.629 465.335 109.214C461.991 100.815 458.149 92.8217 453.818 85.2938ZM427.402 74.6489C436.067 77.3951 444.353 80.679 452.198 84.4949C456.615 92.0182 460.535 100.022 463.95 108.446C456.474 104.34 448.588 100.626 440.339 97.3169C436.397 89.3519 432.078 81.7803 427.402 74.6489ZM400.531 68.0657C409.28 69.6292 417.751 71.6681 425.893 74.1774C430.609 81.2734 434.966 88.8177 438.947 96.7637C433.316 94.547 427.518 92.518 421.57 90.6812C419.402 90.0117 417.214 89.3677 415.006 88.7494C413.787 86.8078 412.549 84.8921 411.292 83.0029C407.843 77.8201 404.253 72.8366 400.531 68.0657ZM1.94038 300.94C1.19223 292.781 1.21976 284.672 1.97999 276.65C3.05594 284.679 4.8537 292.624 7.33021 300.448C6.31803 308.592 5.99504 316.73 6.39683 324.82C4.19035 317.069 2.68857 309.1 1.94038 300.94ZM13.5011 272.409C10.8169 280.929 8.85107 289.502 7.64495 298.073C5.09735 289.588 3.3545 280.966 2.47033 272.258C3.58594 263.577 5.55722 255.008 8.32902 246.594C9.30673 255.196 11.0441 263.819 13.5011 272.409ZM8.07759 244.212C5.39447 251.966 3.38633 259.858 2.09718 267.854C1.55114 259.818 1.73928 251.714 2.70358 243.58C3.66829 235.443 5.38123 227.517 7.79282 219.828C7.17621 227.903 7.28259 236.046 8.07759 244.212ZM8.87937 241.954C8.15234 233.126 8.24014 224.334 9.18556 215.634C12.0809 207.377 15.79 199.406 20.2492 191.755C19.418 200.369 19.3251 209.161 19.9422 218.071C15.5458 225.846 11.8411 233.821 8.87937 241.954ZM20.4985 189.372C16.2631 196.397 12.6588 203.698 9.73606 211.249C10.8728 203.275 12.7417 195.387 15.3762 187.631C18.0102 179.876 21.3315 172.483 25.2862 165.467C23.0057 173.236 21.4178 181.221 20.4985 189.372ZM20.8422 216.499C20.2945 207.414 20.4935 198.46 21.4685 189.701C26.031 182.159 31.3278 174.934 37.2968 168.061C36.1735 176.672 35.6794 185.526 35.8007 194.564C30.1983 201.66 25.1966 208.984 20.8422 216.499ZM37.5406 166.266C31.6228 172.958 26.3403 179.99 21.752 187.33C22.8753 178.546 24.788 169.966 27.5199 161.654C32.07 154.176 37.3573 147.147 43.3125 140.587C40.7083 148.84 38.7894 157.422 37.5406 166.266ZM36.7872 193.325C36.7215 184.236 37.2842 175.342 38.4888 166.703C44.2791 160.178 50.6799 153.975 57.6367 148.125C56.0421 156.502 54.9464 165.148 54.3487 174.015C47.9915 180.226 42.1247 186.673 36.7872 193.325ZM57.9391 146.57C50.9842 152.346 44.5692 158.47 38.7478 164.915C40.1008 155.915 42.1571 147.197 44.932 138.832C50.9627 132.402 57.6456 126.437 64.9128 120.955C62.0237 129.145 59.6996 137.703 57.9391 146.57ZM55.4237 172.971C56.0642 164.108 57.2063 155.471 58.8505 147.112C65.415 141.681 72.4629 136.558 79.9495 131.768C78.3339 137.599 76.9223 143.576 75.7175 149.683C75.2784 151.909 74.8667 154.152 74.4826 156.412C72.6786 157.828 70.9022 159.26 69.1543 160.708C64.3603 164.679 59.7794 168.77 55.4237 172.971ZM80.3542 130.326C72.8446 135.079 65.7655 140.166 59.1617 145.563C60.9869 136.659 63.3865 128.076 66.361 119.875C73.3815 114.696 80.932 109.96 88.9532 105.683C85.6517 113.546 82.7822 121.777 80.3542 130.326ZM76.6986 149.876C77.9725 143.419 79.4782 137.11 81.2118 130.966C86.6121 127.561 92.2365 124.326 98.0686 121.273C99.7496 120.392 101.448 119.527 103.163 118.677C100.285 126.051 97.6872 133.684 95.3821 141.547C88.494 145.989 81.9103 150.646 75.6547 155.498C75.9834 153.612 76.3313 151.738 76.6986 149.876ZM103.707 117.294C101.649 118.303 99.6147 119.334 97.6047 120.387C92.0892 123.275 86.7572 126.324 81.6227 129.528C84.0919 120.991 87.0047 112.781 90.3509 104.945C97.9013 100.997 105.86 97.4516 114.179 94.3229C111.387 99.6905 108.763 105.243 106.315 110.965C105.423 113.052 104.553 115.162 103.707 117.294ZM96.6683 140.723C98.991 132.914 101.604 125.338 104.495 118.022C111.564 114.568 118.915 111.371 126.52 108.445C122.974 115.103 119.63 122.001 116.502 129.119C109.648 132.794 103.03 136.667 96.6683 140.723ZM127.241 107.099C119.58 110.011 112.172 113.197 105.044 116.643C105.758 114.866 106.488 113.104 107.235 111.359C109.823 105.308 112.608 99.4493 115.581 93.801C121.572 91.5922 127.746 89.5978 134.087 87.8231C135.913 87.3117 137.754 86.8185 139.608 86.3438C135.26 92.9586 131.131 99.8853 127.241 107.099ZM117.932 128.357C121.062 121.312 124.404 114.487 127.945 107.901C134.939 105.253 142.144 102.833 149.539 100.652C145.386 106.49 141.373 112.547 137.515 118.812C130.798 121.817 124.265 125.003 117.932 128.357ZM139.137 118.091C142.976 111.918 146.966 105.95 151.092 100.198C157.895 98.23 164.856 96.4637 171.959 94.9076C167.295 99.8516 162.724 104.994 158.258 110.328C151.736 112.755 145.358 115.346 139.137 118.091ZM160.154 109.628C164.569 104.407 169.086 99.373 173.692 94.5328C180.225 93.1375 186.877 91.9195 193.636 90.8852C188.586 94.8858 183.591 99.0642 178.662 103.417C172.376 105.342 166.203 107.415 160.154 109.628ZM211.834 77.3969C206.243 81.2643 200.701 85.3453 195.223 89.635C188.342 90.6533 181.569 91.8611 174.917 93.2517C179.957 88.0111 185.101 83.0019 190.334 78.2333C197.393 77.7228 204.566 77.4423 211.834 77.3969ZM188.72 78.3541C183.443 83.2018 178.258 88.2934 173.181 93.6195C165.984 95.1631 158.932 96.9214 152.039 98.8857C156.566 92.6443 161.254 86.6623 166.087 80.956C173.48 79.8192 181.032 78.9498 188.72 78.3541ZM213.297 76.391C205.941 76.4049 198.68 76.6584 191.532 77.1465C197.259 71.9812 203.091 67.1036 209.006 62.5258C216.471 62.9508 224.036 63.6703 231.677 64.6858C225.505 68.3316 219.373 72.2353 213.297 76.391ZM207.483 62.443C201.534 67.0845 195.671 72.028 189.916 77.261C182.159 77.8304 174.538 78.6771 167.077 79.7944C172.376 73.6036 177.847 67.7428 183.465 62.233C191.329 61.9532 199.345 62.0226 207.483 62.443ZM233.074 63.8652C225.371 62.8099 217.744 62.0537 210.215 61.5952C216.685 56.6431 223.252 52.0491 229.892 47.829C237.639 49.1898 245.463 50.9236 253.333 53.0258C246.55 56.3283 239.79 59.9441 233.074 63.8652ZM228.43 47.5763C221.766 51.8504 215.178 56.4991 208.69 61.5064C200.506 61.0508 192.442 60.9483 184.528 61.1968C185.902 59.8645 187.285 58.5532 188.676 57.2631C193.503 52.787 198.431 48.567 203.445 44.6154C209.815 45.0344 216.266 45.7238 222.779 46.6811C224.658 46.9573 226.541 47.2557 228.43 47.5763ZM254.708 52.3605C246.8 50.2144 238.936 48.4382 231.147 47.0364C232.768 46.019 234.393 45.0238 236.022 44.0512C241.675 40.6762 247.373 37.5726 253.099 34.7498C259.243 36.4838 265.408 38.4992 271.579 40.7894C273.357 41.4494 275.136 42.1322 276.914 42.8376C269.508 45.6333 262.096 48.8109 254.708 52.3605ZM251.659 34.3482C246.243 37.0499 240.855 40.0008 235.51 43.1926C233.562 44.3556 231.619 45.5506 229.683 46.7772C227.424 46.3838 225.171 46.0219 222.925 45.6918C216.765 44.7864 210.659 44.1195 204.622 43.6936C211.639 38.2379 218.822 33.3071 226.135 28.9351C234.565 30.1791 243.089 31.9892 251.659 34.3482ZM271.927 39.8519C266.091 37.686 260.258 35.7645 254.443 34.0929C262.441 30.2149 270.493 26.8852 278.557 24.1292C286.541 27.0978 294.499 30.6393 302.389 34.727C296.53 36.2436 290.647 38.0097 284.755 40.0201C282.607 40.7532 280.457 41.5187 278.307 42.3166C276.18 41.4627 274.053 40.6411 271.927 39.8519ZM277.073 23.5842C269.019 26.3921 260.981 29.7672 253.002 33.6837C244.443 31.2834 235.926 29.426 227.495 28.1294C235.335 23.5271 243.321 19.5665 251.407 16.2894C259.954 18.0416 268.527 20.484 277.073 23.5842ZM303.84 34.3562C295.971 30.2306 288.028 26.644 280.054 23.6239C288.678 20.7527 297.312 18.5395 305.901 17.0154C313.895 20.5053 321.769 24.6752 329.481 29.4823C321.021 30.5544 312.458 32.1846 303.84 34.3562ZM304.242 16.3013C295.704 17.8938 287.13 20.16 278.571 23.0686C270.09 19.9328 261.578 17.4389 253.085 15.6197C261.557 12.2911 270.135 9.71336 278.768 7.93398C287.352 9.94254 295.86 12.748 304.242 16.3013ZM331.054 29.2894C323.413 24.461 315.608 20.2534 307.682 16.7093C316.661 15.2148 325.588 14.4768 334.403 14.5313C342.379 18.2793 350.115 22.7905 357.572 28.0065C348.889 27.7894 340.031 28.2237 331.054 29.2894ZM332.233 13.5332C323.578 13.6066 314.823 14.4332 306.024 15.9785C297.83 12.4181 289.51 9.5667 281.111 7.47095C289.815 5.82479 298.568 4.99264 307.32 5.02322C315.837 7.04008 324.155 9.89668 332.233 13.5332ZM359.382 28.0613C352.11 22.8774 344.568 18.3603 336.791 14.5655C345.647 14.7649 354.384 15.7713 362.938 17.6212C370.846 21.3631 378.384 25.8842 385.526 31.1176C377.045 29.3903 368.309 28.3788 359.382 28.0613ZM387.87 31.6146C381.327 26.6692 374.444 22.3223 367.241 18.6269C375.054 20.591 382.703 23.2742 390.142 26.7051C397.577 30.1348 404.582 34.21 411.145 38.8756C403.657 35.7952 395.881 33.3811 387.87 31.6146ZM414.704 41.496C421.668 46.8043 428.108 52.7991 434.011 59.4095C426.074 55.9562 417.74 53.1502 409.073 50.9834C403.035 44.3966 396.592 38.4064 389.77 33.0748C398.389 35.1103 406.723 37.9098 414.704 41.496ZM418.705 43.3744C425.942 46.9209 432.871 51.1377 439.436 56.0427C446.003 60.9484 452.013 66.3971 457.468 72.3325C450.781 67.7593 443.673 63.7785 436.2 60.3831C430.824 54.179 424.989 48.4907 418.705 43.3744ZM360.852 29.1207C369.945 29.5254 378.831 30.6594 387.441 32.5449C394.468 37.872 401.101 43.8966 407.314 50.5533C398.866 48.5356 390.111 47.1185 381.108 46.2942C374.636 39.9791 367.872 34.2377 360.852 29.1207ZM44.0517 138.308C38.4455 144.302 33.3998 150.698 28.9694 157.48C31.7403 149.91 35.2102 142.578 39.4026 135.534C43.5936 128.493 48.3824 121.949 53.7128 115.906C49.8634 123.035 46.6474 130.521 44.0517 138.308ZM45.7024 136.571C48.6292 128.207 52.2869 120.207 56.691 112.641C62.6952 106.275 69.3266 100.501 76.5134 95.3237C72.2483 102.858 68.5858 110.856 65.5245 119.25C58.3449 124.566 51.7162 130.345 45.7024 136.571ZM66.9861 118.18C70.1818 109.654 74.0071 101.552 78.4626 93.9438C85.698 88.9095 93.4747 84.4645 101.723 80.6138C97.1925 88.0257 93.1386 95.916 89.5722 104.225C81.5684 108.429 74.0202 113.086 66.9861 118.18ZM102.675 79.0731C94.5479 82.7796 86.8628 87.0541 79.6862 91.8929C84.2862 84.3241 89.5249 77.2625 95.4028 70.78C102.6 65.8008 110.287 61.5313 118.393 57.9615C112.657 64.4424 107.414 71.5013 102.675 79.0731ZM90.9775 103.494C94.6149 95.162 98.7477 87.2632 103.364 79.8583C111.308 76.2521 119.678 73.1893 128.413 70.6743C123.548 77.6805 119.028 85.1366 114.875 92.996C106.541 96.0845 98.5591 99.5884 90.9775 103.494ZM129.322 69.3767C120.619 71.8244 112.267 74.81 104.327 78.3302C109.224 70.658 114.649 63.5305 120.587 57.0169C128.711 53.5964 137.243 50.8651 146.112 48.8131C140.141 55.1195 134.537 61.9926 129.322 69.3767ZM116.281 92.4799C120.473 84.6405 125.03 77.2129 129.934 70.2431C138.141 67.9509 146.663 66.1377 155.451 64.8071C151.603 69.4782 147.881 74.3653 144.296 79.4555C142.988 81.3115 141.699 83.1945 140.428 85.1039C138.206 85.6631 136.002 86.2486 133.817 86.8601C127.821 88.5385 121.971 90.4132 116.281 92.4799ZM156.408 63.6539C147.614 64.9421 139.077 66.7097 130.849 68.9539C136.138 61.5621 141.821 54.697 147.874 48.4152C156.395 46.5394 165.219 45.2838 174.287 44.6398C168.073 50.4799 162.103 56.8317 156.408 63.6539ZM145.113 80.0314C148.904 74.649 152.847 69.4962 156.931 64.588C163.248 63.6734 169.701 63.0067 176.27 62.5891C178.165 62.4686 180.069 62.3689 181.982 62.2899C176.352 67.8574 170.872 73.776 165.566 80.0245C157.467 81.2806 149.559 82.8569 141.871 84.7452C142.939 83.1551 144.02 81.5838 145.113 80.0314ZM187.996 56.5299C186.333 58.0725 184.681 59.6452 183.042 61.2477C180.751 61.3326 178.472 61.4471 176.207 61.5911C169.994 61.986 163.884 62.6032 157.891 63.4415C163.619 56.6468 169.62 50.3307 175.864 44.5341C184.368 43.9983 193.08 43.9966 201.952 44.5221C197.217 48.2906 192.561 52.2967 187.996 56.5299ZM203.128 43.593C194.258 43.0247 185.541 42.9789 177.027 43.4633C183.738 37.3321 190.725 31.7983 197.952 26.9119C206.676 26.8487 215.568 27.4553 224.571 28.7106C217.278 33.1313 210.118 38.1036 203.128 43.593ZM225.929 27.8948C216.983 26.591 208.139 25.9216 199.454 25.908C207.05 20.8897 214.907 16.5838 222.983 13.0479C231.795 13.228 240.7 14.2032 249.635 15.9359C241.615 19.2691 233.698 23.2692 225.929 27.8948ZM220.595 13.0185C212.716 16.6066 205.053 20.9235 197.643 25.9147C188.709 25.9949 179.949 26.7743 171.424 28.2761C178.707 23.2309 186.368 18.9092 194.377 15.377C202.977 13.7556 211.737 12.9822 220.595 13.0185ZM251.312 15.2495C242.558 13.4708 233.828 12.4116 225.178 12.1079C233.349 8.68831 241.739 6.0545 250.305 4.26512C259.054 4.46725 267.782 5.53183 276.439 7.40879C267.988 9.2802 259.596 11.9089 251.312 15.2495ZM245.886 4.23663C238.016 6.14562 230.304 8.76332 222.783 12.0431C214.579 11.8874 206.452 12.4166 198.449 13.6614C205.924 10.6583 213.69 8.33277 221.724 6.73628C229.761 5.13926 237.829 4.31906 245.886 4.23663ZM166.934 23.7365C174.463 20.5034 182.184 18.0238 190.048 16.2679C182.745 19.7723 175.744 23.9375 169.068 28.7107C161.01 30.2646 153.169 32.4726 145.599 35.3549C152.289 30.861 159.404 26.9698 166.934 23.7365ZM141.973 37.88C150.049 34.505 158.457 31.9266 167.13 30.1199C160.171 35.2671 153.574 41.0822 147.364 47.5041C138.643 49.44 130.236 52.0237 122.21 55.2652C128.283 48.8178 134.875 42.9992 141.973 37.88ZM175.446 43.5595C166.423 44.1442 157.633 45.3283 149.135 47.1209C155.52 40.6338 162.309 34.7893 169.472 29.652C178.13 27.9956 187.044 27.0978 196.146 26.9347C188.994 31.8623 182.082 37.4204 175.446 43.5595ZM137.924 39.6514C131.511 44.5967 125.532 50.1249 119.995 56.1802C112.438 59.3748 105.229 63.164 98.4253 67.5562C104.033 61.771 110.183 56.4866 116.875 51.7593C123.565 47.033 130.599 43.0034 137.924 39.6514ZM91.8111 73.3545C86.5665 79.5246 81.8667 86.1748 77.7105 93.2483C70.9828 97.944 64.7195 103.149 58.9773 108.859C63.2594 102.036 68.1751 95.5901 73.7365 89.5761C79.2988 83.5613 85.3422 78.1567 91.8111 73.3545ZM278.782 6.90963C270.79 5.05194 262.731 3.87998 254.645 3.43371C262.582 2.05023 270.662 1.39005 278.853 1.49887C287.045 1.60774 295.106 2.48249 303.003 4.07666C294.908 4.30772 286.82 5.26502 278.782 6.90963ZM164.58 81.1918C159.727 86.9674 155.022 93.0202 150.482 99.3338C143.014 101.503 135.736 103.916 128.671 106.559C132.567 99.404 136.698 92.5357 141.047 85.9797C148.68 84.0712 156.534 82.4725 164.58 81.1918ZM311.738 5.11226C319.789 5.40896 327.831 6.44317 335.821 8.25283C343.814 10.063 351.518 12.5953 358.913 15.7977C350.946 14.3402 342.835 13.5948 334.629 13.5321C327.197 10.0527 319.556 7.23021 311.738 5.11226ZM158.855 111.172C164.739 108.987 170.742 106.935 176.855 105.023C172.315 109.085 167.832 113.296 163.416 117.652C157.839 120.356 152.378 123.172 147.037 126.091C150.884 120.966 154.827 115.991 158.855 111.172ZM161.209 119.846C157.186 123.878 153.22 128.032 149.317 132.305C144.578 135.61 139.948 138.993 135.431 142.448C138.734 137.52 142.124 132.711 145.594 128.027C150.688 125.203 155.895 122.474 161.209 119.846ZM164 118.479C168.675 116.215 173.43 114.028 178.262 111.923C174.142 114.944 170.052 118.065 165.997 121.285C161.602 124.034 157.289 126.849 153.06 129.726C156.657 125.876 160.306 122.127 164 118.479ZM156.965 111.88C152.856 116.845 148.837 121.973 144.919 127.257C139.167 130.449 133.557 133.762 128.097 137.187C131.332 131.159 134.704 125.293 138.205 119.599C144.309 116.874 150.566 114.298 156.965 111.88ZM118.689 156.018C121.387 150.204 124.209 144.518 127.147 138.968C132.452 135.604 137.9 132.347 143.486 129.204C139.889 134.121 136.381 139.17 132.967 144.349C128.071 148.156 123.31 152.049 118.689 156.018ZM136.588 120.326C133.052 126.134 129.649 132.117 126.388 138.265C120.514 141.995 114.816 145.855 109.302 149.832C111.775 142.994 114.438 136.324 117.279 129.838C123.523 126.499 129.964 123.324 136.588 120.326ZM108.704 151.501C114.107 147.568 119.691 143.748 125.446 140.053C122.459 145.764 119.594 151.615 116.86 157.599C111.899 161.916 107.102 166.322 102.474 170.806C104.385 164.238 106.464 157.799 108.704 151.501ZM115.854 130.604C113.005 137.181 110.338 143.942 107.866 150.875C101.92 155.212 96.1923 159.686 90.6948 164.284C92.2918 156.739 94.1424 149.366 96.2372 142.186C102.528 138.141 109.073 134.275 115.854 130.604ZM94.9561 143.015C92.8716 150.266 91.0345 157.711 89.4545 165.326C83.5144 170.346 77.8472 175.51 72.4678 180.799C73.1164 172.676 74.0972 164.72 75.4041 156.96C81.6009 152.112 88.1262 147.457 94.9561 143.015ZM74.2377 157.878C72.9552 165.691 72.0011 173.7 71.3812 181.873C65.567 187.65 60.0952 193.574 54.9852 199.62C54.9145 197.707 54.8653 195.801 54.8375 193.904C54.7409 187.321 54.902 180.834 55.3208 174.463C59.8945 170.009 64.7231 165.677 69.7922 161.478C71.2542 160.267 72.7361 159.067 74.2377 157.878ZM53.8376 193.918C53.8708 196.187 53.9346 198.468 54.0288 200.759C52.5589 202.518 51.1196 204.288 49.7113 206.067C45.8475 210.948 42.217 215.903 38.8297 220.918C37.613 212.113 36.9345 203.425 36.8049 194.905C42.0967 188.227 47.9255 181.751 54.2528 175.51C53.8846 181.551 53.7463 187.693 53.8376 193.918ZM35.8282 196.148C36.0099 204.675 36.736 213.363 37.9952 222.162C33.0682 229.559 28.67 237.086 24.8322 244.702C22.8776 235.824 21.5786 227.005 20.9606 218.302C25.2679 210.715 30.2395 203.317 35.8282 196.148ZM20.077 219.878C20.7685 228.536 22.1264 237.301 24.1249 246.119C20.1206 254.224 16.7512 262.428 14.0545 270.684C11.6292 261.908 9.96199 253.106 9.09488 244.332C11.9893 236.007 15.668 227.84 20.077 219.878ZM218.928 94.4663C222.495 93.7813 226.09 93.1422 229.71 92.5502C226.235 93.5281 222.756 94.5566 219.277 95.6363C215.806 96.7134 212.365 97.8316 208.954 98.9898C212.274 97.4286 215.599 95.9208 218.928 94.4663ZM123.033 162.208C125.508 159.565 128.032 156.944 130.604 154.345C128.378 157.166 126.179 160.029 124.009 162.934C121.838 165.841 119.714 168.763 117.64 171.7C119.402 168.496 121.2 165.331 123.033 162.208ZM119.948 165.539C117.419 169.964 114.958 174.467 112.568 179.047C109.671 183.346 106.875 187.672 104.182 192.021C105.9 187.048 107.705 182.147 109.594 177.319C112.941 173.352 116.392 169.424 119.948 165.539ZM107.6 179.703C105.568 185.016 103.636 190.416 101.811 195.899C98.8223 200.851 95.9654 205.83 93.241 210.829C94.2539 204.988 95.394 199.221 96.6567 193.534C100.164 188.88 103.812 184.267 107.6 179.703ZM92.7224 213.894C95.1707 209.318 97.7301 204.758 100.4 200.219C98.8409 205.09 97.3648 210.024 95.9757 215.018C94.0394 219.817 92.2083 224.62 90.4816 229.425C91.1288 224.195 91.8768 219.017 92.7224 213.894ZM95.2098 195.467C93.9255 201.417 92.7747 207.453 91.7627 213.568C88.8388 219.038 86.073 224.53 83.4657 230.035C83.5656 223.631 83.8309 217.292 84.2574 211.03C87.735 205.801 91.3867 200.61 95.2098 195.467ZM83.436 232.449C85.9 227.166 88.5104 221.894 91.267 216.64C90.3823 222.267 89.6149 227.959 88.9688 233.711C87.0752 239.175 85.3163 244.639 83.6911 250.095C83.467 244.165 83.383 238.28 83.436 232.449ZM83.1448 212.713C82.7387 219.142 82.5016 225.649 82.4381 232.223C79.6616 238.186 77.0708 244.162 74.6664 250.141C73.7411 243.367 73.0222 236.642 72.5069 229.98C75.8427 224.19 79.3899 218.429 83.1448 212.713ZM74.9452 252.14C77.2595 246.302 79.7521 240.466 82.4226 234.641C82.4032 240.734 82.5327 246.884 82.8146 253.081C81.0925 259.038 79.5296 264.983 78.1245 270.908C76.8896 264.618 75.8306 258.359 74.9452 252.14ZM71.6261 231.519C72.1795 238.293 72.9425 245.131 73.9178 252.018C71.3579 258.489 69.0163 264.962 66.8935 271.421C64.875 264.437 63.1092 257.479 61.5961 250.564C64.6849 244.193 68.0297 237.838 71.6261 231.519ZM67.3902 273.123C69.4495 266.764 71.7219 260.391 74.2068 254.018C75.1467 260.395 76.2685 266.814 77.5743 273.262C76.098 279.672 74.8065 286.057 73.6977 292.405C71.3827 285.967 69.2801 279.535 67.3902 273.123ZM60.894 252.022C62.4535 259.015 64.2701 266.05 66.3437 273.109C64.0827 280.112 62.0793 287.098 60.3342 294.049C57.1927 287.009 54.3569 279.958 51.832 272.92C54.5434 265.951 57.566 258.977 60.894 252.022ZM60.9973 295.525C62.6939 288.651 64.6445 281.74 66.8484 274.811C68.7991 281.325 70.9683 287.859 73.3557 294.397C72.1974 301.257 71.2527 308.075 70.5194 314.833C67.0916 308.419 63.9162 301.977 60.9973 295.525ZM51.2825 274.344C53.8577 281.433 56.7465 288.534 59.9436 295.622C58.0883 303.174 56.5386 310.683 55.2955 318.124C51.047 311.173 47.1649 304.162 43.662 297.118C45.8257 289.554 48.3684 281.952 51.2825 274.344ZM56.0946 319.424C57.2978 312.043 58.8044 304.592 60.6136 297.097C63.5941 303.615 66.8351 310.122 70.3326 316.598C69.5771 323.918 69.07 331.168 68.8082 338.329C64.27 332.094 60.0289 325.785 56.0946 319.424ZM43.2579 298.546C46.8119 305.619 50.7462 312.657 55.0477 319.632C53.7394 327.723 52.7946 335.732 52.2147 343.628C51.0337 342.123 49.8744 340.611 48.7372 339.093C44.79 333.824 41.108 328.482 37.7021 323.082C38.7846 316.791 40.1445 310.448 41.7774 304.071C42.2482 302.232 42.7418 300.39 43.2579 298.546ZM53.1341 344.793C53.6777 336.944 54.5845 328.979 55.8531 320.93C59.8472 327.332 64.1505 333.678 68.7531 339.949C68.5086 347.722 68.5539 355.39 68.885 362.927C63.2825 357.009 58.0261 350.957 53.1341 344.793ZM47.9369 339.692C49.2968 341.508 50.688 343.314 52.11 345.111C51.9549 347.398 51.8307 349.675 51.7371 351.942C51.4805 358.163 51.4556 364.306 51.6631 370.355C45.5045 363.948 39.8502 357.32 34.7382 350.504C35.0941 341.991 36.0032 333.326 37.4533 324.557C40.7063 329.66 44.204 334.71 47.9369 339.692ZM52.703 371.43C52.4536 365.05 52.4649 358.561 52.7363 351.983C52.8145 350.087 52.9143 348.184 53.0357 346.274C57.9838 352.455 63.2968 358.523 68.9561 364.453C69.3586 372.639 70.0996 380.669 71.1739 388.512C69.7046 387.285 68.2553 386.046 66.8263 384.797C61.8697 380.463 57.1573 376.004 52.703 371.43ZM34.6784 352.083C39.8369 358.874 45.5299 365.475 51.7193 371.852C52.0813 380.732 52.9469 389.405 54.3187 397.822C47.5201 391.789 41.2866 385.42 35.6718 378.743C34.6972 370.074 34.371 361.167 34.6784 352.083ZM55.5051 398.867C54.0834 390.466 53.171 381.802 52.7662 372.924C57.0093 377.24 61.4806 381.452 66.1681 385.549C67.8767 387.043 69.6141 388.522 71.3798 389.985C71.7037 392.254 72.0557 394.508 72.4356 396.746C73.4777 402.882 74.7301 408.895 76.1903 414.767C68.833 409.78 61.9234 404.471 55.5051 398.867ZM35.8832 380.537C41.5311 387.134 47.7809 393.426 54.5796 399.385C56.1042 408.296 58.2007 416.914 60.8718 425.179C53.7527 419.506 47.2307 413.366 41.3729 406.779C38.8209 398.342 36.9967 389.572 35.8832 380.537ZM84.4989 441.084C76.5938 436.596 69.1715 431.661 62.2908 426.297C59.5345 418.02 57.3634 409.375 55.7751 400.424C62.2335 405.995 69.1754 411.268 76.5565 416.22C78.7568 424.831 81.407 433.136 84.4989 441.084ZM85.8766 441.859C82.7392 433.937 80.0451 425.651 77.8033 417.05C82.8503 420.389 88.0988 423.579 93.5351 426.612C95.5168 427.718 97.5235 428.803 99.5546 429.867C100.344 432.02 101.157 434.152 101.994 436.262C104.289 442.048 106.765 447.67 109.414 453.111C101.181 449.762 93.3194 446.007 85.8766 441.859ZM102.923 435.893C102.223 434.128 101.54 432.348 100.873 430.553C107.907 434.186 115.228 437.568 122.809 440.683C126.506 447.998 130.45 455.033 134.622 461.762C132.78 461.238 130.952 460.696 129.139 460.136C122.849 458.194 116.73 456.036 110.801 453.669C107.979 447.943 105.35 442.012 102.923 435.893ZM122.123 439.318C114.599 436.191 107.336 432.8 100.361 429.16C97.6654 421.769 95.2547 414.125 93.1402 406.258C99.392 410.481 105.904 414.528 112.658 418.384C115.596 425.583 118.756 432.568 122.123 439.318ZM136.05 462.164C131.876 455.494 127.928 448.517 124.224 441.26C131.216 444.091 138.427 446.696 145.835 449.063C150.207 455.496 154.75 461.672 159.449 467.575C151.439 466.082 143.63 464.275 136.05 462.164ZM144.928 447.72C137.593 445.344 130.454 442.733 123.534 439.899C120.169 433.222 117.009 426.31 114.068 419.183C120.309 422.704 126.754 426.063 133.389 429.246C137.08 435.611 140.931 441.773 144.928 447.72ZM160.949 467.851C156.268 462.018 151.74 455.912 147.38 449.552C154.218 451.698 161.221 453.643 168.373 455.378C173.308 460.838 178.357 466.066 183.504 471.053C175.834 470.254 168.308 469.184 160.949 467.851ZM167.186 454.058C160.127 452.313 153.216 450.363 146.468 448.215C142.496 442.355 138.666 436.283 134.992 430.009C141.138 432.918 147.444 435.678 153.899 438.278C158.222 443.728 162.655 448.991 167.186 454.058ZM185.114 471.217C180.008 466.31 174.998 461.165 170.099 455.791C176.714 457.359 183.454 458.746 190.307 459.947C195.67 464.382 201.102 468.609 206.59 472.624C199.323 472.386 192.159 471.915 185.114 471.217ZM188.753 458.655C182.023 457.442 175.404 456.047 168.908 454.478C164.432 449.517 160.051 444.364 155.775 439.027C161.766 441.401 167.883 443.638 174.117 445.73C178.929 450.212 183.811 454.522 188.753 458.655ZM208.362 472.678C202.95 468.754 197.591 464.623 192.298 460.29C198.651 461.367 205.1 462.283 211.634 463.034C217.275 466.419 222.949 469.621 228.645 472.637C221.808 472.85 215.043 472.862 208.362 472.678ZM209.565 461.783C203.204 461.014 196.926 460.087 190.74 459.008C185.904 455.004 181.125 450.831 176.412 446.492C182.198 448.393 188.085 450.169 194.064 451.815C199.195 455.293 204.365 458.616 209.565 461.783ZM230.661 472.569C225.097 469.657 219.551 466.567 214.037 463.302C220.092 463.958 226.219 464.471 232.41 464.839C238.156 467.175 243.907 469.352 249.655 471.369C243.272 471.94 236.937 472.339 230.661 472.569ZM229.532 463.655C223.613 463.258 217.755 462.727 211.963 462.065C206.969 459.064 202.001 455.918 197.067 452.63C202.569 454.097 208.148 455.455 213.798 456.698C219.032 459.151 224.279 461.47 229.532 463.655ZM252.059 471.146C246.547 469.248 241.031 467.203 235.517 465.011C241.198 465.302 246.932 465.47 252.711 465.511C258.347 466.825 263.967 468.003 269.566 469.05C263.697 469.892 257.859 470.59 252.059 471.146ZM248.29 464.455C243.03 464.358 237.809 464.155 232.634 463.85C227.831 461.895 223.033 459.828 218.243 457.649C223.239 458.688 228.289 459.638 233.39 460.496C238.364 461.921 243.332 463.24 248.29 464.455ZM272.641 468.596C267.53 467.681 262.4 466.656 257.256 465.518C262.361 465.496 267.5 465.376 272.669 465.155C277.84 465.514 282.983 465.772 288.094 465.93C282.924 466.93 277.771 467.818 272.641 468.596ZM263.771 464.437C260.106 464.512 256.459 464.537 252.829 464.512C249.295 463.688 245.754 462.81 242.209 461.88C245.779 462.399 249.373 462.874 252.988 463.303C256.593 463.73 260.188 464.108 263.771 464.437ZM292.546 465.042C288.908 464.971 285.253 464.848 281.583 464.674C285.188 464.44 288.807 464.157 292.438 463.824C296.067 463.492 299.674 463.112 303.259 462.687C299.682 463.526 296.11 464.311 292.546 465.042ZM214.508 454.589C217.951 455.758 221.394 456.877 224.835 457.944C221.237 457.257 217.665 456.524 214.122 455.745C210.837 454.204 207.557 452.611 204.284 450.964C207.661 452.212 211.069 453.42 214.508 454.589ZM195.944 447.778C200.513 450.204 205.098 452.527 209.694 454.745C204.563 453.555 199.493 452.271 194.488 450.895C190.195 447.983 185.929 444.962 181.695 441.833C186.374 443.892 191.125 445.875 195.944 447.778ZM177.545 439.979C182.157 443.468 186.809 446.828 191.494 450.059C185.788 448.44 180.168 446.702 174.641 444.851C170.378 440.876 166.172 436.766 162.029 432.522C167.104 435.101 172.278 437.588 177.545 439.979ZM159.26 431.101C163.557 435.571 167.925 439.897 172.354 444.077C166.292 442.002 160.344 439.791 154.518 437.449C150.62 432.526 146.812 427.45 143.103 422.225C148.367 425.287 153.754 428.248 159.26 431.101ZM141.017 421.003C144.792 426.388 148.672 431.62 152.648 436.691C146.315 434.104 140.129 431.363 134.1 428.477C130.753 422.693 127.538 416.741 124.465 410.63C129.832 414.199 135.352 417.659 141.017 421.003ZM122.785 409.507C125.881 415.739 129.123 421.809 132.503 427.708C125.961 424.534 119.607 421.19 113.454 417.686C110.786 411.128 108.302 404.391 106.012 397.49C111.418 401.612 117.012 405.622 122.785 409.507ZM104.604 396.409C106.891 403.404 109.376 410.233 112.05 416.882C105.369 413.032 98.929 408.994 92.7481 404.783C90.8451 397.551 89.1912 390.132 87.7954 382.549C93.1687 387.291 98.7752 391.916 104.604 396.409ZM86.5832 381.474C87.9602 389.128 89.5986 396.618 91.4895 403.921C84.7802 399.299 78.3811 394.472 72.3154 389.461C71.2153 381.67 70.4464 373.692 70.0138 365.556C75.2507 370.986 80.7786 376.298 86.5832 381.474ZM73.4215 396.578C73.1037 394.707 72.8056 392.824 72.5271 390.93C78.6514 395.946 85.1089 400.776 91.8763 405.399C93.9718 413.322 96.3659 421.021 99.0471 428.469C97.3548 427.574 95.6798 426.664 94.0223 425.739C88.274 422.531 82.7382 419.149 77.4308 415.602C75.861 409.415 74.5234 403.067 73.4215 396.578ZM86.3004 379.878C80.5661 374.724 75.1069 369.435 69.9369 364.032C69.5791 356.562 69.5039 348.961 69.7152 341.252C73.9848 347.007 78.5067 352.696 83.2729 358.303C84.0559 365.621 85.0674 372.818 86.3004 379.878ZM83.0887 356.537C78.4035 350.977 73.9592 345.338 69.7637 339.635C69.994 332.559 70.4651 325.394 71.1801 318.158C74.4417 324.123 77.9207 330.061 81.614 335.957C81.9074 342.909 82.4008 349.774 83.0887 356.537ZM81.5345 333.938C77.9328 328.124 74.5399 322.272 71.3591 316.395C72.0513 309.747 72.9488 303.042 74.0542 296.292C76.2987 302.333 78.7295 308.375 81.3463 314.409C81.235 320.985 81.2992 327.498 81.5345 333.938ZM81.3951 311.992C78.8806 306.099 76.5442 300.199 74.3859 294.302C75.436 288.11 76.6607 281.883 78.0618 275.63C79.309 281.59 80.7134 287.575 82.2766 293.575C81.8303 299.76 81.5376 305.902 81.3951 311.992ZM82.5131 290.471C81.062 284.721 79.7573 278.987 78.5973 273.276C79.9086 267.597 81.3652 261.899 82.9686 256.19C83.2731 261.873 83.7056 267.595 84.2689 273.35C83.5529 279.088 82.9685 284.798 82.5131 290.471ZM84.8575 268.843C84.4038 263.598 84.059 258.382 83.8211 253.2C85.2644 248.217 86.8195 243.225 88.4874 238.23C87.9757 243.31 87.5585 248.434 87.2384 253.598C86.3413 258.698 85.5482 263.781 84.8575 268.843ZM88.882 244.824C89.1896 241.171 89.5459 237.54 89.9501 233.933C91.1395 230.503 92.3822 227.074 93.6784 223.645C92.7899 227.135 91.9436 230.654 91.1407 234.199C90.3373 237.746 89.5846 241.288 88.882 244.824ZM85.2749 273.363C85.7258 269.758 86.2289 266.141 86.7846 262.514C86.6409 266.118 86.5443 269.74 86.496 273.379C86.4476 277.019 86.4479 280.643 86.4958 284.249C86.0366 280.609 85.6299 276.98 85.2749 273.363ZM84.7376 277.871C85.2936 282.95 85.9513 288.052 86.7127 293.174C86.8954 298.346 87.1764 303.479 87.553 308.571C86.0183 303.534 84.5963 298.503 83.2859 293.482C83.6614 288.308 84.1447 283.102 84.7376 277.871ZM83.0735 296.583C84.5532 302.08 86.1664 307.589 87.9142 313.102C88.4071 318.866 89.0226 324.573 89.7571 330.219C87.1415 324.895 84.6723 319.556 82.3499 314.209C82.4519 308.381 82.6921 302.503 83.0735 296.583ZM91.1389 333.003C90.4302 327.862 89.8204 322.669 89.3126 317.427C90.9114 322.276 92.6145 327.127 94.4229 331.976C95.6779 337.001 97.0212 341.968 98.4494 346.874C95.9012 342.267 93.4644 337.641 91.1389 333.003ZM82.3155 316.624C84.7752 322.196 87.3938 327.759 90.171 333.304C91.0205 339.446 92.011 345.514 93.1375 351.499C89.4521 346.257 85.9396 340.97 82.6021 335.651C82.3419 329.376 82.2451 323.031 82.3155 316.624ZM94.5324 353.469C93.4206 347.748 92.4336 341.95 91.5759 336.081C94.1661 341.15 96.8891 346.202 99.7448 351.231C101.425 356.765 103.213 362.219 105.105 367.588C101.44 362.924 97.9154 358.216 94.5324 353.469ZM82.6914 337.666C86.1431 343.109 89.7776 348.515 93.5923 353.873C94.8507 360.329 96.2676 366.686 97.8366 372.936C93.1043 367.997 88.5683 362.978 84.2346 357.89C83.5297 351.244 83.0135 344.498 82.6914 337.666ZM99.2368 374.389C97.678 368.306 96.264 362.12 95.0007 355.838C98.5649 360.776 102.282 365.673 106.151 370.519C108.259 376.35 110.49 382.079 112.836 387.699C108.142 383.338 103.607 378.898 99.2368 374.389ZM84.4263 359.652C88.857 364.809 93.4951 369.894 98.3341 374.894C100.067 381.634 101.977 388.247 104.056 394.721C98.3169 390.256 92.7966 385.663 87.5065 380.957C86.2603 373.986 85.2313 366.879 84.4263 359.652ZM105.458 395.806C103.387 389.451 101.479 382.959 99.7433 376.342C104.251 380.948 108.929 385.479 113.774 389.927C116.348 395.981 119.056 401.906 121.891 407.695C116.236 403.848 110.755 399.881 105.458 395.806ZM139.635 419.019C134.136 415.729 128.776 412.328 123.563 408.825C120.773 403.198 118.103 397.439 115.56 391.556C120.074 395.646 124.729 399.664 129.522 403.6C132.797 408.867 136.171 414.008 139.635 419.019ZM127.889 400.95C123.334 397.15 118.906 393.276 114.61 389.337C112.333 383.972 110.162 378.505 108.103 372.943C111.691 377.364 115.406 381.741 119.247 386.068C122.04 391.131 124.923 396.093 127.889 400.95ZM117.074 382.076C113.622 378.097 110.276 374.078 107.036 370.024C105.274 365.144 103.598 360.191 102.012 355.171C104.586 359.585 107.263 363.98 110.043 368.351C112.313 373.001 114.658 377.577 117.074 382.076ZM106.214 360.286C104.313 357.146 102.465 353.995 100.669 350.834C99.6144 347.356 98.6024 343.846 97.6346 340.305C98.9693 343.656 100.355 347.005 101.791 350.35C103.228 353.697 104.703 357.009 106.214 360.286ZM120.068 385.487C118.315 382.308 116.597 379.089 114.916 375.83C116.916 378.827 118.965 381.811 121.062 384.78C123.161 387.751 125.291 390.681 127.448 393.57C124.939 390.897 122.479 388.202 120.068 385.487ZM122.283 389.45C125.716 393.229 129.245 396.968 132.869 400.662C136.058 404.74 139.303 408.729 142.601 412.628C138.401 409.456 134.294 406.222 130.284 402.932C127.547 398.525 124.878 394.03 122.283 389.45ZM131.935 405.565C136.362 409.142 140.904 412.649 145.557 416.081C149.344 420.455 153.198 424.712 157.112 428.849C151.867 426.079 146.732 423.212 141.711 420.252C138.368 415.476 135.107 410.579 131.935 405.565ZM159.866 430.289C156.27 426.546 152.723 422.701 149.23 418.758C153.374 421.741 157.604 424.666 161.918 427.526C165.888 430.855 169.896 434.085 173.937 437.215C169.166 434.985 164.475 432.675 159.866 430.289ZM188.106 443.503C184.721 442.079 181.372 440.616 178.06 439.114C175.161 436.919 172.278 434.673 169.412 432.377C172.462 434.304 175.551 436.199 178.68 438.061C181.812 439.925 184.955 441.739 188.106 443.503ZM155.141 421.715C152.13 419.622 149.163 417.497 146.24 415.342C143.864 412.596 141.514 409.804 139.191 406.966C141.773 409.483 144.4 411.978 147.071 414.449C149.741 416.918 152.431 419.34 155.141 421.715ZM92.3556 323.291C91.1506 319.829 89.9992 316.366 88.9011 312.906C88.5928 309.289 88.333 305.649 88.1225 301.989C88.7309 305.541 89.3891 309.102 90.0979 312.669C90.8067 316.235 91.5596 319.777 92.3556 323.291ZM103.831 196.842C102.306 200.149 100.831 203.461 99.4074 206.777C100.47 203.259 101.576 199.773 102.725 196.32C104.606 193.205 106.54 190.1 108.527 187.008C106.925 190.25 105.36 193.528 103.831 196.842ZM542.337 307.551C545.02 299.797 547.027 291.904 548.316 283.908C548.863 291.948 548.675 300.056 547.711 308.194C546.746 316.329 545.034 324.253 542.624 331.939C543.24 323.863 543.133 315.719 542.337 307.551ZM541.535 309.809C542.263 318.638 542.176 327.432 541.231 336.133C538.335 344.394 534.625 352.368 530.163 360.023C530.995 351.406 531.088 342.61 530.471 333.697C534.868 325.92 538.573 317.943 541.535 309.809ZM529.914 362.406C534.151 355.377 537.757 348.073 540.681 340.518C539.544 348.496 537.675 356.387 535.04 364.146C532.404 371.906 529.079 379.305 525.121 386.326C527.404 378.552 528.994 370.562 529.914 362.406ZM529.571 335.269C530.119 344.357 529.92 353.314 528.944 362.076C524.382 369.618 519.085 376.842 513.117 383.715C514.24 375.101 514.735 366.245 514.613 357.203C520.215 350.108 525.217 342.784 529.571 335.269ZM512.873 385.51C518.79 378.818 524.072 371.787 528.66 364.448C527.536 373.237 525.621 381.822 522.886 390.139C518.337 397.613 513.051 404.638 507.099 411.195C509.704 402.94 511.624 394.356 512.873 385.51ZM513.627 358.443C513.693 367.534 513.13 376.43 511.925 385.072C506.134 391.598 499.733 397.8 492.776 403.651C494.371 395.272 495.467 386.622 496.065 377.753C502.422 371.542 508.289 365.095 513.627 358.443ZM492.474 405.206C499.429 399.43 505.844 393.306 511.666 386.86C510.312 395.863 508.255 404.583 505.479 412.95C499.448 419.379 492.765 425.344 485.498 430.825C488.388 422.634 490.713 414.074 492.474 405.206ZM494.99 378.797C494.35 387.663 493.207 396.302 491.562 404.663C484.998 410.095 477.95 415.218 470.463 420.008C472.079 414.175 473.492 408.196 474.697 402.087C475.136 399.86 475.548 397.616 475.932 395.356C477.735 393.94 479.511 392.509 481.258 391.062C486.052 387.09 490.634 382.998 494.99 378.797ZM470.058 421.45C477.568 416.697 484.647 411.61 491.251 406.213C489.426 415.119 487.025 423.703 484.05 431.905C477.029 437.084 469.478 441.82 461.457 446.096C464.759 438.232 467.63 430 470.058 421.45ZM473.716 401.893C472.441 408.353 470.935 414.664 469.201 420.809C463.801 424.215 458.177 427.449 452.346 430.502C450.664 431.383 448.965 432.248 447.249 433.099C450.128 425.723 452.727 418.087 455.033 410.221C461.921 405.779 468.504 401.122 474.76 396.27C474.431 398.156 474.083 400.031 473.716 401.893ZM446.705 434.482C448.764 433.472 450.799 432.441 452.81 431.388C458.324 428.5 463.656 425.451 468.79 422.247C466.32 430.786 463.406 438.998 460.059 446.834C452.509 450.782 444.55 454.328 436.231 457.456C439.025 452.086 441.649 446.532 444.098 440.806C444.99 438.721 445.859 436.612 446.705 434.482ZM453.746 411.045C451.423 418.856 448.809 426.435 445.918 433.754C438.848 437.207 431.498 440.404 423.894 443.33C427.441 436.67 430.786 429.769 433.915 422.647C440.769 418.973 447.385 415.1 453.746 411.045ZM423.172 444.676C430.833 441.764 438.241 438.578 445.368 435.133C444.655 436.909 443.925 438.669 443.179 440.413C440.589 446.467 437.804 452.327 434.829 457.978C428.84 460.186 422.668 462.179 416.329 463.954C414.501 464.465 412.659 464.959 410.804 465.434C415.153 458.818 419.282 451.891 423.172 444.676ZM432.485 423.409C429.354 430.458 426.011 437.285 422.469 443.874C415.475 446.522 408.269 448.943 400.873 451.124C405.028 445.283 409.043 439.223 412.903 432.955C419.62 429.949 426.152 426.764 432.485 423.409ZM411.281 433.676C407.44 439.852 403.448 445.823 399.32 451.577C392.519 453.545 385.56 455.311 378.458 456.867C383.125 451.92 387.698 446.774 392.166 441.437C398.686 439.01 405.062 436.42 411.281 433.676ZM390.271 442.137C385.853 447.361 381.334 452.398 376.725 457.241C370.187 458.638 363.529 459.857 356.766 460.892C361.818 456.889 366.816 452.708 371.748 448.354C378.039 446.427 384.216 444.352 390.271 442.137ZM338.565 474.38C344.157 470.512 349.699 466.431 355.178 462.142C362.064 461.123 368.843 459.914 375.5 458.522C370.46 463.764 365.315 468.774 360.081 473.543C353.017 474.054 345.839 474.335 338.565 474.38ZM353.179 462.432C347.772 466.622 342.306 470.608 336.793 474.386C330.112 474.392 323.352 474.201 316.526 473.807C322.3 470.943 328.056 467.893 333.785 464.659C340.333 464.083 346.801 463.338 353.179 462.432ZM369.434 449.054C364.604 453.268 359.713 457.315 354.77 461.191C348.56 462.105 342.262 462.864 335.886 463.464C341.173 460.434 346.434 457.246 351.66 453.903C357.676 452.417 363.603 450.799 369.434 449.054ZM348.636 454.637C343.612 457.797 338.558 460.812 333.481 463.682C327.674 464.19 321.804 464.565 315.876 464.805C321.193 462.757 326.506 460.575 331.811 458.259C337.489 457.166 343.1 455.958 348.636 454.637ZM354.275 452.216C359.045 449.11 363.785 445.874 368.487 442.508C373.811 440.261 379.043 437.914 384.18 435.474C379.926 439.605 375.613 443.601 371.248 447.461C365.678 449.163 360.018 450.75 354.275 452.216ZM373.554 446.748C378.092 442.688 382.572 438.48 386.986 434.127C392.569 431.419 398.037 428.601 403.384 425.678C399.538 430.802 395.597 435.775 391.57 440.592C385.68 442.78 379.673 444.834 373.554 446.748ZM393.459 439.884C397.568 434.921 401.585 429.794 405.502 424.512C411.251 421.32 416.859 418.009 422.318 414.586C419.084 420.611 415.712 426.475 412.213 432.168C406.111 434.892 399.856 437.467 393.459 439.884ZM413.83 431.441C417.364 425.635 420.767 419.654 424.026 413.507C429.9 409.777 435.599 405.917 441.113 401.939C438.641 408.776 435.979 415.445 433.138 421.929C426.895 425.268 420.454 428.443 413.83 431.441ZM295.924 483.215C302.196 480.595 308.464 477.756 314.713 474.7C321.655 475.135 328.531 475.361 335.328 475.384C329.31 479.462 323.237 483.291 317.128 486.867C310.117 485.899 303.043 484.682 295.924 483.215ZM337.103 475.386C344.464 475.372 351.73 475.119 358.882 474.63C353.157 479.793 347.328 484.669 341.415 489.246C333.946 488.82 326.377 488.101 318.732 487.084C324.9 483.441 331.03 479.539 337.103 475.386ZM294.284 483.895C301.483 485.411 308.637 486.672 315.73 487.681C309.055 491.542 302.338 495.1 295.601 498.348C288.388 496.38 281.138 494.103 273.876 491.522C280.669 489.239 287.478 486.696 294.284 483.895ZM297.074 498.745C303.857 495.442 310.618 491.826 317.335 487.905C325.042 488.961 332.674 489.718 340.206 490.176C333.736 495.129 327.167 499.724 320.527 503.945C312.775 502.583 304.947 500.849 297.074 498.745ZM272.338 492.034C279.653 494.667 286.957 496.993 294.225 499.006C286.867 502.506 279.487 505.634 272.114 508.381C264.819 505.44 257.527 502.117 250.267 498.425C257.588 496.604 264.953 494.473 272.338 492.034ZM273.492 508.933C280.899 506.137 288.311 502.96 295.698 499.41C303.61 501.558 311.478 503.335 319.272 504.737C317.65 505.756 316.023 506.751 314.393 507.725C308.742 511.099 303.045 514.202 297.319 517.025C291.174 515.29 285.007 513.274 278.834 510.984C277.054 510.323 275.273 509.639 273.492 508.933ZM248.783 498.79C256.072 502.533 263.394 505.905 270.722 508.896C268.925 509.554 267.129 510.189 265.334 510.802C259.103 512.928 252.885 514.779 246.697 516.349C241.048 513.376 235.436 510.122 229.876 506.599C228.274 505.584 226.677 504.546 225.085 503.487C232.91 502.292 240.82 500.725 248.783 498.79ZM248.023 517.041C253.882 515.525 259.764 513.759 265.656 511.748C267.803 511.016 269.951 510.251 272.1 509.454C274.229 510.308 276.358 511.131 278.486 511.921C284.324 514.088 290.158 516.01 295.976 517.681C287.979 521.559 279.928 524.888 271.867 527.644C263.878 524.674 255.916 521.131 248.023 517.041ZM229.341 507.443C234.599 510.776 239.905 513.868 245.247 516.712C236.617 518.843 228.049 520.425 219.589 521.445C212.397 516.881 205.349 511.763 198.481 506.124C204.527 505.859 210.647 505.354 216.828 504.613C219.082 504.343 221.345 504.041 223.614 503.707C225.516 504.984 227.425 506.23 229.341 507.443ZM220.927 522.286C229.389 521.214 237.952 519.584 246.571 517.412C254.445 521.54 262.391 525.128 270.369 528.149C261.744 531.021 253.11 533.235 244.52 534.76C236.522 531.268 228.643 527.096 220.927 522.286ZM196.984 506.185C203.824 511.856 210.848 517.016 218.019 521.628C208.986 522.643 200.081 523.013 191.361 522.718C184.268 517.643 177.432 511.927 170.889 505.621C179.388 506.332 188.103 506.518 196.984 506.185ZM192.836 523.762C201.518 523.979 210.377 523.545 219.355 522.479C226.999 527.311 234.808 531.52 242.739 535.066C233.76 536.561 224.832 537.299 216.018 537.245C208.037 533.495 200.297 528.981 192.836 523.762ZM169.311 505.483C175.78 511.795 182.539 517.533 189.556 522.648C180.462 522.243 171.576 521.108 162.965 519.222C155.943 513.898 149.314 507.877 143.105 501.225C151.552 503.242 160.307 504.659 169.311 505.483ZM141.345 500.795C147.38 507.377 153.818 513.363 160.636 518.692C152.013 516.656 143.676 513.854 135.692 510.265C128.736 504.961 122.304 498.972 116.406 492.369C124.344 495.822 132.678 498.628 141.345 500.795ZM114.217 491.395C119.588 497.592 125.416 503.275 131.692 508.387C124.46 504.842 117.537 500.627 110.975 495.726C104.415 490.825 98.4109 485.382 92.9609 479.454C99.6446 484.024 106.749 488.002 114.217 491.395ZM90.0244 476.151C84.3177 469.512 79.2661 462.311 74.8669 454.62C81.9124 459.648 89.4814 464.125 97.5077 468.046C102.044 475.743 107.099 482.94 112.662 489.572C104.655 485.789 97.0853 481.318 90.0244 476.151ZM86.5017 473.482C80.1602 468.508 74.2604 462.943 68.8582 456.781C63.4564 450.619 58.7122 444.042 54.6118 437.105C60.2013 442.967 66.3255 448.338 72.9278 453.212C76.8964 460.397 81.4201 467.172 86.5017 473.482ZM140.128 499.453C131.317 497.166 122.861 494.209 114.83 490.575C109.066 483.904 103.832 476.634 99.1396 468.833C106.983 472.563 115.252 475.769 123.887 478.447C128.905 485.968 134.326 492.989 140.128 499.453ZM168.181 504.373C159.134 503.488 150.346 501.999 141.879 499.897C135.994 493.456 130.494 486.441 125.402 478.91C133.568 481.372 142.054 483.366 150.811 484.888C156.324 491.86 162.123 498.369 168.181 504.373ZM506.359 413.474C511.963 407.483 517.007 401.091 521.436 394.313C518.666 401.875 515.199 409.2 511.011 416.236C506.821 423.276 502.034 429.818 496.705 435.86C500.551 428.735 503.765 421.255 506.359 413.474ZM504.708 415.211C501.783 423.568 498.128 431.563 493.727 439.125C487.723 445.492 481.09 451.267 473.902 456.445C478.165 448.914 481.826 440.92 484.886 432.53C492.066 427.215 498.695 421.436 504.708 415.211ZM483.425 433.6C480.23 442.122 476.406 450.22 471.953 457.825C464.717 462.86 456.94 467.306 448.691 471.157C453.22 463.748 457.272 455.86 460.838 447.554C468.842 443.351 476.39 438.694 483.425 433.6ZM447.738 472.697C455.867 468.991 463.552 464.716 470.73 459.876C466.129 467.447 460.889 474.51 455.01 480.994C447.812 485.974 440.124 490.243 432.017 493.813C437.754 487.331 442.999 480.271 447.738 472.697ZM459.432 448.285C455.796 456.614 451.664 464.51 447.05 471.912C439.106 475.518 430.736 478.581 422.001 481.096C426.865 474.092 431.383 466.639 435.535 458.783C443.869 455.695 451.851 452.191 459.432 448.285ZM421.093 482.394C429.795 479.946 438.147 476.96 446.086 473.44C441.188 481.114 435.762 488.243 429.823 494.758C421.699 498.178 413.168 500.909 404.3 502.96C410.272 496.653 415.877 489.779 421.093 482.394ZM434.128 459.299C429.938 467.135 425.382 474.56 420.481 481.527C412.275 483.819 403.753 485.633 394.966 486.963C398.814 482.293 402.534 477.407 406.119 472.318C407.425 470.463 408.714 468.582 409.983 466.674C412.208 466.114 414.413 465.528 416.599 464.917C422.593 463.239 428.441 461.365 434.128 459.299ZM394.009 488.116C402.803 486.828 411.338 485.061 419.566 482.817C414.276 490.21 408.592 497.076 402.538 503.358C394.018 505.234 385.194 506.489 376.128 507.133C382.343 501.292 388.313 494.94 394.009 488.116ZM405.302 471.742C401.511 477.123 397.569 482.275 393.486 487.182C387.167 488.097 380.714 488.764 374.143 489.182C372.25 489.302 370.346 489.402 368.434 489.481C374.062 483.915 379.54 477.999 384.844 471.753C392.943 470.497 400.852 468.921 408.541 467.032C407.474 468.621 406.394 470.191 405.302 471.742ZM362.418 495.243C364.082 493.7 365.734 492.126 367.374 490.523C369.665 490.438 371.942 490.324 374.207 490.18C380.42 489.785 386.532 489.167 392.526 488.329C386.797 495.124 380.796 501.442 374.551 507.239C366.047 507.775 357.334 507.776 348.462 507.251C353.197 503.482 357.853 499.476 362.418 495.243ZM365.888 490.574C364.513 491.907 363.13 493.219 361.738 494.51C356.911 498.986 351.983 503.206 346.969 507.158C340.599 506.739 334.148 506.049 327.635 505.092C325.758 504.816 323.876 504.518 321.989 504.198C328.653 499.923 335.243 495.273 341.731 490.265C349.914 490.72 357.976 490.822 365.888 490.574ZM383.334 471.983C378.036 478.171 372.567 484.03 366.951 489.538C359.089 489.818 351.074 489.748 342.938 489.328C348.885 484.688 354.745 479.747 360.498 474.516C368.254 473.946 375.873 473.1 383.334 471.983ZM361.694 473.423C366.972 468.574 372.158 463.482 377.237 458.155C384.431 456.611 391.482 454.853 398.373 452.89C393.846 459.132 389.156 465.115 384.323 470.822C376.932 471.958 369.381 472.827 361.694 473.423ZM385.83 470.586C390.683 464.809 395.389 458.756 399.93 452.442C407.399 450.272 414.677 447.86 421.743 445.216C417.847 452.372 413.715 459.241 409.365 465.798C401.731 467.706 393.877 469.305 385.83 470.586ZM314.906 508.583C316.855 507.42 318.798 506.224 320.736 504.997C322.993 505.39 325.245 505.751 327.489 506.081C333.649 506.987 339.755 507.654 345.791 508.079C338.775 513.535 331.592 518.466 324.278 522.838C315.85 521.594 307.328 519.785 298.76 517.426C304.175 514.725 309.561 511.775 314.906 508.583ZM347.286 508.18C356.156 508.748 364.873 508.794 373.388 508.31C366.677 514.441 359.69 519.975 352.463 524.861C343.739 524.924 334.846 524.318 325.843 523.062C333.136 518.642 340.296 513.669 347.286 508.18ZM297.417 518.091C305.974 520.49 314.49 522.347 322.919 523.644C315.08 528.245 307.096 532.205 299.012 535.482C290.466 533.73 281.895 531.288 273.351 528.189C281.403 525.381 289.439 522.007 297.417 518.091ZM300.784 535.835C308.803 532.502 316.718 528.503 324.485 523.878C333.431 525.182 342.276 525.851 350.961 525.865C343.367 530.882 335.513 535.187 327.439 538.722C318.626 538.542 309.721 537.568 300.784 535.835ZM271.853 528.705C280.332 531.839 288.842 534.333 297.334 536.151C288.861 539.481 280.282 542.059 271.648 543.839C263.066 541.831 254.559 539.026 246.179 535.474C254.717 533.881 263.292 531.614 271.853 528.705ZM273.978 544.364C282.429 542.492 290.822 539.863 299.107 536.521C307.862 538.3 316.593 539.359 325.244 539.662C317.072 543.083 308.682 545.717 300.115 547.507C291.365 547.305 282.635 546.241 273.978 544.364ZM244.397 535.796C252.589 539.356 260.908 542.206 269.305 544.302C260.601 545.948 251.846 546.78 243.094 546.75C234.579 544.733 226.264 541.878 218.187 538.243C226.843 538.169 235.598 537.342 244.397 535.796ZM247.411 547.696C255.507 547.465 263.595 546.508 271.634 544.863C279.627 546.721 287.688 547.893 295.775 548.339C287.837 549.723 279.755 550.383 271.562 550.274C263.369 550.165 255.309 549.291 247.411 547.696ZM328.689 545.036C320.655 546.632 312.59 547.452 304.534 547.535C312.405 545.626 320.118 543.007 327.639 539.727C335.842 539.882 343.969 539.353 351.972 538.107C344.495 541.112 336.726 543.439 328.689 545.036ZM356.044 536.392C347.444 538.013 338.685 538.787 329.827 538.751C337.703 535.164 345.364 530.848 352.772 525.858C361.704 525.778 370.463 524.999 378.987 523.497C371.707 528.54 364.05 532.86 356.044 536.392ZM380.939 522.121C372.282 523.777 363.37 524.675 354.269 524.838C361.421 519.911 368.333 514.352 374.969 508.213C383.99 507.629 392.78 506.445 401.277 504.653C394.891 511.14 388.103 516.984 380.939 522.121ZM383.281 521.653C390.241 516.506 396.838 510.691 403.048 504.269C411.768 502.334 420.174 499.751 428.2 496.51C422.125 502.958 415.531 508.777 408.432 513.896C400.358 517.27 391.952 519.847 383.281 521.653ZM412.481 512.125C418.896 507.179 424.877 501.651 430.414 495.595C437.972 492.4 445.182 488.61 451.987 484.218C446.379 490.003 440.23 495.287 433.538 500.014C426.846 504.742 419.809 508.772 412.481 512.125ZM458.601 478.42C463.847 472.248 468.548 465.596 472.705 458.521C479.434 453.824 485.698 448.618 491.441 442.906C487.158 449.732 482.241 456.181 476.677 462.197C471.115 468.212 465.071 473.617 458.601 478.42ZM404.805 516.421C398.119 520.913 391.007 524.802 383.48 528.033C375.953 531.266 368.235 533.745 360.373 535.5C367.673 531.997 374.67 527.834 381.344 523.063C389.399 521.509 397.238 519.302 404.805 516.421ZM215.791 538.244C223.222 541.722 230.86 544.543 238.676 546.661C230.625 546.364 222.583 545.33 214.593 543.52C206.604 541.711 198.903 539.18 191.511 535.98C199.478 537.437 207.587 538.181 215.791 538.244ZM187.486 534.157C179.572 530.412 172.027 525.888 164.879 520.65C173.361 522.377 182.098 523.389 191.025 523.707C198.301 528.894 205.848 533.414 213.63 537.211C204.774 537.012 196.039 536.006 187.486 534.157ZM183.182 533.151C175.367 531.187 167.715 528.503 160.274 525.071C152.83 521.638 145.819 517.557 139.25 512.886C146.741 515.969 154.521 518.385 162.536 520.152C169.084 525.103 175.973 529.453 183.182 533.151ZM400.408 418.732C397.434 420.805 394.416 422.847 391.356 424.856C394.128 422.553 396.882 420.203 399.617 417.806C402.344 415.415 405.027 412.999 407.666 410.559C405.273 413.33 402.853 416.055 400.408 418.732ZM404.118 416.116C407.515 412.31 410.862 408.413 414.154 404.427C417.885 400.821 421.522 397.168 425.063 393.471C422.347 397.982 419.56 402.405 416.706 406.737C412.604 409.924 408.408 413.052 404.118 416.116ZM419.153 404.82C422.247 400.043 425.261 395.159 428.188 390.171C432.14 385.95 435.969 381.675 439.672 377.353C437.465 382.858 435.15 388.265 432.731 393.567C428.333 397.39 423.806 401.144 419.153 404.82ZM434.548 391.977C437.043 386.422 439.425 380.755 441.687 374.981C445.684 370.239 449.531 365.442 453.226 360.6C451.796 366.846 450.218 372.992 448.498 379.032C444.009 383.424 439.358 387.742 434.548 391.977ZM453.757 358.244C450.248 362.9 446.599 367.514 442.811 372.079C444.846 366.758 446.781 361.349 448.609 355.856C451.597 350.905 454.453 345.927 457.176 340.929C456.162 346.777 455.021 352.551 453.757 358.244ZM449.936 377.616C451.671 371.41 453.256 365.093 454.686 358.673C458.641 353.418 462.418 348.111 466.013 342.763C465.509 349.584 464.814 356.313 463.933 362.938C459.465 367.908 454.798 372.806 449.936 377.616ZM466.156 340.75C462.678 345.979 459.027 351.169 455.204 356.311C456.49 350.355 457.642 344.312 458.654 338.191C461.577 332.723 464.342 327.233 466.948 321.729C466.848 328.139 466.583 334.482 466.156 340.75ZM465.114 361.616C465.981 354.873 466.657 348.024 467.135 341.083C470.984 335.285 474.621 329.441 478.04 323.564C478.562 330.817 478.843 337.992 478.885 345.072C474.539 350.662 469.946 356.182 465.114 361.616ZM477.908 321.797C474.572 327.588 471.024 333.349 467.268 339.066C467.675 332.632 467.912 326.12 467.976 319.541C470.752 313.578 473.343 307.602 475.747 301.623C476.673 308.402 477.392 315.131 477.908 321.797ZM479.875 343.792C479.803 336.626 479.489 329.365 478.929 322.028C482.596 315.648 486.008 309.231 489.16 302.795C490.77 310.336 492.078 317.823 493.084 325.234C488.983 331.487 484.576 337.681 479.875 343.792ZM488.818 301.214C485.73 307.585 482.385 313.939 478.789 320.258C478.235 313.48 477.472 306.638 476.496 299.746C479.055 293.276 481.396 286.805 483.519 280.347C485.538 287.334 487.305 294.295 488.818 301.214ZM493.918 323.956C492.873 316.485 491.523 308.937 489.869 301.338C493.254 294.336 496.331 287.314 499.094 280.293C501.805 287.977 504.145 295.643 506.107 303.263C502.418 310.212 498.35 317.119 493.918 323.956ZM498.583 278.856C495.871 285.826 492.849 292.8 489.521 299.756C487.96 292.76 486.143 285.721 484.068 278.659C486.329 271.656 488.333 264.67 490.078 257.719C493.22 264.762 496.057 271.815 498.583 278.856ZM506.799 301.95C504.793 294.292 502.408 286.588 499.65 278.87C502.612 271.228 505.201 263.59 507.41 255.988C508.253 257.706 509.072 259.426 509.869 261.148C512.635 267.123 515.126 273.114 517.335 279.105C514.968 285.034 512.319 290.956 509.396 296.854C508.553 298.555 507.688 300.254 506.799 301.95ZM506.753 254.657C504.589 262.222 502.047 269.824 499.132 277.433C496.557 270.34 493.667 263.237 490.468 256.147C492.323 248.594 493.873 241.086 495.116 233.644C499.366 240.597 503.249 247.611 506.753 254.657ZM510.777 260.728C509.824 258.669 508.839 256.613 507.821 254.559C508.448 252.354 509.043 250.152 509.606 247.954C511.15 241.923 512.452 235.92 513.507 229.961C518.199 237.509 522.352 245.168 525.936 252.899C523.818 261.152 521.127 269.439 517.885 277.714C515.764 272.045 513.392 266.378 510.777 260.728ZM512.713 228.693C511.63 234.985 510.27 241.329 508.637 247.706C508.167 249.545 507.673 251.386 507.157 253.229C503.602 246.154 499.667 239.114 495.364 232.137C496.672 224.046 497.617 216.038 498.197 208.143C499.379 209.65 500.54 211.164 501.679 212.684C505.625 217.952 509.307 223.293 512.713 228.693ZM526.323 251.366C522.688 243.65 518.492 236.01 513.763 228.485C515.255 219.723 516.212 211.059 516.62 202.54C522.016 209.855 526.789 217.383 530.894 225.081C530.045 233.764 528.512 242.544 526.323 251.366ZM515.677 201.272C515.321 209.785 514.412 218.45 512.962 227.219C509.709 222.115 506.211 217.067 502.479 212.084C501.118 210.267 499.725 208.459 498.302 206.66C498.457 204.372 498.581 202.094 498.675 199.826C498.931 193.607 498.956 187.465 498.749 181.418C504.909 187.826 510.564 194.455 515.677 201.272ZM531.06 223.282C526.907 215.654 522.101 208.199 516.69 200.957C517.051 191.923 516.792 183.057 515.898 174.418C521.682 181.447 526.785 188.81 531.146 196.472C531.888 205.256 531.849 214.213 531.06 223.282ZM514.742 173.029C515.717 181.699 516.044 190.607 515.736 199.692C510.577 192.9 504.883 186.299 498.693 179.921C498.331 171.04 497.465 162.365 496.093 153.947C502.893 159.981 509.127 166.351 514.742 173.029ZM474.224 137.004C481.58 141.991 488.489 147.299 494.907 152.903C496.329 161.304 497.241 169.97 497.646 178.849C493.403 174.534 488.933 170.322 484.246 166.225C482.538 164.732 480.801 163.254 479.036 161.791C478.712 159.521 478.36 157.268 477.98 155.03C476.937 148.892 475.685 142.878 474.224 137.004ZM483.588 166.978C488.544 171.311 493.255 175.77 497.709 180.343C497.958 186.722 497.947 193.209 497.675 199.785C497.597 201.682 497.497 203.586 497.376 205.497C492.429 199.318 487.117 193.252 481.459 187.323C481.057 179.137 480.316 171.107 479.241 163.263C480.71 164.491 482.159 165.729 483.588 166.978ZM481.53 188.849C487.131 194.765 492.387 200.816 497.278 206.978C496.734 214.827 495.827 222.791 494.559 230.838C490.566 224.439 486.264 218.094 481.662 211.825C481.907 204.053 481.862 196.386 481.53 188.849ZM481.607 213.445C486.144 219.678 490.384 225.985 494.317 232.345C493.114 239.726 491.607 247.176 489.798 254.672C486.819 248.155 483.579 241.651 480.083 235.177C480.838 227.857 481.345 220.607 481.607 213.445ZM479.896 236.943C483.322 243.354 486.497 249.794 489.414 256.243C487.718 263.117 485.767 270.028 483.564 276.957C481.614 270.446 479.446 263.915 477.059 257.381C478.218 250.519 479.163 243.702 479.896 236.943ZM476.717 259.372C479.031 265.807 481.133 272.236 483.022 278.645C480.963 285.003 478.691 291.374 476.207 297.746C475.267 291.373 474.146 284.958 472.841 278.514C474.317 272.105 475.609 265.72 476.717 259.372ZM472.291 280.868C473.525 287.154 474.583 293.409 475.468 299.624C473.154 305.462 470.661 311.299 467.991 317.123C468.01 311.036 467.881 304.892 467.599 298.7C469.322 292.742 470.885 286.795 472.291 280.868ZM466.723 301.686C466.947 307.611 467.03 313.489 466.978 319.315C464.515 324.596 461.905 329.867 459.15 335.118C460.033 329.498 460.8 323.814 461.445 318.07C463.339 312.605 465.098 307.142 466.723 301.686ZM459.932 322.356C459.286 327.578 458.539 332.749 457.695 337.865C455.247 342.439 452.689 346.998 450.019 351.536C451.574 346.678 453.046 341.757 454.432 336.776C456.371 331.973 458.204 327.165 459.932 322.356ZM451 345.018C449.941 348.522 448.839 351.995 447.695 355.435C445.821 358.538 443.895 361.631 441.917 364.711C443.509 361.488 445.065 358.228 446.584 354.934C448.107 351.634 449.579 348.328 451 345.018ZM430.467 386.238C433.007 381.795 435.478 377.271 437.877 372.671C440.766 368.384 443.553 364.07 446.238 359.734C444.517 364.716 442.709 369.627 440.816 374.463C437.471 378.428 434.021 382.355 430.467 386.238ZM426.403 388.834C428.587 385.911 430.721 382.972 432.807 380.019C431.034 383.243 429.226 386.427 427.382 389.569C424.891 392.228 422.351 394.866 419.762 397.481C422.004 394.641 424.218 391.759 426.403 388.834ZM460.464 317.848C459.273 321.282 458.028 324.716 456.73 328.15C457.621 324.652 458.469 321.126 459.273 317.574C460.077 314.024 460.83 310.48 461.533 306.942C461.225 310.6 460.869 314.235 460.464 317.848ZM461.927 313.55C462.439 308.466 462.856 303.337 463.177 298.168C464.073 293.07 464.866 287.99 465.556 282.931C466.01 288.178 466.355 293.396 466.593 298.58C465.15 303.564 463.594 308.556 461.927 313.55ZM467.445 295.591C467.141 289.906 466.708 284.181 466.145 278.424C466.861 272.684 467.446 266.973 467.901 261.298C469.353 267.051 470.658 272.787 471.818 278.5C470.506 284.18 469.049 289.88 467.445 295.591ZM467.128 258.287C466.753 263.463 466.269 268.67 465.676 273.903C465.121 268.827 464.463 263.727 463.702 258.608C463.52 253.432 463.238 248.295 462.861 243.199C464.396 248.236 465.818 253.267 467.128 258.287ZM472.354 276.146C471.106 270.183 469.701 264.197 468.138 258.195C468.584 252.011 468.876 245.87 469.019 239.782C471.534 245.676 473.871 251.578 476.029 257.475C474.979 263.666 473.755 269.893 472.354 276.146ZM468.064 237.564C467.962 243.391 467.722 249.268 467.341 255.186C465.861 249.69 464.248 244.181 462.5 238.668C462.008 232.907 461.392 227.201 460.658 221.557C463.273 226.88 465.742 232.219 468.064 237.564ZM476.361 255.485C474.116 249.444 471.685 243.4 469.068 237.365C469.179 230.789 469.115 224.275 468.879 217.835C472.482 223.65 475.875 229.503 479.056 235.381C478.364 242.029 477.466 248.735 476.361 255.485ZM467.812 216.122C468.072 222.397 468.169 228.743 468.098 235.15C465.639 229.579 463.021 224.017 460.244 218.472C459.395 212.329 458.404 206.261 457.277 200.276C460.962 205.517 464.475 210.803 467.812 216.122ZM479.235 233.618C475.973 227.652 472.494 221.713 468.8 215.816C468.506 208.863 468.013 201.998 467.325 195.234C472.011 200.795 476.456 206.435 480.652 212.139C480.421 219.216 479.95 226.381 479.235 233.618ZM466.179 193.882C466.884 200.528 467.4 207.274 467.722 214.107C464.271 208.665 460.637 203.259 456.823 197.901C455.564 191.445 454.147 185.087 452.578 178.836C457.31 183.775 461.846 188.794 466.179 193.882ZM480.7 210.522C476.43 204.766 471.908 199.076 467.141 193.469C466.358 186.152 465.347 178.956 464.114 171.897C469.849 177.052 475.308 182.341 480.479 187.744C480.836 195.214 480.911 202.814 480.7 210.522ZM462.908 170.818C464.154 177.788 465.182 184.894 465.987 192.119C461.557 186.963 456.919 181.878 452.08 176.878C450.348 170.139 448.438 163.528 446.359 157.056C452.098 161.52 457.618 166.112 462.908 170.818ZM480.402 186.221C475.164 180.79 469.636 175.477 463.831 170.302C462.454 162.647 460.816 155.157 458.925 147.854C465.635 152.477 472.034 157.304 478.1 162.315C479.2 170.106 479.969 178.084 480.402 186.221ZM457.666 146.992C459.569 154.224 461.223 161.643 462.619 169.226C457.246 164.485 451.64 159.86 445.812 155.367C443.525 148.372 441.039 141.543 438.366 134.894C445.046 138.743 451.486 142.781 457.666 146.992ZM477.888 160.846C471.764 155.829 465.306 150.999 458.538 146.376C456.442 138.451 454.047 130.75 451.366 123.3C453.058 124.196 454.733 125.106 456.39 126.031C462.139 129.238 467.675 132.621 472.983 136.169C474.554 142.358 475.892 148.707 476.994 155.198C477.312 157.069 477.61 158.952 477.888 160.846ZM450.052 122.61C452.748 130.003 455.159 137.648 457.274 145.517C451.023 141.295 444.511 137.248 437.757 133.392C434.819 126.19 431.658 119.204 428.29 112.452C435.814 115.579 443.077 118.97 450.052 122.61ZM405.484 104.049C412.82 106.426 419.958 109.037 426.879 111.87C430.245 118.55 433.406 125.464 436.348 132.592C430.106 129.071 423.661 125.713 417.026 122.53C413.334 116.162 409.482 109.998 405.484 104.049ZM417.913 124.068C424.455 127.241 430.809 130.586 436.962 134.089C439.63 140.648 442.114 147.386 444.404 154.287C438.998 150.164 433.404 146.155 427.631 142.27C424.535 136.038 421.292 129.967 417.913 124.068ZM428.525 144.082C434.18 147.928 439.661 151.895 444.957 155.971C447.028 162.325 448.936 168.815 450.671 175.43C446.163 170.824 441.484 166.292 436.639 161.844C434.066 155.792 431.359 149.868 428.525 144.082ZM437.577 164.072C442.272 168.433 446.807 172.874 451.178 177.383C452.737 183.467 454.151 189.654 455.414 195.936C451.85 190.998 448.132 186.101 444.263 181.254C442.154 175.422 439.924 169.692 437.577 164.072ZM445.309 184.185C448.974 188.849 452.499 193.559 455.882 198.305C456.994 204.027 457.981 209.826 458.839 215.695C456.249 210.626 453.526 205.573 450.67 200.543C448.989 195.009 447.201 189.555 445.309 184.185ZM451.965 204.9C454.513 209.508 456.95 214.134 459.276 218.773C459.985 223.912 460.594 229.104 461.102 234.344C459.502 229.491 457.798 224.637 455.988 219.785C454.734 214.764 453.392 209.802 451.965 204.9ZM458.055 228.469C459.262 231.935 460.414 235.401 461.513 238.865C461.822 242.485 462.082 246.129 462.293 249.792C461.684 246.237 461.025 242.673 460.316 239.103C459.606 235.533 458.852 231.987 458.055 228.469ZM449.745 200.94C450.799 204.414 451.809 207.919 452.776 211.455C451.442 208.107 450.058 204.761 448.623 201.42C447.189 198.079 445.717 194.773 444.208 191.502C446.106 194.638 447.952 197.785 449.745 200.94ZM448.403 196.604C445.831 192.194 443.157 187.804 440.38 183.437C438.109 178.784 435.762 174.205 433.346 169.704C436.795 173.68 440.14 177.697 443.378 181.749C445.14 186.63 446.816 191.583 448.403 196.604ZM442.311 178.83C438.724 174.411 435.011 170.036 431.173 165.711C428.378 160.647 425.495 155.683 422.527 150.823C427.081 154.623 431.508 158.495 435.803 162.434C438.08 167.8 440.252 173.267 442.311 178.83ZM420.132 148.842C422.871 153.25 425.54 157.747 428.136 162.329C424.701 158.547 421.17 154.806 417.543 151.109C414.354 147.03 411.107 143.04 407.808 139.14C412.011 142.314 416.12 145.55 420.132 148.842ZM434.853 160.215C430.34 156.125 425.686 152.109 420.894 148.174C417.621 142.909 414.249 137.769 410.786 132.761C416.284 136.05 421.641 139.45 426.853 142.952C429.642 148.577 432.311 154.334 434.853 160.215ZM408.71 131.528C412.052 136.301 415.311 141.196 418.482 146.208C414.052 142.63 409.508 139.121 404.852 135.687C401.068 131.316 397.217 127.063 393.307 122.929C398.552 125.699 403.688 128.568 408.71 131.528ZM425.952 141.146C420.586 137.579 415.068 134.12 409.405 130.777C405.629 125.39 401.748 120.158 397.772 115.086C404.103 117.672 410.288 120.413 416.316 123.298C419.663 129.083 422.878 135.036 425.952 141.146ZM395.902 114.328C399.801 119.252 403.609 124.329 407.319 129.555C402.054 126.492 396.665 123.531 391.159 120.677C386.861 116.206 382.492 111.879 378.062 107.699C384.126 109.774 390.075 111.986 395.902 114.328ZM415.424 121.766C409.279 118.858 402.975 116.099 396.521 113.499C392.197 108.046 387.762 102.781 383.228 97.7125C390.287 99.4566 397.197 101.407 403.944 103.555C407.917 109.416 411.749 115.491 415.424 121.766ZM381.506 97.2918C385.984 102.255 390.368 107.41 394.645 112.75C388.653 110.375 382.535 108.138 376.299 106.045C371.485 101.561 366.6 97.2489 361.656 93.1136C368.388 94.3275 375.009 95.7226 381.506 97.2918ZM340.842 89.986C347.203 90.755 353.482 91.6819 359.669 92.7611C364.507 96.7671 369.289 100.942 374.004 105.283C368.218 103.383 362.333 101.607 356.354 99.9603C351.219 96.4801 346.045 93.1549 340.842 89.986ZM358.924 101.717C364.63 103.335 370.249 105.073 375.775 106.924C380.038 110.9 384.246 115.011 388.39 119.256C383.315 116.678 378.143 114.191 372.877 111.801C368.264 108.311 363.611 104.949 358.924 101.717ZM376.486 114.564C381.255 116.794 385.945 119.104 390.552 121.489C394.145 125.229 397.689 129.07 401.179 133.01C397.033 130.025 392.801 127.1 388.486 124.239C384.522 120.915 380.52 117.69 376.486 114.564ZM395.263 130.049C398.276 132.144 401.245 134.27 404.169 136.426C406.546 139.173 408.898 141.966 411.221 144.806C408.64 142.289 406.014 139.794 403.343 137.324C400.67 134.853 397.976 132.428 395.263 130.049ZM372.363 112.666C375.255 114.856 378.132 117.097 380.991 119.388C377.945 117.463 374.858 115.57 371.734 113.71C368.613 111.853 365.481 110.045 362.341 108.287C365.718 109.707 369.059 111.167 372.363 112.666ZM368.728 109.947C364.057 107.891 359.315 105.912 354.504 104.012C349.929 101.581 345.337 99.2549 340.734 97.0327C345.862 98.2218 350.928 99.5057 355.93 100.881C360.225 103.794 364.492 106.816 368.728 109.947ZM353.351 99.1462C347.852 97.6796 342.277 96.3227 336.63 95.08C331.39 92.6239 326.137 90.3022 320.878 88.1143C326.796 88.5112 332.653 89.0424 338.444 89.7041C343.442 92.7073 348.413 95.8551 353.351 99.1462ZM317.776 87.9189C322.585 89.8765 327.389 91.9463 332.185 94.1286C327.181 93.0873 322.122 92.1355 317.012 91.2764C312.032 89.8507 307.058 88.5304 302.095 87.3142C307.363 87.4111 312.592 87.6136 317.776 87.9189ZM286.597 87.3337C290.267 87.2574 293.92 87.2321 297.555 87.257C301.095 88.0825 304.642 88.9611 308.192 89.8932C304.626 89.3741 301.037 88.9 297.426 88.4719C293.805 88.0426 290.195 87.6635 286.597 87.3337ZM325.567 93.828C329.174 94.5169 332.754 95.2521 336.306 96.0327C339.598 97.5769 342.885 99.1743 346.165 100.825C342.778 99.5729 339.358 98.3601 335.907 97.188C332.46 96.017 329.013 94.8971 325.567 93.828ZM422.964 158.202C425.476 160.877 427.938 163.575 430.351 166.292C432.106 169.474 433.825 172.697 435.507 175.958C433.504 172.956 431.452 169.967 429.351 166.993C427.252 164.021 425.122 161.09 422.964 158.202ZM463.919 267.532C464.378 271.17 464.784 274.797 465.139 278.41C464.688 282.013 464.186 285.628 463.63 289.252C463.774 285.651 463.87 282.031 463.919 278.394C463.967 274.757 463.967 271.136 463.919 267.532Z" stroke="url(#paint0_linear_2529_9518)"/>
<defs>
<linearGradient id="paint0_linear_2529_9518" x1="12.6444" y1="357.357" x2="537.77" y2="194.416" gradientUnits="userSpaceOnUse">
<stop stop-color="#FF5200"/>
<stop offset="0.467707" stop-color="#FCAF8A"/>
</linearGradient>
</defs>
</svg>
