<svg width="284" height="40" viewBox="0 0 284 40" fill="none" xmlns="http://www.w3.org/2000/svg">
<g clip-path="url(#clip0_2423_8858)">
<path d="M180.85 0.698197C160.654 1.32315 140.47 2.37134 120.32 3.84278C102.034 4.16683 83.7452 4.49087 65.4596 4.81492C45.3952 5.17203 25.3307 5.52584 5.26951 5.88295C3.32853 5.91602 0.322826 7.34117 0.025232 9.49377C-0.302122 11.8679 2.63414 12.2647 4.28745 12.2382C17.3254 12.0068 30.3633 11.7753 43.4013 11.5439C37.9751 12.2349 32.5556 12.9525 27.1361 13.7031C25.2579 13.9643 22.6358 14.8439 22.0373 16.8973C21.5016 18.7291 23.1748 20.0286 24.9504 20.0617C55.0604 20.5775 85.1736 21.0966 115.284 21.6125C121.692 21.7216 128.1 21.834 134.508 21.9431C125.289 22.9516 116.084 24.1123 106.905 25.425C92.511 27.4883 78.1768 29.9352 63.9055 32.7227C62.3647 33.0236 60.179 34.3727 59.9442 36.102C59.7161 37.7553 61.538 38.8366 62.9995 38.8498C97.2427 39.1474 131.486 39.4483 165.729 39.7459C175.384 39.8286 185.036 39.9145 194.692 39.9972C196.904 40.017 199.741 39.3855 200.855 37.213C201.851 35.2688 199.986 33.6518 198.084 33.6353C165.121 33.3476 132.157 33.0599 99.1936 32.7723C100.113 32.6334 101.029 32.4912 101.948 32.3556C114.404 30.5105 126.903 28.9465 139.428 27.6669C164.492 25.1076 189.669 23.6824 214.862 23.4013C215.976 23.3881 217.104 23.3815 218.228 23.3749C230.998 23.5931 243.765 23.8147 256.535 24.0329C258.744 24.0693 261.591 23.408 262.699 21.2487C263.717 19.2648 261.812 17.7471 259.928 17.671C246.896 17.1486 233.852 16.9237 220.811 16.9998C203.739 16.7055 186.667 16.4145 169.595 16.1202C139.485 15.6044 109.371 15.0852 79.2614 14.5694C76.8344 14.5264 74.404 14.4867 71.977 14.4438C87.7429 12.7673 103.535 11.3488 119.347 10.1948C152.311 9.6095 185.278 9.02754 218.241 8.44227C238.306 8.08515 258.37 7.73135 278.431 7.37423C280.273 7.34117 282.978 6.07804 283.53 4.18005C284.073 2.32505 282.386 1.08176 280.617 1.01563C247.376 -0.221039 214.095 -0.330157 180.85 0.698197Z" fill="white"/>
</g>
<defs>
<clipPath id="clip0_2423_8858">
<rect width="283.634" height="40" fill="white"/>
</clipPath>
</defs>
</svg>
