<svg width="28" height="52" viewBox="0 0 28 52" fill="none" xmlns="http://www.w3.org/2000/svg">
<path d="M11.4375 45.418H16.5675V49.4571C16.5675 50.3103 15.893 51.0001 15.0587 51.0001H12.9463C12.112 51.0001 11.4375 50.3103 11.4375 49.4571V45.418Z" fill="#222222" fill-opacity="0.8" stroke="#222222" stroke-opacity="0.8" stroke-width="0.5"/>
<path d="M10.9495 6.53645H2.73381C1.8226 6.53645 1.08594 5.8799 1.08594 5.06905C1.08594 4.66363 1.27232 4.29451 1.56817 4.02826C1.86698 3.76504 2.2782 3.59863 2.73381 3.59863H10.6418C10.5353 3.94657 10.4761 4.31872 10.4761 4.70296C10.4761 4.7907 10.4791 4.87542 10.488 4.96013C10.5235 5.53196 10.6862 6.06446 10.9495 6.53645Z" stroke="#222222" stroke-opacity="0.8" stroke-width="0.5" stroke-miterlimit="10"/>
<path d="M26.9114 5.06905C26.9114 5.47448 26.725 5.84057 26.4292 6.10682C26.1304 6.37307 25.7192 6.53645 25.2636 6.53645H17.2461C17.4916 6.09472 17.6514 5.59853 17.6987 5.06905L17.7076 4.96013C17.7165 4.87542 17.7194 4.7907 17.7194 4.70296C17.7194 4.31872 17.6632 3.94657 17.5538 3.59863H25.2636C26.1748 3.59863 26.9114 4.2582 26.9114 5.06905Z" stroke="#222222" stroke-opacity="0.8" stroke-width="0.5" stroke-miterlimit="10"/>
<path d="M20.6339 15.3438V37.5393C20.6339 40.0506 19.3026 42.2411 17.3204 43.412V33.8028C17.3204 32.2446 16.0838 30.983 14.5631 30.983H13.4448C11.9212 30.983 10.6875 32.2446 10.6875 33.8028V43.412C8.70537 42.2411 7.37109 40.0506 7.37109 37.5393V15.3438C7.37109 11.5982 10.3414 8.56055 14.004 8.56055C15.8353 8.56055 17.492 9.31996 18.6932 10.5483C19.8914 11.7737 20.6339 13.471 20.6339 15.3438Z" stroke="#222222" stroke-opacity="0.8" stroke-width="0.5" stroke-miterlimit="10"/>
<path d="M17.3165 33.8032V44.8435C17.3165 45.1612 17.065 45.4183 16.7544 45.4183H11.2457C10.9351 45.4183 10.6836 45.1612 10.6836 44.8435V33.8032C10.6836 32.2451 11.9173 30.9834 13.4409 30.9834H14.5592C16.0799 30.9834 17.3165 32.2451 17.3165 33.8032Z" stroke="#222222" stroke-opacity="0.8" stroke-width="0.5" stroke-miterlimit="10"/>
<path d="M13.9962 16.1123C15.4439 16.1123 16.6174 14.9121 16.6174 13.4316C16.6174 11.9511 15.4439 10.751 13.9962 10.751C12.5486 10.751 11.375 11.9511 11.375 13.4316C11.375 14.9121 12.5486 16.1123 13.9962 16.1123Z" stroke="#222222" stroke-opacity="0.8" stroke-width="0.5" stroke-miterlimit="10"/>
<path d="M17.6242 4.70328C17.6242 4.79102 17.6213 4.87574 17.6124 4.96046L17.6035 5.06938C17.5562 5.59885 17.3964 6.09504 17.1509 6.53677C16.9763 6.8484 16.7574 7.13583 16.503 7.3809C15.855 8.01627 14.9734 8.40657 14.003 8.40657C13.0297 8.40657 12.1481 8.01627 11.5002 7.3809C11.2487 7.13583 11.0298 6.8484 10.8523 6.53677C10.589 6.06478 10.4262 5.53229 10.3907 4.96046C10.3819 4.87574 10.3789 4.79102 10.3789 4.70328C10.3789 4.31904 10.4381 3.94689 10.5446 3.59895C10.66 3.21471 10.8375 2.85769 11.0623 2.54001C11.7191 1.60511 12.793 1 14.003 1C15.2131 1 16.284 1.60511 16.9408 2.54001C17.1657 2.85769 17.3432 3.21471 17.4585 3.59895C17.568 3.94689 17.6242 4.31904 17.6242 4.70328Z" stroke="#222222" stroke-opacity="0.8" stroke-width="0.5" stroke-miterlimit="10"/>
<path d="M25.2897 5.06836H17.5977" stroke="#222222" stroke-opacity="0.8" stroke-width="0.5" stroke-miterlimit="10" stroke-linecap="round" stroke-linejoin="round"/>
<path d="M10.403 5.06836H2.71094" stroke="#222222" stroke-opacity="0.8" stroke-width="0.5" stroke-miterlimit="10" stroke-linecap="round" stroke-linejoin="round"/>
</svg>
