<svg width="58" height="30" viewBox="0 0 58 30" fill="none" xmlns="http://www.w3.org/2000/svg">
<path d="M37.7512 29.3042C38.0202 29.5193 38.5346 29.5624 38.898 29.4075C39.2614 29.2526 39.3417 28.9558 39.0727 28.7407C37.97 27.8645 38.5658 26.9922 39.1878 26.0817L37.7512 29.3042ZM37.7512 29.3042C36.1132 28.0008 36.8734 26.8863 37.671 25.7248L37.7512 29.3042ZM56.7824 1.60988L56.5129 1.9055C55.8364 1.28883 54.8939 0.9 53.8512 0.9H4.15351C3.11123 0.9 2.169 1.28856 1.48709 1.9098L56.7824 1.60988ZM56.7824 1.60988L56.5129 1.9055C57.1889 2.52171 57.6 3.36449 57.6 4.28166V16.3328C57.6 17.25 57.1889 18.0928 56.5129 18.709C55.8364 19.3257 54.8939 19.7145 53.8512 19.7145H4.15351C3.11083 19.7145 2.16835 19.3257 1.49181 18.709L1.49088 18.7081M56.7824 1.60988L1.49088 18.7081M1.49088 18.7081C0.810884 18.0922 0.4 17.2498 0.4 16.3328M1.49088 18.7081L0.4 16.3328M17.0207 29.3042C17.2897 29.5193 17.8041 29.5624 18.1675 29.4075C18.5309 29.2526 18.6111 28.9558 18.3421 28.7407C17.2395 27.8645 17.8353 26.9922 18.4572 26.0817L17.0207 29.3042ZM17.0207 29.3042C15.3826 28.0008 16.1428 26.8863 16.9404 25.7248L17.0207 29.3042ZM23.9307 29.3042C24.1997 29.5193 24.7142 29.5624 25.0776 29.4075C25.441 29.2526 25.5212 28.9558 25.2522 28.7407C24.1495 27.8645 24.7454 26.9922 25.3673 26.0817L23.9307 29.3042ZM23.9307 29.3042C22.2927 28.0008 23.0529 26.8863 23.8505 25.7248L23.9307 29.3042ZM0.4 16.3328V4.28597M0.4 16.3328V4.28597M0.4 4.28597C0.4 3.36882 0.81103 2.52607 1.48702 1.90987L0.4 4.28597ZM38.1671 28.2334C38.2835 28.5193 38.4898 28.7796 38.7819 29.02C38.7703 29.0263 38.7568 29.0329 38.7412 29.0395C38.6295 29.0871 38.4775 29.1096 38.3243 29.0961C38.1671 29.0823 38.0552 29.0351 38.001 28.9918L38.0003 28.9913C37.6226 28.6907 37.4093 28.4215 37.2962 28.1855C37.186 27.9556 37.1617 27.7386 37.1936 27.5186C37.2625 27.0428 37.5861 26.5551 38.0007 25.9512L38.0015 25.95C38.0112 25.9358 38.021 25.9215 38.0308 25.9071C38.3442 25.4476 38.7233 24.8918 38.8326 24.293C38.8917 23.9689 38.8743 23.628 38.7352 23.2808C38.6038 22.9527 38.3728 22.6409 38.0367 22.3404C38.0532 22.3312 38.0737 22.3215 38.0986 22.3118C38.2184 22.2654 38.3725 22.2478 38.5231 22.2652C38.6765 22.2829 38.7824 22.3313 38.8319 22.3722C39.649 23.0824 39.7945 23.6567 39.724 24.1447C39.6449 24.693 39.2879 25.2284 38.8608 25.8513L38.8604 25.8519C38.8511 25.8655 38.8417 25.8792 38.8323 25.893C38.5414 26.3185 38.1976 26.8212 38.0919 27.3425C38.0339 27.6283 38.0436 27.9299 38.1671 28.2334ZM42.0616 18.6171V19.0171H42.4616H53.8512C54.6401 19.0171 55.3638 18.7217 55.8907 18.2417L55.8908 18.2416C56.418 17.7611 56.7576 17.0851 56.7576 16.3325V4.28597C56.7576 3.53361 56.4179 2.85767 55.891 2.37693L55.8908 2.37682C55.3641 1.89673 54.6404 1.60135 53.8512 1.60135H4.15351C3.36498 1.60135 2.64157 1.89652 2.11467 2.3761C1.58199 2.85698 1.24238 3.53339 1.24238 4.28597V16.3328C1.24238 17.0852 1.58205 17.7611 2.10905 18.2419C2.63589 18.7225 3.35975 19.0174 4.1488 19.0174H6.05111H6.45111V18.6174V13.3455C6.45409 13.183 6.61172 12.9938 6.87702 12.9938H41.6404C41.9083 12.9938 42.0616 13.1844 42.0616 13.3424V18.6171ZM41.2192 14.0912V13.6912H40.8192H7.69858H7.29858V14.0912V18.4325V18.8325H7.69858H40.8192H41.2192V18.4325V14.0912ZM11.2198 25.8513L11.2194 25.8519C11.2101 25.8655 11.2007 25.8792 11.1913 25.893C10.9004 26.3185 10.5567 26.8212 10.4509 27.3425C10.3929 27.6283 10.4026 27.9299 10.5261 28.2334C10.6425 28.5193 10.8488 28.7796 11.141 29.02C11.1293 29.0263 11.1158 29.0329 11.1003 29.0395C10.9885 29.0871 10.8366 29.1096 10.6833 29.0961C10.5261 29.0823 10.4142 29.0351 10.36 28.9918L10.3593 28.9913C9.98162 28.6907 9.76829 28.4215 9.65521 28.1855C9.54505 27.9556 9.52077 27.7386 9.55263 27.5186C9.62156 27.0428 9.94508 26.5551 10.3597 25.9512L10.3605 25.9501C10.369 25.9377 10.3775 25.9252 10.3861 25.9126C10.7006 25.4516 11.0812 24.8939 11.1902 24.2926C11.2489 23.9686 11.2312 23.628 11.0925 23.281C10.9614 22.953 10.7309 22.6411 10.3956 22.3405C10.4122 22.3313 10.4327 22.3215 10.4577 22.3118C10.5775 22.2654 10.7316 22.2478 10.8821 22.2652C11.0356 22.2829 11.1415 22.3313 11.191 22.3722C12.008 23.0825 12.1535 23.6567 12.0831 24.1447C12.0039 24.693 11.6469 25.2284 11.2198 25.8513ZM17.4366 28.2334C17.5529 28.5193 17.7592 28.7796 18.0514 29.02C18.0398 29.0263 18.0263 29.0329 18.0107 29.0395C17.8989 29.0871 17.747 29.1096 17.5938 29.0961C17.4366 29.0823 17.3246 29.0351 17.2705 28.9918L17.2697 28.9913C16.892 28.6907 16.6787 28.4215 16.5656 28.1855C16.4555 27.9556 16.4312 27.7386 16.4631 27.5186C16.532 27.0428 16.8555 26.5551 17.2702 25.9512L17.271 25.95C17.2795 25.9375 17.2882 25.9248 17.2968 25.9121C17.6111 25.4512 17.9914 24.8937 18.1003 24.2926C18.1591 23.9686 18.1414 23.628 18.0028 23.281C17.8717 22.953 17.6412 22.6411 17.306 22.3405C17.3226 22.3313 17.3431 22.3215 17.3681 22.3118C17.4879 22.2654 17.642 22.2478 17.7925 22.2652C17.946 22.2829 18.0519 22.3313 18.1014 22.3722C18.9184 23.0824 19.0639 23.6567 18.9935 24.1447C18.9143 24.693 18.5573 25.2284 18.1302 25.8513L18.1298 25.8519C18.1205 25.8655 18.1111 25.8792 18.1017 25.893C17.8108 26.3185 17.4671 26.8212 17.3613 27.3425C17.3034 27.6283 17.313 27.9299 17.4366 28.2334ZM24.3466 28.2334C24.463 28.5193 24.6693 28.7796 24.9615 29.02C24.9498 29.0263 24.9363 29.0329 24.9207 29.0395C24.809 29.0871 24.6571 29.1096 24.5038 29.0961C24.3466 29.0823 24.2347 29.0351 24.1805 28.9918L24.1798 28.9913C23.8021 28.6907 23.5888 28.4215 23.4757 28.1855C23.3655 27.9556 23.3413 27.7386 23.3731 27.5186C23.442 27.0428 23.7656 26.5551 24.1802 25.9512L24.181 25.95C24.1907 25.9358 24.2005 25.9215 24.2103 25.907C24.5237 25.4476 24.9028 24.8918 25.0121 24.293C25.0712 23.9689 25.0538 23.628 24.9147 23.2808C24.7833 22.9527 24.5523 22.6409 24.2162 22.3404C24.2327 22.3312 24.2532 22.3215 24.2782 22.3118C24.3979 22.2654 24.5521 22.2478 24.7026 22.2652C24.856 22.2829 24.9619 22.3313 25.0114 22.3722C25.8285 23.0824 25.974 23.6567 25.9036 24.1447C25.8244 24.693 25.4674 25.2284 25.0403 25.8513L25.0399 25.8519C25.0306 25.8655 25.0212 25.8792 25.0118 25.893C24.7209 26.3185 24.3771 26.8212 24.2714 27.3425C24.2134 27.6283 24.2231 27.9299 24.3466 28.2334ZM31.9503 25.8513L31.9499 25.8519C31.9406 25.8655 31.9313 25.8792 31.9218 25.893C31.6309 26.3185 31.2872 26.8212 31.1815 27.3425C31.1235 27.6283 31.1332 27.9299 31.2567 28.2334C31.3731 28.5193 31.5794 28.7796 31.8715 29.02C31.8599 29.0263 31.8464 29.0329 31.8308 29.0395C31.7191 29.0871 31.5671 29.1096 31.4139 29.0961C31.2567 29.0823 31.1447 29.0351 31.0906 28.9918L31.0898 28.9913C30.7122 28.6908 30.4993 28.4216 30.3866 28.1859C30.2768 27.9562 30.2528 27.7391 30.2849 27.519C30.3544 27.0425 30.6782 26.5549 31.0909 25.9503L31.091 25.9501C31.1007 25.936 31.1103 25.9218 31.1201 25.9075C31.4337 25.448 31.8131 24.892 31.9224 24.293C31.9816 23.9689 31.9641 23.628 31.8249 23.2807C31.6935 22.9526 31.4624 22.6408 31.1262 22.3404C31.1428 22.3312 31.1633 22.3215 31.1882 22.3118C31.308 22.2654 31.4621 22.2478 31.6126 22.2652C31.7661 22.2829 31.872 22.3313 31.9215 22.3722C32.7386 23.0824 32.8841 23.6567 32.8136 24.1447C32.7345 24.693 32.3774 25.2284 31.9503 25.8513ZM7.17907 5.9684C6.91123 5.9684 6.75788 5.77786 6.75788 5.61987C6.75788 5.46188 6.91123 5.27135 7.17907 5.27135H51.425C51.6929 5.27135 51.8462 5.46188 51.8462 5.61987C51.8462 5.77787 51.6929 5.9684 51.425 5.9684H7.17907ZM46.5305 14.6633C46.9872 14.6633 47.2915 14.9915 47.2915 15.3216C47.2915 15.6516 46.9872 15.9798 46.5305 15.9798C46.0739 15.9798 45.7696 15.6516 45.7696 15.3216C45.7696 14.9924 46.0773 14.6633 46.5305 14.6633ZM51.3778 14.6633C51.8344 14.6633 52.1388 14.9915 52.1388 15.3216C52.1388 15.6516 51.8344 15.9798 51.3778 15.9798C50.9212 15.9798 50.6168 15.6516 50.6168 15.3216C50.6168 14.9915 50.9212 14.6633 51.3778 14.6633ZM7.17907 9.46184C6.91123 9.46184 6.75788 9.2713 6.75788 9.11331C6.75788 8.95532 6.91123 8.76479 7.17907 8.76479H51.425C51.6929 8.76479 51.8462 8.95532 51.8462 9.11331C51.8462 9.27131 51.6929 9.46184 51.425 9.46184H7.17907Z" stroke="#222222" stroke-opacity="0.8" stroke-width="0.8" stroke-miterlimit="10"/>
</svg>
