<svg width="56" height="56" viewBox="0 0 56 56" fill="none" xmlns="http://www.w3.org/2000/svg">
<path d="M54.513 27.4279L54.5155 27.4205C55.1791 25.4381 55.1943 24.2242 54.9644 23.5946C54.8927 23.4005 54.8238 23.3363 54.7977 23.3195L54.7883 23.3135L54.7884 23.3133C54.7867 23.3122 54.7548 23.2946 54.6823 23.3022L54.513 27.4279ZM54.513 27.4279L54.5108 27.4353M54.513 27.4279L54.5108 27.4353M54.5108 27.4353L54.4965 27.4844L54.4965 27.4844M54.5108 27.4353L54.4965 27.4844M54.4965 27.4844L54.4951 27.4892M54.4965 27.4844L54.4951 27.4892M54.4951 27.4892L53.2398 31.9915L53.2396 31.9924M54.4951 27.4892L53.2396 31.9924M53.2396 31.9924C53.0822 32.5622 52.9539 33.0463 52.8392 33.479C52.8068 33.6013 52.7755 33.7195 52.7449 33.8344L52.7447 33.8353M53.2396 31.9924L52.7447 33.8353M52.7447 33.8353C52.3758 35.2344 52.1367 36.1362 51.6984 37.0434M52.7447 33.8353L51.6984 37.0434M40.52 49.9603H39.9245L40.5958 49.2795C41.4191 48.4445 42.3185 47.578 43.2286 46.7012L43.3095 46.6232L40.52 49.9603ZM40.52 49.9603V55.0997H30.7594V49.9603H30.764L30.7829 49.5802C30.7974 49.2904 30.8112 49.0137 30.843 48.73L30.8439 48.7218L30.8444 48.7136C30.8872 48.1069 30.9394 47.5022 31.0103 46.8889C31.1901 45.3353 31.3153 44.275 31.6513 43.4147L31.6514 43.4146C31.9647 42.6116 32.5175 41.8609 33.638 40.8993L33.6399 40.8976C33.8606 40.7058 34.0945 40.5101 34.3368 40.3201C34.5611 40.1473 34.7835 39.9937 35.005 39.8696C35.4853 39.6037 35.892 39.3857 36.2648 39.186C36.3689 39.1302 36.4704 39.0759 36.5701 39.0222C38.7672 37.852 39.9939 37.196 42.8011 34.4847L42.8011 34.4847L42.8044 34.4814L42.8126 34.4733L45.3685 32.172L45.3778 32.1636L45.3866 32.1547C45.3893 32.1519 45.3922 32.149 45.3952 32.1459C45.4245 32.1161 45.467 32.0728 45.5044 32.0278L45.5045 32.0276C45.9846 31.4489 46.4109 31.0635 46.7722 30.8254C47.136 30.5856 47.4122 30.5091 47.6004 30.5091C47.6223 30.5091 47.6452 30.5104 47.6702 30.5131L47.6727 30.5133C47.7303 30.519 47.7687 30.5386 47.7968 30.5625C47.8211 30.5884 47.8574 30.6461 47.8831 30.7533C47.9611 31.0972 47.8331 31.6771 47.2199 32.2755C47.1673 32.3226 47.1248 32.3733 47.1011 32.4015C47.0999 32.4029 47.0989 32.4042 47.0978 32.4054L40.4849 39.9245C40.4848 39.9247 40.4847 39.9248 40.4846 39.9249C39.9806 40.4946 40.0281 41.3731 40.5901 41.8869C41.1544 42.407 42.0306 42.3563 42.5369 41.7788C42.537 41.7787 42.5371 41.7786 42.5372 41.7785L49.1386 34.2666C49.5357 33.8752 49.8492 33.4602 50.0858 33.0304C50.149 32.9445 50.2083 32.8447 50.2531 32.7352L53.9528 23.743C54.2315 23.4474 54.4971 23.3218 54.6822 23.3023L40.52 49.9603ZM51.6984 37.0434C51.2621 37.9467 50.6191 38.8722 49.4203 40.2823M51.6984 37.0434L49.4203 40.2823M49.4203 40.2823C47.3216 42.7485 45.2798 44.7206 43.3099 46.6229L49.4203 40.2823Z" stroke="#222222" stroke-opacity="0.8" stroke-width="0.8" stroke-miterlimit="10"/>
<path d="M28.0061 0.9C30.3935 0.9 32.3349 2.87378 32.3349 5.3248C32.3349 7.78044 30.3889 9.7496 28.0061 9.7496C25.6236 9.7496 23.6773 7.77553 23.6773 5.3248C23.6773 2.87407 25.6236 0.9 28.0061 0.9Z" stroke="#222222" stroke-opacity="0.8" stroke-width="0.8" stroke-miterlimit="10"/>
<path d="M19.821 26.2069L22.9906 22.973L26.1908 26.2841L23.6987 28.8268L23.4281 29.1029L23.6949 29.3828L25.913 31.7097L25.9134 31.7101L26.6477 32.4782C27.1615 33.188 27.0116 33.9152 26.6163 34.3267C26.4141 34.5371 26.1484 34.6659 25.8609 34.6794C25.5811 34.6926 25.2479 34.5979 24.9013 34.3048L20.0106 29.2178C19.6777 28.7426 19.4774 28.2665 19.4329 27.7806C19.3892 27.3028 19.4932 26.7829 19.821 26.2069Z" stroke="#222222" stroke-opacity="0.8" stroke-width="0.8" stroke-miterlimit="10"/>
<path d="M33.0184 22.9728L36.1834 26.202C36.5112 26.7781 36.6152 27.2979 36.5715 27.7757C36.5271 28.2617 36.3267 28.7378 35.9937 29.213L31.1077 34.3048C30.7611 34.5978 30.428 34.6924 30.1482 34.6793C29.8607 34.6657 29.5949 34.5369 29.3928 34.3265C28.9974 33.915 28.8476 33.1878 29.3613 32.4781L30.0956 31.71L30.096 31.7095L32.3142 29.3826L32.581 29.1027L32.3103 28.8266L29.8182 26.2839L33.0184 22.9728Z" stroke="#222222" stroke-opacity="0.8" stroke-width="0.8" stroke-miterlimit="10"/>
<path d="M32.663 19.9708V16.6998V15.6872L33.355 16.4265L37.1292 20.4581C37.1294 20.4583 37.1296 20.4585 37.1298 20.4587C37.7066 21.0682 38.4578 21.2166 39.0091 20.8084C39.3062 20.5848 39.521 20.2283 39.59 19.864C39.6584 19.5028 39.5785 19.1791 39.3555 18.9597L39.3545 18.9588L34.4013 14.0517C34.4011 14.0515 34.4009 14.0513 34.4006 14.0511C34.2282 13.8811 34.0267 13.6664 33.814 13.4397C33.764 13.3864 33.7134 13.3326 33.6625 13.2784C33.3901 12.9891 33.0998 12.6856 32.807 12.4088C32.5127 12.1305 32.2265 11.8895 31.9642 11.7202C31.6924 11.5447 31.4945 11.4781 31.3667 11.4781H24.7358C24.5845 11.4781 24.3679 11.5505 24.0853 11.726C23.8105 11.8966 23.5141 12.1389 23.2126 12.4174C22.9126 12.6946 22.6175 12.9981 22.3438 13.286C22.2725 13.361 22.2022 13.4355 22.1334 13.5083C21.9423 13.7106 21.7632 13.9002 21.611 14.0509C21.611 14.0509 21.6109 14.0509 21.6109 14.051L16.6575 18.9586L32.663 19.9708ZM32.663 19.9708H23.3346V16.7093V15.6947L22.6422 16.4363L18.8821 20.4634C18.882 20.4635 18.8818 20.4637 18.8817 20.4639C18.3166 21.0655 17.5546 21.2174 17.0016 20.8114C16.7009 20.588 16.4867 20.2326 16.4188 19.8689C16.3516 19.5084 16.4325 19.1819 16.6574 18.9587L32.663 19.9708Z" stroke="#222222" stroke-opacity="0.8" stroke-width="0.8" stroke-miterlimit="10"/>
<path d="M25.2441 49.9588H25.2389L25.22 49.5787C25.2056 49.2891 25.1917 49.0094 25.1639 48.7165L25.163 48.7069L25.1631 48.7069C25.1204 48.1002 25.0682 47.4955 24.9973 46.8822L24.9973 46.8821C24.818 45.3285 24.6928 44.2684 24.3563 43.4082L24.3562 43.4079C24.0429 42.605 23.4897 41.8542 22.3695 40.8925L22.368 40.8912C22.1464 40.699 21.913 40.5033 21.6708 40.3134C21.4462 40.1404 21.224 39.9866 21.0031 39.8632C20.5139 39.5921 20.1008 39.3709 19.7219 39.168C19.625 39.1161 19.5304 39.0655 19.4373 39.0155C17.2403 37.8453 16.0141 37.1892 13.2065 34.478L13.1986 34.4704L13.1987 34.4703L13.1927 34.4641L10.6391 32.1653L10.6308 32.1579L10.623 32.15C10.5879 32.1147 10.545 32.0707 10.5053 32.0236L10.5026 32.0204L10.5026 32.0204C10.0248 31.4423 9.59896 31.057 9.23743 30.8189C8.87337 30.5792 8.59605 30.5024 8.40723 30.5024C8.3817 30.5024 8.36008 30.5037 8.34202 30.5058L8.33436 30.5067L8.33436 30.5066C8.27629 30.5123 8.23827 30.5319 8.21003 30.5562C8.18652 30.5809 8.14994 30.6385 8.12398 30.7467C8.04603 31.0902 8.17401 31.6703 8.78713 32.2687C8.84161 32.3175 8.88445 32.3688 8.91029 32.3998L15.513 39.9226C15.5132 39.9228 15.5133 39.923 15.5135 39.9232C16.0176 40.4931 15.9697 41.3721 15.407 41.8857C14.8421 42.4056 13.9671 42.3539 13.4611 41.777L25.2441 49.9588ZM25.2441 49.9588V55.0987H15.5607V49.5593V49.1593H15.2847C14.4857 48.353 13.6191 47.5185 12.7427 46.6745L12.6884 46.6222L12.6879 46.6218L12.6804 46.6145C10.7133 44.7145 8.67351 42.7443 6.57801 40.2813C5.37903 38.8712 4.73592 37.9457 4.29954 37.0424C3.86129 36.1352 3.62234 35.2335 3.2537 33.8344L3.25352 33.8337C3.23018 33.7458 3.2064 33.6559 3.18201 33.5638C3.06168 33.1092 2.92669 32.5992 2.75876 31.9914L2.75851 31.9905L1.50321 27.4882L1.50324 27.4882L1.50186 27.4834L1.48751 27.4343L1.48535 27.4269L1.48291 27.4196C0.819848 25.4372 0.804369 24.2234 1.03358 23.5924C1.1055 23.3978 1.1743 23.334 1.19926 23.3181L1.19936 23.3183L1.20951 23.3114C1.21113 23.3103 1.24303 23.2927 1.3155 23.3003L25.2441 49.9588ZM6.8587 34.2645L13.4607 41.7765L1.31564 23.3003C1.50046 23.3199 1.76646 23.4455 2.04457 23.741L5.74448 32.7325C5.7446 32.7328 5.74473 32.7331 5.74485 32.7334C5.78958 32.8432 5.84881 32.943 5.91235 33.029C6.14892 33.4586 6.46236 33.8734 6.8587 34.2645Z" stroke="#222222" stroke-opacity="0.8" stroke-width="0.8" stroke-miterlimit="10"/>
<path d="M27.4036 25.5714L23.5953 21.6858V21.2945H32.3394V21.6178L28.4644 25.5714H27.4036Z" stroke="#222222" stroke-opacity="0.8" stroke-width="0.8" stroke-miterlimit="10"/>
</svg>
