<svg width="70" height="44" viewBox="0 0 70 44" fill="none" xmlns="http://www.w3.org/2000/svg">
<path d="M15.0414 36.5518V12.9447C15.0414 12.3091 14.5353 11.7787 13.8928 11.7787H1.58069C0.938114 11.7787 0.432031 12.3091 0.432031 12.9447V36.5518C0.432031 37.1867 0.937462 37.7177 1.58069 37.7177H13.8928C14.5353 37.7177 15.0414 37.1873 15.0414 36.5518Z" stroke="#222222" stroke-opacity="0.8" stroke-width="0.8" stroke-miterlimit="10"/>
<path d="M38.4091 19.1375L38.4095 19.1377C38.4841 19.1857 38.5697 19.2106 38.6562 19.2106H45.5463L38.4091 19.1375ZM38.4091 19.1375C34.5869 16.6893 30.7134 14.5549 26.8146 13.8212C26.7346 13.8059 26.6552 13.7992 26.5779 13.7992H18.2949C17.5834 13.7992 17.0219 14.3868 17.0219 15.0921V34.6632C17.0219 35.1422 17.2831 35.5864 17.7077 35.8105M38.4091 19.1375L17.7077 35.8105M38.1502 29.5785L38.1652 29.5797C38.5521 29.6107 38.9645 29.5801 39.4015 29.5375C39.4678 29.531 39.535 29.5242 39.6028 29.5174C39.9686 29.4804 40.3521 29.4417 40.7134 29.4417C44.8955 29.4362 48.186 28.6229 50.2171 25.4265L50.2173 25.4261C50.232 25.4031 50.246 25.3763 50.2586 25.3464C50.2587 25.3462 50.2588 25.3461 50.2589 25.3459L51.1746 23.1563C51.1746 23.1562 51.1746 23.1562 51.1746 23.1561C51.2923 22.8745 51.5054 22.6427 51.7778 22.5048L62.0992 17.2714C62.0994 17.2714 62.0995 17.2713 62.0996 17.2712C62.1591 17.2408 62.2209 17.2152 62.2831 17.1948L62.2841 17.1945C65.0881 16.2802 67.5327 17.3121 68.7516 19.1539C69.9735 21.0002 69.9245 23.6026 67.8831 25.7131M38.1502 29.5785L67.5956 25.435M38.1502 29.5785L38.1351 29.5784M38.1502 29.5785L38.1351 29.5784M67.8831 25.7131L67.5956 25.435M67.8831 25.7131C67.8831 25.7131 67.8831 25.713 67.8832 25.713L67.5956 25.435M67.8831 25.7131C67.8324 25.7655 67.7776 25.813 67.7208 25.8549M67.5956 25.435C67.5609 25.4708 67.5228 25.5039 67.4827 25.5335M67.7208 25.8549C67.721 25.8548 67.7212 25.8546 67.7214 25.8545L67.4827 25.5335M67.7208 25.8549C67.7206 25.8551 67.7204 25.8552 67.7202 25.8554L67.4827 25.5335M67.7208 25.8549C60.0026 31.5925 52.0889 36.3191 43.9914 40.1409M67.4827 25.5335L43.9492 40.1636M43.9914 40.1409C43.9909 40.1412 43.9903 40.1414 43.9898 40.1417L43.8191 39.7799L43.9928 40.1402C43.9924 40.1404 43.9919 40.1407 43.9914 40.1409ZM43.9914 40.1409C43.9753 40.1487 43.9614 40.1563 43.9492 40.1636M43.9492 40.1636C43.9496 40.1634 43.95 40.1632 43.9504 40.1629L43.7397 39.8229L43.9482 40.1642C43.9486 40.164 43.9489 40.1638 43.9492 40.1636ZM17.7077 35.8105L17.8944 35.4568L17.7076 35.8105L17.7077 35.8105ZM38.1351 29.5784C37.6153 29.576 37.2694 29.4054 37.0557 29.1887C36.8382 28.9682 36.7308 28.6734 36.7355 28.3765C36.7402 28.0792 36.857 27.7918 37.0744 27.5855C37.2861 27.3847 37.619 27.2363 38.1051 27.2592C41.4863 27.5697 44.9556 27.7039 47.606 25.7158L38.1351 29.5784ZM25.918 40.1474L25.9278 40.1525L26.1147 39.7988L25.9085 40.1416C25.9117 40.1435 25.9148 40.1454 25.918 40.1474Z" stroke="#222222" stroke-opacity="0.8" stroke-width="0.8" stroke-miterlimit="10"/>
<path d="M55.9868 8.954C55.9868 4.62212 52.5515 1.1 48.3012 1.1C44.0509 1.1 40.6156 4.62212 40.6156 8.954C40.6156 13.2859 44.0509 16.808 48.3012 16.808C52.5572 16.808 55.9868 13.28 55.9868 8.954Z" stroke="#222222" stroke-opacity="0.8" stroke-width="0.8" stroke-miterlimit="10"/>
<path d="M47.7896 6.27946H45.6602H45.2602V6.67946V7.32053V7.72053H45.6602H47.9855C47.9119 7.85111 47.8092 7.9628 47.6772 8.05582C47.4045 8.24799 46.9746 8.38193 46.3495 8.38193H45.6602H45.2602V8.78193V9.57627V9.73217L45.3657 9.84696C45.6672 10.175 45.9509 10.4919 46.2234 10.8019C46.7001 11.3457 47.141 11.8696 47.5764 12.3974L47.5764 12.3975C47.8572 12.7377 48.1351 13.0794 48.4186 13.4296L48.5387 13.578H48.7295H49.9326H50.7635L50.2453 12.9285C49.9678 12.5807 49.6893 12.233 49.4118 11.8909L49.4117 11.8907C48.9581 11.3322 48.5061 10.7868 48.0636 10.2764C48.0636 10.2764 48.0636 10.2764 48.0636 10.2764L47.7613 10.5385C47.5675 10.3149 47.3758 10.0981 47.1868 9.88989C47.3494 9.87359 47.5071 9.84922 47.6593 9.81683M47.7896 6.27946L47.3428 9.46762C47.4476 9.58148 47.5531 9.698 47.6593 9.81683M47.7896 6.27946C47.7496 6.24723 47.7058 6.2176 47.6583 6.19039C47.4166 6.05188 47.0553 5.96479 46.5498 5.96479H45.6602H45.2602V5.56479V4.73145V4.33145H45.6602H50.9339H51.3339V4.73145V5.37251H50.9343V5.77251H50.9339H50.5339H49.7036C49.7847 5.92719 49.8506 6.09601 49.8986 6.27946H50.9343H51.3343V6.67946V7.32053V7.72053H50.9343H49.9226C49.7912 8.31703 49.4814 8.82322 49.0145 9.19908C48.6424 9.49861 48.1834 9.70528 47.6593 9.81683M47.7896 6.27946L47.6593 9.81683" stroke="#222222" stroke-opacity="0.8" stroke-width="0.8" stroke-miterlimit="10"/>
</svg>
