<svg width="32" height="44" viewBox="0 0 32 44" fill="none" xmlns="http://www.w3.org/2000/svg">
<path d="M12.6792 7.38867L9.15234 8.91717V13.4007L12.7985 12.1068L12.6792 7.38867Z" stroke="#222222" stroke-opacity="0.8" stroke-width="0.8" stroke-miterlimit="10"/>
<path d="M12.6792 13.5195L9.15234 15.048V19.5315L12.7985 18.2374L12.6792 13.5195Z" stroke="#222222" stroke-opacity="0.8" stroke-width="0.8" stroke-miterlimit="10"/>
<path d="M12.6792 20.3496L9.15234 21.8784V26.3619L12.7985 25.0678L12.6792 20.3496Z" stroke="#222222" stroke-opacity="0.8" stroke-width="0.8" stroke-miterlimit="10"/>
<path d="M6.30026 22.8828L2.77344 24.4113V28.8948L6.41963 27.6007L6.30026 22.8828Z" stroke="#222222" stroke-opacity="0.8" stroke-width="0.8" stroke-miterlimit="10"/>
<path d="M12.6792 26.3691L9.15234 27.8976V32.3811L12.7985 31.087L12.6792 26.3691Z" stroke="#222222" stroke-opacity="0.8" stroke-width="0.8" stroke-miterlimit="10"/>
<path d="M6.30026 28.9023L2.77344 30.4312V34.9147L6.41963 33.6205L6.30026 28.9023Z" stroke="#222222" stroke-opacity="0.8" stroke-width="0.8" stroke-miterlimit="10"/>
<path d="M6.30026 10.0742L2.77344 11.6027V16.0862L6.41963 14.7921L6.30026 10.0742Z" stroke="#222222" stroke-opacity="0.8" stroke-width="0.8" stroke-miterlimit="10"/>
<path d="M6.30026 16.4736L2.77344 18.0025V22.4859L6.41963 21.1918L6.30026 16.4736Z" stroke="#222222" stroke-opacity="0.8" stroke-width="0.8" stroke-miterlimit="10"/>
<path d="M14.1132 1L1.30078 10.2633V36.9147L14.1132 32.8315V1Z" stroke="#222222" stroke-opacity="0.8" stroke-width="0.8" stroke-miterlimit="10"/>
<path d="M14.1094 1V32.8315L30.6983 38.2886V10.2633L14.1094 1Z" stroke="#222222" stroke-opacity="0.8" stroke-width="0.8" stroke-miterlimit="10"/>
<path d="M1.30078 36.9133L16.0013 43.0005L30.7021 38.2872L14.1132 32.8301L1.30078 36.9133Z" stroke="#222222" stroke-opacity="0.8" stroke-width="0.8" stroke-miterlimit="10"/>
</svg>
