<svg width="42" height="34" viewBox="0 0 42 34" fill="none" xmlns="http://www.w3.org/2000/svg">
<g clip-path="url(#clip0_1231_26974)">
<path fill-rule="evenodd" clip-rule="evenodd" d="M30.4391 9.6602C27.6191 10.2602 24.2391 10.6202 20.9791 10.7002C17.7191 10.6302 14.3591 10.2502 11.5391 9.6602C14.3491 9.0802 17.7291 8.7802 20.9891 8.7002C24.2591 8.7702 27.6391 9.0802 30.4391 9.6602Z" fill="#222222" fill-opacity="0.8"/>
<path fill-rule="evenodd" clip-rule="evenodd" d="M11.2577 9.11984C14.1577 8.51984 17.6377 8.20984 20.9977 8.13984C24.3577 8.21984 27.8277 8.52984 30.7377 9.12984V9.11984C32.0677 2.85984 45.3377 0.0898438 20.9977 0.0898438C-2.69226 0.0898438 9.93775 2.85984 11.2577 9.09984V9.11984Z" fill="#222222" fill-opacity="0.8"/>
<path fill-rule="evenodd" clip-rule="evenodd" d="M41 33.6602H1L1.22 32.7602C3.89 21.0302 10.31 25.7002 15.87 21.8002C15.96 21.7302 16.04 21.6502 16.12 21.5702L16.19 20.0902C15.67 19.6102 15.28 19.1502 14.96 18.6802C14.46 17.9502 14.13 17.1702 13.74 16.1402C13.68 15.9702 13.62 15.7902 13.56 15.6302C12.98 15.6302 12.49 15.1502 12.14 14.4602C11.87 13.9302 11.69 13.2802 11.62 12.6702C11.55 12.0402 11.61 11.4502 11.83 11.0802L11.53 9.66016C14.35 10.2502 17.72 10.6402 20.97 10.7002C24.23 10.6202 27.61 10.2602 30.43 9.66016L30.13 11.0802C30.36 11.4502 30.41 12.0402 30.34 12.6702C30.27 13.2802 30.09 13.9302 29.82 14.4602C29.47 15.1402 28.98 15.6302 28.4 15.6302C28.09 16.5402 27.5 17.6802 26.84 18.6502C26.49 19.1602 26.13 19.6302 25.78 19.9902L25.85 21.5802C25.93 21.6602 26.02 21.7302 26.1 21.8102C31.66 25.7102 38.08 21.0502 40.75 32.7702L41 33.6602Z" stroke="#222222" stroke-opacity="0.8" stroke-width="0.5" stroke-miterlimit="10"/>
<path fill-rule="evenodd" clip-rule="evenodd" d="M24.2888 20.59C23.1088 21.38 22.3888 21.81 20.8688 21.77C19.3888 21.75 18.6088 21.25 17.4188 20.5C17.3288 25.45 24.4088 25.75 24.2888 20.59Z" stroke="#222222" stroke-opacity="0.8" stroke-width="0.4208" stroke-miterlimit="10"/>
<path fill-rule="evenodd" clip-rule="evenodd" d="M7.27844 29.7598L7.51844 30.3498L8.15844 30.3998L7.66844 30.8098L7.81844 31.4398L7.27844 31.0998L6.72844 31.4398L6.88844 30.8098L6.39844 30.3998L7.03844 30.3498L7.27844 29.7598Z" fill="#222222" fill-opacity="0.8"/>
<path fill-rule="evenodd" clip-rule="evenodd" d="M10.2511 29.7598L10.4911 30.3498L11.1311 30.3998L10.6511 30.8098L10.8011 31.4398L10.2511 31.0998L9.71109 31.4398L9.86109 30.8098L9.37109 30.3998L10.0111 30.3498L10.2511 29.7598Z" fill="#222222" fill-opacity="0.8"/>
</g>
<defs>
<clipPath id="clip0_1231_26974">
<rect width="40.64" height="33.82" fill="white" transform="translate(0.679688 0.0898438)"/>
</clipPath>
</defs>
</svg>
