<svg width="56" height="60" viewBox="0 0 56 60" fill="none" xmlns="http://www.w3.org/2000/svg">
<g clip-path="url(#clip0_1224_26848)">
<path fill-rule="evenodd" clip-rule="evenodd" d="M5.07968 48.1208C7.34038 48.1208 9.1789 49.9474 9.1789 52.1943C9.1789 54.4412 7.34038 56.2678 5.07968 56.2678C2.81898 56.2678 0.966835 54.4412 0.966835 52.1943C0.980454 49.9329 2.81898 48.1208 5.07968 48.1208ZM42.1906 47.7439L42.6536 47.599C42.7353 47.57 42.8306 47.6135 42.8715 47.7149C44.6283 52.7162 45.6633 54.8471 50.8248 55.4125H50.8384H55.3462C55.4415 55.4125 55.5233 55.4995 55.5233 55.6009V58.8046C55.5233 58.9061 55.4415 58.9931 55.3462 58.9931H40.7061C40.6108 58.9931 40.5291 58.9061 40.5291 58.8046V55.6009C40.5291 55.4995 40.6108 55.4125 40.7061 55.4125H40.8151C40.924 55.4125 41.0057 55.2965 40.9785 55.1805L39.3443 48.9181C39.317 48.8167 39.3715 48.7297 39.4532 48.7007L39.603 48.6427C39.6984 48.6137 39.7528 48.4977 39.712 48.3963L33.3657 31.0152L33.3521 30.9862L28.6128 17.1132V17.0987C27.9454 15.5331 27.5233 13.924 27.0875 12.3584C26.175 8.96629 25.3034 5.70462 22.2801 4.51592C21.7217 4.29847 21.0816 4.12452 20.3871 3.99405C19.6517 3.84909 18.8754 3.77661 18.0447 3.73312C15.7022 3.61715 13.4007 4.26948 11.5077 5.71911C9.79174 7.03828 8.38901 9.05326 7.59913 11.7931C6.80925 14.4894 6.42792 16.7363 6.78201 18.6933C7.12248 20.5778 8.18473 22.3029 10.282 24.0569C10.3501 24.1149 10.4454 24.2019 10.5408 24.2889C10.677 24.4049 10.7995 24.5208 10.9085 24.5933C12.2159 25.4051 13.5913 26.1009 14.9124 26.7968C15.1439 26.9127 15.3754 27.0287 15.5933 27.1447C15.9065 27.3041 16.2198 27.4636 16.533 27.623C19.9377 29.3336 22.0213 30.3918 22.6205 35.2336C22.7295 36.1179 22.7295 36.9732 22.6342 37.7995C22.6205 37.8864 22.675 37.9589 22.7431 37.9879C30.8735 41.1481 36.4163 46.8307 38.7042 56.1518C38.7314 56.2678 38.6497 56.3837 38.5408 56.3837H10.9357C10.7995 56.3837 10.7178 56.2243 10.7995 56.0938C12.1205 54.0353 12.5155 51.5275 11.6303 49.295C10.1458 45.497 5.58357 43.9169 1.42987 45.7724C1.18473 45.8739 0.953216 45.9754 0.735317 46.1058C0.626368 46.1638 0.476562 46.0768 0.476562 45.9464V34.9002C0.476562 34.7987 0.558275 34.7117 0.653605 34.7117C1.36178 34.7117 2.06995 34.7262 2.7645 34.7552C2.85983 34.7552 2.94154 34.6683 2.94154 34.5668V31.1746C2.94154 31.0732 3.02326 30.9862 3.11859 30.9862H8.36178C8.45711 30.9862 8.53882 31.0732 8.53882 31.1746V34.8422C8.53882 34.9437 8.60691 35.0162 8.70224 35.0307C12.8151 35.3786 16.5875 36.0309 19.9785 37.0456C20.0875 37.0746 20.1964 36.9877 20.1964 36.8717C20.21 36.4513 20.1964 36.0309 20.1419 35.596C19.7334 32.2039 18.1127 31.3921 15.4843 30.0729C15.1847 29.9135 14.8715 29.7685 14.531 29.58C14.2995 29.4641 14.068 29.3481 13.8501 29.2321C12.4746 28.5218 11.0583 27.797 9.66917 26.9417C9.36956 26.7533 9.15166 26.5503 8.93376 26.3619C8.85205 26.3039 8.79757 26.2604 8.71586 26.1879C6.08746 23.9845 4.73921 21.752 4.28979 19.2007C3.85399 16.7363 4.27617 14.098 5.17501 10.9958C6.14193 7.66162 7.88512 5.18275 10.0505 3.51567C12.4201 1.68914 15.2937 0.877344 18.1808 1.02231C19.1478 1.0658 20.033 1.16727 20.8365 1.32673C21.6808 1.48619 22.4435 1.70363 23.1517 1.97906C27.4007 3.64614 28.4493 7.54565 29.5252 11.6191C29.9338 13.1267 30.3423 14.6633 30.9143 15.997C30.9415 16.0405 30.9552 16.0985 30.9824 16.142L35.7217 30.0729L42.1906 47.7439Z" stroke="#222222" stroke-opacity="0.8" stroke-width="0.7" stroke-miterlimit="10"/>
</g>
<defs>
<clipPath id="clip0_1224_26848">
<rect width="56" height="59" fill="white" transform="translate(0 0.5)"/>
</clipPath>
</defs>
</svg>
