<svg width="42" height="42" viewBox="0 0 42 42" fill="none" xmlns="http://www.w3.org/2000/svg">
<path fill-rule="evenodd" clip-rule="evenodd" d="M30.3053 8.41968L30.3034 8.4184C30.2145 8.33715 30.1665 8.2271 30.1607 8.11578C30.155 8.00446 30.1921 7.89058 30.2721 7.80101C30.2733 7.79973 30.274 7.79845 30.2753 7.79781C30.3565 7.70888 30.4659 7.66089 30.5779 7.65514C30.6898 7.64938 30.8044 7.68712 30.8946 7.76838L32.3635 9.10041L35.8887 5.40885C35.9725 5.32056 36.0839 5.27514 36.1971 5.27258C36.3097 5.27002 36.423 5.30968 36.5112 5.3935C36.5995 5.47731 36.645 5.58927 36.6482 5.70187C36.6507 5.81447 36.611 5.92836 36.5272 6.01601L32.7064 10.0179C32.7039 10.0204 32.7007 10.023 32.6981 10.0255C32.6169 10.1068 32.5113 10.1497 32.4038 10.1535C32.2931 10.158 32.1812 10.1202 32.0929 10.0403L30.3079 8.4216L30.3053 8.41968Z" fill="#222222" fill-opacity="0.8"/>
<path d="M1.00001 41L41 41L41 1.00001L1.00001 1L1.00001 41Z" stroke="#222222" stroke-miterlimit="10"/>
<path d="M21.0032 30.2145C26.0921 30.2145 30.2174 26.0892 30.2174 21.0003C30.2174 15.9115 26.0921 11.7861 21.0032 11.7861C15.9144 11.7861 11.7891 15.9115 11.7891 21.0003C11.7891 26.0892 15.9144 30.2145 21.0032 30.2145Z" fill="#222222" fill-opacity="0.8"/>
</svg>
