<svg width="48" height="32" viewBox="0 0 48 32" fill="none" xmlns="http://www.w3.org/2000/svg">
<path d="M39.0781 22.715H39.6975C40.0245 22.715 40.3054 22.9773 40.3054 23.3159V24.9327C40.3054 25.2721 40.0228 25.5336 39.6975 25.5336H26.2039C25.8777 25.5336 25.5969 25.2722 25.5969 24.9327V23.3159C25.5969 22.9772 25.876 22.715 26.2039 22.715H26.8242V22.4145V4.41645H21.1758V22.4145V22.715H21.7952C22.1223 22.715 22.4031 22.9773 22.4031 23.3159V24.9327C22.4031 25.2714 22.1223 25.5336 21.7952 25.5336H8.3025C7.97796 25.5336 7.69465 25.2738 7.69465 24.9327V23.3159C7.69465 22.9756 7.97626 22.715 8.3025 22.715H8.92191V22.4145V4.41645H5.48698L3.99565 29.6348H4.24875C4.47041 29.6348 4.65176 29.8147 4.65176 30.0364V30.9484C4.65176 31.1777 4.46088 31.35 4.24875 31.35H1.05301C0.844745 31.35 0.65 31.1823 0.65 30.9484V30.0364C0.65 29.8054 0.839078 29.6348 1.05301 29.6348H1.13368L2.62502 4.41645H1.73941C1.5732 4.41645 1.42154 4.34982 1.31142 4.24324C1.19812 4.13444 1.12707 3.97989 1.12707 3.81113V1.25532C1.12707 1.08414 1.19991 0.931737 1.31023 0.824374C1.42044 0.717112 1.57259 0.65 1.73941 0.65H46.2606C46.4256 0.65 46.5804 0.715881 46.6921 0.82671L46.4457 1.0752L46.6898 0.82438C46.8001 0.931733 46.8729 1.08413 46.8729 1.25532V3.81113C46.8729 3.98233 46.8001 4.13472 46.6898 4.24207L39.0781 22.715ZM39.0781 22.715V22.4145V4.41645H42.513M39.0781 22.715L42.513 4.41645M42.513 4.41645L44.0044 29.6348H43.7513C43.5334 29.6348 43.3482 29.8101 43.3482 30.0364V30.9484C43.3482 31.1823 43.543 31.35 43.7513 31.35H46.947C47.1553 31.35 47.35 31.1823 47.35 30.9484V30.0364C47.35 29.8101 47.1648 29.6348 46.947 29.6348H46.8663L45.375 4.41645H42.513ZM10.4179 4.41645H19.6798V22.4145V22.715H10.4179V22.4145V4.41645ZM28.3193 4.41645H37.5821V22.4145V22.715H28.3193V22.4145V4.41645Z" stroke="#222222" stroke-opacity="0.8" stroke-width="0.7"/>
</svg>
