<svg width="56" height="35" viewBox="0 0 56 35" fill="none" xmlns="http://www.w3.org/2000/svg">
<path d="M47.2427 10.2281H55.0833V1.25H28V10.5125C32.0896 10.5125 35.4073 13.7625 35.4073 17.7573C35.4073 21.7656 32.0896 25.0021 28 25.0021V33.75H55.0833V25.2729H47.2427V10.2281Z" stroke="#222222" stroke-opacity="0.8" stroke-width="0.8" stroke-miterlimit="10"/>
<path d="M20.594 17.7573C20.594 13.749 23.9117 10.5125 28.0013 10.5125V1.25H0.917969V10.2281H8.75859V25.2729H0.917969V33.75H28.0013V25.0021C23.9117 25.0021 20.594 21.7521 20.594 17.7573Z" stroke="#222222" stroke-opacity="0.8" stroke-width="0.8" stroke-miterlimit="10"/>
<path d="M0.917969 10.2275V25.2723V10.2275Z" stroke="#222222" stroke-opacity="0.8" stroke-width="0.8" stroke-miterlimit="10"/>
<path d="M8.75859 10.2275H0.917969V25.2723H8.75859V10.2275Z" stroke="#222222" stroke-opacity="0.8" stroke-width="0.8" stroke-miterlimit="10"/>
<path d="M55.0859 10.2275V25.2723V10.2275Z" stroke="#222222" stroke-opacity="0.8" stroke-width="0.8" stroke-miterlimit="10"/>
<path d="M55.0867 10.2275H47.2461V25.2723H55.0867V10.2275Z" stroke="#222222" stroke-opacity="0.8" stroke-width="0.8" stroke-miterlimit="10"/>
<path d="M20.5977 17.7575C20.5977 21.7658 23.9154 25.0023 28.0049 25.0023C32.0945 25.0023 35.4122 21.7523 35.4122 17.7575C35.4122 13.7492 32.0945 10.5127 28.0049 10.5127C23.9154 10.5127 20.5977 13.7492 20.5977 17.7575Z" stroke="#222222" stroke-opacity="0.8" stroke-width="0.8" stroke-miterlimit="10"/>
</svg>
