<svg width="32" height="40" viewBox="0 0 32 40" fill="none" xmlns="http://www.w3.org/2000/svg">
<path d="M7.23097 7.9886V8.4886H7.73097H14.2421H14.7421V7.9886V1.11332C14.7421 0.764623 15.0188 0.5 15.3257 0.5H17.3155C17.6223 0.5 17.8991 0.764624 17.8991 1.11332V7.9886V8.4886H18.3991H21.4699V16.8138C21.4699 21.4043 17.8155 25.139 13.3835 25.139H12.8323L12.8858 25.6876C13.2319 29.2335 14.0507 31.795 15.2265 33.4369L15.2267 33.4371C15.9702 34.4744 16.8636 35.1197 17.8579 35.3309L17.8582 35.331C18.9089 35.5537 20.0738 35.318 21.2591 34.7451L21.2597 34.7449C23.5156 33.6511 25.8337 31.3676 27.8737 28.1462L27.874 28.1458C28.471 27.2009 29.6893 26.9429 30.5952 27.5488L30.5957 27.5492C31.5121 28.1604 31.7787 29.4308 31.1795 30.3814C28.6842 34.3203 25.7724 37.0777 22.9403 38.4479L22.9402 38.448C20.9295 39.4214 18.9387 39.7263 17.0799 39.3333C15.1675 38.9288 13.4428 37.8096 12.0472 35.8625C10.4537 33.6357 9.29865 30.2659 8.90088 25.5934L8.86276 25.1457L8.41355 25.1359C4.05846 25.0411 0.5 21.3456 0.5 16.8138V8.4886H3.57082H4.07082V7.9886V1.11332C4.07082 0.765585 4.34663 0.5 4.65759 0.5H6.64737C6.95422 0.5 7.23097 0.764624 7.23097 1.11332V7.9886Z" stroke="#222222" stroke-opacity="0.8"/>
</svg>
