<svg width="32" height="40" viewBox="0 0 32 40" fill="none" xmlns="http://www.w3.org/2000/svg">
<path d="M16.5248 39.42C10.149 35.4544 4.81943 29.9566 2.12778 23.4184C0.146037 18.6045 -0.275466 13.2763 2.27333 8.67646C4.75786 4.19264 9.63946 0.533605 15.1458 0.500453C20.6329 0.467274 25.5444 2.25216 28.5256 6.01466L28.5257 6.01468C31.7726 10.112 32.0423 15.6645 30.8519 20.5625C29.0151 28.1196 23.7823 35.3096 16.5248 39.42Z" stroke="#222222" stroke-opacity="0.8" stroke-miterlimit="10"/>
<path d="M20.0664 17.6125L20.0663 17.6126C19.155 18.6842 17.7379 19.2618 15.7111 19.2618H12.2145H11.7145V19.7618V28.5H10.3398V7.37305H15.7111C17.6625 7.37305 19.0706 7.94265 20.021 9.01441C20.9955 10.1134 21.5 11.5436 21.5 13.3493C21.5 15.0909 21.0128 16.5001 20.0664 17.6125ZM12.2145 8.75387H11.7145V9.25387V17.3809V17.8809H12.2145H15.711C15.711 17.8809 15.7111 17.8809 15.7111 17.8809C17.1153 17.8813 18.251 17.5092 19.0059 16.6674C19.741 15.8476 20.0729 14.7172 20.0729 13.3493C20.0729 11.9143 19.7351 10.7449 18.9711 9.93478C18.2019 9.11914 17.0829 8.75387 15.7108 8.75387H12.2145Z" stroke="#222222" stroke-opacity="0.8"/>
</svg>
