<svg width="42" height="34" viewBox="0 0 42 34" fill="none" xmlns="http://www.w3.org/2000/svg">
<path d="M9.58696 6.29928V13.7106H13.5262V6.29928H9.58696Z" stroke="#222222" stroke-opacity="0.8" stroke-width="0.7" stroke-linejoin="round"/>
<path d="M7.01387 1H2.27249C1.57346 1 1 1.58435 1 2.29665V33H8.28636V2.29665C8.28636 1.58435 7.71289 1 7.01387 1Z" stroke="#222222" stroke-opacity="0.8" stroke-width="0.7" stroke-linejoin="round"/>
<path d="M14.9955 7.71624V12.7272C19.8662 13.1492 19.3583 17.8698 20.7058 21.1353C20.1277 21.2704 19.5895 21.4718 19.0626 21.6689L19.0341 21.6796L19.0336 21.6798C18.2598 21.9719 17.5216 22.2506 17.042 22.1207C16.5041 21.9756 15.9082 21.7942 15.3591 21.6261C14.5514 21.3779 13.8298 21.1583 13.1458 21.0208C12.7129 20.91 12.2912 20.8661 11.8658 20.8718C11.4404 20.868 11.0187 20.91 10.5858 21.0208C10.3403 21.0704 10.0911 21.1296 9.83246 21.1984V24.1908C11.2361 23.8127 13.4513 23.8776 14.527 24.4161L14.542 24.4219C15.048 24.5765 15.5971 24.7465 16.3261 24.9394C17.6792 25.3003 18.8223 24.8725 20.0199 24.4219L20.1379 24.3779C20.8238 24.1201 21.5285 23.87 22.1394 23.8852C22.34 23.891 22.756 24.1125 23.1908 24.355L23.2901 24.4085C24.0697 24.8439 24.8643 25.2812 25.807 25.3175C26.9614 25.3614 27.7841 24.8668 28.6068 24.3722L28.7024 24.3149C29.1166 24.0667 29.5251 23.8337 29.8118 23.8222C30.2766 23.8069 30.8257 24.0476 31.3711 24.2939L31.4329 24.3226C32.1638 24.6548 32.8928 24.9833 33.7867 25.0539C34.8868 25.1399 35.7208 24.7312 36.4891 24.2557C36.6447 24.1583 36.7984 24.0571 36.9501 23.9597C37.3643 23.6885 37.771 23.4231 38.0296 23.3945C38.3415 23.3594 39.1061 23.6926 39.775 23.9841L39.8418 24.0132C40.0086 24.0838 40.1735 24.1564 40.3328 24.2232C40.5633 24.3187 40.7845 24.4066 41 24.4715V21.3397L40.9756 21.3263L40.9595 21.3192C39.9622 20.8834 38.7922 20.3721 37.7185 20.4918C36.8789 20.5873 36.2249 20.9749 35.5765 21.397C35.5708 21.0017 35.4696 20.5395 35.2616 19.9991C34.6057 11.1078 26.6953 6.7786 14.9955 7.71624Z" stroke="#222222" stroke-opacity="0.8" stroke-width="0.7" stroke-linejoin="round"/>
<path d="M17.042 27.5804C16.5041 27.4353 15.9082 27.2539 15.3591 27.0858C12.6885 26.2685 11.8658 26.1272 9.83058 26.6657V29.6314C11.223 29.2208 13.4325 29.2857 14.5251 29.8796L14.5401 29.8854C15.0461 30.04 15.5952 30.21 16.3242 30.4029C17.6773 30.7638 18.8205 30.336 20.018 29.8854L20.1361 29.8414C20.822 29.5836 21.5266 29.3335 22.1376 29.3487C22.3381 29.3545 22.7541 29.576 23.1889 29.8185L23.2882 29.872C24.0678 30.3074 24.8624 30.7447 25.8051 30.781C26.9595 30.8249 27.7822 30.3303 28.6049 29.8357L28.7005 29.7784C29.1147 29.5302 29.5232 29.2972 29.81 29.2857C30.2747 29.2705 30.8238 29.5111 31.3692 29.7574L31.431 29.7861C32.1619 30.1183 32.8909 30.4468 33.7849 30.5175C34.8849 30.6015 35.7189 30.1947 36.4873 29.7192C36.6428 29.6218 36.7965 29.5206 36.9483 29.4232C37.3624 29.1521 37.7691 28.8866 38.0277 28.858C38.3396 28.8229 39.1043 29.1561 39.7732 29.4476L39.84 29.4767C40.0067 29.5474 40.1717 29.6199 40.331 29.6868C40.5615 29.7822 40.7826 29.8701 40.9981 29.935V26.8032L40.9738 26.7898L40.9576 26.7827C39.9603 26.347 38.7903 25.8356 37.7166 25.9553C36.8096 26.0584 36.1199 26.5072 35.4172 26.9655L35.3917 26.982C34.8938 27.3034 34.3855 27.6315 34.0023 27.6014C33.59 27.5709 33.0971 27.3474 32.6023 27.1221C31.7328 26.7268 30.8557 26.3315 29.7238 26.3697C28.6705 26.406 27.9115 26.8605 27.1544 27.3169C26.6897 27.5957 26.223 27.8726 25.91 27.863C25.6383 27.8535 25.1454 27.5804 24.66 27.3092C23.8861 26.8796 23.1214 26.4556 22.2106 26.4308C21.0056 26.4003 19.9993 26.7765 19.0341 27.1393L19.0336 27.1395C18.2598 27.4316 17.5216 27.7102 17.042 27.5804Z" stroke="#222222" stroke-opacity="0.8" stroke-width="0.7" stroke-linejoin="round"/>
</svg>
