<svg width="42" height="42" viewBox="0 0 42 42" fill="none" xmlns="http://www.w3.org/2000/svg">
<path d="M15.288 27.6171L37.1368 24.8375L37.1429 24.8366C37.5985 24.7715 37.9558 24.7392 38.2514 24.7126C38.3428 24.7043 38.4284 24.6966 38.5091 24.6886C38.8172 24.6581 39.137 24.6211 39.3783 24.4604C39.6617 24.2716 39.762 23.9761 39.8172 23.6703C39.8614 23.4249 39.8881 23.0958 39.9218 22.6807C39.9293 22.5874 39.9373 22.4897 39.9458 22.3876L39.946 22.3855L41.0757 7.99041C41.0757 7.99008 41.0757 7.98975 41.0757 7.98943C41.0792 7.94868 41.0826 7.90827 41.086 7.86821C41.1246 7.41194 41.1594 7.00068 41.1626 6.64917C41.1661 6.26995 41.1346 5.90801 41.0001 5.60012C40.8556 5.26928 40.6067 5.03251 40.2495 4.88848C39.9123 4.75253 39.4862 4.70175 38.9715 4.70175H8.91512C8.82628 4.33159 8.72631 3.90168 8.62251 3.45533C8.41192 2.54974 8.18559 1.57644 8.00456 0.897018L7.92543 0.6H7.61805H1.23438H0.834375V1V3.63992V4.03992H1.23438H4.56856L12.0654 31.2948L12.0656 31.2957C12.0926 31.393 12.1188 31.4875 12.1442 31.5792C12.3629 32.3697 12.5242 32.9528 12.6929 33.3599C12.8882 33.8312 13.1342 34.1697 13.5825 34.3162C13.7834 34.3818 14.0008 34.4003 14.2261 34.401C14.4515 34.4017 14.7133 34.3842 15.0077 34.3635C15.0318 34.3618 15.0561 34.3601 15.0808 34.3583C15.6662 34.3169 16.4303 34.2629 17.4702 34.2806V34.2807H17.477H17.5242H17.5714H17.6184H17.6654H17.7122H17.7589H17.8055H17.8519H17.8983H17.9446H17.9907H18.0367H18.0827H18.1285H18.1742H18.2198H18.2653H18.3107H18.356H18.4011H18.4462H18.4912H18.536H18.5808H18.6255H18.67H18.7145H18.7588H18.803H18.8472H18.8912H18.9352H18.979H19.0227H19.0664H19.1099H19.1534H19.1967H19.24H19.2831H19.3262H19.3691H19.412H19.4548H19.4974H19.54H19.5825H19.6249H19.6672H19.7094H19.7515H19.7935H19.8355H19.8773H19.9191H19.9607H20.0023H20.0438H20.0852H20.1265H20.1677H20.2088H20.2498H20.2908H20.3317H20.3725H20.4132H20.4538H20.4943H20.5348H20.5751H20.6154H20.6556H20.6957H20.7358H20.7757H20.8156H20.8554H20.8951H20.9347H20.9743H21.0138H21.0532H21.0925H21.1318H21.1709H21.21H21.249H21.288H21.3269H21.3657H21.4044H21.443H21.4816H21.5201H21.5585H21.5969H21.6352H21.6734H21.7115H21.7496H21.7876H21.8256H21.8634H21.9012H21.939H21.9767H22.0143H22.0518H22.0893H22.1267H22.164H22.2013H22.2385H22.2756H22.3127H22.3497H22.3867H22.4236H22.4604H22.4972H22.5339H22.5706H22.6072H22.6437H22.6802H22.7166H22.753H22.7893H22.8255H22.8617H22.8979H22.934H22.97H23.006H23.0419H23.0777H23.1135H23.1493H23.185H23.2207H23.2563H23.2918H23.3273H23.3628H23.3982H23.4335H23.4688H23.5041H23.5393H23.5745H23.6096H23.6446H23.6796H23.7146H23.7496H23.7844H23.8193H23.8541H23.8888H23.9235H23.9582H23.9928H24.0274H24.062H24.0965H24.1309H24.1653H24.1997H24.2341H24.2684H24.3026H24.3369H24.3711H24.4052H24.4393H24.4734H24.5075H24.5415H24.5755H24.6094H24.6433H24.6772H24.711H24.7449H24.7786H24.8124H24.8461H24.8798H24.9135H24.9471H24.9807H25.0143H25.0478H25.0813H25.1148H25.1483H25.1817H25.2151H25.2485H25.2819H25.3152H25.3485H25.3818H25.415H25.4483H25.4815H25.5147H25.5479H25.581H25.6142H25.6473H25.6804H25.7134H25.7465H25.7795H25.8125H25.8455H25.8785H25.9115H25.9445H25.9774H26.0103H26.0432H26.0761H26.109H26.1418H26.1747H26.2075H26.2404H26.2732H26.306H26.3388H26.3715H26.4043H26.4371H26.4698H26.5026H26.5353H26.5681H26.6008H26.6335H26.6662H26.6989H26.7316H26.7643H26.797H26.8297H26.8623H26.895H26.9277H26.9604H26.993H27.0257H27.0584H27.091H27.1237H27.1564H27.1891H27.2217H27.2544H27.2871H27.3197H27.3524H27.3851H27.4178H27.4505H27.4832H27.5159H27.5486H27.5813H27.614H27.6468H27.6795H27.7122H27.745H27.7778H27.8105H27.8433H27.8761H27.9089H27.9417H27.9745H28.0074H28.0402H28.0731H28.1059H28.1388H28.1717H28.2047H28.2376H28.2705H28.3035H28.3365H28.3695H28.4025H28.4355H28.4686H28.5016H28.5347H28.5678H28.601H28.6341H28.6673H28.7005H28.7337H28.7669H28.8002H28.8335H28.8668H28.9001H28.9335H28.9668H29.0002H29.0337H29.0671H29.1006H29.1341H29.1677H29.2012H29.2348H29.2684H29.3021H29.3358H29.3695H29.4032H29.437H29.4708H29.5047H29.5385H29.5724H29.6064H29.6404H29.6744H29.7084H29.7425H29.7766H29.8107H29.8449H29.8791H29.9134H29.9477H29.982H30.0164H30.0508H30.0853H30.1198H30.1543H30.1889H30.2235H30.2582H30.2929H30.3276H30.3624H30.3972H30.4321H30.467H30.502H30.537H30.5721H30.6072H30.6423H30.6775H30.7128H30.7481H30.7834H30.8188H30.8542H30.8897H30.9253H30.9608H30.9965H31.0322H31.0679H31.1037H31.1396H31.1755H31.2115H31.2475H31.2835H31.3197H31.3559H31.3921H31.4284H31.4647H31.5012H31.5376H31.5741H31.6107H31.6474H31.6841H31.7208H31.7577H31.7946H31.8315H31.8685H31.9056H31.9427H31.9799H32.0172H32.0545H32.0919H32.1294H32.1669H32.2045H32.2421H32.2799H32.3176H32.3555H32.3934H32.4314H32.4695H32.5076H32.5458H32.5841H32.6224H32.6609H32.6994H32.7379H32.7765H32.8153H32.854H32.8929H32.9318H32.9708H33.0099H33.0491H33.0883H33.1276H33.167H33.2065H33.246H33.2856H33.3253H33.3651H33.405H33.4449H33.4849H33.525H33.5652H33.6055H33.6458H33.6863H33.7268H33.7674H33.8081H33.8488H33.8897H33.9306H33.9716H34.0128H34.054H34.0952H34.1366H34.1781H34.2196H34.2613H34.303H34.3448H34.3867H34.4288H34.4708H34.513H34.5553H34.5977H34.6402H34.6827H34.7254H34.7681H34.811H34.8539H34.8969H34.9401H34.9833H35.0266H35.0701H35.1136H35.1572H35.2009H35.2447H35.2887H35.3327H35.3768H35.421H35.4654H35.5098H35.5543H35.5989H35.6437H35.6885H35.7335H35.7785H35.8237H35.8689H35.9143H35.9598H36.0054H36.051H36.0968H36.1428H36.1888H36.2349H36.2811H36.3275H36.3739H36.4205H36.4672H36.514H36.5609H36.6079H36.655H36.7023H36.8637L36.9799 34.1686L40.2679 30.998L40.9813 30.3101H39.9903H39.9336H39.877H39.8206H39.7642H39.708H39.6519H39.5959H39.54H39.4842H39.4285H39.3729H39.3175H39.2621H39.2069H39.1518H39.0968H39.0418H38.987H38.9323H38.8777H38.8232H38.7689H38.7146H38.6604H38.6063H38.5524H38.4985H38.4447H38.3911H38.3375H38.2841H38.2307H38.1774H38.1243H38.0712H38.0183H37.9654H37.9126H37.86H37.8074H37.7549H37.7026H37.6503H37.5981H37.546H37.494H37.4421H37.3903H37.3386H37.2869H37.2354H37.184H37.1326H37.0814H37.0302H36.9791H36.9281H36.8772H36.8264H36.7757H36.7251H36.6745H36.624H36.5737H36.5234H36.4732H36.423H36.373H36.3231H36.2732H36.2234H36.1737H36.1241H36.0745H36.0251H35.9757H35.9264H35.8772H35.8281H35.779H35.73H35.6811H35.6323H35.5836H35.5349H35.4863H35.4378H35.3893H35.341H35.2927H35.2445H35.1963H35.1483H35.1003H35.0523H35.0045H34.9567H34.909H34.8613H34.8138H34.7663H34.7188H34.6715H34.6242H34.577H34.5298H34.4827H34.4357H34.3887H34.3418H34.295H34.2482H34.2016H34.1549H34.1083H34.0618H34.0154H33.969H33.9227H33.8764H33.8302H33.7841H33.738H33.692H33.646H33.6001H33.5543H33.5085H33.4628H33.4171H33.3715H33.3259H33.2804H33.235H33.1896H33.1442H33.0989H33.0537H33.0085H32.9634H32.9183H32.8733H32.8283H32.7834H32.7385H32.6937H32.6489H32.6042H32.5595H32.5148H32.4703H32.4257H32.3812H32.3368H32.2924H32.248H32.2037H32.1595H32.1152H32.0711H32.0269H31.9828H31.9388H31.8948H31.8508H31.8069H31.763H31.7191H31.6753H31.6315H31.5878H31.5441H31.5005H31.4568H31.4133H31.3697H31.3262H31.2827H31.2393H31.1959H31.1525H31.1092H31.0658H31.0226H30.9793H30.9361H30.8929H30.8498H30.8067H30.7636H30.7205H30.6775H30.6345H30.5915H30.5486H30.5057H30.4628H30.4199H30.3771H30.3342H30.2915H30.2487H30.206H30.1632H30.1205H30.0779H30.0352H29.9926H29.95H29.9074H29.8648H29.8223H29.7798H29.7373H29.6948H29.6523H29.6099H29.5674H29.525H29.4826H29.4402H29.3979H29.3555H29.3132H29.2709H29.2285H29.1862H29.144H29.1017H29.0594H29.0172H28.9749H28.9327H28.8905H28.8483H28.8061H28.7639H28.7217H28.6796H28.6374H28.5952H28.5531H28.5109H28.4688H28.4267H28.3845H28.3424H28.3003H28.2582H28.2161H28.174H28.1319H28.0897H28.0476H28.0055H27.9634H27.9213H27.8792H27.8371H27.795H27.7529H27.7108H27.6687H27.6266H27.5844H27.5423H27.5002H27.458H27.4159H27.3738H27.3316H27.2894H27.2473H27.2051H27.1629H27.1207H27.0785H27.0363H26.9941H26.9519H26.9096H26.8674H26.8251H26.7828H26.7405H26.6982H26.6559H26.6136H26.5713H26.5289H26.4865H26.4441H26.4017H26.3593H26.3169H26.2744H26.2319H26.1894H26.1469H26.1044H26.0619H26.0193H25.9767H25.9341H25.8914H25.8488H25.8061H25.7634H25.7207H25.6779H25.6352H25.5924H25.5495H25.5067H25.4638H25.4209H25.378H25.335H25.292H25.249H25.206H25.1629H25.1198H25.0767H25.0335H24.9903H24.9471H24.9039H24.8606H24.8173H24.7739H24.7305H24.6871H24.6437H24.6002H24.5566H24.5131H24.4695H24.4259H24.3822H24.3385H24.2947H24.2509H24.2071H24.1633H24.1194H24.0754H24.0314H23.9874H23.9433H23.8992H23.8551H23.8109H23.7666H23.7224H23.678H23.6337H23.5892H23.5448H23.5003H23.4557H23.4111H23.3665H23.3218H23.277H23.2322H23.1874H23.1425H23.0975H23.0526H23.0075H22.9624H22.9173H22.8721H22.8268H22.7815H22.7361H22.6907H22.6452H22.5997H22.5541H22.5085H22.4628H22.4171H22.3713H22.3254H22.2795H22.2335H22.1874H22.1413H22.0952H22.049H22.0027H21.9563H21.9099H21.8635H21.8169H21.7703H21.7237H21.677H21.6302H21.5833H21.5364H21.4894H21.4424H21.3953H21.3481H21.3008H21.2535H21.2061H21.1587H21.1111H21.0635H21.0159H20.9681H20.9203H20.8725H20.8245H20.7765H20.7284H20.6802H20.632H20.5837H20.5353H20.4868H20.4383H20.3896H20.3409H20.2922H20.2433H20.1944H20.1454H20.0963H20.0471H19.9979H19.9486H19.8992H19.8497H19.8001H19.7505H19.7007H19.6509H19.601H19.551H19.501H19.4508H19.4006H19.3503H19.2998H19.2494H19.1988H19.1481H19.0973H19.0465H18.9956H18.9445H18.8934H18.8422H18.7909H18.7396H18.6881H18.6365H18.5849H18.5331H18.4813H18.4293H18.3773H18.3252H18.273H18.2206H18.1682H18.1157H18.0631H18.0104H17.9576H17.9047H17.8517H17.7986H17.7454H17.6921H17.6388H17.5853H17.5317H17.478H17.4242H17.3703H17.3163H17.2621H17.2079H17.1536H17.0992H17.0447H16.99H16.9353H16.8805H16.8255H16.7704H16.7153H16.66H16.6046H16.5491H16.4935H16.4378H16.382H16.326H16.27H16.2165L15.288 27.6171ZM27.9528 37.9137V37.9138C27.9528 39.841 29.5125 41.4 31.4389 41.4C33.362 41.4 34.9251 39.8406 34.9251 37.9138C34.9251 35.9905 33.3622 34.4277 31.4389 34.4277C29.512 34.4277 27.9535 35.9909 27.9528 37.9137ZM10.2115 9.68295L10.1165 9.33667L10.0988 9.33952L9.72834 7.95896C10.398 7.95919 11.0731 7.95981 11.7533 7.96043L11.7758 7.96045C12.5368 7.96115 13.3041 7.96185 14.0765 7.96201L15.6688 14.6197H11.5653L10.2115 9.68295ZM37.789 9.01254L37.789 9.01264L37.3183 14.6229H33.4701L31.8783 7.98498C33.158 7.9854 34.4266 7.98735 35.6785 7.98927C36.1229 7.98995 36.5652 7.99063 37.0051 7.99124H37.0057C37.2137 7.99124 37.3779 7.98819 37.5138 7.98568C37.6625 7.98292 37.7773 7.98079 37.8788 7.98396C37.886 7.98418 37.8928 7.98443 37.8992 7.9847C37.8974 8.01013 37.8948 8.03992 37.8912 8.07489C37.8851 8.13457 37.8759 8.21057 37.8651 8.3001C37.8424 8.48705 37.8125 8.73298 37.789 9.01254ZM37.9004 7.8649C37.9004 7.86488 37.9006 7.86551 37.9008 7.86687L37.9004 7.8649ZM22.1977 37.9138C22.1977 35.9905 20.6349 34.4277 18.7116 34.4277C16.7841 34.4277 15.2254 35.9909 15.2254 37.9138C15.2254 39.841 16.7844 41.4 18.7116 41.4C20.6387 41.4 22.1977 39.8403 22.1977 37.9138ZM19.0595 14.6203L17.4675 7.96653L21.3713 7.97177L22.9697 14.6203H19.0595ZM26.367 14.6197L24.769 7.97608L28.4803 7.98128L30.0722 14.6197H26.367ZM35.2044 21.8609L34.1144 17.3144H37.0913L36.8222 20.5334C36.8222 20.5334 36.8222 20.5335 36.8222 20.5335C36.8147 20.6237 36.8079 20.7073 36.8016 20.7848C36.774 21.1227 36.7558 21.3454 36.7264 21.5077C36.7092 21.603 36.6925 21.6488 36.6819 21.6699C36.6804 21.673 36.6791 21.6752 36.6782 21.6768C36.6553 21.6902 36.5813 21.7152 36.3039 21.7427C36.2462 21.7484 36.1822 21.7542 36.1119 21.7605C35.8788 21.7815 35.5766 21.8087 35.2044 21.8609ZM27.0188 17.3144H30.7204L31.9174 22.3101L28.336 22.7972L27.0188 17.3144ZM19.7031 17.3113H23.6172L25.0452 23.2445L21.2486 23.7613L19.7031 17.3113ZM12.3063 17.3144H16.3127L17.9627 24.2114L14.3396 24.7066L12.3063 17.3144Z" stroke="#222222" stroke-opacity="0.8" stroke-width="0.8" stroke-miterlimit="10"/>
</svg>
