<svg width="46" height="32" viewBox="0 0 46 32" fill="none" xmlns="http://www.w3.org/2000/svg">
<path d="M0.403795 29.5237V25.7115C2.80601 24.8798 4.87654 25.4871 7.90269 26.3974L7.903 26.3975L7.98347 26.4216C8.77187 26.6581 9.63025 26.9156 10.409 27.1205C10.8687 27.2417 11.4041 27.1639 11.9232 27.0296C12.4465 26.8943 13.0198 26.6823 13.5815 26.4746L13.5993 26.4681C13.5993 26.4681 13.5993 26.4681 13.5993 26.4681C15.0345 25.9376 16.4568 25.4193 18.1556 25.4622L18.1557 25.4622C19.3914 25.4932 20.4419 26.0582 21.6013 26.6913C21.6013 26.6913 21.6013 26.6913 21.6014 26.6913L21.7931 26.3403L0.403795 29.5237ZM0.403795 29.5237C1.37428 28.9904 2.30193 28.8183 3.28394 28.8741C4.38651 28.9367 5.55487 29.2882 6.89654 29.6918L6.90183 29.6934L6.91538 29.6978L6.93087 29.703C6.96835 29.7143 7.00598 29.7256 7.04379 29.7369C7.75966 29.9519 8.53917 30.1859 9.55257 30.4501L9.55285 30.4502C11.4211 30.9389 12.9981 30.3693 14.7856 29.7089L14.7879 29.708L14.9615 29.6451C14.9618 29.645 14.9622 29.6448 14.9626 29.6447C15.9615 29.2756 17.0792 28.8798 18.0749 28.9044L18.0753 28.9044C18.2085 28.9079 18.347 28.9441 18.4699 28.9854C18.5983 29.0286 18.7378 29.0871 18.8807 29.1531C19.1659 29.2848 19.4916 29.4592 19.8129 29.6349C19.8133 29.6351 19.8137 29.6354 19.8142 29.6356L19.9577 29.7128L19.9603 29.7142C21.1283 30.3541 22.2234 30.9401 23.5112 30.9884C25.0912 31.0473 26.2183 30.391 27.4404 29.6684L27.4434 29.6666L27.4435 29.6666L27.5837 29.5854C27.584 29.5852 27.5842 29.585 27.5845 29.5849C27.8904 29.4055 28.2097 29.2217 28.5093 29.081C28.8003 28.9443 29.1188 28.8253 29.415 28.8147L29.4161 28.8146C29.8283 28.801 30.2551 28.8982 30.665 29.0341C31.0766 29.1704 31.4988 29.3553 31.9014 29.5345C31.9014 29.5345 31.9015 29.5345 31.9016 29.5345L31.9943 29.5755L31.9958 29.5762C33.0825 30.0618 34.1012 30.5114 35.3477 30.6068L0.403795 29.5237ZM33.3957 26.4323L33.3954 26.4321C32.1027 25.8567 30.8818 25.3195 29.3078 25.3722L33.3957 26.4323ZM33.3957 26.4323L33.4577 26.4598C34.1504 26.7678 34.9258 27.1124 35.6007 27.1625C36.002 27.1939 36.4212 27.039 36.7931 26.8547C37.164 26.671 37.5518 26.4242 37.9122 26.1949L37.9428 26.1754L37.944 26.1747M33.3957 26.4323L37.944 26.1747M37.944 26.1747C38.9929 25.5024 39.9405 24.9044 41.1786 24.7663M37.944 26.1747L41.1786 24.7663M35.4002 23.2896C34.9235 23.1952 34.3563 22.9459 33.7171 22.662L33.6986 22.6537C32.421 22.085 31.0491 21.4742 29.2777 21.5335L29.2775 21.5335C27.6143 21.5897 26.4157 22.2977 25.3044 22.9541L25.2807 22.9681L25.2792 22.9689C25.1364 23.0541 24.9924 23.1383 24.851 23.2182L22.4132 23.18L21.9848 22.95L21.9823 22.9487L21.9532 22.9328C20.8302 22.3194 19.622 21.6596 18.1759 21.6233C16.3047 21.576 14.748 22.1514 13.3238 22.6778L13.3219 22.6785L13.3211 22.6788C12.9805 22.8055 12.6529 22.9265 12.3396 23.0314L9.46407 22.9881L9.4495 22.9838L22.2442 16.1136L22.2442 16.1136C22.7457 15.8442 23.1275 15.6094 23.3802 15.37C23.6507 15.1138 23.8066 14.8189 23.7809 14.455C23.7588 14.1412 23.6006 13.8291 23.428 13.5258C23.3557 13.3988 23.2727 13.2601 23.1843 13.1124C23.1622 13.0756 23.1398 13.0381 23.1171 13.0002C23.0024 12.808 22.8775 12.5965 22.7453 12.3587L21.26 9.68436C21.2599 9.68421 21.2598 9.68406 21.2597 9.6839C21.1288 9.44629 20.9883 9.20443 20.8439 8.95581C20.6297 8.58689 20.4069 8.20309 20.1935 7.79625C19.8424 7.12666 19.5695 6.48643 19.4901 5.94434L19.49 5.94412C19.3792 5.19116 19.5802 4.63945 20.0232 4.24346L35.4002 23.2896ZM35.4002 23.2896L28.7703 11.486C28.7703 11.4859 28.7703 11.4859 28.7703 11.4859C28.6284 11.2335 28.457 10.962 28.2752 10.6747L28.2702 10.6667C28.0923 10.3854 27.9054 10.09 27.7412 9.80069C27.576 9.50974 27.4252 9.21067 27.3262 8.92267C27.2288 8.63953 27.1677 8.3286 27.225 8.02953L27.2251 8.02863C27.2866 7.71136 27.5263 7.5363 27.7312 7.4423C27.9354 7.34858 28.1809 7.29819 28.4069 7.26355L28.4105 7.26301C29.8918 7.04954 31.3658 6.83227 32.8469 6.60744C32.8469 6.60743 32.8469 6.60743 32.847 6.60742L38.1475 5.80152L38.1482 5.8014C38.838 5.69792 39.2859 5.31917 39.5351 4.81879C39.7907 4.30548 39.8435 3.64627 39.6813 3.00996C39.5198 2.37591 39.1528 1.796 38.6095 1.42762C38.0739 1.06447 37.3345 0.884585 36.3751 1.10071C36.3676 1.1024 36.3601 1.10387 36.3525 1.10513L24.3328 3.09185L24.3323 3.09193C24.0944 3.13094 23.8383 3.16689 23.5703 3.20451C23.0647 3.27548 22.517 3.35237 21.9707 3.46681C21.1316 3.64256 20.4241 3.88546 20.0233 4.24338L35.4002 23.2896ZM41.1786 24.7663C41.903 24.6866 42.6804 24.816 43.4757 25.0541C44.1986 25.2706 44.9134 25.5695 45.5969 25.8626V25.8683V25.8772V25.8861V25.895V25.9039V25.9128V25.9217V25.9306V25.9395V25.9484V25.9573V25.9662V25.975V25.9839V25.9928V26.0017V26.0106V26.0195V26.0284V26.0373V26.0462V26.0551V26.064V26.0729V26.0818V26.0907V26.0996V26.1085V26.1174V26.1263V26.1352V26.1441V26.153V26.1619V26.1708V26.1797V26.1886V26.1975V26.2064V26.2153V26.2242V26.2331V26.242V26.2509V26.2598V26.2687V26.2776V26.2865V26.2954V26.3043V26.3132V26.322V26.3309V26.3398V26.3487V26.3576V26.3665V26.3754V26.3843V26.3932V26.4021V26.411V26.4199V26.4288V26.4377V26.4466V26.4555V26.4644V26.4733V26.4822V26.4911V26.5V26.5089V26.5178V26.5267V26.5356V26.5445V26.5534V26.5623V26.5712V26.5801V26.589V26.5979V26.6068V26.6157V26.6246V26.6335V26.6424V26.6513V26.6602V26.6691V26.678V26.6869V26.6958V26.7047V26.7136V26.7225V26.7314V26.7403V26.7492V26.7581V26.767V26.7759V26.7849V26.7938V26.8027V26.8116V26.8205V26.8294V26.8383V26.8472V26.8561V26.865V26.8739V26.8828V26.8917V26.9006V26.9095V26.9184V26.9273V26.9362V26.9451V26.954V26.9629V26.9718V26.9807V26.9896V26.9985V27.0074V27.0163V27.0252V27.0341V27.043V27.0519V27.0608V27.0697V27.0786V27.0875V27.0964V27.1053V27.1142V27.1231V27.132V27.1409V27.1498V27.1587V27.1676V27.1765V27.1854V27.1943V27.2033V27.2122V27.2211V27.23V27.2389V27.2478V27.2567V27.2656V27.2745V27.2834V27.2923V27.3012V27.3101V27.319V27.3279V27.3368V27.3457V27.3546V27.3635V27.3724V27.3813V27.3902V27.3991V27.408V27.4169V27.4258V27.4347V27.4436V27.4525V27.4614V27.4703V27.4793V27.4882V27.4971V27.506V27.5149V27.5238V27.5327V27.5416V27.5505V27.5594V27.5683V27.5772V27.5861V27.595V27.6039V27.6128V27.6217V27.6306V27.6395V27.6484V27.6573V27.6662V27.6751V27.684V27.6929V27.7018V27.7107V27.7197V27.7286V27.7375V27.7464V27.7553V27.7642V27.7731V27.782V27.7909V27.7998V27.8087V27.8176V27.8265V27.8354V27.8443V27.8532V27.8621V27.871V27.8799V27.8888V27.8977V27.9066V27.9155V27.9244V27.9333V27.9422V27.9512V27.9601V27.969V27.9779V27.9868V27.9957V28.0046V28.0135V28.0224V28.0313V28.0402V28.0491V28.058V28.0669V28.0758V28.0847V28.0936V28.1025V28.1114V28.1203V28.1292V28.1381V28.147V28.1559V28.1648V28.1737V28.1826V28.1916V28.2005V28.2094V28.2183V28.2272V28.2361V28.245V28.2539V28.2628V28.2717V28.2806V28.2895V28.2984V28.3073V28.3162V28.3251V28.334V28.3429V28.3518V28.3607V28.3696V28.3785V28.3874V28.3963V28.4052V28.4141V28.423V28.4319V28.4408V28.4498V28.4587V28.4676V28.4765V28.4854V28.4943V28.5032V28.5121V28.521V28.5299V28.5388V28.5477V28.5566V28.5655V28.5744V28.5833V28.5922V28.6011V28.61V28.6189V28.6278V28.6367V28.6456V28.6545V28.6634V28.6723V28.6812V28.6901V28.699V28.7079V28.7168V28.7257V28.7346V28.7435V28.7524V28.7613V28.7703V28.7792V28.7881V28.797V28.8059V28.8148V28.8237V28.8326V28.8415V28.8504V28.8593V28.8682V28.8771V28.886V28.8949V28.9038V28.9127V28.9216V28.9305V28.9394V28.9483V28.9572V28.9661V28.975V28.9839V28.9928V29.0017V29.0106V29.0195V29.0284V29.0373V29.0462V29.0551V29.064V29.0729V29.0818V29.0907V29.0996V29.1085V29.1174V29.1263V29.1352V29.1441V29.153V29.1619V29.1708V29.1797V29.1886V29.1975V29.2064V29.2153V29.2242V29.2331V29.242V29.2509V29.2598V29.2687V29.2776V29.2865V29.2954V29.3043V29.3132V29.3221V29.331V29.3399V29.3488V29.3577V29.3666V29.3755V29.3844V29.3933V29.4022V29.4111V29.42V29.4289V29.4378V29.4467V29.4556V29.4645V29.4734V29.4823V29.4912V29.5001V29.509V29.5179V29.5268V29.5357V29.5446V29.5535V29.5624V29.5713V29.5802V29.5891V29.598V29.6004C45.4558 29.5474 45.3105 29.4896 45.1602 29.4286C44.9819 29.3548 44.7998 29.2771 44.6125 29.1972C44.5555 29.1729 44.498 29.1484 44.4399 29.1237L41.1786 24.7663ZM40.0002 29.4128C40.6137 29.0194 41.2167 28.6335 41.5984 28.5921L41.5542 28.1946C41.5546 28.1945 41.5549 28.1945 41.5552 28.1944C41.7468 28.1734 41.9668 28.2105 42.1712 28.2608C42.3859 28.3136 42.6267 28.3923 42.8755 28.4832C43.3509 28.6568 43.8868 28.8865 44.3733 29.0951L44.439 29.1233L39.5696 29.2124C39.416 29.31 39.2632 29.4072 39.1091 29.5031M40.0002 29.4128L39.7862 29.0748C39.7859 29.0751 39.7855 29.0753 39.7852 29.0755C39.785 29.0756 39.7848 29.0758 39.7845 29.0759L39.7842 29.0761L40.0002 29.4128ZM40.0002 29.4128C39.9291 29.4578 39.8577 29.5032 39.7861 29.5487C39.6311 29.6473 39.475 29.7465 39.3187 29.8438M39.3187 29.8438L39.1106 29.5022C39.1101 29.5025 39.1096 29.5028 39.1091 29.5031M39.3187 29.8438L39.1073 29.5043C39.1079 29.5039 39.1085 29.5035 39.1091 29.5031M39.3187 29.8438L39.1091 29.5031M39.1091 29.5031C37.9955 30.1813 36.8495 30.7208 35.3479 30.6068L39.1091 29.5031ZM38.6343 10.1613C41.3214 10.1613 43.5012 12.3426 43.5012 15.0342C43.5012 17.7258 41.3218 19.9071 38.6343 19.9071C35.9471 19.9071 33.7678 17.7261 33.7675 15.0347C33.771 12.3386 35.9476 10.1613 38.6343 10.1613Z" stroke="#222222" stroke-opacity="0.8" stroke-width="0.8" stroke-miterlimit="10" stroke-linecap="round" stroke-linejoin="round"/>
</svg>
