<svg width="58" height="42" viewBox="0 0 58 42" fill="none" xmlns="http://www.w3.org/2000/svg">
<path d="M30.0606 26.8353L30.0611 26.8346C30.5624 26.0833 31.5745 25.8827 32.3057 26.4277C32.3062 26.428 32.3066 26.4283 32.307 26.4286L40.7818 32.673L40.7826 32.6736C41.4989 33.2038 41.6629 34.2251 41.1702 34.9645L30.0606 26.8353ZM30.0606 26.8353L29.9985 26.9289C29.9983 26.9291 29.9982 26.9293 29.998 26.9296C29.998 26.9296 29.998 26.9296 29.998 26.9296C29.5065 27.6671 29.667 28.6948 30.387 29.2217C30.3874 29.2219 30.3877 29.2221 30.388 29.2223L38.8611 35.4655C38.8616 35.4658 38.862 35.4662 38.8625 35.4665C39.5937 36.0115 40.6057 35.8108 41.107 35.0595L41.1075 35.0588L41.1697 34.9652L30.0606 26.8353ZM1.00271 17.2075L1 17.2335V17.2595V41V41.5H1.5H8.03483H8.53483V41V17.6095C9.34022 13.4986 10.8515 10.9736 12.8275 9.57131C14.655 8.27445 16.961 7.88056 19.6698 8.18585C18.476 10.6006 17.9598 13.0537 18.1851 15.5392C18.4224 18.1585 19.4798 20.7765 21.3733 23.3921C20.9391 24.3506 21.0522 25.3681 21.6163 26.3837L21.6384 26.4236L21.6674 26.4589L22.8983 27.9533L22.9081 27.9651L22.9186 27.9764C23.2331 28.3137 23.6381 28.5459 24.1314 28.5348C24.6053 28.5241 25.0629 28.29 25.5013 27.9174L25.5227 27.8993L25.5419 27.8788L44.3899 7.82955L44.4046 7.8139L44.418 7.79704C44.7246 7.40887 44.9013 6.97563 44.8421 6.5163C44.7861 6.08182 44.532 5.72672 44.2006 5.44194C44.1822 5.41814 44.164 5.39456 44.1459 5.37116C43.8568 4.99667 43.6069 4.67306 43.3721 4.41572C43.1093 4.12763 42.8367 3.8894 42.4995 3.73183C41.8684 3.43687 41.1283 3.48381 40.0662 3.66452C37.4356 1.89061 34.8341 0.822817 32.2715 0.562475C29.7248 0.303746 27.2476 0.845985 24.8585 2.237C18.88 -0.280089 13.2876 0.0607241 8.9886 2.74479C4.6385 5.46074 1.70188 10.5201 1.00271 17.2075ZM40.6596 17.2797L41.076 17.5565L40.6596 17.2797C40.1709 18.015 40.3358 19.0409 41.0516 19.5707L41.0522 19.5711L49.5245 25.8216C50.259 26.3652 51.2665 26.1669 51.7686 25.4144L51.7691 25.4136L51.8301 25.3218C51.8304 25.3215 51.8306 25.3211 51.8309 25.3207C52.3256 24.5846 52.1598 23.558 51.4443 23.0284L51.4435 23.0279L42.9669 16.7775C42.2324 16.2339 41.2248 16.4322 40.7227 17.1847L40.7223 17.1855L40.6596 17.2797ZM45.606 12.018L45.6055 12.0187L45.5445 12.1106C45.5441 12.111 45.5438 12.1115 45.5435 12.112C45.0474 12.8505 45.222 13.8749 45.9286 14.4027L45.931 14.4045L54.406 20.6536C54.4064 20.654 54.4069 20.6543 54.4073 20.6546C55.1386 21.1996 56.1506 20.999 56.6518 20.2477L56.6523 20.2469L56.7133 20.1551C56.7136 20.1547 56.7138 20.1544 56.7141 20.154C57.2088 19.4179 57.043 18.3913 56.3275 17.8617L56.3268 17.8612L47.8518 11.6121C47.8513 11.6117 47.8508 11.6113 47.8503 11.6109C47.1191 11.0661 46.1072 11.2668 45.606 12.018ZM35.8077 22.2767L35.8066 22.2785C35.3204 23.0166 35.4832 24.0359 36.1935 24.5664L36.196 24.5683L44.6753 30.8173C44.6757 30.8176 44.6761 30.8179 44.6765 30.8182C45.4078 31.3633 46.4199 31.1628 46.9212 30.4114L46.9217 30.4106L46.9844 30.3164L46.9855 30.3146C47.472 29.5761 47.3088 28.5557 46.5924 28.0254L46.5917 28.0249L38.1167 21.7758C38.1163 21.7754 38.1158 21.7751 38.1154 21.7747C37.3841 21.2298 36.3721 21.4304 35.8709 22.1817L35.8704 22.1825L35.8077 22.2767Z" stroke="#222222" stroke-opacity="0.8"/>
</svg>
