<svg width="153" height="68" viewBox="0 0 153 68" fill="none" xmlns="http://www.w3.org/2000/svg">
<path d="M73.7159 42.5081C73.0997 41.9556 72.3347 41.4669 71.4209 41.0844C70.5072 40.6806 69.4872 40.3619 68.3184 40.1069L66.0659 39.5969C65.2159 39.4056 64.4934 39.1719 63.8772 38.9169C63.2822 38.6619 62.8147 38.3431 62.4959 37.9606C62.1772 37.5781 62.0284 37.1319 62.0284 36.6006C62.0284 36.0269 62.1984 35.5169 62.5384 35.0919C62.8784 34.6456 63.3459 34.3056 63.9622 34.0719C64.5784 33.8169 65.3009 33.7106 66.1084 33.7106C67.3834 33.7106 68.4034 34.0081 69.1684 34.6244C69.9334 35.2194 70.3584 36.0694 70.4434 37.1319H75.1609C75.1184 35.6019 74.7147 34.2631 73.9709 33.1369C73.2272 32.0106 72.1859 31.1394 70.8472 30.5231C69.5084 29.9069 67.9359 29.6094 66.1084 29.6094C64.3234 29.6094 62.7297 29.9069 61.3697 30.5231C60.0097 31.1394 58.9259 31.9894 58.1609 33.0731C57.3959 34.1569 57.0134 35.4319 57.0134 36.8981C57.0134 38.6406 57.5872 40.0431 58.7559 41.1269C59.9247 42.2106 61.6034 43.0181 63.8347 43.5281L66.4272 44.1231C67.3834 44.3356 68.1697 44.5906 68.8072 44.8669C69.4234 45.1431 69.8909 45.4831 70.2097 45.8444C70.5284 46.2269 70.6772 46.6731 70.6772 47.2256C70.6772 47.8419 70.4859 48.3731 70.1034 48.8406C69.7209 49.3081 69.2109 49.6694 68.5309 49.9244C67.8722 50.1794 67.0859 50.3069 66.1722 50.3069C65.1947 50.3069 64.3659 50.1581 63.6434 49.8394C62.9209 49.5419 62.3472 49.0744 61.9434 48.5006C61.5184 47.9056 61.3059 47.2044 61.2634 46.3331H56.4609C56.4822 48.0544 56.8859 49.5206 57.6722 50.7319C58.4584 51.9431 59.5634 52.8569 61.0084 53.4731C62.4534 54.0894 64.1747 54.4081 66.1722 54.4081C68.1272 54.4081 69.8272 54.1106 71.2297 53.5156C72.6322 52.9206 73.7159 52.0706 74.4809 50.9656C75.2459 49.8606 75.6072 48.5644 75.6072 47.0344C75.6072 46.0781 75.4372 45.2281 75.1184 44.4844C74.8209 43.7194 74.3322 43.0606 73.7159 42.5081Z" fill="#FC6600"/>
<path d="M101.576 47.8191C102.574 45.9703 103.063 43.7603 103.063 41.1678C103.063 38.5753 102.574 36.3653 101.576 34.5166C100.577 32.6678 99.2381 31.2441 97.5381 30.2453C95.8381 29.2466 93.9044 28.7578 91.7581 28.7578C89.6119 28.7578 87.6781 29.2466 85.9781 30.2453C84.2781 31.2441 82.9181 32.6678 81.9406 34.5166C80.9631 36.3653 80.4531 38.5966 80.4531 41.1678C80.4531 43.7391 80.9419 45.9491 81.9406 47.7978C82.9181 49.6466 84.2781 51.0703 85.9781 52.0691C87.6781 53.0678 89.6119 53.5566 91.7581 53.5566C93.2881 53.5566 94.7119 53.3016 96.0294 52.7916L97.9419 55.1928H102.511L99.1106 50.9428C100.088 50.0928 100.917 49.0516 101.576 47.8191ZM88.4856 48.2441C87.5294 47.6278 86.7856 46.7141 86.2544 45.5241C85.7231 44.3341 85.4469 42.8678 85.4469 41.1678C85.4469 39.4466 85.7231 38.0016 86.2544 36.7903C86.7856 35.5791 87.5294 34.6866 88.4856 34.0491C89.4419 33.4328 90.5256 33.1141 91.7581 33.1141C92.9906 33.1141 94.0956 33.4328 95.0306 34.0491C95.9869 34.6653 96.7094 35.5791 97.2406 36.7691C97.7719 37.9591 98.0269 39.4253 98.0269 41.1466C98.0269 42.8466 97.7719 44.2916 97.2406 45.5028C96.9219 46.2041 96.5394 46.8203 96.0931 47.3091L94.2019 44.8866H89.9944L93.1181 49.0091C92.6719 49.0941 92.2256 49.1578 91.7369 49.1578C90.5256 49.1791 89.4206 48.8603 88.4856 48.2441Z" fill="#FC6600"/>
<path d="M109.309 54.0272H114.239V44.5072H124.715V40.4059H114.239V34.1159H125.65V29.9297H109.309V54.0272Z" fill="#FC6600"/>
<path d="M133.363 34.1159H140.716V54.0272H145.667V34.1159H152.998V29.9297H133.363V34.1159Z" fill="#FC6600"/>
<path fill-rule="evenodd" clip-rule="evenodd" d="M53.5288 55.1969V26.1056H59.1387L44.3488 12.5906L31.11 0.478125C30.43 -0.159375 28.7087 -0.159375 28.0287 0.478125L14.79 12.5906L0 26.1056H5.63125V55.1969H53.5288ZM17.2539 35.8391V46.7191L22.7364 52.4991H36.5064L41.9677 46.7191V35.8391L38.5464 32.2691L41.4789 29.1666V18.8816L36.0177 13.1016H23.2464L17.7852 18.8816V29.1666L20.6752 32.2053L17.2539 35.8391ZM24.5852 34.7978H34.5727L37.0802 37.3691V45.1891L34.4027 47.9728H24.7977L22.0564 45.1891V37.3691L24.5852 34.7978ZM25.1802 30.2928L22.6089 27.6578V20.4116L25.3289 17.6278H33.8927L36.6339 20.4116V27.6578L34.0627 30.2928H25.1802Z" fill="#FC6600"/>
<path d="M7.51122 64.3758H10.2312V65.0078H6.64722V64.4318L9.35122 60.0638H6.67922V59.4318H10.2152V60.0078L7.51122 64.3758ZM15.3433 62.6478C15.3433 62.7865 15.3353 62.9331 15.3193 63.0878H11.8153C11.842 63.5198 11.9887 63.8585 12.2553 64.1038C12.5273 64.3438 12.8553 64.4638 13.2393 64.4638C13.554 64.4638 13.8153 64.3918 14.0233 64.2478C14.2367 64.0985 14.386 63.9011 14.4713 63.6558H15.2553C15.138 64.0771 14.9033 64.4211 14.5513 64.6878C14.1993 64.9491 13.762 65.0798 13.2393 65.0798C12.8233 65.0798 12.45 64.9865 12.1193 64.7998C11.794 64.6131 11.538 64.3491 11.3513 64.0078C11.1647 63.6611 11.0713 63.2611 11.0713 62.8078C11.0713 62.3545 11.162 61.9571 11.3433 61.6158C11.5247 61.2745 11.778 61.0131 12.1033 60.8318C12.434 60.6451 12.8127 60.5518 13.2393 60.5518C13.6553 60.5518 14.0233 60.6425 14.3433 60.8238C14.6633 61.0051 14.9087 61.2558 15.0793 61.5758C15.2553 61.8905 15.3433 62.2478 15.3433 62.6478ZM14.5913 62.4958C14.5913 62.2185 14.53 61.9811 14.4073 61.7838C14.2847 61.5811 14.1167 61.4291 13.9033 61.3278C13.6953 61.2211 13.4633 61.1678 13.2073 61.1678C12.8393 61.1678 12.5247 61.2851 12.2633 61.5198C12.0073 61.7545 11.8607 62.0798 11.8233 62.4958H14.5913ZM17.1523 61.3358C17.2803 61.0851 17.4616 60.8905 17.6963 60.7518C17.9363 60.6131 18.2269 60.5438 18.5683 60.5438V61.2958H18.3763C17.5603 61.2958 17.1523 61.7385 17.1523 62.6238V65.0078H16.4243V60.6238H17.1523V61.3358ZM21.4407 65.0798C21.03 65.0798 20.6567 64.9865 20.3207 64.7998C19.99 64.6131 19.7287 64.3491 19.5367 64.0078C19.35 63.6611 19.2567 63.2611 19.2567 62.8078C19.2567 62.3598 19.3527 61.9651 19.5447 61.6238C19.742 61.2771 20.0087 61.0131 20.3447 60.8318C20.6807 60.6451 21.0567 60.5518 21.4727 60.5518C21.8887 60.5518 22.2647 60.6451 22.6007 60.8318C22.9367 61.0131 23.2007 61.2745 23.3927 61.6158C23.59 61.9571 23.6887 62.3545 23.6887 62.8078C23.6887 63.2611 23.5873 63.6611 23.3847 64.0078C23.1873 64.3491 22.918 64.6131 22.5767 64.7998C22.2353 64.9865 21.8567 65.0798 21.4407 65.0798ZM21.4407 64.4398C21.702 64.4398 21.9473 64.3785 22.1767 64.2558C22.406 64.1331 22.59 63.9491 22.7287 63.7038C22.8727 63.4585 22.9447 63.1598 22.9447 62.8078C22.9447 62.4558 22.8753 62.1571 22.7367 61.9118C22.598 61.6665 22.4167 61.4851 22.1927 61.3678C21.9687 61.2451 21.726 61.1838 21.4647 61.1838C21.198 61.1838 20.9527 61.2451 20.7287 61.3678C20.51 61.4851 20.334 61.6665 20.2007 61.9118C20.0673 62.1571 20.0007 62.4558 20.0007 62.8078C20.0007 63.1651 20.0647 63.4665 20.1927 63.7118C20.326 63.9571 20.502 64.1411 20.7207 64.2638C20.9393 64.3811 21.1793 64.4398 21.4407 64.4398ZM29.8107 62.1358C30.0133 62.1678 30.1973 62.2505 30.3627 62.3838C30.5333 62.5171 30.6667 62.6825 30.7627 62.8798C30.864 63.0771 30.9147 63.2878 30.9147 63.5118C30.9147 63.7945 30.8427 64.0505 30.6987 64.2798C30.5547 64.5038 30.344 64.6825 30.0667 64.8158C29.7947 64.9438 29.472 65.0078 29.0987 65.0078H27.0187V59.4318H29.0187C29.3973 59.4318 29.72 59.4958 29.9867 59.6238C30.2533 59.7465 30.4533 59.9145 30.5867 60.1278C30.72 60.3411 30.7867 60.5811 30.7867 60.8478C30.7867 61.1785 30.696 61.4531 30.5147 61.6718C30.3387 61.8851 30.104 62.0398 29.8107 62.1358ZM27.7467 61.8398H28.9707C29.312 61.8398 29.576 61.7598 29.7627 61.5998C29.9493 61.4398 30.0427 61.2185 30.0427 60.9358C30.0427 60.6531 29.9493 60.4318 29.7627 60.2718C29.576 60.1118 29.3067 60.0318 28.9547 60.0318H27.7467V61.8398ZM29.0347 64.4078C29.3973 64.4078 29.68 64.3225 29.8827 64.1518C30.0853 63.9811 30.1867 63.7438 30.1867 63.4398C30.1867 63.1305 30.08 62.8878 29.8667 62.7118C29.6533 62.5305 29.368 62.4398 29.0107 62.4398H27.7467V64.4078H29.0347ZM32.7729 61.3358C32.9009 61.0851 33.0822 60.8905 33.3169 60.7518C33.5569 60.6131 33.8476 60.5438 34.1889 60.5438V61.2958H33.9969C33.1809 61.2958 32.7729 61.7385 32.7729 62.6238V65.0078H32.0449V60.6238H32.7729V61.3358ZM37.0613 65.0798C36.6506 65.0798 36.2773 64.9865 35.9413 64.7998C35.6106 64.6131 35.3493 64.3491 35.1573 64.0078C34.9706 63.6611 34.8773 63.2611 34.8773 62.8078C34.8773 62.3598 34.9733 61.9651 35.1653 61.6238C35.3626 61.2771 35.6293 61.0131 35.9653 60.8318C36.3013 60.6451 36.6773 60.5518 37.0933 60.5518C37.5093 60.5518 37.8853 60.6451 38.2213 60.8318C38.5573 61.0131 38.8213 61.2745 39.0133 61.6158C39.2106 61.9571 39.3093 62.3545 39.3093 62.8078C39.3093 63.2611 39.2079 63.6611 39.0053 64.0078C38.808 64.3491 38.5386 64.6131 38.1973 64.7998C37.856 64.9865 37.4773 65.0798 37.0613 65.0798ZM37.0613 64.4398C37.3226 64.4398 37.568 64.3785 37.7973 64.2558C38.0266 64.1331 38.2106 63.9491 38.3493 63.7038C38.4933 63.4585 38.5653 63.1598 38.5653 62.8078C38.5653 62.4558 38.4959 62.1571 38.3573 61.9118C38.2186 61.6665 38.0373 61.4851 37.8133 61.3678C37.5893 61.2451 37.3466 61.1838 37.0853 61.1838C36.8186 61.1838 36.5733 61.2451 36.3493 61.3678C36.1306 61.4851 35.9546 61.6665 35.8213 61.9118C35.6879 62.1571 35.6213 62.4558 35.6213 62.8078C35.6213 63.1651 35.6853 63.4665 35.8133 63.7118C35.9466 63.9571 36.1226 64.1411 36.3413 64.2638C36.56 64.3811 36.8 64.4398 37.0613 64.4398ZM42.8345 65.0078L41.1145 63.0718V65.0078H40.3865V59.0878H41.1145V62.5678L42.8025 60.6238H43.8185L41.7545 62.8078L43.8265 65.0078H42.8345ZM48.6237 62.6478C48.6237 62.7865 48.6157 62.9331 48.5997 63.0878H45.0957C45.1223 63.5198 45.269 63.8585 45.5357 64.1038C45.8077 64.3438 46.1357 64.4638 46.5197 64.4638C46.8343 64.4638 47.0957 64.3918 47.3037 64.2478C47.517 64.0985 47.6663 63.9011 47.7517 63.6558H48.5357C48.4183 64.0771 48.1837 64.4211 47.8317 64.6878C47.4797 64.9491 47.0423 65.0798 46.5197 65.0798C46.1037 65.0798 45.7303 64.9865 45.3997 64.7998C45.0743 64.6131 44.8183 64.3491 44.6317 64.0078C44.445 63.6611 44.3517 63.2611 44.3517 62.8078C44.3517 62.3545 44.4423 61.9571 44.6237 61.6158C44.805 61.2745 45.0583 61.0131 45.3837 60.8318C45.7143 60.6451 46.093 60.5518 46.5197 60.5518C46.9357 60.5518 47.3037 60.6425 47.6237 60.8238C47.9437 61.0051 48.189 61.2558 48.3597 61.5758C48.5357 61.8905 48.6237 62.2478 48.6237 62.6478ZM47.8717 62.4958C47.8717 62.2185 47.8103 61.9811 47.6877 61.7838C47.565 61.5811 47.397 61.4291 47.1837 61.3278C46.9757 61.2211 46.7437 61.1678 46.4877 61.1678C46.1197 61.1678 45.805 61.2851 45.5437 61.5198C45.2877 61.7545 45.141 62.0798 45.1037 62.4958H47.8717ZM50.4326 61.3358C50.5606 61.0851 50.7419 60.8905 50.9766 60.7518C51.2166 60.6131 51.5073 60.5438 51.8486 60.5438V61.2958H51.6566C50.8406 61.2958 50.4326 61.7385 50.4326 62.6238V65.0078H49.7046V60.6238H50.4326V61.3358ZM52.537 62.7998C52.537 62.3518 52.6276 61.9598 52.809 61.6238C52.9903 61.2825 53.2383 61.0185 53.553 60.8318C53.873 60.6451 54.2276 60.5518 54.617 60.5518C55.001 60.5518 55.3343 60.6345 55.617 60.7998C55.8996 60.9651 56.1103 61.1731 56.249 61.4238V60.6238H56.985V65.0078H56.249V64.1918C56.105 64.4478 55.889 64.6611 55.601 64.8318C55.3183 64.9971 54.9876 65.0798 54.609 65.0798C54.2196 65.0798 53.8676 64.9838 53.553 64.7918C53.2383 64.5998 52.9903 64.3305 52.809 63.9838C52.6276 63.6371 52.537 63.2425 52.537 62.7998ZM56.249 62.8078C56.249 62.4771 56.1823 62.1891 56.049 61.9438C55.9156 61.6985 55.7343 61.5118 55.505 61.3838C55.281 61.2505 55.033 61.1838 54.761 61.1838C54.489 61.1838 54.241 61.2478 54.017 61.3758C53.793 61.5038 53.6143 61.6905 53.481 61.9358C53.3476 62.1811 53.281 62.4691 53.281 62.7998C53.281 63.1358 53.3476 63.4291 53.481 63.6798C53.6143 63.9251 53.793 64.1145 54.017 64.2478C54.241 64.3758 54.489 64.4398 54.761 64.4398C55.033 64.4398 55.281 64.3758 55.505 64.2478C55.7343 64.1145 55.9156 63.9251 56.049 63.6798C56.1823 63.4291 56.249 63.1385 56.249 62.8078ZM60.1432 60.5518C60.5219 60.5518 60.8526 60.6345 61.1352 60.7998C61.4232 60.9651 61.6366 61.1731 61.7752 61.4238V60.6238H62.5112V65.1038C62.5112 65.5038 62.4259 65.8585 62.2552 66.1678C62.0846 66.4825 61.8392 66.7278 61.5192 66.9038C61.2046 67.0798 60.8366 67.1678 60.4152 67.1678C59.8392 67.1678 59.3592 67.0318 58.9752 66.7598C58.5912 66.4878 58.3646 66.1171 58.2952 65.6478H59.0152C59.0952 65.9145 59.2606 66.1278 59.5112 66.2878C59.7619 66.4531 60.0632 66.5358 60.4152 66.5358C60.8152 66.5358 61.1406 66.4105 61.3912 66.1598C61.6472 65.9091 61.7752 65.5571 61.7752 65.1038V64.1838C61.6312 64.4398 61.4179 64.6531 61.1352 64.8238C60.8526 64.9945 60.5219 65.0798 60.1432 65.0798C59.7539 65.0798 59.3992 64.9838 59.0792 64.7918C58.7646 64.5998 58.5166 64.3305 58.3352 63.9838C58.1539 63.6371 58.0632 63.2425 58.0632 62.7998C58.0632 62.3518 58.1539 61.9598 58.3352 61.6238C58.5166 61.2825 58.7646 61.0185 59.0792 60.8318C59.3992 60.6451 59.7539 60.5518 60.1432 60.5518ZM61.7752 62.8078C61.7752 62.4771 61.7086 62.1891 61.5752 61.9438C61.4419 61.6985 61.2606 61.5118 61.0312 61.3838C60.8072 61.2505 60.5592 61.1838 60.2872 61.1838C60.0152 61.1838 59.7672 61.2478 59.5432 61.3758C59.3192 61.5038 59.1406 61.6905 59.0072 61.9358C58.8739 62.1811 58.8072 62.4691 58.8072 62.7998C58.8072 63.1358 58.8739 63.4291 59.0072 63.6798C59.1406 63.9251 59.3192 64.1145 59.5432 64.2478C59.7672 64.3758 60.0152 64.4398 60.2872 64.4398C60.5592 64.4398 60.8072 64.3758 61.0312 64.2478C61.2606 64.1145 61.4419 63.9251 61.5752 63.6798C61.7086 63.4291 61.7752 63.1385 61.7752 62.8078ZM67.8615 62.6478C67.8615 62.7865 67.8535 62.9331 67.8375 63.0878H64.3335C64.3601 63.5198 64.5068 63.8585 64.7735 64.1038C65.0455 64.3438 65.3735 64.4638 65.7575 64.4638C66.0721 64.4638 66.3335 64.3918 66.5415 64.2478C66.7548 64.0985 66.9041 63.9011 66.9895 63.6558H67.7735C67.6561 64.0771 67.4215 64.4211 67.0695 64.6878C66.7175 64.9491 66.2801 65.0798 65.7575 65.0798C65.3415 65.0798 64.9681 64.9865 64.6375 64.7998C64.3121 64.6131 64.0561 64.3491 63.8695 64.0078C63.6828 63.6611 63.5895 63.2611 63.5895 62.8078C63.5895 62.3545 63.6801 61.9571 63.8615 61.6158C64.0428 61.2745 64.2961 61.0131 64.6215 60.8318C64.9521 60.6451 65.3308 60.5518 65.7575 60.5518C66.1735 60.5518 66.5415 60.6425 66.8615 60.8238C67.1815 61.0051 67.4268 61.2558 67.5975 61.5758C67.7735 61.8905 67.8615 62.2478 67.8615 62.6478ZM67.1095 62.4958C67.1095 62.2185 67.0481 61.9811 66.9255 61.7838C66.8028 61.5811 66.6348 61.4291 66.4215 61.3278C66.2135 61.2211 65.9815 61.1678 65.7255 61.1678C65.3575 61.1678 65.0428 61.2851 64.7815 61.5198C64.5255 61.7545 64.3788 62.0798 64.3415 62.4958H67.1095ZM77.0352 60.6238L75.6672 65.0078H74.9152L73.8592 61.5278L72.8032 65.0078H72.0512L70.6752 60.6238H71.4192L72.4272 64.3038L73.5152 60.6238H74.2592L75.3232 64.3118L76.3152 60.6238H77.0352ZM78.2537 59.9118C78.1151 59.9118 77.9977 59.8638 77.9017 59.7678C77.8057 59.6718 77.7577 59.5545 77.7577 59.4158C77.7577 59.2771 77.8057 59.1598 77.9017 59.0638C77.9977 58.9678 78.1151 58.9198 78.2537 58.9198C78.3871 58.9198 78.4991 58.9678 78.5897 59.0638C78.6857 59.1598 78.7337 59.2771 78.7337 59.4158C78.7337 59.5545 78.6857 59.6718 78.5897 59.7678C78.4991 59.8638 78.3871 59.9118 78.2537 59.9118ZM78.6057 60.6238V65.0078H77.8777V60.6238H78.6057ZM80.8545 61.2238V63.8078C80.8545 64.0211 80.8998 64.1731 80.9905 64.2638C81.0811 64.3491 81.2385 64.3918 81.4625 64.3918H81.9985V65.0078H81.3425C80.9371 65.0078 80.6331 64.9145 80.4305 64.7278C80.2278 64.5411 80.1265 64.2345 80.1265 63.8078V61.2238H79.5585V60.6238H80.1265V59.5198H80.8545V60.6238H81.9985V61.2238H80.8545ZM85.1765 60.5438C85.5072 60.5438 85.8059 60.6158 86.0725 60.7598C86.3392 60.8985 86.5472 61.1091 86.6965 61.3918C86.8512 61.6745 86.9285 62.0185 86.9285 62.4238V65.0078H86.2085V62.5278C86.2085 62.0905 86.0992 61.7571 85.8805 61.5278C85.6619 61.2931 85.3632 61.1758 84.9845 61.1758C84.6005 61.1758 84.2939 61.2958 84.0645 61.5358C83.8405 61.7758 83.7285 62.1251 83.7285 62.5838V65.0078H83.0005V59.0878H83.7285V61.2478C83.8725 61.0238 84.0699 60.8505 84.3205 60.7278C84.5765 60.6051 84.8619 60.5438 85.1765 60.5438ZM94.2185 61.0638C94.2185 61.5278 94.0585 61.9145 93.7385 62.2238C93.4239 62.5278 92.9412 62.6798 92.2905 62.6798H91.2185V65.0078H90.4905V59.4318H92.2905C92.9199 59.4318 93.3972 59.5838 93.7225 59.8878C94.0532 60.1918 94.2185 60.5838 94.2185 61.0638ZM92.2905 62.0798C92.6959 62.0798 92.9945 61.9918 93.1865 61.8158C93.3785 61.6398 93.4745 61.3891 93.4745 61.0638C93.4745 60.3758 93.0799 60.0318 92.2905 60.0318H91.2185V62.0798H92.2905ZM99.2433 62.6478C99.2433 62.7865 99.2353 62.9331 99.2193 63.0878H95.7153C95.742 63.5198 95.8887 63.8585 96.1553 64.1038C96.4273 64.3438 96.7553 64.4638 97.1393 64.4638C97.454 64.4638 97.7153 64.3918 97.9233 64.2478C98.1367 64.0985 98.286 63.9011 98.3713 63.6558H99.1553C99.038 64.0771 98.8033 64.4211 98.4513 64.6878C98.0993 64.9491 97.662 65.0798 97.1393 65.0798C96.7233 65.0798 96.35 64.9865 96.0193 64.7998C95.694 64.6131 95.438 64.3491 95.2513 64.0078C95.0647 63.6611 94.9713 63.2611 94.9713 62.8078C94.9713 62.3545 95.062 61.9571 95.2433 61.6158C95.4247 61.2745 95.678 61.0131 96.0033 60.8318C96.334 60.6451 96.7127 60.5518 97.1393 60.5518C97.5553 60.5518 97.9233 60.6425 98.2433 60.8238C98.5633 61.0051 98.8087 61.2558 98.9793 61.5758C99.1553 61.8905 99.2433 62.2478 99.2433 62.6478ZM98.4913 62.4958C98.4913 62.2185 98.43 61.9811 98.3073 61.7838C98.1847 61.5811 98.0167 61.4291 97.8033 61.3278C97.5953 61.2211 97.3633 61.1678 97.1073 61.1678C96.7393 61.1678 96.4247 61.2851 96.1633 61.5198C95.9073 61.7545 95.7607 62.0798 95.7233 62.4958H98.4913ZM101.052 61.3358C101.18 61.0851 101.362 60.8905 101.596 60.7518C101.836 60.6131 102.127 60.5438 102.468 60.5438V61.2958H102.276C101.46 61.2958 101.052 61.7385 101.052 62.6238V65.0078H100.324V60.6238H101.052V61.3358ZM105.213 61.2238H104.293V65.0078H103.565V61.2238H102.997V60.6238H103.565V60.3118C103.565 59.8211 103.69 59.4638 103.941 59.2398C104.197 59.0105 104.605 58.8958 105.165 58.8958V59.5038C104.845 59.5038 104.618 59.5678 104.485 59.6958C104.357 59.8185 104.293 60.0238 104.293 60.3118V60.6238H105.213V61.2238ZM110.181 62.6478C110.181 62.7865 110.173 62.9331 110.157 63.0878H106.653C106.68 63.5198 106.827 63.8585 107.093 64.1038C107.365 64.3438 107.693 64.4638 108.077 64.4638C108.392 64.4638 108.653 64.3918 108.861 64.2478C109.075 64.0985 109.224 63.9011 109.309 63.6558H110.093C109.976 64.0771 109.741 64.4211 109.389 64.6878C109.037 64.9491 108.6 65.0798 108.077 65.0798C107.661 65.0798 107.288 64.9865 106.957 64.7998C106.632 64.6131 106.376 64.3491 106.189 64.0078C106.003 63.6611 105.909 63.2611 105.909 62.8078C105.909 62.3545 106 61.9571 106.181 61.6158C106.363 61.2745 106.616 61.0131 106.941 60.8318C107.272 60.6451 107.651 60.5518 108.077 60.5518C108.493 60.5518 108.861 60.6425 109.181 60.8238C109.501 61.0051 109.747 61.2558 109.917 61.5758C110.093 61.8905 110.181 62.2478 110.181 62.6478ZM109.429 62.4958C109.429 62.2185 109.368 61.9811 109.245 61.7838C109.123 61.5811 108.955 61.4291 108.741 61.3278C108.533 61.2211 108.301 61.1678 108.045 61.1678C107.677 61.1678 107.363 61.2851 107.101 61.5198C106.845 61.7545 106.699 62.0798 106.661 62.4958H109.429ZM110.99 62.8078C110.99 62.3545 111.081 61.9598 111.262 61.6238C111.444 61.2825 111.694 61.0185 112.014 60.8318C112.34 60.6451 112.71 60.5518 113.126 60.5518C113.665 60.5518 114.108 60.6825 114.454 60.9438C114.806 61.2051 115.038 61.5678 115.15 62.0318H114.366C114.292 61.7651 114.145 61.5545 113.926 61.3998C113.713 61.2451 113.446 61.1678 113.126 61.1678C112.71 61.1678 112.374 61.3118 112.118 61.5998C111.862 61.8825 111.734 62.2851 111.734 62.8078C111.734 63.3358 111.862 63.7438 112.118 64.0318C112.374 64.3198 112.71 64.4638 113.126 64.4638C113.446 64.4638 113.713 64.3891 113.926 64.2398C114.14 64.0905 114.286 63.8771 114.366 63.5998H115.15C115.033 64.0478 114.798 64.4078 114.446 64.6798C114.094 64.9465 113.654 65.0798 113.126 65.0798C112.71 65.0798 112.34 64.9865 112.014 64.7998C111.694 64.6131 111.444 64.3491 111.262 64.0078C111.081 63.6665 110.99 63.2665 110.99 62.8078ZM117.13 61.2238V63.8078C117.13 64.0211 117.175 64.1731 117.266 64.2638C117.356 64.3491 117.514 64.3918 117.738 64.3918H118.274V65.0078H117.618C117.212 65.0078 116.908 64.9145 116.706 64.7278C116.503 64.5411 116.402 64.2345 116.402 63.8078V61.2238H115.834V60.6238H116.402V59.5198H117.13V60.6238H118.274V61.2238H117.13ZM123.297 65.0638C122.929 65.0638 122.598 64.9998 122.305 64.8718C122.017 64.7385 121.79 64.5571 121.625 64.3278C121.459 64.0931 121.374 63.8238 121.369 63.5198H122.145C122.171 63.7811 122.278 64.0025 122.465 64.1838C122.657 64.3598 122.934 64.4478 123.297 64.4478C123.643 64.4478 123.915 64.3625 124.113 64.1918C124.315 64.0158 124.417 63.7918 124.417 63.5198C124.417 63.3065 124.358 63.1331 124.241 62.9998C124.123 62.8665 123.977 62.7651 123.801 62.6958C123.625 62.6265 123.387 62.5518 123.089 62.4718C122.721 62.3758 122.425 62.2798 122.201 62.1838C121.982 62.0878 121.793 61.9385 121.633 61.7358C121.478 61.5278 121.401 61.2505 121.401 60.9038C121.401 60.5998 121.478 60.3305 121.633 60.0958C121.787 59.8611 122.003 59.6798 122.281 59.5518C122.563 59.4238 122.886 59.3598 123.249 59.3598C123.771 59.3598 124.198 59.4905 124.529 59.7518C124.865 60.0131 125.054 60.3598 125.097 60.7918H124.297C124.27 60.5785 124.158 60.3918 123.961 60.2318C123.763 60.0665 123.502 59.9838 123.177 59.9838C122.873 59.9838 122.625 60.0638 122.433 60.2238C122.241 60.3785 122.145 60.5971 122.145 60.8798C122.145 61.0825 122.201 61.2478 122.313 61.3758C122.43 61.5038 122.571 61.6025 122.737 61.6718C122.907 61.7358 123.145 61.8105 123.449 61.8958C123.817 61.9971 124.113 62.0985 124.337 62.1998C124.561 62.2958 124.753 62.4478 124.913 62.6558C125.073 62.8585 125.153 63.1358 125.153 63.4878C125.153 63.7598 125.081 64.0158 124.937 64.2558C124.793 64.4958 124.579 64.6905 124.297 64.8398C124.014 64.9891 123.681 65.0638 123.297 65.0638ZM127.072 61.4318C127.216 61.1811 127.429 60.9731 127.712 60.8078C128 60.6371 128.333 60.5518 128.712 60.5518C129.101 60.5518 129.453 60.6451 129.768 60.8318C130.088 61.0185 130.339 61.2825 130.52 61.6238C130.701 61.9598 130.792 62.3518 130.792 62.7998C130.792 63.2425 130.701 63.6371 130.52 63.9838C130.339 64.3305 130.088 64.5998 129.768 64.7918C129.453 64.9838 129.101 65.0798 128.712 65.0798C128.339 65.0798 128.008 64.9971 127.72 64.8318C127.437 64.6611 127.221 64.4505 127.072 64.1998V67.0878H126.344V60.6238H127.072V61.4318ZM130.048 62.7998C130.048 62.4691 129.981 62.1811 129.848 61.9358C129.715 61.6905 129.533 61.5038 129.304 61.3758C129.08 61.2478 128.832 61.1838 128.56 61.1838C128.293 61.1838 128.045 61.2505 127.816 61.3838C127.592 61.5118 127.411 61.7011 127.272 61.9518C127.139 62.1971 127.072 62.4825 127.072 62.8078C127.072 63.1385 127.139 63.4291 127.272 63.6798C127.411 63.9251 127.592 64.1145 127.816 64.2478C128.045 64.3758 128.293 64.4398 128.56 64.4398C128.832 64.4398 129.08 64.3758 129.304 64.2478C129.533 64.1145 129.715 63.9251 129.848 63.6798C129.981 63.4291 130.048 63.1358 130.048 62.7998ZM131.598 62.7998C131.598 62.3518 131.689 61.9598 131.87 61.6238C132.052 61.2825 132.3 61.0185 132.614 60.8318C132.934 60.6451 133.289 60.5518 133.678 60.5518C134.062 60.5518 134.396 60.6345 134.678 60.7998C134.961 60.9651 135.172 61.1731 135.31 61.4238V60.6238H136.046V65.0078H135.31V64.1918C135.166 64.4478 134.95 64.6611 134.662 64.8318C134.38 64.9971 134.049 65.0798 133.67 65.0798C133.281 65.0798 132.929 64.9838 132.614 64.7918C132.3 64.5998 132.052 64.3305 131.87 63.9838C131.689 63.6371 131.598 63.2425 131.598 62.7998ZM135.31 62.8078C135.31 62.4771 135.244 62.1891 135.11 61.9438C134.977 61.6985 134.796 61.5118 134.566 61.3838C134.342 61.2505 134.094 61.1838 133.822 61.1838C133.55 61.1838 133.302 61.2478 133.078 61.3758C132.854 61.5038 132.676 61.6905 132.542 61.9358C132.409 62.1811 132.342 62.4691 132.342 62.7998C132.342 63.1358 132.409 63.4291 132.542 63.6798C132.676 63.9251 132.854 64.1145 133.078 64.2478C133.302 64.3758 133.55 64.4398 133.822 64.4398C134.094 64.4398 134.342 64.3758 134.566 64.2478C134.796 64.1145 134.977 63.9251 135.11 63.6798C135.244 63.4291 135.31 63.1385 135.31 62.8078ZM137.124 62.8078C137.124 62.3545 137.215 61.9598 137.396 61.6238C137.578 61.2825 137.828 61.0185 138.148 60.8318C138.474 60.6451 138.844 60.5518 139.26 60.5518C139.799 60.5518 140.242 60.6825 140.588 60.9438C140.94 61.2051 141.172 61.5678 141.284 62.0318H140.5C140.426 61.7651 140.279 61.5545 140.06 61.3998C139.847 61.2451 139.58 61.1678 139.26 61.1678C138.844 61.1678 138.508 61.3118 138.252 61.5998C137.996 61.8825 137.868 62.2851 137.868 62.8078C137.868 63.3358 137.996 63.7438 138.252 64.0318C138.508 64.3198 138.844 64.4638 139.26 64.4638C139.58 64.4638 139.847 64.3891 140.06 64.2398C140.274 64.0905 140.42 63.8771 140.5 63.5998H141.284C141.167 64.0478 140.932 64.4078 140.58 64.6798C140.228 64.9465 139.788 65.0798 139.26 65.0798C138.844 65.0798 138.474 64.9865 138.148 64.7998C137.828 64.6131 137.578 64.3491 137.396 64.0078C137.215 63.6665 137.124 63.2665 137.124 62.8078ZM146.376 62.6478C146.376 62.7865 146.368 62.9331 146.352 63.0878H142.848C142.875 63.5198 143.021 63.8585 143.288 64.1038C143.56 64.3438 143.888 64.4638 144.272 64.4638C144.587 64.4638 144.848 64.3918 145.056 64.2478C145.269 64.0985 145.419 63.9011 145.504 63.6558H146.288C146.171 64.0771 145.936 64.4211 145.584 64.6878C145.232 64.9491 144.795 65.0798 144.272 65.0798C143.856 65.0798 143.483 64.9865 143.152 64.7998C142.827 64.6131 142.571 64.3491 142.384 64.0078C142.197 63.6611 142.104 63.2611 142.104 62.8078C142.104 62.3545 142.195 61.9571 142.376 61.6158C142.557 61.2745 142.811 61.0131 143.136 60.8318C143.467 60.6451 143.845 60.5518 144.272 60.5518C144.688 60.5518 145.056 60.6425 145.376 60.8238C145.696 61.0051 145.941 61.2558 146.112 61.5758C146.288 61.8905 146.376 62.2478 146.376 62.6478ZM145.624 62.4958C145.624 62.2185 145.563 61.9811 145.44 61.7838C145.317 61.5811 145.149 61.4291 144.936 61.3278C144.728 61.2211 144.496 61.1678 144.24 61.1678C143.872 61.1678 143.557 61.2851 143.296 61.5198C143.04 61.7545 142.893 62.0798 142.856 62.4958H145.624Z" fill="#222222"/>
</svg>
