<svg width="52" height="46" viewBox="0 0 52 46" fill="none" xmlns="http://www.w3.org/2000/svg">
<path d="M26.2569 43.1923C27.4795 42.4491 28.5784 41.5484 29.5357 40.5442C31.6149 38.3667 33.0178 35.7056 33.5799 33.0944C34.1378 30.5165 33.8744 27.9908 32.64 26.041C32.2891 25.4813 31.8492 24.9698 31.3261 24.5104C29.8264 23.204 28.1094 22.5813 26.381 22.5646C24.5652 22.5516 22.7244 23.204 21.0967 24.4438C20.4029 24.9738 19.8313 25.5834 19.3877 26.2564C18.2445 27.9763 17.8974 30.1111 18.2756 32.3443C18.6571 34.6108 19.7832 36.9809 21.5775 39.1291C22.8255 40.6263 24.3949 42.0165 26.2629 43.1894L26.2569 43.1923Z" stroke="#222222" stroke-opacity="0.8" stroke-miterlimit="10"/>
<path d="M28.7803 27.5292C28.069 26.8489 27.0788 26.4229 25.9939 26.4229C24.903 26.4229 23.9184 26.8435 23.2076 27.5292C22.4963 28.2094 22.0508 29.1564 22.0508 30.1939C22.0508 31.2372 22.4906 32.1788 23.2076 32.8586C23.9188 33.5389 24.9091 33.9649 25.9939 33.9649C27.0848 33.9649 28.0694 33.5443 28.7803 32.8586C29.4915 32.1784 29.9371 31.2314 29.9371 30.1939C29.9352 29.1506 29.4972 28.2094 28.7803 27.5292Z" stroke="#222222" stroke-opacity="0.8" stroke-miterlimit="10"/>
<path fill-rule="evenodd" clip-rule="evenodd" d="M26 1L1.09918 24.3257C0.939064 24.4756 0.978431 24.7315 1.17678 24.831L6.70861 27.6087C6.83921 27.6743 6.9997 27.6493 7.10153 27.5468L25.5988 8.97324C25.7282 8.84328 25.9447 8.84256 26.0753 8.97143L44.8989 27.5537C45.0007 27.6543 45.16 27.6786 45.2895 27.6134L50.8232 24.835C51.0216 24.7355 51.0609 24.4795 50.9008 24.3297L26 1ZM8.6024 44.9996C8.41995 44.9996 8.27194 44.8581 8.27194 44.6836V28.34L25.7907 11.5819C25.9198 11.4584 26.1295 11.4584 26.2582 11.5822L43.7239 28.34V44.684C43.7239 44.8585 43.5759 45 43.3934 45H8.6024V44.9996Z" stroke="#222222" stroke-opacity="0.8" stroke-miterlimit="10"/>
</svg>
