<svg width="38" height="41" viewBox="0 0 38 41" fill="none" xmlns="http://www.w3.org/2000/svg">
<g clip-path="url(#clip0_2_10491)">
<path d="M14.7001 19.54L16.0301 11.71C16.0301 11.71 16.0301 11.7 16.0201 11.7H12.7401C12.7401 11.7 12.7401 11.7 12.7301 11.7L10.1801 17.17C9.8301 17.65 9.1901 17.81 8.6701 17.56C7.8001 17.14 7.9901 16.17 8.2701 15.42C8.6401 14.42 9.9101 10.13 10.5901 9.26998C10.9401 8.81998 11.4201 8.51998 12.1101 8.51998C14.0301 8.51998 15.9501 8.51998 17.8801 8.51998C19.2301 8.51998 20.7801 8.36998 21.8701 9.32998C22.7501 10.14 23.2301 11.4 23.0001 12.57L21.6101 20.71C21.6001 20.75 21.5901 20.8 21.5901 20.84C21.3801 21.84 21.5501 22.89 22.1101 23.75C23.5001 25.87 24.8901 28 26.2801 30.12C27.3001 32.86 28.3301 35.59 29.3501 38.33C29.7101 39.15 29.3801 40.04 28.7701 40.36C28.0501 40.74 26.9401 40.33 26.6101 39.32L23.2801 30.94L17.9401 23.81C17.8501 23.69 17.7201 23.61 17.5701 23.58C15.6601 23.25 14.3801 21.44 14.7001 19.54Z" stroke="#222222" stroke-opacity="0.8" stroke-width="0.5" stroke-miterlimit="10"/>
<path d="M27.2111 16.4398C26.6711 16.4498 26.3111 16.1298 26.2411 16.0598C26.2411 16.0598 26.2411 16.0598 26.2311 16.0498L23.6511 14.1598C23.6311 14.1398 23.6211 14.1198 23.6211 14.0998V10.6798C23.6211 10.6198 23.6911 10.5798 23.7511 10.6098L27.3511 13.0898C27.3811 13.1098 27.4111 13.1098 27.4411 13.0898C28.9211 12.0598 30.4011 11.0198 31.8811 9.98979C32.3711 9.65979 33.0011 9.74979 33.3511 10.1398C33.7511 10.5898 33.6811 11.3698 33.1311 11.7698C31.4711 13.1998 29.8111 14.6298 28.1511 16.0498C28.0711 16.1198 27.7411 16.4298 27.2111 16.4398Z" stroke="#222222" stroke-opacity="0.8" stroke-width="0.5" stroke-miterlimit="10"/>
<path d="M22.1375 6.59431C23.3673 5.3666 23.3663 3.37178 22.1354 2.13875C20.9045 0.905715 18.9096 0.901394 17.6799 2.1291C16.4501 3.3568 16.451 5.35162 17.6819 6.58466C18.9129 7.81769 20.9077 7.82201 22.1375 6.59431Z" stroke="#222222" stroke-opacity="0.8" stroke-width="0.5" stroke-miterlimit="10"/>
<path d="M0.58958 27.57C0.14958 27.14 0.00958033 26.59 0.15958 26.1C0.35958 25.47 1.01958 25.05 1.74958 25.13H1.75958C4.17958 25.7 6.59958 26.26 9.01958 26.83C9.50958 26.94 9.92958 26.72 10.2296 26.34C10.6396 25.81 11.0296 25.28 11.4396 24.75C12.2696 23.66 13.1096 22.58 13.9396 21.49C13.9796 21.44 14.0596 21.45 14.0796 21.52C14.1796 21.88 14.3696 22.39 14.7696 22.92C15.1996 23.49 15.6796 23.83 15.9996 24.02C16.0396 24.04 16.0496 24.1 16.0196 24.14C14.7596 25.72 13.6296 27.41 12.3096 28.94C11.6596 29.69 10.7296 30.13 9.73958 30.14C9.55958 30.14 9.39958 30.13 9.27958 30.09C6.39958 29.26 3.51958 28.44 0.63958 27.61C0.60958 27.58 0.58958 27.58 0.58958 27.57Z" stroke="#222222" stroke-opacity="0.8" stroke-width="0.5" stroke-miterlimit="10"/>
<path d="M36.9798 6.00302L33.6712 3.01518C33.6375 2.98011 33.5836 3.00817 33.5836 3.05726V4.82472C33.5836 4.85277 33.5566 4.88083 33.5297 4.88083H27.0539C27.027 4.88083 27 4.90888 27 4.93694V7.16028C27 7.18833 27.027 7.21639 27.0539 7.21639H33.5297C33.5566 7.21639 33.5836 7.24444 33.5836 7.2725V8.94176C33.5836 8.99086 33.6375 9.01891 33.6712 8.98384L36.9798 6.08718C37.0067 6.06614 37.0067 6.02406 36.9798 6.00302Z" stroke="#222222" stroke-opacity="0.8" stroke-width="0.5" stroke-miterlimit="10"/>
</g>
<defs>
<clipPath id="clip0_2_10491">
<rect width="37.84" height="40.2" fill="white" transform="translate(0 0.399902)"/>
</clipPath>
</defs>
</svg>
