<svg width="40" height="40" viewBox="0 0 40 40" fill="none" xmlns="http://www.w3.org/2000/svg">
<path d="M14.8727 24.8893L14.8727 24.8895C14.7271 26.1432 13.8567 27.2271 12.7178 28.1495C11.5677 29.0809 10.0643 29.9122 8.49751 30.6457C6.9268 31.381 5.26791 32.0292 3.79645 32.587C3.49579 32.701 3.20386 32.8109 2.92251 32.9168C1.96976 33.2754 1.13832 33.5883 0.5 33.8599V39.5L39.5 39.4969V33.0012C38.8966 32.748 38.0949 32.4543 37.1684 32.115C36.962 32.0394 36.7495 31.9615 36.5315 31.8814C35.1786 31.3836 33.641 30.8039 32.1723 30.1437C30.7072 29.4851 29.2879 28.7364 28.1799 27.8936C27.0843 27.0601 26.216 26.0766 25.9925 24.9273L14.8727 24.8893ZM14.8727 24.8893C14.8976 24.6748 14.855 24.4398 14.7993 24.229C14.7407 24.0068 14.6527 23.7582 14.5484 23.4972C14.3397 22.9753 14.0485 22.3609 13.7454 21.7371C13.6653 21.5723 13.5847 21.4073 13.5044 21.243C12.9623 20.1336 12.4381 19.0608 12.2288 18.3459L12.2097 18.2806M14.8727 24.8893L12.2097 18.2806M12.2097 18.2806L12.1738 18.2227M12.2097 18.2806L12.1738 18.2227M12.1738 18.2227C11.6717 17.4137 11.324 16.3515 11.2446 15.2745C11.1651 14.1963 11.3569 13.1471 11.88 12.3321L11.8801 12.3319M12.1738 18.2227L11.8801 12.3319M11.8801 12.3319C12.0638 12.0454 12.1495 11.6397 12.1983 11.2597C12.2499 10.8584 12.2696 10.3975 12.2742 9.94213C12.2788 9.48486 12.2682 9.02106 12.2567 8.61216C12.2542 8.52322 12.2517 8.43738 12.2493 8.35498C12.2404 8.05289 12.2329 7.79709 12.2329 7.60443C12.2329 5.23277 13.2518 3.47523 14.7807 2.29768C16.3233 1.10961 18.4044 0.50019 20.5097 0.5C22.6151 0.499809 24.6961 1.10885 26.2386 2.2968C27.7675 3.47422 28.7865 5.23193 28.7865 7.60443C28.7865 7.86423 28.7739 8.17094 28.7598 8.51572C28.7572 8.57893 28.7545 8.64342 28.7519 8.70914C28.7352 9.12676 28.7196 9.58467 28.7263 10.037C28.7331 10.4881 28.762 10.9476 28.8385 11.3682C28.914 11.7835 29.0421 12.1975 29.2708 12.5318C29.7516 13.2356 29.8958 14.2648 29.7759 15.3607C29.6569 16.4482 29.2866 17.5123 28.8453 18.2225L28.8149 18.2714M11.8801 12.3319L28.8149 18.2714M28.8149 18.2714L28.7965 18.3259M28.8149 18.2714L28.7965 18.3259M28.7965 18.3259C28.5579 19.03 28.0426 19.9983 27.5035 21.0113M28.7965 18.3259L27.5035 21.0113M27.5035 21.0113C27.3776 21.2479 27.2503 21.4869 27.1251 21.7256M27.5035 21.0113L27.1251 21.7256M27.1251 21.7256C26.8026 22.34 26.4961 22.9475 26.2829 23.4723M27.1251 21.7256L26.2829 23.4723M26.2829 23.4723C26.1762 23.7348 26.0877 23.9891 26.0329 24.2218M26.2829 23.4723L26.0329 24.2218M26.0329 24.2218C25.9802 24.4454 25.9473 24.6947 25.9925 24.9272L26.0329 24.2218Z" stroke="#222222" stroke-opacity="0.8" stroke-miterlimit="10"/>
</svg>
