<svg width="30" height="42" viewBox="0 0 30 42" fill="none" xmlns="http://www.w3.org/2000/svg">
<path d="M2.44141 38.276V1H27.5551V38.276" stroke="#222222" stroke-opacity="0.8" stroke-miterlimit="10"/>
<path fill-rule="evenodd" clip-rule="evenodd" d="M4.67969 18.9039L6.10383 18.499V23.7879L4.67969 23.2757V18.9039Z" fill="#222222" fill-opacity="0.8"/>
<path d="M29 38.2764H1V41.0002H29V38.2764Z" stroke="#222222" stroke-opacity="0.8" stroke-miterlimit="10"/>
<path d="M13.0925 4.27734H5.03906V12.2771H13.0925V4.27734Z" stroke="#222222" stroke-opacity="0.8" stroke-miterlimit="10"/>
<path d="M24.9597 4.27734H16.9062V12.2771H24.9597V4.27734Z" stroke="#222222" stroke-opacity="0.8" stroke-miterlimit="10"/>
<path d="M23.9998 22.3284H22.3402V20.5687L21.1403 19.3287H18.08L17.0399 20.3884V23.1488L18.0202 24.1487H22.1803L24.1998 26.2689V30.4086L22.1197 32.6084H17.0801L15 30.4086V27.8884H16.6605V29.6481L17.8808 30.8881H21.3411L22.3606 29.8284V26.8484L21.4009 25.8682H17.2399L15.2 23.7282V19.8082L17.2801 17.6084H21.9197L23.9998 19.8082V22.3284Z" fill="#222222" fill-opacity="0.8"/>
</svg>
