<svg width="30" height="42" viewBox="0 0 30 42" fill="none" xmlns="http://www.w3.org/2000/svg">
<path d="M2.44141 38.276V1H27.5551V38.276" stroke="#222222" stroke-opacity="0.8" stroke-miterlimit="10"/>
<path fill-rule="evenodd" clip-rule="evenodd" d="M4.67969 18.9039L6.10383 18.499V23.7879L4.67969 23.2757V18.9039Z" fill="#222222" fill-opacity="0.8"/>
<path d="M29 38.2764H1V41.0002H29V38.2764Z" stroke="#222222" stroke-opacity="0.8" stroke-miterlimit="10"/>
<path d="M13.0925 4.27734H5.03906V12.2771H13.0925V4.27734Z" stroke="#222222" stroke-opacity="0.8" stroke-miterlimit="10"/>
<path d="M24.9597 4.27734H16.9062V12.2771H24.9597V4.27734Z" stroke="#222222" stroke-opacity="0.8" stroke-miterlimit="10"/>
<path d="M8.60938 20.1015V18.6084H12.0498V20.1015H10.8486L13.2017 30.5558L15.5547 20.1015H14.8569V18.6084H18.3618V20.1015H17.6479L20.001 30.5548L22.354 20.1015H21.169V18.6084H24.6094V20.1015H23.8471L21.04 32.6084H19.0443L16.609 21.8006L14.1753 32.6084H12.1796L9.35552 20.1015H8.60938Z" fill="#222222" fill-opacity="0.8"/>
</svg>
