<svg width="60" height="34" viewBox="0 0 60 34" fill="none" xmlns="http://www.w3.org/2000/svg">
<path fill-rule="evenodd" clip-rule="evenodd" d="M9.41925 33H2.55379C1.65197 33 0.910156 32.2502 0.910156 31.3055V2.69447C0.910156 1.74977 1.63743 1 2.55379 1H9.41925C10.3211 1 11.0629 1.74977 11.0629 2.69447V31.3055C11.0483 32.2352 10.3211 33 9.41925 33Z" stroke="#222222" stroke-opacity="0.8" stroke-width="0.8" stroke-miterlimit="10" stroke-linecap="round" stroke-linejoin="round"/>
<path fill-rule="evenodd" clip-rule="evenodd" d="M17.2432 27.3775H12.6905C11.7887 27.3775 11.0469 26.6278 11.0469 25.6831V8.31849C11.0469 7.38878 11.7741 6.62402 12.6905 6.62402H17.2432C18.1451 6.62402 18.8869 7.37379 18.8869 8.31849V25.6831C18.8869 26.6128 18.1451 27.3775 17.2432 27.3775Z" stroke="#222222" stroke-opacity="0.8" stroke-width="0.8" stroke-miterlimit="10" stroke-linecap="round" stroke-linejoin="round"/>
<path fill-rule="evenodd" clip-rule="evenodd" d="M50.5811 1H57.4466C58.3484 1 59.0902 1.74977 59.0902 2.69447V31.3055C59.0902 32.2352 58.363 33 57.4466 33H50.5811C49.6793 33 48.9375 32.2502 48.9375 31.3055V2.69447C48.952 1.74977 49.6793 1 50.5811 1Z" stroke="#222222" stroke-opacity="0.8" stroke-width="0.8" stroke-miterlimit="10" stroke-linecap="round" stroke-linejoin="round"/>
<path fill-rule="evenodd" clip-rule="evenodd" d="M42.7569 6.62402H47.3096C48.2115 6.62402 48.9533 7.37379 48.9533 8.31849V25.6831C48.9533 26.6128 48.226 27.3775 47.3096 27.3775H42.7569C41.8551 27.3775 41.1133 26.6278 41.1133 25.6831V8.31849C41.1133 7.37379 41.8551 6.62402 42.7569 6.62402Z" stroke="#222222" stroke-opacity="0.8" stroke-width="0.8" stroke-miterlimit="10" stroke-linecap="round" stroke-linejoin="round"/>
<path d="M19.5 17H40.5" stroke="#222222" stroke-opacity="0.8" stroke-width="2" stroke-miterlimit="10" stroke-linecap="round" stroke-linejoin="round"/>
</svg>
