<svg width="42" height="33" viewBox="0 0 42 33" fill="none" xmlns="http://www.w3.org/2000/svg">
<path d="M4.07301 11.7747L4.07176 11.7758C3.61694 12.1528 3.05189 12.3168 2.50457 12.2759C1.95517 12.2351 1.41704 11.9895 1.02595 11.5428L1.00643 11.5205L0.998706 11.5092C0.625625 11.0696 0.464452 10.5214 0.50653 9.99238M4.07301 11.7747L12.2954 6.86199C15.1471 5.76824 18.0736 5.22312 21.003 5.24791M4.07301 11.7747C6.68451 9.59576 9.45347 7.95259 12.2953 6.86202L4.07301 11.7747ZM0.50653 9.99238C0.548962 9.45261 0.801086 8.9305 1.24912 8.55176L1.2527 8.54827L1.26737 8.53603C4.2561 6.04196 7.4516 4.14998 10.7624 2.88391L10.7625 2.88389C14.1005 1.6079 17.5546 0.971904 21.0375 1.00095L21.0375 1.00095C24.4709 1.03 27.9148 1.70797 31.2785 3.05132L31.2786 3.05137C34.5214 4.34758 37.6845 6.26404 40.6967 8.81462C40.7457 8.85092 40.7931 8.8921 40.8361 8.93705C41.2333 9.31343 41.4613 9.81032 41.4954 10.325C41.5294 10.8367 41.3741 11.3585 41.0305 11.785C40.9836 11.8499 40.9319 11.9044 40.8824 11.9495C40.4959 12.3362 39.9906 12.5539 39.4728 12.5867C38.9249 12.6233 38.3559 12.4513 37.9079 12.0689C35.2532 9.81069 32.4897 8.13282 29.6856 7.00478L29.6855 7.00472C26.8149 5.84894 23.8979 5.2727 21.003 5.24791M0.50653 9.99238C0.506522 9.99249 0.506513 9.99261 0.506504 9.99271L1.00497 10.0318L0.506552 9.99211C0.506545 9.9922 0.506537 9.99229 0.50653 9.99238ZM21.003 5.24791L21.0073 4.74793M21.003 5.24791L21.0073 4.74793M21.0073 4.74793C18.0121 4.72259 15.0235 5.28012 12.1163 6.39519L29.8722 6.5409C26.9454 5.36248 23.9666 4.77327 21.0073 4.74793ZM32.5939 17.6345C32.9292 17.9418 33.3589 18.0875 33.7854 18.0749C34.1956 18.0622 34.5993 17.9038 34.9118 17.6029L32.5939 17.6345ZM32.5939 17.6345C30.6959 15.8923 28.7751 14.5966 26.8575 13.7223L32.5939 17.6345ZM18.0671 30.8161L18.068 30.817C18.8221 31.5472 19.8572 32 21.0007 32C22.1406 32 23.1796 31.5474 23.9311 30.8161C24.6827 30.0848 25.1535 29.0709 25.1535 27.9457C25.1535 26.824 24.6829 25.8068 23.9311 25.0753C23.1797 24.3442 22.1441 23.8915 21.0007 23.8915C19.8572 23.8915 18.8221 24.3443 18.068 25.0745L18.0671 25.0753C17.3153 25.8068 16.8447 26.824 16.8447 27.9457C16.8447 29.0675 17.3153 30.0846 18.0671 30.8161ZM15.004 22.852L15.0047 22.8514C15.9929 22.0705 17.0072 21.4801 18.0311 21.0888L18.0327 21.0882C19.0385 20.6997 20.0427 20.5039 21.0348 20.5009C22.0183 20.4979 23.0153 20.6819 24.0188 21.0665L24.0193 21.0667C25.0115 21.4456 26.0122 22.0203 26.9986 22.8059L27.0008 22.8076C27.4662 23.174 28.0389 23.3201 28.5826 23.2672L28.5859 23.2669C29.1243 23.2109 29.6456 22.9608 30.023 22.5222L30.0282 22.5171L30.0451 22.4968C30.4239 22.0412 30.5782 21.4756 30.5226 20.935L30.5226 20.935L30.5222 20.9311C30.4625 20.392 30.1938 19.8693 29.7267 19.5011C28.375 18.4269 26.9662 17.6173 25.5292 17.0778L25.5292 17.0777C24.048 16.5216 22.5426 16.2506 21.0322 16.2539C19.5013 16.2572 17.9864 16.5447 16.5162 17.1037C15.0717 17.6509 13.6711 18.4567 12.337 19.5033C12.2948 19.5328 12.2488 19.5687 12.2034 19.6115C11.785 19.9746 11.5408 20.4685 11.4857 20.98C11.4305 21.4925 11.5652 22.0213 11.8984 22.462C11.9378 22.5196 11.9827 22.5723 12.0289 22.6186C12.4021 23.0255 12.9044 23.2584 13.4185 23.3112C13.9673 23.3687 14.5406 23.2168 15.004 22.852ZM8.13666 18.1558L8.1396 18.1559C8.64829 18.1841 9.17729 18.0377 9.61142 17.6997C9.662 17.6646 9.70492 17.627 9.73743 17.5961C11.6055 15.9913 13.5046 14.7893 15.4079 13.9938C17.2908 13.2131 19.1793 12.8328 21.0544 12.8633C22.9012 12.8937 24.7707 13.3229 26.6501 14.1772C28.5127 15.0265 30.3903 16.2904 32.2558 18.0029L32.2561 18.0032C32.6922 18.4028 33.2503 18.591 33.8003 18.5746L33.8009 18.5746C34.3293 18.5583 34.8528 18.3539 35.2587 17.963L35.2668 17.9552L35.2746 17.947L35.3102 17.9094C35.3108 17.9088 35.3114 17.9082 35.312 17.9076C35.7227 17.4822 35.9203 16.9329 35.9032 16.3866L35.9032 16.386C35.8862 15.8647 35.6773 15.3439 35.2703 14.9479L35.2632 14.9409L35.2557 14.9342L35.2172 14.8996C35.2165 14.899 35.2159 14.8985 35.2153 14.8979C32.9915 12.8598 30.705 11.3236 28.3807 10.282C25.9911 9.21039 23.5609 8.6619 21.1228 8.62273C18.6539 8.58036 16.207 9.06714 13.8119 10.0474L13.8114 10.0476C11.4234 11.0277 9.08626 12.503 6.83491 14.4427L6.83463 14.443C6.38554 14.8305 6.13658 15.3622 6.10229 15.9084L6.10217 15.9106C6.07234 16.4205 6.22949 16.9473 6.58504 17.3741C6.58525 17.3744 6.58547 17.3747 6.58569 17.375C6.6048 17.399 6.6449 17.4494 6.69946 17.4999C7.09208 17.9034 7.61015 18.1235 8.13666 18.1558Z" stroke="#222222" stroke-opacity="0.8"/>
</svg>
