<svg width="38" height="62" viewBox="0 0 38 62" fill="none" xmlns="http://www.w3.org/2000/svg">
<path d="M37.35 1C37.35 0.8067 37.1933 0.65 37 0.65H1C0.8067 0.65 0.65 0.8067 0.65 1V61C0.65 61.1933 0.8067 61.35 1 61.35H37C37.1933 61.35 37.35 61.1933 37.35 61V1Z" stroke="#222222" stroke-opacity="0.8" stroke-width="0.7" stroke-miterlimit="10" stroke-linecap="round" stroke-linejoin="round"/>
<path d="M30.5887 11.1406C30.5887 10.9473 30.432 10.7906 30.2387 10.7906H7.74609C7.55279 10.7906 7.39609 10.9473 7.39609 11.1406V50.8756C7.39609 51.0689 7.55279 51.2256 7.74609 51.2256H30.2387C30.432 51.2256 30.5887 51.0689 30.5887 50.8756V11.1406Z" stroke="#222222" stroke-opacity="0.8" stroke-width="0.7" stroke-miterlimit="10" stroke-linecap="round" stroke-linejoin="round"/>
<path d="M15.6133 11.1406V50.8606" stroke="#222222" stroke-opacity="0.8" stroke-width="0.7" stroke-miterlimit="10" stroke-linecap="round" stroke-linejoin="round"/>
<path d="M25.8838 22.8462C25.9495 22.9127 26.0392 22.9501 26.1327 22.9501C26.2262 22.9501 26.3159 22.9127 26.3816 22.8462L27.8495 21.3612C27.9843 21.2248 27.9843 21.0054 27.8495 20.8691L22.9121 15.8741C22.8464 15.8076 22.7569 15.7702 22.6634 15.7701C22.57 15.77 22.4804 15.8073 22.4146 15.8737L17.4624 20.8687C17.3268 21.0055 17.3272 21.2261 17.4633 21.3624L18.946 22.8474C19.0118 22.9134 19.1013 22.9503 19.1945 22.9501C19.2877 22.9499 19.377 22.9125 19.4426 22.8462L22.6632 19.588L25.8838 22.8462Z" stroke="#222222" stroke-opacity="0.8" stroke-width="0.7" stroke-linecap="round" stroke-linejoin="round"/>
<path d="M17.4633 36.557C17.3272 36.6933 17.3268 36.914 17.4624 37.0508L22.4146 42.0458C22.4804 42.1121 22.57 42.1494 22.6634 42.1493C22.7569 42.1493 22.8464 42.1118 22.9121 42.0454L27.8495 37.0504C27.9843 36.914 27.9843 36.6946 27.8495 36.5583L26.3816 35.0733C26.3159 35.0068 26.2262 34.9693 26.1327 34.9693C26.0392 34.9693 25.9495 35.0068 25.8838 35.0733L22.6632 38.3315L19.4426 35.0733C19.377 35.007 19.2877 34.9696 19.1945 34.9693C19.1013 34.9691 19.0118 35.0061 18.946 35.072L17.4633 36.557Z" stroke="#222222" stroke-opacity="0.8" stroke-width="0.7" stroke-linecap="round" stroke-linejoin="round"/>
<path d="M1.2914 0.806128C1.20593 0.677667 1.04643 0.620328 0.898732 0.66497C0.751038 0.709613 0.65 0.845706 0.65 1V61C0.65 61.1543 0.751038 61.2904 0.898732 61.335C1.04643 61.3797 1.20593 61.3223 1.2914 61.1939L7.93382 51.21H30.0662L36.7086 61.1939C36.7941 61.3223 36.9536 61.3797 37.1013 61.335C37.249 61.2904 37.35 61.1543 37.35 61V1C37.35 0.845706 37.249 0.709613 37.1013 0.66497C36.9536 0.620328 36.7941 0.677667 36.7086 0.806128L30.0662 10.79H7.93382L1.2914 0.806128Z" stroke="#222222" stroke-opacity="0.8" stroke-width="0.7" stroke-linecap="round" stroke-linejoin="round"/>
</svg>
