<svg width="42" height="42" viewBox="0 0 42 42" fill="none" xmlns="http://www.w3.org/2000/svg">
<path d="M24.8689 12.5627L24.8689 12.5626C25.4681 11.7821 26.413 11.0337 27.352 10.6703C28.2892 10.3072 29.099 10.5348 29.8273 11.0299L29.8274 11.03C30.1135 11.2246 30.395 11.4467 30.6587 11.6548C30.7732 11.7452 30.8843 11.8329 30.991 11.9145C31.3599 12.1968 31.7124 12.4378 32.1012 12.6058L32.1014 12.6059C32.138 12.6217 32.1997 12.6405 32.3047 12.6671C32.3261 12.6726 32.3497 12.6784 32.3749 12.6846C32.4564 12.7048 32.554 12.7291 32.6438 12.7556C32.7624 12.7907 32.9077 12.8407 33.0409 12.9192C33.1744 12.998 33.3375 13.13 33.4237 13.3464M24.8689 12.5627L31.622 15.9397M24.8689 12.5627C24.5742 12.9468 24.3257 13.4084 24.3155 13.8857C24.3101 14.136 24.371 14.3869 24.5192 14.6145C24.6652 14.8388 24.8778 15.0127 25.1341 15.1435C25.7367 15.4511 26.3391 15.7588 26.9415 16.0665L24.7044 15.0983L24.3181 14.9312L24.0875 15.2833C23.6866 15.8955 23.0788 16.2613 22.2696 16.4764C21.5 16.681 20.5836 16.7397 19.5582 16.7516L11.311 8.50125M24.8689 12.5627L11.311 8.50125M33.4237 13.3464L32.9592 13.5315L33.4236 13.3463C33.4236 13.3464 33.4237 13.3464 33.4237 13.3464ZM33.4237 13.3464C33.5019 13.5427 33.4787 13.7518 33.459 13.8731C33.4357 14.0174 33.393 14.168 33.3478 14.3032C33.2576 14.5728 33.1371 14.8407 33.0608 14.9829L33.0605 14.9835C32.7852 15.4955 32.3412 15.9217 31.622 15.9397M31.622 15.9397C31.5473 15.9416 31.476 15.9432 31.4077 15.9446M31.622 15.9397L31.4077 15.9446M30.2664 16.0828L30.2643 16.0839C29.8414 16.2841 29.5515 16.5353 29.3381 16.8224L29.1287 17.1041L28.9906 17.4715C28.8196 17.926 28.7346 18.4475 28.6661 19.0336C28.6491 19.1789 28.633 19.3295 28.6165 19.4834C28.5688 19.9301 28.5181 20.4053 28.433 20.8616C28.2284 21.9596 27.8062 23.0638 26.6784 23.8684L33.4988 30.6887C35.5795 28.0117 36.815 24.65 36.815 20.9998C36.815 12.2851 29.7136 5.18416 20.9984 5.18453L30.2664 16.0828ZM30.2664 16.0828C30.3806 16.0281 30.5397 15.9913 30.7768 15.9706M30.2664 16.0828L30.7768 15.9706M11.311 8.50125C13.985 6.42333 17.3463 5.18534 20.9983 5.18453L11.311 8.50125ZM13.2232 17.1513L8.0297 11.9532C6.23764 14.5166 5.185 17.6348 5.185 20.9998C5.185 29.7162 12.2839 36.815 21.0004 36.815C24.3656 36.815 27.4838 35.7623 30.0473 33.9702L26.6844 30.6074C26.6267 30.8604 26.5007 31.0982 26.3493 31.2849L26.1992 31.47H25.9609H23.5196H23.0567L23.021 31.0086C22.9697 30.3445 22.8962 29.6618 22.8213 28.9653C22.8116 28.8759 22.802 28.7863 22.7924 28.6966C22.7149 27.9737 22.6389 27.2386 22.59 26.5128L20.6058 24.5313C20.2424 24.4442 19.8627 24.316 19.4418 24.1553C19.2718 24.0907 19.0023 23.9572 18.709 23.8118C18.6592 23.7872 18.6088 23.7622 18.558 23.7372C18.1895 23.5553 17.7648 23.3495 17.3411 23.1734C16.9127 22.9953 16.5112 22.8588 16.1869 22.8031C16.0253 22.7753 15.9039 22.7715 15.8192 22.7821C15.8013 22.7843 15.7863 22.787 15.7738 22.7899C15.7723 22.8242 15.7718 22.8712 15.7726 22.9369C15.7729 22.9635 15.7734 22.9919 15.7739 23.0221C15.778 23.2489 15.7838 23.5747 15.7237 23.96C15.5887 24.8264 15.1357 25.9351 13.7862 27.2886L13.8223 29.2785C14.0805 29.2811 14.3268 29.3487 14.5262 29.5082C14.7306 29.6717 14.8348 29.8913 14.8765 30.1008C14.9549 30.4949 14.8301 30.916 14.6617 31.215L14.5183 31.4696H14.226H12.8358C12.7692 31.4696 12.7023 31.4703 12.6378 31.471C12.5091 31.4723 12.3903 31.4736 12.3043 31.4689L12.3036 31.4689C12.1972 31.4631 11.8985 31.447 11.7135 31.1853C11.6301 31.0672 11.6039 30.9444 11.5934 30.8636C11.5828 30.7828 11.5828 30.6999 11.5839 30.6328C11.5848 30.5825 11.5864 30.5333 11.588 30.4817C11.5915 30.3754 11.5953 30.2584 11.5937 30.0989C11.5937 30.0989 11.5937 30.0989 11.5937 30.0989L11.5712 28.029L11.4246 26.7561L11.4212 26.7265L11.4214 26.6967C11.4225 26.4488 11.4674 26.2093 11.5117 25.9931C11.5201 25.952 11.5285 25.9115 11.537 25.8712C11.575 25.6892 11.6119 25.5122 11.6392 25.3116C11.7029 24.8422 11.7116 24.246 11.4671 23.3964C11.4671 23.3964 11.4671 23.3963 11.4671 23.3963L11.9476 23.258C11.8698 22.9881 11.8107 22.7304 11.7559 22.4912L13.2232 17.1513ZM13.2232 17.1513C12.0114 17.4649 10.8665 18.0218 9.92741 19.0149C9.34142 19.6339 8.77733 20.7208 8.32105 21.7975C7.86429 22.8754 7.48632 24.0146 7.28177 24.827L6.98963 25.5389C6.9896 25.539 6.98956 25.5391 6.98952 25.5392C6.85381 25.8694 6.77784 26.2184 6.75439 26.5275C6.73269 26.8137 6.74938 27.1487 6.87761 27.4018C6.94446 27.5338 7.08755 27.7282 7.35142 27.7816C7.61354 27.8346 7.82561 27.7139 7.9505 27.6116C8.18833 27.4167 8.40014 27.0578 8.60515 26.5886C8.61442 26.5702 8.62505 26.5495 8.63656 26.5271C8.68251 26.4376 8.74263 26.3205 8.78754 26.2102L8.78755 26.2102L8.78902 26.2065C9.39811 24.6759 10.0775 23.3142 10.8028 21.8606C10.8472 21.7716 10.8918 21.6822 10.9365 21.5925L13.2232 17.1513ZM30.7768 15.9706C30.964 15.9542 31.1673 15.9498 31.4077 15.9446M30.7768 15.9706L31.4077 15.9446M41.5 20.9998C41.5 9.67907 32.3213 0.5 21 0.5C9.67917 0.5 0.5 9.67906 0.5 20.9998C0.5 32.3209 9.67916 41.5 20.9996 41.5C32.3213 41.5 41.5 32.3209 41.5 20.9998Z" stroke="#222222" stroke-opacity="0.8" stroke-miterlimit="10"/>
</svg>
