<svg width="38" height="41" viewBox="0 0 38 41" fill="none" xmlns="http://www.w3.org/2000/svg">
<path fill-rule="evenodd" clip-rule="evenodd" d="M8.94857 2.03105C8.94857 1.27291 9.49796 0.575195 10.2612 0.575195C10.6268 0.575195 10.9645 0.734039 11.2065 1.01554C11.4424 1.29 11.5739 1.65669 11.5739 2.03105V5.08367C11.5739 5.84181 11.0245 6.53952 10.2612 6.53952C9.4995 6.53952 8.94857 5.85345 8.94857 5.08367V2.03105ZM10.2612 1.1752C9.90371 1.1752 9.54857 1.52466 9.54857 2.03105V5.08367C9.54857 5.59818 9.90217 5.93952 10.2612 5.93952C10.6188 5.93952 10.9739 5.59006 10.9739 5.08367V2.03105C10.9739 1.7929 10.8892 1.56685 10.7515 1.40663C10.6198 1.25345 10.4463 1.1752 10.2612 1.1752ZM0 7.05892C0 5.38948 1.40985 4.06133 3.11274 4.06133H6.839H7.189V4.41133V5.53754C7.189 7.19782 8.61085 8.57514 10.3668 8.56618L10.3686 8.56618C12.1369 8.56618 13.5483 7.19688 13.5483 5.53754V4.41133V4.06133H13.8983H24.0152H24.3652V4.41133V5.53754C24.3652 7.18765 25.7773 8.56618 27.5448 8.56618C29.3131 8.56618 30.7244 7.19688 30.7244 5.53754V4.41133V4.06133H31.0744H34.8007C36.5036 4.06133 37.9134 5.38948 37.9134 7.05892V37.4271C37.9134 39.0966 36.5036 40.4247 34.8007 40.4247H3.11274C1.40985 40.4247 0 39.0966 0 37.4271V7.05892ZM3.11274 4.76133C1.76777 4.76133 0.7 5.80415 0.7 7.05892V37.4271C0.7 38.6819 1.76777 39.7247 3.11274 39.7247H34.8007C36.1457 39.7247 37.2135 38.6819 37.2135 37.4271V7.05892C37.2135 5.80415 36.1457 4.76133 34.8007 4.76133H31.4244V5.53754C31.4244 7.61249 29.67 9.26618 27.5448 9.26618C25.419 9.26618 23.6652 7.60196 23.6652 5.53754V4.76133H14.2483V5.53754C14.2483 7.61218 12.4943 9.26569 10.3696 9.26618C8.2522 9.27654 6.489 7.61127 6.489 5.53754V4.76133H3.11274ZM3.65 12.65H4H12H12.35V13V21V21.35H12H4H3.65V21V13V12.65ZM4.35 13.35V20.65H11.65V13.35H4.35ZM15 12.65H14.65V13V21V21.35H15H23H23.35V21V13V12.65H23H15ZM15.35 20.65V13.35H22.65V20.65H15.35ZM25.65 12.65H26H34H34.35V13V21V21.35H34H26H25.65V21V13V12.65ZM26.35 13.35V20.65H33.65V13.35H26.35ZM4 23.65H3.65V24V32V32.35H4H12H12.35V32V24V23.65H12H4ZM4.35 31.65V24.35H11.65V31.65H4.35ZM14.65 23.65H15H23H23.35V24V32V32.35H23H15H14.65V32V24V23.65ZM15.35 24.35V31.65H22.65V24.35H15.35ZM26 23.65H25.65V24V32V32.35H26H34H34.35V32V24V23.65H34H26ZM26.35 31.65V24.35H33.65V31.65H26.35ZM27.6129 0.575195C26.8496 0.575195 26.3002 1.27291 26.3002 2.03105V5.08367C26.3002 5.85345 26.8511 6.53952 27.6129 6.53952C28.3762 6.53952 28.9256 5.84181 28.9256 5.08367V2.03105C28.9256 1.65669 28.794 1.29 28.5581 1.01554L28.5582 1.01547L28.5531 1.00981C28.3065 0.737274 27.9828 0.575195 27.6129 0.575195ZM26.9002 2.03105C26.9002 1.52466 27.2553 1.1752 27.6129 1.1752C27.7925 1.1752 27.9595 1.24933 28.1055 1.4095C28.2418 1.56954 28.3256 1.79431 28.3256 2.03105V5.08367C28.3256 5.59006 27.9704 5.93952 27.6129 5.93952C27.2538 5.93952 26.9002 5.59818 26.9002 5.08367V2.03105Z" fill="#222222" fill-opacity="0.8"/>
</svg>
