<svg width="40" height="25" viewBox="0 0 40 25" fill="none" xmlns="http://www.w3.org/2000/svg">
<g clip-path="url(#clip0_2_10475)">
<path d="M7.51983 16.8199C9.75718 16.8199 11.5709 14.9321 11.5709 12.6033C11.5709 10.2746 9.75718 8.38672 7.51983 8.38672C5.28248 8.38672 3.46875 10.2746 3.46875 12.6033C3.46875 14.9321 5.28248 16.8199 7.51983 16.8199Z" stroke="#222222" stroke-opacity="0.8" stroke-width="0.5" stroke-miterlimit="10"/>
<path d="M7.51884 15.7048C9.16453 15.7048 10.4986 14.3162 10.4986 12.6032C10.4986 10.8903 9.16453 9.50171 7.51884 9.50171C5.87316 9.50171 4.53906 10.8903 4.53906 12.6032C4.53906 14.3162 5.87316 15.7048 7.51884 15.7048Z" stroke="#222222" stroke-opacity="0.8" stroke-width="0.5" stroke-miterlimit="10"/>
<path d="M11.621 18.5036C11.5855 18.8285 11.5713 19.1535 11.5713 19.4784V19.8624C10.4787 18.895 9.0598 18.3116 7.52025 18.3116C4.23539 18.3116 1.52521 20.9553 1.26271 24.3079H0.191406C0.312016 22.4691 1.05696 20.7559 2.32692 19.4341C3.71748 17.9867 5.5621 17.1965 7.52025 17.1965C9.00304 17.2039 10.422 17.6618 11.621 18.5036Z" stroke="#222222" stroke-opacity="0.8" stroke-width="0.5" stroke-miterlimit="10"/>
<path d="M32.4808 16.8199C34.7181 16.8199 36.5319 14.9321 36.5319 12.6033C36.5319 10.2746 34.7181 8.38672 32.4808 8.38672C30.2434 8.38672 28.4297 10.2746 28.4297 12.6033C28.4297 14.9321 30.2434 16.8199 32.4808 16.8199Z" stroke="#222222" stroke-opacity="0.8" stroke-width="0.5" stroke-miterlimit="10"/>
<path d="M32.4798 15.7048C34.1255 15.7048 35.4596 14.3162 35.4596 12.6032C35.4596 10.8903 34.1255 9.50171 32.4798 9.50171C30.8341 9.50171 29.5 10.8903 29.5 12.6032C29.5 14.3162 30.8341 15.7048 32.4798 15.7048Z" stroke="#222222" stroke-opacity="0.8" stroke-width="0.5" stroke-miterlimit="10"/>
<path d="M39.8084 24.3152H38.7371C38.4746 20.9626 35.7715 18.3189 32.4796 18.3189C30.8974 18.3189 29.4501 18.9319 28.3434 19.9435V19.4783C28.3434 19.1682 28.3292 18.8654 28.3008 18.5626C29.5211 17.6765 30.9684 17.2039 32.4867 17.2039C34.4519 17.2039 36.2965 18.0014 37.68 19.4414C38.9429 20.7632 39.6878 22.4765 39.8084 24.3152Z" stroke="#222222" stroke-opacity="0.8" stroke-width="0.5" stroke-miterlimit="10"/>
<path d="M19.9578 10.3141C22.5125 10.3141 24.5835 8.15846 24.5835 5.49934C24.5835 2.84022 22.5125 0.68457 19.9578 0.68457C17.4031 0.68457 15.332 2.84022 15.332 5.49934C15.332 8.15846 17.4031 10.3141 19.9578 10.3141Z" stroke="#222222" stroke-opacity="0.8" stroke-width="0.5" stroke-miterlimit="10"/>
<path d="M19.9562 9.04406C21.837 9.04406 23.3617 7.45709 23.3617 5.49945C23.3617 3.54181 21.837 1.95483 19.9562 1.95483C18.0755 1.95483 16.5508 3.54181 16.5508 5.49945C16.5508 7.45709 18.0755 9.04406 19.9562 9.04406Z" stroke="#222222" stroke-opacity="0.8" stroke-width="0.5" stroke-miterlimit="10"/>
<path d="M28.3422 19.4784V24.3153H27.1219V19.4784C27.1219 15.3651 23.908 12.0199 19.9563 12.0199C16.0045 12.0199 12.7906 15.3651 12.7906 19.4784V24.3153H11.5703V19.4784C11.5703 19.1534 11.5845 18.8211 11.62 18.5036C11.8257 16.5393 12.6629 14.7227 14.0251 13.3048C15.6072 11.6581 17.7143 10.7498 19.9563 10.7498C22.1982 10.7498 24.3053 11.6581 25.8874 13.3048C27.2638 14.7374 28.101 16.5762 28.2996 18.5553C28.328 18.8654 28.3422 19.1756 28.3422 19.4784Z" stroke="#222222" stroke-opacity="0.8" stroke-width="0.5" stroke-miterlimit="10"/>
</g>
<defs>
<clipPath id="clip0_2_10475">
<rect width="40" height="24" fill="white" transform="translate(0 0.5)"/>
</clipPath>
</defs>
</svg>
