<svg width="42" height="41" viewBox="0 0 42 41" fill="none" xmlns="http://www.w3.org/2000/svg">
<path d="M15.8498 13.3899H9.83984V36.9799H15.8498V13.3899Z" stroke="#222222" stroke-opacity="0.8" stroke-width="0.5" stroke-miterlimit="10"/>
<path d="M21.5789 36.98H4.87891V40.5H21.5789V36.98Z" stroke="#222222" stroke-opacity="0.8" stroke-width="0.5" stroke-miterlimit="10"/>
<path d="M40.9995 30.1899H25.7695V34.4899H40.9995V30.1899Z" stroke="#222222" stroke-opacity="0.8" stroke-width="0.5" stroke-miterlimit="10"/>
<path d="M33.3719 30.19H27.6719L30.5219 28.21L33.3719 26.23L36.2219 28.21L39.0819 30.19H33.3719Z" stroke="#222222" stroke-opacity="0.8" stroke-width="0.5" stroke-miterlimit="10"/>
<path d="M38.0306 13.3899H28.8906V16.5199H38.0306V13.3899Z" stroke="#222222" stroke-opacity="0.8" stroke-width="0.5" stroke-miterlimit="10"/>
<path d="M35.5305 16.52H31.2305V20.41H35.5305V16.52Z" stroke="#222222" stroke-opacity="0.8" stroke-width="0.5" stroke-miterlimit="10"/>
<path d="M33.9681 22.26V19.71H32.7981V22.26C33.2981 22.26 33.6981 22.65 33.7181 23.15C33.7181 23.29 33.7181 23.43 33.7081 23.57C33.6581 24.53 32.0781 24.24 32.0781 24.24V26.22H34.3281C35.4281 26.22 35.1781 25.49 35.1781 24.39C35.1781 23.29 35.4281 22.25 34.3281 22.25H33.9681V22.26Z" stroke="#222222" stroke-opacity="0.8" stroke-width="0.5" stroke-miterlimit="10"/>
<path d="M41 9.87988H1V13.3999H41V9.87988Z" stroke="#222222" stroke-opacity="0.8" stroke-width="0.5" stroke-miterlimit="10"/>
<path d="M15.8495 0.5H10.7695V9.88H15.8495V0.5Z" stroke="#222222" stroke-opacity="0.8" stroke-width="0.5" stroke-miterlimit="10"/>
<path d="M5.75 4.37988H1V6.75988H5.75V4.37988Z" stroke="#222222" stroke-opacity="0.8" stroke-width="0.5" stroke-miterlimit="10"/>
<path d="M9.23 6.76001H1V9.88001H9.23V6.76001Z" stroke="#222222" stroke-opacity="0.8" stroke-width="0.5" stroke-miterlimit="10"/>
<path d="M15.8398 1.38989L39.7398 9.87989H36.9698L15.8398 2.56989V1.38989Z" stroke="#222222" stroke-opacity="0.8" stroke-width="0.5" stroke-miterlimit="10"/>
<path d="M15.8398 32.9399L9.83984 35.4299" stroke="#222222" stroke-opacity="0.8" stroke-width="0.5" stroke-miterlimit="10"/>
<path d="M15.8398 30.3699L9.83984 32.8599" stroke="#222222" stroke-opacity="0.8" stroke-width="0.5" stroke-miterlimit="10"/>
<path d="M15.8398 27.7998L9.83984 30.2998" stroke="#222222" stroke-opacity="0.8" stroke-width="0.5" stroke-miterlimit="10"/>
<path d="M15.8398 25.24L9.83984 27.73" stroke="#222222" stroke-opacity="0.8" stroke-width="0.5" stroke-miterlimit="10"/>
<path d="M15.8398 22.6699L9.83984 25.1599" stroke="#222222" stroke-opacity="0.8" stroke-width="0.5" stroke-miterlimit="10"/>
<path d="M15.8398 20.0999L9.83984 22.5899" stroke="#222222" stroke-opacity="0.8" stroke-width="0.5" stroke-miterlimit="10"/>
<path d="M15.8398 17.5298L9.83984 20.0298" stroke="#222222" stroke-opacity="0.8" stroke-width="0.5" stroke-miterlimit="10"/>
<path d="M15.8398 14.97L9.83984 17.46" stroke="#222222" stroke-opacity="0.8" stroke-width="0.5" stroke-miterlimit="10"/>
<path d="M13.4598 13.3899L9.83984 14.8899" stroke="#222222" stroke-opacity="0.8" stroke-width="0.5" stroke-miterlimit="10"/>
<path d="M15.8405 35.49L12.2305 36.98" stroke="#222222" stroke-opacity="0.8" stroke-width="0.5" stroke-miterlimit="10"/>
<path d="M27.3095 30.1899L25.7695 31.7299L29.4795 30.2399L25.7695 33.3199L32.3295 30.1899L27.1695 34.4799L34.9595 30.1899L30.5695 34.4799L37.5795 30.1899L33.4595 34.4799L39.2995 30.1899L36.3195 34.4799L40.9995 31.2799L38.4395 34.4799L40.9995 33.2699" stroke="#222222" stroke-opacity="0.8" stroke-width="0.5" stroke-miterlimit="10" stroke-linecap="round" stroke-linejoin="round"/>
<path d="M39.4595 30.1899L40.9995 31.7299L37.2895 30.2399L40.9995 33.3199L34.4295 30.1899L39.5895 34.4799L31.8095 30.1899L36.1995 34.4799L29.1795 30.1899L33.2995 34.4799L27.4595 30.1899L30.4495 34.4799L25.7695 31.2799L28.3195 34.4799L25.7695 33.2699" stroke="#222222" stroke-opacity="0.8" stroke-width="0.5" stroke-miterlimit="10" stroke-linecap="round" stroke-linejoin="round"/>
</svg>
