<svg width="42" height="35" viewBox="0 0 42 35" fill="none" xmlns="http://www.w3.org/2000/svg">
<g clip-path="url(#clip0_1224_26819)">
<path fill-rule="evenodd" clip-rule="evenodd" d="M30.4391 10.1602C27.6191 10.7602 24.2391 11.1202 20.9791 11.2002C17.7191 11.1302 14.3591 10.7502 11.5391 10.1602C14.3491 9.5802 17.7291 9.2802 20.9891 9.2002C24.2591 9.2702 27.6391 9.5802 30.4391 10.1602Z" fill="#222222" fill-opacity="0.8"/>
<path fill-rule="evenodd" clip-rule="evenodd" d="M11.2577 9.61984C14.1577 9.01984 17.6377 8.70984 20.9977 8.63984C24.3577 8.71984 27.8277 9.02984 30.7377 9.62984V9.61984C32.0677 3.35984 45.3377 0.589844 20.9977 0.589844C-2.69226 0.589844 9.93775 3.35984 11.2577 9.59984V9.61984Z" fill="#222222" fill-opacity="0.8"/>
<path fill-rule="evenodd" clip-rule="evenodd" d="M41 34.1602H1L1.22 33.2602C3.89 21.5302 10.31 26.2002 15.87 22.3002C15.96 22.2302 16.04 22.1502 16.12 22.0702L16.19 20.5902C15.67 20.1102 15.28 19.6502 14.96 19.1802C14.46 18.4502 14.13 17.6702 13.74 16.6402C13.68 16.4702 13.62 16.2902 13.56 16.1302C12.98 16.1302 12.49 15.6502 12.14 14.9602C11.87 14.4302 11.69 13.7802 11.62 13.1702C11.55 12.5402 11.61 11.9502 11.83 11.5802L11.53 10.1602C14.35 10.7502 17.72 11.1402 20.97 11.2002C24.23 11.1202 27.61 10.7602 30.43 10.1602L30.13 11.5802C30.36 11.9502 30.41 12.5402 30.34 13.1702C30.27 13.7802 30.09 14.4302 29.82 14.9602C29.47 15.6402 28.98 16.1302 28.4 16.1302C28.09 17.0402 27.5 18.1802 26.84 19.1502C26.49 19.6602 26.13 20.1302 25.78 20.4902L25.85 22.0802C25.93 22.1602 26.02 22.2302 26.1 22.3102C31.66 26.2102 38.08 21.5502 40.75 33.2702L41 34.1602Z" stroke="#222222" stroke-opacity="0.8" stroke-width="0.5" stroke-miterlimit="10"/>
<path fill-rule="evenodd" clip-rule="evenodd" d="M24.2888 21.09C23.1088 21.88 22.3888 22.31 20.8688 22.27C19.3888 22.25 18.6088 21.75 17.4188 21C17.3288 25.95 24.4088 26.25 24.2888 21.09Z" stroke="#222222" stroke-opacity="0.8" stroke-width="0.4208" stroke-miterlimit="10"/>
<path fill-rule="evenodd" clip-rule="evenodd" d="M7.27844 30.2598L7.51844 30.8498L8.15844 30.8998L7.66844 31.3098L7.81844 31.9398L7.27844 31.5998L6.72844 31.9398L6.88844 31.3098L6.39844 30.8998L7.03844 30.8498L7.27844 30.2598Z" fill="#222222" fill-opacity="0.8"/>
<path fill-rule="evenodd" clip-rule="evenodd" d="M10.2511 30.2598L10.4911 30.8498L11.1311 30.8998L10.6511 31.3098L10.8011 31.9398L10.2511 31.5998L9.71109 31.9398L9.86109 31.3098L9.37109 30.8998L10.0111 30.8498L10.2511 30.2598Z" fill="#222222" fill-opacity="0.8"/>
</g>
<defs>
<clipPath id="clip0_1224_26819">
<rect width="40.64" height="33.82" fill="white" transform="translate(0.679688 0.589844)"/>
</clipPath>
</defs>
</svg>
