<svg width="32" height="57" viewBox="0 0 32 57" fill="none" xmlns="http://www.w3.org/2000/svg">
<path d="M16.8741 12.7732L16.3855 10.4234L15.8951 12.7728C15.6512 13.9415 15.1655 14.8225 14.7146 15.5968C14.6866 15.6449 14.6586 15.6929 14.6305 15.7409C14.4371 16.0717 14.2452 16.3999 14.0995 16.7135C13.9306 17.0767 13.8008 17.4659 13.8008 17.8821C13.8008 18.5656 13.9407 19.3052 14.3455 19.8887C14.7691 20.4995 15.4473 20.8856 16.3846 20.8856C17.3216 20.8856 17.9998 20.4994 18.4235 19.8887C18.8282 19.3053 18.9683 18.5656 18.9683 17.8821C18.9683 17.4652 18.8384 17.0758 18.6693 16.7123C18.5234 16.3987 18.3314 16.0706 18.138 15.74C18.1099 15.692 18.0817 15.6438 18.0536 15.5957C17.6025 14.8217 17.117 13.9415 16.8741 12.7732Z" stroke="#222222" stroke-opacity="0.8" stroke-miterlimit="10"/>
<path d="M21.4967 6.16962L21.0055 3.60463L20.5146 6.16969C20.2695 7.45039 19.7794 8.41405 19.3282 9.25442C19.2999 9.30715 19.2715 9.35978 19.2432 9.41229C19.0497 9.77118 18.8593 10.1243 18.7148 10.4616C18.5471 10.8527 18.4219 11.2636 18.4219 11.6989C18.4219 12.4293 18.5597 13.216 18.9562 13.8366C19.3719 14.4873 20.0502 14.9167 21.0056 14.9167C21.9611 14.9167 22.6395 14.4871 23.0551 13.8364C23.4516 13.2158 23.5894 12.4291 23.5894 11.6989C23.5894 11.2637 23.4643 10.8528 23.2966 10.4616C23.152 10.1243 22.9616 9.77103 22.7681 9.41204C22.7398 9.35962 22.7115 9.30708 22.6833 9.25444C22.2321 8.41405 21.742 7.45037 21.4967 6.16962Z" stroke="#222222" stroke-opacity="0.8" stroke-miterlimit="10"/>
<path d="M14.0307 3.55236L14.5199 5.89791C14.6902 6.71435 15.0296 7.33124 15.3528 7.88597C15.3726 7.91996 15.3926 7.9541 15.4126 7.98835C15.5515 8.22577 15.6935 8.46848 15.8016 8.70093C15.9272 8.97112 16.0296 9.27269 16.0296 9.60148C16.0296 10.1092 15.9258 10.6729 15.6121 11.1244C15.2796 11.6029 14.7477 11.9009 14.0304 11.9009C13.3127 11.9009 12.7809 11.6019 12.4486 11.1232C12.1352 10.6717 12.0313 10.1084 12.0313 9.6017L14.0307 3.55236ZM14.0307 3.55236L13.541 5.89781M14.0307 3.55236L13.541 5.89781M13.541 5.89781C13.3705 6.71428 13.031 7.33119 12.7078 7.88597M13.541 5.89781L12.7078 7.88597M12.7078 7.88597C12.6881 7.91979 12.6682 7.95377 12.6482 7.98786M12.7078 7.88597L12.6482 7.98786M12.6482 7.98786C12.5092 8.22545 12.3671 8.46836 12.259 8.70101M12.6482 7.98786L12.259 8.70101M12.259 8.70101C12.1335 8.97118 12.0311 9.27272 12.0313 9.60148L12.259 8.70101Z" stroke="#222222" stroke-opacity="0.8" stroke-miterlimit="10"/>
<path d="M18.8556 35.0017L19.2219 31.0723L13.5148 26.4219L13.1484 30.3513L18.8556 35.0017Z" stroke="#222222" stroke-opacity="0.8" stroke-miterlimit="10"/>
<path d="M13.5149 26.4224L7.80774 21.7725L7.44141 25.7019L13.1485 30.3519L13.5149 26.4224Z" stroke="#222222" stroke-opacity="0.8" stroke-miterlimit="10"/>
<path d="M2.46619 13.1924L1.36719 24.9811L7.0739 29.631L7.44024 25.7016L1.73352 21.0516L7.44024 25.7016L7.80657 21.7722L2.09985 17.1218L7.80657 21.7722L8.1729 17.8424L7.80657 21.7722L13.5137 26.4222L13.88 22.4927L13.5137 26.4222L19.2208 31.0726L19.5871 27.1427L19.2208 31.0726L24.9275 35.7225L25.2939 31.7931L24.9275 35.7225L30.6347 40.3725L31.001 36.4431L2.46619 13.1924Z" stroke="#222222" stroke-opacity="0.8" stroke-miterlimit="10"/>
<path d="M13.1437 30.3516L12.7773 34.2814L18.4841 38.9314L18.8508 35.002L13.1437 30.3516Z" stroke="#222222" stroke-opacity="0.8" stroke-miterlimit="10"/>
<path d="M18.4844 38.9314L24.1915 43.5818L24.5578 39.6519L18.8511 35.002L18.4844 38.9314Z" stroke="#222222" stroke-opacity="0.8" stroke-miterlimit="10"/>
<path d="M24.5661 39.6526L24.9324 35.7232L19.2257 31.0732L18.8594 35.0027L24.5661 39.6526Z" stroke="#222222" stroke-opacity="0.8" stroke-miterlimit="10"/>
<path d="M18.4869 38.9308L18.1206 42.8606L18.4869 38.9308ZM18.4869 38.9308L12.7802 34.2808L12.4138 38.2103L12.7802 34.2808L7.07305 29.6304L6.70671 33.5603L7.07305 29.6304L1.36633 24.9805L1 28.9099L13.4716 39.0724L14.0856 39.5668V39.5723L23.8277 47.5106L24.194 43.5812L18.4869 38.9308Z" stroke="#222222" stroke-opacity="0.8" stroke-miterlimit="10"/>
<path d="M24.5608 39.6521L30.2679 44.3025L24.5608 39.6521ZM24.5608 39.6521L24.1945 43.5819L29.9016 48.2319L24.1945 43.5819L23.8281 47.5113L29.5352 52.1613L30.6342 40.3726L24.9271 35.7227L24.5608 39.6521Z" stroke="#222222" stroke-opacity="0.8" stroke-miterlimit="10"/>
<path d="M13.1438 30.3521L7.43665 25.7021L7.07031 29.6316L12.7774 34.282L13.1438 30.3521Z" stroke="#222222" stroke-opacity="0.8" stroke-miterlimit="10"/>
<path d="M11.7969 37.7217V53.5974H14.0875V39.5723L13.4735 39.0723L11.7969 37.7217Z" stroke="#222222" stroke-opacity="0.8" stroke-miterlimit="10"/>
<path d="M13.4688 39.0732L14.0827 39.5732V39.5677L13.4688 39.0732Z" stroke="#222222" stroke-opacity="0.8" stroke-miterlimit="10"/>
<path d="M6.50391 53.5986V55.9995H19.3831V53.5986H14.0888H11.7982H6.50391Z" stroke="#222222" stroke-opacity="0.8" stroke-miterlimit="10"/>
</svg>
