<svg width="34" height="44" viewBox="0 0 34 44" fill="none" xmlns="http://www.w3.org/2000/svg">
<path d="M9 1H1V21H9V1Z" stroke="#222222" stroke-opacity="0.8" stroke-width="0.8" stroke-miterlimit="10"/>
<path d="M11.3882 5.97276H7.24967C6.99294 5.37007 6.31517 4.95001 5.54498 5.0048C4.72344 5.06872 4.05594 5.66228 4.0046 6.39282C3.93271 7.26946 4.71317 8 5.67848 8C6.39732 8 7.01348 7.5982 7.24967 7.03204H11.3984C11.7579 7.03204 12.0454 6.74896 11.994 6.41108C11.953 6.15539 11.686 5.97276 11.3882 5.97276Z" stroke="#222222" stroke-opacity="0.8" stroke-width="0.8" stroke-miterlimit="10"/>
<path d="M31.2987 27.6534C29.6131 30.2379 27.2738 31.3058 26.4157 31.6476C25.8743 31.8184 23.6065 32.6194 22.5033 34.8835C21.2774 37.3932 21.9925 40.6825 24.3727 42.9359C17.7736 42.9573 11.1745 42.9786 4.57537 43L8.23245 34.6913L1 21H32.9638C32.9638 21.032 32.974 21.0748 32.974 21.1175C33.0455 22.1214 33.0966 24.8981 31.2987 27.6534Z" stroke="#222222" stroke-opacity="0.8" stroke-width="0.8" stroke-miterlimit="10"/>
<path d="M33 20.5898C33 20.7265 32.9897 20.8633 32.9692 21C32.9692 20.9658 32.9589 20.9316 32.9589 20.906H9V18.1112C9.02054 18.0941 9.05135 18.0685 9.07189 18.0514C9.85237 17.4018 10.941 17.0001 12.1322 17.0001H28.6765C31.0693 16.983 33 18.5984 33 20.5898Z" stroke="#222222" stroke-opacity="0.8" stroke-width="0.8" stroke-miterlimit="10"/>
</svg>
