<svg width="41" height="20" viewBox="0 0 41 20" fill="none" xmlns="http://www.w3.org/2000/svg">
<line y1="0.630273" x2="40" y2="0.630273" stroke="#222222" stroke-opacity="0.6" stroke-width="0.8"/>
<line y1="4.14395" x2="40" y2="4.14395" stroke="#222222" stroke-opacity="0.6" stroke-width="0.8"/>
<line x1="0.4" y1="0.955078" x2="0.4" y2="4.54386" stroke="#222222" stroke-opacity="0.6" stroke-width="0.8"/>
<line x1="7.05234" y1="0.955078" x2="7.05234" y2="4.54386" stroke="#222222" stroke-opacity="0.6" stroke-width="0.8"/>
<line x1="3.61484" y1="4.54395" x2="3.61484" y2="8.13273" stroke="#222222" stroke-opacity="0.6" stroke-width="0.8"/>
<line x1="3.61484" y1="11.7959" x2="3.61484" y2="15.3847" stroke="#222222" stroke-opacity="0.6" stroke-width="0.8"/>
<line x1="10.4195" y1="4.54395" x2="10.4195" y2="8.13273" stroke="#222222" stroke-opacity="0.6" stroke-width="0.8"/>
<line x1="10.4195" y1="11.7959" x2="10.4195" y2="15.3847" stroke="#222222" stroke-opacity="0.6" stroke-width="0.8"/>
<line x1="17.2242" y1="4.54395" x2="17.2242" y2="8.13273" stroke="#222222" stroke-opacity="0.6" stroke-width="0.8"/>
<line x1="17.2242" y1="11.7959" x2="17.2242" y2="15.3847" stroke="#222222" stroke-opacity="0.6" stroke-width="0.8"/>
<line x1="24.025" y1="4.54395" x2="24.025" y2="8.13273" stroke="#222222" stroke-opacity="0.6" stroke-width="0.8"/>
<line x1="24.025" y1="11.7959" x2="24.025" y2="15.3847" stroke="#222222" stroke-opacity="0.6" stroke-width="0.8"/>
<line x1="30.8297" y1="4.54395" x2="30.8297" y2="8.13273" stroke="#222222" stroke-opacity="0.6" stroke-width="0.8"/>
<line x1="30.8297" y1="11.7959" x2="30.8297" y2="15.3847" stroke="#222222" stroke-opacity="0.6" stroke-width="0.8"/>
<line x1="37.6344" y1="4.54395" x2="37.6344" y2="8.13273" stroke="#222222" stroke-opacity="0.6" stroke-width="0.8"/>
<line x1="37.6344" y1="11.7959" x2="37.6344" y2="15.3847" stroke="#222222" stroke-opacity="0.6" stroke-width="0.8"/>
<line x1="13.7086" y1="0.955078" x2="13.7086" y2="4.54386" stroke="#222222" stroke-opacity="0.6" stroke-width="0.8"/>
<line x1="20.3609" y1="0.955078" x2="20.3609" y2="4.54386" stroke="#222222" stroke-opacity="0.6" stroke-width="0.8"/>
<line x1="27.0172" y1="0.955078" x2="27.0172" y2="4.54386" stroke="#222222" stroke-opacity="0.6" stroke-width="0.8"/>
<line x1="33.6695" y1="0.955078" x2="33.6695" y2="4.54386" stroke="#222222" stroke-opacity="0.6" stroke-width="0.8"/>
<line x1="40.3258" y1="0.955078" x2="40.3258" y2="4.54386" stroke="#222222" stroke-opacity="0.6" stroke-width="0.8"/>
<line y1="7.88516" x2="40" y2="7.88516" stroke="#222222" stroke-opacity="0.6" stroke-width="0.8"/>
<line y1="11.3988" x2="40" y2="11.3988" stroke="#222222" stroke-opacity="0.6" stroke-width="0.8"/>
<line x1="0.4" y1="8.20996" x2="0.4" y2="11.7987" stroke="#222222" stroke-opacity="0.6" stroke-width="0.8"/>
<line x1="7.05234" y1="8.20996" x2="7.05234" y2="11.7987" stroke="#222222" stroke-opacity="0.6" stroke-width="0.8"/>
<line x1="13.7086" y1="8.20996" x2="13.7086" y2="11.7987" stroke="#222222" stroke-opacity="0.6" stroke-width="0.8"/>
<line x1="20.3609" y1="8.20996" x2="20.3609" y2="11.7987" stroke="#222222" stroke-opacity="0.6" stroke-width="0.8"/>
<line x1="27.0172" y1="8.20996" x2="27.0172" y2="11.7987" stroke="#222222" stroke-opacity="0.6" stroke-width="0.8"/>
<line x1="33.6695" y1="8.20996" x2="33.6695" y2="11.7987" stroke="#222222" stroke-opacity="0.6" stroke-width="0.8"/>
<line x1="40.3258" y1="8.20996" x2="40.3258" y2="11.7987" stroke="#222222" stroke-opacity="0.6" stroke-width="0.8"/>
<line y1="15.1322" x2="40" y2="15.1322" stroke="#222222" stroke-opacity="0.6" stroke-width="0.8"/>
<line y1="18.6459" x2="40" y2="18.6459" stroke="#222222" stroke-opacity="0.6" stroke-width="0.8"/>
<line x1="0.4" y1="15.457" x2="0.4" y2="19.0458" stroke="#222222" stroke-opacity="0.6" stroke-width="0.8"/>
<line x1="7.05234" y1="15.457" x2="7.05234" y2="19.0458" stroke="#222222" stroke-opacity="0.6" stroke-width="0.8"/>
<line x1="13.7086" y1="15.457" x2="13.7086" y2="19.0458" stroke="#222222" stroke-opacity="0.6" stroke-width="0.8"/>
<line x1="20.3609" y1="15.457" x2="20.3609" y2="19.0458" stroke="#222222" stroke-opacity="0.6" stroke-width="0.8"/>
<line x1="27.0172" y1="15.457" x2="27.0172" y2="19.0458" stroke="#222222" stroke-opacity="0.6" stroke-width="0.8"/>
<line x1="33.6695" y1="15.457" x2="33.6695" y2="19.0458" stroke="#222222" stroke-opacity="0.6" stroke-width="0.8"/>
<line x1="40.3258" y1="15.457" x2="40.3258" y2="19.0458" stroke="#222222" stroke-opacity="0.6" stroke-width="0.8"/>
</svg>
