<svg width="18" height="18" viewBox="0 0 18 18" fill="none" xmlns="http://www.w3.org/2000/svg">
<path d="M14.0835 11.3926L16.7314 14.0406C16.8164 14.1251 16.8838 14.2256 16.9298 14.3363C16.9758 14.447 16.9995 14.5657 16.9995 14.6856C16.9995 14.8054 16.9758 14.9241 16.9298 15.0348C16.8838 15.1455 16.8164 15.246 16.7314 15.3306C15.8003 16.2619 14.5644 16.826 13.2508 16.9194C11.9371 17.0127 10.6339 16.6289 9.58045 15.8386L8.00545 14.6566C6.26192 13.3489 4.7131 11.8001 3.40545 10.0566L2.22345 8.48157C1.4331 7.42813 1.04934 6.1249 1.14266 4.81125C1.23598 3.49759 1.80012 2.26171 2.73145 1.33057C2.81601 1.24561 2.91652 1.17819 3.02721 1.13219C3.13789 1.08618 3.25658 1.0625 3.37645 1.0625C3.49632 1.0625 3.615 1.08618 3.72569 1.13219C3.83638 1.17819 3.93689 1.24561 4.02145 1.33057L6.66945 3.97857C6.85692 4.1661 6.96224 4.42041 6.96224 4.68557C6.96224 4.95073 6.85692 5.20504 6.66945 5.39257L5.64845 6.41357C5.56876 6.49246 5.51614 6.5946 5.49817 6.70529C5.48021 6.81598 5.49781 6.92952 5.54845 7.02957C6.73487 9.40283 8.65919 11.3271 11.0324 12.5136C11.1325 12.5642 11.246 12.5818 11.3567 12.5638C11.4674 12.5459 11.5696 12.4933 11.6484 12.4136L12.6684 11.3936C12.7613 11.3006 12.8716 11.2268 12.993 11.1765C13.1144 11.1262 13.2445 11.1003 13.3759 11.1003C13.5074 11.1003 13.6375 11.1262 13.7589 11.1765C13.8803 11.2268 13.9906 11.3006 14.0835 11.3936V11.3926Z" stroke="white" stroke-width="1.5" stroke-linejoin="round"/>
</svg>
