<svg width="25" height="24" viewBox="0 0 25 24" fill="none" xmlns="http://www.w3.org/2000/svg">
<path d="M12.1289 15.575C11.9956 15.575 11.8706 15.5543 11.7539 15.513C11.6372 15.4717 11.5289 15.4007 11.4289 15.3L7.82891 11.7C7.62891 11.5 7.53291 11.2667 7.54091 11C7.54891 10.7333 7.64491 10.5 7.82891 10.3C8.02891 10.1 8.26657 9.996 8.54191 9.988C8.81724 9.98 9.05457 10.0757 9.25391 10.275L11.1289 12.15V5C11.1289 4.71667 11.2249 4.47934 11.4169 4.288C11.6089 4.09667 11.8462 4.00067 12.1289 4C12.4116 3.99934 12.6492 4.09534 12.8419 4.288C13.0346 4.48067 13.1302 4.718 13.1289 5V12.15L15.0039 10.275C15.2039 10.075 15.4416 9.979 15.7169 9.987C15.9922 9.995 16.2296 10.0993 16.4289 10.3C16.6122 10.5 16.7082 10.7333 16.7169 11C16.7256 11.2667 16.6296 11.5 16.4289 11.7L12.8289 15.3C12.7289 15.4 12.6206 15.471 12.5039 15.513C12.3872 15.555 12.2622 15.5757 12.1289 15.575ZM6.12891 20C5.57891 20 5.10824 19.8043 4.71691 19.413C4.32557 19.0217 4.12957 18.5507 4.12891 18V16C4.12891 15.7167 4.22491 15.4793 4.41691 15.288C4.60891 15.0967 4.84624 15.0007 5.12891 15C5.41157 14.9993 5.64924 15.0953 5.84191 15.288C6.03457 15.4807 6.13024 15.718 6.12891 16V18H18.1289V16C18.1289 15.7167 18.2249 15.4793 18.4169 15.288C18.6089 15.0967 18.8462 15.0007 19.1289 15C19.4116 14.9993 19.6492 15.0953 19.8419 15.288C20.0346 15.4807 20.1302 15.718 20.1289 16V18C20.1289 18.55 19.9332 19.021 19.5419 19.413C19.1506 19.805 18.6796 20.0007 18.1289 20H6.12891Z" fill="white"/>
</svg>
