<svg width="40" height="36" viewBox="0 0 40 36" fill="none" xmlns="http://www.w3.org/2000/svg">
<path fill-rule="evenodd" clip-rule="evenodd" d="M12.0291 1.01036C12.1717 0.621468 11.972 0.190607 11.5832 0.0480045C11.1943 -0.0945975 10.7634 0.105061 10.6208 0.493953L0.106975 29.1664C-0.035627 29.5553 0.164031 29.9862 0.552924 30.1288C0.941817 30.2714 1.37268 30.0717 1.51528 29.6828L12.0291 1.01036ZM28.2372 0.702053C28.0784 0.319485 27.6395 0.138076 27.257 0.296865C26.8744 0.455655 26.693 0.894512 26.8518 1.27708L38.5572 29.4789C38.716 29.8614 39.1549 30.0429 39.5375 29.8841C39.92 29.7253 40.1014 29.2864 39.9426 28.9039L28.2372 0.702053ZM19.2112 0.86433C19.6254 0.86433 19.9612 1.20012 19.9612 1.61433V4.64651C19.9612 5.06073 19.6254 5.39651 19.2112 5.39651C18.797 5.39651 18.4612 5.06073 18.4612 4.64651V1.61433C18.4612 1.20012 18.797 0.86433 19.2112 0.86433ZM19.9612 6.879C19.9612 6.46479 19.6254 6.129 19.2112 6.129C18.797 6.129 18.4612 6.46479 18.4612 6.879V10.6276C18.4612 11.0418 18.797 11.3776 19.2112 11.3776C19.6254 11.3776 19.9612 11.0418 19.9612 10.6276V6.879ZM19.2112 13.1805C19.6254 13.1805 19.9612 13.5163 19.9612 13.9305V19.3743C19.9612 19.7885 19.6254 20.1243 19.2112 20.1243C18.797 20.1243 18.4612 19.7885 18.4612 19.3743V13.9305C18.4612 13.5163 18.797 13.1805 19.2112 13.1805ZM19.9612 22.9437C19.9612 22.5295 19.6254 22.1937 19.2112 22.1937C18.797 22.1937 18.4612 22.5295 18.4612 22.9437V29.1914C18.4612 29.6056 18.797 29.9414 19.2112 29.9414C19.6254 29.9414 19.9612 29.6056 19.9612 29.1914V22.9437ZM6.71354 31.8609L8.23396 29.2247L0 32.6109L8.23396 35.9971L6.71354 33.3609H14.4281C14.8423 33.3609 15.1781 33.0251 15.1781 32.6109C15.1781 32.1967 14.8423 31.8609 14.4281 31.8609H6.71354ZM24.0719 32.6109C24.0719 32.1967 24.4077 31.8609 24.8219 31.8609H32.5364L31.016 29.2247L39.2499 32.6109L31.016 35.9971L32.5364 33.3609H24.8219C24.4077 33.3609 24.0719 33.0251 24.0719 32.6109Z" fill="#222222" fill-opacity="0.5"/>
</svg>
