<svg width="32" height="29" viewBox="0 0 32 29" fill="none" xmlns="http://www.w3.org/2000/svg">
<path fill-rule="evenodd" clip-rule="evenodd" d="M9.62326 0.812437C9.73734 0.499121 9.57758 0.151992 9.26654 0.0371019C8.95542 -0.0777874 8.6107 0.0830703 8.49662 0.396387L0.0855798 23.4968C-0.0285015 23.8101 0.131224 24.1572 0.442338 24.2721C0.753452 24.387 1.09814 24.2261 1.21222 23.9128L9.62326 0.812437ZM22.5897 0.564045C22.4627 0.255824 22.1115 0.109669 21.8055 0.2376C21.4995 0.365531 21.3543 0.719103 21.4814 1.02732L30.8457 23.7485C30.9727 24.0567 31.3238 24.2029 31.6299 24.075C31.9359 23.947 32.081 23.5934 31.954 23.2853L22.5897 0.564045ZM15.3689 0.694786C15.7003 0.694786 15.9689 0.96532 15.9689 1.29903V3.74195C15.9689 4.07568 15.7003 4.3462 15.3689 4.3462C15.0376 4.3462 14.7689 4.07568 14.7689 3.74195V1.29903C14.7689 0.96532 15.0376 0.694786 15.3689 0.694786ZM15.9689 5.54059C15.9689 5.20688 15.7003 4.93634 15.3689 4.93634C15.0376 4.93634 14.7689 5.20688 14.7689 5.54059V8.5607C14.7689 8.89441 15.0376 9.16495 15.3689 9.16495C15.7003 9.16495 15.9689 8.89441 15.9689 8.5607V5.54059ZM15.3689 10.6175C15.7003 10.6175 15.9689 10.888 15.9689 11.2217V15.6076C15.9689 15.9413 15.7003 16.2119 15.3689 16.2119C15.0376 16.2119 14.7689 15.9413 14.7689 15.6076V11.2217C14.7689 10.888 15.0376 10.6175 15.3689 10.6175ZM15.9689 18.4833C15.9689 18.1496 15.7003 17.8791 15.3689 17.8791C15.0376 17.8791 14.7689 18.1496 14.7689 18.4833V23.5169C14.7689 23.8506 15.0376 24.1211 15.3689 24.1211C15.7003 24.1211 15.9689 23.8506 15.9689 23.5169V18.4833ZM5.37082 25.6676L6.58715 23.5437L0 26.2719L6.58715 29L5.37082 26.8761H11.5424C11.8738 26.8761 12.1424 26.6056 12.1424 26.2719C12.1424 25.9382 11.8738 25.6676 11.5424 25.6676H5.37082ZM19.2575 26.2719C19.2575 25.9382 19.5261 25.6676 19.8575 25.6676H26.0291L24.8127 23.5437L31.3998 26.2719L24.8127 29L26.0291 26.8761H19.8575C19.5261 26.8761 19.2575 26.6056 19.2575 26.2719Z" fill="#FC6600"/>
</svg>
