<svg width="38" height="40" viewBox="0 0 38 40" fill="none" xmlns="http://www.w3.org/2000/svg">
<path fill-rule="evenodd" clip-rule="evenodd" d="M8.94857 1.53105C8.94857 0.772911 9.49796 0.0751953 10.2612 0.0751953C10.6268 0.0751953 10.9645 0.234039 11.2065 0.515536C11.4424 0.789999 11.5739 1.15669 11.5739 1.53105V4.58367C11.5739 5.34181 11.0245 6.03952 10.2612 6.03952C9.4995 6.03952 8.94857 5.35345 8.94857 4.58367V1.53105ZM10.2612 0.675195C9.90371 0.675195 9.54857 1.02466 9.54857 1.53105V4.58367C9.54857 5.09818 9.90217 5.43952 10.2612 5.43952C10.6188 5.43952 10.9739 5.09006 10.9739 4.58367V1.53105C10.9739 1.2929 10.8892 1.06685 10.7515 0.906631C10.6198 0.753449 10.4463 0.675195 10.2612 0.675195ZM0 6.55892C0 4.88948 1.40985 3.56133 3.11274 3.56133H6.839H7.189V3.91133V5.03754C7.189 6.69782 8.61085 8.07514 10.3668 8.06618L10.3686 8.06618C12.1369 8.06618 13.5483 6.69688 13.5483 5.03754V3.91133V3.56133H13.8983H24.0152H24.3652V3.91133V5.03754C24.3652 6.68765 25.7773 8.06618 27.5448 8.06618C29.3131 8.06618 30.7244 6.69688 30.7244 5.03754V3.91133V3.56133H31.0744H34.8007C36.5036 3.56133 37.9134 4.88948 37.9134 6.55892V36.9271C37.9134 38.5966 36.5036 39.9247 34.8007 39.9247H3.11274C1.40985 39.9247 0 38.5966 0 36.9271V6.55892ZM3.11274 4.26133C1.76777 4.26133 0.7 5.30415 0.7 6.55892V36.9271C0.7 38.1819 1.76777 39.2247 3.11274 39.2247H34.8007C36.1457 39.2247 37.2135 38.1819 37.2135 36.9271V6.55892C37.2135 5.30415 36.1457 4.26133 34.8007 4.26133H31.4244V5.03754C31.4244 7.11249 29.67 8.76618 27.5448 8.76618C25.419 8.76618 23.6652 7.10196 23.6652 5.03754V4.26133H14.2483V5.03754C14.2483 7.11218 12.4943 8.76569 10.3696 8.76618C8.2522 8.77654 6.489 7.11127 6.489 5.03754V4.26133H3.11274ZM3.65 12.15H4H12H12.35V12.5V20.5V20.85H12H4H3.65V20.5V12.5V12.15ZM4.35 12.85V20.15H11.65V12.85H4.35ZM15 12.15H14.65V12.5V20.5V20.85H15H23H23.35V20.5V12.5V12.15H23H15ZM15.35 20.15V12.85H22.65V20.15H15.35ZM25.65 12.15H26H34H34.35V12.5V20.5V20.85H34H26H25.65V20.5V12.5V12.15ZM26.35 12.85V20.15H33.65V12.85H26.35ZM4 23.15H3.65V23.5V31.5V31.85H4H12H12.35V31.5V23.5V23.15H12H4ZM4.35 31.15V23.85H11.65V31.15H4.35ZM14.65 23.15H15H23H23.35V23.5V31.5V31.85H23H15H14.65V31.5V23.5V23.15ZM15.35 23.85V31.15H22.65V23.85H15.35ZM26 23.15H25.65V23.5V31.5V31.85H26H34H34.35V31.5V23.5V23.15H34H26ZM26.35 31.15V23.85H33.65V31.15H26.35ZM27.6129 0.0751953C26.8496 0.0751953 26.3002 0.772912 26.3002 1.53105V4.58367C26.3002 5.35345 26.8511 6.03952 27.6129 6.03952C28.3762 6.03952 28.9256 5.34181 28.9256 4.58367V1.53105C28.9256 1.15669 28.794 0.79 28.5581 0.515536L28.5582 0.515473L28.5531 0.509812C28.3065 0.237274 27.9828 0.0751953 27.6129 0.0751953ZM26.9002 1.53105C26.9002 1.02466 27.2553 0.675195 27.6129 0.675195C27.7925 0.675195 27.9595 0.749333 28.1055 0.909499C28.2418 1.06954 28.3256 1.29431 28.3256 1.53105V4.58367C28.3256 5.09006 27.9704 5.43952 27.6129 5.43952C27.2538 5.43952 26.9002 5.09818 26.9002 4.58367V1.53105Z" fill="#222222" fill-opacity="0.8"/>
</svg>
