<svg width="15" height="15" viewBox="0 0 15 15" fill="none" xmlns="http://www.w3.org/2000/svg">
<path d="M7.5 0.25C6.49935 0.25 5.56006 0.438802 4.68213 0.816406C3.79476 1.19401 3.02303 1.71086 2.36694 2.36694C1.71086 3.02303 1.19401 3.79476 0.816406 4.68213C0.438802 5.56006 0.25 6.49935 0.25 7.5C0.25 8.50065 0.438802 9.43994 0.816406 10.3179C1.19401 11.2052 1.71086 11.977 2.36694 12.6331C3.02303 13.2891 3.79476 13.806 4.68213 14.1836C5.56006 14.5612 6.49935 14.75 7.5 14.75C8.50065 14.75 9.43994 14.5612 10.3179 14.1836C11.2052 13.806 11.977 13.2891 12.6331 12.6331C13.2891 11.977 13.806 11.2052 14.1836 10.3179C14.5612 9.43994 14.75 8.50065 14.75 7.5C14.75 6.49935 14.5612 5.56006 14.1836 4.68213C13.806 3.79476 13.2891 3.02303 12.6331 2.36694C11.977 1.71086 11.2052 1.19401 10.3179 0.816406C9.43994 0.438802 8.50065 0.25 7.5 0.25ZM7.5 2.98291C7.83984 2.98291 8.12777 3.10091 8.36377 3.33691C8.59977 3.57292 8.71777 3.86084 8.71777 4.20068C8.71777 4.54053 8.59977 4.82845 8.36377 5.06445C8.12777 5.30046 7.83984 5.41846 7.5 5.41846C7.16016 5.41846 6.87223 5.30046 6.63623 5.06445C6.40023 4.82845 6.28223 4.54053 6.28223 4.20068C6.28223 3.86084 6.40023 3.57292 6.63623 3.33691C6.87223 3.10091 7.16016 2.98291 7.5 2.98291ZM9.60986 10.1338C9.30778 10.5397 8.98682 10.8961 8.64697 11.2029C8.30713 11.5097 8.01449 11.7197 7.76904 11.833C7.5236 11.9652 7.29704 12.0242 7.08936 12.01C6.88167 11.9958 6.73535 11.8377 6.65039 11.5356C6.61263 11.3846 6.58903 11.1203 6.57959 10.7427C6.57015 10.3745 6.57015 9.98747 6.57959 9.58154C6.58903 9.17562 6.59847 8.80273 6.60791 8.46289C6.61735 8.13249 6.62207 7.92952 6.62207 7.854C6.61263 7.73128 6.51587 7.73364 6.33179 7.86108C6.14771 7.98853 5.95654 8.12777 5.7583 8.27881C5.73942 8.29769 5.71582 8.31185 5.6875 8.32129C5.65918 8.33073 5.63086 8.33545 5.60254 8.33545C5.56478 8.33545 5.52702 8.32837 5.48926 8.31421C5.4515 8.30005 5.42318 8.27409 5.4043 8.23633C5.38542 8.21745 5.37126 8.19385 5.36182 8.16553C5.35238 8.13721 5.34766 8.10889 5.34766 8.08057C5.34766 8.05225 5.35238 8.02393 5.36182 7.99561C5.37126 7.96729 5.38542 7.94369 5.4043 7.9248C5.71582 7.56608 6.0651 7.22152 6.45215 6.89111C6.83919 6.56071 7.2168 6.30111 7.58496 6.1123C7.79264 6.00846 7.96729 5.98486 8.10889 6.0415C8.25049 6.09814 8.35905 6.26335 8.43457 6.53711C8.46289 6.66927 8.47705 6.91471 8.47705 7.27344C8.46761 7.62272 8.45581 7.99089 8.44165 8.37793C8.42749 8.76497 8.41097 9.1237 8.39209 9.4541C8.37321 9.78451 8.36377 9.99219 8.36377 10.0771C8.38265 10.3415 8.48885 10.4076 8.68237 10.2754C8.8759 10.1432 9.06234 9.99219 9.2417 9.82227C9.26058 9.80339 9.28654 9.78687 9.31958 9.77271C9.35262 9.75854 9.3833 9.75146 9.41162 9.75146C9.4777 9.75146 9.5367 9.77506 9.58862 9.82227C9.64054 9.86947 9.6665 9.92611 9.6665 9.99219C9.6665 10.0205 9.66178 10.0465 9.65234 10.0701C9.6429 10.0937 9.62874 10.1149 9.60986 10.1338Z" fill="#FC6600"/>
</svg>
