<svg width="17" height="16" viewBox="0 0 17 16" fill="none" xmlns="http://www.w3.org/2000/svg">
<path d="M8.72266 0C4.30441 0 0.722656 3.58175 0.722656 8C0.722656 12.4185 4.30441 16 8.72266 16C13.1412 16 16.7227 12.4185 16.7227 8C16.7227 3.58175 13.1412 0 8.72266 0ZM8.72266 15.0157C4.86291 15.0157 1.72266 11.8597 1.72266 7.99997C1.72266 4.14022 4.86291 0.999969 8.72266 0.999969C12.5824 0.999969 15.7227 4.14023 15.7227 7.99997C15.7227 11.8597 12.5824 15.0157 8.72266 15.0157ZM11.9154 5.07275L7.22164 9.796L5.10789 7.68225C4.91264 7.487 4.59614 7.487 4.40064 7.68225C4.20539 7.8775 4.20539 8.194 4.40064 8.38925L6.87539 10.8643C7.07064 11.0592 7.38714 11.0592 7.58264 10.8643C7.60514 10.8418 7.62441 10.8172 7.64191 10.7917L12.6229 5.77998C12.8179 5.58473 12.8179 5.26823 12.6229 5.07275C12.4274 4.8775 12.1109 4.8775 11.9154 5.07275Z" fill="black"/>
</svg>
