<svg width="17" height="16" viewBox="0 0 17 16" fill="none" xmlns="http://www.w3.org/2000/svg">
<path d="M8.72266 0C4.26551 0 0.722656 3.54286 0.722656 8C0.722656 12.4571 4.26551 16 8.72266 16C13.1798 16 16.7227 12.4571 16.7227 8C16.7227 3.54286 13.1798 0 8.72266 0ZM8.72266 14.8571C4.95123 14.8571 1.86551 11.7714 1.86551 8C1.86551 4.22857 4.95123 1.14286 8.72266 1.14286C12.4941 1.14286 15.5798 4.22857 15.5798 8C15.5798 11.7714 12.4941 14.8571 8.72266 14.8571Z" fill="#222222"/>
<path d="M11.8084 12L8.72266 8.91429L5.63694 12L4.72266 11.0857L7.80837 8L4.72266 4.91429L5.63694 4L8.72266 7.08571L11.8084 4L12.7227 4.91429L9.63694 8L12.7227 11.0857L11.8084 12Z" fill="#222222"/>
</svg>
