<svg width="34" height="40" viewBox="0 0 34 40" fill="none" xmlns="http://www.w3.org/2000/svg">
<path d="M31.9997 13.3333H25.333C22.5663 13.3333 20.333 11.1 20.333 8.33333V1.66667C20.333 0.733333 19.5997 0 18.6663 0H3.66634C1.83301 0 0.333008 1.5 0.333008 3.33333V36.6667C0.333008 38.5 1.83301 40 3.66634 40H30.333C32.1663 40 33.6663 38.5 33.6663 36.6667V15C33.6663 14.0667 32.933 13.3333 31.9997 13.3333ZM11.9997 33.3333H8.66634C7.73301 33.3333 6.99967 32.6 6.99967 31.6667C6.99967 30.7333 7.73301 30 8.66634 30H11.9997C12.933 30 13.6663 30.7333 13.6663 31.6667C13.6663 32.6 12.933 33.3333 11.9997 33.3333ZM11.9997 26.6667H8.66634C7.73301 26.6667 6.99967 25.9333 6.99967 25C6.99967 24.0667 7.73301 23.3333 8.66634 23.3333H11.9997C12.933 23.3333 13.6663 24.0667 13.6663 25C13.6663 25.9333 12.933 26.6667 11.9997 26.6667ZM11.9997 20H8.66634C7.73301 20 6.99967 19.2667 6.99967 18.3333C6.99967 17.4 7.73301 16.6667 8.66634 16.6667H11.9997C12.933 16.6667 13.6663 17.4 13.6663 18.3333C13.6663 19.2667 12.933 20 11.9997 20ZM25.333 33.3333H18.6663C17.733 33.3333 16.9997 32.6 16.9997 31.6667C16.9997 30.7333 17.733 30 18.6663 30H25.333C26.2663 30 26.9997 30.7333 26.9997 31.6667C26.9997 32.6 26.2663 33.3333 25.333 33.3333ZM25.333 26.6667H18.6663C17.733 26.6667 16.9997 25.9333 16.9997 25C16.9997 24.0667 17.733 23.3333 18.6663 23.3333H25.333C26.2663 23.3333 26.9997 24.0667 26.9997 25C26.9997 25.9333 26.2663 26.6667 25.333 26.6667ZM25.333 20H18.6663C17.733 20 16.9997 19.2667 16.9997 18.3333C16.9997 17.4 17.733 16.6667 18.6663 16.6667H25.333C26.2663 16.6667 26.9997 17.4 26.9997 18.3333C26.9997 19.2667 26.2663 20 25.333 20ZM23.6663 1.66667V6.66667C23.6663 8.5 25.1663 10 26.9997 10H31.9997C33.4997 10 34.233 8.2 33.1663 7.16667L26.4997 0.5C25.4663 -0.566667 23.6663 0.2 23.6663 1.66667Z" fill="#1AA260"/>
</svg>
