<svg width="40" height="40" viewBox="0 0 40 40" fill="none" xmlns="http://www.w3.org/2000/svg">
<path d="M9.33333 21.3327H8V18.666H9.33333C9.68696 18.666 10.0261 18.8065 10.2761 19.0565C10.5262 19.3066 10.6667 19.6457 10.6667 19.9993C10.6667 20.353 10.5262 20.6921 10.2761 20.9422C10.0261 21.1922 9.68696 21.3327 9.33333 21.3327ZM18.6667 26.666V18.666H20C20.3536 18.666 20.6928 18.8065 20.9428 19.0565C21.1929 19.3066 21.3333 19.6457 21.3333 19.9993V25.3327C21.3333 25.6863 21.1929 26.0254 20.9428 26.2755C20.6928 26.5255 20.3536 26.666 20 26.666H18.6667Z" fill="#FF2C2C"/>
<path fill-rule="evenodd" clip-rule="evenodd" d="M2.66699 4C2.66699 2.93913 3.08842 1.92172 3.83857 1.17157C4.58871 0.421427 5.60613 0 6.66699 0L28.5523 0L37.3337 8.78133V36C37.3337 37.0609 36.9122 38.0783 36.1621 38.8284C35.4119 39.5786 34.3945 40 33.3337 40H6.66699C5.60613 40 4.58871 39.5786 3.83857 38.8284C3.08842 38.0783 2.66699 37.0609 2.66699 36V4ZM9.33366 16H5.33366V29.3333H8.00033V24H9.33366C10.3945 24 11.4119 23.5786 12.1621 22.8284C12.9122 22.0783 13.3337 21.0609 13.3337 20C13.3337 18.9391 12.9122 17.9217 12.1621 17.1716C11.4119 16.4214 10.3945 16 9.33366 16ZM20.0003 16H16.0003V29.3333H20.0003C21.0612 29.3333 22.0786 28.9119 22.8288 28.1618C23.5789 27.4116 24.0003 26.3942 24.0003 25.3333V20C24.0003 18.9391 23.5789 17.9217 22.8288 17.1716C22.0786 16.4214 21.0612 16 20.0003 16ZM26.667 29.3333V16H34.667V18.6667H29.3337V21.3333H32.0003V24H29.3337V29.3333H26.667Z" fill="#FF2C2C"/>
</svg>
