<svg width="19" height="25" viewBox="0 0 19 25" fill="none" xmlns="http://www.w3.org/2000/svg">
<path fill-rule="evenodd" clip-rule="evenodd" d="M8.82859 24.188C8.99659 24.38 9.23659 24.5 9.50059 24.5C9.76459 24.5 10.0046 24.38 10.1726 24.188C11.0366 23.204 18.6926 14.468 18.6926 9.692C18.6926 4.628 14.5646 0.5 9.50059 0.5C4.43659 0.5 0.308594 4.628 0.308594 9.692C0.308594 14.4848 7.94159 23.1778 8.82465 24.1835L8.82859 24.188ZM2.13259 9.692C2.13259 5.636 5.44459 2.324 9.50059 2.324C13.5566 2.324 16.8686 5.636 16.8686 9.692C16.8686 12.86 12.0446 19.196 9.50059 22.196C6.95659 19.172 2.13259 12.86 2.13259 9.692ZM4.89258 9.81186C4.89258 12.3559 6.95658 14.4199 9.50058 14.4199C12.0446 14.4199 14.1086 12.3559 14.1086 9.81186C14.1086 7.26786 12.0446 5.20386 9.50058 5.20386C6.95658 5.20386 4.89258 7.26786 4.89258 9.81186ZM6.71658 9.81186C6.71658 8.27586 7.96458 7.02786 9.50058 7.02786C11.0366 7.02786 12.2846 8.27586 12.2846 9.81186C12.2846 11.3479 11.0366 12.5959 9.50058 12.5959C7.96458 12.5959 6.71658 11.3479 6.71658 9.81186Z" fill="#FC6600"/>
</svg>
