<svg width="23" height="17" viewBox="0 0 23 17" fill="none" xmlns="http://www.w3.org/2000/svg">
<path fill-rule="evenodd" clip-rule="evenodd" d="M0.976405 1.69558L1.10997 1.54533C1.59947 1.03345 2.32872 0.777344 3.29705 0.777344H19.8922C20.8047 0.777344 21.5059 1.00006 21.9958 1.44516L22.0125 1.46185C22.1126 1.551 22.2131 1.65652 22.313 1.77906C22.313 1.79041 22.3187 1.80143 22.3297 1.81245L22.3464 1.82915C22.714 2.2856 22.8973 2.93104 22.8973 3.7658V13.2153C22.8863 15.2188 21.8846 16.2205 19.8922 16.2205H3.29705C1.30463 16.2095 0.308594 15.2078 0.308594 13.2153V3.7658C0.308594 2.86426 0.531309 2.17407 0.976405 1.69558ZM20.4431 2.41348C20.2762 2.36907 20.0925 2.35204 19.8925 2.3634H3.29705C3.17451 2.35238 3.05764 2.35772 2.94645 2.38009L11.5445 11.095L20.4431 2.41348ZM1.89465 3.58215C1.88363 3.63792 1.88363 3.69902 1.89465 3.7658V13.2153C1.89465 14.1616 2.36211 14.6344 3.29705 14.6344H19.8922C20.8381 14.6344 21.3113 14.1616 21.3113 13.2153V3.7825L12.0955 12.7813C11.9285 12.9372 11.7395 13.015 11.5282 13.015C11.3054 13.004 11.1161 12.9258 10.9605 12.7813L1.89465 3.58215Z" fill="url(#paint0_linear_2_46107)"/>
<defs>
<linearGradient id="paint0_linear_2_46107" x1="11.603" y1="0.777344" x2="11.603" y2="16.2205" gradientUnits="userSpaceOnUse">
<stop stop-color="#FC6600"/>
<stop offset="1" stop-color="#FC6600"/>
</linearGradient>
</defs>
</svg>
