<svg width="24" height="25" viewBox="0 0 24 25" fill="none" xmlns="http://www.w3.org/2000/svg">
<path fill-rule="evenodd" clip-rule="evenodd" d="M19.9178 4.42557C21.7576 6.26542 22.9576 8.58104 23.3889 11.1193C23.4334 11.3701 23.3771 11.6232 23.2271 11.8318C23.0795 12.0451 22.8568 12.1834 22.6014 12.2256C22.599 12.2279 22.5967 12.2279 22.5943 12.2279C22.5568 12.235 22.5076 12.242 22.449 12.242H22.442C21.9709 12.242 21.5725 11.9068 21.4951 11.4428C21.1295 9.29589 20.1146 7.33886 18.5584 5.78261C17.0021 4.2287 15.0451 3.21151 12.8959 2.84589C12.3779 2.75917 12.024 2.26464 12.1107 1.74198C12.1975 1.22167 12.692 0.867762 13.2146 0.954481C15.7553 1.38339 18.0709 2.58339 19.9178 4.42557ZM18.6188 14.9676C18.0938 14.4215 17.4587 14.1332 16.7813 14.1332C16.111 14.1332 15.4712 14.4168 14.9345 14.9559L13.6009 16.2895L13.6008 16.2894C13.568 16.273 13.5352 16.2566 13.5048 16.2402L13.4368 16.2074L13.4046 16.1911C13.2696 16.1226 13.1197 16.0465 12.9938 15.9684C11.6251 15.0988 10.3759 13.9598 9.17118 12.4832C8.65556 11.834 8.29462 11.2832 8.02978 10.7348C8.36493 10.4184 8.67665 10.102 8.96962 9.80195C9.00214 9.76943 9.03467 9.73633 9.06747 9.70294L9.06752 9.7029L9.0676 9.70281C9.10096 9.66887 9.1346 9.63463 9.16884 9.60039C9.23446 9.53242 9.30243 9.46445 9.3704 9.39648C9.92821 8.83867 10.2235 8.1918 10.2212 7.52617C10.2212 6.86289 9.92587 6.21836 9.3704 5.66523L8.07431 4.36914L8.07429 4.36912C7.99929 4.29413 7.9243 4.21913 7.85165 4.14414C7.77901 4.06916 7.70403 3.99417 7.63138 3.92153L7.63134 3.92148L7.52821 3.81602C7.27274 3.55586 7.0079 3.28633 6.74071 3.04023C6.2204 2.52227 5.58993 2.24805 4.92196 2.24805C4.25634 2.24805 3.62118 2.52227 3.07978 3.04023C3.07888 3.04113 3.07799 3.04168 3.07722 3.04216C3.07598 3.04292 3.07509 3.04347 3.07509 3.04492L1.45087 4.6668C0.787589 5.33008 0.410245 6.13867 0.328214 7.06914V7.07148C0.241495 8.17305 0.440714 9.33555 0.956339 10.7301C1.73681 12.8395 2.90868 14.7941 4.64071 16.8801C6.75478 19.3996 9.29306 21.3871 12.1829 22.7863H12.1852C13.2985 23.3184 14.7938 23.9418 16.4813 24.052H16.4884H16.5001C16.5962 24.0566 16.697 24.0613 16.8024 24.0613C17.986 24.0613 18.9845 23.6324 19.7673 22.7863L19.779 22.7746C19.7884 22.7652 19.7954 22.7582 19.8024 22.7488C20.0368 22.4676 20.3063 22.2074 20.6087 21.9168C20.8173 21.7176 21.0306 21.5137 21.2368 21.2934C21.7688 20.7379 22.0501 20.091 22.0477 19.423C22.0454 18.7527 21.7595 18.1129 21.2204 17.5738L18.6188 14.9676ZM18.361 21.4996C17.9438 21.9449 17.4657 22.1441 16.8141 22.1441C16.7554 22.1441 16.6901 22.1398 16.6225 22.1353L16.6149 22.1348C15.2649 22.048 13.9876 21.5137 13.0267 21.0566C10.3735 19.7793 8.04853 17.9605 6.11493 15.6496C4.5329 13.7441 3.4665 11.9676 2.76103 10.0645C2.33915 8.93242 2.17978 8.05586 2.2454 7.22852C2.28759 6.7457 2.46806 6.36133 2.81259 6.02148L4.42509 4.40898C4.59384 4.24727 4.76728 4.16055 4.92899 4.16055C5.08134 4.16055 5.24306 4.24492 5.41415 4.41133L5.42118 4.41836C5.67071 4.65321 5.91461 4.89932 6.16967 5.15668L6.26025 5.24805L6.26962 5.25742C6.4079 5.40039 6.56728 5.56445 6.729 5.72148L8.02275 7.01523C8.40009 7.39258 8.40009 7.65742 8.02275 8.03477C7.88681 8.1707 7.74853 8.30898 7.61259 8.44961L7.51649 8.54805L7.51026 8.55437L7.51025 8.55437C7.14929 8.91999 6.80889 9.26478 6.43837 9.59336C6.43689 9.59484 6.43517 9.59633 6.43336 9.59789C6.42947 9.60125 6.42517 9.60496 6.42196 9.60977L6.39853 9.6332C6.00243 10.0293 5.89462 10.5027 6.07978 11.0371C6.08446 11.0512 6.08915 11.0629 6.09384 11.0746C6.09618 11.0816 6.09853 11.0887 6.10321 11.0957C6.45009 11.9324 6.93759 12.727 7.68759 13.6762C7.68759 13.6773 7.68817 13.6779 7.68876 13.6785C7.68935 13.6791 7.68993 13.6797 7.68993 13.6809C9.02118 15.3191 10.4251 16.5988 11.9837 17.5879C12.1876 17.7168 12.3985 17.8246 12.5954 17.923C12.7407 17.9957 12.9048 18.0801 13.0407 18.1621C13.0501 18.1691 13.0595 18.1738 13.0688 18.1785L13.0759 18.1832C13.0814 18.1859 13.0868 18.189 13.0925 18.1922C13.1013 18.1972 13.1104 18.2023 13.1204 18.2066C13.3243 18.3098 13.5259 18.359 13.7345 18.359C14.0907 18.359 14.4188 18.2113 14.6837 17.9324L16.3056 16.3105C16.4227 16.1934 16.6056 16.0527 16.7977 16.0527C16.9759 16.0527 17.1493 16.191 17.2618 16.3082L17.2665 16.3129L19.8845 18.9309C20.1423 19.1887 20.3181 19.4934 19.8634 19.9715L19.861 19.9738C19.7204 20.126 19.5707 20.2713 19.412 20.4255L19.404 20.4332C19.3688 20.466 19.3337 20.5012 19.2985 20.5363C18.9704 20.8434 18.6563 21.148 18.361 21.4996ZM12.7095 6.92147C13.8838 7.12303 14.9572 7.6785 15.8127 8.53163C16.6634 9.38241 17.2213 10.4558 17.4228 11.6324C17.5002 12.0965 17.8986 12.4316 18.3697 12.4316C18.4306 12.4316 18.4845 12.4246 18.522 12.4176C18.5244 12.4176 18.5267 12.4176 18.5291 12.4152C18.7845 12.373 19.0072 12.2348 19.1548 12.0215C19.3025 11.8105 19.3588 11.5574 19.3142 11.3066C19.047 9.73632 18.3064 8.30663 17.1697 7.16991C16.0283 6.03319 14.5963 5.29257 13.0283 5.02772H13.0259C12.5033 4.941 12.0088 5.29491 11.922 5.81522C11.84 6.34022 12.1916 6.83475 12.7095 6.92147Z" fill="#FC6600"/>
</svg>
