<svg width="184" height="491" viewBox="0 0 184 491" fill="none" xmlns="http://www.w3.org/2000/svg">
<path d="M184 8C184 12.4183 180.418 16 176 16C171.582 16 168 12.4183 168 8C168 3.58172 171.582 0 176 0C180.418 0 184 3.58172 184 8ZM16 483C16 487.418 12.4183 491 8 491C3.58173 491 0 487.418 0 483C0 478.582 3.58173 475 8 475C12.4183 475 16 478.582 16 483ZM8 481.5H116V484.5H8V481.5ZM174.5 423V8H177.5V423H174.5ZM116 481.5C148.309 481.5 174.5 455.309 174.5 423H177.5C177.5 456.966 149.966 484.5 116 484.5V481.5Z" fill="#FC6600"/>
</svg>
