<svg width="240" height="647" viewBox="0 0 240 647" fill="none" xmlns="http://www.w3.org/2000/svg">
<path d="M240 8C240 12.4183 236.418 16 232 16C227.582 16 224 12.4183 224 8C224 3.58172 227.582 0 232 0C236.418 0 240 3.58172 240 8ZM16 639C16 643.418 12.4183 647 8 647C3.58171 647 0 643.418 0 639C0 634.582 3.58171 631 8 631C12.4183 631 16 634.582 16 639ZM8 637.5H172V640.5H8V637.5ZM230.5 579V8H233.5V579H230.5ZM172 637.5C204.309 637.5 230.5 611.309 230.5 579H233.5C233.5 612.966 205.966 640.5 172 640.5V637.5Z" fill="#222222"/>
</svg>
