<svg width="128" height="324" viewBox="0 0 128 324" fill="none" xmlns="http://www.w3.org/2000/svg">
<path d="M128 8C128 12.4183 124.418 16 120 16C115.582 16 112 12.4183 112 8C112 3.58172 115.582 0 120 0C124.418 0 128 3.58172 128 8ZM16 316C16 320.418 12.4183 324 8 324C3.58172 324 0 320.418 0 316C0 311.582 3.58172 308 8 308C12.4183 308 16 311.582 16 316ZM8 314.5H60V317.5H8V314.5ZM118.5 256V8H121.5V256H118.5ZM60 314.5C92.3087 314.5 118.5 288.309 118.5 256H121.5C121.5 289.966 93.9655 317.5 60 317.5V314.5Z" fill="#222222"/>
</svg>
