<svg width="73" height="160" viewBox="0 0 73 160" fill="none" xmlns="http://www.w3.org/2000/svg">
<path d="M72.2305 8C72.2305 12.4183 68.6487 16 64.2305 16C59.8122 16 56.2305 12.4183 56.2305 8C56.2305 3.58172 59.8122 0 64.2305 0C68.6487 0 72.2305 3.58172 72.2305 8ZM16.2305 152C16.2305 156.418 12.6487 160 8.23047 160C3.81219 160 0.230469 156.418 0.230469 152C0.230469 147.582 3.81219 144 8.23047 144C12.6487 144 16.2305 147.582 16.2305 152ZM8.23047 150.5H24.2305V153.5H8.23047V150.5ZM62.7305 112V8H65.7305V112H62.7305ZM24.2305 150.5C45.4934 150.5 62.7305 133.263 62.7305 112H65.7305C65.7305 134.92 47.1503 153.5 24.2305 153.5V150.5Z" fill="#FC6600"/>
</svg>
