<svg width="16" height="16" viewBox="0 0 16 16" fill="none" xmlns="http://www.w3.org/2000/svg">
<path d="M0 15L6 10L0 5.1V15ZM9 10.1L15 15V5L9 10.1ZM14 12.9L10.6 10.1L14 7.1V12.9ZM7 5H8V6H7V5ZM7 3H8V4H7V3ZM7 7H8V8H7V7ZM7 9H8V10H7V9ZM7 11H8V12H7V11ZM7 13H8V14H7V13ZM7 15H8V16H7V15Z" fill="#222222"/>
<path d="M7.49961 1C8.79961 1 10.0996 1.7 11.0996 2.9L9.99961 4H12.9996V1L11.7996 2.2C10.5996 0.8 9.09961 0 7.49961 0C5.59961 0 3.89961 1 2.59961 2.9L3.39961 3.5C4.49961 1.9 5.89961 1 7.49961 1Z" fill="#222222"/>
</svg>
