<svg width="22" height="30" viewBox="0 0 22 30" fill="none" xmlns="http://www.w3.org/2000/svg">
<path fill-rule="evenodd" clip-rule="evenodd" d="M16.9244 28.8694C16.7125 28.9583 16.4857 29.0037 16.257 29.0032L16.2569 29.0032C15.7937 29.0019 15.3481 28.8137 15.0182 28.477C14.688 28.1399 14.5012 27.6814 14.5013 27.2017L14.5013 27.2016L14.5013 15.3161C14.5013 15.0399 14.2775 14.8161 14.0013 14.8161C13.7252 14.8161 13.5013 15.0399 13.5013 15.3161L13.5013 15.7131C13.4998 15.7292 13.499 15.7455 13.499 15.762L13.499 18.8028C13.4855 19.2732 13.2929 19.7182 12.9643 20.0442C12.6346 20.3712 12.1943 20.5527 11.7376 20.5527C11.281 20.5527 10.8406 20.3712 10.5109 20.0442C10.1823 19.7182 9.98969 19.2732 9.97627 18.8028L9.97627 18.4445C9.99399 18.3165 10.003 18.1868 10.003 18.0562L10.003 15.985C10.003 15.9284 9.99361 15.874 9.97627 15.8232L9.97627 15.762C9.97627 15.4859 9.75241 15.262 9.47627 15.262C9.20013 15.262 8.97627 15.4859 8.97627 15.762L8.97627 18.3681C8.9138 18.7292 8.74391 19.064 8.48732 19.3252C8.15841 19.6599 7.7142 19.8464 7.25293 19.8464C6.79165 19.8464 6.34745 19.6599 6.01853 19.3252C5.68932 18.9901 5.50283 18.5338 5.50283 18.0562L5.50283 15.7659C5.50283 15.4898 5.27897 15.2659 5.00283 15.2659C4.90525 15.2659 4.8142 15.2939 4.73725 15.3422C4.59447 15.4302 4.49929 15.5881 4.49929 15.7681C4.49929 16.2437 4.31359 16.6981 3.98579 17.0318C3.65828 17.3651 3.21598 17.5507 2.7567 17.5507L2.7492 17.5507C2.28792 17.5507 1.84372 17.3643 1.5148 17.0295C1.1856 16.6944 0.999101 16.2381 0.999101 15.7605L0.999102 5.79803C0.999102 3.65641 2.8317 0.999979 5.79283 0.99998L14.4032 0.99998C15.1148 0.99998 15.8835 1.28165 16.6558 1.79309C17.4252 2.3027 18.1695 3.02207 18.8214 3.84654C20.1403 5.51472 21 7.50629 21 8.89746C21 10.8576 20.3971 12.156 19.2893 12.9289C19.0628 13.0869 19.0074 13.3986 19.1654 13.6251C19.3234 13.8515 19.6351 13.907 19.8615 13.749C21.3199 12.7315 22 11.0689 22 8.89746C22 7.1892 20.994 4.98203 19.6058 3.22633C18.9042 2.33886 18.0846 1.54 17.2079 0.959365C16.334 0.380563 15.3743 -1.96527e-05 14.4032 -1.97376e-05L5.79283 -2.04904e-05C2.16868 -2.08072e-05 -0.000897927 3.22178 -0.000898152 5.79803L-0.000899023 15.7605C-0.000899088 16.4977 0.286737 17.2064 0.801477 17.7303C1.31651 18.2546 2.01695 18.5507 2.7492 18.5507L2.7567 18.5507C3.39773 18.5507 4.01431 18.3231 4.50283 17.9139L4.50283 18.0562C4.50283 18.7933 4.79046 19.5021 5.30521 20.026C5.82024 20.5502 6.52068 20.8464 7.25293 20.8464C7.98518 20.8464 8.68562 20.5502 9.20065 20.026C9.21802 20.0083 9.23513 19.9904 9.25197 19.9723C9.38965 20.2606 9.57636 20.5257 9.80668 20.7541C10.3218 21.2651 11.0146 21.5527 11.7376 21.5527C12.3851 21.5527 13.0082 21.3221 13.5013 20.907L13.5013 27.2014L13.5013 27.2016C13.5011 27.9404 13.7887 28.6509 14.3039 29.1768C14.8193 29.703 15.5206 30.0012 16.2546 30.0032L16.2549 30.0032C16.6175 30.004 16.9765 29.9319 17.3113 29.7915C17.646 29.6511 17.9497 29.4451 18.2052 29.1858C18.4607 28.9266 18.663 28.6191 18.801 28.2811C18.939 27.9432 19.0102 27.5812 19.0105 27.2158L19.0105 27.2153L19.0105 11.6112C19.0105 11.3351 18.7867 11.1112 18.5105 11.1112C18.2344 11.1112 18.0105 11.3351 18.0105 11.6112L18.0105 27.215C18.0103 27.4514 17.9642 27.6852 17.8753 27.903C17.7863 28.1209 17.6562 28.3182 17.493 28.4839C17.3297 28.6496 17.1364 28.7804 16.9244 28.8694Z" fill="#FC6600"/>
</svg>
