<svg width="30" height="41" viewBox="0 0 30 41" fill="none" xmlns="http://www.w3.org/2000/svg">
<path d="M6.53094 34.7998V35.2398L6.79094 35.2798L6.62094 35.7898H5.40094L5.23094 35.2798L5.49094 35.2398V34.7998H4.21094V35.2398L4.48094 35.2798L5.63094 38.4698H6.41094L7.55094 35.2798L7.82094 35.2398V34.7998H6.53094ZM6.02094 37.6298H6.00094L5.58094 36.3298H6.45094L6.02094 37.6298Z" fill="#222222" fill-opacity="0.8"/>
<path d="M25.5314 5.72027L24.3914 2.53027H23.6114L22.4614 5.72027L22.1914 5.76027V6.20027H23.4814V5.76027L23.2214 5.72027L23.3914 5.21027H24.6114L24.7814 5.72027L24.5214 5.76027V6.20027H25.8114V5.76027L25.5314 5.72027ZM23.5614 4.67027L23.9814 3.38027H24.0014L24.4314 4.67027H23.5614Z" fill="#222222" fill-opacity="0.8"/>
<path d="M15.4821 25.4637L16.538 27.8299H13.5331L14.305 25.412C14.3723 25.2011 14.2929 24.971 14.1099 24.8465C13.9269 24.722 13.6837 24.7327 13.5123 24.8727C12.4178 25.767 11.1959 25.8781 10.2263 25.4671C9.25378 25.0548 8.4785 24.0932 8.33604 22.7188C8.22473 21.6256 8.70277 20.2936 9.87852 18.6566C10.9935 17.1042 12.6897 15.3414 14.9396 13.3369C17.2017 15.341 18.9007 17.1099 20.0373 18.6672C21.2349 20.3081 21.7648 21.6555 21.7388 22.7576C21.6987 24.3207 20.861 25.3195 19.8043 25.7096C18.7335 26.1049 17.3761 25.897 16.2761 24.891C16.1013 24.7311 15.8383 24.7158 15.6462 24.8544C15.454 24.993 15.3855 25.2474 15.4821 25.4637Z" stroke="#222222" stroke-opacity="0.8" stroke-linejoin="round"/>
<path d="M29 0.5H1V40.5H29V0.5Z" stroke="#222222" stroke-opacity="0.8" stroke-width="0.8" stroke-miterlimit="10"/>
</svg>
