<svg width="51" height="32" viewBox="0 0 51 32" fill="none" xmlns="http://www.w3.org/2000/svg">
<path fill-rule="evenodd" clip-rule="evenodd" d="M8.37959 1.30469L6.33123 7.41437H7.57369C7.59886 7.41437 7.62379 7.41539 7.64844 7.41741C8.11736 7.45251 8.48692 7.84412 8.48692 8.32201V12.8963H27.2554V8.32153C27.2554 7.82054 27.6615 7.41437 28.1625 7.41437H29.4364L27.4293 1.30469H8.37959ZM30.4672 7.41437C30.4604 7.34861 30.4461 7.28218 30.4238 7.21596L28.3582 0.928183L28.3575 0.926118C28.235 0.558618 27.8865 0.304688 27.4943 0.304688H8.31508C7.92303 0.304688 7.57465 0.55837 7.45199 0.925583L7.45181 0.926118L5.34335 7.21505L5.34329 7.21503L5.34095 7.22238C5.32063 7.28626 5.30766 7.35054 5.30152 7.41437H0.907163C0.406169 7.41437 0 7.82054 0 8.32153V13.8517C0 14.3526 0.406169 14.7588 0.907163 14.7588H1.71981V30.7884C1.71981 31.2894 2.12597 31.6956 2.62697 31.6956H7.57369C8.07469 31.6956 8.48086 31.2894 8.48086 30.7884V29.5686H27.2554V30.7823C27.2554 31.2833 27.6615 31.6895 28.1625 31.6895H33.1093C33.6102 31.6895 34.0164 31.2833 34.0164 30.7823V14.7588H34.8291C35.33 14.7588 35.7362 14.3526 35.7362 13.8517V8.32153C35.7362 7.82054 35.33 7.41437 34.8291 7.41437H30.4672ZM28.2554 13.0096C28.2555 13.0028 28.2556 12.996 28.2556 12.9892V8.41484H29.5666C29.5765 8.41484 29.5864 8.41468 29.5962 8.41437H34.7362V13.7588H33.9236C33.4226 13.7588 33.0164 14.165 33.0164 14.666V30.6895H28.2554V13.0096ZM1 8.41437H6.17614C6.18615 8.41468 6.19622 8.41484 6.20635 8.41484H7.48086V13.5546C7.45712 13.6356 7.44439 13.7213 7.44439 13.81V20.5555C7.44439 20.6442 7.45712 20.73 7.48086 20.811V30.6956H2.71981V14.666C2.71981 14.165 2.31364 13.7588 1.81264 13.7588H1V8.41437ZM8.48086 20.4627H27.2131V13.9029H8.48086V20.4627ZM8.48712 22.3429V28.5686H27.2497V22.3429H8.48712Z" fill="#222222" fill-opacity="0.8"/>
<path d="M50.0386 6.61754H40.0333C39.8225 6.61754 39.6799 6.40677 39.7543 6.2084L41.862 0.691196C41.9054 0.573413 42.017 0.499023 42.141 0.499023H47.9247C48.0487 0.499023 48.1603 0.573413 48.2037 0.691196L50.3114 6.2084C50.392 6.40677 50.2494 6.61754 50.0386 6.61754Z" stroke="#222222" stroke-opacity="0.8" stroke-miterlimit="10"/>
<path d="M45.0352 6.61719V30.7565" stroke="#222222" stroke-opacity="0.8" stroke-miterlimit="10"/>
<path d="M48.5869 31.1288C48.5869 31.3334 48.4258 31.5007 48.2336 31.5007H41.8299C41.6377 31.5007 41.4766 31.3334 41.4766 31.1288C41.4766 30.9242 41.6377 30.7568 41.8299 30.7568H48.2398C48.432 30.7568 48.5869 30.9242 48.5869 31.1288Z" stroke="#222222" stroke-opacity="0.8" stroke-miterlimit="10"/>
</svg>
