<svg width="42" height="38" viewBox="0 0 42 38" fill="none" xmlns="http://www.w3.org/2000/svg">
<path d="M10.1439 25.8208L10.1439 25.8208C10.039 26.6697 9.26426 27.2687 8.41836 27.1638L8.41729 27.1636C7.52022 27.0495 6.70155 26.8362 5.95444 26.5261C5.1839 26.2064 4.49901 25.7937 3.89422 25.2863M10.1439 25.8208L4.11898 25.018M10.1439 25.8208C10.2483 24.975 9.65277 24.1974 8.8043 24.0918L10.1439 25.8208ZM3.89422 25.2863C3.89415 25.2862 3.89407 25.2862 3.894 25.2861L4.11898 25.018M3.89422 25.2863C3.89429 25.2863 3.89437 25.2864 3.89444 25.2865L4.11898 25.018M3.89422 25.2863C3.32459 24.8099 2.82583 24.2702 2.40254 23.682M4.11898 25.018C3.57198 24.5605 3.09308 24.0423 2.68662 23.4775M2.40254 23.682C2.40272 23.6822 2.40291 23.6825 2.40309 23.6828L2.68662 23.4775M2.40254 23.682L2.68662 23.4775M2.40254 23.682C1.27182 22.1195 0.663701 20.2133 0.650224 18.3145L0.650224 18.3145C0.636734 16.3936 1.23281 14.4727 2.52748 12.9144C2.94674 12.4077 3.44075 11.9444 4.00416 11.5353C4.65958 11.058 5.40662 10.6596 6.24353 10.3337C6.75896 10.1321 7.30446 9.96159 7.87488 9.82006C8.63165 6.99126 10.1766 4.796 12.1525 3.26109C14.0435 1.79143 16.3179 0.935939 18.6554 0.710975L2.68662 23.4775M36.4478 12.0957L36.4475 12.0953C35.3445 10.9037 33.9493 10.3826 32.4862 10.3734C31.4188 10.3672 30.3113 10.6237 29.2477 11.0949C29.0131 11.2107 28.7783 11.3368 28.5435 11.4744C27.8309 11.8928 27.1239 12.4069 26.3933 13.0035L26.1307 13.218L25.908 12.9623L24.333 11.1541L24.1106 10.8988L24.3584 10.6681C24.9171 10.1479 25.522 9.67604 26.163 9.25673M36.4478 12.0957L26.3546 9.54964M36.4478 12.0957C36.6944 12.3614 36.9296 12.662 37.1438 12.9913L36.4478 12.0957ZM26.163 9.25673L26.3546 9.54964M26.163 9.25673C26.163 9.25677 26.163 9.2568 26.1629 9.25683L26.3546 9.54964M26.163 9.25673C26.675 8.92154 27.2091 8.62706 27.7542 8.36968M26.3546 9.54964C26.853 9.22334 27.374 8.93607 27.907 8.68457M27.7542 8.36968C27.753 8.37025 27.7519 8.37081 27.7507 8.37138L27.907 8.68457M27.7542 8.36968C27.7553 8.36913 27.7565 8.36859 27.7576 8.36804L27.907 8.68457M27.7542 8.36968L27.907 8.68457M4.88645 14.9107L4.88636 14.9109C4.08959 15.8682 3.71495 17.074 3.72414 18.3073L3.72414 18.3073C3.73334 19.5608 4.14063 20.8276 4.89126 21.8687C5.17237 22.2554 5.49446 22.6094 5.86088 22.9149C6.23049 23.2219 6.64546 23.4768 7.11164 23.6686C7.62323 23.8678 8.18322 24.0142 8.80409 24.0918L4.88645 14.9107ZM4.88645 14.9107C5.1444 14.6005 5.44846 14.3136 5.80254 14.0562L4.88645 14.9107ZM13.4863 22.6992C13.4863 23.3371 13.6228 24.0149 14.0016 24.543C14.3932 25.0889 15.0163 25.4352 15.8903 25.4352C16.7639 25.4352 17.3871 25.09 17.7788 24.5443C18.1578 24.0165 18.2942 23.3385 18.2942 22.6992C18.2942 22.3257 18.174 21.9721 18.0112 21.6331C17.87 21.3391 17.684 21.0312 17.4927 20.7147C17.4652 20.6692 17.4377 20.6236 17.4101 20.5778C16.9642 19.837 16.4768 18.9834 16.2324 17.8502H15.5482C15.3038 18.9833 14.8161 19.837 14.3701 20.5778C14.3427 20.6234 14.3152 20.6688 14.2879 20.714C14.0964 21.0308 13.9102 21.3389 13.7689 21.6331C13.6062 21.9721 13.4861 22.3257 13.4863 22.6992ZM13.4863 22.6992H13.8363L13.4863 22.6995C13.4863 22.6994 13.4863 22.6993 13.4863 22.6992ZM25.5303 1.91911C27.815 3.01913 29.8153 4.82951 31.1452 7.3594C31.5996 7.29927 32.0555 7.26872 32.51 7.27438C34.785 7.28819 36.9892 8.10934 38.7212 9.98193C39.084 10.3729 39.4247 10.8139 39.7406 11.3018C39.7406 11.3019 39.7407 11.302 39.7408 11.3021L39.4469 11.4923L25.5303 1.91911ZM25.5303 1.91911C23.3777 0.882182 20.9826 0.486088 18.6555 0.710961L25.5303 1.91911ZM41.3493 17.3457V17.3456L36.4676 25.3844L36.6387 25.6898C36.6387 25.6897 36.6388 25.6897 36.6388 25.6897C37.8129 25.032 38.7983 24.1979 39.5698 23.1731L39.5702 23.1726C40.7589 21.587 41.326 19.4587 41.3493 17.3457ZM35.1243 22.987C34.2651 23.4699 33.2365 23.8445 32.0525 24.1198L37.1439 12.9915C37.8827 14.1295 38.2748 15.7181 38.2559 17.3214L38.2559 17.3219C38.2402 18.85 37.8515 20.3068 37.0955 21.3165L37.0954 21.3167C36.6053 21.9723 35.9459 22.5262 35.1246 22.9869L35.1243 22.987ZM28.2372 8.52513C28.3437 8.47544 28.4506 8.42732 28.5578 8.38104C28.4997 8.27803 28.4403 8.17665 28.3794 8.07689C28.2719 8.12381 28.1647 8.17242 28.0582 8.22246C28.1193 8.32166 28.1789 8.42255 28.2372 8.52513ZM24.1802 4.7136C24.1803 4.71364 24.1804 4.71369 24.1805 4.71373L24.332 4.39823L24.18 4.71349C24.1801 4.71353 24.1802 4.71356 24.1802 4.7136ZM14.0287 5.71941L13.8136 5.44326L14.0286 5.71947C14.0286 5.71945 14.0286 5.71943 14.0287 5.71941ZM19.4518 26.9674L18.7675 26.9669C18.422 28.567 17.7343 29.7709 17.1134 30.8031C17.0748 30.8674 17.0362 30.9312 16.9979 30.9947C16.7318 31.4353 16.4773 31.8568 16.2844 32.2588C16.0623 32.7214 15.9046 33.1911 15.9046 33.6806C15.9046 34.5528 16.0904 35.4641 16.5941 36.167C17.1107 36.8879 17.9343 37.35 19.1096 37.35C20.2848 37.35 21.1084 36.8882 21.625 36.1674C22.1288 35.4646 22.3146 34.5533 22.3146 33.6806C22.3146 33.1902 22.1566 32.72 21.9341 32.2572C21.7411 31.8556 21.4866 31.4347 21.2206 30.9947C21.1819 30.9308 21.143 30.8665 21.1041 30.8017C20.4827 29.77 19.7951 28.5671 19.4518 26.9674ZM25.7867 18.2051H25.1C24.7549 19.9506 24.0642 21.2623 23.443 22.3824C23.4037 22.4532 23.3646 22.5235 23.3257 22.5933C23.0599 23.0708 22.8067 23.5255 22.6147 23.9591C22.3932 24.4592 22.2386 24.961 22.2383 25.4807V25.4809C22.2383 26.419 22.4224 27.3967 22.9202 28.151C23.4316 28.9257 24.2556 29.4343 25.4433 29.4343C26.6311 29.4343 27.4551 28.9257 27.9664 28.151C28.4643 27.3967 28.6483 26.419 28.6483 25.4809C28.6483 24.9614 28.4939 24.4596 28.2724 23.9595C28.0804 23.5259 27.8271 23.071 27.5611 22.5934C27.5223 22.5237 27.4832 22.4535 27.444 22.3828C26.8227 21.2625 26.1318 19.9506 25.7867 18.2051Z" stroke="#222222" stroke-opacity="0.8" stroke-width="0.7"/>
</svg>
