<svg width="38" height="40" viewBox="0 0 38 40" fill="none" xmlns="http://www.w3.org/2000/svg">
<path d="M15.805 15.2069C16.1071 14.6715 16.5193 14.2526 17.0418 13.9505C17.564 13.6484 18.1439 13.4971 18.7812 13.4971C19.5301 13.4971 20.1837 13.678 20.7423 14.0391C21.3007 14.4006 21.708 14.9131 21.9642 15.5764H20.8901C20.6995 15.1624 20.4253 14.8438 20.0672 14.6204C19.709 14.397 19.2805 14.2854 18.7812 14.2854C18.3016 14.2854 17.871 14.3973 17.4903 14.6204C17.1092 14.8438 16.8105 15.1608 16.5934 15.5714C16.3766 15.982 16.2681 16.4633 16.2681 17.015C16.2681 17.5604 16.3766 18.0384 16.5934 18.449C16.8101 18.8596 17.1092 19.1766 17.4903 19.4C17.8714 19.6234 18.3016 19.735 18.7812 19.735C19.2805 19.735 19.709 19.6251 20.0672 19.4047C20.4253 19.1846 20.6995 18.8676 20.8901 18.4537H21.9642C21.708 19.1106 21.3007 19.6181 20.7423 19.9763C20.1837 20.3345 19.5301 20.5134 18.7812 20.5134C18.1439 20.5134 17.564 20.364 17.0418 20.0649C16.5193 19.7662 16.1071 19.3506 15.805 18.8181C15.5026 18.286 15.3516 17.6849 15.3516 17.0147C15.3519 16.3452 15.5029 15.7423 15.805 15.2069Z" fill="#222222" fill-opacity="0.8"/>
<path d="M34.287 32.943C33.7412 32.0389 33.1235 30.9806 32.6497 29.6863C32.1757 30.9816 31.5579 32.0402 31.0119 32.9443C30.9628 33.0255 30.9146 33.1051 30.8673 33.1831C30.5402 33.7228 30.2561 34.1917 30.0419 34.6361C29.7985 35.1408 29.67 35.5664 29.67 35.9634C29.67 36.9126 29.8761 37.8051 30.3369 38.4466C30.7794 39.0626 31.4926 39.4996 32.6495 39.4996C33.8063 39.4996 34.5195 39.0626 34.962 38.4465C35.4228 37.805 35.6289 36.9124 35.6289 35.9634C35.6289 35.5663 35.5004 35.1405 35.257 34.6356C35.0426 34.1905 34.7581 33.7209 34.4307 33.1805C34.3837 33.1028 34.3358 33.0237 34.287 32.943Z" stroke="#222222" stroke-opacity="0.8" stroke-miterlimit="10"/>
<path d="M22.4431 8.62122C22.4428 8.62115 22.4429 8.6211 22.4432 8.6213L22.4432 8.62136L22.4431 8.62122ZM22.4431 8.62122C22.4429 8.62089 22.4429 8.62091 22.4431 8.62112C22.4431 8.62118 22.4431 8.62123 22.4432 8.62127L22.4431 8.62122ZM13.6708 12.0584L13.5717 12.4294H13.1877H5.75348H5.25348V11.9294V10.4483C5.25348 10.3499 5.2152 10.2571 5.15371 10.1886L5.15126 10.1871L5.11742 10.1568C5.0502 10.0966 4.96003 10.0597 4.86188 10.0597H1.09928C0.997192 10.0597 0.899509 10.1012 0.823013 10.1753C0.754402 10.2448 0.710999 10.3431 0.710999 10.448V22.3186C0.710999 22.4171 0.749287 22.5098 0.81078 22.5783L0.813217 22.5798L0.847054 22.6101C0.914276 22.6704 1.00444 22.7073 1.1026 22.7073H4.86453C4.96664 22.7073 5.06436 22.6657 5.14087 22.5916C5.20944 22.5221 5.25282 22.4238 5.25282 22.319V20.5905V20.0905H5.75282H5.76908H11.0427H11.4437L11.5308 20.4819C11.9561 22.3934 13.1702 23.7336 14.7464 24.5247L14.7467 24.5248C15.88 25.0946 17.2007 25.3796 18.5342 25.3764H18.5353C19.8649 25.3764 21.1964 25.0884 22.355 24.5338C24.0436 23.723 25.3458 22.3577 25.7956 20.4713L25.8871 20.0872H26.2819H26.5585H26.5683L26.5781 20.0876C27.4662 20.1225 28.1997 20.3342 28.7345 20.7739L28.7357 20.7749C29.2525 21.2023 29.5265 21.8148 29.6192 22.5313L29.6234 22.5632V22.5955V25.1213C29.6234 25.1213 29.6234 25.1214 29.6234 25.1215C29.6235 25.1216 29.6237 25.1218 29.6239 25.122C29.6241 25.1222 29.6243 25.1224 29.6244 25.1225C29.6245 25.1225 29.6245 25.1225 29.6246 25.1225H37.2839V25.1224L37.2852 25.1225V19.6567C37.2851 19.6564 37.2851 19.6562 37.2851 19.6559L37.284 19.6453L37.2833 19.6395C36.9275 17.5734 36.1542 15.928 34.9394 14.7225L34.9393 14.7224C33.7302 13.5222 32.0551 12.7331 29.8159 12.435L29.8033 12.4333L29.7908 12.431L29.7715 12.4276L29.7644 12.4264H23.9351H23.5608L23.4554 12.0674L22.4435 8.62247C22.4435 8.62236 22.4435 8.62226 22.4434 8.62217C22.4433 8.62181 22.4432 8.62155 22.4431 8.62136H20.7713H20.2713V8.12136V4.34217V3.84217H20.7713H24.8599C25.3194 3.84217 25.7344 3.65572 26.0391 3.35077L26.0393 3.35062C26.3439 3.04603 26.5308 2.62768 26.5308 2.17125C26.5308 1.71174 26.3444 1.29673 26.0394 0.992032L26.039 0.991585C25.7346 0.686725 25.3165 0.5 24.8599 0.5H12.7286C12.2691 0.5 11.8541 0.686446 11.5494 0.991402L11.5493 0.991551C11.2447 1.29614 11.0577 1.71449 11.0577 2.17092C11.0577 2.63044 11.2442 3.04544 11.5491 3.35014L11.5493 3.35029C11.8539 3.65488 12.2722 3.84184 12.7286 3.84184H16.5892H17.0892V4.34184V8.1207V8.6207H16.5892H14.5905C14.5899 8.6207 14.5895 8.62074 14.5893 8.62076C14.5893 8.62081 14.5891 8.6209 14.5889 8.62108L14.5879 8.62214L14.5878 8.62247L14.5852 8.63467L14.582 8.64672L13.6708 12.0584ZM29.6247 25.1227L29.6246 25.1226L29.6247 25.1227ZM37.2906 25.1225C37.2906 25.1225 37.2905 25.1225 37.2905 25.1225H37.2906Z" stroke="#222222" stroke-opacity="0.8" stroke-miterlimit="10"/>
</svg>
