<svg width="38" height="40" viewBox="0 0 38 40" fill="none" xmlns="http://www.w3.org/2000/svg">
<path d="M34.2909 32.943C33.7451 32.0389 33.1274 30.9806 32.6536 29.6863C32.1796 30.9816 31.5618 32.0402 31.0158 32.9443C30.9667 33.0255 30.9185 33.1051 30.8712 33.1831C30.5442 33.7228 30.26 34.1917 30.0458 34.6361C29.8024 35.1408 29.6739 35.5664 29.6739 35.9634C29.6739 36.9126 29.8801 37.8051 30.3408 38.4466C30.7833 39.0626 31.4965 39.4996 32.6534 39.4996C33.8102 39.4996 34.5234 39.0626 34.9659 38.4465C35.4267 37.805 35.6328 36.9124 35.6328 35.9634C35.6328 35.5663 35.5043 35.1405 35.2609 34.6356C35.0465 34.1905 34.762 33.7209 34.4346 33.1805C34.3876 33.1028 34.3397 33.0237 34.2909 32.943Z" stroke="#222222" stroke-opacity="0.8" stroke-miterlimit="10"/>
<path d="M22.447 8.62122C22.4467 8.62115 22.4468 8.6211 22.4471 8.6213L22.4471 8.62136L22.447 8.62122ZM22.447 8.62122C22.4468 8.62089 22.4468 8.62091 22.447 8.62112C22.447 8.62118 22.447 8.62123 22.4471 8.62127L22.447 8.62122ZM13.6747 12.0584L13.5756 12.4294H13.1916H5.75739H5.25739V11.9294V10.4483C5.25739 10.3499 5.2191 10.2571 5.15761 10.1886L5.15517 10.1871L5.12133 10.1568C5.05411 10.0966 4.96394 10.0597 4.86578 10.0597H1.10319C1.0011 10.0597 0.903416 10.1012 0.82692 10.1753C0.758308 10.2448 0.714905 10.3431 0.714905 10.448V22.3186C0.714905 22.4171 0.753193 22.5098 0.814686 22.5783L0.817123 22.5798L0.85096 22.6101C0.918182 22.6704 1.00835 22.7073 1.10651 22.7073H4.86844C4.97055 22.7073 5.06826 22.6657 5.14477 22.5916C5.21334 22.5221 5.25672 22.4238 5.25672 22.319V20.5905V20.0905H5.75672H5.77299H11.0466H11.4476L11.5347 20.4819C11.96 22.3934 13.1741 23.7336 14.7503 24.5247L14.7506 24.5248C15.8839 25.0946 17.2047 25.3796 18.5381 25.3764H18.5393C19.8688 25.3764 21.2003 25.0884 22.359 24.5338C24.0475 23.723 25.3497 22.3577 25.7995 20.4713L25.8911 20.0872H26.2858H26.5624H26.5722L26.582 20.0876C27.4701 20.1225 28.2036 20.3342 28.7385 20.7739L28.7396 20.7749C29.2564 21.2023 29.5304 21.8148 29.6232 22.5313L29.6273 22.5632V22.5955V25.1213C29.6273 25.1213 29.6273 25.1214 29.6273 25.1215C29.6274 25.1216 29.6276 25.1218 29.6278 25.122C29.628 25.1222 29.6282 25.1224 29.6283 25.1225C29.6284 25.1225 29.6285 25.1225 29.6285 25.1225H37.2878V25.1224L37.2891 25.1225V19.6567C37.289 19.6564 37.289 19.6562 37.289 19.6559L37.2879 19.6453L37.2872 19.6395C36.9314 17.5734 36.1581 15.928 34.9433 14.7225L34.9433 14.7224C33.7341 13.5222 32.059 12.7331 29.8198 12.435L29.8072 12.4333L29.7947 12.431L29.7754 12.4276L29.7683 12.4264H23.939H23.5647L23.4593 12.0674L22.4474 8.62247C22.4474 8.62236 22.4474 8.62226 22.4473 8.62217C22.4472 8.62181 22.4471 8.62155 22.4471 8.62136H20.7752H20.2752V8.12136V4.34217V3.84217H20.7752H24.8638C25.3233 3.84217 25.7383 3.65572 26.043 3.35077L26.0432 3.35062C26.3478 3.04603 26.5347 2.62768 26.5347 2.17125C26.5347 1.71174 26.3483 1.29673 26.0433 0.992032L26.0429 0.991585C25.7385 0.686725 25.3204 0.5 24.8638 0.5H12.7325C12.273 0.5 11.858 0.686446 11.5533 0.991402L11.5532 0.991551C11.2486 1.29614 11.0616 1.71449 11.0616 2.17092C11.0616 2.63044 11.2481 3.04544 11.553 3.35014L11.5532 3.35029C11.8578 3.65488 12.2761 3.84184 12.7325 3.84184H16.5931H17.0931V4.34184V8.1207V8.6207H16.5931H14.5944C14.5938 8.6207 14.5934 8.62074 14.5933 8.62076C14.5932 8.62081 14.593 8.6209 14.5928 8.62108L14.5919 8.62214L14.5917 8.62247L14.5891 8.63467L14.5859 8.64672L13.6747 12.0584ZM29.6286 25.1227L29.6285 25.1226L29.6286 25.1227ZM37.2945 25.1225C37.2945 25.1225 37.2945 25.1225 37.2944 25.1225H37.2945Z" stroke="#222222" stroke-opacity="0.8" stroke-miterlimit="10"/>
<path d="M21.418 17.706C21.6289 17.8734 21.7961 18.0811 21.9201 18.3286C22.0439 18.5763 22.1058 18.8409 22.1058 19.1219C22.1058 19.4768 22.0155 19.7967 21.8347 20.081C21.6539 20.3657 21.3911 20.59 21.0463 20.754C20.7013 20.9182 20.2945 21 19.826 21H17.2148V14H19.7257C20.2011 14 20.6059 14.0788 20.9408 14.2359C21.2755 14.3932 21.5267 14.6059 21.6941 14.8736C21.8614 15.1416 21.9453 15.4429 21.9453 15.7775C21.9453 16.1927 21.8332 16.5358 21.6089 16.807C21.3844 17.0782 21.0883 17.274 20.72 17.3945C20.9744 17.4348 21.2071 17.5387 21.418 17.706ZM18.1287 17.0231H19.6654C20.0939 17.0231 20.4252 16.9225 20.6597 16.7217C20.8941 16.5209 21.0112 16.2431 21.0112 15.8882C21.0112 15.5335 20.8939 15.2554 20.6597 15.0546C20.4254 14.8538 20.0872 14.7533 19.6454 14.7533H18.1287V17.0231ZM20.8104 19.9256C21.0648 19.7114 21.192 19.4134 21.192 19.0318C21.192 18.6435 21.0579 18.3372 20.7902 18.1127C20.5222 17.8885 20.1641 17.7764 19.7156 17.7764H18.1287V20.2471H19.7457C20.2011 20.2469 20.5558 20.14 20.8104 19.9256Z" fill="#222222" fill-opacity="0.8"/>
</svg>
