<svg width="61" height="101" viewBox="0 0 61 101" fill="none" xmlns="http://www.w3.org/2000/svg">
<path d="M12.8 48.9389H24.6M12.8 66.8103H48.2M12.8 77.0225H48.2M12.8 87.2347H24.6M6.9 99.9999H54.1C55.6648 99.9999 57.1655 99.462 58.2719 98.5044C59.3784 97.5468 60 96.248 60 94.8938V38.7267C60 37.3725 59.3784 36.0737 58.2719 35.1161C57.1655 34.1586 55.6648 33.6206 54.1 33.6206H6.9C5.33522 33.6206 3.83453 34.1586 2.72807 35.1161C1.62161 36.0737 1 37.3725 1 38.7267V94.8938C1 96.248 1.62161 97.5468 2.72807 98.5044C3.83453 99.462 5.33522 99.9999 6.9 99.9999Z" stroke="black" stroke-width="2" stroke-linecap="round" stroke-linejoin="round"/>
<path d="M45.1737 50.2995C45.8219 50.2995 46.3474 49.8465 46.3474 49.2877C46.3474 48.7289 45.8219 48.2759 45.1737 48.2759C44.5255 48.2759 44 48.7289 44 49.2877C44 49.8465 44.5255 50.2995 45.1737 50.2995Z" fill="black" stroke="black" stroke-width="0.5"/>
<path d="M23.7793 34.5367H25.6573H27.8482H33.169H44.9061V18.2841H51.9484L28.4742 0L5 18.2841H12.0423V34.5367H23.7793Z" fill="black"/>
</svg>
