<svg width="241" height="240" viewBox="0 0 241 240" fill="none" xmlns="http://www.w3.org/2000/svg">
<path d="M156.395 151.997L179.072 151.681L217.267 113.486L217.94 71.2873L169.419 22.7666L127.223 23.4298L89.022 61.6307L88.7025 83.9139L62.2683 84.384L21.9291 124.723L21.2691 166.922L73.5818 219.235L115.776 218.57L156.122 178.225L156.395 151.997ZM107.705 195.43L79.5404 195.877L44.6268 160.964L45.0743 132.799L71.9942 105.879L89.6227 105.56L134.802 150.999L134.612 168.497L107.705 195.43ZM180.466 110.732L153.135 138.063L102.441 87.3694L129.772 60.038L123.804 54.0695L153.429 55.7613L179.965 57.2699C181.34 57.3467 183.158 59.1642 183.234 60.5394L184.743 87.0752L186.435 116.701L180.466 110.732Z" fill="#FF984D" fill-opacity="0.15"/>
<path d="M111.712 188.82C110.188 188.818 108.664 188.805 107.141 188.82C106.504 188.826 106.046 188.658 106.014 187.933C106 187.615 105.814 187.555 105.548 187.56C105.167 187.567 104.786 187.565 104.405 187.56C103.567 187.547 103.343 187.333 103.309 186.519C103.279 185.757 103.277 185.754 102.575 186.051C100.805 186.8 99.0749 187.678 97.0992 187.774C96.792 187.788 96.7486 188.001 96.6808 188.238C96.2056 189.891 94.81 190.531 93.2732 189.785C92.9903 189.648 92.7712 189.655 92.5 189.78C91.1802 190.389 90.182 190.134 89.3535 188.97C89.1964 188.749 89.0539 188.671 88.7777 188.737C87.9815 188.926 87.2592 188.728 86.6518 188.19C86.3928 187.961 86.1517 187.901 85.8487 188.042C85.8106 188.059 85.7655 188.081 85.7274 188.075C84.5744 187.908 83.9951 188.758 83.3164 189.431C82.1269 190.609 81.1235 190.608 79.9339 189.419C70.3479 179.833 60.7622 170.248 51.1775 160.662C49.9862 159.471 49.9822 158.464 51.1659 157.281C64.5394 143.906 77.9126 130.532 91.2866 117.159C92.481 115.965 93.4856 115.959 94.667 117.14C104.267 126.74 113.868 136.34 123.468 145.941C124.623 147.096 124.624 148.119 123.466 149.278C115.943 156.803 108.418 164.327 100.894 171.852C100.235 172.51 100.237 172.508 101.097 172.924C101.615 173.173 102.156 173.352 102.707 173.507C103.098 173.617 103.287 173.539 103.308 173.076C103.394 171.252 103.407 171.241 105.256 171.249C105.716 171.251 106.017 171.209 106.047 170.637C106.071 170.191 106.44 170.003 106.864 170.001C108.366 169.993 109.87 169.981 111.372 170.008C112.004 170.019 112.233 170.31 112.238 171.009C112.248 172.766 112.243 174.523 112.244 176.28C112.246 180.281 112.248 184.281 112.25 188.282C112.071 188.461 111.892 188.64 111.712 188.82ZM72.3616 138.301C65.7956 144.867 59.2297 151.433 52.6638 157.999C52.5143 158.148 52.3716 158.306 52.2151 158.448C51.8435 158.784 51.813 159.117 52.1946 159.468C52.3658 159.626 52.5232 159.799 52.6877 159.963C61.929 169.201 71.1686 178.441 80.4136 187.674C81.7504 189.009 81.4299 189.107 82.9562 187.57C82.9711 187.555 82.9844 187.538 82.9993 187.523C83.166 187.357 83.2247 187.171 83.1103 186.95C82.8702 186.485 82.795 185.986 82.8191 185.472C82.8338 185.154 82.7153 184.994 82.3799 185.018C82.1902 185.031 81.9989 185.021 81.8088 185.018C79.8794 184.998 78.8838 183.482 79.6575 181.722C79.77 181.466 79.7935 181.268 79.6558 181.012C79.2794 180.312 79.2727 179.589 79.64 178.882C79.7798 178.613 79.7917 178.394 79.6425 178.115C79.2809 177.437 79.2718 176.73 79.6255 176.044C79.774 175.755 79.7742 175.523 79.627 175.217C79.0312 173.981 79.5017 172.709 80.7565 172.167C81.0761 172.029 81.2119 171.848 81.2593 171.524C81.3677 170.786 81.5913 170.077 81.9666 169.431C82.4328 168.628 82.933 167.843 83.4129 167.048C83.829 166.358 83.8253 166.356 83.0327 166.308C82.3001 166.264 82.0759 166.029 82.0613 165.273C82.0541 164.893 82.0472 164.511 82.0619 164.131C82.0745 163.808 81.9986 163.614 81.6209 163.594C81.0556 163.564 80.8041 163.224 80.8054 162.667C80.8086 161.207 80.7941 159.746 80.8089 158.286C80.8156 157.636 81.0891 157.373 81.7633 157.372C87.3932 157.37 93.0227 157.373 98.6526 157.383C99.3293 157.384 99.604 157.631 99.6139 158.289C99.6368 159.77 99.6269 161.252 99.62 162.733C99.6185 163.092 99.4978 163.501 99.1202 163.52C98.2796 163.564 98.347 164.099 98.378 164.659C98.3884 164.85 98.3832 165.04 98.3787 165.231C98.3598 166.052 98.1234 166.296 97.3221 166.317C97.0049 166.325 96.6869 166.327 96.3697 166.319C96.0392 166.309 96.026 166.453 96.1409 166.711C96.364 167.212 96.7543 167.576 97.1554 167.916C98.079 168.698 98.4875 169.689 98.4861 170.88C98.4858 171.115 98.3875 171.431 98.7155 171.537C98.9814 171.622 99.1275 171.378 99.2988 171.229C99.3783 171.159 99.4495 171.081 99.5244 171.006C107.048 163.482 114.571 155.959 122.094 148.436C122.917 147.613 122.916 147.607 122.097 146.787C112.663 137.352 103.229 127.918 93.7944 118.484C92.9914 117.681 92.981 117.681 92.1939 118.468C85.5828 125.079 78.9722 131.691 72.3616 138.301ZM88.1887 172.893C87.851 173.198 87.9182 173.496 87.9872 173.786C88.3571 175.345 88.479 176.917 88.2704 178.511C88.2378 178.76 88.243 179.021 88.2742 179.271C88.3595 179.947 88.7058 180.112 89.265 179.724C90.172 179.097 90.6 178.224 90.5107 177.111C90.4648 176.537 90.2897 175.992 90.1445 175.44C90.0299 175.002 90.1071 174.616 90.5675 174.443C91.037 174.267 91.4181 174.427 91.5791 174.914C91.7139 175.321 91.9856 175.412 92.3604 175.385C92.5711 175.37 92.7836 175.379 92.9948 175.373C94.0947 175.343 94.2931 175.532 94.3199 176.632C94.3586 178.206 94.7079 178.609 96.2423 178.851C97.1096 178.987 97.2758 179.174 97.2274 180.072C97.1382 181.741 97.032 183.408 96.9282 185.077C96.856 186.236 96.5766 186.343 98.0722 186.059C99.8374 185.724 101.375 184.774 103.038 184.161C103.251 184.083 103.304 183.913 103.304 183.706C103.302 180.997 103.301 178.289 103.301 175.581C103.302 175.34 103.234 175.18 102.961 175.14C101.178 174.878 99.602 174.067 98.164 173.064C95.6509 171.31 93.0161 170.94 90.1606 171.975C89.7436 172.126 89.3247 172.275 88.9227 172.459C88.637 172.59 88.3783 172.779 88.1887 172.893ZM90.7009 180.608C90.4998 180.842 90.056 181.129 89.5638 181.333C88.4062 181.811 87.3371 181.341 86.8912 180.171C86.6825 179.623 86.6404 179.051 86.7141 178.481C86.9161 176.928 86.7951 175.398 86.4107 173.886C86.1907 173.022 86.4876 172.356 87.1204 171.792C87.5186 171.437 87.9578 171.136 88.4567 170.954C91.0895 169.994 93.736 169.182 96.5159 170.441C96.8112 170.575 96.9023 170.469 96.8375 170.161C96.7391 169.694 96.4208 169.382 96.0848 169.091C95.3328 168.438 94.7509 167.671 94.4708 166.707C94.3708 166.363 94.1571 166.313 93.8531 166.314C91.2504 166.317 88.6485 166.319 86.0458 166.303C85.6718 166.301 85.4756 166.437 85.3226 166.77C84.9872 167.5 84.5532 168.177 84.1167 168.852C83.6463 169.58 83.1834 170.314 82.9342 171.157C82.6858 171.999 82.6837 171.998 83.5356 172.006C85.4393 172.023 86.4386 173.523 85.6806 175.248C85.5603 175.521 85.5198 175.742 85.6736 176.018C86.0509 176.696 86.0451 177.399 85.6989 178.086C85.5541 178.373 85.5216 178.614 85.6878 178.914C86.051 179.57 86.0518 180.261 85.7118 180.923C85.5377 181.262 85.5681 181.528 85.729 181.867C86.2415 182.949 85.8662 184.095 84.8404 184.723C84.3651 185.015 84.2045 185.721 84.5215 186.181C84.7139 186.46 84.972 186.625 85.3343 186.546C85.673 186.472 85.8385 186.244 85.8656 185.919C85.896 185.561 85.8925 185.201 85.9117 184.842C85.9392 184.326 86.1746 183.974 86.7275 184C87.2455 184.024 87.4482 184.382 87.4564 184.866C87.4654 185.395 87.4413 185.925 87.4781 186.452C87.5245 187.112 88.1334 187.439 88.6562 187.109C88.9675 186.913 88.9943 186.591 88.997 186.269C89.0047 185.402 88.9996 184.535 89.0094 183.667C89.0149 183.181 89.2334 182.833 89.7485 182.811C90.3096 182.787 90.5252 183.156 90.5586 183.663C90.5699 183.831 90.5659 184.001 90.5664 184.17C90.5675 185.271 90.5628 186.371 90.5705 187.47C90.5755 188.169 90.8254 188.513 91.3087 188.525C91.7982 188.537 92.0692 188.195 92.0804 187.511C92.0928 186.75 92.0824 185.988 92.0856 185.226C92.0878 184.718 92.0722 184.209 92.1079 183.704C92.1407 183.243 92.4126 182.946 92.8893 182.956C93.368 182.967 93.6076 183.285 93.6348 183.742C93.659 184.143 93.6439 184.546 93.6467 184.948C93.6522 185.879 93.6453 186.81 93.6687 187.74C93.6789 188.161 93.8754 188.492 94.3421 188.519C94.8241 188.546 95.0703 188.247 95.1703 187.807C95.1938 187.705 95.1963 187.597 95.2028 187.492C95.3423 185.297 95.4701 183.101 95.6295 180.907C95.6594 180.489 95.543 180.297 95.1362 180.193C93.7413 179.836 93.0205 178.884 92.8168 177.491C92.7802 177.24 92.8462 176.898 92.3949 176.946C91.9936 176.988 92.0982 177.291 92.0834 177.523C92.0141 178.639 91.6494 179.627 90.7009 180.608ZM110.614 171.589C110.519 171.581 110.396 171.56 110.273 171.559C109.596 171.555 108.917 171.587 108.242 171.544C107.723 171.511 107.553 171.666 107.556 172.207C107.58 175.592 107.567 178.977 107.568 182.362C107.569 183.801 107.589 185.239 107.568 186.678C107.562 187.127 107.715 187.281 108.154 187.258C108.682 187.23 109.212 187.253 109.74 187.252C110.686 187.252 110.708 187.251 110.71 186.329C110.716 181.569 110.71 176.809 110.707 172.049C110.708 171.905 110.741 171.753 110.614 171.589ZM82.439 161.943C82.5981 162.088 82.7986 162.04 82.9824 162.04C87.8263 162.045 92.6702 162.04 97.5138 162.058C97.9838 162.059 98.0884 161.882 98.0696 161.463C98.0427 160.872 98.027 160.276 98.0718 159.687C98.1157 159.109 97.9272 158.92 97.3313 158.927C94.7721 158.956 92.2128 158.937 89.6532 158.935C87.4534 158.934 85.2536 158.929 83.0538 158.935C82.8186 158.936 82.433 158.83 82.4125 159.163C82.3575 160.047 82.3908 160.936 82.3922 161.823C82.3922 161.862 82.422 161.901 82.439 161.943ZM96.7546 164.652C96.8485 164.389 96.8388 164.111 96.7839 163.844C96.7241 163.555 96.4591 163.621 96.2599 163.62C95.054 163.613 93.8485 163.615 92.6426 163.614C89.8295 163.613 87.0165 163.611 84.2034 163.61C83.8886 163.61 83.5714 163.541 83.5771 164.063C83.5828 164.576 83.7357 164.809 84.2732 164.754C84.6082 164.719 84.9491 164.745 85.2878 164.745C88.9258 164.748 92.5647 164.753 96.2027 164.754C96.3869 164.753 96.5857 164.799 96.7546 164.652ZM105.895 172.88C105.65 172.751 105.372 172.792 105.105 172.824C104.794 172.861 104.867 173.13 104.866 173.326C104.865 177.363 104.872 181.4 104.864 185.438C104.863 185.838 104.981 186.007 105.404 186.006C105.825 186.004 106.015 185.887 106.014 185.43C106 181.413 106.004 177.397 106.001 173.381C106 173.216 106.027 173.04 105.895 172.88ZM81.1479 177.56C81.181 177.579 81.2324 177.631 81.2904 177.64C82.1733 177.765 83.0616 177.776 83.9407 177.641C84.2214 177.599 84.3869 177.322 84.3631 177.008C84.3418 176.726 84.1843 176.515 83.9007 176.477C83.0802 176.368 82.2499 176.336 81.4375 176.49C80.9443 176.584 80.7899 177.222 81.1479 177.56ZM84.1808 179.486C84.1431 179.462 84.0772 179.389 84.001 179.376C83.1205 179.231 82.2334 179.199 81.3593 179.382C81.0807 179.44 80.9359 179.719 80.9622 180.032C80.9901 180.362 81.1936 180.541 81.5017 180.55C82.2616 180.569 83.0227 180.571 83.7831 180.557C84.063 180.552 84.248 180.362 84.3385 180.104C84.4142 179.89 84.3615 179.689 84.1808 179.486ZM81.2311 182.321C81.0097 182.493 80.9249 182.712 80.988 182.992C81.0553 183.287 81.2645 183.425 81.5357 183.432C82.2327 183.451 82.9301 183.445 83.6275 183.443C84.0441 183.443 84.3433 183.249 84.3605 182.821C84.3796 182.335 84.0321 182.17 83.6047 182.163C82.9918 182.151 82.3789 182.157 81.7656 182.159C81.5735 182.161 81.3855 182.191 81.2311 182.321ZM84.1161 174.683C84.3289 174.465 84.402 174.275 84.3485 174.048C84.2887 173.795 84.1279 173.611 83.8728 173.605C83.0702 173.587 82.2652 173.571 81.4643 173.612C81.1421 173.629 80.9547 173.901 80.9586 174.242C80.9626 174.557 81.1196 174.773 81.4419 174.813C82.2217 174.91 83.004 174.911 83.7841 174.822C83.9216 174.806 84.0499 174.712 84.1161 174.683Z" fill="#FC6600"/>
<path d="M98.9979 141.681C95.119 137.802 91.2397 133.924 87.362 130.044C86.5503 129.232 86.5526 128.924 87.3695 128.106C88.8942 126.579 90.4184 125.052 91.9477 123.529C92.6517 122.829 92.9871 122.832 93.6965 123.541C101.485 131.328 109.273 139.116 117.059 146.904C117.767 147.612 117.766 147.939 117.059 148.648C115.505 150.206 113.95 151.762 112.392 153.314C111.694 154.009 111.332 154.011 110.635 153.316C106.755 149.44 102.877 145.56 98.9979 141.681ZM104.252 136.334C100.645 132.726 97.0377 129.118 93.4289 125.511C92.8182 124.9 92.8148 124.901 92.1916 125.524C91.159 126.555 90.1388 127.598 89.0909 128.613C88.7346 128.958 88.7372 129.193 89.0898 129.545C96.4171 136.858 103.737 144.178 111.05 151.505C111.407 151.863 111.643 151.847 111.983 151.496C112.999 150.449 114.041 149.428 115.072 148.395C115.69 147.777 115.691 147.774 115.074 147.157C111.468 143.548 107.86 139.941 104.252 136.334Z" fill="#FC6600"/>
<path d="M94.3608 146.285C97.5945 149.519 100.829 152.752 104.062 155.986C104.689 156.614 104.803 157.065 104.436 157.449C104.06 157.842 103.563 157.725 102.918 157.079C96.4501 150.612 89.9827 144.145 83.5156 137.677C82.8692 137.031 82.7517 136.534 83.1473 136.16C83.5289 135.798 83.9891 135.915 84.614 136.54C87.8639 139.787 91.1121 143.036 94.3608 146.285Z" fill="#FC6600"/>
<path d="M71.9286 158.139C74.0373 160.248 76.1461 162.357 78.2544 164.466C78.404 164.616 78.5614 164.76 78.6928 164.924C78.9647 165.264 78.9901 165.634 78.6963 165.962C78.3955 166.299 78.0186 166.276 77.6619 166.046C77.4863 165.934 77.3371 165.777 77.1875 165.628C72.939 161.382 68.6913 157.134 64.444 152.887C64.4291 152.872 64.4141 152.857 64.3992 152.842C63.8344 152.264 63.7323 151.781 64.0981 151.416C64.4677 151.045 64.9295 151.144 65.5113 151.725C67.6515 153.861 69.79 156.001 71.9286 158.139Z" fill="#FC6600"/>
<path d="M83.3768 146.721C81.2656 144.61 79.1544 142.499 77.0432 140.388C76.9085 140.253 76.7714 140.12 76.6441 139.979C76.3499 139.65 76.3041 139.277 76.583 138.942C76.8876 138.577 77.2831 138.587 77.6626 138.852C77.8345 138.973 77.9932 139.117 78.1424 139.266C82.3665 143.487 86.5897 147.709 90.8088 151.935C91.0015 152.128 91.1818 152.343 91.3178 152.578C91.5109 152.91 91.4449 153.246 91.1581 153.496C90.8696 153.747 90.5333 153.748 90.2218 153.531C90.0498 153.411 89.906 153.25 89.7565 153.1C87.6291 150.974 85.503 148.847 83.3768 146.721Z" fill="#FC6600"/>
<path d="M95.9096 144.679C93.8875 142.657 91.8645 140.636 89.8453 138.611C89.6671 138.432 89.4815 138.249 89.3534 138.035C89.1453 137.688 89.1877 137.324 89.4878 137.051C89.7949 136.772 90.1527 136.806 90.4771 137.046C90.6461 137.171 90.7908 137.33 90.9404 137.48C94.9999 141.538 99.0587 145.597 103.117 149.656C103.162 149.701 103.208 149.745 103.252 149.791C103.787 150.338 103.873 150.818 103.498 151.16C103.129 151.497 102.639 151.405 102.111 150.878C100.042 148.814 97.9769 146.745 95.9096 144.679Z" fill="#FC6600"/>
<path d="M78.989 148.611C77.2835 146.906 75.5775 145.201 73.8732 143.495C73.7386 143.36 73.5973 143.231 73.4787 143.082C73.2069 142.742 73.1768 142.365 73.474 142.045C73.7703 141.724 74.1517 141.725 74.5133 141.961C74.6708 142.064 74.8088 142.2 74.943 142.334C78.3699 145.759 81.795 149.184 85.2202 152.61C85.3101 152.7 85.4029 152.787 85.4829 152.885C85.7933 153.264 85.934 153.666 85.5553 154.077C85.235 154.425 84.767 154.381 84.3315 153.948C82.5468 152.174 80.77 150.39 78.989 148.611Z" fill="#FC6600"/>
<path d="M73.8094 153.738C75.5142 155.443 77.2193 157.147 78.9232 158.853C79.0579 158.988 79.2 159.117 79.3148 159.268C79.575 159.608 79.6188 159.978 79.3212 160.309C78.9964 160.67 78.6075 160.624 78.2367 160.367C78.0817 160.26 77.9508 160.117 77.8165 159.983C74.4063 156.574 70.9964 153.165 67.5878 149.755C66.9733 149.14 66.86 148.662 67.2279 148.286C67.5999 147.905 68.0824 148.013 68.6953 148.625C70.4013 150.328 72.1047 152.034 73.8094 153.738Z" fill="#FC6600"/>
<path d="M74.6199 150.516C73.3333 149.231 72.0475 147.946 70.763 146.659C70.6138 146.509 70.4551 146.364 70.3332 146.194C70.0837 145.845 70.0603 145.467 70.3711 145.154C70.6823 144.841 71.0596 144.872 71.4126 145.112C71.5506 145.206 71.6703 145.33 71.7897 145.45C74.4516 148.11 77.1126 150.771 79.7737 153.432C79.8185 153.477 79.8641 153.521 79.9067 153.568C80.3423 154.046 80.4001 154.532 80.0222 154.849C79.5707 155.229 79.1585 155.052 78.7918 154.686C77.4003 153.297 76.0105 151.905 74.6199 150.516Z" fill="#FC6600"/>
<path d="M64.8087 157.128C65.1713 157.516 65.2831 158.1 65.2027 158.698C65.133 159.214 65.2437 159.356 65.7861 159.306C66.9158 159.202 67.9231 159.5 68.6645 160.437C68.8373 160.655 68.9903 160.885 69.0621 161.152C69.1667 161.539 69.0758 161.876 68.6908 162.059C68.3248 162.233 67.9194 162.194 67.7369 161.835C67.1519 160.688 66.1862 160.762 65.1697 160.952C64.8803 161.006 64.6 161.11 64.3118 161.175C63.5114 161.353 63.0738 160.905 63.2771 160.115C63.3878 159.686 63.5404 159.266 63.6208 158.832C63.7447 158.164 63.5806 158.028 62.9078 158.202C62.29 158.36 61.7237 158.646 61.1594 158.936C60.7943 159.122 60.4295 159.181 60.0939 158.894C59.7268 158.581 59.7678 157.954 60.2111 157.697C61.1256 157.164 62.0745 156.695 63.1478 156.572C63.7379 156.505 64.2866 156.605 64.8087 157.128Z" fill="#FC6600"/>
<path d="M61.1067 163.212C59.8964 162.002 58.6839 160.794 57.4769 159.58C56.9805 159.081 56.9089 158.607 57.2574 158.256C57.6013 157.91 58.095 157.975 58.5897 158.468C61.0146 160.884 63.4333 163.307 65.8536 165.728C65.9282 165.803 66.0057 165.877 66.0679 165.962C66.3493 166.343 66.4382 166.751 66.0545 167.098C65.6787 167.437 65.267 167.358 64.9223 167.019C63.9584 166.07 63.0054 165.11 62.0482 164.155C61.7341 163.84 61.4204 163.526 61.1067 163.212Z" fill="#FC6600"/>
<path d="M108.595 174.276C108.299 173.898 108.279 173.514 108.631 173.202C108.981 172.891 109.374 172.93 109.69 173.284C109.991 173.621 109.962 174.007 109.658 174.301C109.325 174.621 108.937 174.585 108.595 174.276Z" fill="#FC6600"/>
<path d="M95.3022 160.98C95.0204 160.62 94.9945 160.227 95.3442 159.918C95.6886 159.614 96.0915 159.646 96.409 160.004C96.7065 160.339 96.6952 160.72 96.3827 161.022C96.0437 161.348 95.6615 161.308 95.3022 160.98Z" fill="#FC6600"/>
</svg>
