<svg width="28" height="22" viewBox="0 0 28 22" fill="none" xmlns="http://www.w3.org/2000/svg">
<path d="M0.2 21.3V14.7H27.8V21.3H0.2Z" stroke="#FC6600" stroke-width="0.4" stroke-miterlimit="10"/>
<path d="M27.468 2.25H0.532C0.238 2.25 0 1.9 0 1.46765V1.28235C0 0.85 0.238 0.5 0.532 0.5H27.468C27.762 0.5 28 0.85 28 1.28235V1.47794C28 1.91029 27.762 2.25 27.468 2.25Z" fill="#FC6600"/>
<path d="M2.16797 14.7059L2.16797 1.73535H1.55927L1.55927 14.7059H2.16797Z" fill="#FC6600"/>
<path d="M7.03906 14.7059L7.03906 1.73535H6.43037L6.43037 14.7059H7.03906Z" fill="#FC6600"/>
<path d="M11.3008 14.7059L11.3008 1.73535H10.6921L10.6921 14.7059H11.3008Z" fill="#FC6600"/>
<path d="M16.168 14.7059L16.168 1.73535H15.5593L15.5593 14.7059H16.168Z" fill="#FC6600"/>
<path d="M20.4336 14.7059L20.4336 1.73535H19.8249L19.8249 14.7059H20.4336Z" fill="#FC6600"/>
<path d="M25.3008 14.7059L25.3008 1.73535H24.6921L24.6921 14.7059H25.3008Z" fill="#FC6600"/>
</svg>
