<svg width="30" height="26" viewBox="0 0 30 26" fill="none" xmlns="http://www.w3.org/2000/svg">
<path fill-rule="evenodd" clip-rule="evenodd" d="M26.4998 4.23335V12.3833C25.5982 12.1583 24.6315 11.9499 23.5999 11.7583C21.0493 11.2916 18.1087 10.9749 14.8595 10.9833C14.7214 10.9833 14.5752 10.9833 14.429 10.9833C14.4128 10.9833 14.3965 10.9833 14.3884 10.9833C11.1473 11.0249 8.22304 11.3916 5.69679 11.8916C4.65704 12.0999 3.69041 12.3249 2.79688 12.5583V4.23335C2.79688 2.63336 4.06406 1.33337 5.62368 1.33337H23.6649C25.2326 1.33337 26.4998 2.62503 26.4998 4.23335Z" stroke="#FC6600" stroke-width="0.8" stroke-miterlimit="10"/>
<path fill-rule="evenodd" clip-rule="evenodd" d="M29 13.2501V24.5166C29 24.6 28.935 24.6666 28.8538 24.6666H27.1317C27.0586 24.6666 27.0017 24.6166 26.9936 24.5416C26.7987 23.3333 25.7752 22.4167 24.5405 22.4167H4.75283C3.51813 22.4167 2.50276 23.3333 2.29968 24.5416C2.29156 24.6166 2.2347 24.6666 2.16159 24.6666H1.14621C1.06498 24.6666 1 24.6 1 24.5166V13.2501C1 13.1417 1.06498 13.0501 1.16246 13.0167C1.67421 12.8584 2.21845 12.7084 2.79518 12.5584C3.68872 12.3251 4.66348 12.0918 5.6951 11.8918C8.22135 11.3918 11.1375 11.0251 14.3867 10.9834C14.403 10.9834 14.4192 10.9834 14.4273 10.9834C14.5735 10.9834 14.7116 10.9834 14.8578 10.9834C18.1071 10.9751 21.0395 11.3001 23.5901 11.7584C24.6217 11.9501 25.5965 12.1584 26.49 12.3834C27.3348 12.5918 28.1146 12.8084 28.8294 13.0251C28.935 13.0501 29 13.1417 29 13.2501Z" stroke="#FC6600" stroke-width="0.8" stroke-miterlimit="10"/>
<path fill-rule="evenodd" clip-rule="evenodd" d="M14.4495 5.96698V10.6475C14.4307 10.6475 14.4119 10.6475 14.4025 10.6475C10.6502 10.7089 7.2646 11.2494 4.33984 11.9865V5.96698C4.33984 4.28397 5.38373 2.92037 6.67212 2.92037H12.1078C13.4056 2.90808 14.4495 4.28397 14.4495 5.96698Z" stroke="#FC6600" stroke-width="0.8" stroke-miterlimit="10"/>
<path fill-rule="evenodd" clip-rule="evenodd" d="M25.0472 5.96698V11.7899C22.1036 11.102 18.6992 10.6352 14.9375 10.6475V5.96698C14.9375 4.28397 15.9814 2.92037 17.2698 2.92037H22.7055C24.0033 2.90808 25.0472 4.28397 25.0472 5.96698Z" stroke="#FC6600" stroke-width="0.8" stroke-miterlimit="10"/>
</svg>
