<svg width="960" height="782" viewBox="0 0 960 782" fill="none" xmlns="http://www.w3.org/2000/svg">
<path d="M212.5 705C227.663 705 240 717.337 240 732.5C240 747.663 227.663 760 212.5 760C197.337 760 185 747.663 185 732.5C185 717.337 197.337 705 212.5 705ZM212.5 756.562C225.768 756.562 236.562 745.768 236.562 732.5C236.562 719.232 225.768 708.438 212.5 708.438C199.232 708.438 188.438 719.232 188.438 732.5C188.438 745.768 199.232 756.562 212.5 756.562ZM200.972 731.285C200.301 731.956 200.301 733.044 200.972 733.715L209.566 742.309C209.902 742.644 210.342 742.812 210.781 742.812C211.221 742.812 211.661 742.644 211.996 742.309C212.668 741.637 212.668 740.55 211.996 739.879L206.337 734.219H222.812C223.762 734.219 224.531 733.45 224.531 732.5C224.531 731.55 223.762 730.781 222.812 730.781H206.337L211.996 725.121C212.668 724.45 212.668 723.362 211.996 722.691C211.325 722.02 210.237 722.019 209.566 722.691L200.972 731.285Z" fill="#FC6600"/>
<path d="M279.5 705C264.337 705 252 717.337 252 732.5C252 747.663 264.337 760 279.5 760C294.663 760 307 747.663 307 732.5C307 717.337 294.663 705 279.5 705ZM279.5 756.562C266.232 756.562 255.438 745.768 255.438 732.5C255.438 719.232 266.232 708.438 279.5 708.438C292.768 708.438 303.562 719.232 303.562 732.5C303.562 745.768 292.768 756.562 279.5 756.562ZM291.028 731.285C291.699 731.956 291.699 733.044 291.028 733.715L282.434 742.309C282.098 742.644 281.658 742.812 281.219 742.812C280.779 742.812 280.339 742.644 280.004 742.309C279.332 741.637 279.332 740.55 280.004 739.879L285.663 734.219H269.188C268.238 734.219 267.469 733.45 267.469 732.5C267.469 731.55 268.238 730.781 269.188 730.781H285.663L280.004 725.121C279.332 724.45 279.332 723.362 280.004 722.691C280.675 722.02 281.763 722.019 282.434 722.691L291.028 731.285Z" fill="#FC6600"/>
<path d="M193.286 216.41V225.86H205.976V231.854H193.286V241.844H207.596V248H185.726V210.254H207.596V216.41H193.286ZM230.99 248L224.834 238.712L219.38 248H211.28L221.054 232.988L211.172 218.084H219.704L225.806 227.318L231.314 218.084H239.414L229.586 232.988L239.522 248H230.99ZM251.188 222.404C252.16 221.036 253.492 219.902 255.184 219.002C256.912 218.066 258.874 217.598 261.07 217.598C263.626 217.598 265.93 218.228 267.982 219.488C270.07 220.748 271.708 222.548 272.896 224.888C274.12 227.192 274.732 229.874 274.732 232.934C274.732 235.994 274.12 238.712 272.896 241.088C271.708 243.428 270.07 245.246 267.982 246.542C265.93 247.838 263.626 248.486 261.07 248.486C258.874 248.486 256.93 248.036 255.238 247.136C253.582 246.236 252.232 245.102 251.188 243.734V262.256H243.628V218.084H251.188V222.404ZM267.01 232.934C267.01 231.134 266.632 229.586 265.876 228.29C265.156 226.958 264.184 225.95 262.96 225.266C261.772 224.582 260.476 224.24 259.072 224.24C257.704 224.24 256.408 224.6 255.184 225.32C253.996 226.004 253.024 227.012 252.268 228.344C251.548 229.676 251.188 231.242 251.188 233.042C251.188 234.842 251.548 236.408 252.268 237.74C253.024 239.072 253.996 240.098 255.184 240.818C256.408 241.502 257.704 241.844 259.072 241.844C260.476 241.844 261.772 241.484 262.96 240.764C264.184 240.044 265.156 239.018 265.876 237.686C266.632 236.354 267.01 234.77 267.01 232.934ZM287.786 208.04V248H280.226V208.04H287.786ZM308.539 248.486C305.659 248.486 303.067 247.856 300.763 246.596C298.459 245.3 296.641 243.482 295.309 241.142C294.013 238.802 293.365 236.102 293.365 233.042C293.365 229.982 294.031 227.282 295.363 224.942C296.731 222.602 298.585 220.802 300.925 219.542C303.265 218.246 305.875 217.598 308.755 217.598C311.635 217.598 314.245 218.246 316.585 219.542C318.925 220.802 320.761 222.602 322.093 224.942C323.461 227.282 324.145 229.982 324.145 233.042C324.145 236.102 323.443 238.802 322.039 241.142C320.671 243.482 318.799 245.3 316.423 246.596C314.083 247.856 311.455 248.486 308.539 248.486ZM308.539 241.898C309.907 241.898 311.185 241.574 312.373 240.926C313.597 240.242 314.569 239.234 315.289 237.902C316.009 236.57 316.369 234.95 316.369 233.042C316.369 230.198 315.613 228.02 314.101 226.508C312.625 224.96 310.807 224.186 308.647 224.186C306.487 224.186 304.669 224.96 303.193 226.508C301.753 228.02 301.033 230.198 301.033 233.042C301.033 235.886 301.735 238.082 303.139 239.63C304.579 241.142 306.379 241.898 308.539 241.898ZM337.251 222.728C338.223 221.144 339.483 219.902 341.031 219.002C342.615 218.102 344.415 217.652 346.431 217.652V225.59H344.433C342.057 225.59 340.257 226.148 339.033 227.264C337.845 228.38 337.251 230.324 337.251 233.096V248H329.691V218.084H337.251V222.728ZM379.333 232.394C379.333 233.474 379.261 234.446 379.117 235.31H357.247C357.427 237.47 358.183 239.162 359.515 240.386C360.847 241.61 362.485 242.222 364.429 242.222C367.237 242.222 369.235 241.016 370.423 238.604H378.577C377.713 241.484 376.057 243.86 373.609 245.732C371.161 247.568 368.155 248.486 364.591 248.486C361.711 248.486 359.119 247.856 356.815 246.596C354.547 245.3 352.765 243.482 351.469 241.142C350.209 238.802 349.579 236.102 349.579 233.042C349.579 229.946 350.209 227.228 351.469 224.888C352.729 222.548 354.493 220.748 356.761 219.488C359.029 218.228 361.639 217.598 364.591 217.598C367.435 217.598 369.973 218.21 372.205 219.434C374.473 220.658 376.219 222.404 377.443 224.672C378.703 226.904 379.333 229.478 379.333 232.394ZM371.503 230.234C371.467 228.29 370.765 226.742 369.397 225.59C368.029 224.402 366.355 223.808 364.375 223.808C362.503 223.808 360.919 224.384 359.623 225.536C358.363 226.652 357.589 228.218 357.301 230.234H371.503ZM406.52 224.294V238.766C406.52 239.774 406.754 240.512 407.222 240.98C407.726 241.412 408.554 241.628 409.706 241.628H413.216V248H408.464C402.092 248 398.906 244.904 398.906 238.712V224.294H395.342V218.084H398.906V210.686H406.52V218.084H413.216V224.294H406.52ZM435.502 217.652C437.77 217.652 439.786 218.156 441.55 219.164C443.314 220.136 444.682 221.594 445.654 223.538C446.662 225.446 447.166 227.75 447.166 230.45V248H439.606V231.476C439.606 229.1 439.012 227.282 437.824 226.022C436.636 224.726 435.016 224.078 432.964 224.078C430.876 224.078 429.22 224.726 427.996 226.022C426.808 227.282 426.214 229.1 426.214 231.476V248H418.654V208.04H426.214V221.81C427.186 220.514 428.482 219.506 430.102 218.786C431.722 218.03 433.522 217.652 435.502 217.652ZM482.165 232.394C482.165 233.474 482.093 234.446 481.949 235.31H460.079C460.259 237.47 461.015 239.162 462.347 240.386C463.679 241.61 465.317 242.222 467.261 242.222C470.069 242.222 472.067 241.016 473.255 238.604H481.409C480.545 241.484 478.889 243.86 476.441 245.732C473.993 247.568 470.987 248.486 467.423 248.486C464.543 248.486 461.951 247.856 459.647 246.596C457.379 245.3 455.597 243.482 454.301 241.142C453.041 238.802 452.411 236.102 452.411 233.042C452.411 229.946 453.041 227.228 454.301 224.888C455.561 222.548 457.325 220.748 459.593 219.488C461.861 218.228 464.471 217.598 467.423 217.598C470.267 217.598 472.805 218.21 475.037 219.434C477.305 220.658 479.051 222.404 480.275 224.672C481.535 226.904 482.165 229.478 482.165 232.394ZM474.335 230.234C474.299 228.29 473.597 226.742 472.229 225.59C470.861 224.402 469.187 223.808 467.207 223.808C465.335 223.808 463.751 224.384 462.455 225.536C461.195 226.652 460.421 228.218 460.133 230.234H474.335ZM523.824 210.308V216.41H508.11V226.076H520.152V232.07H508.11V248H500.55V210.308H523.824ZM556.995 232.394C556.995 233.474 556.923 234.446 556.779 235.31H534.909C535.089 237.47 535.845 239.162 537.177 240.386C538.509 241.61 540.147 242.222 542.091 242.222C544.899 242.222 546.897 241.016 548.085 238.604H556.239C555.375 241.484 553.719 243.86 551.271 245.732C548.823 247.568 545.817 248.486 542.253 248.486C539.373 248.486 536.781 247.856 534.477 246.596C532.209 245.3 530.427 243.482 529.131 241.142C527.871 238.802 527.241 236.102 527.241 233.042C527.241 229.946 527.871 227.228 529.131 224.888C530.391 222.548 532.155 220.748 534.423 219.488C536.691 218.228 539.301 217.598 542.253 217.598C545.097 217.598 547.635 218.21 549.867 219.434C552.135 220.658 553.881 222.404 555.105 224.672C556.365 226.904 556.995 229.478 556.995 232.394ZM549.165 230.234C549.129 228.29 548.427 226.742 547.059 225.59C545.691 224.402 544.017 223.808 542.037 223.808C540.165 223.808 538.581 224.384 537.285 225.536C536.025 226.652 535.251 228.218 534.963 230.234H549.165ZM560.569 232.934C560.569 229.91 561.163 227.228 562.351 224.888C563.575 222.548 565.213 220.748 567.265 219.488C569.353 218.228 571.675 217.598 574.231 217.598C576.463 217.598 578.407 218.048 580.063 218.948C581.755 219.848 583.105 220.982 584.113 222.35V218.084H591.727V248H584.113V243.626C583.141 245.03 581.791 246.2 580.063 247.136C578.371 248.036 576.409 248.486 574.177 248.486C571.657 248.486 569.353 247.838 567.265 246.542C565.213 245.246 563.575 243.428 562.351 241.088C561.163 238.712 560.569 235.994 560.569 232.934ZM584.113 233.042C584.113 231.206 583.753 229.64 583.033 228.344C582.313 227.012 581.341 226.004 580.117 225.32C578.893 224.6 577.579 224.24 576.175 224.24C574.771 224.24 573.475 224.582 572.287 225.266C571.099 225.95 570.127 226.958 569.371 228.29C568.651 229.586 568.291 231.134 568.291 232.934C568.291 234.734 568.651 236.318 569.371 237.686C570.127 239.018 571.099 240.044 572.287 240.764C573.511 241.484 574.807 241.844 576.175 241.844C577.579 241.844 578.893 241.502 580.117 240.818C581.341 240.098 582.313 239.09 583.033 237.794C583.753 236.462 584.113 234.878 584.113 233.042ZM607.913 224.294V238.766C607.913 239.774 608.147 240.512 608.615 240.98C609.119 241.412 609.947 241.628 611.099 241.628H614.609V248H609.857C603.485 248 600.299 244.904 600.299 238.712V224.294H596.735V218.084H600.299V210.686H607.913V218.084H614.609V224.294H607.913ZM648.288 218.084V248H640.674V244.22C639.702 245.516 638.424 246.542 636.84 247.298C635.292 248.018 633.6 248.378 631.764 248.378C629.424 248.378 627.354 247.892 625.554 246.92C623.754 245.912 622.332 244.454 621.288 242.546C620.28 240.602 619.776 238.298 619.776 235.634V218.084H627.336V234.554C627.336 236.93 627.93 238.766 629.118 240.062C630.306 241.322 631.926 241.952 633.978 241.952C636.066 241.952 637.704 241.322 638.892 240.062C640.08 238.766 640.674 236.93 640.674 234.554V218.084H648.288ZM663.307 222.728C664.279 221.144 665.539 219.902 667.087 219.002C668.671 218.102 670.471 217.652 672.487 217.652V225.59H670.489C668.113 225.59 666.313 226.148 665.089 227.264C663.901 228.38 663.307 230.324 663.307 233.096V248H655.747V218.084H663.307V222.728ZM705.39 232.394C705.39 233.474 705.318 234.446 705.174 235.31H683.304C683.484 237.47 684.24 239.162 685.572 240.386C686.904 241.61 688.542 242.222 690.486 242.222C693.294 242.222 695.292 241.016 696.48 238.604H704.634C703.77 241.484 702.114 243.86 699.666 245.732C697.218 247.568 694.212 248.486 690.648 248.486C687.768 248.486 685.176 247.856 682.872 246.596C680.604 245.3 678.822 243.482 677.526 241.142C676.266 238.802 675.636 236.102 675.636 233.042C675.636 229.946 676.266 227.228 677.526 224.888C678.786 222.548 680.55 220.748 682.818 219.488C685.086 218.228 687.696 217.598 690.648 217.598C693.492 217.598 696.03 218.21 698.262 219.434C700.53 220.658 702.276 222.404 703.5 224.672C704.76 226.904 705.39 229.478 705.39 232.394ZM697.56 230.234C697.524 228.29 696.822 226.742 695.454 225.59C694.086 224.402 692.412 223.808 690.432 223.808C688.56 223.808 686.976 224.384 685.68 225.536C684.42 226.652 683.646 228.218 683.358 230.234H697.56ZM708.964 232.934C708.964 229.91 709.558 227.228 710.746 224.888C711.97 222.548 713.626 220.748 715.714 219.488C717.802 218.228 720.124 217.598 722.68 217.598C724.624 217.598 726.478 218.03 728.242 218.894C730.006 219.722 731.41 220.838 732.454 222.242V208.04H740.122V248H732.454V243.572C731.518 245.048 730.204 246.236 728.512 247.136C726.82 248.036 724.858 248.486 722.626 248.486C720.106 248.486 717.802 247.838 715.714 246.542C713.626 245.246 711.97 243.428 710.746 241.088C709.558 238.712 708.964 235.994 708.964 232.934ZM732.508 233.042C732.508 231.206 732.148 229.64 731.428 228.344C730.708 227.012 729.736 226.004 728.512 225.32C727.288 224.6 725.974 224.24 724.57 224.24C723.166 224.24 721.87 224.582 720.682 225.266C719.494 225.95 718.522 226.958 717.766 228.29C717.046 229.586 716.686 231.134 716.686 232.934C716.686 234.734 717.046 236.318 717.766 237.686C718.522 239.018 719.494 240.044 720.682 240.764C721.906 241.484 723.202 241.844 724.57 241.844C725.974 241.844 727.288 241.502 728.512 240.818C729.736 240.098 730.708 239.09 731.428 237.794C732.148 236.462 732.508 234.878 732.508 233.042ZM213.212 279.972C213.212 281.988 212.726 283.878 211.754 285.642C210.818 287.406 209.324 288.828 207.272 289.908C205.256 290.988 202.7 291.528 199.604 291.528H193.286V306H185.726V268.308H199.604C202.52 268.308 205.004 268.812 207.056 269.82C209.108 270.828 210.638 272.214 211.646 273.978C212.69 275.742 213.212 277.74 213.212 279.972ZM199.28 285.426C201.368 285.426 202.916 284.958 203.924 284.022C204.932 283.05 205.436 281.7 205.436 279.972C205.436 276.3 203.384 274.464 199.28 274.464H193.286V285.426H199.28ZM226.14 280.728C227.112 279.144 228.372 277.902 229.92 277.002C231.504 276.102 233.304 275.652 235.32 275.652V283.59H233.322C230.946 283.59 229.146 284.148 227.922 285.264C226.734 286.38 226.14 288.324 226.14 291.096V306H218.58V276.084H226.14V280.728ZM253.696 306.486C250.816 306.486 248.224 305.856 245.92 304.596C243.616 303.3 241.798 301.482 240.466 299.142C239.17 296.802 238.522 294.102 238.522 291.042C238.522 287.982 239.188 285.282 240.52 282.942C241.888 280.602 243.742 278.802 246.082 277.542C248.422 276.246 251.032 275.598 253.912 275.598C256.792 275.598 259.402 276.246 261.742 277.542C264.082 278.802 265.918 280.602 267.25 282.942C268.618 285.282 269.302 287.982 269.302 291.042C269.302 294.102 268.6 296.802 267.196 299.142C265.828 301.482 263.956 303.3 261.58 304.596C259.24 305.856 256.612 306.486 253.696 306.486ZM253.696 299.898C255.064 299.898 256.342 299.574 257.53 298.926C258.754 298.242 259.726 297.234 260.446 295.902C261.166 294.57 261.526 292.95 261.526 291.042C261.526 288.198 260.77 286.02 259.258 284.508C257.782 282.96 255.964 282.186 253.804 282.186C251.644 282.186 249.826 282.96 248.35 284.508C246.91 286.02 246.19 288.198 246.19 291.042C246.19 293.886 246.892 296.082 248.296 297.63C249.736 299.142 251.536 299.898 253.696 299.898ZM282.407 280.404C283.379 279.036 284.711 277.902 286.403 277.002C288.131 276.066 290.093 275.598 292.289 275.598C294.845 275.598 297.149 276.228 299.201 277.488C301.289 278.748 302.927 280.548 304.115 282.888C305.339 285.192 305.951 287.874 305.951 290.934C305.951 293.994 305.339 296.712 304.115 299.088C302.927 301.428 301.289 303.246 299.201 304.542C297.149 305.838 294.845 306.486 292.289 306.486C290.093 306.486 288.149 306.036 286.457 305.136C284.801 304.236 283.451 303.102 282.407 301.734V320.256H274.847V276.084H282.407V280.404ZM298.229 290.934C298.229 289.134 297.851 287.586 297.095 286.29C296.375 284.958 295.403 283.95 294.179 283.266C292.991 282.582 291.695 282.24 290.291 282.24C288.923 282.24 287.627 282.6 286.403 283.32C285.215 284.004 284.243 285.012 283.487 286.344C282.767 287.676 282.407 289.242 282.407 291.042C282.407 292.842 282.767 294.408 283.487 295.74C284.243 297.072 285.215 298.098 286.403 298.818C287.627 299.502 288.923 299.844 290.291 299.844C291.695 299.844 292.991 299.484 294.179 298.764C295.403 298.044 296.375 297.018 297.095 295.686C297.851 294.354 298.229 292.77 298.229 290.934ZM339.255 290.394C339.255 291.474 339.183 292.446 339.039 293.31H317.169C317.349 295.47 318.105 297.162 319.437 298.386C320.769 299.61 322.407 300.222 324.351 300.222C327.159 300.222 329.157 299.016 330.345 296.604H338.499C337.635 299.484 335.979 301.86 333.531 303.732C331.083 305.568 328.077 306.486 324.513 306.486C321.633 306.486 319.041 305.856 316.737 304.596C314.469 303.3 312.687 301.482 311.391 299.142C310.131 296.802 309.501 294.102 309.501 291.042C309.501 287.946 310.131 285.228 311.391 282.888C312.651 280.548 314.415 278.748 316.683 277.488C318.951 276.228 321.561 275.598 324.513 275.598C327.357 275.598 329.895 276.21 332.127 277.434C334.395 278.658 336.141 280.404 337.365 282.672C338.625 284.904 339.255 287.478 339.255 290.394ZM331.425 288.234C331.389 286.29 330.687 284.742 329.319 283.59C327.951 282.402 326.277 281.808 324.297 281.808C322.425 281.808 320.841 282.384 319.545 283.536C318.285 284.652 317.511 286.218 317.223 288.234H331.425ZM352.333 280.728C353.305 279.144 354.565 277.902 356.113 277.002C357.697 276.102 359.497 275.652 361.513 275.652V283.59H359.515C357.139 283.59 355.339 284.148 354.115 285.264C352.927 286.38 352.333 288.324 352.333 291.096V306H344.773V276.084H352.333V280.728ZM375.407 282.294V296.766C375.407 297.774 375.641 298.512 376.109 298.98C376.613 299.412 377.441 299.628 378.593 299.628H382.103V306H377.351C370.979 306 367.793 302.904 367.793 296.712V282.294H364.229V276.084H367.793V268.686H375.407V276.084H382.103V282.294H375.407ZM391.374 272.52C390.042 272.52 388.926 272.106 388.026 271.278C387.162 270.414 386.73 269.352 386.73 268.092C386.73 266.832 387.162 265.788 388.026 264.96C388.926 264.096 390.042 263.664 391.374 263.664C392.706 263.664 393.804 264.096 394.668 264.96C395.568 265.788 396.018 266.832 396.018 268.092C396.018 269.352 395.568 270.414 394.668 271.278C393.804 272.106 392.706 272.52 391.374 272.52ZM395.1 276.084V306H387.54V276.084H395.1ZM430.38 290.394C430.38 291.474 430.308 292.446 430.164 293.31H408.294C408.474 295.47 409.23 297.162 410.562 298.386C411.894 299.61 413.532 300.222 415.476 300.222C418.284 300.222 420.282 299.016 421.47 296.604H429.624C428.76 299.484 427.104 301.86 424.656 303.732C422.208 305.568 419.202 306.486 415.638 306.486C412.758 306.486 410.166 305.856 407.862 304.596C405.594 303.3 403.812 301.482 402.516 299.142C401.256 296.802 400.626 294.102 400.626 291.042C400.626 287.946 401.256 285.228 402.516 282.888C403.776 280.548 405.54 278.748 407.808 277.488C410.076 276.228 412.686 275.598 415.638 275.598C418.482 275.598 421.02 276.21 423.252 277.434C425.52 278.658 427.266 280.404 428.49 282.672C429.75 284.904 430.38 287.478 430.38 290.394ZM422.55 288.234C422.514 286.29 421.812 284.742 420.444 283.59C419.076 282.402 417.402 281.808 415.422 281.808C413.55 281.808 411.966 282.384 410.67 283.536C409.41 284.652 408.636 286.218 408.348 288.234H422.55ZM447.346 306.486C444.898 306.486 442.702 306.054 440.758 305.19C438.814 304.29 437.266 303.084 436.114 301.572C434.998 300.06 434.386 298.386 434.278 296.55H441.892C442.036 297.702 442.594 298.656 443.566 299.412C444.574 300.168 445.816 300.546 447.292 300.546C448.732 300.546 449.848 300.258 450.64 299.682C451.468 299.106 451.882 298.368 451.882 297.468C451.882 296.496 451.378 295.776 450.37 295.308C449.398 294.804 447.832 294.264 445.672 293.688C443.44 293.148 441.604 292.59 440.164 292.014C438.76 291.438 437.536 290.556 436.492 289.368C435.484 288.18 434.98 286.578 434.98 284.562C434.98 282.906 435.448 281.394 436.384 280.026C437.356 278.658 438.724 277.578 440.488 276.786C442.288 275.994 444.394 275.598 446.806 275.598C450.37 275.598 453.214 276.498 455.338 278.298C457.462 280.062 458.632 282.456 458.848 285.48H451.612C451.504 284.292 451 283.356 450.1 282.672C449.236 281.952 448.066 281.592 446.59 281.592C445.222 281.592 444.16 281.844 443.404 282.348C442.684 282.852 442.324 283.554 442.324 284.454C442.324 285.462 442.828 286.236 443.836 286.776C444.844 287.28 446.41 287.802 448.534 288.342C450.694 288.882 452.476 289.44 453.88 290.016C455.284 290.592 456.49 291.492 457.498 292.716C458.542 293.904 459.082 295.488 459.118 297.468C459.118 299.196 458.632 300.744 457.66 302.112C456.724 303.48 455.356 304.56 453.556 305.352C451.792 306.108 449.722 306.486 447.346 306.486Z" fill="#FC6600"/>
<path opacity="0.08" d="M70 50H940C951.046 50 960 58.9543 960 70V782H70V50Z" fill="#FC6600"/>
<circle cx="3" cy="3" r="3" transform="matrix(1 0 0 -1 829 126.863)" fill="#FC6600"/>
<circle cx="3" cy="3" r="3" transform="matrix(1 0 0 -1 883.582 126.863)" fill="#FC6600"/>
<circle cx="3" cy="3" r="3" transform="matrix(1 0 0 -1 856.293 126.863)" fill="#FC6600"/>
<circle cx="3" cy="3" r="3" transform="matrix(1 0 0 -1 910.875 126.863)" fill="#FC6600"/>
<circle cx="3" cy="3" r="3" transform="matrix(1 0 0 -1 829 102.691)" fill="#FC6600"/>
<circle cx="3" cy="3" r="3" transform="matrix(1 0 0 -1 883.582 102.691)" fill="#FC6600"/>
<circle cx="3" cy="3" r="3" transform="matrix(1 0 0 -1 856.293 102.691)" fill="#FC6600"/>
<circle cx="3" cy="3" r="3" transform="matrix(1 0 0 -1 910.875 102.691)" fill="#FC6600"/>
<circle cx="3" cy="3" r="3" transform="matrix(1 0 0 -1 829 78.5185)" fill="#FC6600"/>
<circle cx="3" cy="3" r="3" transform="matrix(1 0 0 -1 883.582 78.5185)" fill="#FC6600"/>
<circle cx="3" cy="3" r="3" transform="matrix(1 0 0 -1 856.293 78.5185)" fill="#FC6600"/>
<circle cx="3" cy="3" r="3" transform="matrix(1 0 0 -1 910.875 78.5185)" fill="#FC6600"/>
<circle cx="3" cy="3" r="3" transform="matrix(1 0 0 -1 829 54.3452)" fill="#FC6600"/>
<circle cx="3" cy="3" r="3" transform="matrix(1 0 0 -1 883.582 54.3452)" fill="#FC6600"/>
<circle cx="3" cy="3" r="3" transform="matrix(1 0 0 -1 856.293 54.3452)" fill="#FC6600"/>
<circle cx="3" cy="3" r="3" transform="matrix(1 0 0 -1 910.875 54.3452)" fill="#FC6600"/>
<circle cx="3" cy="3" r="3" transform="matrix(1 0 0 -1 829 30.1728)" fill="#FC6600"/>
<circle cx="3" cy="3" r="3" transform="matrix(1 0 0 -1 883.582 30.1727)" fill="#FC6600"/>
<circle cx="3" cy="3" r="3" transform="matrix(1 0 0 -1 856.293 30.1727)" fill="#FC6600"/>
<circle cx="3" cy="3" r="3" transform="matrix(1 0 0 -1 910.875 30.1727)" fill="#FC6600"/>
<circle cx="3" cy="3" r="3" transform="matrix(1 0 0 -1 829 6.00018)" fill="#FC6600"/>
<circle cx="3" cy="3" r="3" transform="matrix(1 0 0 -1 883.582 6.00037)" fill="#FC6600"/>
<circle cx="3" cy="3" r="3" transform="matrix(1 0 0 -1 856.293 6.00037)" fill="#FC6600"/>
<circle cx="3" cy="3" r="3" transform="matrix(1 0 0 -1 910.875 6.00037)" fill="#FC6600"/>
<circle cx="123.863" cy="447" r="3" transform="rotate(90 123.863 447)" fill="#FC6600"/>
<circle cx="123.863" cy="501.583" r="3" transform="rotate(90 123.863 501.583)" fill="#FC6600"/>
<circle cx="123.863" cy="474.292" r="3" transform="rotate(90 123.863 474.292)" fill="#FC6600"/>
<circle cx="123.863" cy="528.875" r="3" transform="rotate(90 123.863 528.875)" fill="#FC6600"/>
<circle cx="99.6914" cy="447" r="3" transform="rotate(90 99.6914 447)" fill="#FC6600"/>
<circle cx="99.6914" cy="501.583" r="3" transform="rotate(90 99.6914 501.583)" fill="#FC6600"/>
<circle cx="99.6914" cy="474.292" r="3" transform="rotate(90 99.6914 474.292)" fill="#FC6600"/>
<circle cx="99.6914" cy="528.875" r="3" transform="rotate(90 99.6914 528.875)" fill="#FC6600"/>
<circle cx="75.5195" cy="447" r="3" transform="rotate(90 75.5195 447)" fill="#FC6600"/>
<circle cx="75.5195" cy="501.583" r="3" transform="rotate(90 75.5195 501.583)" fill="#FC6600"/>
<circle cx="75.5195" cy="474.292" r="3" transform="rotate(90 75.5195 474.292)" fill="#FC6600"/>
<circle cx="75.5195" cy="528.875" r="3" transform="rotate(90 75.5195 528.875)" fill="#FC6600"/>
<circle cx="51.3438" cy="447" r="3" transform="rotate(90 51.3438 447)" fill="#FC6600"/>
<circle cx="51.3438" cy="501.583" r="3" transform="rotate(90 51.3438 501.583)" fill="#FC6600"/>
<circle cx="51.3438" cy="474.292" r="3" transform="rotate(90 51.3438 474.292)" fill="#FC6600"/>
<circle cx="51.3438" cy="528.875" r="3" transform="rotate(90 51.3438 528.875)" fill="#FC6600"/>
<circle cx="27.1719" cy="447" r="3" transform="rotate(90 27.1719 447)" fill="#FC6600"/>
<circle cx="27.1719" cy="501.583" r="3" transform="rotate(90 27.1719 501.583)" fill="#FC6600"/>
<circle cx="27.1719" cy="474.292" r="3" transform="rotate(90 27.1719 474.292)" fill="#FC6600"/>
<circle cx="27.1719" cy="528.875" r="3" transform="rotate(90 27.1719 528.875)" fill="#FC6600"/>
<circle cx="3" cy="447" r="3" transform="rotate(90 3 447)" fill="#FC6600"/>
<circle cx="3" cy="501.583" r="3" transform="rotate(90 3 501.583)" fill="#FC6600"/>
<circle cx="3" cy="474.292" r="3" transform="rotate(90 3 474.292)" fill="#FC6600"/>
<circle cx="3" cy="528.875" r="3" transform="rotate(90 3 528.875)" fill="#FC6600"/>
</svg>
