<svg width="30" height="30" viewBox="0 0 30 30" fill="none" xmlns="http://www.w3.org/2000/svg">
<path d="M20.2703 29.4988V28.9988V26.9911C20.2703 26.9895 20.2701 26.9887 20.2698 26.988C20.2693 26.9869 20.2683 26.9853 20.2666 26.9836C20.2649 26.9819 20.2633 26.9809 20.2623 26.9805C20.2616 26.9802 20.2609 26.98 20.2593 26.98C20.257 26.98 20.2559 26.9803 20.2551 26.9806C20.2546 26.9809 20.254 26.9812 20.2534 26.9816C20.2527 26.982 20.252 26.9826 20.2514 26.9833C20.25 26.9846 20.2493 26.9858 20.2489 26.9867C20.2488 26.987 20.2487 26.9873 20.2485 26.9879C20.2484 26.9886 20.2482 26.9896 20.2482 26.9911V28.9988V29V29.5H19.7482H17.5194H17.0194V29V25.5301C17.0194 25.5277 17.019 25.5265 17.0187 25.5257C17.0182 25.5247 17.0174 25.5233 17.0161 25.522C17.0148 25.5207 17.0136 25.52 17.0127 25.5196C17.0125 25.5195 17.0121 25.5194 17.0115 25.5192C17.0108 25.5191 17.0098 25.519 17.0084 25.519C17.0061 25.519 17.005 25.5193 17.0042 25.5196C17.0032 25.5201 17.0018 25.5209 17.0005 25.5223C16.9997 25.523 16.9991 25.5238 16.9987 25.5244C16.9984 25.5249 16.9982 25.5253 16.998 25.5257C16.9979 25.526 16.9976 25.5266 16.9975 25.5278C16.9974 25.5284 16.9973 25.5291 16.9973 25.5301V29V29.5H16.4973H14.2793H13.7793V29V26.9923C13.7793 26.9899 13.7789 26.9887 13.7786 26.9879C13.7781 26.9868 13.7773 26.9855 13.776 26.9842C13.7752 26.9834 13.7745 26.9829 13.7739 26.9825C13.7734 26.9822 13.773 26.9819 13.7726 26.9818C13.7722 26.9816 13.771 26.9811 13.7683 26.9811C13.7659 26.9811 13.7648 26.9815 13.7641 26.9818C13.7636 26.982 13.7631 26.9823 13.7626 26.9826C13.7619 26.9831 13.7611 26.9837 13.7603 26.9844C13.759 26.9858 13.7583 26.987 13.7579 26.9879C13.7577 26.9884 13.7572 26.9895 13.7572 26.9923V29V29.5H13.2572H10.9436H10.4436V29V25.5301C10.4436 25.5285 10.4434 25.5277 10.443 25.527C10.4426 25.5259 10.4416 25.5243 10.4399 25.5226C10.4382 25.5209 10.4366 25.5199 10.4355 25.5195C10.4349 25.5192 10.4342 25.519 10.4326 25.519C10.4302 25.519 10.4291 25.5193 10.4284 25.5196C10.4274 25.5201 10.426 25.5209 10.4246 25.5223C10.4239 25.523 10.4234 25.5236 10.423 25.5243C10.4226 25.5248 10.4224 25.5253 10.4222 25.5257C10.4221 25.526 10.4219 25.5264 10.4218 25.5271C10.4216 25.5278 10.4215 25.5288 10.4215 25.5301V29V29.5H9.92153H7.64961H7.14961V29V26.9923C7.14961 26.9899 7.14921 26.9887 7.14889 26.9879C7.14843 26.9868 7.14759 26.9855 7.14628 26.9842C7.14563 26.9835 7.145 26.983 7.14443 26.9826C7.14386 26.9822 7.14335 26.982 7.14295 26.9818C7.14248 26.9816 7.14137 26.9811 7.13858 26.9811C7.13625 26.9811 7.13515 26.9815 7.13442 26.9818C7.13337 26.9823 7.132 26.9831 7.13066 26.9844C7.12992 26.9852 7.12937 26.9859 7.12895 26.9865C7.12862 26.987 7.12838 26.9875 7.12822 26.9879C7.128 26.9884 7.12755 26.9895 7.12755 26.9923V29V29.5H6.62755H4.36777H3.86777V29V25.5301C3.86777 25.5277 3.86737 25.5265 3.86705 25.5257C3.86659 25.5247 3.86575 25.5233 3.86444 25.522C3.86314 25.5207 3.86193 25.52 3.86111 25.5196C3.86064 25.5194 3.85953 25.519 3.85674 25.519C3.85442 25.519 3.85331 25.5193 3.85258 25.5196C3.85153 25.5201 3.85016 25.5209 3.84882 25.5223C3.84749 25.5236 3.84675 25.5248 3.84638 25.5257C3.84616 25.5262 3.84571 25.5274 3.84571 25.5301V28.9878V29.4878H3.34571H1.36483C1.12274 29.4878 0.907872 29.387 0.75464 29.234C0.601141 29.0807 0.500229 28.8656 0.500229 28.6235V19.0427V18.5427H1.00023H2.87111C2.87344 18.5427 2.87454 18.5423 2.87527 18.542C2.87632 18.5416 2.87769 18.5407 2.87903 18.5394C2.88036 18.5381 2.8811 18.5368 2.88147 18.5359C2.88169 18.5354 2.88214 18.5343 2.88214 18.5315C2.88214 18.5291 2.88174 18.5279 2.88142 18.5272C2.88096 18.5261 2.88012 18.5247 2.87881 18.5234C2.87809 18.5227 2.87738 18.5221 2.87676 18.5217C2.87628 18.5214 2.87584 18.5212 2.87548 18.521C2.87501 18.5208 2.8739 18.5204 2.87111 18.5204H1.00023H0.500229V18.0204V15.9614V15.4614H1.00023H4.25296C4.25529 15.4614 4.25639 15.461 4.25712 15.4607C4.25817 15.4602 4.25954 15.4594 4.26088 15.4581C4.26221 15.4567 4.26295 15.4555 4.26332 15.4546C4.26354 15.4541 4.264 15.453 4.264 15.4502C4.264 15.4478 4.26359 15.4466 4.26327 15.4458C4.26281 15.4447 4.26197 15.4434 4.26066 15.4421C4.25937 15.4408 4.25815 15.44 4.25733 15.4397C4.25686 15.4395 4.25575 15.439 4.25296 15.439H1.00023H0.500229V14.939V12.836V12.336H1.00023H2.87111C2.87344 12.336 2.87454 12.3357 2.87527 12.3353C2.87632 12.3349 2.87769 12.3341 2.87903 12.3327C2.88036 12.3314 2.8811 12.3301 2.88147 12.3293C2.88169 12.3288 2.88214 12.3276 2.88214 12.3249C2.88214 12.3224 2.88174 12.3213 2.88142 12.3205C2.88096 12.3194 2.88012 12.318 2.87881 12.3167C2.87752 12.3154 2.8763 12.3147 2.87548 12.3144C2.87501 12.3142 2.8739 12.3137 2.87111 12.3137H1.00023H0.500229V11.8137V9.78648V9.28648H1.00023H4.25296C4.25529 9.28648 4.25639 9.2861 4.25712 9.28579C4.25817 9.28535 4.25954 9.28451 4.26088 9.28318C4.26221 9.28185 4.26295 9.28059 4.26332 9.27973C4.26354 9.27921 4.264 9.27808 4.264 9.27532C4.264 9.27289 4.26359 9.27171 4.26327 9.27094C4.26281 9.26985 4.26197 9.26849 4.26066 9.26717C4.25937 9.26587 4.25815 9.26516 4.25733 9.26481C4.25686 9.26461 4.25575 9.26415 4.25296 9.26415H1.00023H0.500229V8.76415V6.62937V6.12937H1.00023H2.87111C2.87344 6.12937 2.87454 6.12899 2.87527 6.12868C2.87632 6.12824 2.87769 6.1274 2.87903 6.12607C2.88036 6.12475 2.8811 6.12348 2.88147 6.12262C2.88169 6.1221 2.88214 6.12097 2.88214 6.11821C2.88214 6.11578 2.88174 6.1146 2.88142 6.11383C2.88096 6.11275 2.88012 6.11138 2.87881 6.11007C2.87752 6.10877 2.8763 6.10805 2.87548 6.1077C2.87501 6.1075 2.8739 6.10705 2.87111 6.10705H1.00023H0.500229V5.60705V3.53839V3.03839H1.00023H4.25273C4.25506 3.03839 4.25616 3.03801 4.25689 3.03771C4.25794 3.03726 4.25931 3.03643 4.26065 3.03509C4.26198 3.03377 4.26273 3.03251 4.26309 3.03164C4.26331 3.03112 4.26377 3.03 4.26377 3.02723C4.26377 3.0248 4.26337 3.02362 4.26304 3.02285C4.26258 3.02177 4.26174 3.0204 4.26043 3.01909C4.25914 3.01779 4.25792 3.01707 4.2571 3.01673C4.25663 3.01653 4.25553 3.01607 4.25273 3.01607H1H0.5V2.51607V1.36431C0.5 1.12151 0.601641 0.906815 0.7538 0.754352L0.755041 0.753107L0.755043 0.75311C0.907445 0.601473 1.12181 0.5 1.3646 0.5H8.18287C8.42448 0.5 8.64002 0.600397 8.79367 0.754351M20.2703 29.4988L8.43976 1.10755M20.2703 29.4988H20.7703H28.6379C28.8807 29.4988 29.0951 29.3974 29.2475 29.2457L29.2487 29.2445C29.4073 29.0856 29.5 28.8686 29.5 28.6345V21.6677C29.5 21.4259 29.3994 21.211 29.2462 21.0577M20.2703 29.4988L29.2462 21.0577M8.79367 0.754351L8.43976 1.10755M8.79367 0.754351C8.79347 0.754147 8.79326 0.753943 8.79306 0.753739L8.43976 1.10755M8.79367 0.754351C8.94682 0.907585 9.04747 1.12252 9.04747 1.36431V20.7922C9.04747 20.7947 9.04787 20.7958 9.04819 20.7966C9.04865 20.7977 9.04949 20.7991 9.0508 20.8004C9.0521 20.8017 9.05332 20.8024 9.05413 20.8027C9.05441 20.8028 9.05489 20.803 9.0558 20.8032C9.05646 20.8033 9.05733 20.8034 9.0585 20.8034H28.6354C28.8767 20.8034 29.092 20.9035 29.2456 21.0571M8.43976 1.10755C8.50599 1.17368 8.54747 1.26405 8.54747 1.36431V20.7922C8.54747 21.0735 8.7748 21.3034 9.0585 21.3034H28.6354C28.7358 21.3034 28.8263 21.3448 28.8923 21.4109M29.2456 21.0571L28.8923 21.4109M29.2456 21.0571C29.2458 21.0573 29.246 21.0575 29.2462 21.0577M29.2456 21.0571L29.2462 21.0577M28.8923 21.4109L29.2462 21.0577M28.8923 21.4109L29.2462 21.0577" stroke="#FC6600" stroke-miterlimit="10"/>
<path d="M13.0709 8.52846L13 8.60125V8.70285V15.7471C13 16.3564 13.4827 16.8617 14.0919 16.8617H18.0766C18.6859 16.8617 19.1686 16.3564 19.1686 15.7471V11.8901C19.1686 11.5443 19.4398 11.2754 19.7605 11.2754H22.3656C22.6863 11.2754 22.9576 11.5443 22.9576 11.8901V15.7473C22.9576 16.3566 23.4402 16.862 24.0495 16.862H28.0814C28.6907 16.862 29.1733 16.3566 29.1733 15.7473V8.70285V8.60147L29.1027 8.52873L21.8733 1.08017L21.8733 1.08013C21.4465 0.640539 20.7503 0.639767 20.3229 1.07896C20.3229 1.07897 20.3229 1.07898 20.3229 1.079L13.0709 8.52846Z" stroke="#FC6600" stroke-width="0.5" stroke-miterlimit="10"/>
</svg>
