<svg width="23" height="30" viewBox="0 0 23 30" fill="none" xmlns="http://www.w3.org/2000/svg">
<path d="M6.25 1H1V14.3333H6.25V1Z" stroke="#FC6600" stroke-width="0.8" stroke-miterlimit="10"/>
<path d="M7.82114 4.31513H5.10525C4.93677 3.91334 4.49199 3.6333 3.98655 3.66983C3.44742 3.71244 3.00937 4.10815 2.97567 4.59517C2.9285 5.1796 3.44068 5.66663 4.07416 5.66663C4.5459 5.66663 4.95025 5.39876 5.10525 5.02132H7.82788C8.06375 5.02132 8.25244 4.8326 8.21875 4.60735C8.19179 4.43689 8.01657 4.31513 7.82114 4.31513Z" stroke="#FC6600" stroke-width="0.8" stroke-miterlimit="10"/>
<path d="M20.8835 18.769C19.7774 20.492 18.2422 21.2039 17.6791 21.4318C17.3238 21.5457 15.8355 22.0797 15.1115 23.589C14.3071 25.2622 14.7763 27.4551 16.3383 28.9573C12.0077 28.9716 7.677 28.9858 3.34633 29L5.7463 23.4609L1 14.3334H21.9762C21.9762 14.3547 21.9829 14.3832 21.9829 14.4117C22.0299 15.0809 22.0634 16.9321 20.8835 18.769Z" stroke="#FC6600" stroke-width="0.8" stroke-miterlimit="10"/>
<path d="M22 14.0598C22 14.151 21.9933 14.2421 21.9798 14.3333C21.9798 14.3105 21.973 14.2877 21.973 14.2706H6.25V12.4074C6.26348 12.396 6.2837 12.3789 6.29718 12.3675C6.80937 11.9345 7.52375 11.6667 8.30552 11.6667H19.1627C20.733 11.6553 22 12.7322 22 14.0598Z" stroke="#FC6600" stroke-width="0.8" stroke-miterlimit="10"/>
</svg>
