<svg width="35" height="21" viewBox="0 0 35 21" fill="none" xmlns="http://www.w3.org/2000/svg">
<path d="M34.4687 8.44586L31.0265 1.54717C30.9156 1.3249 30.7622 1.12667 30.5748 0.963794C30.3875 0.800919 30.17 0.676593 29.9347 0.597914C29.6994 0.519235 29.4509 0.487743 29.2034 0.505237C28.956 0.522731 28.7144 0.588867 28.4924 0.699871L25.0435 2.42691L17.8744 0.526897C17.739 0.491763 17.5969 0.491763 17.4615 0.526897L10.2924 2.42691L6.84487 0.699871C6.62287 0.588657 6.38115 0.522353 6.13354 0.504749C5.88593 0.487146 5.63729 0.518588 5.40182 0.597278C5.16636 0.675968 4.94868 0.800363 4.76125 0.963352C4.57381 1.12634 4.42029 1.32473 4.30945 1.54717L0.867273 8.44586C0.643329 8.8946 0.606509 9.41404 0.764912 9.88995C0.923314 10.3659 1.26397 10.7593 1.71196 10.9837L5.37543 12.8189L12.8791 18.1865C12.9605 18.2452 13.052 18.2882 13.149 18.3135L21.7848 20.4757C21.8506 20.4922 21.9181 20.5003 21.9859 20.5C22.2005 20.4998 22.4063 20.4143 22.558 20.2622L30.0212 12.7878L33.624 10.9837C34.072 10.7593 34.4126 10.3659 34.571 9.88995C34.7294 9.41404 34.6926 8.8946 34.4687 8.44586ZM27.3171 13.1972L22.4865 9.32154C22.3307 9.19667 22.1343 9.13382 21.9351 9.14504C21.7359 9.15627 21.5478 9.24078 21.407 9.38236C18.8905 11.9216 16.0771 11.6013 14.2838 10.4526C14.2486 10.4309 14.2188 10.4012 14.1968 10.3661C14.1748 10.3309 14.1612 10.2912 14.157 10.2499C14.1522 10.2121 14.1559 10.1737 14.1678 10.1374C14.1797 10.1012 14.1995 10.0681 14.2258 10.0405L20.1548 4.28368H24.7237L28.5572 11.9621L27.3171 13.1972ZM2.30028 9.37695C2.27796 9.3092 2.2833 9.23537 2.31512 9.17154L5.75865 2.2715C5.78128 2.22652 5.81601 2.18876 5.85893 2.1625C5.90185 2.13623 5.95124 2.1225 6.00153 2.12285C6.04321 2.1229 6.08432 2.13261 6.12162 2.15123L9.11852 3.65124L5.43211 11.0405L2.43521 9.54046C2.40287 9.52373 2.37425 9.50062 2.35106 9.47252C2.32787 9.44442 2.31059 9.41191 2.30028 9.37695ZM21.7376 18.7919L13.6955 16.7783L6.82733 11.8648L10.7647 3.97962L17.668 2.14988L19.665 2.67961C19.5123 2.7092 19.3715 2.78296 19.2602 2.89178L13.0937 8.88506C12.8935 9.08545 12.7408 9.32835 12.6469 9.59579C12.553 9.86323 12.5204 10.1484 12.5513 10.4302C12.5823 10.712 12.6761 10.9832 12.8258 11.2238C12.9755 11.4644 13.1772 11.6682 13.4162 11.8202C16.1446 13.5662 19.4545 13.2378 22.025 11.0243L26.1688 14.3513L21.7376 18.7919ZM33.0357 9.37695C33.0246 9.41068 33.0069 9.44188 32.9838 9.46878C32.9606 9.49567 32.9324 9.51774 32.9007 9.53371L29.9038 11.0405L26.2174 3.65124L29.2143 2.15123C29.2461 2.13527 29.2806 2.12574 29.3161 2.12319C29.3515 2.12064 29.3871 2.12512 29.4208 2.13637C29.4544 2.14749 29.4856 2.16515 29.5125 2.18833C29.5393 2.21152 29.5613 2.23978 29.5773 2.2715L33.0208 9.17154C33.0526 9.23537 33.058 9.3092 33.0357 9.37695Z" fill="#222222" fill-opacity="0.6"/>
</svg>
