<svg width="25" height="25" viewBox="0 0 25 25" fill="none" xmlns="http://www.w3.org/2000/svg">
<path d="M12.2845 24.4529C18.812 24.4529 24.2375 19.0389 24.2375 12.4999C24.2375 5.97237 18.8 0.546875 12.2725 0.546875C5.73403 0.546875 0.332031 5.97237 0.332031 12.4999C0.332031 19.0389 5.74553 24.4529 12.2845 24.4529ZM12.285 22.4609C6.75303 22.4609 2.33453 18.0309 2.33453 12.4999C2.33453 6.97988 6.74103 2.53888 12.2725 2.53888C17.792 2.53888 22.233 6.98038 22.245 12.4999C22.2565 18.0314 17.8035 22.4609 12.284 22.4609M9.47153 15.2659C12.2015 18.0079 15.6825 19.7419 17.745 17.6909C17.8181 17.6189 17.8847 17.5406 17.944 17.4569C18.483 16.8594 18.6355 16.0624 17.944 15.5469C17.405 15.1599 16.831 14.7619 15.858 14.0819C15.1785 13.6019 14.733 13.7184 14.206 14.2459L13.737 14.7029C13.5965 14.8319 13.374 14.8204 13.2215 14.7264C12.8115 14.4804 12.12 13.9294 11.4635 13.2734C10.819 12.6284 10.2335 11.9024 10.0105 11.5154C9.92853 11.3864 9.87003 11.1754 10.034 11.0234L10.491 10.5309C11.0185 9.98038 11.1355 9.55837 10.6435 8.86687L9.20203 6.82788C8.70953 6.13637 7.99503 6.26537 7.20953 6.85137C7.15103 6.89837 7.10453 6.94537 7.05753 6.99187C4.99503 9.05437 6.74103 12.5349 9.47153 15.2654" fill="#222222" fill-opacity="0.5"/>
</svg>
