<svg width="66" height="48" viewBox="0 0 66 48" fill="none" xmlns="http://www.w3.org/2000/svg">
<path d="M58.0796 13.3426H7.91406L16.1616 0.804688H49.747L58.0796 13.3426Z" stroke="#222222" stroke-opacity="0.8" stroke-width="0.5" stroke-miterlimit="10"/>
<path d="M65.4224 24.627V37.5976C65.4224 38.685 64.998 39.6946 64.3189 40.4713C63.3852 41.481 62.0272 42.18 60.4145 42.18H5.58213C4.39381 42.18 3.29037 41.7917 2.35669 41.0927C1.25326 40.316 0.574219 39.0733 0.574219 37.6753V24.627H65.4224Z" stroke="#222222" stroke-opacity="0.8" stroke-width="0.5" stroke-miterlimit="10"/>
<path d="M65.4224 24.6269H0.574219L7.95876 13.3428H58.0378L65.4224 24.6269Z" stroke="#222222" stroke-opacity="0.8" stroke-width="0.5" stroke-miterlimit="10"/>
<path d="M62.2393 13.3425H58.805C58.3532 13.3425 58.082 13.0918 58.082 12.841V11.3365C58.082 11.023 58.4435 10.835 58.805 10.835H62.2393C62.6912 10.835 62.9623 11.0857 62.9623 11.3365V12.841C63.0527 13.0918 62.6912 13.3425 62.2393 13.3425Z" stroke="#222222" stroke-opacity="0.8" stroke-width="0.5" stroke-miterlimit="10"/>
<path d="M7.17678 13.3425H3.74254C3.29066 13.3425 3.01953 13.0918 3.01953 12.841V11.3365C3.01953 11.023 3.38104 10.835 3.74254 10.835H7.17678C7.62866 10.835 7.89979 11.0857 7.89979 11.3365V12.841C7.99016 13.0918 7.62866 13.3425 7.17678 13.3425Z" stroke="#222222" stroke-opacity="0.8" stroke-width="0.5" stroke-miterlimit="10"/>
<path d="M15.255 43.1973V45.5958C15.255 46.468 14.4393 47.1949 13.4605 47.1949H4.81407C3.83523 47.1949 3.01953 46.468 3.01953 45.5958V42.1797C3.83523 42.8338 4.89564 43.1973 6.11919 43.1973H15.255Z" fill="#222222" fill-opacity="0.8"/>
<path d="M50.7411 43.1973V45.5958C50.7411 46.468 51.5568 47.1949 52.5356 47.1949H61.182C62.1609 47.1949 62.9766 46.468 62.9766 45.5958V42.1797C62.1609 42.8338 61.1005 43.1973 59.8769 43.1973H50.7411Z" fill="#222222" fill-opacity="0.8"/>
<path d="M11.6602 32.1499H6.53014C5.911 32.1499 5.46875 31.622 5.46875 31.0941V28.1906C5.46875 27.5747 5.99945 27.1348 6.53014 27.1348H11.7487C12.3678 27.1348 12.81 27.6627 12.81 28.1906V31.0941C12.81 31.71 12.2794 32.1499 11.6602 32.1499Z" stroke="#222222" stroke-opacity="0.8" stroke-width="0.5" stroke-miterlimit="10"/>
<path d="M59.4674 32.1499H54.2489C53.6297 32.1499 53.1875 31.622 53.1875 31.0941V28.1906C53.1875 27.5747 53.7182 27.1348 54.2489 27.1348H59.4674C60.0866 27.1348 60.5288 27.6627 60.5288 28.1906V31.0941C60.5288 31.71 60.0866 32.1499 59.4674 32.1499Z" stroke="#222222" stroke-opacity="0.8" stroke-width="0.5" stroke-miterlimit="10"/>
</svg>
