<svg width="48" height="37" viewBox="0 0 48 37" fill="none" xmlns="http://www.w3.org/2000/svg">
<path d="M47.4 25.166V24.766H47H1H0.6V25.166V35.2503V35.6503H1H47H47.4V35.2503V25.166Z" stroke="#222222" stroke-opacity="0.8" stroke-width="0.8" stroke-miterlimit="10"/>
<path d="M46.126 2.72275H1.874C1.391 2.72275 1 2.3282 1 1.84082V1.63194C1 1.14455 1.391 0.75 1.874 0.75H46.126C46.609 0.75 47 1.14455 47 1.63194V1.85242C47 2.33981 46.609 2.72275 46.126 2.72275Z" fill="#222222" fill-opacity="0.8"/>
<path d="M4.5 2.5L5.5 2.5L5.5 24.5H4.5L4.5 2.5Z" stroke="#222222" stroke-opacity="0.8" stroke-miterlimit="10"/>
<path d="M12.5 2.5L13.5 2.5L13.5 24.5H12.5L12.5 2.5Z" stroke="#222222" stroke-opacity="0.8" stroke-miterlimit="10"/>
<path d="M19.5 2.5L20.5 2.5L20.5 24.5H19.5L19.5 2.5Z" stroke="#222222" stroke-opacity="0.8" stroke-miterlimit="10"/>
<path d="M27.5 2.5L28.5 2.5L28.5 24.5H27.5L27.5 2.5Z" stroke="#222222" stroke-opacity="0.8" stroke-miterlimit="10"/>
<path d="M34.5 2.5L35.5 2.5L35.5 24.5H34.5L34.5 2.5Z" stroke="#222222" stroke-opacity="0.8" stroke-miterlimit="10"/>
<path d="M42.5 2.5L43.5 2.5L43.5 24.5H42.5L42.5 2.5Z" stroke="#222222" stroke-opacity="0.8" stroke-miterlimit="10"/>
</svg>
