<svg width="40" height="40" viewBox="0 0 40 40" fill="none" xmlns="http://www.w3.org/2000/svg">
<path fill-rule="evenodd" clip-rule="evenodd" d="M33.5353 9.93995V19.2918C32.4739 19.0336 31.336 18.7946 30.1216 18.5746C27.1191 18.0391 23.6576 17.6758 19.8327 17.6853C19.6701 17.6853 19.498 17.6853 19.3259 17.6853C19.3068 17.6853 19.2876 17.6853 19.2781 17.6853C15.4628 17.7332 12.0204 18.1539 9.04652 18.7276C7.82256 18.9667 6.68466 19.2249 5.63281 19.4926V9.93995C5.63281 8.10401 7.12452 6.6123 8.96046 6.6123H30.1981C32.0436 6.6123 33.5353 8.09445 33.5353 9.93995Z" stroke="#222222" stroke-opacity="0.8" stroke-width="0.8" stroke-miterlimit="10"/>
<path fill-rule="evenodd" clip-rule="evenodd" d="M36.4805 20.2866V33.2148C36.4805 33.3104 36.404 33.3869 36.3084 33.3869H34.2812C34.1951 33.3869 34.1282 33.3295 34.1186 33.2434C33.8891 31.8569 32.6843 30.8051 31.2308 30.8051H7.93727C6.48382 30.8051 5.28854 31.8569 5.04948 33.2434C5.03992 33.3295 4.97299 33.3869 4.88693 33.3869H3.69165C3.59603 33.3869 3.51953 33.3104 3.51953 33.2148V20.2866C3.51953 20.1623 3.59603 20.0572 3.71078 20.0189C4.31319 19.8372 4.95386 19.6651 5.63278 19.493C6.68462 19.2252 7.83209 18.9575 9.04649 18.728C12.0203 18.1543 15.4532 17.7335 19.2781 17.6857C19.2972 17.6857 19.3163 17.6857 19.3259 17.6857C19.498 17.6857 19.6605 17.6857 19.8327 17.6857C23.6575 17.6762 27.1095 18.0491 30.112 18.575C31.3264 18.7949 32.4739 19.034 33.5257 19.2922C34.5202 19.5312 35.4382 19.7799 36.2797 20.0285C36.404 20.0572 36.4805 20.1623 36.4805 20.2866Z" stroke="#222222" stroke-opacity="0.8" stroke-width="0.8" stroke-miterlimit="10"/>
<path fill-rule="evenodd" clip-rule="evenodd" d="M19.354 11.9296V17.3003C19.3319 17.3003 19.3097 17.3003 19.2986 17.3003C14.8815 17.3708 10.8961 17.9911 7.45312 18.8368V11.9296C7.45312 9.99839 8.68196 8.43369 10.1986 8.43369H16.5974C18.1252 8.41959 19.354 9.99839 19.354 11.9296Z" stroke="#222222" stroke-opacity="0.8" stroke-width="0.8" stroke-miterlimit="10"/>
<path fill-rule="evenodd" clip-rule="evenodd" d="M31.8267 11.9296V18.6113C28.3616 17.8219 24.354 17.2862 19.9258 17.3003V11.9296C19.9258 9.99839 21.1546 8.43369 22.6713 8.43369H29.0701C30.5978 8.41959 31.8267 9.99839 31.8267 11.9296Z" stroke="#222222" stroke-opacity="0.8" stroke-width="0.8" stroke-miterlimit="10"/>
</svg>
