<svg width="60" height="36" viewBox="0 0 60 36" fill="none" xmlns="http://www.w3.org/2000/svg">
<g clip-path="url(#clip0_1232_26658)">
<path d="M11.2837 24.4809C14.6397 24.4809 17.3603 21.6491 17.3603 18.156C17.3603 14.6628 14.6397 11.8311 11.2837 11.8311C7.92763 11.8311 5.20703 14.6628 5.20703 18.156C5.20703 21.6491 7.92763 24.4809 11.2837 24.4809Z" stroke="#222222" stroke-opacity="0.8" stroke-width="0.5" stroke-miterlimit="10"/>
<path d="M11.2822 22.8075C13.7507 22.8075 15.7518 20.7246 15.7518 18.1552C15.7518 15.5858 13.7507 13.5029 11.2822 13.5029C8.81364 13.5029 6.8125 15.5858 6.8125 18.1552C6.8125 20.7246 8.81364 22.8075 11.2822 22.8075Z" stroke="#222222" stroke-opacity="0.8" stroke-width="0.5" stroke-miterlimit="10"/>
<path d="M17.4334 27.0055C17.3802 27.4929 17.3589 27.9803 17.3589 28.4677V29.0437C15.7201 27.5926 13.5917 26.7175 11.2823 26.7175C6.35504 26.7175 2.28977 30.6831 1.89602 35.712H0.289062C0.469978 32.9538 1.5874 30.384 3.49233 28.4012C5.57817 26.2302 8.34511 25.0449 11.2823 25.0449C13.5065 25.056 15.6349 25.7428 17.4334 27.0055Z" stroke="#222222" stroke-opacity="0.8" stroke-width="0.5" stroke-miterlimit="10"/>
<path d="M48.7212 24.4809C52.0772 24.4809 54.7978 21.6491 54.7978 18.156C54.7978 14.6628 52.0772 11.8311 48.7212 11.8311C45.3651 11.8311 42.6445 14.6628 42.6445 18.156C42.6445 21.6491 45.3651 24.4809 48.7212 24.4809Z" stroke="#222222" stroke-opacity="0.8" stroke-width="0.5" stroke-miterlimit="10"/>
<path d="M48.7197 22.8075C51.1882 22.8075 53.1893 20.7246 53.1893 18.1552C53.1893 15.5858 51.1882 13.5029 48.7197 13.5029C46.2511 13.5029 44.25 15.5858 44.25 18.1552C44.25 20.7246 46.2511 22.8075 48.7197 22.8075Z" stroke="#222222" stroke-opacity="0.8" stroke-width="0.5" stroke-miterlimit="10"/>
<path d="M59.7146 35.7237H58.1076C57.7139 30.6948 53.6592 26.7293 48.7213 26.7293C46.3481 26.7293 44.1771 27.6486 42.517 29.1662V28.4683C42.517 28.0031 42.4957 27.5489 42.4531 27.0948C44.2836 25.7656 46.4545 25.0566 48.7319 25.0566C51.6798 25.0566 54.4467 26.2529 56.5219 28.4129C58.4162 30.3957 59.5336 32.9656 59.7146 35.7237Z" stroke="#222222" stroke-opacity="0.8" stroke-width="0.5" stroke-miterlimit="10"/>
<path d="M29.9386 14.7217C33.7707 14.7217 36.8773 11.4882 36.8773 7.4995C36.8773 3.51081 33.7707 0.277344 29.9386 0.277344C26.1065 0.277344 23 3.51081 23 7.4995C23 11.4882 26.1065 14.7217 29.9386 14.7217Z" stroke="#222222" stroke-opacity="0.8" stroke-width="0.5" stroke-miterlimit="10"/>
<path d="M29.9363 12.8165C32.7575 12.8165 35.0445 10.436 35.0445 7.49954C35.0445 4.56309 32.7575 2.18262 29.9363 2.18262C27.1151 2.18262 24.8281 4.56309 24.8281 7.49954C24.8281 10.436 27.1151 12.8165 29.9363 12.8165Z" stroke="#222222" stroke-opacity="0.8" stroke-width="0.5" stroke-miterlimit="10"/>
<path d="M42.5172 28.4679V35.7233H40.6868V28.4679C40.6868 22.2981 35.8659 17.2802 29.9383 17.2802C24.0107 17.2802 19.1898 22.2981 19.1898 28.4679V35.7233H17.3594V28.4679C17.3594 27.9805 17.3807 27.4821 17.4339 27.0058C17.7425 24.0593 18.9983 21.3344 21.0415 19.2076C23.4147 16.7375 26.5754 15.375 29.9383 15.375C33.3012 15.375 36.4619 16.7375 38.8351 19.2076C40.8996 21.3565 42.1554 24.1147 42.4534 27.0833C42.4959 27.5485 42.5172 28.0138 42.5172 28.4679Z" stroke="#222222" stroke-opacity="0.8" stroke-width="0.5" stroke-miterlimit="10"/>
</g>
<defs>
<clipPath id="clip0_1232_26658">
<rect width="60" height="36" fill="white"/>
</clipPath>
</defs>
</svg>
