<svg width="38" height="60" viewBox="0 0 38 60" fill="none" xmlns="http://www.w3.org/2000/svg">
<path d="M33.8106 58.9012H4.18822C2.5569 58.9012 1.23594 57.583 1.23594 55.9589V4.0415C1.23594 2.41739 2.55634 1.09922 4.18822 1.09922H33.8106C35.442 1.09922 36.7629 2.41744 36.7629 4.0415V55.9594C36.7629 55.9595 36.7629 55.9595 36.7629 55.9595C36.7623 57.5831 35.4418 58.9012 33.8106 58.9012Z" stroke="#222222" stroke-opacity="0.8" stroke-width="0.8" stroke-miterlimit="10"/>
<path d="M9.66506 37.7356C9.66506 38.5973 8.96414 39.2978 8.09698 39.2978C7.22983 39.2978 6.52891 38.5973 6.52891 37.7356C6.52891 36.874 7.22983 36.1734 8.09698 36.1734C8.96414 36.1734 9.66506 36.874 9.66506 37.7356Z" stroke="#222222" stroke-opacity="0.8" stroke-width="0.8" stroke-miterlimit="10"/>
<path d="M16.9971 37.7356C16.9971 38.5973 16.2962 39.2978 15.429 39.2978C14.5619 39.2978 13.8609 38.5973 13.8609 37.7356C13.8609 36.874 14.5619 36.1734 15.429 36.1734C16.2962 36.1734 16.9971 36.874 16.9971 37.7356Z" stroke="#222222" stroke-opacity="0.8" stroke-width="0.8" stroke-miterlimit="10"/>
<path d="M24.3213 37.7356C24.3213 38.5973 23.6204 39.2978 22.7532 39.2978C21.8861 39.2978 21.1852 38.5973 21.1852 37.7356C21.1852 36.874 21.8861 36.1734 22.7532 36.1734C23.6204 36.1734 24.3213 36.874 24.3213 37.7356Z" stroke="#222222" stroke-opacity="0.8" stroke-width="0.8" stroke-miterlimit="10"/>
<path d="M31.6455 37.7356C31.6455 38.5973 30.9446 39.2978 30.0775 39.2978C29.2103 39.2978 28.5094 38.5973 28.5094 37.7356C28.5094 36.874 29.2103 36.1734 30.0775 36.1734C30.9446 36.1734 31.6455 36.874 31.6455 37.7356Z" stroke="#222222" stroke-opacity="0.8" stroke-width="0.8" stroke-miterlimit="10"/>
<path d="M9.66506 43.6048C9.66506 44.4664 8.96414 45.167 8.09698 45.167C7.22983 45.167 6.52891 44.4664 6.52891 43.6048C6.52891 42.7431 7.22983 42.0426 8.09698 42.0426C8.96414 42.0426 9.66506 42.7431 9.66506 43.6048Z" stroke="#222222" stroke-opacity="0.8" stroke-width="0.8" stroke-miterlimit="10"/>
<path d="M16.9971 43.6048C16.9971 44.4664 16.2962 45.167 15.429 45.167C14.5619 45.167 13.8609 44.4664 13.8609 43.6048C13.8609 42.7431 14.5619 42.0426 15.429 42.0426C16.2962 42.0426 16.9971 42.7431 16.9971 43.6048Z" stroke="#222222" stroke-opacity="0.8" stroke-width="0.8" stroke-miterlimit="10"/>
<path d="M24.3213 43.6048C24.3213 44.4664 23.6204 45.167 22.7532 45.167C21.8861 45.167 21.1852 44.4664 21.1852 43.6048C21.1852 42.7431 21.8861 42.0426 22.7532 42.0426C23.6204 42.0426 24.3213 42.7431 24.3213 43.6048Z" stroke="#222222" stroke-opacity="0.8" stroke-width="0.8" stroke-miterlimit="10"/>
<path d="M31.6455 43.6048C31.6455 44.4664 30.9446 45.167 30.0775 45.167C29.2103 45.167 28.5094 44.4664 28.5094 43.6048C28.5094 42.7431 29.2103 42.0426 30.0775 42.0426C30.9446 42.0426 31.6455 42.7431 31.6455 43.6048Z" stroke="#222222" stroke-opacity="0.8" stroke-width="0.8" stroke-miterlimit="10"/>
<path d="M9.66506 49.4729C9.66506 50.3346 8.96414 51.0352 8.09698 51.0352C7.22983 51.0352 6.52891 50.3346 6.52891 49.4729C6.52891 48.6113 7.22983 47.9107 8.09698 47.9107C8.96414 47.9107 9.66506 48.6113 9.66506 49.4729Z" stroke="#222222" stroke-opacity="0.8" stroke-width="0.8" stroke-miterlimit="10"/>
<path d="M16.9971 49.4729C16.9971 50.3346 16.2962 51.0352 15.429 51.0352C14.5619 51.0352 13.8609 50.3346 13.8609 49.4729C13.8609 48.6113 14.5619 47.9107 15.429 47.9107C16.2962 47.9107 16.9971 48.6113 16.9971 49.4729Z" stroke="#222222" stroke-opacity="0.8" stroke-width="0.8" stroke-miterlimit="10"/>
<path d="M24.3213 49.4729C24.3213 50.3346 23.6204 51.0352 22.7532 51.0352C21.8861 51.0352 21.1852 50.3346 21.1852 49.4729C21.1852 48.6113 21.8861 47.9107 22.7532 47.9107C23.6204 47.9107 24.3213 48.6113 24.3213 49.4729Z" stroke="#222222" stroke-opacity="0.8" stroke-width="0.8" stroke-miterlimit="10"/>
<path d="M31.6455 49.4729C31.6455 50.3346 30.9446 51.0352 30.0775 51.0352C29.2103 51.0352 28.5094 50.3346 28.5094 49.4729C28.5094 48.6113 29.2103 47.9107 30.0775 47.9107C30.9446 47.9107 31.6455 48.6113 31.6455 49.4729Z" stroke="#222222" stroke-opacity="0.8" stroke-width="0.8" stroke-miterlimit="10"/>
<path d="M9.66506 55.3431C9.66506 56.2047 8.96414 56.9053 8.09698 56.9053C7.22983 56.9053 6.52891 56.2047 6.52891 55.3431C6.52891 54.4814 7.22983 53.7809 8.09698 53.7809C8.96414 53.7809 9.66506 54.4814 9.66506 55.3431Z" stroke="#222222" stroke-opacity="0.8" stroke-width="0.8" stroke-miterlimit="10"/>
<path d="M16.9971 55.3431C16.9971 56.2047 16.2962 56.9053 15.429 56.9053C14.5619 56.9053 13.8609 56.2047 13.8609 55.3431C13.8609 54.4814 14.5619 53.7809 15.429 53.7809C16.2962 53.7809 16.9971 54.4814 16.9971 55.3431Z" stroke="#222222" stroke-opacity="0.8" stroke-width="0.8" stroke-miterlimit="10"/>
<path d="M24.3213 55.3431C24.3213 56.2047 23.6204 56.9053 22.7532 56.9053C21.8861 56.9053 21.1852 56.2047 21.1852 55.3431C21.1852 54.4814 21.8861 53.7809 22.7532 53.7809C23.6204 53.7809 24.3213 54.4814 24.3213 55.3431Z" stroke="#222222" stroke-opacity="0.8" stroke-width="0.8" stroke-miterlimit="10"/>
<path d="M31.6455 55.3431C31.6455 56.2047 30.9446 56.9053 30.0775 56.9053C29.2103 56.9053 28.5094 56.2047 28.5094 55.3431C28.5094 54.4814 29.2103 53.7809 30.0775 53.7809C30.9446 53.7809 31.6455 54.4814 31.6455 55.3431Z" stroke="#222222" stroke-opacity="0.8" stroke-width="0.8" stroke-miterlimit="10"/>
<path d="M6.43516 32.425V27.8365H31.5548V32.425H6.43516Z" stroke="#222222" stroke-opacity="0.8" stroke-width="0.8" stroke-miterlimit="10"/>
<path d="M13.7694 19.5865L13.7695 19.5866C14.0038 19.7648 14.2479 19.9309 14.5014 20.0844L13.7694 19.5865ZM13.7694 19.5865C11.7727 18.0689 10.4859 15.6735 10.4859 12.9792C10.4859 8.39366 14.2146 4.67441 18.8168 4.67441C23.419 4.67441 27.1476 8.39366 27.1476 12.9792C27.1476 15.6965 25.8389 18.1093 23.8132 19.6252C23.5779 19.8008 23.3339 19.9645 23.0818 20.114L23.0812 20.1144M13.7694 19.5865L23.0812 20.1144M23.0812 20.1144C21.8342 20.8571 20.3762 21.284 18.8168 21.284C17.2359 21.284 15.7594 20.8456 14.5015 20.0845L23.0812 20.1144ZM22.9818 18.0506L22.9821 18.0503C23.1986 17.873 23.4045 17.6819 23.5971 17.4783C24.7086 16.3051 25.3902 14.7213 25.3902 12.9792C25.3902 9.35744 22.4458 6.42419 18.8168 6.42419C15.1871 6.42419 12.2433 9.35746 12.2433 12.9792C12.2433 14.7032 12.9107 16.2721 14.0022 17.4415C14.1929 17.6471 14.3971 17.8397 14.6132 18.0186C15.7525 18.9645 17.2184 19.5342 18.8168 19.5342C20.3966 19.5342 21.8477 18.9773 22.9818 18.0506Z" stroke="#222222" stroke-opacity="0.8" stroke-width="0.8" stroke-miterlimit="10"/>
<path d="M21.4321 11.4953C21.4321 12.8714 20.3129 13.989 18.9297 13.989C17.5466 13.989 16.4273 12.8714 16.4273 11.4953C16.4273 10.1192 17.5466 9.00156 18.9297 9.00156C20.3129 9.00156 21.4321 10.1192 21.4321 11.4953Z" stroke="#222222" stroke-opacity="0.8" stroke-width="0.8" stroke-miterlimit="10"/>
<mask id="path-21-inside-1_1231_27583" fill="white">
<path d="M23.5584 17.2037C23.3778 17.3947 23.1843 17.5743 22.9806 17.7411C22.2149 16.3574 20.7361 15.418 19.042 15.418C17.3601 15.418 15.8911 16.3435 15.1204 17.7109C14.9173 17.5428 14.7257 17.3621 14.5469 17.1692C14.7621 16.8174 15.021 16.4892 15.3205 16.19C16.3143 15.1992 17.636 14.6533 19.042 14.6533C20.4475 14.6533 21.7692 15.1992 22.763 16.19C23.0722 16.4983 23.339 16.8392 23.5584 17.2037Z"/>
</mask>
<path d="M23.5584 17.2037L24.1396 17.7534L24.5574 17.3118L24.2438 16.791L23.5584 17.2037ZM22.9806 17.7411L22.2807 18.1285L22.7452 18.9679L23.4875 18.36L22.9806 17.7411ZM15.1204 17.7109L14.6105 18.3273L15.3476 18.9372L15.8174 18.1037L15.1204 17.7109ZM14.5469 17.1692L13.8645 16.7517L13.5481 17.2688L13.9603 17.7133L14.5469 17.1692ZM15.3205 16.19L14.7557 15.6234L14.7551 15.624L15.3205 16.19ZM22.9772 16.654C22.8204 16.8198 22.6519 16.9763 22.4737 17.1222L23.4875 18.36C23.7168 18.1722 23.9351 17.9697 24.1396 17.7534L22.9772 16.654ZM23.6806 17.3537C22.7796 15.7257 21.0386 14.618 19.042 14.618V16.218C20.4335 16.218 21.6501 16.9891 22.2807 18.1285L23.6806 17.3537ZM19.042 14.618C17.0598 14.618 15.3301 15.7094 14.4235 17.3181L15.8174 18.1037C16.452 16.9776 17.6605 16.218 19.042 16.218V14.618ZM15.6304 17.0945C15.454 16.9485 15.288 16.7919 15.1334 16.6252L13.9603 17.7133C14.1634 17.9322 14.3806 18.1371 14.6105 18.3273L15.6304 17.0945ZM15.2293 17.5867C15.411 17.2897 15.6304 17.0112 15.8859 16.7559L14.7551 15.624C14.4116 15.9672 14.1132 16.3451 13.8645 16.7517L15.2293 17.5867ZM15.8854 16.7565C16.7289 15.9155 17.8474 15.4533 19.042 15.4533V13.8533C17.4247 13.8533 15.8997 14.4829 14.7557 15.6234L15.8854 16.7565ZM19.042 15.4533C20.2361 15.4533 21.3546 15.9155 22.1981 16.7565L23.3278 15.6234C22.1838 14.4829 20.6589 13.8533 19.042 13.8533V15.4533ZM22.1981 16.7565C22.4615 17.019 22.6876 17.3084 22.8731 17.6164L24.2438 16.791C23.9903 16.37 23.6829 15.9775 23.3278 15.6234L22.1981 16.7565Z" fill="#222222" fill-opacity="0.8" mask="url(#path-21-inside-1_1231_27583)"/>
</svg>
