<svg width="44" height="42" viewBox="0 0 44 42" fill="none" xmlns="http://www.w3.org/2000/svg">
<path d="M29.1224 40.9983V38.1302C29.1224 37.7251 29.4671 37.3999 29.8889 37.3999C30.3107 37.3999 30.6555 37.7284 30.6555 38.1302V40.9983H42.4569C42.6074 40.9983 42.7429 40.9388 42.8422 40.8447C42.9412 40.7502 43 40.6211 43 40.4779V30.5253C43 30.3821 42.9378 30.253 42.8384 30.1585C42.7394 30.064 42.6037 30.0048 42.4531 30.0048H13.0878C12.6622 30.0048 12.3212 29.6764 12.3212 29.2746V1.52044C12.3212 1.37722 12.259 1.24812 12.1596 1.15364C12.0606 1.05917 11.9249 1 11.7743 1H1.5469C1.39634 1 1.2609 1.05951 1.16156 1.15364C1.06256 1.24812 1 1.37722 1 1.52044V3.16581H5.8791C6.30466 3.16581 6.64565 3.49428 6.64565 3.89605C6.64565 4.30117 6.30087 4.62628 5.8791 4.62628H1.00034V7.5815H3.80667C4.23222 7.5815 4.57322 7.90997 4.57322 8.31173C4.57322 8.71685 4.22844 9.04196 3.80667 9.04196H1.00034V12.0916H5.87944C6.305 12.0916 6.64599 12.4201 6.64599 12.8219C6.64599 13.227 6.30122 13.5521 5.87944 13.5521H1.00034V16.4482H3.80667C4.23222 16.4482 4.57322 16.7766 4.57322 17.1784C4.57322 17.5835 4.22844 17.9086 3.80667 17.9086H1.00034V20.9129H5.87944C6.305 20.9129 6.64599 21.2414 6.64599 21.6432C6.64599 22.0483 6.30122 22.3734 5.87944 22.3734H1.00034V25.3148H3.80667C4.23222 25.3148 4.57322 25.6433 4.57322 26.0451C4.57322 26.4502 4.22844 26.7753 3.80667 26.7753H1.00034V40.4621C1.00034 40.6053 1.06256 40.7344 1.1619 40.8289C1.26125 40.9233 1.39668 40.9825 1.54724 40.9825H4.51856V36.043C4.51856 35.6379 4.86334 35.3128 5.28511 35.3128C5.71067 35.3128 6.05166 35.6413 6.05166 36.043V41H9.44132V38.1319C9.44132 37.7267 9.78609 37.4016 10.2079 37.4016C10.6334 37.4016 10.9744 37.7301 10.9744 38.1319V41H14.3823V36.043C14.3823 35.6379 14.7271 35.3128 15.1488 35.3128C15.5706 35.3128 15.9154 35.6413 15.9154 36.043V41H19.3858V38.1319C19.3858 37.7267 19.7306 37.4016 20.1524 37.4016C20.5779 37.4016 20.9189 37.7301 20.9189 38.1319V41H24.246V36.043C24.246 35.6379 24.5908 35.3128 25.0126 35.3128C25.4381 35.3128 25.7791 35.6413 25.7791 36.043V41H29.1224V40.9983Z" stroke="#222222" stroke-opacity="0.8" stroke-width="0.8" stroke-miterlimit="10"/>
<path fill-rule="evenodd" clip-rule="evenodd" d="M15.5586 16.3058L26.4367 5.66368C26.9303 5.18056 27.7313 5.18123 28.2245 5.66502L39.0686 16.3058V26.3694C39.0686 27.0515 38.5032 27.6046 37.8057 27.6046H31.7579C31.0604 27.6046 30.495 27.0515 30.495 26.3694V20.859C30.495 20.1769 29.9295 19.6238 29.232 19.6238H25.3244C24.6269 19.6238 24.0614 20.1769 24.0614 20.859V26.369C24.0614 27.0512 23.496 27.6042 22.7985 27.6042H16.8215C16.1241 27.6042 15.5586 27.0512 15.5586 26.369V16.3058Z" stroke="#222222" stroke-opacity="0.8" stroke-width="0.8" stroke-miterlimit="10"/>
</svg>
