<svg width="52" height="33" viewBox="0 0 52 33" fill="none" xmlns="http://www.w3.org/2000/svg">
<path fill-rule="evenodd" clip-rule="evenodd" d="M9.37959 2.30469L7.33123 8.41437H8.57369C8.59886 8.41437 8.62379 8.41539 8.64844 8.41741C9.11736 8.45251 9.48692 8.84412 9.48692 9.32201V13.8963H28.2554V9.32153C28.2554 8.82054 28.6615 8.41437 29.1625 8.41437H30.4364L28.4293 2.30469H9.37959ZM31.4672 8.41437C31.4604 8.34861 31.4461 8.28218 31.4238 8.21596L29.3582 1.92818L29.3575 1.92612C29.235 1.55862 28.8865 1.30469 28.4943 1.30469H9.31508C8.92303 1.30469 8.57465 1.55837 8.45199 1.92558L8.45181 1.92612L6.34335 8.21505L6.34329 8.21503L6.34095 8.22238C6.32063 8.28626 6.30766 8.35054 6.30152 8.41437H1.90716C1.40617 8.41437 1 8.82054 1 9.32153V14.8517C1 15.3526 1.40617 15.7588 1.90716 15.7588H2.71981V31.7884C2.71981 32.2894 3.12597 32.6956 3.62697 32.6956H8.57369C9.07469 32.6956 9.48086 32.2894 9.48086 31.7884V30.5686H28.2554V31.7823C28.2554 32.2833 28.6615 32.6895 29.1625 32.6895H34.1093C34.6102 32.6895 35.0164 32.2833 35.0164 31.7823V15.7588H35.8291C36.33 15.7588 36.7362 15.3526 36.7362 14.8517V9.32153C36.7362 8.82054 36.33 8.41437 35.8291 8.41437H31.4672ZM29.2554 14.0096C29.2555 14.0028 29.2556 13.996 29.2556 13.9892V9.41484H30.5666C30.5765 9.41484 30.5864 9.41468 30.5962 9.41437H35.7362V14.7588H34.9236C34.4226 14.7588 34.0164 15.165 34.0164 15.666V31.6895H29.2554V14.0096ZM2 9.41437H7.17614C7.18615 9.41468 7.19622 9.41484 7.20635 9.41484H8.48086V14.5546C8.45712 14.6356 8.44439 14.7213 8.44439 14.81V21.5555C8.44439 21.6442 8.45712 21.73 8.48086 21.811V31.6956H3.71981V15.666C3.71981 15.165 3.31364 14.7588 2.81264 14.7588H2V9.41437ZM9.48086 21.4627H28.2131V14.9029H9.48086V21.4627ZM9.48712 23.3429V29.5686H28.2497V23.3429H9.48712Z" fill="#222222" fill-opacity="0.8"/>
<path d="M51.0386 7.61754H41.0333C40.8225 7.61754 40.6799 7.40677 40.7543 7.2084L42.862 1.6912C42.9054 1.57341 43.017 1.49902 43.141 1.49902H48.9247C49.0487 1.49902 49.1603 1.57341 49.2037 1.6912L51.3114 7.2084C51.392 7.40677 51.2494 7.61754 51.0386 7.61754Z" stroke="#222222" stroke-opacity="0.8" stroke-miterlimit="10"/>
<path d="M46.0352 7.61719V31.7565" stroke="#222222" stroke-opacity="0.8" stroke-miterlimit="10"/>
<path d="M49.5869 32.1288C49.5869 32.3334 49.4258 32.5007 49.2336 32.5007H42.8299C42.6377 32.5007 42.4766 32.3334 42.4766 32.1288C42.4766 31.9242 42.6377 31.7568 42.8299 31.7568H49.2398C49.432 31.7568 49.5869 31.9242 49.5869 32.1288Z" stroke="#222222" stroke-opacity="0.8" stroke-miterlimit="10"/>
<line x1="50.2695" y1="0.421136" x2="0.269527" y2="32.4211" stroke="#222222" stroke-opacity="0.8"/>
</svg>
