<svg width="90" height="52" viewBox="0 0 90 52" fill="none" xmlns="http://www.w3.org/2000/svg">
<path d="M81.6616 15.8944H31.4961L39.7436 3.35645H73.3291L81.6616 15.8944Z" stroke="#222222" stroke-opacity="0.8" stroke-width="0.5" stroke-miterlimit="10"/>
<path d="M89.0044 27.1787V40.1494C89.0044 41.2367 88.58 42.2464 87.901 43.0231C86.9673 44.0328 85.6092 44.7318 83.9965 44.7318H29.1642C27.9758 44.7318 26.8724 44.3435 25.9387 43.6444C24.8353 42.8677 24.1562 41.6251 24.1562 40.227V27.1787H89.0044Z" stroke="#222222" stroke-opacity="0.8" stroke-width="0.5" stroke-miterlimit="10"/>
<path d="M89.0044 27.1787H24.1562L31.5408 15.8945H81.6199L89.0044 27.1787Z" stroke="#222222" stroke-opacity="0.8" stroke-width="0.5" stroke-miterlimit="10"/>
<path d="M85.8213 15.8943H82.3871C81.9352 15.8943 81.6641 15.6435 81.6641 15.3928V13.8882C81.6641 13.5748 82.0256 13.3867 82.3871 13.3867H85.8213C86.2732 13.3867 86.5443 13.6375 86.5443 13.8882V15.3928C86.6347 15.6435 86.2732 15.8943 85.8213 15.8943Z" stroke="#222222" stroke-opacity="0.8" stroke-width="0.5" stroke-miterlimit="10"/>
<path d="M30.7588 15.8943H27.3246C26.8727 15.8943 26.6016 15.6435 26.6016 15.3928V13.8882C26.6016 13.5748 26.9631 13.3867 27.3246 13.3867H30.7588C31.2107 13.3867 31.4818 13.6375 31.4818 13.8882V15.3928C31.5722 15.6435 31.2107 15.8943 30.7588 15.8943Z" stroke="#222222" stroke-opacity="0.8" stroke-width="0.5" stroke-miterlimit="10"/>
<path d="M38.8371 45.749V48.1476C38.8371 49.0198 38.0214 49.7466 37.0425 49.7466H28.3961C27.4173 49.7466 26.6016 49.0198 26.6016 48.1476V44.7314C27.4173 45.3856 28.4777 45.749 29.7012 45.749H38.8371Z" fill="#222222" fill-opacity="0.8"/>
<path d="M74.3231 45.749V48.1476C74.3231 49.0198 75.1388 49.7466 76.1176 49.7466H84.7641C85.7429 49.7466 86.5586 49.0198 86.5586 48.1476V44.7314C85.7429 45.3856 84.6825 45.749 83.4589 45.749H74.3231Z" fill="#222222" fill-opacity="0.8"/>
<path d="M35.2422 34.7017H30.1122C29.493 34.7017 29.0508 34.1738 29.0508 33.6459V30.7423C29.0508 30.1264 29.5815 29.6865 30.1122 29.6865H35.3307C35.9498 29.6865 36.3921 30.2144 36.3921 30.7423V33.6459C36.3921 34.2618 35.8614 34.7017 35.2422 34.7017Z" stroke="#222222" stroke-opacity="0.8" stroke-width="0.5" stroke-miterlimit="10"/>
<path d="M83.0494 34.7017H77.8309C77.2118 34.7017 76.7695 34.1738 76.7695 33.6459V30.7423C76.7695 30.1264 77.3002 29.6865 77.8309 29.6865H83.0494C83.6686 29.6865 84.1108 30.2144 84.1108 30.7423V33.6459C84.1108 34.2618 83.6686 34.7017 83.0494 34.7017Z" stroke="#222222" stroke-opacity="0.8" stroke-width="0.5" stroke-miterlimit="10"/>
<path d="M11.3516 45.418H16.4816V49.4571C16.4816 50.3103 15.807 51.0001 14.9727 51.0001H12.8604C12.0261 51.0001 11.3516 50.3103 11.3516 49.4571V45.418Z" fill="#222222" fill-opacity="0.8" stroke="#222222" stroke-opacity="0.8" stroke-width="0.5"/>
<path d="M10.8636 6.53645H2.64787C1.73666 6.53645 1 5.8799 1 5.06905C1 4.66363 1.18638 4.29451 1.48223 4.02826C1.78104 3.76504 2.19227 3.59863 2.64787 3.59863H10.5559C10.4494 3.94657 10.3902 4.31872 10.3902 4.70296C10.3902 4.7907 10.3932 4.87542 10.402 4.96013C10.4375 5.53196 10.6003 6.06446 10.8636 6.53645Z" stroke="#222222" stroke-opacity="0.8" stroke-width="0.5" stroke-miterlimit="10"/>
<path d="M26.8255 5.06905C26.8255 5.47448 26.6391 5.84057 26.3433 6.10682C26.0445 6.37307 25.6332 6.53645 25.1776 6.53645H17.1602C17.4057 6.09472 17.5655 5.59853 17.6128 5.06905L17.6217 4.96013C17.6306 4.87542 17.6335 4.7907 17.6335 4.70296C17.6335 4.31872 17.5773 3.94657 17.4678 3.59863H25.1776C26.0888 3.59863 26.8255 4.2582 26.8255 5.06905Z" stroke="#222222" stroke-opacity="0.8" stroke-width="0.5" stroke-miterlimit="10"/>
<path d="M20.548 15.3438V37.5393C20.548 40.0506 19.2167 42.2411 17.2345 43.412V33.8028C17.2345 32.2446 15.9979 30.983 14.4772 30.983H13.3589C11.8353 30.983 10.6016 32.2446 10.6016 33.8028V43.412C8.61943 42.2411 7.28516 40.0506 7.28516 37.5393V15.3438C7.28516 11.5982 10.2555 8.56055 13.9181 8.56055C15.7494 8.56055 17.4061 9.31996 18.6072 10.5483C19.8054 11.7737 20.548 13.471 20.548 15.3438Z" stroke="#222222" stroke-opacity="0.8" stroke-width="0.5" stroke-miterlimit="10"/>
<path d="M17.2306 33.8032V44.8435C17.2306 45.1612 16.9791 45.4183 16.6684 45.4183H11.1598C10.8491 45.4183 10.5977 45.1612 10.5977 44.8435V33.8032C10.5977 32.2451 11.8313 30.9834 13.355 30.9834H14.4733C15.9939 30.9834 17.2306 32.2451 17.2306 33.8032Z" stroke="#222222" stroke-opacity="0.8" stroke-width="0.5" stroke-miterlimit="10"/>
<path d="M13.9103 16.1123C15.3579 16.1123 16.5315 14.9121 16.5315 13.4316C16.5315 11.9511 15.3579 10.751 13.9103 10.751C12.4626 10.751 11.2891 11.9511 11.2891 13.4316C11.2891 14.9121 12.4626 16.1123 13.9103 16.1123Z" stroke="#222222" stroke-opacity="0.8" stroke-width="0.5" stroke-miterlimit="10"/>
<path d="M17.5383 4.70328C17.5383 4.79102 17.5353 4.87574 17.5264 4.96046L17.5176 5.06938C17.4702 5.59885 17.3105 6.09504 17.0649 6.53677C16.8904 6.8484 16.6714 7.13583 16.417 7.3809C15.7691 8.01627 14.8875 8.40657 13.9171 8.40657C12.9438 8.40657 12.0621 8.01627 11.4142 7.3809C11.1628 7.13583 10.9438 6.8484 10.7663 6.53677C10.503 6.06478 10.3403 5.53229 10.3048 4.96046C10.2959 4.87574 10.293 4.79102 10.293 4.70328C10.293 4.31904 10.3521 3.94689 10.4586 3.59895C10.574 3.21471 10.7515 2.85769 10.9764 2.54001C11.6332 1.60511 12.7071 1 13.9171 1C15.1271 1 16.1981 1.60511 16.8549 2.54001C17.0797 2.85769 17.2572 3.21471 17.3726 3.59895C17.4821 3.94689 17.5383 4.31904 17.5383 4.70328Z" stroke="#222222" stroke-opacity="0.8" stroke-width="0.5" stroke-miterlimit="10"/>
<path d="M25.2038 5.06836H17.5117" stroke="#222222" stroke-opacity="0.8" stroke-width="0.5" stroke-miterlimit="10" stroke-linecap="round" stroke-linejoin="round"/>
<path d="M10.317 5.06836H2.625" stroke="#222222" stroke-opacity="0.8" stroke-width="0.5" stroke-miterlimit="10" stroke-linecap="round" stroke-linejoin="round"/>
</svg>
