<svg width="127" height="85" viewBox="0 0 127 85" fill="none" xmlns="http://www.w3.org/2000/svg">
<ellipse cx="123.859" cy="3.42439" rx="2.86189" ry="3" transform="rotate(90 123.859 3.42439)" fill="#FC6600"/>
<ellipse cx="123.859" cy="55.4947" rx="2.86189" ry="3" transform="rotate(90 123.859 55.4947)" fill="#FC6600"/>
<ellipse cx="123.859" cy="29.4595" rx="2.86189" ry="3" transform="rotate(90 123.859 29.4595)" fill="#FC6600"/>
<ellipse cx="123.859" cy="81.5299" rx="2.86189" ry="3" transform="rotate(90 123.859 81.5299)" fill="#FC6600"/>
<ellipse cx="99.6875" cy="3.42439" rx="2.86189" ry="3" transform="rotate(90 99.6875 3.42439)" fill="#FC6600"/>
<ellipse cx="99.6875" cy="55.4947" rx="2.86189" ry="3" transform="rotate(90 99.6875 55.4947)" fill="#FC6600"/>
<ellipse cx="99.6875" cy="29.4595" rx="2.86189" ry="3" transform="rotate(90 99.6875 29.4595)" fill="#FC6600"/>
<ellipse cx="99.6875" cy="81.5299" rx="2.86189" ry="3" transform="rotate(90 99.6875 81.5299)" fill="#FC6600"/>
<ellipse cx="75.5156" cy="3.42439" rx="2.86189" ry="3" transform="rotate(90 75.5156 3.42439)" fill="#FC6600"/>
<ellipse cx="75.5156" cy="55.4947" rx="2.86189" ry="3" transform="rotate(90 75.5156 55.4947)" fill="#FC6600"/>
<ellipse cx="75.5156" cy="29.4595" rx="2.86189" ry="3" transform="rotate(90 75.5156 29.4595)" fill="#FC6600"/>
<ellipse cx="75.5156" cy="81.5299" rx="2.86189" ry="3" transform="rotate(90 75.5156 81.5299)" fill="#FC6600"/>
<ellipse cx="51.3438" cy="3.42439" rx="2.86189" ry="3" transform="rotate(90 51.3438 3.42439)" fill="#FC6600"/>
<ellipse cx="51.3438" cy="55.4947" rx="2.86189" ry="3" transform="rotate(90 51.3438 55.4947)" fill="#FC6600"/>
<ellipse cx="51.3438" cy="29.4595" rx="2.86189" ry="3" transform="rotate(90 51.3438 29.4595)" fill="#FC6600"/>
<ellipse cx="51.3438" cy="81.5299" rx="2.86189" ry="3" transform="rotate(90 51.3438 81.5299)" fill="#FC6600"/>
<ellipse cx="27.1719" cy="3.42439" rx="2.86189" ry="3" transform="rotate(90 27.1719 3.42439)" fill="#FC6600"/>
<ellipse cx="27.1719" cy="55.4947" rx="2.86189" ry="3" transform="rotate(90 27.1719 55.4947)" fill="#FC6600"/>
<ellipse cx="27.1719" cy="29.4595" rx="2.86189" ry="3" transform="rotate(90 27.1719 29.4595)" fill="#FC6600"/>
<ellipse cx="27.1719" cy="81.5299" rx="2.86189" ry="3" transform="rotate(90 27.1719 81.5299)" fill="#FC6600"/>
<ellipse cx="3" cy="3.42439" rx="2.86189" ry="3" transform="rotate(90 3 3.42439)" fill="#FC6600"/>
<ellipse cx="3" cy="55.4947" rx="2.86189" ry="3" transform="rotate(90 3 55.4947)" fill="#FC6600"/>
<ellipse cx="3" cy="29.4595" rx="2.86189" ry="3" transform="rotate(90 3 29.4595)" fill="#FC6600"/>
<ellipse cx="3" cy="81.5299" rx="2.86189" ry="3" transform="rotate(90 3 81.5299)" fill="#FC6600"/>
</svg>
