<svg width="140" height="143" viewBox="0 0 140 143" fill="none" xmlns="http://www.w3.org/2000/svg">
<path d="M70 0C68.4849 0 66.9976 0.0142052 65.5381 0.0355118L61.2569 0.156249L59.1788 0.248577L55.1548 0.490051L51.3114 0.816752C18.0557 4.11217 4.52405 17.9401 1.29925 51.9241L0.97955 55.8516L0.743251 59.9638C0.708501 60.6598 0.673751 61.37 0.652901 62.0873L0.534751 66.4623L0.506949 68.7208L0.5 71.0219C0.5 72.5702 0.513901 74.09 0.534751 75.5815L0.652901 79.9565L0.743251 82.08L0.97955 86.1922L1.29925 90.1197C4.52405 124.104 18.0557 137.932 51.3114 141.227L55.1548 141.554L59.1788 141.795C59.8599 141.831 60.555 141.866 61.2569 141.888L65.5381 142.008L70 142.044L74.4619 142.008L78.7431 141.888L80.8211 141.795L84.8452 141.554L88.6885 141.227C121.944 137.932 135.476 124.104 138.701 90.1197L139.02 86.1922L139.257 82.08C139.292 81.384 139.326 80.6738 139.347 79.9565L139.465 75.5815L139.5 71.0219L139.465 66.4623L139.347 62.0873L139.257 59.9638L139.02 55.8516L138.701 51.9241C135.476 17.9401 121.944 4.11217 88.6885 0.816752L84.8452 0.490051L80.8211 0.248577C80.1286 0.214026 79.4359 0.183249 78.7431 0.156249L74.4619 0.0355118L72.2518 0.00710168L70 0ZM70 28.4088C75.3182 28.4085 80.4355 30.4849 84.3049 34.2133C88.1743 37.9416 90.5032 43.04 90.8152 48.4653L90.85 49.7153V56.8175C94.3568 56.8164 97.7344 58.1698 100.306 60.6065C102.877 63.0432 104.452 66.3831 104.715 69.9566L104.75 71.0219V92.3285C104.751 95.9121 103.427 99.3637 101.042 101.991C98.6577 104.619 95.3894 106.229 91.8925 106.497L90.85 106.533H49.15C45.6432 106.534 42.2656 105.181 39.6942 102.744C37.1228 100.307 35.5478 96.9673 35.2847 93.3938L35.25 92.3285V71.0219C35.2489 67.4383 36.5733 63.9867 38.9578 61.359C41.3423 58.7313 44.6106 57.1218 48.1075 56.853L49.15 56.8175V49.7153C49.15 44.0645 51.3467 38.6451 55.2568 34.6493C59.167 30.6535 64.4702 28.4088 70 28.4088ZM90.85 71.0219H49.15V92.3285H90.85V71.0219ZM70 42.6131C68.2977 42.6134 66.6547 43.252 65.3826 44.408C64.1105 45.5639 63.2978 47.1568 63.0986 48.8844L63.05 49.7153V56.8175H76.95V49.7153C76.95 47.8317 76.2178 46.0252 74.9144 44.6933C73.611 43.3614 71.8433 42.6131 70 42.6131Z" fill="#FC6600"/>
</svg>
