<svg width="33" height="44" viewBox="0 0 33 44" fill="none" xmlns="http://www.w3.org/2000/svg">
<path d="M13.3784 7.38867L9.85156 8.91717V13.4007L13.4978 12.1068L13.3784 7.38867Z" stroke="#222222" stroke-opacity="0.8" stroke-width="0.8" stroke-miterlimit="10"/>
<path d="M13.3784 13.5195L9.85156 15.048V19.5315L13.4978 18.2374L13.3784 13.5195Z" stroke="#222222" stroke-opacity="0.8" stroke-width="0.8" stroke-miterlimit="10"/>
<path d="M13.3784 20.3496L9.85156 21.8784V26.3619L13.4978 25.0678L13.3784 20.3496Z" stroke="#222222" stroke-opacity="0.8" stroke-width="0.8" stroke-miterlimit="10"/>
<path d="M6.99948 22.8828L3.47266 24.4113V28.8948L7.11885 27.6007L6.99948 22.8828Z" stroke="#222222" stroke-opacity="0.8" stroke-width="0.8" stroke-miterlimit="10"/>
<path d="M13.3784 26.3691L9.85156 27.8976V32.3811L13.4978 31.087L13.3784 26.3691Z" stroke="#222222" stroke-opacity="0.8" stroke-width="0.8" stroke-miterlimit="10"/>
<path d="M6.99948 28.9023L3.47266 30.4312V34.9147L7.11885 33.6205L6.99948 28.9023Z" stroke="#222222" stroke-opacity="0.8" stroke-width="0.8" stroke-miterlimit="10"/>
<path d="M6.99948 10.0742L3.47266 11.6027V16.0862L7.11885 14.7921L6.99948 10.0742Z" stroke="#222222" stroke-opacity="0.8" stroke-width="0.8" stroke-miterlimit="10"/>
<path d="M6.99948 16.4736L3.47266 18.0025V22.4859L7.11885 21.1918L6.99948 16.4736Z" stroke="#222222" stroke-opacity="0.8" stroke-width="0.8" stroke-miterlimit="10"/>
<path d="M14.8124 1L2 10.2633V36.9147L14.8124 32.8315V1Z" stroke="#222222" stroke-opacity="0.8" stroke-width="0.8" stroke-miterlimit="10"/>
<path d="M14.8086 1V32.8315L31.3975 38.2886V10.2633L14.8086 1Z" stroke="#222222" stroke-opacity="0.8" stroke-width="0.8" stroke-miterlimit="10"/>
<path d="M2 36.9133L16.7005 43.0005L31.4014 38.2872L14.8124 32.8301L2 36.9133Z" stroke="#222222" stroke-opacity="0.8" stroke-width="0.8" stroke-miterlimit="10"/>
</svg>
