<svg width="41" height="34" viewBox="0 0 41 34" fill="none" xmlns="http://www.w3.org/2000/svg">
<g clip-path="url(#clip0_6_52622)">
<path fill-rule="evenodd" clip-rule="evenodd" d="M29.7594 9.57035C26.9394 10.1704 23.5594 10.5304 20.2994 10.6104C17.0394 10.5404 13.6794 10.1604 10.8594 9.57035C13.6694 8.99035 17.0494 8.69035 20.3094 8.61035C23.5794 8.68035 26.9594 8.99035 29.7594 9.57035Z" fill="#222222" fill-opacity="0.8"/>
<path fill-rule="evenodd" clip-rule="evenodd" d="M10.5781 9.03C13.4781 8.43 16.9581 8.12 20.3181 8.05C23.6781 8.13 27.1481 8.44 30.0581 9.04V9.03C31.3881 2.77 44.6581 0 20.3181 0C-3.37194 0 9.25806 2.77 10.5781 9.01V9.03Z" fill="#222222" fill-opacity="0.8"/>
<path fill-rule="evenodd" clip-rule="evenodd" d="M40.3203 33.5703H0.320312L0.540313 32.6703C3.21031 20.9403 9.63031 25.6103 15.1903 21.7103C15.2803 21.6403 15.3603 21.5603 15.4403 21.4803L15.5103 20.0003C14.9903 19.5203 14.6003 19.0603 14.2803 18.5903C13.7803 17.8603 13.4503 17.0803 13.0603 16.0503C13.0003 15.8803 12.9403 15.7003 12.8803 15.5403C12.3003 15.5403 11.8103 15.0603 11.4603 14.3703C11.1903 13.8403 11.0103 13.1903 10.9403 12.5803C10.8703 11.9503 10.9303 11.3603 11.1503 10.9903L10.8503 9.57031C13.6703 10.1603 17.0403 10.5503 20.2903 10.6103C23.5503 10.5303 26.9303 10.1703 29.7503 9.57031L29.4503 10.9903C29.6803 11.3603 29.7303 11.9503 29.6603 12.5803C29.5903 13.1903 29.4103 13.8403 29.1403 14.3703C28.7903 15.0503 28.3003 15.5403 27.7203 15.5403C27.4103 16.4503 26.8203 17.5903 26.1603 18.5603C25.8103 19.0703 25.4503 19.5403 25.1003 19.9003L25.1703 21.4903C25.2503 21.5703 25.3403 21.6403 25.4203 21.7203C30.9803 25.6203 37.4003 20.9603 40.0703 32.6803L40.3203 33.5703Z" stroke="#222222" stroke-opacity="0.8" stroke-width="0.5" stroke-miterlimit="10"/>
<path fill-rule="evenodd" clip-rule="evenodd" d="M23.6091 20.5002C22.4291 21.2902 21.7091 21.7202 20.1891 21.6802C18.7091 21.6602 17.9291 21.1602 16.7391 20.4102C16.6491 25.3602 23.7291 25.6602 23.6091 20.5002Z" stroke="#222222" stroke-opacity="0.8" stroke-width="0.4208" stroke-miterlimit="10"/>
<path fill-rule="evenodd" clip-rule="evenodd" d="M6.59875 29.6699L6.83875 30.2599L7.47875 30.3099L6.98875 30.7199L7.13875 31.3499L6.59875 31.0099L6.04875 31.3499L6.20875 30.7199L5.71875 30.3099L6.35875 30.2599L6.59875 29.6699Z" fill="#222222" fill-opacity="0.8"/>
<path fill-rule="evenodd" clip-rule="evenodd" d="M9.57141 29.6699L9.81141 30.2599L10.4514 30.3099L9.97141 30.7199L10.1214 31.3499L9.57141 31.0099L9.03141 31.3499L9.18141 30.7199L8.69141 30.3099L9.33141 30.2599L9.57141 29.6699Z" fill="#222222" fill-opacity="0.8"/>
</g>
<defs>
<clipPath id="clip0_6_52622">
<rect width="40.64" height="33.82" fill="white"/>
</clipPath>
</defs>
</svg>
