<svg width="40" height="40" viewBox="0 0 40 40" fill="none" xmlns="http://www.w3.org/2000/svg">
<rect x="0.5" y="0.5" width="39" height="39" stroke="#222222" stroke-opacity="0.8"/>
<path d="M24.7575 29.2719C25.25 28.0627 26.4286 27.2401 27.748 27.1874M33 31.5673C33 32.9594 31.7475 33.5991 30.4317 33.8909C30.2558 33.9295 30.108 34.042 30.0165 34.1967C29.5169 35.0298 28.9329 36 27.9373 36C26.2555 36 24.894 34.6396 24.894 32.9629C24.894 32.3231 25.1121 31.0225 25.1121 31.0225C25.4921 28.7622 22.9519 27.8834 20.841 28.0135C20.2886 28.0486 11.9786 24.0413 8.67141 17.5804C8.15071 16.561 5.63166 11.6397 7.99591 7.72377C9.82891 4.69368 13.4808 4.11015 13.6532 4.08203C16.3728 3.68833 18.4345 4.82022 19.0432 5.18229C19.0396 5.25259 19.0361 5.32641 19.0361 5.40023C19.0361 6.85552 19.7574 8.14208 20.8621 8.92245C21.0028 10.427 21.9211 11.7065 23.2088 12.3638C23.1982 13.1864 27.3814 24.0272 27.3427 24.66C27.3286 24.8955 27.2371 25.117 27.2055 25.349C27.0225 26.7796 28.5213 28.5267 29.9497 28.5232C29.9532 28.5232 29.9567 28.5232 29.9602 28.5232C31.6384 28.5267 33 29.8871 33 31.5673Z" stroke="#222222" stroke-opacity="0.8" stroke-miterlimit="10"/>
</svg>
