<svg width="39" height="41" viewBox="0 0 39 41" fill="none" xmlns="http://www.w3.org/2000/svg">
<g clip-path="url(#clip0_6_52578)">
<path d="M32.8805 28.4502C32.2205 30.7402 30.9505 32.5602 29.9605 34.7102C29.6405 35.4102 29.3805 36.1502 29.3705 36.9202C29.3605 38.1502 30.0505 39.3702 31.1105 39.9902C32.1705 40.6102 33.5705 40.6102 34.6405 40.0002C35.7105 39.3802 36.4005 38.1702 36.3905 36.9402C36.3805 36.1702 36.1305 35.4202 35.8005 34.7202C34.8205 32.5602 33.5405 30.7402 32.8805 28.4502Z" stroke="#222222" stroke-opacity="0.8" stroke-width="0.9" stroke-miterlimit="10"/>
<path d="M13.4295 12.3802H5.99953V10.9002C5.99953 10.6602 5.89953 10.4302 5.73953 10.2702C5.72953 10.2602 5.70953 10.2402 5.69953 10.2302C5.53953 10.0902 5.33953 10.0102 5.10953 10.0102H1.34953C1.10953 10.0102 0.879532 10.1102 0.719532 10.2702C0.559532 10.4302 0.459534 10.6502 0.459534 10.9002V22.7702C0.459534 23.0102 0.559532 23.2402 0.719532 23.4002C0.729532 23.4102 0.749533 23.4302 0.759533 23.4402C0.919533 23.5802 1.11953 23.6602 1.34953 23.6602H5.10953C5.34953 23.6602 5.57953 23.5602 5.73953 23.4002C5.89953 23.2402 5.99953 23.0202 5.99953 22.7702V21.0402H6.01953H11.2895C11.7495 23.1202 13.0795 24.5702 14.7695 25.4202C15.9795 26.0302 17.3795 26.3302 18.7795 26.3202C20.1795 26.3202 21.5895 26.0202 22.8195 25.4302C24.6195 24.5702 26.0395 23.0902 26.5295 21.0302H26.8095C27.6395 21.0602 28.2495 21.2602 28.6695 21.6002C29.0595 21.9302 29.2895 22.4102 29.3795 23.0402V25.5702C29.3795 25.8502 29.5995 26.0702 29.8795 26.0702H37.5195C37.7995 26.0702 38.0195 25.8502 38.0195 25.5702V20.1002C38.0195 20.0702 38.0195 20.0402 38.0095 20.0202C37.6395 17.8702 36.8295 16.1202 35.5195 14.8202C34.2195 13.5302 32.4295 12.7002 30.1095 12.3902C30.0695 12.3802 30.0395 12.3802 29.9995 12.3802H24.1695L23.1595 8.9302C23.0895 8.7102 22.8995 8.5702 22.6795 8.5702H21.0095V4.7902H25.0995C25.6995 4.7902 26.2395 4.5502 26.6295 4.1502C27.0195 3.7502 27.2695 3.2202 27.2695 2.6202C27.2695 2.0202 27.0295 1.4802 26.6295 1.0902C26.2295 0.700195 25.6895 0.450195 25.0995 0.450195H12.9695C12.3695 0.450195 11.8295 0.690195 11.4395 1.0902C11.0495 1.4802 10.7995 2.0302 10.7995 2.6202C10.7995 3.2202 11.0395 3.7602 11.4395 4.1502C11.8295 4.5402 12.3795 4.7902 12.9695 4.7902H16.8295V8.5702H14.8295C14.5895 8.5702 14.3895 8.7402 14.3395 8.9702L13.4295 12.3802Z" stroke="#222222" stroke-opacity="0.8" stroke-width="0.9" stroke-miterlimit="10"/>
</g>
<defs>
<clipPath id="clip0_6_52578">
<rect width="38.47" height="40.9" fill="white" transform="matrix(-1 0 0 1 38.4688 0)"/>
</clipPath>
</defs>
</svg>
