<svg width="40" height="40" viewBox="0 0 40 40" fill="none" xmlns="http://www.w3.org/2000/svg">
<path d="M5.10659 12.5167C6.49388 9.7559 8.62129 7.4351 11.2513 5.81345C13.8812 4.1918 16.9102 3.33313 19.9999 3.33334C24.4916 3.33334 28.2649 4.98501 31.1499 7.67501L26.3716 12.455C24.6433 10.8033 22.4466 9.96168 19.9999 9.96168C15.6583 9.96168 11.9833 12.895 10.6749 16.8333C10.3416 17.8333 10.1516 18.9 10.1516 20C10.1516 21.1 10.3416 22.1667 10.6749 23.1667C11.9849 27.1067 15.6583 30.0383 19.9999 30.0383C22.2416 30.0383 24.1499 29.4467 25.6433 28.4467C26.509 27.8767 27.2501 27.1371 27.8219 26.2725C28.3937 25.408 28.7842 24.4364 28.9699 23.4167H19.9999V16.97H35.6966C35.8933 18.06 35.9999 19.1967 35.9999 20.3783C35.9999 25.455 34.1833 29.7283 31.0299 32.6283C28.2733 35.175 24.4999 36.6667 19.9999 36.6667C17.811 36.6676 15.6433 36.2371 13.6208 35.3998C11.5983 34.5625 9.76067 33.3349 8.21285 31.7871C6.66504 30.2393 5.43741 28.4016 4.60014 26.3791C3.76288 24.3566 3.33238 22.189 3.33325 20C3.33325 17.31 3.97659 14.7667 5.10659 12.5167Z" fill="white"/>
</svg>
