<svg width="41" height="40" viewBox="0 0 41 40" fill="none" xmlns="http://www.w3.org/2000/svg">
<path d="M15.5 16.639C15.5 16.86 15.5878 17.072 15.7441 17.2283C15.9004 17.3845 16.1123 17.4723 16.3333 17.4723C16.5543 17.4723 16.7663 17.3845 16.9226 17.2283C17.0789 17.072 17.1667 16.86 17.1667 16.639V14.9723C17.1667 14.7513 17.0789 14.5394 16.9226 14.3831C16.7663 14.2268 16.5543 14.139 16.3333 14.139C16.1123 14.139 15.9004 14.2268 15.7441 14.3831C15.5878 14.5394 15.5 14.7513 15.5 14.9723V16.639ZM15.5 16.639C15.5 18.8491 16.378 20.9688 17.9408 22.5316C19.5036 24.0944 21.6232 24.9723 23.8333 24.9723M23.8333 24.9723H25.5C25.721 24.9723 25.933 24.8845 26.0893 24.7283C26.2455 24.572 26.3333 24.36 26.3333 24.139C26.3333 23.918 26.2455 23.706 26.0893 23.5497C25.933 23.3935 25.721 23.3057 25.5 23.3057H23.8333C23.6123 23.3057 23.4004 23.3935 23.2441 23.5497C23.0878 23.706 23 23.918 23 24.139C23 24.36 23.0878 24.572 23.2441 24.7283C23.4004 24.8845 23.6123 24.9723 23.8333 24.9723ZM5.5 34.9719L8.25 28.6385C6.1461 25.652 5.20445 22.0003 5.60174 18.3687C5.99904 14.7372 7.70798 11.3754 10.4078 8.91441C13.1077 6.45338 16.6129 5.06223 20.2656 5.00204C23.9184 4.94185 27.4675 6.21675 30.247 8.58749C33.0265 10.9582 34.8452 14.2618 35.362 17.8783C35.8787 21.4948 35.0579 25.1756 33.0535 28.2298C31.0492 31.2841 27.9991 33.5019 24.4757 34.4671C20.9522 35.4322 17.1977 35.0783 13.9167 33.4719L5.5 34.9719Z" stroke="#222222" stroke-width="2" stroke-linecap="round" stroke-linejoin="round"/>
</svg>
