<svg width="20" height="20" viewBox="0 0 20 20" fill="none" xmlns="http://www.w3.org/2000/svg">
<path d="M16.6937 8.80371L10.5718 2.68121C10.3368 2.44756 10.0189 2.31641 9.68746 2.31641C9.35605 2.31641 9.03811 2.44756 8.80308 2.68121L2.68121 8.80371C2.44756 9.03874 2.31641 9.35668 2.31641 9.68809C2.31641 10.0195 2.44756 10.3374 2.68121 10.5725L8.80371 16.6943C9.28996 17.1806 10.085 17.1806 10.5725 16.6943L16.695 10.5718C16.9278 10.3366 17.0584 10.019 17.0584 9.68809C17.0584 9.35713 16.9278 9.03955 16.695 8.80433L16.6937 8.80371ZM9.18933 5.61246C9.32642 5.46413 9.50225 5.38996 9.71684 5.38996C10.0387 5.38996 10.1068 5.46371 10.2443 5.61059C10.3818 5.75725 10.4506 5.94163 10.4506 6.16371C10.4506 6.35496 10.3875 6.99704 10.2612 8.08996C10.1362 9.18371 10.0237 10.24 9.92996 11.26H9.48183C9.39808 10.2395 9.29392 9.18288 9.16933 8.08996C9.04517 6.99663 8.98309 6.35454 8.98309 6.16371C8.98309 5.94538 9.05184 5.76204 9.18933 5.61371V5.61246ZM10.2706 13.625C10.1156 13.775 9.931 13.85 9.71684 13.85C9.39559 13.85 9.31808 13.775 9.16371 13.625C9.00954 13.4737 8.93246 13.291 8.93246 13.0768C8.93246 12.7556 9.00933 12.6781 9.16371 12.5237C9.31871 12.3687 9.50329 12.2912 9.71746 12.2912C10.0387 12.2912 10.1162 12.3687 10.2706 12.5237C10.4264 12.6779 10.5041 12.8623 10.5037 13.0768C10.5031 13.3987 10.4262 13.4737 10.2712 13.6243L10.2706 13.625Z" fill="#FC6600"/>
</svg>
