<svg width="32" height="24" viewBox="0 0 32 24" fill="none" xmlns="http://www.w3.org/2000/svg">
<path d="M31.0588 0H0.941177C0.691561 0 0.452169 0.0972523 0.275664 0.270363C0.0991593 0.443473 0 0.678262 0 0.923077V23.0769C0 23.3217 0.0991593 23.5565 0.275664 23.7296C0.452169 23.9028 0.691561 24 0.941177 24H31.0588C31.3084 24 31.5478 23.9028 31.7243 23.7296C31.9008 23.5565 32 23.3217 32 23.0769V0.923077C32 0.678262 31.9008 0.443473 31.7243 0.270363C31.5478 0.0972523 31.3084 0 31.0588 0ZM9.41177 14.7692V9.23077H23.2733V14.7692H9.41177ZM0.941177 14.7692V9.23077H8.5V14.7692H0.941177ZM24 9.23077H31.0588V14.7692H24V9.23077ZM31.0588 8H16.5V1H31.0588V8ZM15.5 1V8H0.941177V1H15.5ZM0.941177 16H16V23L0.941177 23.0769V16ZM16.9412 23.0769V16H31.0588V23.0769H16.9412Z" fill="#222222" fill-opacity="0.4"/>
</svg>
