<svg width="29" height="30" viewBox="0 0 29 30" fill="none" xmlns="http://www.w3.org/2000/svg">
<path fill-rule="evenodd" clip-rule="evenodd" d="M6.64203 1.31251C6.64203 0.718255 7.07419 0.15625 7.69222 0.15625C7.98639 0.15625 8.2579 0.284366 8.45143 0.509531C8.63892 0.727661 8.74242 1.01754 8.74242 1.31251V3.57392C8.74242 4.16818 8.31026 4.73018 7.69222 4.73018C7.07573 4.73018 6.64203 4.17726 6.64203 3.57392V1.31251ZM7.69222 0.75625C7.47994 0.75625 7.24203 0.970003 7.24203 1.31251V3.57392C7.24203 3.92199 7.4784 4.13018 7.69222 4.13018C7.90451 4.13018 8.14242 3.91643 8.14242 3.57392V1.31251C8.14242 1.15374 8.0857 1.00451 7.99641 0.900626C7.91317 0.803777 7.80593 0.75625 7.69222 0.75625ZM0 5.03719C0 3.74672 1.08876 2.72584 2.39666 2.72584H5.1571H5.5071V3.07584V3.91015C5.5071 5.08648 6.51612 6.06947 7.77009 6.06307L7.77187 6.06307C9.03554 6.06307 10.0366 5.08553 10.0366 3.91015V3.07584V2.72584H10.3866H17.8813H18.2313V3.07584V3.91015C18.2313 5.07887 19.2331 6.06307 20.4961 6.06307C21.7598 6.06307 22.7609 5.08553 22.7609 3.91015V3.07584V2.72584H23.1109H25.8713C27.1792 2.72584 28.268 3.74672 28.268 5.03719V27.5342C28.268 28.8247 27.1792 29.8455 25.8713 29.8455H2.39666C1.08876 29.8455 0 28.8247 0 27.5342V5.03719ZM2.39666 3.42584C1.44668 3.42584 0.7 4.1614 0.7 5.03719V27.5342C0.7 28.41 1.44668 29.1455 2.39666 29.1455H25.8713C26.8213 29.1455 27.568 28.41 27.568 27.5342V5.03719C27.568 4.1614 26.8213 3.42584 25.8713 3.42584H23.4609V3.91015C23.4609 5.50115 22.1167 6.76307 20.4961 6.76307C18.8748 6.76307 17.5313 5.49318 17.5313 3.91015V3.42584H10.7366V3.91015C10.7366 5.50085 9.39296 6.7626 7.77277 6.76307C6.15744 6.77084 4.8071 5.49991 4.8071 3.91015V3.42584H2.39666ZM3.65 7.65085H4H12H12.35V8.00085V16.0009V16.3509H12H4H3.65V16.0009V8.00085V7.65085ZM4.35 8.35085V15.6509H11.65V8.35085H4.35ZM15 7.65085H14.65V8.00085V16.0009V16.3509H15H23H23.35V16.0009V8.00085V7.65085H23H15ZM15.35 15.6509V8.35085H22.65V15.6509H15.35ZM3.65 18.6509H4H12H12.35V19.0009V27.0009V27.3509H12H4H3.65V27.0009V19.0009V18.6509ZM4.35 19.3509V26.6509H11.65V19.3509H4.35ZM15 18.6509H14.65V19.0009V27.0009V27.3509H15H23H23.35V27.0009V19.0009V18.6509H23H15ZM15.35 26.6509V19.3509H22.65V26.6509H15.35ZM20.5464 0.15625C19.9284 0.15625 19.4962 0.718256 19.4962 1.31251V3.57392C19.4962 4.17726 19.9299 4.73018 20.5464 4.73018C21.1644 4.73018 21.5966 4.16818 21.5966 3.57392V1.31251C21.5966 1.01754 21.4931 0.727662 21.3056 0.509531L21.3057 0.509468L21.3005 0.503806C21.1049 0.287601 20.8449 0.15625 20.5464 0.15625ZM20.0962 1.31251C20.0962 0.970003 20.3341 0.75625 20.5464 0.75625C20.6547 0.75625 20.758 0.79974 20.853 0.903478C20.9409 1.00723 20.9966 1.15519 20.9966 1.31251V3.57392C20.9966 3.91643 20.7587 4.13018 20.5464 4.13018C20.3326 4.13018 20.0962 3.92199 20.0962 3.57392V1.31251Z" fill="#222222" fill-opacity="0.8"/>
</svg>
