<svg width="38" height="34" viewBox="0 0 38 34" fill="none" xmlns="http://www.w3.org/2000/svg">
<path d="M5.43704 20.3049C5.36299 20.3794 5.24628 20.3976 5.15131 20.3499L1.12856 18.33C0.984315 18.2576 0.955687 18.0715 1.07213 17.9625L19.18 1L37.288 17.9654C37.4044 18.0744 37.3758 18.2605 37.2315 18.3329L33.2074 20.3533C33.1133 20.4007 32.9974 20.3831 32.9233 20.3099L19.2348 6.79684C19.1399 6.70312 18.9824 6.70365 18.8883 6.79816M5.43704 20.3049L18.8883 6.79816M5.43704 20.3049L6.28817 32.7668C6.28817 32.8937 6.3958 32.9966 6.52848 32.9966L31.8286 32.9969C31.9613 32.9969 32.0689 32.8939 32.0689 32.7671L32.9839 20.3533L19.2282 6.79842C19.1346 6.70839 18.9821 6.70839 18.8883 6.79816" stroke="#222222" stroke-opacity="0.6" stroke-miterlimit="10"/>
<rect x="16.5" y="22.5" width="5" height="10" stroke="#222222" stroke-opacity="0.6"/>
</svg>
