<svg width="50" height="30" viewBox="0 0 50 30" fill="none" xmlns="http://www.w3.org/2000/svg">
<g clip-path="url(#clip0_380_7751)">
<path d="M11.6486 0.65625H0V29.3477H11.6486V0.65625Z" fill="#222222"/>
<path d="M24.4299 0.65625H12.7812V29.3477H24.4299V0.65625Z" fill="#222222"/>
<path d="M37.2189 0.65625H25.5703V29.3477H37.2189V0.65625Z" fill="#222222"/>
<path d="M50.0002 0.65625H38.3516V29.3477H50.0002V0.65625Z" fill="#222222"/>
<path d="M8.77033 5.26562V11.2217H7.57713V7.34875L5.98123 11.2217H5.07639L3.47054 7.34875V11.2217H2.27734V5.26562H3.63461L5.52881 9.69538L7.42301 5.26562H8.77033Z" fill="white"/>
<path d="M6.69537 24.1507L4.95529 20.9887H4.46807V24.1507H2.42969V15.7734H5.85516C6.51639 15.7734 7.07819 15.8878 7.54553 16.1215C8.01286 16.3551 8.36088 16.6683 8.58958 17.071C8.81827 17.4737 8.93759 17.9212 8.93759 18.4134C8.93759 18.9702 8.7785 19.4674 8.46529 19.9049C8.15207 20.3424 7.68971 20.6506 7.07322 20.8346L9.0072 24.1507H6.69537ZM4.46807 19.5469H5.73087C6.10375 19.5469 6.38713 19.4574 6.57108 19.2735C6.76 19.0895 6.84949 18.831 6.84949 18.4979C6.84949 18.1797 6.75503 17.9311 6.57108 17.7472C6.38216 17.5632 6.10375 17.4737 5.73087 17.4737H4.46807V19.5469Z" fill="white"/>
<path d="M17.9144 17.4091V19.1044H20.6489V20.6805H17.9144V22.52H21.0068V24.1557H15.8711V15.7734H21.0018V17.4091H17.9144Z" fill="white"/>
<path d="M32.5001 24.1507L30.76 20.9887H30.2728V24.1507H28.2344V15.7734H31.6598C32.3211 15.7734 32.8829 15.8878 33.3502 16.1215C33.8176 16.3551 34.1656 16.6683 34.3943 17.071C34.623 17.4737 34.7423 17.9212 34.7423 18.4134C34.7423 18.9702 34.5832 19.4674 34.27 19.9049C33.9568 20.3424 33.4944 20.6506 32.8779 20.8346L34.8019 24.1507H32.5001ZM30.2678 19.5469H31.5306C31.9035 19.5469 32.1868 19.4574 32.3708 19.2735C32.5597 19.0895 32.6492 18.831 32.6492 18.4979C32.6492 18.1797 32.5547 17.9311 32.3708 17.7472C32.1819 17.5632 31.9035 17.4737 31.5306 17.4737H30.2678V19.5469Z" fill="white"/>
<path d="M45.9429 22.6691H42.8157L42.3136 24.1507H40.1758L43.2085 15.7734H45.57L48.6027 24.1507H46.445L45.9429 22.6691ZM45.4209 21.0981L44.3818 18.0306L43.3576 21.0981H45.4209Z" fill="white"/>
<path d="M19.1499 10.0903H16.7784L16.3857 11.2238H15.1328L17.2756 5.25781H18.6677L20.8105 11.2238H19.5476L19.1499 10.0903ZM18.8268 9.13074L17.9667 6.63993L17.1066 9.13074H18.8268Z" fill="white"/>
<path d="M45.5562 10.0903H43.1847L42.7919 11.2238H41.5391L43.6818 5.25781H45.0739L47.2167 11.2238H45.9539L45.5562 10.0903ZM45.233 9.13074L44.3729 6.63993L43.5128 9.13074H45.233Z" fill="white"/>
<path d="M33.5345 5.26562V11.2217H32.3413V8.68613H29.7909V11.2217H28.5977V5.26562H29.7909V7.71665H32.3413V5.26562H33.5345Z" fill="white"/>
</g>
<defs>
<clipPath id="clip0_380_7751">
<rect width="50" height="28.6915" fill="white" transform="translate(0 0.65625)"/>
</clipPath>
</defs>
</svg>
