<svg width="23" height="24" viewBox="0 0 23 24" fill="none" xmlns="http://www.w3.org/2000/svg">
<path d="M11.3657 0.775C17.4093 0.775 22.3315 5.78946 22.3315 12.0035C22.3315 18.2093 17.4173 23.232 11.3657 23.232C5.32218 23.232 0.4 18.2175 0.4 12.0035C0.4 5.78946 5.32218 0.775 11.3657 0.775Z" stroke="#222222" stroke-opacity="0.8" stroke-width="0.8" stroke-miterlimit="10"/>
<path d="M11.1218 6.02196H12.2495H15.0733V5.82188H7.64609V6.32192H8.63391C9.52295 6.32192 10.2841 6.47237 10.8723 6.80934C11.4743 7.15414 11.8707 7.68128 12.0332 8.3689L12.1494 8.86084H11.6439H7.64609V9.06092H11.7021H12.1438L12.1002 9.50045C12.0208 10.2995 11.6467 10.9771 10.9826 11.4451C10.3295 11.9053 9.42869 12.1408 8.32151 12.1408H7.64609V12.8243C8.0832 13.3016 8.49652 13.7638 8.89414 14.2164L8.89441 14.2167C9.64699 15.0749 10.3418 15.9006 11.0254 16.7294L11.1218 6.02196ZM11.1218 6.02196L11.9974 6.73255C12.4845 7.12786 12.8432 7.69449 12.9473 8.5114L12.9918 8.86084H13.3441H15.0739M11.1218 6.02196L15.0739 8.86084M15.0739 8.86084V9.06092H13.3627H12.9992L12.9645 9.4228C12.8766 10.3419 12.4807 11.0756 11.8369 11.5938C11.1875 12.1166 10.2569 12.4424 9.07063 12.48L8.18416 12.5081L8.79203 13.1539C9.25603 13.6469 9.73414 14.1805 10.2218 14.743L10.2218 14.743C10.9022 15.5278 11.5998 16.3694 12.3036 17.2361C12.5616 17.5541 12.8204 17.8755 13.0794 18.1987H12.2252C11.8233 17.7026 11.4264 17.2154 11.0254 16.7295L15.0739 8.86084Z" stroke="#222222" stroke-opacity="0.8" stroke-width="0.8" stroke-miterlimit="10"/>
</svg>
