<svg width="30" height="30" viewBox="0 0 30 30" fill="none" xmlns="http://www.w3.org/2000/svg">
<path fill-rule="evenodd" clip-rule="evenodd" d="M5.16121 6.42451C5.16121 6.83815 4.68545 7.07085 4.35895 6.81687L1.1919 4.35363C0.936033 4.15461 0.936033 3.7679 1.1919 3.56888L4.35895 1.10563C4.68545 0.851674 5.16121 1.08436 5.16121 1.49801V2.96711H17.0912V1.49807C17.0912 1.08442 17.567 0.851733 17.8935 1.10569L21.0606 3.56894C21.3165 3.76796 21.3165 4.15467 21.0606 4.35369L17.8935 6.81693C17.567 7.07091 17.0912 6.83821 17.0912 6.42457V4.95546H5.16121V6.42451ZM4.16679 8.93188C2.51958 8.93188 1.18427 10.2672 1.18427 11.9144V25.8329C1.18427 27.4801 2.51958 28.8154 4.16679 28.8154H18.0853C19.7324 28.8154 21.0677 27.4801 21.0677 25.8329V11.9144C21.0677 10.2672 19.7324 8.93188 18.0853 8.93188H4.16679ZM28.502 12.9086H27.0328V24.8387H28.502C28.9156 24.8387 29.1484 25.3145 28.8943 25.641L26.4311 28.8081C26.2321 29.064 25.8454 29.064 25.6463 28.8081L23.1832 25.641C22.9292 25.3145 23.1619 24.8387 23.5755 24.8387H25.0445V12.9086H23.5755C23.1619 12.9086 22.929 12.4329 23.1832 12.1064L25.6463 8.93934C25.8454 8.68348 26.2321 8.68348 26.4311 8.93936L28.8943 12.1064C29.1482 12.4329 28.9156 12.9086 28.502 12.9086Z" stroke="#222222" stroke-opacity="0.6" stroke-width="0.6"/>
</svg>
