<svg width="22" height="22" viewBox="0 0 22 22" fill="none" xmlns="http://www.w3.org/2000/svg">
<path d="M0.460938 21.7728L2.00752 16.032C0.76024 13.7957 0.363967 11.186 0.891417 8.68202C1.41887 6.17798 2.83466 3.9475 4.879 2.39987C6.92334 0.852242 9.45909 0.0912744 12.0209 0.256608C14.5828 0.421941 16.9989 1.50248 18.8259 3.29996C20.6529 5.09743 21.7683 7.49126 21.9673 10.0422C22.1663 12.5931 21.4357 15.13 19.9094 17.1873C18.3832 19.2447 16.1637 20.6845 13.6583 21.2425C11.1529 21.8006 8.52957 21.4394 6.26976 20.2254L0.460938 21.7728ZM6.54985 18.0771L6.9091 18.2895C8.54592 19.2564 10.4577 19.6566 12.3465 19.4276C14.2354 19.1985 15.9951 18.3532 17.3516 17.0233C18.708 15.6935 19.585 13.9537 19.8458 12.0753C20.1066 10.1968 19.7366 8.28507 18.7935 6.63805C17.8503 4.99104 16.387 3.70122 14.6315 2.96962C12.8761 2.23801 10.9271 2.1057 9.08834 2.59332C7.24957 3.08093 5.62428 4.16107 4.46576 5.66542C3.30724 7.16976 2.68056 9.01381 2.68339 10.9102C2.68185 12.4826 3.11818 14.0246 3.94379 15.3645L4.16909 15.7347L3.30446 18.9388L6.54985 18.0771Z" fill="#FC6600"/>
<path fill-rule="evenodd" clip-rule="evenodd" d="M15.3406 12.5036C15.1209 12.3399 14.8637 12.2247 14.5886 12.1667C14.3134 12.1087 14.0276 12.1096 13.7528 12.1691C13.34 12.3276 13.0732 12.9262 12.8065 13.2255C12.7502 13.2973 12.6675 13.3476 12.574 13.367C12.4805 13.3865 12.3824 13.3737 12.2983 13.3312C10.787 12.7842 9.52008 11.781 8.70352 10.4848C8.63387 10.4039 8.60091 10.3012 8.61157 10.1983C8.62223 10.0954 8.67569 10.0003 8.76068 9.93308C9.0582 9.66092 9.27664 9.32382 9.39581 8.95297C9.42227 8.54392 9.32085 8.13647 9.10365 7.7792C8.93574 7.27832 8.61617 6.83233 8.18271 6.49391C7.95915 6.401 7.71127 6.36985 7.46897 6.40421C7.22667 6.43858 7.00031 6.53699 6.81719 6.68759C6.49929 6.94103 6.24696 7.25714 6.07878 7.61263C5.91061 7.96813 5.83087 8.35395 5.84544 8.74169C5.84642 8.95944 5.87628 9.17625 5.93436 9.38727C6.08184 9.89429 6.30864 10.3787 6.6076 10.8251C6.82328 11.1671 7.05862 11.4982 7.31259 11.817C8.13797 12.864 9.17549 13.7529 10.3676 14.4345C10.9658 14.7809 11.6051 15.0625 12.2729 15.2738C12.9667 15.5644 13.7327 15.6759 14.4895 15.5965C14.9208 15.5362 15.3293 15.3789 15.6793 15.1384C16.0293 14.8979 16.3099 14.5816 16.4965 14.2174C16.6062 13.9973 16.6395 13.7513 16.5918 13.5131C16.4775 13.026 15.7725 12.7384 15.3406 12.5036Z" fill="#FC6600"/>
</svg>
