<svg width="28" height="32" viewBox="0 0 28 32" fill="none" xmlns="http://www.w3.org/2000/svg">
<path d="M2.75 1C2.75 0.734784 2.63147 0.48043 2.42049 0.292893C2.20952 0.105357 1.92337 0 1.625 0C1.32663 0 1.04048 0.105357 0.829505 0.292893C0.618527 0.48043 0.5 0.734784 0.5 1V31C0.5 31.2652 0.618527 31.5196 0.829505 31.7071C1.04048 31.8946 1.32663 32 1.625 32C1.92337 32 2.20952 31.8946 2.42049 31.7071C2.63147 31.5196 2.75 31.2652 2.75 31V1ZM27.5 1C27.5 0.734784 27.3815 0.48043 27.1705 0.292893C26.9595 0.105357 26.6734 0 26.375 0C26.0766 0 25.7905 0.105357 25.5795 0.292893C25.3685 0.48043 25.25 0.734784 25.25 1V31C25.25 31.2652 25.3685 31.5196 25.5795 31.7071C25.7905 31.8946 26.0766 32 26.375 32C26.6734 32 26.9595 31.8946 27.1705 31.7071C27.3815 31.5196 27.5 31.2652 27.5 31V1ZM15.125 1C15.125 0.734784 15.0065 0.48043 14.7955 0.292893C14.5845 0.105357 14.2984 0 14 0C13.7016 0 13.4155 0.105357 13.2045 0.292893C12.9935 0.48043 12.875 0.734784 12.875 1V7C12.875 7.26522 12.9935 7.51957 13.2045 7.70711C13.4155 7.89464 13.7016 8 14 8C14.2984 8 14.5845 7.89464 14.7955 7.70711C15.0065 7.51957 15.125 7.26522 15.125 7V1ZM12.875 19C12.875 19.2652 12.9935 19.5196 13.2045 19.7071C13.4155 19.8946 13.7016 20 14 20C14.2984 20 14.5845 19.8946 14.7955 19.7071C15.0065 19.5196 15.125 19.2652 15.125 19V13C15.125 12.7348 15.0065 12.4804 14.7955 12.2929C14.5845 12.1054 14.2984 12 14 12C13.7016 12 13.4155 12.1054 13.2045 12.2929C12.9935 12.4804 12.875 12.7348 12.875 13V19ZM12.875 25C12.875 24.7348 12.9935 24.4804 13.2045 24.2929C13.4155 24.1054 13.7016 24 14 24C14.2984 24 14.5845 24.1054 14.7955 24.2929C15.0065 24.4804 15.125 24.7348 15.125 25V31C15.125 31.2652 15.0065 31.5196 14.7955 31.7071C14.5845 31.8946 14.2984 32 14 32C13.7016 32 13.4155 31.8946 13.2045 31.7071C12.9935 31.5196 12.875 31.2652 12.875 31V25Z" fill="#222222" fill-opacity="0.4"/>
</svg>
