<svg width="33" height="46" viewBox="0 0 33 46" fill="none" xmlns="http://www.w3.org/2000/svg">
<path d="M26.7132 45H1.10156V1H31.9016V39.9333C31.9016 42.7334 29.5806 45 26.7132 45Z" stroke="#222222" stroke-opacity="0.8" stroke-width="0.8" stroke-miterlimit="10"/>
<path d="M16.4531 7.85693H29.8805" stroke="#222222" stroke-opacity="0.8" stroke-width="0.8" stroke-miterlimit="10" stroke-linecap="round" stroke-linejoin="round"/>
<path d="M4.69531 15.8638H29.878" stroke="#222222" stroke-opacity="0.8" stroke-width="0.8" stroke-miterlimit="10" stroke-linecap="round" stroke-linejoin="round"/>
<path d="M4.69531 19.8706H29.878" stroke="#222222" stroke-opacity="0.8" stroke-width="0.8" stroke-miterlimit="10" stroke-linecap="round" stroke-linejoin="round"/>
<path d="M4.69531 27.877H29.878" stroke="#222222" stroke-opacity="0.8" stroke-width="0.8" stroke-miterlimit="10" stroke-linecap="round" stroke-linejoin="round"/>
<path d="M4.69531 31.8838H29.878" stroke="#222222" stroke-opacity="0.8" stroke-width="0.8" stroke-miterlimit="10" stroke-linecap="round" stroke-linejoin="round"/>
<path d="M24.0625 35.8872H29.8815" stroke="#222222" stroke-opacity="0.8" stroke-width="0.8" stroke-miterlimit="10" stroke-linecap="round" stroke-linejoin="round"/>
<path d="M24.0625 11.8604H29.8815" stroke="#222222" stroke-opacity="0.8" stroke-width="0.8" stroke-miterlimit="10" stroke-linecap="round" stroke-linejoin="round"/>
<path d="M16.4531 11.8604H22.2721" stroke="#222222" stroke-opacity="0.8" stroke-width="0.8" stroke-miterlimit="10" stroke-linecap="round" stroke-linejoin="round"/>
<path d="M24.8359 23.8735H29.8739" stroke="#222222" stroke-opacity="0.8" stroke-width="0.8" stroke-miterlimit="10" stroke-linecap="round" stroke-linejoin="round"/>
<path d="M14.7656 23.8735H19.8036" stroke="#222222" stroke-opacity="0.8" stroke-width="0.8" stroke-miterlimit="10" stroke-linecap="round" stroke-linejoin="round"/>
<path d="M4.69531 23.8735H9.73331" stroke="#222222" stroke-opacity="0.8" stroke-width="0.8" stroke-miterlimit="10" stroke-linecap="round" stroke-linejoin="round"/>
<path fill-rule="evenodd" clip-rule="evenodd" d="M8.32708 4.36572C5.64308 4.36572 3.46875 6.48909 3.46875 9.11019C3.46875 11.7313 5.64308 13.8547 8.32708 13.8547C11.0111 13.8547 13.1854 11.7313 13.1854 9.11019C13.1854 6.48909 11.0111 4.36572 8.32708 4.36572ZM10.9891 7.69938L7.72942 11.0295L7.72208 11.0366C7.65608 11.1011 7.56075 11.1405 7.46908 11.144C7.37375 11.1476 7.27842 11.1154 7.20142 11.0474L5.67975 9.70101V9.69385C5.60642 9.62939 5.56242 9.53629 5.55875 9.43962C5.55508 9.34652 5.58442 9.25342 5.65408 9.17464C5.65408 9.17464 5.65408 9.17106 5.65775 9.17106C5.72375 9.09945 5.81908 9.05648 5.91808 9.0529C6.01342 9.04932 6.11242 9.07796 6.18942 9.14958L7.44342 10.2596L10.4464 7.18734C10.5161 7.11572 10.6114 7.07633 10.7104 7.07275C10.8094 7.06917 10.9011 7.1014 10.9781 7.17659C11.0514 7.24463 11.0918 7.33773 11.0954 7.43441C11.0991 7.53109 11.0661 7.62061 10.9891 7.69938Z" fill="#222222" fill-opacity="0.8"/>
</svg>
