<svg width="82" height="82" viewBox="0 0 82 82" fill="none" xmlns="http://www.w3.org/2000/svg">
<circle cx="41" cy="41" r="40" stroke="#FC6600" stroke-width="2"/>
<path d="M39.0965 51.7619C39.0966 51.6743 39.0794 51.5876 39.0459 51.5067C39.0124 51.4258 38.9633 51.3523 38.9014 51.2904C38.8395 51.2285 38.7659 51.1794 38.685 51.1459C38.6041 51.1124 38.5174 51.0952 38.4299 51.0952H23.7633V49.7619H41.0965C41.2733 49.7619 41.4429 49.6917 41.5679 49.5666C41.6929 49.4416 41.7632 49.272 41.7632 49.0952C41.7632 48.9184 41.6929 48.7488 41.5679 48.6238C41.4429 48.4988 41.2733 48.4286 41.0965 48.4286H35.7632V37.0952C35.7632 37.0077 35.746 36.921 35.7125 36.8401C35.679 36.7592 35.6299 36.6857 35.568 36.6238C35.5061 36.5619 35.4326 36.5128 35.3517 36.4793C35.2708 36.4458 35.1841 36.4285 35.0966 36.4286H28.4299C28.3424 36.4285 28.2557 36.4458 28.1748 36.4793C28.0939 36.5128 28.0204 36.5619 27.9585 36.6238C27.8966 36.6857 27.8475 36.7592 27.814 36.8401C27.7805 36.921 27.7633 37.0077 27.7633 37.0952V48.4286H25.7633V34.1426L37.0965 25.2749L48.4298 34.1426V36.6753C48.4298 36.8521 48.5 37.0217 48.625 37.1467C48.7501 37.2717 48.9196 37.3419 49.0964 37.3419C49.2733 37.3419 49.4428 37.2717 49.5678 37.1467C49.6929 37.0217 49.7631 36.8521 49.7631 36.6753V35.1858L50.8126 36.007C50.9518 36.1159 51.1284 36.165 51.3038 36.1437C51.4793 36.1224 51.639 36.0324 51.7481 35.8934L53.6211 33.5067C53.6753 33.4378 53.7153 33.3588 53.7388 33.2744C53.7624 33.19 53.7691 33.1018 53.7585 33.0148C53.7479 32.9278 53.7203 32.8437 53.6772 32.7674C53.634 32.6911 53.5763 32.6241 53.5072 32.5702L49.7631 29.6399V21.0952C49.7631 21.0077 49.7459 20.921 49.7124 20.8401C49.6789 20.7592 49.6298 20.6857 49.5679 20.6238C49.506 20.5619 49.4325 20.5128 49.3516 20.4793C49.2707 20.4458 49.184 20.4285 49.0964 20.4286H43.7632C43.6756 20.4285 43.5889 20.4458 43.508 20.4793C43.4271 20.5128 43.3536 20.5619 43.2917 20.6238C43.2298 20.6857 43.1807 20.7592 43.1472 20.8401C43.1137 20.921 43.0965 21.0077 43.0965 21.0952V24.4226L38.6994 20.9813C38.2372 20.6344 37.6749 20.4468 37.0969 20.4467C36.519 20.4466 35.9566 20.6341 35.4943 20.981L20.6859 32.5702C20.6168 32.6241 20.559 32.6911 20.5159 32.7674C20.4728 32.8437 20.4451 32.9278 20.4346 33.0148C20.424 33.1018 20.4307 33.19 20.4542 33.2744C20.4778 33.3588 20.5178 33.4378 20.5719 33.5067L22.445 35.8934C22.5542 36.0322 22.7139 36.1221 22.8893 36.1434C23.0646 36.1647 23.2412 36.1156 23.3805 36.007L24.43 35.1858V48.4286H23.0966C23.0091 48.4285 22.9224 48.4457 22.8415 48.4792C22.7606 48.5127 22.687 48.5618 22.6251 48.6237C22.5632 48.6856 22.5141 48.7591 22.4806 48.84C22.4471 48.921 22.4299 49.0077 22.43 49.0952V51.7619C22.4299 51.8495 22.4471 51.9362 22.4806 52.0171C22.5141 52.098 22.5632 52.1715 22.6251 52.2334C22.687 52.2953 22.7606 52.3444 22.8415 52.3779C22.9224 52.4114 23.0091 52.4286 23.0966 52.4286H38.4299C38.5174 52.4286 38.6041 52.4114 38.685 52.3779C38.7659 52.3444 38.8395 52.2953 38.9014 52.2334C38.9633 52.1715 39.0124 52.098 39.0459 52.0171C39.0794 51.9362 39.0966 51.8495 39.0965 51.7619ZM29.0966 37.7619H34.4299V48.4286H29.0966V37.7619ZM44.4298 21.7619H48.4298V28.5965L44.4298 25.466V21.7619ZM23.083 34.5467L22.0335 33.2088L36.3166 22.0308C36.5416 21.8617 36.8155 21.7704 37.0969 21.7704C37.3784 21.7705 37.6522 21.862 37.8771 22.0311L52.1596 33.2088L51.1101 34.5467L37.5073 23.9035C37.3901 23.8117 37.2454 23.7619 37.0965 23.7619C36.9476 23.7619 36.803 23.8117 36.6857 23.9035L23.083 34.5467ZM53.0964 37.7619C51.1522 37.7641 49.2882 38.5374 47.9134 39.9122C46.5386 41.287 45.7653 43.151 45.7631 45.0952C45.7638 45.8007 45.8676 46.5024 46.0711 47.1779L37.9585 55.2906C37.8966 55.3524 37.8475 55.4259 37.814 55.5068C37.7804 55.5877 37.7632 55.6743 37.7632 55.7619V59.7619C37.7631 59.8495 37.7804 59.9362 37.8138 60.0171C37.8473 60.098 37.8964 60.1715 37.9583 60.2334C38.0203 60.2953 38.0938 60.3444 38.1747 60.3779C38.2556 60.4114 38.3423 60.4286 38.4299 60.4286H42.4298C42.5174 60.4286 42.6041 60.4114 42.685 60.3779C42.7659 60.3444 42.8394 60.2953 42.9013 60.2334C42.9633 60.1715 43.0124 60.098 43.0458 60.0171C43.0793 59.9362 43.0965 59.8495 43.0965 59.7619V57.7619H45.0965C45.184 57.7619 45.2707 57.7447 45.3517 57.7112C45.4326 57.6778 45.5061 57.6287 45.568 57.5667C45.6299 57.5048 45.679 57.4313 45.7125 57.3504C45.746 57.2695 45.7632 57.1828 45.7631 57.0952V55.0952H47.7631C47.8507 55.0952 47.9373 55.078 48.0182 55.0445C48.0991 55.011 48.1726 54.9618 48.2344 54.8999L51.0138 52.1206C51.6893 52.3241 52.3909 52.4279 53.0964 52.4286C55.0413 52.4286 56.9066 51.6559 58.2818 50.2807C59.6571 48.9054 60.4297 47.0401 60.4297 45.0952C60.4297 43.1503 59.6571 41.285 58.2818 39.9098C56.9066 38.5345 55.0413 37.7619 53.0964 37.7619ZM53.0964 51.0952C52.4016 51.0937 51.7124 50.9708 51.06 50.7319C50.9408 50.6887 50.8118 50.6803 50.688 50.7079C50.5642 50.7354 50.4509 50.7978 50.3614 50.8875L47.4871 53.7619H45.0965C45.0089 53.7618 44.9222 53.7791 44.8413 53.8125C44.7604 53.846 44.6869 53.8951 44.625 53.957C44.563 54.019 44.5139 54.0925 44.4805 54.1734C44.447 54.2543 44.4298 54.341 44.4298 54.4286V56.4286H42.4298C42.3423 56.4285 42.2556 56.4457 42.1747 56.4792C42.0937 56.5127 42.0202 56.5618 41.9583 56.6237C41.8964 56.6856 41.8473 56.7591 41.8138 56.84C41.7803 56.921 41.7631 57.0077 41.7632 57.0952V59.0952H39.0965V56.0379L47.3041 47.8303C47.3937 47.7406 47.456 47.6273 47.4835 47.5036C47.5111 47.3799 47.5028 47.2509 47.4597 47.1317C47.0278 45.9327 46.9891 44.6272 47.3493 43.4047C47.7095 42.1821 48.4499 41.1062 49.4631 40.333C50.4762 39.5598 51.7094 39.1296 52.9836 39.1047C54.2578 39.0798 55.5068 39.4617 56.5494 40.1947C57.5919 40.9278 58.3737 41.974 58.7814 43.1815C59.189 44.3891 59.2013 45.6951 58.8164 46.91C58.4316 48.125 57.6696 49.1857 56.641 49.9383C55.6125 50.6909 54.3709 51.0961 53.0964 51.0952ZM54.4297 41.0952C53.9023 41.0952 53.3868 41.2516 52.9482 41.5446C52.5097 41.8377 52.1679 42.2541 51.9661 42.7414C51.7642 43.2287 51.7114 43.7649 51.8143 44.2821C51.9172 44.7994 52.1712 45.2746 52.5441 45.6475C52.9171 46.0205 53.3922 46.2744 53.9095 46.3773C54.4268 46.4802 54.963 46.4274 55.4502 46.2256C55.9375 46.0237 56.354 45.6819 56.647 45.2434C56.94 44.8049 57.0964 44.2893 57.0964 43.7619C57.0957 43.0549 56.8145 42.377 56.3146 41.8771C55.8146 41.3771 55.1368 41.0959 54.4297 41.0952ZM54.4297 45.0952C54.166 45.0952 53.9082 45.017 53.689 44.8705C53.4697 44.724 53.2988 44.5158 53.1979 44.2721C53.097 44.0285 53.0706 43.7604 53.122 43.5018C53.1735 43.2431 53.3005 43.0056 53.4869 42.8191C53.6734 42.6326 53.911 42.5056 54.1696 42.4542C54.4283 42.4027 54.6963 42.4291 54.94 42.5301C55.1836 42.631 55.3918 42.8019 55.5384 43.0211C55.6849 43.2404 55.7631 43.4982 55.7631 43.7619C55.7626 44.1154 55.622 44.4542 55.372 44.7042C55.1221 44.9541 54.7832 45.0948 54.4297 45.0952ZM45.0965 39.0952V37.7619H39.0965V42.4286H43.7632C43.94 42.4286 44.1095 42.4988 44.2346 42.6238C44.3596 42.7488 44.4298 42.9184 44.4298 43.0952C44.4298 43.272 44.3596 43.4416 44.2346 43.5666C44.1095 43.6917 43.94 43.7619 43.7632 43.7619H38.4299C38.3423 43.7619 38.2556 43.7447 38.1747 43.7112C38.0938 43.6778 38.0203 43.6287 37.9583 43.5667C37.8964 43.5048 37.8473 43.4313 37.8138 43.3504C37.7804 43.2695 37.7631 43.1828 37.7632 43.0952V37.0952C37.7632 37.0077 37.7804 36.921 37.8139 36.8401C37.8474 36.7592 37.8965 36.6857 37.9584 36.6238C38.0203 36.5619 38.0938 36.5128 38.1747 36.4793C38.2556 36.4458 38.3423 36.4285 38.4299 36.4286H45.7631C45.8507 36.4285 45.9374 36.4458 46.0183 36.4793C46.0992 36.5128 46.1727 36.5619 46.2346 36.6238C46.2965 36.6857 46.3456 36.7592 46.3791 36.8401C46.4126 36.921 46.4298 37.0077 46.4298 37.0952V39.0952C46.4298 39.272 46.3596 39.4416 46.2345 39.5666C46.1095 39.6917 45.9399 39.7619 45.7631 39.7619C45.5863 39.7619 45.4168 39.6917 45.2917 39.5666C45.1667 39.4416 45.0965 39.272 45.0965 39.0952Z" fill="#FC6600"/>
</svg>
