<svg width="82" height="82" viewBox="0 0 82 82" fill="none" xmlns="http://www.w3.org/2000/svg">
<circle cx="41" cy="41" r="40" stroke="#FC6600" stroke-width="2"/>
<path d="M37.4275 40.1838C33.095 40.1838 29.5703 36.5217 29.5703 32.0205C29.5703 27.5192 33.095 23.8572 37.4275 23.8572C41.7599 23.8572 45.2846 27.5192 45.2846 32.0205C45.2846 36.5217 41.7599 40.1838 37.4275 40.1838ZM37.4275 25.4898C33.9609 25.4898 31.1417 28.4188 31.1417 32.0205C31.1417 35.6221 33.9609 38.5511 37.4275 38.5511C40.894 38.5511 43.7132 35.6221 43.7132 32.0205C43.7132 28.4188 40.894 25.4898 37.4275 25.4898Z" fill="#FC6600"/>
<path d="M50.7852 58.1429H24.0709C23.6372 58.1429 23.2852 57.7772 23.2852 57.3266V50.796C23.2852 46.7453 26.4579 43.449 30.3566 43.449H44.4994C48.3982 43.449 51.5709 46.7453 51.5709 50.796V57.3266C51.5709 57.7772 51.2189 58.1429 50.7852 58.1429ZM24.8566 56.5103H49.9994V50.796C49.9994 47.6449 47.5323 45.0816 44.4994 45.0816H30.3566C27.3237 45.0816 24.8566 47.6449 24.8566 50.796V56.5103Z" fill="#FC6600"/>
<path d="M60.2126 40.1839H47.6412C47.2075 40.1839 46.8555 39.8182 46.8555 39.3676C46.8555 38.917 47.2075 38.5513 47.6412 38.5513H60.2126C60.6463 38.5513 60.9983 38.917 60.9983 39.3676C60.9983 39.8182 60.6463 40.1839 60.2126 40.1839Z" fill="#FC6600"/>
<path d="M53.9267 46.7147C53.7256 46.7147 53.5244 46.6347 53.3704 46.4763C53.064 46.1579 53.064 45.6404 53.3704 45.322L59.0999 39.3693L53.3704 33.4166C53.064 33.0983 53.064 32.5807 53.3704 32.2623C53.6769 31.944 54.175 31.944 54.4814 32.2623L60.7672 38.793C61.0736 39.1114 61.0736 39.6289 60.7672 39.9473L54.4814 46.4779C54.329 46.6347 54.1279 46.7147 53.9267 46.7147Z" fill="#FC6600"/>
</svg>
