<svg width="82" height="82" viewBox="0 0 82 82" fill="none" xmlns="http://www.w3.org/2000/svg">
<circle cx="41" cy="41" r="40" stroke="#FC6600" stroke-width="2"/>
<path d="M60.3548 39.2119H57.7742V32.7603H58.4194C58.5469 32.7603 58.6716 32.7224 58.7777 32.6516C58.8838 32.5807 58.9665 32.4799 59.0153 32.362C59.0641 32.2442 59.0769 32.1145 59.052 31.9893C59.0271 31.8642 58.9657 31.7493 58.8755 31.659L47.2626 20.0461C47.1416 19.9251 46.9775 19.8572 46.8064 19.8571H35.1935C35.0225 19.8572 34.8584 19.9251 34.7374 20.0461L23.1245 31.659C23.0343 31.7493 22.9729 31.8642 22.948 31.9893C22.9231 32.1145 22.9359 32.2442 22.9847 32.362C23.0335 32.4799 23.1162 32.5807 23.2223 32.6516C23.3284 32.7224 23.4531 32.7603 23.5806 32.7603H26.8065V38.5668H21.6452C21.4741 38.5668 21.31 38.6347 21.189 38.7557C21.068 38.8767 21 39.0408 21 39.2119V50.8248C21 50.9959 21.068 51.16 21.189 51.281C21.31 51.402 21.4741 51.47 21.6452 51.47H26.8065C26.9776 51.47 27.1417 51.402 27.2626 51.281C27.3836 51.16 27.4516 50.9959 27.4516 50.8248V50.1797H30.4652L30.9168 50.51L29.5161 52.3732C29.4645 52.442 29.4272 52.5204 29.4063 52.6039C29.3855 52.6873 29.3815 52.7741 29.3947 52.8591C29.4078 52.9441 29.4379 53.0256 29.483 53.0988C29.5281 53.172 29.5874 53.2355 29.6574 53.2855L38.6897 59.7371C38.8268 59.8349 38.9968 59.8753 39.1633 59.8495C39.3298 59.8237 39.4796 59.7338 39.5806 59.599L40.8864 57.8571L42.5529 59.0829C42.6895 59.1841 42.8605 59.2274 43.0288 59.2032C43.1971 59.179 43.349 59.0894 43.4516 58.9538L44.9252 56.9893L45.1187 57.1409C45.1864 57.1937 45.2639 57.2325 45.3468 57.2549C45.4297 57.2774 45.5162 57.283 45.6012 57.2716C45.6863 57.2602 45.7683 57.2319 45.8423 57.1884C45.9163 57.1449 45.9809 57.0871 46.0323 57.0184L47.5058 55.0539L47.6994 55.2055C47.767 55.2583 47.8446 55.297 47.9275 55.3194C48.0103 55.3419 48.0968 55.3475 48.1819 55.3361C48.267 55.3247 48.3489 55.2964 48.4229 55.253C48.4969 55.2095 48.5615 55.1516 48.6129 55.0829L50.0865 53.1184L50.28 53.27C50.3477 53.3228 50.4252 53.3615 50.5081 53.384C50.591 53.4064 50.6775 53.4121 50.7625 53.4007C50.8476 53.3892 50.9296 53.361 51.0036 53.3175C51.0776 53.274 51.1422 53.2162 51.1935 53.1474L52.9355 50.8248H54.5484V51.47C54.5484 51.6411 54.6164 51.8052 54.7374 51.9262C54.8583 52.0472 55.0224 52.1151 55.1935 52.1151H60.3548C60.5259 52.1151 60.69 52.0472 60.811 51.9262C60.932 51.8052 61 51.6411 61 51.47V39.8571C61 39.686 60.932 39.5219 60.811 39.4009C60.69 39.2799 60.5259 39.2119 60.3548 39.2119ZM26.1613 50.1797H22.2903V39.8571H26.1613V50.1797ZM56.8619 31.47H47.0735L36.751 21.1474H46.5394L56.8619 31.47ZM35.1935 21.4145L45.249 31.47H43.2026L35.6497 23.9171C35.5287 23.7962 35.3646 23.7282 35.1935 23.7282C35.0225 23.7282 34.8584 23.7962 34.7374 23.9171L27.1845 31.47H25.1381L35.1935 21.4145ZM35.1935 39.2119V39.8571H33.2581V36.6313C33.2581 36.118 33.462 35.6257 33.825 35.2627C34.1879 34.8997 34.6802 34.6958 35.1935 34.6958C35.7069 34.6958 36.1992 34.8997 36.5621 35.2627C36.9251 35.6257 37.129 36.118 37.129 36.6313V38.5668H35.8387C35.6676 38.5668 35.5035 38.6347 35.3825 38.7557C35.2615 38.8767 35.1935 39.0408 35.1935 39.2119ZM35.1935 33.4055C34.3383 33.4065 33.5184 33.7467 32.9137 34.3514C32.309 34.9562 31.9688 35.7761 31.9677 36.6313V39.8571H28.0968V32.3823L35.1935 25.2855L42.2903 32.3823V38.5668H38.4194V36.6313C38.4183 35.7761 38.0781 34.9562 37.4734 34.3514C36.8687 33.7467 36.0488 33.4065 35.1935 33.4055ZM31.9523 51.2764L33.0948 52.1151L32.0968 53.4442L30.9413 52.619L31.9523 51.2764ZM37.5652 55.41L36.6161 56.67L35.4606 55.8448L36.4194 54.5668L37.5652 55.41ZM34.4135 55.0958L33.1535 54.1926L34.1368 52.881L35.3839 53.7997L34.4135 55.0958ZM38.9297 58.3216L37.6697 57.4184L38.6039 56.1726L39.851 57.0906L38.9297 58.3216ZM50.5555 51.848L45.2652 47.7345L44.4729 48.7539L49.0658 52.3261L47.9729 53.7835L42.6826 49.67L41.8903 50.6893L46.4832 54.2616L45.3903 55.719L40.1 51.6055L39.3077 52.6248L43.9006 56.1971L42.7974 57.668L31.06 49.0184C30.9496 48.9355 30.8155 48.8903 30.6774 48.8893H27.4516V41.1474H35.1935V41.7926C35.1935 41.9637 35.2615 42.1278 35.3825 42.2488C35.5035 42.3698 35.6676 42.4377 35.8387 42.4377H41.4265L51.7129 50.3035L50.5555 51.848ZM52.8316 49.5345L42.0368 41.2803C41.9245 41.1939 41.7868 41.1472 41.6452 41.1474H36.4839V39.8571H42.831L48.5381 41.7597C48.6038 41.7815 48.6727 41.7926 48.7419 41.7926H54.5484V49.5345H52.8316ZM54.5484 39.8571V40.5023H48.8465L46.1613 39.6074V35.341H53.9032V37.9216H55.1935V34.6958C55.1935 34.5247 55.1256 34.3606 55.0046 34.2396C54.8836 34.1186 54.7195 34.0506 54.5484 34.0506H45.5161C45.345 34.0506 45.1809 34.1186 45.0599 34.2396C44.9389 34.3606 44.871 34.5247 44.871 34.6958V39.1771L43.5806 38.7468V32.7603H56.4839V39.2119H55.1935C55.0224 39.2119 54.8583 39.2799 54.7374 39.4009C54.6164 39.5219 54.5484 39.686 54.5484 39.8571ZM59.7097 50.8248H55.8387V40.5023H59.7097V50.8248Z" fill="#FC6600"/>
<path d="M35.1939 27.5991C34.6835 27.5991 34.1846 27.7504 33.7602 28.034C33.3358 28.3175 33.005 28.7206 32.8097 29.1921C32.6144 29.6637 32.5633 30.1826 32.6629 30.6832C32.7624 31.1838 33.0082 31.6436 33.3691 32.0045C33.73 32.3654 34.1899 32.6112 34.6905 32.7108C35.1911 32.8103 35.7099 32.7592 36.1815 32.5639C36.653 32.3686 37.0561 32.0378 37.3397 31.6134C37.6232 31.189 37.7746 30.6901 37.7746 30.1797C37.7746 29.4953 37.5027 28.8389 37.0187 28.3549C36.5348 27.8709 35.8784 27.5991 35.1939 27.5991ZM35.1939 31.47C34.9387 31.47 34.6893 31.3943 34.4771 31.2526C34.2649 31.1108 34.0995 30.9093 34.0018 30.6735C33.9042 30.4377 33.8786 30.1783 33.9284 29.928C33.9782 29.6777 34.1011 29.4478 34.2815 29.2673C34.462 29.0869 34.6919 28.964 34.9422 28.9142C35.1925 28.8644 35.4519 28.8899 35.6877 28.9876C35.9235 29.0853 36.125 29.2506 36.2668 29.4628C36.4086 29.675 36.4843 29.9245 36.4843 30.1797C36.4843 30.5219 36.3483 30.8501 36.1063 31.0921C35.8643 31.3341 35.5361 31.47 35.1939 31.47Z" fill="#FC6600"/>
</svg>
