<svg width="82" height="82" viewBox="0 0 82 82" fill="none" xmlns="http://www.w3.org/2000/svg">
<circle cx="41" cy="41" r="40" stroke="#FC6600" stroke-width="2"/>
<path d="M52.8089 39.0505C49.6637 35.9045 44.7345 35.4188 41.0359 37.8902C37.3372 40.3616 35.8991 45.1018 37.6011 49.212C39.3031 53.3222 43.6712 55.6576 48.034 54.79C52.3968 53.9223 55.5393 50.0934 55.5395 45.6446C55.5467 43.17 54.5635 40.7955 52.8089 39.0505ZM51.8666 51.2964C49.1704 53.9926 44.9453 54.4087 41.7752 52.29C38.6051 50.1713 37.3729 46.1081 38.8321 42.5853C40.2913 39.0624 44.0356 37.0609 47.7751 37.805C51.5146 38.5491 54.2077 41.8314 54.2075 45.6447C54.2134 47.7656 53.3705 49.8008 51.8666 51.2964Z" fill="#FC6600"/>
<path fill-rule="evenodd" clip-rule="evenodd" d="M46.2166 38.984C44.4493 38.9789 42.7535 39.6818 41.508 40.9357C41.3349 41.1029 41.2655 41.3505 41.3264 41.5834C41.3874 41.8163 41.5692 41.9982 41.8021 42.0591C42.0349 42.1201 42.2826 42.0507 42.4497 41.8775C43.4462 40.8744 44.8028 40.312 46.2166 40.3162C46.5845 40.3162 46.8826 40.018 46.8826 39.6501C46.8826 39.2822 46.5845 38.984 46.2166 38.984Z" fill="#FC6600"/>
<path d="M58.5593 54.2211C58.2224 53.8866 57.7326 53.7574 57.2746 53.8821L55.9813 52.5846C59.3776 47.8214 58.8332 41.3007 54.6939 37.1669C54.4275 36.9005 54.1438 36.646 53.8548 36.4062C54.0333 36.2699 54.1941 36.1119 54.3336 35.9359C55.2183 34.7624 54.9925 33.0951 53.8274 32.1993L39.8414 21.542C38.8854 20.8193 37.5659 20.8193 36.6099 21.542L32.231 24.8784V23.6642C32.231 22.9285 31.6347 22.332 30.899 22.332H26.903C26.1674 22.332 25.571 22.9285 25.571 23.6642V29.954L22.622 32.2007C21.7111 32.8933 21.3444 34.0904 21.7107 35.1745C22.0771 36.2587 23.0947 36.9877 24.239 36.9858V53.6377C24.239 54.3734 24.8354 54.9698 25.571 54.9698H38.6859C42.8618 58.3511 48.7799 58.5315 53.154 55.4108L54.4507 56.7116C54.3297 57.1677 54.4597 57.6538 54.7923 57.9885L56.9901 60.1865C57.659 60.8791 58.6494 61.1569 59.5809 60.9131C60.5123 60.6693 61.2396 59.9418 61.4834 59.0103C61.7272 58.0788 61.4495 57.0882 60.7569 56.4193L58.5593 54.2211ZM26.903 23.6642H30.899V25.8936L26.903 28.9389V23.6642ZM23.1781 35.132C22.7348 34.5442 22.8474 33.709 23.4305 33.2597L37.4165 22.6024C37.8934 22.235 38.5579 22.235 39.0349 22.6024L53.0209 33.2597C53.6022 33.7077 53.716 34.5395 53.2767 35.1273C53.1273 35.3232 52.9261 35.4734 52.6959 35.5609C51.8239 34.9979 50.8816 34.5521 49.8933 34.2348L38.6286 25.6457C38.3902 25.464 38.0598 25.464 37.8215 25.6457L25.0496 35.3825C24.4623 35.8251 23.6284 35.7135 23.1781 35.132ZM25.571 36.6227C25.6695 36.5688 25.7645 36.5087 25.8554 36.4429L38.225 27.0125L46.9856 33.6926C46.7299 33.6767 46.4754 33.6553 46.217 33.6553C43.0359 33.6466 39.9835 34.911 37.7402 37.1669C37.1845 37.7228 36.684 38.3314 36.2458 38.9839H33.563C32.4595 38.9839 31.565 39.8785 31.565 40.9821V53.6376H25.571V36.6227ZM32.897 40.9822C32.897 40.6143 33.1952 40.3161 33.563 40.3161H35.4844C33.2934 44.7077 34.0141 49.993 37.3006 53.6377H32.897V40.9822ZM38.6825 53.1801C35.088 49.5847 34.5335 43.9505 37.3582 39.7233C40.1829 35.496 45.6 33.853 50.2965 35.799C54.9931 37.7451 57.6612 42.7381 56.669 47.7247C55.6768 52.7112 51.3007 56.3024 46.217 56.3019C43.3894 56.3098 40.6762 55.1856 38.6825 53.1801ZM54.6938 54.1226C54.8516 53.9641 54.9928 53.7942 55.1413 53.6284L56.2029 54.6941L55.2599 55.636L54.1983 54.5702C54.3641 54.423 54.5346 54.2811 54.6938 54.1226ZM59.8126 59.2421C59.2857 59.7455 58.4561 59.7455 57.9292 59.2421L55.7314 57.044L57.6149 55.1603L59.8126 57.3584C60.3327 57.8786 60.3327 58.7219 59.8126 59.2421Z" fill="#FC6600"/>
</svg>
