<svg width="998" height="788" viewBox="0 0 998 788" fill="none" xmlns="http://www.w3.org/2000/svg">
<path d="M231.286 222.41V231.86H243.976V237.854H231.286V247.844H245.596V254H223.726V216.254H245.596V222.41H231.286ZM268.99 254L262.834 244.712L257.38 254H249.28L259.054 238.988L249.172 224.084H257.704L263.806 233.318L269.314 224.084H277.414L267.586 238.988L277.522 254H268.99ZM289.188 228.404C290.16 227.036 291.492 225.902 293.184 225.002C294.912 224.066 296.874 223.598 299.07 223.598C301.626 223.598 303.93 224.228 305.982 225.488C308.07 226.748 309.708 228.548 310.896 230.888C312.12 233.192 312.732 235.874 312.732 238.934C312.732 241.994 312.12 244.712 310.896 247.088C309.708 249.428 308.07 251.246 305.982 252.542C303.93 253.838 301.626 254.486 299.07 254.486C296.874 254.486 294.93 254.036 293.238 253.136C291.582 252.236 290.232 251.102 289.188 249.734V268.256H281.628V224.084H289.188V228.404ZM305.01 238.934C305.01 237.134 304.632 235.586 303.876 234.29C303.156 232.958 302.184 231.95 300.96 231.266C299.772 230.582 298.476 230.24 297.072 230.24C295.704 230.24 294.408 230.6 293.184 231.32C291.996 232.004 291.024 233.012 290.268 234.344C289.548 235.676 289.188 237.242 289.188 239.042C289.188 240.842 289.548 242.408 290.268 243.74C291.024 245.072 291.996 246.098 293.184 246.818C294.408 247.502 295.704 247.844 297.072 247.844C298.476 247.844 299.772 247.484 300.96 246.764C302.184 246.044 303.156 245.018 303.876 243.686C304.632 242.354 305.01 240.77 305.01 238.934ZM325.786 214.04V254H318.226V214.04H325.786ZM346.539 254.486C343.659 254.486 341.067 253.856 338.763 252.596C336.459 251.3 334.641 249.482 333.309 247.142C332.013 244.802 331.365 242.102 331.365 239.042C331.365 235.982 332.031 233.282 333.363 230.942C334.731 228.602 336.585 226.802 338.925 225.542C341.265 224.246 343.875 223.598 346.755 223.598C349.635 223.598 352.245 224.246 354.585 225.542C356.925 226.802 358.761 228.602 360.093 230.942C361.461 233.282 362.145 235.982 362.145 239.042C362.145 242.102 361.443 244.802 360.039 247.142C358.671 249.482 356.799 251.3 354.423 252.596C352.083 253.856 349.455 254.486 346.539 254.486ZM346.539 247.898C347.907 247.898 349.185 247.574 350.373 246.926C351.597 246.242 352.569 245.234 353.289 243.902C354.009 242.57 354.369 240.95 354.369 239.042C354.369 236.198 353.613 234.02 352.101 232.508C350.625 230.96 348.807 230.186 346.647 230.186C344.487 230.186 342.669 230.96 341.193 232.508C339.753 234.02 339.033 236.198 339.033 239.042C339.033 241.886 339.735 244.082 341.139 245.63C342.579 247.142 344.379 247.898 346.539 247.898ZM375.251 228.728C376.223 227.144 377.483 225.902 379.031 225.002C380.615 224.102 382.415 223.652 384.431 223.652V231.59H382.433C380.057 231.59 378.257 232.148 377.033 233.264C375.845 234.38 375.251 236.324 375.251 239.096V254H367.691V224.084H375.251V228.728ZM417.333 238.394C417.333 239.474 417.261 240.446 417.117 241.31H395.247C395.427 243.47 396.183 245.162 397.515 246.386C398.847 247.61 400.485 248.222 402.429 248.222C405.237 248.222 407.235 247.016 408.423 244.604H416.577C415.713 247.484 414.057 249.86 411.609 251.732C409.161 253.568 406.155 254.486 402.591 254.486C399.711 254.486 397.119 253.856 394.815 252.596C392.547 251.3 390.765 249.482 389.469 247.142C388.209 244.802 387.579 242.102 387.579 239.042C387.579 235.946 388.209 233.228 389.469 230.888C390.729 228.548 392.493 226.748 394.761 225.488C397.029 224.228 399.639 223.598 402.591 223.598C405.435 223.598 407.973 224.21 410.205 225.434C412.473 226.658 414.219 228.404 415.443 230.672C416.703 232.904 417.333 235.478 417.333 238.394ZM409.503 236.234C409.467 234.29 408.765 232.742 407.397 231.59C406.029 230.402 404.355 229.808 402.375 229.808C400.503 229.808 398.919 230.384 397.623 231.536C396.363 232.652 395.589 234.218 395.301 236.234H409.503ZM444.52 230.294V244.766C444.52 245.774 444.754 246.512 445.222 246.98C445.726 247.412 446.554 247.628 447.706 247.628H451.216V254H446.464C440.092 254 436.906 250.904 436.906 244.712V230.294H433.342V224.084H436.906V216.686H444.52V224.084H451.216V230.294H444.52ZM473.502 223.652C475.77 223.652 477.786 224.156 479.55 225.164C481.314 226.136 482.682 227.594 483.654 229.538C484.662 231.446 485.166 233.75 485.166 236.45V254H477.606V237.476C477.606 235.1 477.012 233.282 475.824 232.022C474.636 230.726 473.016 230.078 470.964 230.078C468.876 230.078 467.22 230.726 465.996 232.022C464.808 233.282 464.214 235.1 464.214 237.476V254H456.654V214.04H464.214V227.81C465.186 226.514 466.482 225.506 468.102 224.786C469.722 224.03 471.522 223.652 473.502 223.652ZM520.165 238.394C520.165 239.474 520.093 240.446 519.949 241.31H498.079C498.259 243.47 499.015 245.162 500.347 246.386C501.679 247.61 503.317 248.222 505.261 248.222C508.069 248.222 510.067 247.016 511.255 244.604H519.409C518.545 247.484 516.889 249.86 514.441 251.732C511.993 253.568 508.987 254.486 505.423 254.486C502.543 254.486 499.951 253.856 497.647 252.596C495.379 251.3 493.597 249.482 492.301 247.142C491.041 244.802 490.411 242.102 490.411 239.042C490.411 235.946 491.041 233.228 492.301 230.888C493.561 228.548 495.325 226.748 497.593 225.488C499.861 224.228 502.471 223.598 505.423 223.598C508.267 223.598 510.805 224.21 513.037 225.434C515.305 226.658 517.051 228.404 518.275 230.672C519.535 232.904 520.165 235.478 520.165 238.394ZM512.335 236.234C512.299 234.29 511.597 232.742 510.229 231.59C508.861 230.402 507.187 229.808 505.207 229.808C503.335 229.808 501.751 230.384 500.455 231.536C499.195 232.652 498.421 234.218 498.133 236.234H512.335ZM561.824 216.308V222.41H546.11V232.076H558.152V238.07H546.11V254H538.55V216.308H561.824ZM594.995 238.394C594.995 239.474 594.923 240.446 594.779 241.31H572.909C573.089 243.47 573.845 245.162 575.177 246.386C576.509 247.61 578.147 248.222 580.091 248.222C582.899 248.222 584.897 247.016 586.085 244.604H594.239C593.375 247.484 591.719 249.86 589.271 251.732C586.823 253.568 583.817 254.486 580.253 254.486C577.373 254.486 574.781 253.856 572.477 252.596C570.209 251.3 568.427 249.482 567.131 247.142C565.871 244.802 565.241 242.102 565.241 239.042C565.241 235.946 565.871 233.228 567.131 230.888C568.391 228.548 570.155 226.748 572.423 225.488C574.691 224.228 577.301 223.598 580.253 223.598C583.097 223.598 585.635 224.21 587.867 225.434C590.135 226.658 591.881 228.404 593.105 230.672C594.365 232.904 594.995 235.478 594.995 238.394ZM587.165 236.234C587.129 234.29 586.427 232.742 585.059 231.59C583.691 230.402 582.017 229.808 580.037 229.808C578.165 229.808 576.581 230.384 575.285 231.536C574.025 232.652 573.251 234.218 572.963 236.234H587.165ZM598.569 238.934C598.569 235.91 599.163 233.228 600.351 230.888C601.575 228.548 603.213 226.748 605.265 225.488C607.353 224.228 609.675 223.598 612.231 223.598C614.463 223.598 616.407 224.048 618.063 224.948C619.755 225.848 621.105 226.982 622.113 228.35V224.084H629.727V254H622.113V249.626C621.141 251.03 619.791 252.2 618.063 253.136C616.371 254.036 614.409 254.486 612.177 254.486C609.657 254.486 607.353 253.838 605.265 252.542C603.213 251.246 601.575 249.428 600.351 247.088C599.163 244.712 598.569 241.994 598.569 238.934ZM622.113 239.042C622.113 237.206 621.753 235.64 621.033 234.344C620.313 233.012 619.341 232.004 618.117 231.32C616.893 230.6 615.579 230.24 614.175 230.24C612.771 230.24 611.475 230.582 610.287 231.266C609.099 231.95 608.127 232.958 607.371 234.29C606.651 235.586 606.291 237.134 606.291 238.934C606.291 240.734 606.651 242.318 607.371 243.686C608.127 245.018 609.099 246.044 610.287 246.764C611.511 247.484 612.807 247.844 614.175 247.844C615.579 247.844 616.893 247.502 618.117 246.818C619.341 246.098 620.313 245.09 621.033 243.794C621.753 242.462 622.113 240.878 622.113 239.042ZM645.913 230.294V244.766C645.913 245.774 646.147 246.512 646.615 246.98C647.119 247.412 647.947 247.628 649.099 247.628H652.609V254H647.857C641.485 254 638.299 250.904 638.299 244.712V230.294H634.735V224.084H638.299V216.686H645.913V224.084H652.609V230.294H645.913ZM686.288 224.084V254H678.674V250.22C677.702 251.516 676.424 252.542 674.84 253.298C673.292 254.018 671.6 254.378 669.764 254.378C667.424 254.378 665.354 253.892 663.554 252.92C661.754 251.912 660.332 250.454 659.288 248.546C658.28 246.602 657.776 244.298 657.776 241.634V224.084H665.336V240.554C665.336 242.93 665.93 244.766 667.118 246.062C668.306 247.322 669.926 247.952 671.978 247.952C674.066 247.952 675.704 247.322 676.892 246.062C678.08 244.766 678.674 242.93 678.674 240.554V224.084H686.288ZM701.307 228.728C702.279 227.144 703.539 225.902 705.087 225.002C706.671 224.102 708.471 223.652 710.487 223.652V231.59H708.489C706.113 231.59 704.313 232.148 703.089 233.264C701.901 234.38 701.307 236.324 701.307 239.096V254H693.747V224.084H701.307V228.728ZM743.39 238.394C743.39 239.474 743.318 240.446 743.174 241.31H721.304C721.484 243.47 722.24 245.162 723.572 246.386C724.904 247.61 726.542 248.222 728.486 248.222C731.294 248.222 733.292 247.016 734.48 244.604H742.634C741.77 247.484 740.114 249.86 737.666 251.732C735.218 253.568 732.212 254.486 728.648 254.486C725.768 254.486 723.176 253.856 720.872 252.596C718.604 251.3 716.822 249.482 715.526 247.142C714.266 244.802 713.636 242.102 713.636 239.042C713.636 235.946 714.266 233.228 715.526 230.888C716.786 228.548 718.55 226.748 720.818 225.488C723.086 224.228 725.696 223.598 728.648 223.598C731.492 223.598 734.03 224.21 736.262 225.434C738.53 226.658 740.276 228.404 741.5 230.672C742.76 232.904 743.39 235.478 743.39 238.394ZM735.56 236.234C735.524 234.29 734.822 232.742 733.454 231.59C732.086 230.402 730.412 229.808 728.432 229.808C726.56 229.808 724.976 230.384 723.68 231.536C722.42 232.652 721.646 234.218 721.358 236.234H735.56ZM746.964 238.934C746.964 235.91 747.558 233.228 748.746 230.888C749.97 228.548 751.626 226.748 753.714 225.488C755.802 224.228 758.124 223.598 760.68 223.598C762.624 223.598 764.478 224.03 766.242 224.894C768.006 225.722 769.41 226.838 770.454 228.242V214.04H778.122V254H770.454V249.572C769.518 251.048 768.204 252.236 766.512 253.136C764.82 254.036 762.858 254.486 760.626 254.486C758.106 254.486 755.802 253.838 753.714 252.542C751.626 251.246 749.97 249.428 748.746 247.088C747.558 244.712 746.964 241.994 746.964 238.934ZM770.508 239.042C770.508 237.206 770.148 235.64 769.428 234.344C768.708 233.012 767.736 232.004 766.512 231.32C765.288 230.6 763.974 230.24 762.57 230.24C761.166 230.24 759.87 230.582 758.682 231.266C757.494 231.95 756.522 232.958 755.766 234.29C755.046 235.586 754.686 237.134 754.686 238.934C754.686 240.734 755.046 242.318 755.766 243.686C756.522 245.018 757.494 246.044 758.682 246.764C759.906 247.484 761.202 247.844 762.57 247.844C763.974 247.844 765.288 247.502 766.512 246.818C767.736 246.098 768.708 245.09 769.428 243.794C770.148 242.462 770.508 240.878 770.508 239.042ZM251.212 285.972C251.212 287.988 250.726 289.878 249.754 291.642C248.818 293.406 247.324 294.828 245.272 295.908C243.256 296.988 240.7 297.528 237.604 297.528H231.286V312H223.726V274.308H237.604C240.52 274.308 243.004 274.812 245.056 275.82C247.108 276.828 248.638 278.214 249.646 279.978C250.69 281.742 251.212 283.74 251.212 285.972ZM237.28 291.426C239.368 291.426 240.916 290.958 241.924 290.022C242.932 289.05 243.436 287.7 243.436 285.972C243.436 282.3 241.384 280.464 237.28 280.464H231.286V291.426H237.28ZM264.14 286.728C265.112 285.144 266.372 283.902 267.92 283.002C269.504 282.102 271.304 281.652 273.32 281.652V289.59H271.322C268.946 289.59 267.146 290.148 265.922 291.264C264.734 292.38 264.14 294.324 264.14 297.096V312H256.58V282.084H264.14V286.728ZM291.696 312.486C288.816 312.486 286.224 311.856 283.92 310.596C281.616 309.3 279.798 307.482 278.466 305.142C277.17 302.802 276.522 300.102 276.522 297.042C276.522 293.982 277.188 291.282 278.52 288.942C279.888 286.602 281.742 284.802 284.082 283.542C286.422 282.246 289.032 281.598 291.912 281.598C294.792 281.598 297.402 282.246 299.742 283.542C302.082 284.802 303.918 286.602 305.25 288.942C306.618 291.282 307.302 293.982 307.302 297.042C307.302 300.102 306.6 302.802 305.196 305.142C303.828 307.482 301.956 309.3 299.58 310.596C297.24 311.856 294.612 312.486 291.696 312.486ZM291.696 305.898C293.064 305.898 294.342 305.574 295.53 304.926C296.754 304.242 297.726 303.234 298.446 301.902C299.166 300.57 299.526 298.95 299.526 297.042C299.526 294.198 298.77 292.02 297.258 290.508C295.782 288.96 293.964 288.186 291.804 288.186C289.644 288.186 287.826 288.96 286.35 290.508C284.91 292.02 284.19 294.198 284.19 297.042C284.19 299.886 284.892 302.082 286.296 303.63C287.736 305.142 289.536 305.898 291.696 305.898ZM320.407 286.404C321.379 285.036 322.711 283.902 324.403 283.002C326.131 282.066 328.093 281.598 330.289 281.598C332.845 281.598 335.149 282.228 337.201 283.488C339.289 284.748 340.927 286.548 342.115 288.888C343.339 291.192 343.951 293.874 343.951 296.934C343.951 299.994 343.339 302.712 342.115 305.088C340.927 307.428 339.289 309.246 337.201 310.542C335.149 311.838 332.845 312.486 330.289 312.486C328.093 312.486 326.149 312.036 324.457 311.136C322.801 310.236 321.451 309.102 320.407 307.734V326.256H312.847V282.084H320.407V286.404ZM336.229 296.934C336.229 295.134 335.851 293.586 335.095 292.29C334.375 290.958 333.403 289.95 332.179 289.266C330.991 288.582 329.695 288.24 328.291 288.24C326.923 288.24 325.627 288.6 324.403 289.32C323.215 290.004 322.243 291.012 321.487 292.344C320.767 293.676 320.407 295.242 320.407 297.042C320.407 298.842 320.767 300.408 321.487 301.74C322.243 303.072 323.215 304.098 324.403 304.818C325.627 305.502 326.923 305.844 328.291 305.844C329.695 305.844 330.991 305.484 332.179 304.764C333.403 304.044 334.375 303.018 335.095 301.686C335.851 300.354 336.229 298.77 336.229 296.934ZM377.255 296.394C377.255 297.474 377.183 298.446 377.039 299.31H355.169C355.349 301.47 356.105 303.162 357.437 304.386C358.769 305.61 360.407 306.222 362.351 306.222C365.159 306.222 367.157 305.016 368.345 302.604H376.499C375.635 305.484 373.979 307.86 371.531 309.732C369.083 311.568 366.077 312.486 362.513 312.486C359.633 312.486 357.041 311.856 354.737 310.596C352.469 309.3 350.687 307.482 349.391 305.142C348.131 302.802 347.501 300.102 347.501 297.042C347.501 293.946 348.131 291.228 349.391 288.888C350.651 286.548 352.415 284.748 354.683 283.488C356.951 282.228 359.561 281.598 362.513 281.598C365.357 281.598 367.895 282.21 370.127 283.434C372.395 284.658 374.141 286.404 375.365 288.672C376.625 290.904 377.255 293.478 377.255 296.394ZM369.425 294.234C369.389 292.29 368.687 290.742 367.319 289.59C365.951 288.402 364.277 287.808 362.297 287.808C360.425 287.808 358.841 288.384 357.545 289.536C356.285 290.652 355.511 292.218 355.223 294.234H369.425ZM390.333 286.728C391.305 285.144 392.565 283.902 394.113 283.002C395.697 282.102 397.497 281.652 399.513 281.652V289.59H397.515C395.139 289.59 393.339 290.148 392.115 291.264C390.927 292.38 390.333 294.324 390.333 297.096V312H382.773V282.084H390.333V286.728ZM413.407 288.294V302.766C413.407 303.774 413.641 304.512 414.109 304.98C414.613 305.412 415.441 305.628 416.593 305.628H420.103V312H415.351C408.979 312 405.793 308.904 405.793 302.712V288.294H402.229V282.084H405.793V274.686H413.407V282.084H420.103V288.294H413.407ZM429.374 278.52C428.042 278.52 426.926 278.106 426.026 277.278C425.162 276.414 424.73 275.352 424.73 274.092C424.73 272.832 425.162 271.788 426.026 270.96C426.926 270.096 428.042 269.664 429.374 269.664C430.706 269.664 431.804 270.096 432.668 270.96C433.568 271.788 434.018 272.832 434.018 274.092C434.018 275.352 433.568 276.414 432.668 277.278C431.804 278.106 430.706 278.52 429.374 278.52ZM433.1 282.084V312H425.54V282.084H433.1ZM468.38 296.394C468.38 297.474 468.308 298.446 468.164 299.31H446.294C446.474 301.47 447.23 303.162 448.562 304.386C449.894 305.61 451.532 306.222 453.476 306.222C456.284 306.222 458.282 305.016 459.47 302.604H467.624C466.76 305.484 465.104 307.86 462.656 309.732C460.208 311.568 457.202 312.486 453.638 312.486C450.758 312.486 448.166 311.856 445.862 310.596C443.594 309.3 441.812 307.482 440.516 305.142C439.256 302.802 438.626 300.102 438.626 297.042C438.626 293.946 439.256 291.228 440.516 288.888C441.776 286.548 443.54 284.748 445.808 283.488C448.076 282.228 450.686 281.598 453.638 281.598C456.482 281.598 459.02 282.21 461.252 283.434C463.52 284.658 465.266 286.404 466.49 288.672C467.75 290.904 468.38 293.478 468.38 296.394ZM460.55 294.234C460.514 292.29 459.812 290.742 458.444 289.59C457.076 288.402 455.402 287.808 453.422 287.808C451.55 287.808 449.966 288.384 448.67 289.536C447.41 290.652 446.636 292.218 446.348 294.234H460.55ZM485.346 312.486C482.898 312.486 480.702 312.054 478.758 311.19C476.814 310.29 475.266 309.084 474.114 307.572C472.998 306.06 472.386 304.386 472.278 302.55H479.892C480.036 303.702 480.594 304.656 481.566 305.412C482.574 306.168 483.816 306.546 485.292 306.546C486.732 306.546 487.848 306.258 488.64 305.682C489.468 305.106 489.882 304.368 489.882 303.468C489.882 302.496 489.378 301.776 488.37 301.308C487.398 300.804 485.832 300.264 483.672 299.688C481.44 299.148 479.604 298.59 478.164 298.014C476.76 297.438 475.536 296.556 474.492 295.368C473.484 294.18 472.98 292.578 472.98 290.562C472.98 288.906 473.448 287.394 474.384 286.026C475.356 284.658 476.724 283.578 478.488 282.786C480.288 281.994 482.394 281.598 484.806 281.598C488.37 281.598 491.214 282.498 493.338 284.298C495.462 286.062 496.632 288.456 496.848 291.48H489.612C489.504 290.292 489 289.356 488.1 288.672C487.236 287.952 486.066 287.592 484.59 287.592C483.222 287.592 482.16 287.844 481.404 288.348C480.684 288.852 480.324 289.554 480.324 290.454C480.324 291.462 480.828 292.236 481.836 292.776C482.844 293.28 484.41 293.802 486.534 294.342C488.694 294.882 490.476 295.44 491.88 296.016C493.284 296.592 494.49 297.492 495.498 298.716C496.542 299.904 497.082 301.488 497.118 303.468C497.118 305.196 496.632 306.744 495.66 308.112C494.724 309.48 493.356 310.56 491.556 311.352C489.792 312.108 487.722 312.486 485.346 312.486Z" fill="#FC6600"/>
<path opacity="0.08" d="M70 50H940C951.046 50 960 58.9543 960 70V782H70V50Z" fill="#FC6600"/>
<circle cx="3" cy="3" r="3" transform="matrix(1 0 0 -1 829 126.863)" fill="#FC6600"/>
<circle cx="3" cy="3" r="3" transform="matrix(1 0 0 -1 883.582 126.863)" fill="#FC6600"/>
<circle cx="3" cy="3" r="3" transform="matrix(1 0 0 -1 856.293 126.863)" fill="#FC6600"/>
<circle cx="3" cy="3" r="3" transform="matrix(1 0 0 -1 910.875 126.863)" fill="#FC6600"/>
<circle cx="3" cy="3" r="3" transform="matrix(1 0 0 -1 829 102.691)" fill="#FC6600"/>
<circle cx="3" cy="3" r="3" transform="matrix(1 0 0 -1 883.582 102.691)" fill="#FC6600"/>
<circle cx="3" cy="3" r="3" transform="matrix(1 0 0 -1 856.293 102.691)" fill="#FC6600"/>
<circle cx="3" cy="3" r="3" transform="matrix(1 0 0 -1 910.875 102.691)" fill="#FC6600"/>
<circle cx="3" cy="3" r="3" transform="matrix(1 0 0 -1 829 78.5186)" fill="#FC6600"/>
<circle cx="3" cy="3" r="3" transform="matrix(1 0 0 -1 883.582 78.5186)" fill="#FC6600"/>
<circle cx="3" cy="3" r="3" transform="matrix(1 0 0 -1 856.293 78.5186)" fill="#FC6600"/>
<circle cx="3" cy="3" r="3" transform="matrix(1 0 0 -1 910.875 78.5186)" fill="#FC6600"/>
<circle cx="3" cy="3" r="3" transform="matrix(1 0 0 -1 829 54.3451)" fill="#FC6600"/>
<circle cx="3" cy="3" r="3" transform="matrix(1 0 0 -1 883.582 54.3451)" fill="#FC6600"/>
<circle cx="3" cy="3" r="3" transform="matrix(1 0 0 -1 856.293 54.3451)" fill="#FC6600"/>
<circle cx="3" cy="3" r="3" transform="matrix(1 0 0 -1 910.875 54.3451)" fill="#FC6600"/>
<circle cx="3" cy="3" r="3" transform="matrix(1 0 0 -1 829 30.1729)" fill="#FC6600"/>
<circle cx="3" cy="3" r="3" transform="matrix(1 0 0 -1 883.582 30.1729)" fill="#FC6600"/>
<circle cx="3" cy="3" r="3" transform="matrix(1 0 0 -1 856.293 30.1729)" fill="#FC6600"/>
<circle cx="3" cy="3" r="3" transform="matrix(1 0 0 -1 910.875 30.1729)" fill="#FC6600"/>
<circle cx="3" cy="3" r="3" transform="matrix(1 0 0 -1 829 6.00024)" fill="#FC6600"/>
<circle cx="3" cy="3" r="3" transform="matrix(1 0 0 -1 883.582 6.00049)" fill="#FC6600"/>
<circle cx="3" cy="3" r="3" transform="matrix(1 0 0 -1 856.293 6.00049)" fill="#FC6600"/>
<circle cx="3" cy="3" r="3" transform="matrix(1 0 0 -1 910.875 6.00049)" fill="#FC6600"/>
<circle cx="123.863" cy="447" r="3" transform="rotate(90 123.863 447)" fill="#FC6600"/>
<circle cx="123.863" cy="501.583" r="3" transform="rotate(90 123.863 501.583)" fill="#FC6600"/>
<circle cx="123.863" cy="474.292" r="3" transform="rotate(90 123.863 474.292)" fill="#FC6600"/>
<circle cx="123.863" cy="528.875" r="3" transform="rotate(90 123.863 528.875)" fill="#FC6600"/>
<circle cx="99.6914" cy="447" r="3" transform="rotate(90 99.6914 447)" fill="#FC6600"/>
<circle cx="99.6914" cy="501.583" r="3" transform="rotate(90 99.6914 501.583)" fill="#FC6600"/>
<circle cx="99.6914" cy="474.292" r="3" transform="rotate(90 99.6914 474.292)" fill="#FC6600"/>
<circle cx="99.6914" cy="528.875" r="3" transform="rotate(90 99.6914 528.875)" fill="#FC6600"/>
<circle cx="75.5195" cy="447" r="3" transform="rotate(90 75.5195 447)" fill="#FC6600"/>
<circle cx="75.5195" cy="501.583" r="3" transform="rotate(90 75.5195 501.583)" fill="#FC6600"/>
<circle cx="75.5195" cy="474.292" r="3" transform="rotate(90 75.5195 474.292)" fill="#FC6600"/>
<circle cx="75.5195" cy="528.875" r="3" transform="rotate(90 75.5195 528.875)" fill="#FC6600"/>
<circle cx="51.3438" cy="447" r="3" transform="rotate(90 51.3438 447)" fill="#FC6600"/>
<circle cx="51.3438" cy="501.583" r="3" transform="rotate(90 51.3438 501.583)" fill="#FC6600"/>
<circle cx="51.3438" cy="474.292" r="3" transform="rotate(90 51.3438 474.292)" fill="#FC6600"/>
<circle cx="51.3438" cy="528.875" r="3" transform="rotate(90 51.3438 528.875)" fill="#FC6600"/>
<circle cx="27.1719" cy="447" r="3" transform="rotate(90 27.1719 447)" fill="#FC6600"/>
<circle cx="27.1719" cy="501.583" r="3" transform="rotate(90 27.1719 501.583)" fill="#FC6600"/>
<circle cx="27.1719" cy="474.292" r="3" transform="rotate(90 27.1719 474.292)" fill="#FC6600"/>
<circle cx="27.1719" cy="528.875" r="3" transform="rotate(90 27.1719 528.875)" fill="#FC6600"/>
<circle cx="3" cy="447" r="3" transform="rotate(90 3 447)" fill="#FC6600"/>
<circle cx="3" cy="501.583" r="3" transform="rotate(90 3 501.583)" fill="#FC6600"/>
<circle cx="3" cy="474.292" r="3" transform="rotate(90 3 474.292)" fill="#FC6600"/>
<circle cx="3" cy="528.875" r="3" transform="rotate(90 3 528.875)" fill="#FC6600"/>
<g opacity="0.08">
<path d="M70 50H940C951.046 50 960 58.9543 960 70V782H70V50Z" fill="#FC6600"/>
<path d="M70 50H940C951.046 50 960 58.9543 960 70V782H70V50Z" fill="#FC6600"/>
<path d="M835 123.863C835 122.206 833.657 120.863 832 120.863C830.343 120.863 829 122.206 829 123.863C829 125.52 830.343 126.863 832 126.863C833.657 126.863 835 125.52 835 123.863Z" fill="#FC6600"/>
<path d="M889.582 123.863C889.582 122.206 888.239 120.863 886.582 120.863C884.925 120.863 883.582 122.206 883.582 123.863C883.582 125.52 884.925 126.863 886.582 126.863C888.239 126.863 889.582 125.52 889.582 123.863Z" fill="#FC6600"/>
<path d="M862.293 123.863C862.293 122.206 860.95 120.863 859.293 120.863C857.636 120.863 856.293 122.206 856.293 123.863C856.293 125.52 857.636 126.863 859.293 126.863C860.95 126.863 862.293 125.52 862.293 123.863Z" fill="#FC6600"/>
<path d="M916.875 123.863C916.875 122.206 915.532 120.863 913.875 120.863C912.218 120.863 910.875 122.206 910.875 123.863C910.875 125.52 912.218 126.863 913.875 126.863C915.532 126.863 916.875 125.52 916.875 123.863Z" fill="#FC6600"/>
<path d="M835 99.6907C835 98.0338 833.657 96.6907 832 96.6907C830.343 96.6907 829 98.0338 829 99.6907C829 101.348 830.343 102.691 832 102.691C833.657 102.691 835 101.348 835 99.6907Z" fill="#FC6600"/>
<path d="M889.582 99.6909C889.582 98.0341 888.239 96.6909 886.582 96.6909C884.925 96.6909 883.582 98.0341 883.582 99.6909C883.582 101.348 884.925 102.691 886.582 102.691C888.239 102.691 889.582 101.348 889.582 99.6909Z" fill="#FC6600"/>
<path d="M862.293 99.6909C862.293 98.0341 860.95 96.6909 859.293 96.6909C857.636 96.6909 856.293 98.0341 856.293 99.6909C856.293 101.348 857.636 102.691 859.293 102.691C860.95 102.691 862.293 101.348 862.293 99.6909Z" fill="#FC6600"/>
<path d="M916.875 99.6909C916.875 98.0341 915.532 96.6909 913.875 96.6909C912.218 96.6909 910.875 98.0341 910.875 99.6909C910.875 101.348 912.218 102.691 913.875 102.691C915.532 102.691 916.875 101.348 916.875 99.6909Z" fill="#FC6600"/>
<path d="M835 75.5186C835 73.8617 833.657 72.5186 832 72.5186C830.343 72.5186 829 73.8617 829 75.5186C829 77.1754 830.343 78.5186 832 78.5186C833.657 78.5186 835 77.1754 835 75.5186Z" fill="#FC6600"/>
<path d="M889.582 75.5186C889.582 73.8617 888.239 72.5186 886.582 72.5186C884.925 72.5186 883.582 73.8617 883.582 75.5186C883.582 77.1754 884.925 78.5186 886.582 78.5186C888.239 78.5186 889.582 77.1754 889.582 75.5186Z" fill="#FC6600"/>
<path d="M862.293 75.5186C862.293 73.8617 860.95 72.5186 859.293 72.5186C857.636 72.5186 856.293 73.8617 856.293 75.5186C856.293 77.1754 857.636 78.5186 859.293 78.5186C860.95 78.5186 862.293 77.1754 862.293 75.5186Z" fill="#FC6600"/>
<path d="M916.875 75.5186C916.875 73.8617 915.532 72.5186 913.875 72.5186C912.218 72.5186 910.875 73.8617 910.875 75.5186C910.875 77.1754 912.218 78.5186 913.875 78.5186C915.532 78.5186 916.875 77.1754 916.875 75.5186Z" fill="#FC6600"/>
<path d="M835 51.3451C835 49.6882 833.657 48.3451 832 48.3451C830.343 48.3451 829 49.6882 829 51.3451C829 53.0019 830.343 54.3451 832 54.3451C833.657 54.3451 835 53.0019 835 51.3451Z" fill="#FC6600"/>
<path d="M889.582 51.3451C889.582 49.6882 888.239 48.3451 886.582 48.3451C884.925 48.3451 883.582 49.6882 883.582 51.3451C883.582 53.0019 884.925 54.3451 886.582 54.3451C888.239 54.3451 889.582 53.0019 889.582 51.3451Z" fill="#FC6600"/>
<path d="M862.293 51.3451C862.293 49.6882 860.95 48.3451 859.293 48.3451C857.636 48.3451 856.293 49.6882 856.293 51.3451C856.293 53.0019 857.636 54.3451 859.293 54.3451C860.95 54.3451 862.293 53.0019 862.293 51.3451Z" fill="#FC6600"/>
<path d="M916.875 51.3451C916.875 49.6882 915.532 48.3451 913.875 48.3451C912.218 48.3451 910.875 49.6882 910.875 51.3451C910.875 53.0019 912.218 54.3451 913.875 54.3451C915.532 54.3451 916.875 53.0019 916.875 51.3451Z" fill="#FC6600"/>
<path d="M835 27.1729C835 25.516 833.657 24.1729 832 24.1729C830.343 24.1729 829 25.516 829 27.1729C829 28.8297 830.343 30.1729 832 30.1729C833.657 30.1729 835 28.8297 835 27.1729Z" fill="#FC6600"/>
<path d="M889.582 27.1729C889.582 25.516 888.239 24.1729 886.582 24.1729C884.925 24.1729 883.582 25.516 883.582 27.1729C883.582 28.8297 884.925 30.1729 886.582 30.1729C888.239 30.1729 889.582 28.8297 889.582 27.1729Z" fill="#FC6600"/>
<path d="M862.293 27.1729C862.293 25.516 860.95 24.1729 859.293 24.1729C857.636 24.1729 856.293 25.516 856.293 27.1729C856.293 28.8297 857.636 30.1729 859.293 30.1729C860.95 30.1729 862.293 28.8297 862.293 27.1729Z" fill="#FC6600"/>
<path d="M916.875 27.1729C916.875 25.516 915.532 24.1729 913.875 24.1729C912.218 24.1729 910.875 25.516 910.875 27.1729C910.875 28.8297 912.218 30.1729 913.875 30.1729C915.532 30.1729 916.875 28.8297 916.875 27.1729Z" fill="#FC6600"/>
<path d="M835 3.00024C835 1.34339 833.657 0.000244141 832 0.000244141C830.343 0.000244141 829 1.34339 829 3.00024C829 4.6571 830.343 6.00024 832 6.00024C833.657 6.00024 835 4.6571 835 3.00024Z" fill="#FC6600"/>
<path d="M889.582 3.00049C889.582 1.34363 888.239 0.000488281 886.582 0.000488281C884.925 0.000488281 883.582 1.34363 883.582 3.00049C883.582 4.65734 884.925 6.00049 886.582 6.00049C888.239 6.00049 889.582 4.65734 889.582 3.00049Z" fill="#FC6600"/>
<path d="M862.293 3.00049C862.293 1.34363 860.95 0.000488281 859.293 0.000488281C857.636 0.000488281 856.293 1.34363 856.293 3.00049C856.293 4.65734 857.636 6.00049 859.293 6.00049C860.95 6.00049 862.293 4.65734 862.293 3.00049Z" fill="#FC6600"/>
<path d="M916.875 3.00049C916.875 1.34363 915.532 0.000488281 913.875 0.000488281C912.218 0.000488281 910.875 1.34363 910.875 3.00049C910.875 4.65734 912.218 6.00049 913.875 6.00049C915.532 6.00049 916.875 4.65734 916.875 3.00049Z" fill="#FC6600"/>
<path d="M123.863 450C122.206 450 120.863 448.657 120.863 447C120.863 445.343 122.206 444 123.863 444C125.52 444 126.863 445.343 126.863 447C126.863 448.657 125.52 450 123.863 450Z" fill="#FC6600"/>
<path d="M123.863 504.583C122.206 504.583 120.863 503.24 120.863 501.583C120.863 499.926 122.206 498.583 123.863 498.583C125.52 498.583 126.863 499.926 126.863 501.583C126.863 503.24 125.52 504.583 123.863 504.583Z" fill="#FC6600"/>
<path d="M123.863 477.292C122.206 477.292 120.863 475.949 120.863 474.292C120.863 472.635 122.206 471.292 123.863 471.292C125.52 471.292 126.863 472.635 126.863 474.292C126.863 475.949 125.52 477.292 123.863 477.292Z" fill="#FC6600"/>
<path d="M123.863 531.875C122.206 531.875 120.863 530.532 120.863 528.875C120.863 527.218 122.206 525.875 123.863 525.875C125.52 525.875 126.863 527.218 126.863 528.875C126.863 530.532 125.52 531.875 123.863 531.875Z" fill="#FC6600"/>
<path d="M99.6914 450C98.0346 450 96.6914 448.657 96.6914 447C96.6914 445.343 98.0346 444 99.6914 444C101.348 444 102.691 445.343 102.691 447C102.691 448.657 101.348 450 99.6914 450Z" fill="#FC6600"/>
<path d="M99.6914 504.583C98.0346 504.583 96.6914 503.24 96.6914 501.583C96.6914 499.926 98.0346 498.583 99.6914 498.583C101.348 498.583 102.691 499.926 102.691 501.583C102.691 503.24 101.348 504.583 99.6914 504.583Z" fill="#FC6600"/>
<path d="M99.6914 477.292C98.0346 477.292 96.6914 475.949 96.6914 474.292C96.6914 472.635 98.0346 471.292 99.6914 471.292C101.348 471.292 102.691 472.635 102.691 474.292C102.691 475.949 101.348 477.292 99.6914 477.292Z" fill="#FC6600"/>
<path d="M99.6914 531.875C98.0346 531.875 96.6914 530.532 96.6914 528.875C96.6914 527.218 98.0346 525.875 99.6914 525.875C101.348 525.875 102.691 527.218 102.691 528.875C102.691 530.532 101.348 531.875 99.6914 531.875Z" fill="#FC6600"/>
<path d="M75.5195 450C73.8627 450 72.5195 448.657 72.5195 447C72.5195 445.343 73.8627 444 75.5195 444C77.1764 444 78.5195 445.343 78.5195 447C78.5195 448.657 77.1764 450 75.5195 450Z" fill="#FC6600"/>
<path d="M75.5195 504.583C73.8627 504.583 72.5195 503.24 72.5195 501.583C72.5195 499.926 73.8627 498.583 75.5195 498.583C77.1764 498.583 78.5195 499.926 78.5195 501.583C78.5195 503.24 77.1764 504.583 75.5195 504.583Z" fill="#FC6600"/>
<path d="M75.5195 477.292C73.8627 477.292 72.5195 475.949 72.5195 474.292C72.5195 472.635 73.8627 471.292 75.5195 471.292C77.1764 471.292 78.5195 472.635 78.5195 474.292C78.5195 475.949 77.1764 477.292 75.5195 477.292Z" fill="#FC6600"/>
<path d="M75.5195 531.875C73.8627 531.875 72.5195 530.532 72.5195 528.875C72.5195 527.218 73.8627 525.875 75.5195 525.875C77.1764 525.875 78.5195 527.218 78.5195 528.875C78.5195 530.532 77.1764 531.875 75.5195 531.875Z" fill="#FC6600"/>
<path d="M51.3438 450C49.6869 450 48.3438 448.657 48.3438 447C48.3437 445.343 49.6869 444 51.3438 444C53.0006 444 54.3437 445.343 54.3438 447C54.3438 448.657 53.0006 450 51.3438 450Z" fill="#FC6600"/>
<path d="M51.3438 504.583C49.6869 504.583 48.3438 503.24 48.3438 501.583C48.3437 499.926 49.6869 498.583 51.3438 498.583C53.0006 498.583 54.3437 499.926 54.3438 501.583C54.3438 503.24 53.0006 504.583 51.3438 504.583Z" fill="#FC6600"/>
<path d="M51.3438 477.292C49.6869 477.292 48.3438 475.949 48.3438 474.292C48.3437 472.635 49.6869 471.292 51.3438 471.292C53.0006 471.292 54.3437 472.635 54.3438 474.292C54.3438 475.949 53.0006 477.292 51.3438 477.292Z" fill="#FC6600"/>
<path d="M51.3438 531.875C49.6869 531.875 48.3438 530.532 48.3438 528.875C48.3437 527.218 49.6869 525.875 51.3438 525.875C53.0006 525.875 54.3437 527.218 54.3438 528.875C54.3438 530.532 53.0006 531.875 51.3438 531.875Z" fill="#FC6600"/>
<path d="M27.1719 450C25.515 450 24.1719 448.657 24.1719 447C24.1719 445.343 25.515 444 27.1719 444C28.8287 444 30.1719 445.343 30.1719 447C30.1719 448.657 28.8287 450 27.1719 450Z" fill="#FC6600"/>
<path d="M27.1719 504.583C25.515 504.583 24.1719 503.24 24.1719 501.583C24.1719 499.926 25.515 498.583 27.1719 498.583C28.8287 498.583 30.1719 499.926 30.1719 501.583C30.1719 503.24 28.8287 504.583 27.1719 504.583Z" fill="#FC6600"/>
<path d="M27.1719 477.292C25.515 477.292 24.1719 475.949 24.1719 474.292C24.1719 472.635 25.515 471.292 27.1719 471.292C28.8287 471.292 30.1719 472.635 30.1719 474.292C30.1719 475.949 28.8287 477.292 27.1719 477.292Z" fill="#FC6600"/>
<path d="M27.1719 531.875C25.515 531.875 24.1719 530.532 24.1719 528.875C24.1719 527.218 25.515 525.875 27.1719 525.875C28.8287 525.875 30.1719 527.218 30.1719 528.875C30.1719 530.532 28.8287 531.875 27.1719 531.875Z" fill="#FC6600"/>
<path d="M3 450C1.34315 450 1.97578e-08 448.657 0 447C-1.97578e-08 445.343 1.34315 444 3 444C4.65685 444 6 445.343 6 447C6 448.657 4.65685 450 3 450Z" fill="#FC6600"/>
<path d="M3 504.583C1.34315 504.583 1.97578e-08 503.24 0 501.583C-1.97578e-08 499.926 1.34315 498.583 3 498.583C4.65685 498.583 6 499.926 6 501.583C6 503.24 4.65685 504.583 3 504.583Z" fill="#FC6600"/>
<path d="M3 477.292C1.34315 477.292 1.97578e-08 475.949 0 474.292C-1.97578e-08 472.635 1.34315 471.292 3 471.292C4.65685 471.292 6 472.635 6 474.292C6 475.949 4.65685 477.292 3 477.292Z" fill="#FC6600"/>
<path d="M3 531.875C1.34315 531.875 1.97578e-08 530.532 0 528.875C-1.97578e-08 527.218 1.34315 525.875 3 525.875C4.65685 525.875 6 527.218 6 528.875C6 530.532 4.65685 531.875 3 531.875Z" fill="#FC6600"/>
</g>
<circle cx="3" cy="3" r="3" transform="matrix(1 0 0 -1 829 126.863)" fill="#FC6600"/>
<circle cx="3" cy="3" r="3" transform="matrix(1 0 0 -1 883.582 126.863)" fill="#FC6600"/>
<circle cx="3" cy="3" r="3" transform="matrix(1 0 0 -1 856.293 126.863)" fill="#FC6600"/>
<circle cx="3" cy="3" r="3" transform="matrix(1 0 0 -1 910.875 126.863)" fill="#FC6600"/>
<circle cx="3" cy="3" r="3" transform="matrix(1 0 0 -1 829 102.691)" fill="#FC6600"/>
<circle cx="3" cy="3" r="3" transform="matrix(1 0 0 -1 883.582 102.691)" fill="#FC6600"/>
<circle cx="3" cy="3" r="3" transform="matrix(1 0 0 -1 856.293 102.691)" fill="#FC6600"/>
<circle cx="3" cy="3" r="3" transform="matrix(1 0 0 -1 910.875 102.691)" fill="#FC6600"/>
<circle cx="3" cy="3" r="3" transform="matrix(1 0 0 -1 829 78.5186)" fill="#FC6600"/>
<circle cx="3" cy="3" r="3" transform="matrix(1 0 0 -1 883.582 78.5186)" fill="#FC6600"/>
<circle cx="3" cy="3" r="3" transform="matrix(1 0 0 -1 856.293 78.5186)" fill="#FC6600"/>
<circle cx="3" cy="3" r="3" transform="matrix(1 0 0 -1 910.875 78.5186)" fill="#FC6600"/>
<circle cx="3" cy="3" r="3" transform="matrix(1 0 0 -1 829 54.3451)" fill="#FC6600"/>
<circle cx="3" cy="3" r="3" transform="matrix(1 0 0 -1 883.582 54.3451)" fill="#FC6600"/>
<circle cx="3" cy="3" r="3" transform="matrix(1 0 0 -1 856.293 54.3451)" fill="#FC6600"/>
<circle cx="3" cy="3" r="3" transform="matrix(1 0 0 -1 910.875 54.3451)" fill="#FC6600"/>
<circle cx="3" cy="3" r="3" transform="matrix(1 0 0 -1 829 30.1729)" fill="#FC6600"/>
<circle cx="3" cy="3" r="3" transform="matrix(1 0 0 -1 883.582 30.1729)" fill="#FC6600"/>
<circle cx="3" cy="3" r="3" transform="matrix(1 0 0 -1 856.293 30.1729)" fill="#FC6600"/>
<circle cx="3" cy="3" r="3" transform="matrix(1 0 0 -1 910.875 30.1729)" fill="#FC6600"/>
<circle cx="3" cy="3" r="3" transform="matrix(1 0 0 -1 829 6.00024)" fill="#FC6600"/>
<circle cx="3" cy="3" r="3" transform="matrix(1 0 0 -1 883.582 6.00049)" fill="#FC6600"/>
<circle cx="3" cy="3" r="3" transform="matrix(1 0 0 -1 856.293 6.00049)" fill="#FC6600"/>
<circle cx="3" cy="3" r="3" transform="matrix(1 0 0 -1 910.875 6.00049)" fill="#FC6600"/>
<circle cx="123.863" cy="447" r="3" transform="rotate(90 123.863 447)" fill="#FC6600"/>
<circle cx="123.863" cy="501.583" r="3" transform="rotate(90 123.863 501.583)" fill="#FC6600"/>
<circle cx="123.863" cy="474.292" r="3" transform="rotate(90 123.863 474.292)" fill="#FC6600"/>
<circle cx="123.863" cy="528.875" r="3" transform="rotate(90 123.863 528.875)" fill="#FC6600"/>
<circle cx="99.6914" cy="447" r="3" transform="rotate(90 99.6914 447)" fill="#FC6600"/>
<circle cx="99.6914" cy="501.583" r="3" transform="rotate(90 99.6914 501.583)" fill="#FC6600"/>
<circle cx="99.6914" cy="474.292" r="3" transform="rotate(90 99.6914 474.292)" fill="#FC6600"/>
<circle cx="99.6914" cy="528.875" r="3" transform="rotate(90 99.6914 528.875)" fill="#FC6600"/>
<circle cx="75.5195" cy="447" r="3" transform="rotate(90 75.5195 447)" fill="#FC6600"/>
<circle cx="75.5195" cy="501.583" r="3" transform="rotate(90 75.5195 501.583)" fill="#FC6600"/>
<circle cx="75.5195" cy="474.292" r="3" transform="rotate(90 75.5195 474.292)" fill="#FC6600"/>
<circle cx="75.5195" cy="528.875" r="3" transform="rotate(90 75.5195 528.875)" fill="#FC6600"/>
<circle cx="51.3438" cy="447" r="3" transform="rotate(90 51.3438 447)" fill="#FC6600"/>
<circle cx="51.3438" cy="501.583" r="3" transform="rotate(90 51.3438 501.583)" fill="#FC6600"/>
<circle cx="51.3438" cy="474.292" r="3" transform="rotate(90 51.3438 474.292)" fill="#FC6600"/>
<circle cx="51.3438" cy="528.875" r="3" transform="rotate(90 51.3438 528.875)" fill="#FC6600"/>
<circle cx="27.1719" cy="447" r="3" transform="rotate(90 27.1719 447)" fill="#FC6600"/>
<circle cx="27.1719" cy="501.583" r="3" transform="rotate(90 27.1719 501.583)" fill="#FC6600"/>
<circle cx="27.1719" cy="474.292" r="3" transform="rotate(90 27.1719 474.292)" fill="#FC6600"/>
<circle cx="27.1719" cy="528.875" r="3" transform="rotate(90 27.1719 528.875)" fill="#FC6600"/>
<circle cx="3" cy="447" r="3" transform="rotate(90 3 447)" fill="#FC6600"/>
<circle cx="3" cy="501.583" r="3" transform="rotate(90 3 501.583)" fill="#FC6600"/>
<circle cx="3" cy="474.292" r="3" transform="rotate(90 3 474.292)" fill="#FC6600"/>
<circle cx="3" cy="528.875" r="3" transform="rotate(90 3 528.875)" fill="#FC6600"/>
</svg>
