<svg width="40" height="25" viewBox="0 0 40 25" fill="none" xmlns="http://www.w3.org/2000/svg">
<path d="M7.51983 16.8199C9.75718 16.8199 11.5709 14.9321 11.5709 12.6033C11.5709 10.2746 9.75718 8.38672 7.51983 8.38672C5.28248 8.38672 3.46875 10.2746 3.46875 12.6033C3.46875 14.9321 5.28248 16.8199 7.51983 16.8199Z" stroke="#222222" stroke-opacity="0.8" stroke-width="0.5" stroke-miterlimit="10"/>
<path d="M7.51884 15.705C9.16453 15.705 10.4986 14.3164 10.4986 12.6035C10.4986 10.8906 9.16453 9.50195 7.51884 9.50195C5.87316 9.50195 4.53906 10.8906 4.53906 12.6035C4.53906 14.3164 5.87316 15.705 7.51884 15.705Z" stroke="#222222" stroke-opacity="0.8" stroke-width="0.5" stroke-miterlimit="10"/>
<path d="M11.621 18.5034C11.5855 18.8283 11.5713 19.1532 11.5713 19.4781V19.8621C10.4787 18.8947 9.0598 18.3114 7.52025 18.3114C4.23539 18.3114 1.52521 20.9551 1.26271 24.3077H0.191406C0.312016 22.4689 1.05696 20.7557 2.32692 19.4338C3.71748 17.9864 5.5621 17.1963 7.52025 17.1963C9.00304 17.2037 10.422 17.6615 11.621 18.5034Z" stroke="#222222" stroke-opacity="0.8" stroke-width="0.5" stroke-miterlimit="10"/>
<path d="M32.4808 16.8199C34.7181 16.8199 36.5319 14.9321 36.5319 12.6033C36.5319 10.2746 34.7181 8.38672 32.4808 8.38672C30.2434 8.38672 28.4297 10.2746 28.4297 12.6033C28.4297 14.9321 30.2434 16.8199 32.4808 16.8199Z" stroke="#222222" stroke-opacity="0.8" stroke-width="0.5" stroke-miterlimit="10"/>
<path d="M32.4798 15.705C34.1255 15.705 35.4596 14.3164 35.4596 12.6035C35.4596 10.8906 34.1255 9.50195 32.4798 9.50195C30.8341 9.50195 29.5 10.8906 29.5 12.6035C29.5 14.3164 30.8341 15.705 32.4798 15.705Z" stroke="#222222" stroke-opacity="0.8" stroke-width="0.5" stroke-miterlimit="10"/>
<path d="M39.8084 24.3155H38.7371C38.4746 20.9629 35.7715 18.3192 32.4796 18.3192C30.8974 18.3192 29.4501 18.9321 28.3434 19.9438V19.4786C28.3434 19.1684 28.3292 18.8656 28.3008 18.5629C29.5211 17.6767 30.9684 17.2041 32.4867 17.2041C34.4519 17.2041 36.2965 18.0016 37.68 19.4416C38.9429 20.7635 39.6878 22.4767 39.8084 24.3155Z" stroke="#222222" stroke-opacity="0.8" stroke-width="0.5" stroke-miterlimit="10"/>
<path d="M19.9578 10.3141C22.5125 10.3141 24.5835 8.15846 24.5835 5.49934C24.5835 2.84022 22.5125 0.68457 19.9578 0.68457C17.4031 0.68457 15.332 2.84022 15.332 5.49934C15.332 8.15846 17.4031 10.3141 19.9578 10.3141Z" stroke="#222222" stroke-opacity="0.8" stroke-width="0.5" stroke-miterlimit="10"/>
<path d="M19.9562 9.04431C21.837 9.04431 23.3617 7.45733 23.3617 5.49969C23.3617 3.54206 21.837 1.95508 19.9562 1.95508C18.0755 1.95508 16.5508 3.54206 16.5508 5.49969C16.5508 7.45733 18.0755 9.04431 19.9562 9.04431Z" stroke="#222222" stroke-opacity="0.8" stroke-width="0.5" stroke-miterlimit="10"/>
<path d="M28.3422 19.4786V24.3155H27.1219V19.4786C27.1219 15.3654 23.908 12.0202 19.9563 12.0202C16.0045 12.0202 12.7906 15.3654 12.7906 19.4786V24.3155H11.5703V19.4786C11.5703 19.1537 11.5845 18.8214 11.62 18.5038C11.8257 16.5395 12.6629 14.7229 14.0251 13.3051C15.6072 11.6583 17.7143 10.75 19.9563 10.75C22.1982 10.75 24.3053 11.6583 25.8874 13.3051C27.2638 14.7377 28.101 16.5765 28.2996 18.5555C28.328 18.8657 28.3422 19.1758 28.3422 19.4786Z" stroke="#222222" stroke-opacity="0.8" stroke-width="0.5" stroke-miterlimit="10"/>
</svg>
