<svg width="48" height="36" viewBox="0 0 48 36" fill="none" xmlns="http://www.w3.org/2000/svg">
<path d="M47 24.666H1V34.7503H47V24.666Z" stroke="#222222" stroke-opacity="0.8" stroke-width="0.8" stroke-miterlimit="10"/>
<path d="M46.126 2.22275H1.874C1.391 2.22275 1 1.8282 1 1.34082V1.13194C1 0.644551 1.391 0.25 1.874 0.25H46.126C46.609 0.25 47 0.644551 47 1.13194V1.35242C47 1.83981 46.609 2.22275 46.126 2.22275Z" fill="#222222" fill-opacity="0.8"/>
<path d="M5.87891 24.6715L5.87891 2.22852L3.91241 2.22852L3.91241 24.6715H5.87891Z" fill="#222222" fill-opacity="0.8"/>
<path d="M13.5195 24.6676L13.5195 2.22461L11.553 2.22461L11.553 24.6676H13.5195Z" fill="#222222" fill-opacity="0.8"/>
<path d="M21.1602 24.6744L21.1602 2.23145L19.1937 2.23145L19.1937 24.6744H21.1602Z" fill="#222222" fill-opacity="0.8"/>
<path d="M28.8008 24.6696L28.8008 2.22656L26.8343 2.22656L26.8343 24.6696H28.8008Z" fill="#222222" fill-opacity="0.8"/>
<path d="M36.4375 24.6764L36.4375 2.2334L34.471 2.2334L34.471 24.6764H36.4375Z" fill="#222222" fill-opacity="0.8"/>
<path d="M44.0781 24.6705L44.0781 2.22754L42.1116 2.22754L42.1116 24.6705H44.0781Z" fill="#222222" fill-opacity="0.8"/>
</svg>
