<svg width="40" height="41" viewBox="0 0 40 41" fill="none" xmlns="http://www.w3.org/2000/svg">
<path fill-rule="evenodd" clip-rule="evenodd" d="M33.5353 10.44V19.7918C32.4739 19.5336 31.336 19.2946 30.1216 19.0746C27.1191 18.5391 23.6576 18.1758 19.8327 18.1853C19.6701 18.1853 19.498 18.1853 19.3259 18.1853C19.3068 18.1853 19.2876 18.1853 19.2781 18.1853C15.4628 18.2332 12.0204 18.6539 9.04652 19.2276C7.82256 19.4667 6.68466 19.7249 5.63281 19.9926V10.44C5.63281 8.60401 7.12452 7.1123 8.96046 7.1123H30.1981C32.0436 7.1123 33.5353 8.59445 33.5353 10.44Z" stroke="#222222" stroke-opacity="0.8" stroke-width="0.8" stroke-miterlimit="10"/>
<path fill-rule="evenodd" clip-rule="evenodd" d="M36.4805 20.7866V33.7148C36.4805 33.8104 36.404 33.8869 36.3084 33.8869H34.2812C34.1951 33.8869 34.1282 33.8295 34.1186 33.7434C33.8891 32.3569 32.6843 31.3051 31.2308 31.3051H7.93727C6.48382 31.3051 5.28854 32.3569 5.04948 33.7434C5.03992 33.8295 4.97299 33.8869 4.88693 33.8869H3.69165C3.59603 33.8869 3.51953 33.8104 3.51953 33.7148V20.7866C3.51953 20.6623 3.59603 20.5572 3.71078 20.5189C4.31319 20.3372 4.95386 20.1651 5.63278 19.993C6.68462 19.7252 7.83209 19.4575 9.04649 19.228C12.0203 18.6543 15.4532 18.2335 19.2781 18.1857C19.2972 18.1857 19.3163 18.1857 19.3259 18.1857C19.498 18.1857 19.6605 18.1857 19.8327 18.1857C23.6575 18.1762 27.1095 18.5491 30.112 19.075C31.3264 19.2949 32.4739 19.534 33.5257 19.7922C34.5202 20.0312 35.4382 20.2799 36.2797 20.5285C36.404 20.5572 36.4805 20.6623 36.4805 20.7866Z" stroke="#222222" stroke-opacity="0.8" stroke-width="0.8" stroke-miterlimit="10"/>
<path fill-rule="evenodd" clip-rule="evenodd" d="M19.354 12.4296V17.8003C19.3319 17.8003 19.3097 17.8003 19.2986 17.8003C14.8815 17.8708 10.8961 18.4911 7.45312 19.3368V12.4296C7.45312 10.4984 8.68196 8.93369 10.1986 8.93369H16.5974C18.1252 8.91959 19.354 10.4984 19.354 12.4296Z" stroke="#222222" stroke-opacity="0.8" stroke-width="0.8" stroke-miterlimit="10"/>
<path fill-rule="evenodd" clip-rule="evenodd" d="M31.8267 12.4296V19.1113C28.3616 18.3219 24.354 17.7862 19.9258 17.8003V12.4296C19.9258 10.4984 21.1546 8.93369 22.6713 8.93369H29.0701C30.5978 8.91959 31.8267 10.4984 31.8267 12.4296Z" stroke="#222222" stroke-opacity="0.8" stroke-width="0.8" stroke-miterlimit="10"/>
</svg>
