<svg width="24" height="24" viewBox="0 0 24 24" fill="none" xmlns="http://www.w3.org/2000/svg">
<path d="M11.9525 23.9529C18.48 23.9529 23.9055 18.5389 23.9055 11.9999C23.9055 5.47237 18.468 0.046875 11.9405 0.046875C5.402 0.046875 0 5.47237 0 11.9999C0 18.5389 5.4135 23.9529 11.9525 23.9529ZM11.953 21.9609C6.421 21.9609 2.0025 17.5309 2.0025 11.9999C2.0025 6.47988 6.409 2.03888 11.9405 2.03888C17.46 2.03888 21.901 6.48038 21.913 11.9999C21.9245 17.5314 17.4715 21.9609 11.952 21.9609M9.1395 14.7659C11.8695 17.5079 15.3505 19.2419 17.413 17.1909C17.4861 17.1189 17.5527 17.0406 17.612 16.9569C18.151 16.3594 18.3035 15.5624 17.612 15.0469C17.073 14.6599 16.499 14.2619 15.526 13.5819C14.8465 13.1019 14.401 13.2184 13.874 13.7459L13.405 14.2029C13.2645 14.3319 13.042 14.3204 12.8895 14.2264C12.4795 13.9804 11.788 13.4294 11.1315 12.7734C10.487 12.1284 9.9015 11.4024 9.6785 11.0154C9.5965 10.8864 9.538 10.6754 9.702 10.5234L10.159 10.0309C10.6865 9.48038 10.8035 9.05837 10.3115 8.36687L8.87 6.32788C8.3775 5.63637 7.663 5.76537 6.8775 6.35137C6.819 6.39837 6.7725 6.44537 6.7255 6.49187C4.663 8.55437 6.409 12.0349 9.1395 14.7654" fill="#222222" fill-opacity="0.5"/>
</svg>
