<svg width="33" height="46" viewBox="0 0 33 46" fill="none" xmlns="http://www.w3.org/2000/svg">
<path d="M26.7132 45H1.10156V1H31.9016V39.9333C31.9016 42.7334 29.5806 45 26.7132 45Z" stroke="#222222" stroke-opacity="0.8" stroke-width="0.8" stroke-miterlimit="10"/>
<path d="M16.4492 7.85645H29.8766" stroke="#222222" stroke-opacity="0.8" stroke-width="0.8" stroke-miterlimit="10" stroke-linecap="round" stroke-linejoin="round"/>
<path d="M4.69922 15.8643H29.8819" stroke="#222222" stroke-opacity="0.8" stroke-width="0.8" stroke-miterlimit="10" stroke-linecap="round" stroke-linejoin="round"/>
<path d="M4.69922 19.8711H29.8819" stroke="#222222" stroke-opacity="0.8" stroke-width="0.8" stroke-miterlimit="10" stroke-linecap="round" stroke-linejoin="round"/>
<path d="M4.69922 27.877H29.8819" stroke="#222222" stroke-opacity="0.8" stroke-width="0.8" stroke-miterlimit="10" stroke-linecap="round" stroke-linejoin="round"/>
<path d="M4.69922 31.8838H29.8819" stroke="#222222" stroke-opacity="0.8" stroke-width="0.8" stroke-miterlimit="10" stroke-linecap="round" stroke-linejoin="round"/>
<path d="M24.0586 35.8877H29.8776" stroke="#222222" stroke-opacity="0.8" stroke-width="0.8" stroke-miterlimit="10" stroke-linecap="round" stroke-linejoin="round"/>
<path d="M24.0586 11.8604H29.8776" stroke="#222222" stroke-opacity="0.8" stroke-width="0.8" stroke-miterlimit="10" stroke-linecap="round" stroke-linejoin="round"/>
<path d="M16.4492 11.8604H22.2682" stroke="#222222" stroke-opacity="0.8" stroke-width="0.8" stroke-miterlimit="10" stroke-linecap="round" stroke-linejoin="round"/>
<path d="M24.8359 23.873H29.8739" stroke="#222222" stroke-opacity="0.8" stroke-width="0.8" stroke-miterlimit="10" stroke-linecap="round" stroke-linejoin="round"/>
<path d="M14.7656 23.873H19.8036" stroke="#222222" stroke-opacity="0.8" stroke-width="0.8" stroke-miterlimit="10" stroke-linecap="round" stroke-linejoin="round"/>
<path d="M4.69922 23.873H9.73722" stroke="#222222" stroke-opacity="0.8" stroke-width="0.8" stroke-miterlimit="10" stroke-linecap="round" stroke-linejoin="round"/>
<path fill-rule="evenodd" clip-rule="evenodd" d="M8.32318 4.36523C5.63918 4.36523 3.46484 6.48861 3.46484 9.1097C3.46484 11.7308 5.63918 13.8542 8.32318 13.8542C11.0072 13.8542 13.1815 11.7308 13.1815 9.1097C13.1815 6.48861 11.0072 4.36523 8.32318 4.36523ZM10.9852 7.69889L7.72551 11.029L7.71818 11.0361C7.65218 11.1006 7.55684 11.14 7.46518 11.1436C7.36984 11.1471 7.27451 11.1149 7.19751 11.0469L5.67584 9.70052V9.69336C5.60251 9.62891 5.55851 9.53581 5.55484 9.43913C5.55118 9.34603 5.58051 9.25293 5.65018 9.17415C5.65018 9.17415 5.65018 9.17057 5.65384 9.17057C5.71984 9.09896 5.81518 9.05599 5.91418 9.05241C6.00951 9.04883 6.10851 9.07747 6.18551 9.14909L7.43951 10.2591L10.4425 7.18685C10.5122 7.11523 10.6075 7.07585 10.7065 7.07227C10.8055 7.06868 10.8972 7.10091 10.9742 7.17611C11.0475 7.24414 11.0878 7.33724 11.0915 7.43392C11.0952 7.5306 11.0622 7.62012 10.9852 7.69889Z" fill="#222222" fill-opacity="0.8"/>
</svg>
