<svg width="38" height="41" viewBox="0 0 38 41" fill="none" xmlns="http://www.w3.org/2000/svg">
<g clip-path="url(#clip0_1127_28067)">
<path d="M14.7001 19.5402L16.0301 11.7102C16.0301 11.7102 16.0301 11.7002 16.0201 11.7002H12.7401C12.7401 11.7002 12.7401 11.7002 12.7301 11.7002L10.1801 17.1702C9.8301 17.6502 9.1901 17.8102 8.6701 17.5602C7.8001 17.1402 7.9901 16.1702 8.2701 15.4202C8.6401 14.4202 9.9101 10.1302 10.5901 9.27022C10.9401 8.82022 11.4201 8.52022 12.1101 8.52022C14.0301 8.52022 15.9501 8.52022 17.8801 8.52022C19.2301 8.52022 20.7801 8.37022 21.8701 9.33022C22.7501 10.1402 23.2301 11.4002 23.0001 12.5702L21.6101 20.7102C21.6001 20.7502 21.5901 20.8002 21.5901 20.8402C21.3801 21.8402 21.5501 22.8902 22.1101 23.7502C23.5001 25.8702 24.8901 28.0002 26.2801 30.1202C27.3001 32.8602 28.3301 35.5902 29.3501 38.3302C29.7101 39.1502 29.3801 40.0402 28.7701 40.3602C28.0501 40.7402 26.9401 40.3302 26.6101 39.3202L23.2801 30.9402L17.9401 23.8102C17.8501 23.6902 17.7201 23.6102 17.5701 23.5802C15.6601 23.2502 14.3801 21.4402 14.7001 19.5402Z" stroke="#222222" stroke-opacity="0.8" stroke-width="0.5" stroke-miterlimit="10"/>
<path d="M27.2111 16.4405C26.6711 16.4505 26.3111 16.1305 26.2411 16.0605C26.2411 16.0605 26.2411 16.0605 26.2311 16.0505L23.6511 14.1605C23.6311 14.1405 23.6211 14.1205 23.6211 14.1005V10.6805C23.6211 10.6205 23.6911 10.5805 23.7511 10.6105L27.3511 13.0905C27.3811 13.1105 27.4111 13.1105 27.4411 13.0905C28.9211 12.0605 30.4011 11.0205 31.8811 9.99052C32.3711 9.66052 33.0011 9.75052 33.3511 10.1405C33.7511 10.5905 33.6811 11.3705 33.1311 11.7705C31.4711 13.2005 29.8111 14.6305 28.1511 16.0505C28.0711 16.1205 27.7411 16.4305 27.2111 16.4405Z" stroke="#222222" stroke-opacity="0.8" stroke-width="0.5" stroke-miterlimit="10"/>
<path d="M22.1375 6.5948C23.3673 5.36709 23.3663 3.37227 22.1354 2.13924C20.9045 0.906203 18.9096 0.901883 17.6799 2.12959C16.4501 3.35729 16.451 5.35211 17.6819 6.58514C18.9129 7.81818 20.9077 7.8225 22.1375 6.5948Z" stroke="#222222" stroke-opacity="0.8" stroke-width="0.5" stroke-miterlimit="10"/>
<path d="M0.58958 27.5702C0.14958 27.1402 0.00958033 26.5902 0.15958 26.1002C0.35958 25.4702 1.01958 25.0502 1.74958 25.1302H1.75958C4.17958 25.7002 6.59958 26.2602 9.01958 26.8302C9.50958 26.9402 9.92958 26.7202 10.2296 26.3402C10.6396 25.8102 11.0296 25.2802 11.4396 24.7502C12.2696 23.6602 13.1096 22.5802 13.9396 21.4902C13.9796 21.4402 14.0596 21.4502 14.0796 21.5202C14.1796 21.8802 14.3696 22.3902 14.7696 22.9202C15.1996 23.4902 15.6796 23.8302 15.9996 24.0202C16.0396 24.0402 16.0496 24.1002 16.0196 24.1402C14.7596 25.7202 13.6296 27.4102 12.3096 28.9402C11.6596 29.6902 10.7296 30.1302 9.73958 30.1402C9.55958 30.1402 9.39958 30.1302 9.27958 30.0902C6.39958 29.2602 3.51958 28.4402 0.63958 27.6102C0.60958 27.5802 0.58958 27.5802 0.58958 27.5702Z" stroke="#222222" stroke-opacity="0.8" stroke-width="0.5" stroke-miterlimit="10"/>
<path d="M36.9798 6.00351L33.6712 3.01567C33.6375 2.9806 33.5836 3.00865 33.5836 3.05775V4.8252C33.5836 4.85326 33.5566 4.88131 33.5297 4.88131H27.0539C27.027 4.88131 27 4.90937 27 4.93742V7.16077C27 7.18882 27.027 7.21688 27.0539 7.21688H33.5297C33.5566 7.21688 33.5836 7.24493 33.5836 7.27299V8.94225C33.5836 8.99135 33.6375 9.0194 33.6712 8.98433L36.9798 6.08767C37.0067 6.06663 37.0067 6.02455 36.9798 6.00351Z" stroke="#222222" stroke-opacity="0.8" stroke-width="0.5" stroke-miterlimit="10"/>
</g>
<defs>
<clipPath id="clip0_1127_28067">
<rect width="37.84" height="40.2" fill="white" transform="translate(0 0.400391)"/>
</clipPath>
</defs>
</svg>
