<svg width="36" height="34" viewBox="0 0 36 34" fill="none" xmlns="http://www.w3.org/2000/svg">
<path fill-rule="evenodd" clip-rule="evenodd" d="M33.9606 14.759L32.6512 13.7081V30.9819H34.7442C35.0772 30.9819 35.3967 31.1146 35.6322 31.3507C35.8677 31.5868 36 31.9071 36 32.241C36 32.5749 35.8677 32.8951 35.6322 33.1312C35.3967 33.3674 35.0772 33.5 34.7442 33.5H1.25581C0.922751 33.5 0.60333 33.3674 0.367819 33.1312C0.132309 32.8951 0 32.5749 0 32.241C0 31.9071 0.132309 31.5868 0.367819 31.3507C0.60333 31.1146 0.922751 30.9819 1.25581 30.9819H3.34884V13.7081L2.04112 14.759C1.78088 14.9676 1.44866 15.064 1.11753 15.027C0.786404 14.99 0.483495 14.8226 0.275442 14.5617C0.0673888 14.3008 -0.0287659 13.9678 0.00813076 13.6358C0.0450274 13.3038 0.211953 13.0001 0.472186 12.7915L14.0768 1.87999C15.1903 0.98669 16.5739 0.5 18 0.5C19.4261 0.5 20.8097 0.98669 21.9232 1.87999L35.5278 12.7915C35.7836 13.0014 35.9465 13.3038 35.9813 13.6333C36.0161 13.9627 35.92 14.2927 35.7138 14.5516C35.5075 14.8105 35.2078 14.9774 34.8796 15.0162C34.5514 15.0551 34.2212 14.9626 33.9606 14.759ZM12.9999 12.0168C14.4799 11.0278 16.22 10.5 18 10.5C20.3869 10.5 22.6761 11.4482 24.364 13.136C26.0518 14.8239 27 17.1131 27 19.5C27 21.28 26.4722 23.0201 25.4832 24.5001C24.4943 25.9802 23.0887 27.1337 21.4442 27.8149C19.7996 28.4961 17.99 28.6743 16.2442 28.3271C14.4984 27.9798 12.8947 27.1226 11.636 25.864C10.3774 24.6053 9.5202 23.0016 9.17294 21.2558C8.82567 19.51 9.0039 17.7004 9.68509 16.0558C10.3663 14.4113 11.5198 13.0057 12.9999 12.0168ZM22.5 15.5625H21.3075C21.1563 15.1462 20.9273 14.7625 20.6325 14.4319H22.5C22.6492 14.4319 22.7923 14.3726 22.8977 14.2671C23.0032 14.1616 23.0625 14.0186 23.0625 13.8694C23.0625 13.7202 23.0032 13.5771 22.8977 13.4716C22.7923 13.3661 22.6492 13.3069 22.5 13.3069H15.0469C14.8604 13.3069 14.6816 13.381 14.5497 13.5128C14.4178 13.6447 14.3438 13.8235 14.3438 14.01C14.3438 14.1965 14.4178 14.3753 14.5497 14.5072C14.6816 14.639 14.8604 14.7131 15.0469 14.7131H18.2025C18.5119 14.7172 18.8157 14.7961 19.088 14.943C19.3603 15.0899 19.593 15.3005 19.7663 15.5569H15.0863C14.9371 15.5569 14.794 15.6161 14.6885 15.7216C14.583 15.8271 14.5238 15.9702 14.5238 16.1194C14.5238 16.2686 14.583 16.4116 14.6885 16.5171C14.794 16.6226 14.9371 16.6819 15.0863 16.6819H20.1488V16.7944C20.1639 17.3291 19.9663 17.8479 19.5993 18.237C19.2323 18.6262 18.7259 18.8538 18.1913 18.87H15.5419C15.4053 18.8647 15.2702 18.8992 15.153 18.9695C15.0358 19.0397 14.9416 19.1426 14.8819 19.2655C14.8222 19.3885 14.7997 19.5261 14.817 19.6617C14.8343 19.7972 14.8907 19.9248 14.9794 20.0287L19.7831 25.7269C19.904 25.8693 20.0765 25.958 20.2626 25.9733C20.4488 25.9886 20.6335 25.9293 20.7759 25.8084C20.9184 25.6876 21.007 25.5151 21.0223 25.3289C21.0376 25.1427 20.9783 24.9581 20.8575 24.8156L17.0213 20.2819H18.1463C18.5971 20.2753 19.0422 20.1798 19.456 20.0008C19.8699 19.8218 20.2443 19.5629 20.5579 19.2389C20.8714 18.9149 21.1179 18.5321 21.2832 18.1127C21.4486 17.6932 21.5294 17.2452 21.5213 16.7944V16.6875H22.5C22.6492 16.6875 22.7923 16.6282 22.8977 16.5227C23.0032 16.4173 23.0625 16.2742 23.0625 16.125C23.0625 15.9758 23.0032 15.8327 22.8977 15.7273C22.7923 15.6218 22.6492 15.5625 22.5 15.5625Z" fill="#222222" fill-opacity="0.8"/>
</svg>
