<svg width="29" height="44" viewBox="0 0 29 44" fill="none" xmlns="http://www.w3.org/2000/svg">
<g clip-path="url(#clip0_1150_28428)">
<path d="M21.4769 10.6508H28.4794V12.9877H21.5387H21.0862L21.0412 13.4381C20.7146 16.7102 19.2164 19.3703 16.7451 21.2526C14.2649 23.1416 10.7727 24.2699 6.4366 24.3976L5.28375 24.4315L6.0966 25.2498C11.246 30.4332 16.8365 36.9078 22.3823 43.5H17.1105C11.8253 37.3367 6.85551 31.5974 0.5 25.0345V21.6008H3.79247C7.57242 21.6008 10.5404 20.8405 12.639 19.4412C14.7535 18.0312 15.951 15.9934 16.2031 13.5388L16.2597 12.9877H15.7058H0.5V10.6508H15.4996H16.14L15.9847 10.0295C15.4651 7.95001 14.2178 6.38368 12.317 5.35044C10.4337 4.32673 7.92959 3.83606 4.88486 3.83606H0.5V0.5H28.5V2.83697H17.6226H16.1531L17.3177 3.73321C19.2166 5.1946 20.5873 7.27598 20.9813 10.2172L21.0394 10.6508H21.4769Z" stroke="#222222" stroke-opacity="0.8"/>
</g>
<defs>
<clipPath id="clip0_1150_28428">
<rect width="29" height="44" fill="white"/>
</clipPath>
</defs>
</svg>
