<svg width="22" height="22" viewBox="0 0 22 22" fill="none" xmlns="http://www.w3.org/2000/svg">
<path fill-rule="evenodd" clip-rule="evenodd" d="M10.75 1.75C8.29676 1.75 5.94398 2.72455 4.20927 4.45926C2.47456 6.19397 1.50001 8.54675 1.50001 11C1.50001 12.481 1.84801 13.879 2.46501 15.118C2.71301 15.616 2.80801 16.21 2.65201 16.795L2.05601 19.02C2.03099 19.1132 2.03093 19.2114 2.05586 19.3046C2.08078 19.3979 2.12981 19.4829 2.19801 19.5512C2.26621 19.6195 2.35118 19.6687 2.44438 19.6937C2.53759 19.7188 2.63576 19.7189 2.72901 19.694L4.95601 19.098C5.51878 18.9537 6.11489 19.0202 6.63201 19.285C7.91111 19.9221 9.32103 20.2525 10.75 20.25C13.2033 20.25 15.556 19.2754 17.2907 17.5407C19.0255 15.806 20 13.4533 20 11C20 8.54675 19.0255 6.19397 17.2907 4.45926C15.556 2.72455 13.2033 1.75 10.75 1.75ZM1.06204e-05 11C1.06204e-05 5.063 4.81301 0.25 10.75 0.25C16.687 0.25 21.5 5.063 21.5 11C21.5 16.937 16.687 21.75 10.75 21.75C9.03201 21.75 7.40601 21.346 5.96301 20.628C5.77254 20.5281 5.5526 20.4997 5.34301 20.548L3.11701 21.143C1.59301 21.551 0.199011 20.157 0.607011 18.633L1.20301 16.407C1.25128 16.1974 1.2229 15.9775 1.12301 15.787C0.382154 14.3001 -0.00232972 12.6612 1.06204e-05 11ZM14.022 6.822C15.257 7.284 16 8.539 16 10.108C16 11.024 15.565 11.882 15.045 12.595C14.516 13.319 13.835 13.979 13.207 14.513L13.114 14.593C12.377 15.221 11.764 15.743 10.75 15.743C9.73501 15.743 9.12301 15.221 8.38601 14.593L8.29301 14.513C7.66401 13.979 6.98401 13.319 6.45501 12.595C5.93501 11.882 5.50001 11.025 5.50001 10.108C5.50001 8.539 6.24301 7.284 7.47801 6.822C8.52101 6.432 9.70801 6.685 10.75 7.496C11.793 6.686 12.98 6.432 14.022 6.822ZM13.497 8.227C12.979 8.034 12.155 8.137 11.286 9.024C11.2162 9.09536 11.1328 9.15205 11.0407 9.19076C10.9487 9.22946 10.8499 9.2494 10.75 9.2494C10.6502 9.2494 10.5513 9.22946 10.4593 9.19076C10.3672 9.15205 10.2839 9.09536 10.214 9.024C9.34501 8.137 8.52101 8.034 8.00401 8.227C7.49401 8.417 7.00001 9.001 7.00001 10.108C7.00001 10.561 7.22501 11.105 7.66601 11.71C8.09901 12.303 8.68301 12.876 9.26401 13.37C10.133 14.11 10.336 14.243 10.75 14.243C11.164 14.243 11.367 14.109 12.236 13.37C12.817 12.876 13.401 12.303 13.834 11.71C14.275 11.105 14.5 10.561 14.5 10.108C14.5 9.001 14.005 8.417 13.497 8.227Z" fill="#222222" fill-opacity="0.5"/>
</svg>
