<svg width="32" height="32" viewBox="0 0 32 32" fill="none" xmlns="http://www.w3.org/2000/svg">
<path d="M15 25C9.47059 25 5 20.5294 5 15C5 9.47059 9.47059 5 15 5C20.5294 5 25 9.47059 25 15C25 20.5294 20.5294 25 15 25ZM15 6.17647C10.1176 6.17647 6.17647 10.1176 6.17647 15C6.17647 19.8824 10.1176 23.8235 15 23.8235C19.8824 23.8235 23.8235 19.8824 23.8235 15C23.8235 10.1176 19.8824 6.17647 15 6.17647Z" fill="#222222"/>
<path d="M11 15H20V16H11V15Z" fill="#222222"/>
<path d="M15 11H16V20H15V11Z" fill="#222222"/>
</svg>
