<svg width="40" height="52" viewBox="0 0 40 52" fill="none" xmlns="http://www.w3.org/2000/svg">
<path d="M30.6358 12.8937L30.6376 12.8731C30.8327 10.6571 30.5071 8.09868 29.3299 5.74252L29.3298 5.74242C28.4795 4.03961 27.1852 3.03638 25.4318 2.90783L25.4317 2.90782C25.0021 2.87621 24.5575 2.81562 24.1501 2.62047C23.7253 2.41699 23.379 2.08672 23.1074 1.58482C22.9049 1.21088 22.4995 0.971335 21.951 0.810331L21.9508 0.810282C20.3207 0.33114 17.9813 0.375316 15.7845 1.16565C13.5974 1.95252 11.602 3.45944 10.5797 5.8585L10.5797 5.85853C9.55586 8.2606 8.9436 10.7019 8.89086 13.3408C8.88769 13.5004 8.88466 13.6602 8.88162 13.8205C8.83531 16.2631 8.78762 18.779 8.21071 21.2435L8.2107 21.2435C7.68724 23.479 6.86726 25.6574 4.8465 27.0735C4.66202 27.2028 4.55843 27.3014 4.50531 27.3707C4.49274 27.3871 4.48457 27.3997 4.47935 27.4088C4.48665 27.4205 4.49924 27.438 4.52043 27.4616C4.58573 27.5344 4.70226 27.6308 4.89437 27.7522L4.89438 27.7522C7.74872 29.5558 10.8987 30.1445 14.2164 30.32L14.2165 30.32C14.2713 30.3229 14.3206 30.3215 14.3885 30.3195C14.4206 30.3186 14.4568 30.3175 14.4996 30.3168C14.6127 30.3148 14.7696 30.3154 14.9307 30.3531C15.1026 30.3933 15.2842 30.4763 15.4403 30.6371C15.592 30.7935 15.6899 30.9928 15.751 31.2179C16.1973 32.8602 16.8897 34.3869 17.6542 35.9097C17.884 36.3677 18.1219 36.8279 18.3613 37.2911C18.9106 38.3537 19.4681 39.4323 19.9564 40.5359C19.9564 40.5359 19.9564 40.5359 19.9564 40.5359L30.6358 12.8937ZM30.6358 12.8937L30.6356 12.9143M30.6358 12.8937L30.6356 12.9143M30.6356 12.9143C30.6156 16.5806 30.6581 19.8947 32.1234 22.9964L32.1234 22.9964M30.6356 12.9143L32.1234 22.9964M32.1234 22.9964C32.7212 24.2616 33.5148 25.3723 34.2758 26.4376C34.3622 26.5585 34.4481 26.6788 34.5334 26.7988L34.9409 26.5091M32.1234 22.9964L34.9409 26.5091M34.9409 26.5091L34.5334 26.7988C34.7985 27.1719 34.781 27.3032 34.7781 27.3154C34.7777 27.3174 34.7533 27.4153 34.4081 27.5804C31.7959 28.8304 29.2558 29.9765 26.4655 30.1046L26.4655 30.1046M34.9409 26.5091L26.4655 30.1046M26.4655 30.1046C25.9129 30.13 25.4046 30.2224 24.9679 30.5411C24.5347 30.8572 24.2434 31.3434 23.9964 31.9935L23.9964 31.9935M26.4655 30.1046L23.9964 31.9935M23.9964 31.9935C23.1992 34.0924 22.2123 36.0954 21.2133 38.123M23.9964 31.9935L21.2133 38.123M21.2133 38.123C20.8133 38.9348 20.4113 39.7506 20.0189 40.5781L21.2133 38.123ZM4.47 27.3908C4.47003 27.3908 4.47024 27.3913 4.47053 27.3924L4.47 27.3908ZM4.47145 27.4248C4.47109 27.4264 4.47078 27.4273 4.47072 27.4273C4.47065 27.4273 4.47083 27.4265 4.47145 27.4248Z" stroke="#222222" stroke-opacity="0.8" stroke-miterlimit="10"/>
<path d="M20.0046 46.9347L19.5575 46.0098C19.2123 45.2958 18.8733 44.6059 18.5419 43.9315C17.7756 42.372 17.0498 40.8951 16.3831 39.3943L16.383 39.3941C16.1223 38.8066 15.8593 38.3806 15.5409 38.1047C15.2418 37.8456 14.8624 37.6916 14.2949 37.7126C14.1053 37.7197 13.9214 37.7243 13.7414 37.7288C13.2255 37.7417 12.7415 37.7538 12.2459 37.8208C12.2458 37.8208 12.2458 37.8208 12.2458 37.8208L12.1788 37.3253C10.9858 37.4869 10.8119 37.2285 11.3037 36.0824L20.0046 46.9347ZM20.0046 46.9347L20.4566 46.0122M20.0046 46.9347L20.4566 46.0122M24.0719 38.5918C24.251 38.2064 24.4366 37.9883 24.6287 37.8633C24.8159 37.7415 25.0614 37.6743 25.4282 37.69L25.4283 37.69C25.8888 37.7095 26.3468 37.7018 26.7904 37.6923C26.8323 37.6914 26.874 37.6905 26.9156 37.6896C27.3192 37.6807 27.71 37.6722 28.0998 37.6808L24.0719 38.5918ZM24.0719 38.5918C23.2764 40.3042 22.4391 41.9972 21.5578 43.7788M24.0719 38.5918L21.5578 43.7788M10.5066 33.2774C9.65178 33.6476 8.75263 33.9154 7.88741 34.1732C7.61319 34.2548 7.34237 34.3355 7.07745 34.4181C5.95627 34.7676 4.90131 35.161 3.94871 35.8221L3.94869 35.8221C1.72752 37.3633 0.460991 39.3997 0.500916 42.2882L0.500918 42.2883C0.515465 43.3635 0.515339 44.4382 0.514638 45.5091L0.514549 45.642C0.513853 46.6694 0.51316 47.6931 0.524773 48.7163C0.538345 49.9114 0.729958 50.5587 1.06273 50.9239C1.38177 51.2739 1.93944 51.4789 3.01943 51.4808H3.01948C14.4441 51.5024 25.8688 51.5029 37.2937 51.4974C38.0376 51.4969 38.5672 51.2661 38.9151 50.8936C39.2677 50.5161 39.4923 49.9305 39.4961 49.1124C39.5067 46.8185 39.4938 44.5238 39.4808 42.2265L39.4788 41.858C39.4638 39.2035 38.3158 37.2278 36.2732 35.8748L36.5493 35.4579L36.2732 35.8748C34.9618 35.006 33.5216 34.4688 32.0116 34.0058C31.5399 33.8612 31.0562 33.7225 30.5674 33.5823C29.5785 33.2988 28.5687 33.0093 27.5942 32.652C27.778 33.0459 27.9514 33.4344 28.1228 33.8183C28.4368 34.5216 28.744 35.2098 29.0961 35.8889L29.0962 35.889C29.2011 36.0914 29.29 36.2928 29.3388 36.4835C29.3861 36.6685 29.4128 36.9095 29.3088 37.144C29.1957 37.3989 28.9791 37.5369 28.768 37.6053C28.5682 37.67 28.3372 37.686 28.0999 37.6808L10.5066 33.2774ZM10.5066 33.2774C10.9438 33.088 11.4105 32.9639 11.9161 32.8294C11.9544 32.8192 11.993 32.8089 12.0319 32.7985L12.032 32.7985C12.1393 32.7699 12.2417 32.7249 12.3209 32.6873C12.2704 32.765 12.2012 32.8731 12.1494 32.9901L10.5066 33.2774ZM20.4566 46.0122C20.8311 45.2481 21.1981 44.506 21.5578 43.7788M20.4566 46.0122L21.5578 43.7788" stroke="#222222" stroke-opacity="0.8" stroke-miterlimit="10"/>
</svg>
