<svg width="26" height="42" viewBox="0 0 26 42" fill="none" xmlns="http://www.w3.org/2000/svg">
<path d="M6.09177 5.61555C6.06981 5.46909 5.96872 5.34676 5.82903 5.29758C5.68935 5.2484 5.53392 5.28043 5.42505 5.38082C4.61699 6.1259 3.96654 7.01764 3.50483 7.99339C2.93387 9.19648 2.57749 10.2792 2.52785 11.3832C2.47793 12.4935 2.73963 13.5906 3.34752 14.8219L3.34751 14.822L3.34886 14.8246C4.23449 16.5852 5.65678 17.6968 7.75337 17.9226C7.90157 17.9385 8.04634 17.8708 8.12902 17.7468C8.2117 17.6227 8.21856 17.463 8.14683 17.3324C7.92514 16.9286 7.84911 16.3586 7.97114 15.5983C7.972 15.5929 7.97275 15.5875 7.97339 15.5822C8.03231 15.0872 8.209 14.6055 8.48655 14.1772C8.61217 14.5295 8.80026 14.8613 9.04837 15.1603C9.14976 15.2825 9.31381 15.3331 9.46644 15.2894C9.61906 15.2456 9.73135 15.1158 9.7526 14.9584C9.9309 13.6381 10.3585 12.4732 10.9109 11.6182C11.307 11.0052 11.7481 10.5786 12.1854 10.3467C12.1892 10.7205 12.2728 11.0927 12.4322 11.4407C12.6137 11.8415 12.8074 12.1151 12.9677 12.3417C13.0131 12.4058 13.0558 12.4662 13.0948 12.5246C13.267 12.7823 13.426 13.0755 13.5546 13.6666C13.6304 14.0464 13.677 14.4222 13.6863 14.8046C13.6899 14.9524 13.7747 15.0861 13.9068 15.1524C14.0389 15.2187 14.1968 15.2067 14.3174 15.1213C14.6575 14.8804 14.8829 14.4745 15.0448 14.0273C15.133 13.7837 15.2082 13.511 15.2731 13.2161C15.4197 13.4197 15.5467 13.6367 15.6543 13.8652L15.6545 13.8656C15.9391 14.4686 16.0968 14.9645 16.1283 15.4366C16.1594 15.9015 16.0699 16.3722 15.8132 16.9269C15.7472 17.0694 15.7708 17.2374 15.8734 17.3563C15.9761 17.4752 16.1388 17.523 16.2895 17.4785C17.6385 17.0802 18.613 16.3602 19.174 15.3096C19.7293 14.2698 19.849 12.9631 19.6116 11.4444C19.3706 9.84227 18.7267 8.3568 17.4331 7.11619C17.3203 7.00804 17.1549 6.97545 17.0095 7.03274C16.8642 7.09002 16.7655 7.2267 16.7568 7.38269C16.7197 8.05133 16.5319 8.70164 16.2138 9.29625C15.8188 7.16036 15.0741 5.25009 14.116 3.76549C13.0152 2.05961 11.5942 0.860861 10.0503 0.610059C9.91754 0.588485 9.7828 0.635115 9.69174 0.734155C9.60068 0.833195 9.56551 0.971376 9.59814 1.1019C9.80596 1.93316 9.72524 2.80146 9.3712 3.59126C9.08959 4.21946 8.81506 4.60994 8.53273 5.01152C8.44217 5.14034 8.3508 5.2703 8.25814 5.40961C7.87179 5.99048 7.52604 6.65455 7.26495 7.88164L7.26461 7.8833C7.17837 8.29722 7.11115 8.71553 7.06677 9.13809C6.9468 8.92402 6.83249 8.66904 6.72487 8.37137C6.46028 7.63958 6.25505 6.70405 6.09177 5.61555Z" stroke="#222222" stroke-opacity="0.8" stroke-width="0.8" stroke-miterlimit="10" stroke-linecap="round" stroke-linejoin="round"/>
<path d="M20.9363 17.7023L20.9361 17.7023V17.7148V27.6148C20.9361 28.1772 21.4173 28.5948 21.9461 28.5948H24.3961C24.9393 28.5948 25.4061 28.173 25.4061 27.6148V17.7148C25.4061 17.1524 24.9249 16.7348 24.3961 16.7348H21.9461C21.4057 16.7348 20.9532 17.1607 20.9363 17.7023ZM20.0661 27.4548L20.0682 27.0548H20.4561V18.2748V17.8786L20.06 17.8748C13.8672 17.8146 9.61037 18.5921 6.29203 21.7134L6.29177 21.7137C3.05085 24.7676 1.73582 29.1469 1.7861 36.4275L1.78885 36.8248H2.18609H11.3061H11.7087L11.7061 36.4222C11.6911 34.0809 11.8039 32.3584 12.0594 31.094C12.3151 29.8291 12.705 29.067 13.2088 28.5974L13.2095 28.5967C13.6748 28.1611 14.4048 27.8569 15.5376 27.6734C16.5861 27.5035 17.9357 27.4434 19.6561 27.4516V27.4548H20.0561H20.0661ZM12.8761 40.4148V38.4548H12.9061V38.0548C12.9061 37.4924 12.4249 37.0748 11.8961 37.0748H1.60609C1.06292 37.0748 0.596094 37.4965 0.596094 38.0548V40.4148C0.596094 40.9772 1.07729 41.3948 1.60609 41.3948H11.8661C12.4093 41.3948 12.8761 40.973 12.8761 40.4148Z" stroke="#222222" stroke-opacity="0.8" stroke-width="0.8" stroke-miterlimit="10"/>
</svg>
