<svg width="38" height="54" viewBox="0 0 38 54" fill="none" xmlns="http://www.w3.org/2000/svg">
<path d="M23.0641 8.90527L27.3825 10.7976V16.3483L22.918 14.7465L23.0641 8.90527Z" stroke="#222222" stroke-opacity="0.8" stroke-width="0.5" stroke-miterlimit="10" stroke-linejoin="round"/>
<path d="M23.0641 16.5059L27.3825 18.3982V23.9489L22.918 22.3467L23.0641 16.5059Z" stroke="#222222" stroke-opacity="0.8" stroke-width="0.5" stroke-miterlimit="10" stroke-linejoin="round"/>
<path d="M23.0641 24.96L27.3825 26.8527V32.4034L22.918 30.8012L23.0641 24.96Z" stroke="#222222" stroke-opacity="0.8" stroke-width="0.5" stroke-miterlimit="10" stroke-linejoin="round"/>
<path d="M30.861 28.0957L35.1794 29.988V35.5388L30.7148 33.9366L30.861 28.0957Z" stroke="#222222" stroke-opacity="0.8" stroke-width="0.5" stroke-miterlimit="10" stroke-linejoin="round"/>
<path d="M23.0641 32.4043L27.3825 34.2966V39.8474L22.918 38.2452L23.0641 32.4043Z" stroke="#222222" stroke-opacity="0.8" stroke-width="0.5" stroke-miterlimit="10" stroke-linejoin="round"/>
<path d="M30.861 35.5371L35.1794 37.4298V42.9806L30.7148 41.3784L30.861 35.5371Z" stroke="#222222" stroke-opacity="0.8" stroke-width="0.5" stroke-miterlimit="10" stroke-linejoin="round"/>
<path d="M30.861 12.2314L35.1794 14.1238V19.6745L30.7148 18.0723L30.861 12.2314Z" stroke="#222222" stroke-opacity="0.8" stroke-width="0.5" stroke-miterlimit="10" stroke-linejoin="round"/>
<path d="M30.861 20.1631L35.1794 22.0558V27.6065L30.7148 26.0043L30.861 20.1631Z" stroke="#222222" stroke-opacity="0.8" stroke-width="0.5" stroke-miterlimit="10" stroke-linejoin="round"/>
<path d="M21.3086 1L36.9963 12.4683V45.4637L21.3086 40.4085V1Z" stroke="#222222" stroke-opacity="0.8" stroke-width="0.5" stroke-miterlimit="10" stroke-linejoin="round"/>
<path d="M21.3122 1V40.4085L1 47.1646V12.4683L21.3122 1Z" stroke="#222222" stroke-opacity="0.8" stroke-width="0.5" stroke-miterlimit="10" stroke-linejoin="round"/>
<path d="M37 45.4634L19 52.9995L1 47.1643L21.3122 40.4082L37 45.4634Z" stroke="#222222" stroke-opacity="0.8" stroke-width="0.5" stroke-miterlimit="10" stroke-linejoin="round"/>
<path fill-rule="evenodd" clip-rule="evenodd" d="M10.9085 16.8906C15.2398 16.8906 18.7509 20.3564 18.7509 24.6314C18.7509 28.9069 15.2398 32.3722 10.9085 32.3722C6.5775 32.3722 3.06641 28.9065 3.06641 24.6314C3.06641 20.3564 6.5775 16.8906 10.9085 16.8906ZM7.41964 25.4175L7.41761 25.4159C7.31761 25.3256 7.26336 25.2037 7.25728 25.0798C7.25121 24.9559 7.29251 24.8296 7.3828 24.7301C7.38401 24.7289 7.38522 24.7273 7.38644 24.7261C7.47794 24.6274 7.60143 24.5739 7.72694 24.5679C7.85326 24.5619 7.98201 24.603 8.08323 24.6938L9.73675 26.1741L13.7049 22.0721C13.7993 21.9742 13.9248 21.9234 14.0519 21.9202C14.1786 21.917 14.3066 21.9618 14.4058 22.0545C14.505 22.1476 14.5564 22.2715 14.5596 22.397C14.5629 22.5221 14.5175 22.6488 14.4232 22.7463L10.1222 27.1928C10.1194 27.196 10.1161 27.1988 10.1129 27.2012C10.0218 27.2911 9.90234 27.339 9.78128 27.3434C9.65699 27.3482 9.53067 27.3067 9.43107 27.2175L7.42126 25.4187L7.41964 25.4175Z" stroke="#222222" stroke-opacity="0.8" stroke-width="0.5" stroke-miterlimit="10" stroke-linejoin="round"/>
</svg>
