<svg width="46" height="60" viewBox="0 0 46 60" fill="none" xmlns="http://www.w3.org/2000/svg">
<path d="M22.6675 0.403204C27.7275 0.336379 31.8898 1.32683 34.7523 2.26926V2.27719V2.28904V2.30088V2.31273V2.32458V2.33643V2.34827V2.36012V2.37197V2.38382V2.39567V2.40751V2.41936V2.43121V2.44306V2.4549V2.46675V2.4786V2.49045V2.5023V2.51414V2.52599V2.53784V2.54969V2.56153V2.57338V2.58523V2.59708V2.60893V2.62077V2.63262V2.64447V2.65632V2.66816V2.68001V2.69186V2.70371V2.71556V2.7274V2.73925V2.7511V2.76295V2.77479V2.78664V2.79849V2.81034V2.82219V2.83403V2.84588V2.85773V2.86958V2.88142V2.89327V2.90512V2.91697V2.92881V2.94066V2.95251V2.96436V2.97621V2.98805V2.9999V3.01175V3.0236V3.03544V3.04729V3.05914V3.07099V3.08284V3.09468V3.10653V3.11838V3.13023V3.14207V3.15392V3.16577V3.17762V3.18947V3.20131V3.21316V3.22501V3.23686V3.2487V3.26055V3.2724V3.28425V3.2961V3.30794V3.31979V3.33164V3.34349V3.35533V3.36718V3.37903V3.39088V3.40272V3.41457V3.42642V3.43827V3.45012V3.46196V3.47381V3.48566V3.49751V3.50935V3.5212V3.53305V3.5449V3.55675V3.56859V3.58044V3.59229V3.60414V3.61598V3.62783V3.63968V3.65153V3.66338V3.67522V3.68707V3.69892V3.71077V3.72261V3.73446V3.74631V3.75816V3.77001V3.78185V3.7937V3.80555V3.8174V3.82924V3.84109V3.85294V3.86479V3.87663V3.88848V3.90033V3.91218V3.92403V3.93587V3.94772V3.95957V3.97142V3.98326V3.99511V4.00696V4.01881V4.03066V4.0425V4.05435V4.0662V4.07805V4.08989V4.10174V4.11359V4.12544V4.13729V4.14913V4.16098V4.17283V4.18468V4.19652V4.20837V4.22022V4.23207V4.24392V4.25576V4.26761V4.27946V4.29131V4.30315V4.315V4.32685V4.3387V4.35054V4.36239V4.37424V4.38609V4.39794V4.40978V4.42163V4.43348V4.44533V4.45717V4.46902V4.48087V4.49272V4.50457V4.51641V4.52826V4.54011V4.55196V4.5638V4.57565V4.5875V4.59935V4.6112V4.62304V4.63489V4.64674V4.65859V4.67043V4.68228V4.69413V4.70598V4.71783V4.72967V4.74152V4.75337V4.76522V4.77706V4.78891V4.80076V4.81261V4.82446V4.8363V4.84815V4.86V4.87185V4.88369V4.89554V4.90739V4.91924V4.93109V4.94293V4.95478V4.96663V4.97848V4.99032V5.00217V5.01402V5.02587V5.03771V5.04956V5.06141V5.07326V5.08511V5.09695V5.1088V5.12065V5.1325V5.14434V5.15619V5.16804V5.17989V5.19174V5.20358V5.21543V5.22728V5.23913V5.25097V5.26282V5.27467V5.28652V5.29837V5.31021V5.32206V5.33391V5.34576V5.3576V5.36945V5.3813V5.39315V5.40499V5.41684V5.42869V5.44054V5.45239V5.46423V5.47608V5.48793V5.49978V5.51162V5.52347V5.53532V5.54717V5.55902V5.57086V5.58271V5.59456V5.60641V5.61825V5.6301V5.64195V5.6538V5.66565V5.67749V5.68934V5.70119V5.71304V5.72488V5.73673V5.74858V5.76043V5.77228V5.78412V5.79597V5.80782V5.81967V5.83151V5.84336V5.85521V5.86706V5.87891V5.89075V5.9026V5.91445V5.9263V5.93814V5.94999V5.96184V5.97369V5.98554V5.99738V6.00923V6.02108V6.03293V6.04477V6.05662V6.06847V6.08032V6.09216V6.10401V6.11586V6.12771V6.13956V6.1514V6.16325V6.1751V6.18695V6.19879V6.21064V6.22249V6.23434V6.24619V6.25803V6.26988V6.28173V6.29358V6.30542V6.31727V6.32912V6.34097V6.35282V6.36466V6.37651V6.38836V6.40021V6.41205V6.4239V6.43575V6.4476V6.45944V6.47129V6.48314V6.49499V6.50684V6.51868V6.53053V6.54238V6.55423V6.56607V6.57792V6.58977V6.60162V6.61347V6.62531V6.63716V6.64901V6.66086V6.6727V6.68455V6.6964V6.70825V6.7201V6.73194V6.74379V6.75564V6.76749V6.77933V6.79118V6.80303V6.81488V6.82673V6.83857V6.85042V6.86227V6.87412V6.88596V6.89781V6.90966V6.92151V6.93336V6.9452V6.95705V6.9689V6.98075V6.99259V7.00444V7.01629V7.02814V7.03999V7.05183V7.06368V7.07553V7.08738V7.09922V7.11107V7.12292V7.13477V7.14661V7.15846V7.17031V7.18216V7.19401V7.20585V7.2177V7.22955V7.2414V7.25324V7.26509V7.27694V7.28879V7.30064V7.31248V7.32433V7.33618V7.34803V7.35987V7.37172V7.38357V7.39542V7.40727V7.41911V7.43096V7.44281V7.45466V7.4665V7.47835V7.4902V7.50205V7.5139V7.52574V7.53759V7.54944V7.56129V7.57313V7.58498V7.59683V7.60868V7.62052V7.63237V7.64422V7.64704H11.5523V2.26981C14.2663 1.3757 18.0732 0.464117 22.6675 0.403204ZM22.6675 0.403204L22.6622 0.00323839L22.6675 0.403204Z" stroke="#222222" stroke-opacity="0.8" stroke-width="0.8" stroke-miterlimit="10"/>
<path d="M11.5523 14.2394V8.4459H34.7516V14.2394H11.5523Z" stroke="#222222" stroke-opacity="0.8" stroke-width="0.8" stroke-miterlimit="10"/>
<path d="M10.0328 19.783C10.0328 18.0912 10.4587 16.4851 11.2248 15.041H34.9059C35.672 16.4844 36.098 18.0909 36.098 19.783C36.098 25.9951 30.3155 31.1186 23.0654 31.1186C15.8153 31.1186 10.0328 25.9945 10.0328 19.783Z" stroke="#222222" stroke-opacity="0.8" stroke-width="0.8" stroke-miterlimit="10"/>
<mask id="path-4-inside-1_1231_27701" fill="white">
<path d="M14.8789 29.0811V31.5166C15.0976 31.8494 17.5459 35.4375 22.1326 35.6043C27.1392 35.7861 29.9248 31.7191 30.0582 31.5166C30.0582 30.9466 30.0582 30.3767 30.0582 29.8068"/>
</mask>
<path d="M14.8789 31.5166H14.0789V31.7558L14.2103 31.9558L14.8789 31.5166ZM22.1326 35.6043L22.1035 36.4037L22.1035 36.4037L22.1326 35.6043ZM30.0582 31.5166L30.7263 31.9567L30.8582 31.7564V31.5166H30.0582ZM14.0789 29.0811V31.5166H15.6789V29.0811H14.0789ZM14.2103 31.9558C14.453 32.3253 17.0994 36.2218 22.1035 36.4037L22.1616 34.8048C17.9924 34.6532 15.7421 31.3736 15.5476 31.0774L14.2103 31.9558ZM22.1035 36.4037C24.8425 36.5032 26.9675 35.4373 28.4074 34.3411C29.8414 33.2494 30.6291 32.1042 30.7263 31.9567L29.3902 31.0765C29.3539 31.1314 28.6821 32.1211 27.4382 33.068C26.2003 34.0105 24.4293 34.8872 22.1616 34.8048L22.1035 36.4037ZM30.8582 31.5166C30.8582 31.5155 30.8582 31.5143 30.8582 31.5132C30.8582 31.5121 30.8582 31.511 30.8582 31.5099C30.8582 31.5088 30.8582 31.5077 30.8582 31.5066C30.8582 31.5054 30.8582 31.5043 30.8582 31.5032C30.8582 31.5021 30.8582 31.501 30.8582 31.4999C30.8582 31.4988 30.8582 31.4976 30.8582 31.4965C30.8582 31.4954 30.8582 31.4943 30.8582 31.4932C30.8582 31.4921 30.8582 31.491 30.8582 31.4899C30.8582 31.4887 30.8582 31.4876 30.8582 31.4865C30.8582 31.4854 30.8582 31.4843 30.8582 31.4832C30.8582 31.4821 30.8582 31.4809 30.8582 31.4798C30.8582 31.4787 30.8582 31.4776 30.8582 31.4765C30.8582 31.4754 30.8582 31.4743 30.8582 31.4732C30.8582 31.472 30.8582 31.4709 30.8582 31.4698C30.8582 31.4687 30.8582 31.4676 30.8582 31.4665C30.8582 31.4654 30.8582 31.4643 30.8582 31.4631C30.8582 31.462 30.8582 31.4609 30.8582 31.4598C30.8582 31.4587 30.8582 31.4576 30.8582 31.4565C30.8582 31.4553 30.8582 31.4542 30.8582 31.4531C30.8582 31.452 30.8582 31.4509 30.8582 31.4498C30.8582 31.4487 30.8582 31.4476 30.8582 31.4464C30.8582 31.4453 30.8582 31.4442 30.8582 31.4431C30.8582 31.442 30.8582 31.4409 30.8582 31.4398C30.8582 31.4387 30.8582 31.4375 30.8582 31.4364C30.8582 31.4353 30.8582 31.4342 30.8582 31.4331C30.8582 31.432 30.8582 31.4309 30.8582 31.4297C30.8582 31.4286 30.8582 31.4275 30.8582 31.4264C30.8582 31.4253 30.8582 31.4242 30.8582 31.4231C30.8582 31.422 30.8582 31.4208 30.8582 31.4197C30.8582 31.4186 30.8582 31.4175 30.8582 31.4164C30.8582 31.4153 30.8582 31.4142 30.8582 31.413C30.8582 31.4119 30.8582 31.4108 30.8582 31.4097C30.8582 31.4086 30.8582 31.4075 30.8582 31.4064C30.8582 31.4053 30.8582 31.4041 30.8582 31.403C30.8582 31.4019 30.8582 31.4008 30.8582 31.3997C30.8582 31.3986 30.8582 31.3975 30.8582 31.3964C30.8582 31.3952 30.8582 31.3941 30.8582 31.393C30.8582 31.3919 30.8582 31.3908 30.8582 31.3897C30.8582 31.3886 30.8582 31.3874 30.8582 31.3863C30.8582 31.3852 30.8582 31.3841 30.8582 31.383C30.8582 31.3819 30.8582 31.3808 30.8582 31.3797C30.8582 31.3785 30.8582 31.3774 30.8582 31.3763C30.8582 31.3752 30.8582 31.3741 30.8582 31.373C30.8582 31.3719 30.8582 31.3707 30.8582 31.3696C30.8582 31.3685 30.8582 31.3674 30.8582 31.3663C30.8582 31.3652 30.8582 31.3641 30.8582 31.363C30.8582 31.3618 30.8582 31.3607 30.8582 31.3596C30.8582 31.3585 30.8582 31.3574 30.8582 31.3563C30.8582 31.3552 30.8582 31.3541 30.8582 31.3529C30.8582 31.3518 30.8582 31.3507 30.8582 31.3496C30.8582 31.3485 30.8582 31.3474 30.8582 31.3463C30.8582 31.3451 30.8582 31.344 30.8582 31.3429C30.8582 31.3418 30.8582 31.3407 30.8582 31.3396C30.8582 31.3385 30.8582 31.3374 30.8582 31.3362C30.8582 31.3351 30.8582 31.334 30.8582 31.3329C30.8582 31.3318 30.8582 31.3307 30.8582 31.3296C30.8582 31.3285 30.8582 31.3273 30.8582 31.3262C30.8582 31.3251 30.8582 31.324 30.8582 31.3229C30.8582 31.3218 30.8582 31.3207 30.8582 31.3195C30.8582 31.3184 30.8582 31.3173 30.8582 31.3162C30.8582 31.3151 30.8582 31.314 30.8582 31.3129C30.8582 31.3118 30.8582 31.3106 30.8582 31.3095C30.8582 31.3084 30.8582 31.3073 30.8582 31.3062C30.8582 31.3051 30.8582 31.304 30.8582 31.3028C30.8582 31.3017 30.8582 31.3006 30.8582 31.2995C30.8582 31.2984 30.8582 31.2973 30.8582 31.2962C30.8582 31.2951 30.8582 31.2939 30.8582 31.2928C30.8582 31.2917 30.8582 31.2906 30.8582 31.2895C30.8582 31.2884 30.8582 31.2873 30.8582 31.2862C30.8582 31.285 30.8582 31.2839 30.8582 31.2828C30.8582 31.2817 30.8582 31.2806 30.8582 31.2795C30.8582 31.2784 30.8582 31.2772 30.8582 31.2761C30.8582 31.275 30.8582 31.2739 30.8582 31.2728C30.8582 31.2717 30.8582 31.2706 30.8582 31.2695C30.8582 31.2683 30.8582 31.2672 30.8582 31.2661C30.8582 31.265 30.8582 31.2639 30.8582 31.2628C30.8582 31.2617 30.8582 31.2605 30.8582 31.2594C30.8582 31.2583 30.8582 31.2572 30.8582 31.2561C30.8582 31.255 30.8582 31.2539 30.8582 31.2528C30.8582 31.2516 30.8582 31.2505 30.8582 31.2494C30.8582 31.2483 30.8582 31.2472 30.8582 31.2461C30.8582 31.245 30.8582 31.2439 30.8582 31.2427C30.8582 31.2416 30.8582 31.2405 30.8582 31.2394C30.8582 31.2383 30.8582 31.2372 30.8582 31.2361C30.8582 31.2349 30.8582 31.2338 30.8582 31.2327C30.8582 31.2316 30.8582 31.2305 30.8582 31.2294C30.8582 31.2283 30.8582 31.2272 30.8582 31.226C30.8582 31.2249 30.8582 31.2238 30.8582 31.2227C30.8582 31.2216 30.8582 31.2205 30.8582 31.2194C30.8582 31.2183 30.8582 31.2171 30.8582 31.216C30.8582 31.2149 30.8582 31.2138 30.8582 31.2127C30.8582 31.2116 30.8582 31.2105 30.8582 31.2093C30.8582 31.2082 30.8582 31.2071 30.8582 31.206C30.8582 31.2049 30.8582 31.2038 30.8582 31.2027C30.8582 31.2016 30.8582 31.2004 30.8582 31.1993C30.8582 31.1982 30.8582 31.1971 30.8582 31.196C30.8582 31.1949 30.8582 31.1938 30.8582 31.1926C30.8582 31.1915 30.8582 31.1904 30.8582 31.1893C30.8582 31.1882 30.8582 31.1871 30.8582 31.186C30.8582 31.1849 30.8582 31.1837 30.8582 31.1826C30.8582 31.1815 30.8582 31.1804 30.8582 31.1793C30.8582 31.1782 30.8582 31.1771 30.8582 31.176C30.8582 31.1748 30.8582 31.1737 30.8582 31.1726C30.8582 31.1715 30.8582 31.1704 30.8582 31.1693C30.8582 31.1682 30.8582 31.167 30.8582 31.1659C30.8582 31.1648 30.8582 31.1637 30.8582 31.1626C30.8582 31.1615 30.8582 31.1604 30.8582 31.1593C30.8582 31.1581 30.8582 31.157 30.8582 31.1559C30.8582 31.1548 30.8582 31.1537 30.8582 31.1526C30.8582 31.1515 30.8582 31.1503 30.8582 31.1492C30.8582 31.1481 30.8582 31.147 30.8582 31.1459C30.8582 31.1448 30.8582 31.1437 30.8582 31.1426C30.8582 31.1414 30.8582 31.1403 30.8582 31.1392C30.8582 31.1381 30.8582 31.137 30.8582 31.1359C30.8582 31.1348 30.8582 31.1337 30.8582 31.1325C30.8582 31.1314 30.8582 31.1303 30.8582 31.1292C30.8582 31.1281 30.8582 31.127 30.8582 31.1259C30.8582 31.1247 30.8582 31.1236 30.8582 31.1225C30.8582 31.1214 30.8582 31.1203 30.8582 31.1192C30.8582 31.1181 30.8582 31.117 30.8582 31.1158C30.8582 31.1147 30.8582 31.1136 30.8582 31.1125C30.8582 31.1114 30.8582 31.1103 30.8582 31.1092C30.8582 31.108 30.8582 31.1069 30.8582 31.1058C30.8582 31.1047 30.8582 31.1036 30.8582 31.1025C30.8582 31.1014 30.8582 31.1003 30.8582 31.0991C30.8582 31.098 30.8582 31.0969 30.8582 31.0958C30.8582 31.0947 30.8582 31.0936 30.8582 31.0925C30.8582 31.0914 30.8582 31.0902 30.8582 31.0891C30.8582 31.088 30.8582 31.0869 30.8582 31.0858C30.8582 31.0847 30.8582 31.0836 30.8582 31.0824C30.8582 31.0813 30.8582 31.0802 30.8582 31.0791C30.8582 31.078 30.8582 31.0769 30.8582 31.0758C30.8582 31.0747 30.8582 31.0735 30.8582 31.0724C30.8582 31.0713 30.8582 31.0702 30.8582 31.0691C30.8582 31.068 30.8582 31.0669 30.8582 31.0658C30.8582 31.0646 30.8582 31.0635 30.8582 31.0624C30.8582 31.0613 30.8582 31.0602 30.8582 31.0591C30.8582 31.058 30.8582 31.0568 30.8582 31.0557C30.8582 31.0546 30.8582 31.0535 30.8582 31.0524C30.8582 31.0513 30.8582 31.0502 30.8582 31.0491C30.8582 31.0479 30.8582 31.0468 30.8582 31.0457C30.8582 31.0446 30.8582 31.0435 30.8582 31.0424C30.8582 31.0413 30.8582 31.0401 30.8582 31.039C30.8582 31.0379 30.8582 31.0368 30.8582 31.0357C30.8582 31.0346 30.8582 31.0335 30.8582 31.0324C30.8582 31.0312 30.8582 31.0301 30.8582 31.029C30.8582 31.0279 30.8582 31.0268 30.8582 31.0257C30.8582 31.0246 30.8582 31.0235 30.8582 31.0223C30.8582 31.0212 30.8582 31.0201 30.8582 31.019C30.8582 31.0179 30.8582 31.0168 30.8582 31.0157C30.8582 31.0145 30.8582 31.0134 30.8582 31.0123C30.8582 31.0112 30.8582 31.0101 30.8582 31.009C30.8582 31.0079 30.8582 31.0068 30.8582 31.0056C30.8582 31.0045 30.8582 31.0034 30.8582 31.0023C30.8582 31.0012 30.8582 31.0001 30.8582 30.999C30.8582 30.9978 30.8582 30.9967 30.8582 30.9956C30.8582 30.9945 30.8582 30.9934 30.8582 30.9923C30.8582 30.9912 30.8582 30.9901 30.8582 30.9889C30.8582 30.9878 30.8582 30.9867 30.8582 30.9856C30.8582 30.9845 30.8582 30.9834 30.8582 30.9823C30.8582 30.9812 30.8582 30.98 30.8582 30.9789C30.8582 30.9778 30.8582 30.9767 30.8582 30.9756C30.8582 30.9745 30.8582 30.9734 30.8582 30.9722C30.8582 30.9711 30.8582 30.97 30.8582 30.9689C30.8582 30.9678 30.8582 30.9667 30.8582 30.9656C30.8582 30.9645 30.8582 30.9633 30.8582 30.9622C30.8582 30.9611 30.8582 30.96 30.8582 30.9589C30.8582 30.9578 30.8582 30.9567 30.8582 30.9556C30.8582 30.9544 30.8582 30.9533 30.8582 30.9522C30.8582 30.9511 30.8582 30.95 30.8582 30.9489C30.8582 30.9478 30.8582 30.9466 30.8582 30.9455C30.8582 30.9444 30.8582 30.9433 30.8582 30.9422C30.8582 30.9411 30.8582 30.94 30.8582 30.9389C30.8582 30.9377 30.8582 30.9366 30.8582 30.9355C30.8582 30.9344 30.8582 30.9333 30.8582 30.9322C30.8582 30.9311 30.8582 30.9299 30.8582 30.9288C30.8582 30.9277 30.8582 30.9266 30.8582 30.9255C30.8582 30.9244 30.8582 30.9233 30.8582 30.9222C30.8582 30.921 30.8582 30.9199 30.8582 30.9188C30.8582 30.9177 30.8582 30.9166 30.8582 30.9155C30.8582 30.9144 30.8582 30.9133 30.8582 30.9121C30.8582 30.911 30.8582 30.9099 30.8582 30.9088C30.8582 30.9077 30.8582 30.9066 30.8582 30.9055C30.8582 30.9043 30.8582 30.9032 30.8582 30.9021C30.8582 30.901 30.8582 30.8999 30.8582 30.8988C30.8582 30.8977 30.8582 30.8966 30.8582 30.8954C30.8582 30.8943 30.8582 30.8932 30.8582 30.8921C30.8582 30.891 30.8582 30.8899 30.8582 30.8888C30.8582 30.8876 30.8582 30.8865 30.8582 30.8854C30.8582 30.8843 30.8582 30.8832 30.8582 30.8821C30.8582 30.881 30.8582 30.8799 30.8582 30.8787C30.8582 30.8776 30.8582 30.8765 30.8582 30.8754C30.8582 30.8743 30.8582 30.8732 30.8582 30.8721C30.8582 30.871 30.8582 30.8698 30.8582 30.8687C30.8582 30.8676 30.8582 30.8665 30.8582 30.8654C30.8582 30.8643 30.8582 30.8632 30.8582 30.862C30.8582 30.8609 30.8582 30.8598 30.8582 30.8587C30.8582 30.8576 30.8582 30.8565 30.8582 30.8554C30.8582 30.8543 30.8582 30.8531 30.8582 30.852C30.8582 30.8509 30.8582 30.8498 30.8582 30.8487C30.8582 30.8476 30.8582 30.8465 30.8582 30.8454C30.8582 30.8442 30.8582 30.8431 30.8582 30.842C30.8582 30.8409 30.8582 30.8398 30.8582 30.8387C30.8582 30.8376 30.8582 30.8364 30.8582 30.8353C30.8582 30.8342 30.8582 30.8331 30.8582 30.832C30.8582 30.8309 30.8582 30.8298 30.8582 30.8287C30.8582 30.8275 30.8582 30.8264 30.8582 30.8253C30.8582 30.8242 30.8582 30.8231 30.8582 30.822C30.8582 30.8209 30.8582 30.8197 30.8582 30.8186C30.8582 30.8175 30.8582 30.8164 30.8582 30.8153C30.8582 30.8142 30.8582 30.8131 30.8582 30.812C30.8582 30.8108 30.8582 30.8097 30.8582 30.8086C30.8582 30.8075 30.8582 30.8064 30.8582 30.8053C30.8582 30.8042 30.8582 30.8031 30.8582 30.8019C30.8582 30.8008 30.8582 30.7997 30.8582 30.7986C30.8582 30.7975 30.8582 30.7964 30.8582 30.7953C30.8582 30.7941 30.8582 30.793 30.8582 30.7919C30.8582 30.7908 30.8582 30.7897 30.8582 30.7886C30.8582 30.7875 30.8582 30.7864 30.8582 30.7852C30.8582 30.7841 30.8582 30.783 30.8582 30.7819C30.8582 30.7808 30.8582 30.7797 30.8582 30.7786C30.8582 30.7774 30.8582 30.7763 30.8582 30.7752C30.8582 30.7741 30.8582 30.773 30.8582 30.7719C30.8582 30.7708 30.8582 30.7697 30.8582 30.7685C30.8582 30.7674 30.8582 30.7663 30.8582 30.7652C30.8582 30.7641 30.8582 30.763 30.8582 30.7619C30.8582 30.7608 30.8582 30.7596 30.8582 30.7585C30.8582 30.7574 30.8582 30.7563 30.8582 30.7552C30.8582 30.7541 30.8582 30.753 30.8582 30.7518C30.8582 30.7507 30.8582 30.7496 30.8582 30.7485C30.8582 30.7474 30.8582 30.7463 30.8582 30.7452C30.8582 30.7441 30.8582 30.7429 30.8582 30.7418C30.8582 30.7407 30.8582 30.7396 30.8582 30.7385C30.8582 30.7374 30.8582 30.7363 30.8582 30.7352C30.8582 30.734 30.8582 30.7329 30.8582 30.7318C30.8582 30.7307 30.8582 30.7296 30.8582 30.7285C30.8582 30.7274 30.8582 30.7262 30.8582 30.7251C30.8582 30.724 30.8582 30.7229 30.8582 30.7218C30.8582 30.7207 30.8582 30.7196 30.8582 30.7185C30.8582 30.7173 30.8582 30.7162 30.8582 30.7151C30.8582 30.714 30.8582 30.7129 30.8582 30.7118C30.8582 30.7107 30.8582 30.7095 30.8582 30.7084C30.8582 30.7073 30.8582 30.7062 30.8582 30.7051C30.8582 30.704 30.8582 30.7029 30.8582 30.7018C30.8582 30.7006 30.8582 30.6995 30.8582 30.6984C30.8582 30.6973 30.8582 30.6962 30.8582 30.6951C30.8582 30.694 30.8582 30.6929 30.8582 30.6917C30.8582 30.6906 30.8582 30.6895 30.8582 30.6884C30.8582 30.6873 30.8582 30.6862 30.8582 30.6851C30.8582 30.6839 30.8582 30.6828 30.8582 30.6817C30.8582 30.6806 30.8582 30.6795 30.8582 30.6784C30.8582 30.6773 30.8582 30.6762 30.8582 30.675C30.8582 30.6739 30.8582 30.6728 30.8582 30.6717C30.8582 30.6706 30.8582 30.6695 30.8582 30.6684C30.8582 30.6672 30.8582 30.6661 30.8582 30.665C30.8582 30.6639 30.8582 30.6628 30.8582 30.6617C30.8582 30.6606 30.8582 30.6595 30.8582 30.6583C30.8582 30.6572 30.8582 30.6561 30.8582 30.655C30.8582 30.6539 30.8582 30.6528 30.8582 30.6517C30.8582 30.6506 30.8582 30.6494 30.8582 30.6483C30.8582 30.6472 30.8582 30.6461 30.8582 30.645C30.8582 30.6439 30.8582 30.6428 30.8582 30.6416C30.8582 30.6405 30.8582 30.6394 30.8582 30.6383C30.8582 30.6372 30.8582 30.6361 30.8582 30.635C30.8582 30.6339 30.8582 30.6327 30.8582 30.6316C30.8582 30.6305 30.8582 30.6294 30.8582 30.6283C30.8582 30.6272 30.8582 30.6261 30.8582 30.625C30.8582 30.6238 30.8582 30.6227 30.8582 30.6216C30.8582 30.6205 30.8582 30.6194 30.8582 30.6183C30.8582 30.6172 30.8582 30.616 30.8582 30.6149C30.8582 30.6138 30.8582 30.6127 30.8582 30.6116C30.8582 30.6105 30.8582 30.6094 30.8582 30.6083C30.8582 30.6071 30.8582 30.606 30.8582 30.6049C30.8582 30.6038 30.8582 30.6027 30.8582 30.6016C30.8582 30.6005 30.8582 30.5993 30.8582 30.5982C30.8582 30.5971 30.8582 30.596 30.8582 30.5949C30.8582 30.5938 30.8582 30.5927 30.8582 30.5916C30.8582 30.5904 30.8582 30.5893 30.8582 30.5882C30.8582 30.5871 30.8582 30.586 30.8582 30.5849C30.8582 30.5838 30.8582 30.5827 30.8582 30.5815C30.8582 30.5804 30.8582 30.5793 30.8582 30.5782C30.8582 30.5771 30.8582 30.576 30.8582 30.5749C30.8582 30.5737 30.8582 30.5726 30.8582 30.5715C30.8582 30.5704 30.8582 30.5693 30.8582 30.5682C30.8582 30.5671 30.8582 30.566 30.8582 30.5648C30.8582 30.5637 30.8582 30.5626 30.8582 30.5615C30.8582 30.5604 30.8582 30.5593 30.8582 30.5582C30.8582 30.557 30.8582 30.5559 30.8582 30.5548C30.8582 30.5537 30.8582 30.5526 30.8582 30.5515C30.8582 30.5504 30.8582 30.5493 30.8582 30.5481C30.8582 30.547 30.8582 30.5459 30.8582 30.5448C30.8582 30.5437 30.8582 30.5426 30.8582 30.5415C30.8582 30.5404 30.8582 30.5392 30.8582 30.5381C30.8582 30.537 30.8582 30.5359 30.8582 30.5348C30.8582 30.5337 30.8582 30.5326 30.8582 30.5314C30.8582 30.5303 30.8582 30.5292 30.8582 30.5281C30.8582 30.527 30.8582 30.5259 30.8582 30.5248C30.8582 30.5237 30.8582 30.5225 30.8582 30.5214C30.8582 30.5203 30.8582 30.5192 30.8582 30.5181C30.8582 30.517 30.8582 30.5159 30.8582 30.5148C30.8582 30.5136 30.8582 30.5125 30.8582 30.5114C30.8582 30.5103 30.8582 30.5092 30.8582 30.5081C30.8582 30.507 30.8582 30.5058 30.8582 30.5047C30.8582 30.5036 30.8582 30.5025 30.8582 30.5014C30.8582 30.5003 30.8582 30.4992 30.8582 30.4981C30.8582 30.4969 30.8582 30.4958 30.8582 30.4947C30.8582 30.4936 30.8582 30.4925 30.8582 30.4914C30.8582 30.4903 30.8582 30.4891 30.8582 30.488C30.8582 30.4869 30.8582 30.4858 30.8582 30.4847C30.8582 30.4836 30.8582 30.4825 30.8582 30.4814C30.8582 30.4802 30.8582 30.4791 30.8582 30.478C30.8582 30.4769 30.8582 30.4758 30.8582 30.4747C30.8582 30.4736 30.8582 30.4725 30.8582 30.4713C30.8582 30.4702 30.8582 30.4691 30.8582 30.468C30.8582 30.4669 30.8582 30.4658 30.8582 30.4647C30.8582 30.4635 30.8582 30.4624 30.8582 30.4613C30.8582 30.4602 30.8582 30.4591 30.8582 30.458C30.8582 30.4569 30.8582 30.4558 30.8582 30.4546C30.8582 30.4535 30.8582 30.4524 30.8582 30.4513C30.8582 30.4502 30.8582 30.4491 30.8582 30.448C30.8582 30.4468 30.8582 30.4457 30.8582 30.4446C30.8582 30.4435 30.8582 30.4424 30.8582 30.4413C30.8582 30.4402 30.8582 30.4391 30.8582 30.4379C30.8582 30.4368 30.8582 30.4357 30.8582 30.4346C30.8582 30.4335 30.8582 30.4324 30.8582 30.4313C30.8582 30.4302 30.8582 30.429 30.8582 30.4279C30.8582 30.4268 30.8582 30.4257 30.8582 30.4246C30.8582 30.4235 30.8582 30.4224 30.8582 30.4212C30.8582 30.4201 30.8582 30.419 30.8582 30.4179C30.8582 30.4168 30.8582 30.4157 30.8582 30.4146C30.8582 30.4135 30.8582 30.4123 30.8582 30.4112C30.8582 30.4101 30.8582 30.409 30.8582 30.4079C30.8582 30.4068 30.8582 30.4057 30.8582 30.4046C30.8582 30.4034 30.8582 30.4023 30.8582 30.4012C30.8582 30.4001 30.8582 30.399 30.8582 30.3979C30.8582 30.3968 30.8582 30.3956 30.8582 30.3945C30.8582 30.3934 30.8582 30.3923 30.8582 30.3912C30.8582 30.3901 30.8582 30.389 30.8582 30.3879C30.8582 30.3867 30.8582 30.3856 30.8582 30.3845C30.8582 30.3834 30.8582 30.3823 30.8582 30.3812C30.8582 30.3801 30.8582 30.3789 30.8582 30.3778C30.8582 30.3767 30.8582 30.3756 30.8582 30.3745C30.8582 30.3734 30.8582 30.3723 30.8582 30.3712C30.8582 30.37 30.8582 30.3689 30.8582 30.3678C30.8582 30.3667 30.8582 30.3656 30.8582 30.3645C30.8582 30.3634 30.8582 30.3623 30.8582 30.3611C30.8582 30.36 30.8582 30.3589 30.8582 30.3578C30.8582 30.3567 30.8582 30.3556 30.8582 30.3545C30.8582 30.3533 30.8582 30.3522 30.8582 30.3511C30.8582 30.35 30.8582 30.3489 30.8582 30.3478C30.8582 30.3467 30.8582 30.3456 30.8582 30.3444C30.8582 30.3433 30.8582 30.3422 30.8582 30.3411C30.8582 30.34 30.8582 30.3389 30.8582 30.3378C30.8582 30.3366 30.8582 30.3355 30.8582 30.3344C30.8582 30.3333 30.8582 30.3322 30.8582 30.3311C30.8582 30.33 30.8582 30.3289 30.8582 30.3277C30.8582 30.3266 30.8582 30.3255 30.8582 30.3244C30.8582 30.3233 30.8582 30.3222 30.8582 30.3211C30.8582 30.32 30.8582 30.3188 30.8582 30.3177C30.8582 30.3166 30.8582 30.3155 30.8582 30.3144C30.8582 30.3133 30.8582 30.3122 30.8582 30.311C30.8582 30.3099 30.8582 30.3088 30.8582 30.3077C30.8582 30.3066 30.8582 30.3055 30.8582 30.3044C30.8582 30.3033 30.8582 30.3021 30.8582 30.301C30.8582 30.2999 30.8582 30.2988 30.8582 30.2977C30.8582 30.2966 30.8582 30.2955 30.8582 30.2943C30.8582 30.2932 30.8582 30.2921 30.8582 30.291C30.8582 30.2899 30.8582 30.2888 30.8582 30.2877C30.8582 30.2866 30.8582 30.2854 30.8582 30.2843C30.8582 30.2832 30.8582 30.2821 30.8582 30.281C30.8582 30.2799 30.8582 30.2788 30.8582 30.2777C30.8582 30.2765 30.8582 30.2754 30.8582 30.2743C30.8582 30.2732 30.8582 30.2721 30.8582 30.271C30.8582 30.2699 30.8582 30.2687 30.8582 30.2676C30.8582 30.2665 30.8582 30.2654 30.8582 30.2643C30.8582 30.2632 30.8582 30.2621 30.8582 30.261C30.8582 30.2598 30.8582 30.2587 30.8582 30.2576C30.8582 30.2565 30.8582 30.2554 30.8582 30.2543C30.8582 30.2532 30.8582 30.2521 30.8582 30.2509C30.8582 30.2498 30.8582 30.2487 30.8582 30.2476C30.8582 30.2465 30.8582 30.2454 30.8582 30.2443C30.8582 30.2431 30.8582 30.242 30.8582 30.2409C30.8582 30.2398 30.8582 30.2387 30.8582 30.2376C30.8582 30.2365 30.8582 30.2354 30.8582 30.2342C30.8582 30.2331 30.8582 30.232 30.8582 30.2309C30.8582 30.2298 30.8582 30.2287 30.8582 30.2276C30.8582 30.2264 30.8582 30.2253 30.8582 30.2242C30.8582 30.2231 30.8582 30.222 30.8582 30.2209C30.8582 30.2198 30.8582 30.2187 30.8582 30.2175C30.8582 30.2164 30.8582 30.2153 30.8582 30.2142C30.8582 30.2131 30.8582 30.212 30.8582 30.2109C30.8582 30.2098 30.8582 30.2086 30.8582 30.2075C30.8582 30.2064 30.8582 30.2053 30.8582 30.2042C30.8582 30.2031 30.8582 30.202 30.8582 30.2008C30.8582 30.1997 30.8582 30.1986 30.8582 30.1975C30.8582 30.1964 30.8582 30.1953 30.8582 30.1942C30.8582 30.1931 30.8582 30.1919 30.8582 30.1908C30.8582 30.1897 30.8582 30.1886 30.8582 30.1875C30.8582 30.1864 30.8582 30.1853 30.8582 30.1841C30.8582 30.183 30.8582 30.1819 30.8582 30.1808C30.8582 30.1797 30.8582 30.1786 30.8582 30.1775C30.8582 30.1764 30.8582 30.1752 30.8582 30.1741C30.8582 30.173 30.8582 30.1719 30.8582 30.1708C30.8582 30.1697 30.8582 30.1686 30.8582 30.1675C30.8582 30.1663 30.8582 30.1652 30.8582 30.1641C30.8582 30.163 30.8582 30.1619 30.8582 30.1608C30.8582 30.1597 30.8582 30.1585 30.8582 30.1574C30.8582 30.1563 30.8582 30.1552 30.8582 30.1541C30.8582 30.153 30.8582 30.1519 30.8582 30.1508C30.8582 30.1496 30.8582 30.1485 30.8582 30.1474C30.8582 30.1463 30.8582 30.1452 30.8582 30.1441C30.8582 30.143 30.8582 30.1419 30.8582 30.1407C30.8582 30.1396 30.8582 30.1385 30.8582 30.1374C30.8582 30.1363 30.8582 30.1352 30.8582 30.1341C30.8582 30.1329 30.8582 30.1318 30.8582 30.1307C30.8582 30.1296 30.8582 30.1285 30.8582 30.1274C30.8582 30.1263 30.8582 30.1252 30.8582 30.124C30.8582 30.1229 30.8582 30.1218 30.8582 30.1207C30.8582 30.1196 30.8582 30.1185 30.8582 30.1174C30.8582 30.1162 30.8582 30.1151 30.8582 30.114C30.8582 30.1129 30.8582 30.1118 30.8582 30.1107C30.8582 30.1096 30.8582 30.1085 30.8582 30.1073C30.8582 30.1062 30.8582 30.1051 30.8582 30.104C30.8582 30.1029 30.8582 30.1018 30.8582 30.1007C30.8582 30.0996 30.8582 30.0984 30.8582 30.0973C30.8582 30.0962 30.8582 30.0951 30.8582 30.094C30.8582 30.0929 30.8582 30.0918 30.8582 30.0906C30.8582 30.0895 30.8582 30.0884 30.8582 30.0873C30.8582 30.0862 30.8582 30.0851 30.8582 30.084C30.8582 30.0829 30.8582 30.0817 30.8582 30.0806C30.8582 30.0795 30.8582 30.0784 30.8582 30.0773C30.8582 30.0762 30.8582 30.0751 30.8582 30.0739C30.8582 30.0728 30.8582 30.0717 30.8582 30.0706C30.8582 30.0695 30.8582 30.0684 30.8582 30.0673C30.8582 30.0662 30.8582 30.065 30.8582 30.0639C30.8582 30.0628 30.8582 30.0617 30.8582 30.0606C30.8582 30.0595 30.8582 30.0584 30.8582 30.0573C30.8582 30.0561 30.8582 30.055 30.8582 30.0539C30.8582 30.0528 30.8582 30.0517 30.8582 30.0506C30.8582 30.0495 30.8582 30.0483 30.8582 30.0472C30.8582 30.0461 30.8582 30.045 30.8582 30.0439C30.8582 30.0428 30.8582 30.0417 30.8582 30.0406C30.8582 30.0394 30.8582 30.0383 30.8582 30.0372C30.8582 30.0361 30.8582 30.035 30.8582 30.0339C30.8582 30.0328 30.8582 30.0317 30.8582 30.0305C30.8582 30.0294 30.8582 30.0283 30.8582 30.0272C30.8582 30.0261 30.8582 30.025 30.8582 30.0239C30.8582 30.0227 30.8582 30.0216 30.8582 30.0205C30.8582 30.0194 30.8582 30.0183 30.8582 30.0172C30.8582 30.0161 30.8582 30.015 30.8582 30.0138C30.8582 30.0127 30.8582 30.0116 30.8582 30.0105C30.8582 30.0094 30.8582 30.0083 30.8582 30.0072C30.8582 30.006 30.8582 30.0049 30.8582 30.0038C30.8582 30.0027 30.8582 30.0016 30.8582 30.0005C30.8582 29.9994 30.8582 29.9983 30.8582 29.9971C30.8582 29.996 30.8582 29.9949 30.8582 29.9938C30.8582 29.9927 30.8582 29.9916 30.8582 29.9905C30.8582 29.9894 30.8582 29.9882 30.8582 29.9871C30.8582 29.986 30.8582 29.9849 30.8582 29.9838C30.8582 29.9827 30.8582 29.9816 30.8582 29.9804C30.8582 29.9793 30.8582 29.9782 30.8582 29.9771C30.8582 29.976 30.8582 29.9749 30.8582 29.9738C30.8582 29.9727 30.8582 29.9715 30.8582 29.9704C30.8582 29.9693 30.8582 29.9682 30.8582 29.9671C30.8582 29.966 30.8582 29.9649 30.8582 29.9637C30.8582 29.9626 30.8582 29.9615 30.8582 29.9604C30.8582 29.9593 30.8582 29.9582 30.8582 29.9571C30.8582 29.956 30.8582 29.9548 30.8582 29.9537C30.8582 29.9526 30.8582 29.9515 30.8582 29.9504C30.8582 29.9493 30.8582 29.9482 30.8582 29.9471C30.8582 29.9459 30.8582 29.9448 30.8582 29.9437C30.8582 29.9426 30.8582 29.9415 30.8582 29.9404C30.8582 29.9393 30.8582 29.9381 30.8582 29.937C30.8582 29.9359 30.8582 29.9348 30.8582 29.9337C30.8582 29.9326 30.8582 29.9315 30.8582 29.9304C30.8582 29.9292 30.8582 29.9281 30.8582 29.927C30.8582 29.9259 30.8582 29.9248 30.8582 29.9237C30.8582 29.9226 30.8582 29.9215 30.8582 29.9203C30.8582 29.9192 30.8582 29.9181 30.8582 29.917C30.8582 29.9159 30.8582 29.9148 30.8582 29.9137C30.8582 29.9125 30.8582 29.9114 30.8582 29.9103C30.8582 29.9092 30.8582 29.9081 30.8582 29.907C30.8582 29.9059 30.8582 29.9048 30.8582 29.9036C30.8582 29.9025 30.8582 29.9014 30.8582 29.9003C30.8582 29.8992 30.8582 29.8981 30.8582 29.897C30.8582 29.8958 30.8582 29.8947 30.8582 29.8936C30.8582 29.8925 30.8582 29.8914 30.8582 29.8903C30.8582 29.8892 30.8582 29.8881 30.8582 29.8869C30.8582 29.8858 30.8582 29.8847 30.8582 29.8836C30.8582 29.8825 30.8582 29.8814 30.8582 29.8803C30.8582 29.8792 30.8582 29.878 30.8582 29.8769C30.8582 29.8758 30.8582 29.8747 30.8582 29.8736C30.8582 29.8725 30.8582 29.8714 30.8582 29.8702C30.8582 29.8691 30.8582 29.868 30.8582 29.8669C30.8582 29.8658 30.8582 29.8647 30.8582 29.8636C30.8582 29.8625 30.8582 29.8613 30.8582 29.8602C30.8582 29.8591 30.8582 29.858 30.8582 29.8569C30.8582 29.8558 30.8582 29.8547 30.8582 29.8535C30.8582 29.8524 30.8582 29.8513 30.8582 29.8502C30.8582 29.8491 30.8582 29.848 30.8582 29.8469C30.8582 29.8458 30.8582 29.8446 30.8582 29.8435C30.8582 29.8424 30.8582 29.8413 30.8582 29.8402C30.8582 29.8391 30.8582 29.838 30.8582 29.8369C30.8582 29.8357 30.8582 29.8346 30.8582 29.8335C30.8582 29.8324 30.8582 29.8313 30.8582 29.8302C30.8582 29.8291 30.8582 29.8279 30.8582 29.8268C30.8582 29.8257 30.8582 29.8246 30.8582 29.8235C30.8582 29.8224 30.8582 29.8213 30.8582 29.8202C30.8582 29.819 30.8582 29.8179 30.8582 29.8168C30.8582 29.8157 30.8582 29.8146 30.8582 29.8135C30.8582 29.8124 30.8582 29.8113 30.8582 29.8101C30.8582 29.809 30.8582 29.8079 30.8582 29.8068H29.2582C29.2582 29.8079 29.2582 29.809 29.2582 29.8101C29.2582 29.8113 29.2582 29.8124 29.2582 29.8135C29.2582 29.8146 29.2582 29.8157 29.2582 29.8168C29.2582 29.8179 29.2582 29.819 29.2582 29.8202C29.2582 29.8213 29.2582 29.8224 29.2582 29.8235C29.2582 29.8246 29.2582 29.8257 29.2582 29.8268C29.2582 29.8279 29.2582 29.8291 29.2582 29.8302C29.2582 29.8313 29.2582 29.8324 29.2582 29.8335C29.2582 29.8346 29.2582 29.8357 29.2582 29.8369C29.2582 29.838 29.2582 29.8391 29.2582 29.8402C29.2582 29.8413 29.2582 29.8424 29.2582 29.8435C29.2582 29.8446 29.2582 29.8458 29.2582 29.8469C29.2582 29.848 29.2582 29.8491 29.2582 29.8502C29.2582 29.8513 29.2582 29.8524 29.2582 29.8535C29.2582 29.8547 29.2582 29.8558 29.2582 29.8569C29.2582 29.858 29.2582 29.8591 29.2582 29.8602C29.2582 29.8613 29.2582 29.8625 29.2582 29.8636C29.2582 29.8647 29.2582 29.8658 29.2582 29.8669C29.2582 29.868 29.2582 29.8691 29.2582 29.8702C29.2582 29.8714 29.2582 29.8725 29.2582 29.8736C29.2582 29.8747 29.2582 29.8758 29.2582 29.8769C29.2582 29.878 29.2582 29.8792 29.2582 29.8803C29.2582 29.8814 29.2582 29.8825 29.2582 29.8836C29.2582 29.8847 29.2582 29.8858 29.2582 29.8869C29.2582 29.8881 29.2582 29.8892 29.2582 29.8903C29.2582 29.8914 29.2582 29.8925 29.2582 29.8936C29.2582 29.8947 29.2582 29.8958 29.2582 29.897C29.2582 29.8981 29.2582 29.8992 29.2582 29.9003C29.2582 29.9014 29.2582 29.9025 29.2582 29.9036C29.2582 29.9048 29.2582 29.9059 29.2582 29.907C29.2582 29.9081 29.2582 29.9092 29.2582 29.9103C29.2582 29.9114 29.2582 29.9125 29.2582 29.9137C29.2582 29.9148 29.2582 29.9159 29.2582 29.917C29.2582 29.9181 29.2582 29.9192 29.2582 29.9203C29.2582 29.9215 29.2582 29.9226 29.2582 29.9237C29.2582 29.9248 29.2582 29.9259 29.2582 29.927C29.2582 29.9281 29.2582 29.9292 29.2582 29.9304C29.2582 29.9315 29.2582 29.9326 29.2582 29.9337C29.2582 29.9348 29.2582 29.9359 29.2582 29.937C29.2582 29.9381 29.2582 29.9393 29.2582 29.9404C29.2582 29.9415 29.2582 29.9426 29.2582 29.9437C29.2582 29.9448 29.2582 29.9459 29.2582 29.9471C29.2582 29.9482 29.2582 29.9493 29.2582 29.9504C29.2582 29.9515 29.2582 29.9526 29.2582 29.9537C29.2582 29.9548 29.2582 29.956 29.2582 29.9571C29.2582 29.9582 29.2582 29.9593 29.2582 29.9604C29.2582 29.9615 29.2582 29.9626 29.2582 29.9637C29.2582 29.9649 29.2582 29.966 29.2582 29.9671C29.2582 29.9682 29.2582 29.9693 29.2582 29.9704C29.2582 29.9715 29.2582 29.9727 29.2582 29.9738C29.2582 29.9749 29.2582 29.976 29.2582 29.9771C29.2582 29.9782 29.2582 29.9793 29.2582 29.9804C29.2582 29.9816 29.2582 29.9827 29.2582 29.9838C29.2582 29.9849 29.2582 29.986 29.2582 29.9871C29.2582 29.9882 29.2582 29.9894 29.2582 29.9905C29.2582 29.9916 29.2582 29.9927 29.2582 29.9938C29.2582 29.9949 29.2582 29.996 29.2582 29.9971C29.2582 29.9983 29.2582 29.9994 29.2582 30.0005C29.2582 30.0016 29.2582 30.0027 29.2582 30.0038C29.2582 30.0049 29.2582 30.006 29.2582 30.0072C29.2582 30.0083 29.2582 30.0094 29.2582 30.0105C29.2582 30.0116 29.2582 30.0127 29.2582 30.0138C29.2582 30.015 29.2582 30.0161 29.2582 30.0172C29.2582 30.0183 29.2582 30.0194 29.2582 30.0205C29.2582 30.0216 29.2582 30.0227 29.2582 30.0239C29.2582 30.025 29.2582 30.0261 29.2582 30.0272C29.2582 30.0283 29.2582 30.0294 29.2582 30.0305C29.2582 30.0317 29.2582 30.0328 29.2582 30.0339C29.2582 30.035 29.2582 30.0361 29.2582 30.0372C29.2582 30.0383 29.2582 30.0394 29.2582 30.0406C29.2582 30.0417 29.2582 30.0428 29.2582 30.0439C29.2582 30.045 29.2582 30.0461 29.2582 30.0472C29.2582 30.0483 29.2582 30.0495 29.2582 30.0506C29.2582 30.0517 29.2582 30.0528 29.2582 30.0539C29.2582 30.055 29.2582 30.0561 29.2582 30.0573C29.2582 30.0584 29.2582 30.0595 29.2582 30.0606C29.2582 30.0617 29.2582 30.0628 29.2582 30.0639C29.2582 30.065 29.2582 30.0662 29.2582 30.0673C29.2582 30.0684 29.2582 30.0695 29.2582 30.0706C29.2582 30.0717 29.2582 30.0728 29.2582 30.0739C29.2582 30.0751 29.2582 30.0762 29.2582 30.0773C29.2582 30.0784 29.2582 30.0795 29.2582 30.0806C29.2582 30.0817 29.2582 30.0829 29.2582 30.084C29.2582 30.0851 29.2582 30.0862 29.2582 30.0873C29.2582 30.0884 29.2582 30.0895 29.2582 30.0906C29.2582 30.0918 29.2582 30.0929 29.2582 30.094C29.2582 30.0951 29.2582 30.0962 29.2582 30.0973C29.2582 30.0984 29.2582 30.0996 29.2582 30.1007C29.2582 30.1018 29.2582 30.1029 29.2582 30.104C29.2582 30.1051 29.2582 30.1062 29.2582 30.1073C29.2582 30.1085 29.2582 30.1096 29.2582 30.1107C29.2582 30.1118 29.2582 30.1129 29.2582 30.114C29.2582 30.1151 29.2582 30.1162 29.2582 30.1174C29.2582 30.1185 29.2582 30.1196 29.2582 30.1207C29.2582 30.1218 29.2582 30.1229 29.2582 30.124C29.2582 30.1252 29.2582 30.1263 29.2582 30.1274C29.2582 30.1285 29.2582 30.1296 29.2582 30.1307C29.2582 30.1318 29.2582 30.1329 29.2582 30.1341C29.2582 30.1352 29.2582 30.1363 29.2582 30.1374C29.2582 30.1385 29.2582 30.1396 29.2582 30.1407C29.2582 30.1419 29.2582 30.143 29.2582 30.1441C29.2582 30.1452 29.2582 30.1463 29.2582 30.1474C29.2582 30.1485 29.2582 30.1496 29.2582 30.1508C29.2582 30.1519 29.2582 30.153 29.2582 30.1541C29.2582 30.1552 29.2582 30.1563 29.2582 30.1574C29.2582 30.1585 29.2582 30.1597 29.2582 30.1608C29.2582 30.1619 29.2582 30.163 29.2582 30.1641C29.2582 30.1652 29.2582 30.1663 29.2582 30.1675C29.2582 30.1686 29.2582 30.1697 29.2582 30.1708C29.2582 30.1719 29.2582 30.173 29.2582 30.1741C29.2582 30.1752 29.2582 30.1764 29.2582 30.1775C29.2582 30.1786 29.2582 30.1797 29.2582 30.1808C29.2582 30.1819 29.2582 30.183 29.2582 30.1841C29.2582 30.1853 29.2582 30.1864 29.2582 30.1875C29.2582 30.1886 29.2582 30.1897 29.2582 30.1908C29.2582 30.1919 29.2582 30.1931 29.2582 30.1942C29.2582 30.1953 29.2582 30.1964 29.2582 30.1975C29.2582 30.1986 29.2582 30.1997 29.2582 30.2008C29.2582 30.202 29.2582 30.2031 29.2582 30.2042C29.2582 30.2053 29.2582 30.2064 29.2582 30.2075C29.2582 30.2086 29.2582 30.2098 29.2582 30.2109C29.2582 30.212 29.2582 30.2131 29.2582 30.2142C29.2582 30.2153 29.2582 30.2164 29.2582 30.2175C29.2582 30.2187 29.2582 30.2198 29.2582 30.2209C29.2582 30.222 29.2582 30.2231 29.2582 30.2242C29.2582 30.2253 29.2582 30.2264 29.2582 30.2276C29.2582 30.2287 29.2582 30.2298 29.2582 30.2309C29.2582 30.232 29.2582 30.2331 29.2582 30.2342C29.2582 30.2354 29.2582 30.2365 29.2582 30.2376C29.2582 30.2387 29.2582 30.2398 29.2582 30.2409C29.2582 30.242 29.2582 30.2431 29.2582 30.2443C29.2582 30.2454 29.2582 30.2465 29.2582 30.2476C29.2582 30.2487 29.2582 30.2498 29.2582 30.2509C29.2582 30.2521 29.2582 30.2532 29.2582 30.2543C29.2582 30.2554 29.2582 30.2565 29.2582 30.2576C29.2582 30.2587 29.2582 30.2598 29.2582 30.261C29.2582 30.2621 29.2582 30.2632 29.2582 30.2643C29.2582 30.2654 29.2582 30.2665 29.2582 30.2676C29.2582 30.2687 29.2582 30.2699 29.2582 30.271C29.2582 30.2721 29.2582 30.2732 29.2582 30.2743C29.2582 30.2754 29.2582 30.2765 29.2582 30.2777C29.2582 30.2788 29.2582 30.2799 29.2582 30.281C29.2582 30.2821 29.2582 30.2832 29.2582 30.2843C29.2582 30.2854 29.2582 30.2866 29.2582 30.2877C29.2582 30.2888 29.2582 30.2899 29.2582 30.291C29.2582 30.2921 29.2582 30.2932 29.2582 30.2943C29.2582 30.2955 29.2582 30.2966 29.2582 30.2977C29.2582 30.2988 29.2582 30.2999 29.2582 30.301C29.2582 30.3021 29.2582 30.3033 29.2582 30.3044C29.2582 30.3055 29.2582 30.3066 29.2582 30.3077C29.2582 30.3088 29.2582 30.3099 29.2582 30.311C29.2582 30.3122 29.2582 30.3133 29.2582 30.3144C29.2582 30.3155 29.2582 30.3166 29.2582 30.3177C29.2582 30.3188 29.2582 30.32 29.2582 30.3211C29.2582 30.3222 29.2582 30.3233 29.2582 30.3244C29.2582 30.3255 29.2582 30.3266 29.2582 30.3277C29.2582 30.3289 29.2582 30.33 29.2582 30.3311C29.2582 30.3322 29.2582 30.3333 29.2582 30.3344C29.2582 30.3355 29.2582 30.3366 29.2582 30.3378C29.2582 30.3389 29.2582 30.34 29.2582 30.3411C29.2582 30.3422 29.2582 30.3433 29.2582 30.3444C29.2582 30.3456 29.2582 30.3467 29.2582 30.3478C29.2582 30.3489 29.2582 30.35 29.2582 30.3511C29.2582 30.3522 29.2582 30.3533 29.2582 30.3545C29.2582 30.3556 29.2582 30.3567 29.2582 30.3578C29.2582 30.3589 29.2582 30.36 29.2582 30.3611C29.2582 30.3623 29.2582 30.3634 29.2582 30.3645C29.2582 30.3656 29.2582 30.3667 29.2582 30.3678C29.2582 30.3689 29.2582 30.37 29.2582 30.3712C29.2582 30.3723 29.2582 30.3734 29.2582 30.3745C29.2582 30.3756 29.2582 30.3767 29.2582 30.3778C29.2582 30.3789 29.2582 30.3801 29.2582 30.3812C29.2582 30.3823 29.2582 30.3834 29.2582 30.3845C29.2582 30.3856 29.2582 30.3867 29.2582 30.3879C29.2582 30.389 29.2582 30.3901 29.2582 30.3912C29.2582 30.3923 29.2582 30.3934 29.2582 30.3945C29.2582 30.3956 29.2582 30.3968 29.2582 30.3979C29.2582 30.399 29.2582 30.4001 29.2582 30.4012C29.2582 30.4023 29.2582 30.4034 29.2582 30.4046C29.2582 30.4057 29.2582 30.4068 29.2582 30.4079C29.2582 30.409 29.2582 30.4101 29.2582 30.4112C29.2582 30.4123 29.2582 30.4135 29.2582 30.4146C29.2582 30.4157 29.2582 30.4168 29.2582 30.4179C29.2582 30.419 29.2582 30.4201 29.2582 30.4212C29.2582 30.4224 29.2582 30.4235 29.2582 30.4246C29.2582 30.4257 29.2582 30.4268 29.2582 30.4279C29.2582 30.429 29.2582 30.4302 29.2582 30.4313C29.2582 30.4324 29.2582 30.4335 29.2582 30.4346C29.2582 30.4357 29.2582 30.4368 29.2582 30.4379C29.2582 30.4391 29.2582 30.4402 29.2582 30.4413C29.2582 30.4424 29.2582 30.4435 29.2582 30.4446C29.2582 30.4457 29.2582 30.4468 29.2582 30.448C29.2582 30.4491 29.2582 30.4502 29.2582 30.4513C29.2582 30.4524 29.2582 30.4535 29.2582 30.4546C29.2582 30.4558 29.2582 30.4569 29.2582 30.458C29.2582 30.4591 29.2582 30.4602 29.2582 30.4613C29.2582 30.4624 29.2582 30.4635 29.2582 30.4647C29.2582 30.4658 29.2582 30.4669 29.2582 30.468C29.2582 30.4691 29.2582 30.4702 29.2582 30.4713C29.2582 30.4725 29.2582 30.4736 29.2582 30.4747C29.2582 30.4758 29.2582 30.4769 29.2582 30.478C29.2582 30.4791 29.2582 30.4802 29.2582 30.4814C29.2582 30.4825 29.2582 30.4836 29.2582 30.4847C29.2582 30.4858 29.2582 30.4869 29.2582 30.488C29.2582 30.4891 29.2582 30.4903 29.2582 30.4914C29.2582 30.4925 29.2582 30.4936 29.2582 30.4947C29.2582 30.4958 29.2582 30.4969 29.2582 30.4981C29.2582 30.4992 29.2582 30.5003 29.2582 30.5014C29.2582 30.5025 29.2582 30.5036 29.2582 30.5047C29.2582 30.5058 29.2582 30.507 29.2582 30.5081C29.2582 30.5092 29.2582 30.5103 29.2582 30.5114C29.2582 30.5125 29.2582 30.5136 29.2582 30.5148C29.2582 30.5159 29.2582 30.517 29.2582 30.5181C29.2582 30.5192 29.2582 30.5203 29.2582 30.5214C29.2582 30.5225 29.2582 30.5237 29.2582 30.5248C29.2582 30.5259 29.2582 30.527 29.2582 30.5281C29.2582 30.5292 29.2582 30.5303 29.2582 30.5314C29.2582 30.5326 29.2582 30.5337 29.2582 30.5348C29.2582 30.5359 29.2582 30.537 29.2582 30.5381C29.2582 30.5392 29.2582 30.5404 29.2582 30.5415C29.2582 30.5426 29.2582 30.5437 29.2582 30.5448C29.2582 30.5459 29.2582 30.547 29.2582 30.5481C29.2582 30.5493 29.2582 30.5504 29.2582 30.5515C29.2582 30.5526 29.2582 30.5537 29.2582 30.5548C29.2582 30.5559 29.2582 30.557 29.2582 30.5582C29.2582 30.5593 29.2582 30.5604 29.2582 30.5615C29.2582 30.5626 29.2582 30.5637 29.2582 30.5648C29.2582 30.566 29.2582 30.5671 29.2582 30.5682C29.2582 30.5693 29.2582 30.5704 29.2582 30.5715C29.2582 30.5726 29.2582 30.5737 29.2582 30.5749C29.2582 30.576 29.2582 30.5771 29.2582 30.5782C29.2582 30.5793 29.2582 30.5804 29.2582 30.5815C29.2582 30.5827 29.2582 30.5838 29.2582 30.5849C29.2582 30.586 29.2582 30.5871 29.2582 30.5882C29.2582 30.5893 29.2582 30.5904 29.2582 30.5916C29.2582 30.5927 29.2582 30.5938 29.2582 30.5949C29.2582 30.596 29.2582 30.5971 29.2582 30.5982C29.2582 30.5993 29.2582 30.6005 29.2582 30.6016C29.2582 30.6027 29.2582 30.6038 29.2582 30.6049C29.2582 30.606 29.2582 30.6071 29.2582 30.6083C29.2582 30.6094 29.2582 30.6105 29.2582 30.6116C29.2582 30.6127 29.2582 30.6138 29.2582 30.6149C29.2582 30.616 29.2582 30.6172 29.2582 30.6183C29.2582 30.6194 29.2582 30.6205 29.2582 30.6216C29.2582 30.6227 29.2582 30.6238 29.2582 30.625C29.2582 30.6261 29.2582 30.6272 29.2582 30.6283C29.2582 30.6294 29.2582 30.6305 29.2582 30.6316C29.2582 30.6327 29.2582 30.6339 29.2582 30.635C29.2582 30.6361 29.2582 30.6372 29.2582 30.6383C29.2582 30.6394 29.2582 30.6405 29.2582 30.6416C29.2582 30.6428 29.2582 30.6439 29.2582 30.645C29.2582 30.6461 29.2582 30.6472 29.2582 30.6483C29.2582 30.6494 29.2582 30.6506 29.2582 30.6517C29.2582 30.6528 29.2582 30.6539 29.2582 30.655C29.2582 30.6561 29.2582 30.6572 29.2582 30.6583C29.2582 30.6595 29.2582 30.6606 29.2582 30.6617C29.2582 30.6628 29.2582 30.6639 29.2582 30.665C29.2582 30.6661 29.2582 30.6672 29.2582 30.6684C29.2582 30.6695 29.2582 30.6706 29.2582 30.6717C29.2582 30.6728 29.2582 30.6739 29.2582 30.675C29.2582 30.6762 29.2582 30.6773 29.2582 30.6784C29.2582 30.6795 29.2582 30.6806 29.2582 30.6817C29.2582 30.6828 29.2582 30.6839 29.2582 30.6851C29.2582 30.6862 29.2582 30.6873 29.2582 30.6884C29.2582 30.6895 29.2582 30.6906 29.2582 30.6917C29.2582 30.6929 29.2582 30.694 29.2582 30.6951C29.2582 30.6962 29.2582 30.6973 29.2582 30.6984C29.2582 30.6995 29.2582 30.7006 29.2582 30.7018C29.2582 30.7029 29.2582 30.704 29.2582 30.7051C29.2582 30.7062 29.2582 30.7073 29.2582 30.7084C29.2582 30.7095 29.2582 30.7107 29.2582 30.7118C29.2582 30.7129 29.2582 30.714 29.2582 30.7151C29.2582 30.7162 29.2582 30.7173 29.2582 30.7185C29.2582 30.7196 29.2582 30.7207 29.2582 30.7218C29.2582 30.7229 29.2582 30.724 29.2582 30.7251C29.2582 30.7262 29.2582 30.7274 29.2582 30.7285C29.2582 30.7296 29.2582 30.7307 29.2582 30.7318C29.2582 30.7329 29.2582 30.734 29.2582 30.7352C29.2582 30.7363 29.2582 30.7374 29.2582 30.7385C29.2582 30.7396 29.2582 30.7407 29.2582 30.7418C29.2582 30.7429 29.2582 30.7441 29.2582 30.7452C29.2582 30.7463 29.2582 30.7474 29.2582 30.7485C29.2582 30.7496 29.2582 30.7507 29.2582 30.7518C29.2582 30.753 29.2582 30.7541 29.2582 30.7552C29.2582 30.7563 29.2582 30.7574 29.2582 30.7585C29.2582 30.7596 29.2582 30.7608 29.2582 30.7619C29.2582 30.763 29.2582 30.7641 29.2582 30.7652C29.2582 30.7663 29.2582 30.7674 29.2582 30.7685C29.2582 30.7697 29.2582 30.7708 29.2582 30.7719C29.2582 30.773 29.2582 30.7741 29.2582 30.7752C29.2582 30.7763 29.2582 30.7774 29.2582 30.7786C29.2582 30.7797 29.2582 30.7808 29.2582 30.7819C29.2582 30.783 29.2582 30.7841 29.2582 30.7852C29.2582 30.7864 29.2582 30.7875 29.2582 30.7886C29.2582 30.7897 29.2582 30.7908 29.2582 30.7919C29.2582 30.793 29.2582 30.7941 29.2582 30.7953C29.2582 30.7964 29.2582 30.7975 29.2582 30.7986C29.2582 30.7997 29.2582 30.8008 29.2582 30.8019C29.2582 30.8031 29.2582 30.8042 29.2582 30.8053C29.2582 30.8064 29.2582 30.8075 29.2582 30.8086C29.2582 30.8097 29.2582 30.8108 29.2582 30.812C29.2582 30.8131 29.2582 30.8142 29.2582 30.8153C29.2582 30.8164 29.2582 30.8175 29.2582 30.8186C29.2582 30.8197 29.2582 30.8209 29.2582 30.822C29.2582 30.8231 29.2582 30.8242 29.2582 30.8253C29.2582 30.8264 29.2582 30.8275 29.2582 30.8287C29.2582 30.8298 29.2582 30.8309 29.2582 30.832C29.2582 30.8331 29.2582 30.8342 29.2582 30.8353C29.2582 30.8364 29.2582 30.8376 29.2582 30.8387C29.2582 30.8398 29.2582 30.8409 29.2582 30.842C29.2582 30.8431 29.2582 30.8442 29.2582 30.8454C29.2582 30.8465 29.2582 30.8476 29.2582 30.8487C29.2582 30.8498 29.2582 30.8509 29.2582 30.852C29.2582 30.8531 29.2582 30.8543 29.2582 30.8554C29.2582 30.8565 29.2582 30.8576 29.2582 30.8587C29.2582 30.8598 29.2582 30.8609 29.2582 30.862C29.2582 30.8632 29.2582 30.8643 29.2582 30.8654C29.2582 30.8665 29.2582 30.8676 29.2582 30.8687C29.2582 30.8698 29.2582 30.871 29.2582 30.8721C29.2582 30.8732 29.2582 30.8743 29.2582 30.8754C29.2582 30.8765 29.2582 30.8776 29.2582 30.8787C29.2582 30.8799 29.2582 30.881 29.2582 30.8821C29.2582 30.8832 29.2582 30.8843 29.2582 30.8854C29.2582 30.8865 29.2582 30.8876 29.2582 30.8888C29.2582 30.8899 29.2582 30.891 29.2582 30.8921C29.2582 30.8932 29.2582 30.8943 29.2582 30.8954C29.2582 30.8966 29.2582 30.8977 29.2582 30.8988C29.2582 30.8999 29.2582 30.901 29.2582 30.9021C29.2582 30.9032 29.2582 30.9043 29.2582 30.9055C29.2582 30.9066 29.2582 30.9077 29.2582 30.9088C29.2582 30.9099 29.2582 30.911 29.2582 30.9121C29.2582 30.9133 29.2582 30.9144 29.2582 30.9155C29.2582 30.9166 29.2582 30.9177 29.2582 30.9188C29.2582 30.9199 29.2582 30.921 29.2582 30.9222C29.2582 30.9233 29.2582 30.9244 29.2582 30.9255C29.2582 30.9266 29.2582 30.9277 29.2582 30.9288C29.2582 30.9299 29.2582 30.9311 29.2582 30.9322C29.2582 30.9333 29.2582 30.9344 29.2582 30.9355C29.2582 30.9366 29.2582 30.9377 29.2582 30.9389C29.2582 30.94 29.2582 30.9411 29.2582 30.9422C29.2582 30.9433 29.2582 30.9444 29.2582 30.9455C29.2582 30.9466 29.2582 30.9478 29.2582 30.9489C29.2582 30.95 29.2582 30.9511 29.2582 30.9522C29.2582 30.9533 29.2582 30.9544 29.2582 30.9556C29.2582 30.9567 29.2582 30.9578 29.2582 30.9589C29.2582 30.96 29.2582 30.9611 29.2582 30.9622C29.2582 30.9633 29.2582 30.9645 29.2582 30.9656C29.2582 30.9667 29.2582 30.9678 29.2582 30.9689C29.2582 30.97 29.2582 30.9711 29.2582 30.9722C29.2582 30.9734 29.2582 30.9745 29.2582 30.9756C29.2582 30.9767 29.2582 30.9778 29.2582 30.9789C29.2582 30.98 29.2582 30.9812 29.2582 30.9823C29.2582 30.9834 29.2582 30.9845 29.2582 30.9856C29.2582 30.9867 29.2582 30.9878 29.2582 30.9889C29.2582 30.9901 29.2582 30.9912 29.2582 30.9923C29.2582 30.9934 29.2582 30.9945 29.2582 30.9956C29.2582 30.9967 29.2582 30.9978 29.2582 30.999C29.2582 31.0001 29.2582 31.0012 29.2582 31.0023C29.2582 31.0034 29.2582 31.0045 29.2582 31.0056C29.2582 31.0068 29.2582 31.0079 29.2582 31.009C29.2582 31.0101 29.2582 31.0112 29.2582 31.0123C29.2582 31.0134 29.2582 31.0145 29.2582 31.0157C29.2582 31.0168 29.2582 31.0179 29.2582 31.019C29.2582 31.0201 29.2582 31.0212 29.2582 31.0223C29.2582 31.0235 29.2582 31.0246 29.2582 31.0257C29.2582 31.0268 29.2582 31.0279 29.2582 31.029C29.2582 31.0301 29.2582 31.0312 29.2582 31.0324C29.2582 31.0335 29.2582 31.0346 29.2582 31.0357C29.2582 31.0368 29.2582 31.0379 29.2582 31.039C29.2582 31.0401 29.2582 31.0413 29.2582 31.0424C29.2582 31.0435 29.2582 31.0446 29.2582 31.0457C29.2582 31.0468 29.2582 31.0479 29.2582 31.0491C29.2582 31.0502 29.2582 31.0513 29.2582 31.0524C29.2582 31.0535 29.2582 31.0546 29.2582 31.0557C29.2582 31.0568 29.2582 31.058 29.2582 31.0591C29.2582 31.0602 29.2582 31.0613 29.2582 31.0624C29.2582 31.0635 29.2582 31.0646 29.2582 31.0658C29.2582 31.0669 29.2582 31.068 29.2582 31.0691C29.2582 31.0702 29.2582 31.0713 29.2582 31.0724C29.2582 31.0735 29.2582 31.0747 29.2582 31.0758C29.2582 31.0769 29.2582 31.078 29.2582 31.0791C29.2582 31.0802 29.2582 31.0813 29.2582 31.0824C29.2582 31.0836 29.2582 31.0847 29.2582 31.0858C29.2582 31.0869 29.2582 31.088 29.2582 31.0891C29.2582 31.0902 29.2582 31.0914 29.2582 31.0925C29.2582 31.0936 29.2582 31.0947 29.2582 31.0958C29.2582 31.0969 29.2582 31.098 29.2582 31.0991C29.2582 31.1003 29.2582 31.1014 29.2582 31.1025C29.2582 31.1036 29.2582 31.1047 29.2582 31.1058C29.2582 31.1069 29.2582 31.108 29.2582 31.1092C29.2582 31.1103 29.2582 31.1114 29.2582 31.1125C29.2582 31.1136 29.2582 31.1147 29.2582 31.1158C29.2582 31.117 29.2582 31.1181 29.2582 31.1192C29.2582 31.1203 29.2582 31.1214 29.2582 31.1225C29.2582 31.1236 29.2582 31.1247 29.2582 31.1259C29.2582 31.127 29.2582 31.1281 29.2582 31.1292C29.2582 31.1303 29.2582 31.1314 29.2582 31.1325C29.2582 31.1337 29.2582 31.1348 29.2582 31.1359C29.2582 31.137 29.2582 31.1381 29.2582 31.1392C29.2582 31.1403 29.2582 31.1414 29.2582 31.1426C29.2582 31.1437 29.2582 31.1448 29.2582 31.1459C29.2582 31.147 29.2582 31.1481 29.2582 31.1492C29.2582 31.1503 29.2582 31.1515 29.2582 31.1526C29.2582 31.1537 29.2582 31.1548 29.2582 31.1559C29.2582 31.157 29.2582 31.1581 29.2582 31.1593C29.2582 31.1604 29.2582 31.1615 29.2582 31.1626C29.2582 31.1637 29.2582 31.1648 29.2582 31.1659C29.2582 31.167 29.2582 31.1682 29.2582 31.1693C29.2582 31.1704 29.2582 31.1715 29.2582 31.1726C29.2582 31.1737 29.2582 31.1748 29.2582 31.176C29.2582 31.1771 29.2582 31.1782 29.2582 31.1793C29.2582 31.1804 29.2582 31.1815 29.2582 31.1826C29.2582 31.1837 29.2582 31.1849 29.2582 31.186C29.2582 31.1871 29.2582 31.1882 29.2582 31.1893C29.2582 31.1904 29.2582 31.1915 29.2582 31.1926C29.2582 31.1938 29.2582 31.1949 29.2582 31.196C29.2582 31.1971 29.2582 31.1982 29.2582 31.1993C29.2582 31.2004 29.2582 31.2016 29.2582 31.2027C29.2582 31.2038 29.2582 31.2049 29.2582 31.206C29.2582 31.2071 29.2582 31.2082 29.2582 31.2093C29.2582 31.2105 29.2582 31.2116 29.2582 31.2127C29.2582 31.2138 29.2582 31.2149 29.2582 31.216C29.2582 31.2171 29.2582 31.2183 29.2582 31.2194C29.2582 31.2205 29.2582 31.2216 29.2582 31.2227C29.2582 31.2238 29.2582 31.2249 29.2582 31.226C29.2582 31.2272 29.2582 31.2283 29.2582 31.2294C29.2582 31.2305 29.2582 31.2316 29.2582 31.2327C29.2582 31.2338 29.2582 31.2349 29.2582 31.2361C29.2582 31.2372 29.2582 31.2383 29.2582 31.2394C29.2582 31.2405 29.2582 31.2416 29.2582 31.2427C29.2582 31.2439 29.2582 31.245 29.2582 31.2461C29.2582 31.2472 29.2582 31.2483 29.2582 31.2494C29.2582 31.2505 29.2582 31.2516 29.2582 31.2528C29.2582 31.2539 29.2582 31.255 29.2582 31.2561C29.2582 31.2572 29.2582 31.2583 29.2582 31.2594C29.2582 31.2605 29.2582 31.2617 29.2582 31.2628C29.2582 31.2639 29.2582 31.265 29.2582 31.2661C29.2582 31.2672 29.2582 31.2683 29.2582 31.2695C29.2582 31.2706 29.2582 31.2717 29.2582 31.2728C29.2582 31.2739 29.2582 31.275 29.2582 31.2761C29.2582 31.2772 29.2582 31.2784 29.2582 31.2795C29.2582 31.2806 29.2582 31.2817 29.2582 31.2828C29.2582 31.2839 29.2582 31.285 29.2582 31.2862C29.2582 31.2873 29.2582 31.2884 29.2582 31.2895C29.2582 31.2906 29.2582 31.2917 29.2582 31.2928C29.2582 31.2939 29.2582 31.2951 29.2582 31.2962C29.2582 31.2973 29.2582 31.2984 29.2582 31.2995C29.2582 31.3006 29.2582 31.3017 29.2582 31.3028C29.2582 31.304 29.2582 31.3051 29.2582 31.3062C29.2582 31.3073 29.2582 31.3084 29.2582 31.3095C29.2582 31.3106 29.2582 31.3118 29.2582 31.3129C29.2582 31.314 29.2582 31.3151 29.2582 31.3162C29.2582 31.3173 29.2582 31.3184 29.2582 31.3195C29.2582 31.3207 29.2582 31.3218 29.2582 31.3229C29.2582 31.324 29.2582 31.3251 29.2582 31.3262C29.2582 31.3273 29.2582 31.3285 29.2582 31.3296C29.2582 31.3307 29.2582 31.3318 29.2582 31.3329C29.2582 31.334 29.2582 31.3351 29.2582 31.3362C29.2582 31.3374 29.2582 31.3385 29.2582 31.3396C29.2582 31.3407 29.2582 31.3418 29.2582 31.3429C29.2582 31.344 29.2582 31.3451 29.2582 31.3463C29.2582 31.3474 29.2582 31.3485 29.2582 31.3496C29.2582 31.3507 29.2582 31.3518 29.2582 31.3529C29.2582 31.3541 29.2582 31.3552 29.2582 31.3563C29.2582 31.3574 29.2582 31.3585 29.2582 31.3596C29.2582 31.3607 29.2582 31.3618 29.2582 31.363C29.2582 31.3641 29.2582 31.3652 29.2582 31.3663C29.2582 31.3674 29.2582 31.3685 29.2582 31.3696C29.2582 31.3707 29.2582 31.3719 29.2582 31.373C29.2582 31.3741 29.2582 31.3752 29.2582 31.3763C29.2582 31.3774 29.2582 31.3785 29.2582 31.3797C29.2582 31.3808 29.2582 31.3819 29.2582 31.383C29.2582 31.3841 29.2582 31.3852 29.2582 31.3863C29.2582 31.3874 29.2582 31.3886 29.2582 31.3897C29.2582 31.3908 29.2582 31.3919 29.2582 31.393C29.2582 31.3941 29.2582 31.3952 29.2582 31.3964C29.2582 31.3975 29.2582 31.3986 29.2582 31.3997C29.2582 31.4008 29.2582 31.4019 29.2582 31.403C29.2582 31.4041 29.2582 31.4053 29.2582 31.4064C29.2582 31.4075 29.2582 31.4086 29.2582 31.4097C29.2582 31.4108 29.2582 31.4119 29.2582 31.413C29.2582 31.4142 29.2582 31.4153 29.2582 31.4164C29.2582 31.4175 29.2582 31.4186 29.2582 31.4197C29.2582 31.4208 29.2582 31.422 29.2582 31.4231C29.2582 31.4242 29.2582 31.4253 29.2582 31.4264C29.2582 31.4275 29.2582 31.4286 29.2582 31.4297C29.2582 31.4309 29.2582 31.432 29.2582 31.4331C29.2582 31.4342 29.2582 31.4353 29.2582 31.4364C29.2582 31.4375 29.2582 31.4387 29.2582 31.4398C29.2582 31.4409 29.2582 31.442 29.2582 31.4431C29.2582 31.4442 29.2582 31.4453 29.2582 31.4464C29.2582 31.4476 29.2582 31.4487 29.2582 31.4498C29.2582 31.4509 29.2582 31.452 29.2582 31.4531C29.2582 31.4542 29.2582 31.4553 29.2582 31.4565C29.2582 31.4576 29.2582 31.4587 29.2582 31.4598C29.2582 31.4609 29.2582 31.462 29.2582 31.4631C29.2582 31.4643 29.2582 31.4654 29.2582 31.4665C29.2582 31.4676 29.2582 31.4687 29.2582 31.4698C29.2582 31.4709 29.2582 31.472 29.2582 31.4732C29.2582 31.4743 29.2582 31.4754 29.2582 31.4765C29.2582 31.4776 29.2582 31.4787 29.2582 31.4798C29.2582 31.4809 29.2582 31.4821 29.2582 31.4832C29.2582 31.4843 29.2582 31.4854 29.2582 31.4865C29.2582 31.4876 29.2582 31.4887 29.2582 31.4899C29.2582 31.491 29.2582 31.4921 29.2582 31.4932C29.2582 31.4943 29.2582 31.4954 29.2582 31.4965C29.2582 31.4976 29.2582 31.4988 29.2582 31.4999C29.2582 31.501 29.2582 31.5021 29.2582 31.5032C29.2582 31.5043 29.2582 31.5054 29.2582 31.5066C29.2582 31.5077 29.2582 31.5088 29.2582 31.5099C29.2582 31.511 29.2582 31.5121 29.2582 31.5132C29.2582 31.5143 29.2582 31.5155 29.2582 31.5166H30.8582Z" fill="#222222" fill-opacity="0.8" mask="url(#path-4-inside-1_1231_27701)"/>
<path d="M35.1793 35.3233L30.0547 31.5176" stroke="#222222" stroke-opacity="0.8" stroke-width="0.8" stroke-miterlimit="10"/>
<mask id="path-7-inside-2_1231_27701" fill="white">
<path d="M42.2539 40.5791L45.4996 42.9904V59.9996"/>
</mask>
<path d="M45.4996 42.9904H46.2996V42.5881L45.9767 42.3482L45.4996 42.9904ZM41.7768 41.2213L45.0226 43.6325L45.9767 42.3482L42.731 39.9369L41.7768 41.2213ZM44.6996 42.9904V59.9996H46.2996V42.9904H44.6996Z" fill="#222222" fill-opacity="0.8" mask="url(#path-7-inside-2_1231_27701)"/>
<path d="M14.8731 31.5176L9.76953 35.4034" stroke="#222222" stroke-opacity="0.8" stroke-width="0.8" stroke-miterlimit="10"/>
<mask id="path-10-inside-3_1231_27701" fill="white">
<path d="M0.5 59.9998V42.4619L2.78406 40.7236"/>
</mask>
<path d="M0.5 42.4619L0.0155122 41.8253L-0.3 42.0654V42.4619H0.5ZM1.3 59.9998V42.4619H-0.3V59.9998H1.3ZM0.984488 43.0985L3.26855 41.3602L2.29957 40.087L0.0155122 41.8253L0.984488 43.0985Z" fill="#222222" fill-opacity="0.8" mask="url(#path-10-inside-3_1231_27701)"/>
<path d="M19.168 35.0273V60.0003" stroke="#222222" stroke-opacity="0.8" stroke-width="0.8" stroke-miterlimit="10"/>
<path d="M27.0983 56.7024C27.0983 57.5668 26.3823 58.2801 25.4835 58.2801C24.5847 58.2801 23.8688 57.5668 23.8688 56.7024C23.8688 55.838 24.5847 55.1246 25.4835 55.1246C26.3823 55.1246 27.0983 55.838 27.0983 56.7024Z" stroke="#222222" stroke-opacity="0.8" stroke-width="0.8" stroke-miterlimit="10"/>
<path d="M27.0983 49.5158C27.0983 50.3803 26.3823 51.0936 25.4835 51.0936C24.5847 51.0936 23.8688 50.3803 23.8688 49.5158C23.8688 48.6514 24.5847 47.9381 25.4835 47.9381C26.3823 47.9381 27.0983 48.6514 27.0983 49.5158Z" stroke="#222222" stroke-opacity="0.8" stroke-width="0.8" stroke-miterlimit="10"/>
<path d="M27.0983 42.3313C27.0983 43.1957 26.3823 43.909 25.4835 43.909C24.5847 43.909 23.8688 43.1957 23.8688 42.3313C23.8688 41.4669 24.5847 40.7535 25.4835 40.7535C26.3823 40.7535 27.0983 41.4669 27.0983 42.3313Z" stroke="#222222" stroke-opacity="0.8" stroke-width="0.8" stroke-miterlimit="10"/>
<path d="M9.36913 37.6295L4.10271 41.7665L3.09995 40.4766L3.09989 40.4765L1.86721 38.8917L7.05229 34.766L9.36913 35.6097V37.6295Z" stroke="#222222" stroke-opacity="0.8" stroke-width="0.8" stroke-miterlimit="10"/>
<path d="M43.0582 38.8917L41.9379 40.3322L41.9379 40.3322L40.8222 41.7665L35.5563 37.6295V35.61L37.8731 34.766L43.0582 38.8917Z" stroke="#222222" stroke-opacity="0.8" stroke-width="0.8" stroke-miterlimit="10"/>
</svg>
