<svg width="200" height="200" viewBox="0 0 200 200" fill="none" xmlns="http://www.w3.org/2000/svg">
<path d="M96.2132 6.11405C97.9548 3.30219 102.045 3.30219 103.787 6.11405C105.371 8.67158 108.982 8.9558 110.947 6.67756C113.107 4.17276 117.147 4.81265 118.427 7.86233C119.592 10.6362 123.114 11.4818 125.411 9.53898C127.936 7.40291 131.826 8.66693 132.614 11.8793C133.33 14.8012 136.677 16.1875 139.249 14.6278C142.078 12.9131 145.722 14.7701 145.997 18.0662C146.248 21.0641 149.336 22.9569 152.121 21.8189C155.183 20.5677 158.492 22.972 158.248 26.2705C158.027 29.2706 160.781 31.6233 163.71 30.9349C166.929 30.1781 169.822 33.0705 169.065 36.2903C168.377 39.2188 170.729 41.9734 173.73 41.7517C177.028 41.5078 179.432 44.8171 178.181 47.8788C177.043 50.6636 178.936 53.7523 181.934 54.0026C185.23 54.2778 187.087 57.9224 185.372 60.7507C183.813 63.3232 185.199 66.67 188.121 67.3862C191.333 68.1736 192.597 72.0639 190.461 74.5891C188.518 76.8859 189.364 80.4084 192.138 81.5728C195.187 82.8531 195.827 86.8932 193.322 89.0532C191.044 91.0178 191.328 94.6292 193.886 96.2132C196.698 97.9548 196.698 102.045 193.886 103.787C191.328 105.371 191.044 108.982 193.322 110.947C195.827 113.107 195.187 117.147 192.138 118.427C189.364 119.592 188.518 123.114 190.461 125.411C192.597 127.936 191.333 131.826 188.121 132.614C185.199 133.33 183.813 136.677 185.372 139.249C187.087 142.078 185.23 145.722 181.934 145.997C178.936 146.248 177.043 149.336 178.181 152.121C179.432 155.183 177.028 158.492 173.73 158.248C170.729 158.027 168.377 160.781 169.065 163.71C169.822 166.929 166.929 169.822 163.71 169.065C160.781 168.377 158.027 170.729 158.248 173.73C158.492 177.028 155.183 179.432 152.121 178.181C149.336 177.043 146.248 178.936 145.997 181.934C145.722 185.23 142.078 187.087 139.249 185.372C136.677 183.813 133.33 185.199 132.614 188.121C131.826 191.333 127.936 192.597 125.411 190.461C123.114 188.518 119.592 189.364 118.427 192.138C117.147 195.187 113.107 195.827 110.947 193.322C108.982 191.044 105.371 191.328 103.787 193.886C102.045 196.698 97.9548 196.698 96.2132 193.886C94.6292 191.328 91.0178 191.044 89.0532 193.322C86.8932 195.827 82.8531 195.187 81.5728 192.138C80.4084 189.364 76.8859 188.518 74.5891 190.461C72.0639 192.597 68.1736 191.333 67.3862 188.121C66.67 185.199 63.3232 183.813 60.7507 185.372C57.9224 187.087 54.2778 185.23 54.0026 181.934C53.7523 178.936 50.6636 177.043 47.8788 178.181C44.8171 179.432 41.5078 177.028 41.7517 173.73C41.9734 170.729 39.2188 168.377 36.2903 169.065C33.0705 169.822 30.1781 166.929 30.9349 163.71C31.6233 160.781 29.2706 158.027 26.2705 158.248C22.972 158.492 20.5677 155.183 21.8189 152.121C22.9569 149.336 21.0641 146.248 18.0662 145.997C14.7701 145.722 12.9131 142.078 14.6278 139.249C16.1875 136.677 14.8012 133.33 11.8793 132.614C8.66693 131.826 7.40291 127.936 9.53898 125.411C11.4818 123.114 10.6362 119.592 7.86233 118.427C4.81265 117.147 4.17276 113.107 6.67756 110.947C8.9558 108.982 8.67158 105.371 6.11405 103.787C3.30219 102.045 3.30219 97.9548 6.11405 96.2132C8.67158 94.6292 8.9558 91.0178 6.67756 89.0532C4.17276 86.8932 4.81265 82.8531 7.86233 81.5728C10.6362 80.4084 11.4818 76.8859 9.53898 74.5891C7.40291 72.0639 8.66693 68.1736 11.8793 67.3862C14.8012 66.67 16.1875 63.3232 14.6278 60.7507C12.9131 57.9224 14.7701 54.2778 18.0662 54.0026C21.0641 53.7523 22.9569 50.6636 21.8189 47.8788C20.5677 44.8171 22.972 41.5078 26.2705 41.7517C29.2706 41.9734 31.6233 39.2188 30.9349 36.2903C30.1781 33.0705 33.0705 30.1781 36.2903 30.9349C39.2188 31.6233 41.9734 29.2706 41.7517 26.2705C41.5078 22.972 44.8171 20.5677 47.8788 21.8189C50.6636 22.9569 53.7523 21.0641 54.0026 18.0662C54.2778 14.7701 57.9224 12.9131 60.7507 14.6278C63.3232 16.1875 66.67 14.8012 67.3862 11.8793C68.1736 8.66693 72.0639 7.40291 74.5891 9.53898C76.8859 11.4818 80.4084 10.6362 81.5728 7.86233C82.8531 4.81265 86.8932 4.17276 89.0532 6.67756C91.0178 8.9558 94.6292 8.67158 96.2132 6.11405Z" fill="#FC6600"/>
<path d="M70.1318 64.3623L45.0897 71.0512L48.62 84.2678C49.3442 82.6391 50.601 81.1441 52.3903 79.783C54.1659 78.3702 56.1873 77.3611 58.4545 76.7555C62.5766 75.6545 66.1925 75.6547 69.3021 76.7562C72.4116 77.8578 74.9375 79.6672 76.8796 82.1847C78.8079 84.6506 80.1987 87.4808 81.052 90.6755C82.6348 96.6011 82.2075 101.822 79.7701 106.337C77.3843 110.838 73.074 113.922 66.8392 115.587C60.9652 117.156 55.884 116.94 51.5956 114.939C47.3073 112.938 44.2982 109.629 42.5682 105.012L53.0797 102.204C54.094 104.142 55.5649 105.515 57.4926 106.325C59.4718 107.122 61.7238 107.182 64.2486 106.508C67.2887 105.696 69.327 104.13 70.3636 101.811C71.4001 99.4915 71.4987 96.7603 70.6591 93.6171C69.8058 90.4225 68.3603 88.214 66.3225 86.9918C64.3225 85.7043 61.8025 85.4666 58.7624 86.2786C56.5983 86.8566 54.9393 87.8794 53.7856 89.3468C52.6319 90.8142 51.9867 92.5323 51.8501 94.5009L41.4932 97.2672L32.6573 64.187L67.5925 54.8556L70.1318 64.3623ZM86.831 79.2782C84.4499 70.364 84.1824 62.9555 86.0283 57.0525C87.9257 51.1358 92.6101 47.1796 100.081 45.184C107.553 43.1883 113.56 44.2887 118.104 48.485C122.699 52.6676 126.187 59.2159 128.568 68.1301C130.963 77.0958 131.218 84.5627 129.334 90.531C127.502 96.4854 122.851 100.461 115.379 102.456C107.908 104.452 101.868 103.333 97.2589 99.0985C92.7017 94.8506 89.2257 88.2439 86.831 79.2782ZM117.902 70.979C116.883 67.1661 115.772 64.0402 114.569 61.6015C113.403 59.0975 111.853 57.2206 109.918 55.9709C108.035 54.7074 105.651 54.461 102.765 55.2317C99.8798 56.0025 97.9101 57.4118 96.8562 59.4598C95.8539 61.494 95.4461 63.8939 95.6327 66.6594C95.8571 69.3596 96.4786 72.6162 97.497 76.4292C98.543 80.3453 99.6557 83.5811 100.835 86.1366C102.001 88.6406 103.551 90.5175 105.486 91.7672C107.407 92.9654 109.81 93.1791 112.695 92.4084C115.581 91.6377 117.557 90.2541 118.625 88.2576C119.679 86.2096 120.087 83.8098 119.849 81.058C119.597 78.2547 118.948 74.8951 117.902 70.979Z" fill="white"/>
<path d="M135.41 72.3678C135.159 71.4274 135.233 70.6209 135.633 69.9482C136.043 69.2593 136.679 68.7995 137.542 68.569C138.405 68.3384 139.179 68.4214 139.865 68.818C140.56 69.1982 141.033 69.8584 141.284 70.7988C141.535 71.7392 141.456 72.5538 141.047 73.2428C140.65 73.9284 140.02 74.3864 139.157 74.6169C138.294 74.8475 137.514 74.7662 136.815 74.3731C136.13 73.9766 135.661 73.3082 135.41 72.3678ZM146.459 66.4564L142.341 81.9642L140.177 82.5422L144.295 67.0344L146.459 66.4564ZM137.898 69.9022C137.087 70.119 136.83 70.7877 137.13 71.9084C137.433 73.042 137.99 73.5005 138.801 73.2837C139.188 73.1805 139.448 72.9661 139.582 72.6405C139.725 72.2986 139.719 71.8378 139.564 71.2581C139.265 70.1374 138.71 69.6855 137.898 69.9022ZM145.385 78.1701C145.134 77.2298 145.209 76.4233 145.608 75.7506C146.018 75.0616 146.654 74.6019 147.517 74.3713C148.367 74.1442 149.135 74.2289 149.821 74.6255C150.516 75.0057 150.989 75.6659 151.24 76.6063C151.491 77.5467 151.412 78.3614 151.003 79.0503C150.606 79.7359 149.983 80.1922 149.133 80.4193C148.27 80.6498 147.489 80.5686 146.79 80.1755C146.105 79.779 145.636 79.1105 145.385 78.1701ZM147.854 75.7097C147.042 75.9265 146.786 76.5952 147.086 77.716C147.385 78.8367 147.94 79.2886 148.752 79.0719C149.564 78.8551 149.82 78.1864 149.52 77.0657C149.221 75.9449 148.666 75.493 147.854 75.7097Z" fill="white"/>
<path d="M147.371 94.1932C146.372 94.4602 145.387 94.4747 144.419 94.2367C143.457 93.9856 142.618 93.5087 141.9 92.8061C141.19 92.0905 140.695 91.207 140.414 90.1559C140.133 89.1047 140.123 88.0971 140.385 87.133C140.656 86.1662 141.148 85.3394 141.859 84.6527C142.577 83.9529 143.436 83.4695 144.436 83.2025C145.446 82.9328 146.431 82.9234 147.393 83.1745C148.362 83.4125 149.2 83.8842 149.907 84.5896C150.614 85.295 151.108 86.1732 151.389 87.2244C151.67 88.2755 151.681 89.2883 151.422 90.2627C151.161 91.2268 150.671 92.0588 149.953 92.7585C149.242 93.4452 148.381 93.9234 147.371 94.1932ZM146.963 92.6629C147.674 92.4729 148.265 92.1439 148.736 91.6758C149.204 91.1974 149.513 90.618 149.663 89.9377C149.82 89.2444 149.792 88.501 149.58 87.7074C149.369 86.9139 149.023 86.261 148.544 85.7486C148.075 85.2335 147.52 84.8905 146.878 84.7197C146.236 84.5488 145.56 84.5584 144.849 84.7483C144.138 84.9383 143.546 85.2673 143.075 85.7354C142.604 86.2035 142.289 86.7791 142.129 87.4621C141.979 88.1424 142.01 88.8793 142.222 89.6728C142.434 90.4663 142.776 91.1258 143.248 91.6512C143.727 92.1636 144.289 92.5104 144.933 92.6915C145.575 92.8623 146.252 92.8528 146.963 92.6629ZM158.017 79.724L158.401 81.1616L153.841 82.3796L154.687 85.5485L158.243 84.5988L158.627 86.0364L155.071 86.9861L156.326 91.6854L154.564 92.156L151.695 81.4127L158.017 79.724ZM165.972 77.599L166.356 79.0366L161.796 80.2546L162.643 83.4236L166.198 82.4739L166.582 83.9115L163.027 84.8612L164.282 89.5604L162.52 90.0311L159.65 79.2877L165.972 77.599Z" fill="white"/>
<path d="M67.0433 130.682L68.0693 131.732L66.1621 133.087L68.4904 133.309L68.1179 134.767L65.9841 133.846L66.9074 136.001L65.4853 136.381L65.1803 134.061L63.7979 135.954L62.705 134.838L64.5967 133.488L62.2921 133.292L62.6646 131.835L64.8448 132.743L63.9328 130.569L65.3704 130.185L65.6331 132.532L67.0433 130.682ZM81.0581 126.673L79.8932 138.494L77.8527 139.039L70.9331 129.378L72.819 128.874L78.3899 136.958L79.2032 127.169L81.0581 126.673ZM85.5984 132.366C85.37 131.511 85.3429 130.707 85.5171 129.954C85.7016 129.198 86.0497 128.558 86.5614 128.035C87.0806 127.499 87.7112 127.132 88.4532 126.934C89.123 126.755 89.7411 126.733 90.3073 126.869C90.8811 126.992 91.3697 127.209 91.7732 127.521L91.4428 126.284L93.2205 125.809L95.4956 134.327L93.7179 134.802L93.3793 133.534C93.1878 134.016 92.8702 134.459 92.4265 134.865C91.9828 135.271 91.4312 135.561 90.7716 135.738C90.04 135.933 89.3206 135.926 88.6134 135.718C87.9036 135.499 87.2788 135.103 86.7392 134.529C86.2072 133.943 85.8269 133.222 85.5984 132.366ZM92.5783 130.535C92.4214 129.948 92.1615 129.471 91.7985 129.104C91.4459 128.734 91.0435 128.489 90.5913 128.366C90.1392 128.244 89.6864 128.244 89.2329 128.365C88.7795 128.486 88.3873 128.712 88.0562 129.044C87.7224 129.365 87.4897 129.775 87.3579 130.273C87.2338 130.759 87.2501 131.296 87.407 131.883C87.5639 132.471 87.8201 132.954 88.1755 133.334C88.5412 133.711 88.9515 133.966 89.4064 134.098C89.8688 134.218 90.3216 134.218 90.7648 134.1C91.2182 133.979 91.6105 133.753 91.9415 133.421C92.2726 133.09 92.4988 132.676 92.6202 132.18C92.7492 131.671 92.7352 131.123 92.5783 130.535ZM98.4492 121.283L101.505 132.722L99.7424 133.192L96.687 121.753L98.4492 121.283ZM104.071 121.702C103.751 121.788 103.454 121.751 103.18 121.592C102.906 121.434 102.726 121.195 102.641 120.875C102.555 120.556 102.592 120.259 102.751 119.985C102.909 119.711 103.148 119.531 103.468 119.445C103.777 119.363 104.069 119.401 104.343 119.559C104.617 119.718 104.797 119.957 104.882 120.277C104.968 120.596 104.931 120.893 104.772 121.167C104.614 121.441 104.38 121.62 104.071 121.702ZM105.238 122.6L107.513 131.117L105.751 131.588L103.476 123.07L105.238 122.6ZM110.023 125.842C109.795 124.987 109.768 124.183 109.942 123.43C110.127 122.674 110.475 122.034 110.986 121.511C111.506 120.975 112.141 120.607 112.894 120.406C113.45 120.257 114.029 120.235 114.631 120.339C115.241 120.43 115.759 120.634 116.186 120.95L115.087 116.839L116.865 116.364L119.921 127.803L118.143 128.278L117.8 126.995C117.622 127.484 117.311 127.931 116.867 128.337C116.434 128.74 115.887 129.029 115.228 129.205C114.486 129.404 113.756 129.4 113.038 129.194C112.329 128.975 111.704 128.579 111.164 128.005C110.632 127.419 110.252 126.698 110.023 125.842ZM117.003 124.011C116.846 123.424 116.586 122.947 116.224 122.58C115.871 122.21 115.468 121.965 115.016 121.842C114.564 121.72 114.111 121.72 113.658 121.841C113.204 121.962 112.812 122.188 112.481 122.52C112.147 122.841 111.915 123.251 111.783 123.749C111.659 124.235 111.675 124.772 111.832 125.359C111.989 125.947 112.245 126.43 112.6 126.81C112.966 127.187 113.376 127.442 113.831 127.574C114.294 127.694 114.747 127.694 115.19 127.576C115.643 127.455 116.035 127.229 116.366 126.897C116.698 126.566 116.924 126.152 117.045 125.656C117.174 125.147 117.16 124.599 117.003 124.011ZM130.28 117.451L131.539 122.166C131.625 122.485 131.759 122.698 131.942 122.803C132.132 122.896 132.407 122.894 132.768 122.798L133.85 122.509L134.242 123.977L132.851 124.349C132.058 124.561 131.4 124.538 130.879 124.28C130.357 124.022 129.985 123.475 129.762 122.64L128.502 117.926L127.498 118.194L127.114 116.756L128.118 116.488L127.553 114.37L129.33 113.895L129.896 116.013L131.967 115.46L132.351 116.898L130.28 117.451ZM136.119 113.142C135.8 113.227 135.503 113.191 135.228 113.032C134.954 112.874 134.774 112.635 134.689 112.315C134.604 111.996 134.64 111.699 134.799 111.425C134.958 111.15 135.197 110.971 135.516 110.885C135.825 110.803 136.117 110.841 136.391 110.999C136.665 111.158 136.845 111.397 136.931 111.716C137.016 112.036 136.979 112.333 136.821 112.607C136.662 112.881 136.428 113.059 136.119 113.142ZM137.286 114.039L139.561 122.557L137.799 123.027L135.524 114.51L137.286 114.039ZM142.514 109.513L145.569 120.952L143.807 121.423L140.752 109.984L142.514 109.513ZM148.522 107.908L151.577 119.347L149.815 119.818L146.76 108.379L148.522 107.908ZM41.4825 159.535C41.2017 158.484 41.192 157.476 41.4534 156.512C41.7251 155.545 42.2164 154.719 42.9273 154.032C43.6457 153.332 44.5047 152.849 45.5043 152.582C46.6482 152.276 47.739 152.288 48.7767 152.619C49.8219 152.936 50.6831 153.556 51.3602 154.479L49.2425 155.044C48.8129 154.552 48.3135 154.233 47.7446 154.087C47.1756 153.94 46.5665 153.954 45.9172 154.128C45.2062 154.317 44.6151 154.646 44.1439 155.115C43.6727 155.583 43.3572 156.158 43.1974 156.841C43.0479 157.522 43.0791 158.259 43.2911 159.052C43.503 159.846 43.8434 160.5 44.3122 161.015C44.7914 161.527 45.3532 161.874 45.9978 162.055C46.6396 162.226 47.316 162.217 48.0271 162.027C48.6764 161.853 49.2111 161.561 49.6315 161.151C50.0518 160.741 50.3254 160.215 50.4523 159.574L52.57 159.008C52.4434 160.146 52.0061 161.113 51.2582 161.909C50.5205 162.702 49.5798 163.251 48.4359 163.557C47.426 163.827 46.4417 163.841 45.4831 163.6C44.5217 163.349 43.6822 162.872 42.9646 162.17C42.2573 161.465 41.7633 160.586 41.4825 159.535ZM62.8376 150.486L65.1126 159.003L63.3504 159.474L63.082 158.469C62.8973 158.894 62.6058 159.27 62.2074 159.597C61.8166 159.911 61.3687 160.136 60.8637 160.271C60.1939 160.449 59.5539 160.471 58.9437 160.336C58.3438 160.198 57.8163 159.898 57.3612 159.434C56.9165 158.968 56.5909 158.348 56.3845 157.575L55.0467 152.567L56.7934 152.1L58.061 156.846C58.2647 157.608 58.6123 158.145 59.1037 158.455C59.5923 158.755 60.1664 158.817 60.826 158.641C61.4855 158.465 61.9523 158.125 62.2262 157.621C62.5077 157.104 62.5466 156.465 62.3429 155.702L61.0753 150.956L62.8376 150.486ZM69.1875 150.115C69.3295 149.613 69.5801 149.187 69.9393 148.837C70.3061 148.474 70.7832 148.214 71.3706 148.058L71.8578 149.882L71.4095 150.001C70.719 150.186 70.2403 150.501 69.9732 150.948C69.7164 151.392 69.7036 152.047 69.9348 152.912L71.1322 157.395L69.37 157.866L67.0949 149.349L68.8571 148.878L69.1875 150.115ZM77.0524 148.014C77.1944 147.512 77.445 147.086 77.8042 146.737C78.171 146.374 78.6481 146.114 79.2355 145.957L79.7227 147.781L79.2744 147.901C78.5839 148.085 78.1051 148.401 77.838 148.847C77.5813 149.291 77.5685 149.946 77.7997 150.812L78.9971 155.295L77.2349 155.765L74.9598 147.248L76.722 146.777L77.0524 148.014ZM91.7128 147.112C91.7982 147.431 91.8546 147.726 91.8822 147.994L85.3744 149.732C85.6076 150.399 86.0059 150.878 86.5695 151.169C87.133 151.46 87.7446 151.517 88.4041 151.341C89.3522 151.088 89.9161 150.512 90.0957 149.614L91.9971 149.106C91.9486 149.958 91.6518 150.728 91.1065 151.414C90.5688 152.088 89.8001 152.558 88.8005 152.825C87.9864 153.043 87.2065 153.058 86.4609 152.87C85.7229 152.67 85.0803 152.29 84.5331 151.729C83.9935 151.156 83.6067 150.431 83.3728 149.555C83.1388 148.679 83.1089 147.864 83.2831 147.111C83.4649 146.345 83.8271 145.696 84.3697 145.165C84.9226 144.631 85.6164 144.252 86.4511 144.029C87.2549 143.815 88.018 143.799 88.7402 143.981C89.4624 144.164 90.084 144.527 90.6051 145.073C91.1234 145.608 91.4926 146.288 91.7128 147.112ZM89.7247 147.047C89.5409 146.4 89.1701 145.942 88.612 145.671C88.054 145.401 87.4401 145.355 86.7702 145.534C86.1622 145.696 85.6941 146.031 85.3658 146.538C85.0349 147.035 84.9162 147.625 85.01 148.306L89.7247 147.047ZM98.5577 140.796C99.2275 140.617 99.8624 140.596 100.462 140.734C101.073 140.869 101.6 141.17 102.045 141.636C102.489 142.103 102.815 142.722 103.022 143.495L104.363 148.519L102.617 148.986L101.345 144.225C101.141 143.462 100.795 142.931 100.306 142.631C99.815 142.32 99.2395 142.253 98.58 142.429C97.9205 142.605 97.4499 142.952 97.1684 143.469C96.8945 143.972 96.8594 144.606 97.0631 145.368L98.3348 150.129L96.5725 150.6L94.2975 142.083L96.0597 141.612L96.3198 142.586C96.5148 142.158 96.8077 141.788 97.1985 141.473C97.5997 141.156 98.0527 140.931 98.5577 140.796ZM108.708 139.774L109.968 144.488C110.053 144.808 110.187 145.02 110.37 145.126C110.56 145.219 110.836 145.217 111.196 145.121L112.279 144.832L112.671 146.3L111.28 146.672C110.486 146.884 109.828 146.861 109.307 146.602C108.785 146.344 108.413 145.798 108.19 144.963L106.931 140.248L105.926 140.517L105.542 139.079L106.547 138.811L105.981 136.693L107.759 136.218L108.324 138.336L110.396 137.783L110.78 139.22L108.708 139.774ZM130.173 132.351C130.843 132.172 131.478 132.152 132.078 132.289C132.688 132.425 133.216 132.725 133.66 133.192C134.115 133.655 134.446 134.273 134.653 135.046L135.994 140.07L134.248 140.537L132.976 135.776C132.772 135.013 132.426 134.482 131.938 134.182C131.446 133.871 130.871 133.804 130.211 133.98C129.552 134.157 129.081 134.503 128.8 135.02C128.526 135.524 128.49 136.157 128.694 136.919L129.966 141.681L128.219 142.147L126.947 137.386C126.744 136.623 126.398 136.092 125.909 135.792C125.417 135.482 124.842 135.415 124.182 135.591C123.523 135.767 123.052 136.113 122.771 136.63C122.497 137.134 122.462 137.767 122.665 138.53L123.937 143.291L122.175 143.762L119.9 135.244L121.662 134.773L121.922 135.747C122.117 135.32 122.41 134.949 122.801 134.635C123.192 134.321 123.64 134.096 124.145 133.961C124.825 133.78 125.471 133.761 126.084 133.907C126.697 134.052 127.221 134.36 127.655 134.829C127.775 134.245 128.069 133.73 128.535 133.285C128.999 132.83 129.545 132.519 130.173 132.351ZM143.901 138.108C143.097 138.322 142.322 138.336 141.577 138.149C140.828 137.951 140.181 137.572 139.633 137.012C139.084 136.441 138.692 135.718 138.458 134.842C138.226 133.976 138.212 133.157 138.414 132.386C138.617 131.614 139 130.96 139.563 130.423C140.126 129.886 140.815 129.509 141.629 129.291C142.443 129.074 143.228 129.057 143.984 129.242C144.74 129.426 145.398 129.803 145.958 130.371C146.518 130.939 146.914 131.655 147.145 132.521C147.376 133.387 147.386 134.207 147.173 134.981C146.96 135.756 146.563 136.419 145.982 136.972C145.409 137.512 144.715 137.89 143.901 138.108ZM143.492 136.577C143.945 136.456 144.339 136.235 144.673 135.914C145.017 135.59 145.255 135.179 145.387 134.68C145.518 134.181 145.502 133.622 145.336 133.004C145.171 132.386 144.914 131.897 144.564 131.538C144.211 131.168 143.81 130.928 143.361 130.816C142.911 130.704 142.46 130.709 142.007 130.83C141.553 130.951 141.159 131.172 140.826 131.493C140.502 131.811 140.285 132.217 140.174 132.71C140.06 133.194 140.086 133.744 140.251 134.363C140.496 135.28 140.918 135.929 141.516 136.31C142.122 136.678 142.781 136.767 143.492 136.577ZM153.944 126.002C154.614 125.823 155.249 125.802 155.849 125.94C156.459 126.075 156.986 126.376 157.431 126.842C157.876 127.309 158.201 127.928 158.408 128.701L159.75 133.725L158.003 134.192L156.731 129.431C156.528 128.668 156.181 128.137 155.693 127.837C155.201 127.526 154.626 127.459 153.966 127.635C153.307 127.811 152.836 128.158 152.555 128.675C152.281 129.179 152.246 129.812 152.449 130.574L153.721 135.335L151.959 135.806L149.684 127.289L151.446 126.818L151.706 127.792C151.901 127.364 152.194 126.994 152.585 126.679C152.986 126.363 153.439 126.137 153.944 126.002ZM164.095 124.98L165.354 129.694C165.439 130.014 165.573 130.226 165.756 130.332C165.947 130.425 166.222 130.423 166.583 130.327L167.665 130.038L168.057 131.506L166.666 131.878C165.872 132.09 165.215 132.067 164.693 131.808C164.172 131.55 163.799 131.004 163.576 130.169L162.317 125.454L161.312 125.723L160.928 124.285L161.933 124.017L161.367 121.899L163.145 121.424L163.711 123.542L165.782 122.989L166.166 124.426L164.095 124.98ZM173.707 120.723C174.356 120.55 174.97 120.535 175.55 120.678C176.139 120.819 176.651 121.123 177.086 121.592C177.531 122.059 177.856 122.678 178.063 123.451L179.404 128.475L177.658 128.942L176.386 124.181C176.182 123.418 175.836 122.887 175.348 122.587C174.856 122.276 174.281 122.209 173.621 122.385C172.962 122.562 172.491 122.908 172.21 123.425C171.936 123.929 171.9 124.562 172.104 125.324L173.376 130.086L171.614 130.556L168.558 119.117L170.32 118.647L171.365 122.557C171.568 122.117 171.869 121.738 172.271 121.421C172.682 121.102 173.161 120.869 173.707 120.723ZM102.025 165.854C101.222 166.068 100.447 166.082 99.7012 165.895C98.9529 165.697 98.3051 165.318 97.758 164.758C97.2081 164.187 96.8161 163.464 96.5822 162.588C96.3509 161.722 96.3365 160.903 96.5389 160.132C96.7413 159.36 97.1241 158.706 97.6873 158.169C98.2505 157.632 98.9391 157.255 99.7533 157.037C100.567 156.82 101.352 156.803 102.108 156.988C102.864 157.172 103.522 157.549 104.082 158.117C104.643 158.685 105.038 159.401 105.27 160.267C105.501 161.133 105.51 161.953 105.297 162.727C105.085 163.502 104.688 164.165 104.107 164.718C103.533 165.258 102.839 165.636 102.025 165.854ZM101.617 164.323C102.07 164.202 102.464 163.981 102.797 163.66C103.142 163.336 103.379 162.925 103.511 162.426C103.643 161.927 103.626 161.369 103.461 160.75C103.296 160.132 103.038 159.643 102.688 159.284C102.336 158.914 101.935 158.674 101.485 158.562C101.036 158.45 100.585 158.455 100.131 158.576C99.6777 158.697 99.2841 158.918 98.9503 159.239C98.6268 159.557 98.4095 159.963 98.2984 160.457C98.1845 160.94 98.2101 161.49 98.3753 162.109C98.6203 163.026 99.0421 163.675 99.6407 164.056C100.247 164.424 100.905 164.513 101.617 164.323ZM112.069 153.748C112.738 153.569 113.373 153.548 113.973 153.686C114.583 153.821 115.111 154.122 115.556 154.588C116 155.055 116.326 155.674 116.532 156.447L117.874 161.471L116.128 161.938L114.856 157.177C114.652 156.414 114.306 155.883 113.817 155.583C113.326 155.272 112.75 155.205 112.091 155.381C111.431 155.558 110.961 155.904 110.679 156.421C110.405 156.925 110.37 157.558 110.574 158.32L111.846 163.081L110.083 163.552L107.808 155.035L109.571 154.564L109.831 155.538C110.026 155.11 110.319 154.74 110.709 154.425C111.111 154.109 111.564 153.883 112.069 153.748ZM120.761 148.445L123.817 159.884L122.054 160.355L118.999 148.916L120.761 148.445ZM133.455 148.185L131.574 162.101L129.75 162.588L130.375 157.983L124.783 150.501L126.746 149.976L130.876 155.829L131.631 148.672L133.455 148.185Z" fill="white"/>
</svg>
