<svg width="13" height="16" viewBox="0 0 13 16" fill="none" xmlns="http://www.w3.org/2000/svg">
<path d="M6.71763 7.70408L11.7176 2.70408C11.8109 2.61084 11.8848 2.50015 11.9353 2.37833C11.9857 2.25651 12.0117 2.12594 12.0117 1.99408C12.0117 1.72778 11.9059 1.47238 11.7176 1.28408C11.6244 1.19084 11.5137 1.11688 11.3919 1.06642C11.2701 1.01596 11.1395 0.989988 11.0076 0.989988C10.7413 0.989988 10.4859 1.09578 10.2976 1.28408L6.00763 5.58408L1.71763 1.28408C1.62466 1.19035 1.51406 1.11596 1.3922 1.06519C1.27034 1.01442 1.13964 0.988281 1.00763 0.988281C0.875616 0.988281 0.74491 1.01442 0.623051 1.06519C0.501191 1.11596 0.390592 1.19035 0.297628 1.28408C0.2039 1.37704 0.129504 1.48764 0.0787353 1.6095C0.0279665 1.73136 0.00182911 1.86207 0.0018291 1.99408C0.0018291 2.12609 0.0279664 2.2568 0.0787353 2.37866C0.129504 2.50052 0.2039 2.61112 0.297628 2.70408L5.29763 7.70408C5.39059 7.79781 5.50119 7.8722 5.62305 7.92297C5.74491 7.97374 5.87561 7.99988 6.00763 7.99988C6.13964 7.99988 6.27034 7.97374 6.3922 7.92297C6.51406 7.8722 6.62466 7.79781 6.71763 7.70408Z" fill="white"/>
<path d="M6.71763 14.7158L11.7176 9.7158C11.8109 9.62256 11.8848 9.51187 11.9353 9.39005C11.9857 9.26823 12.0117 9.13766 12.0117 9.0058C12.0117 8.7395 11.9059 8.4841 11.7176 8.2958C11.6244 8.20256 11.5137 8.1286 11.3919 8.07814C11.2701 8.02768 11.1395 8.00171 11.0076 8.00171C10.7413 8.00171 10.4859 8.10749 10.2976 8.2958L6.00763 12.5958L1.71763 8.2958C1.62466 8.20207 1.51406 8.12768 1.3922 8.07691C1.27034 8.02614 1.13964 8 1.00763 8C0.875616 8 0.74491 8.02614 0.623051 8.07691C0.501191 8.12768 0.390592 8.20207 0.297628 8.2958C0.2039 8.38876 0.129504 8.49936 0.0787353 8.62122C0.0279665 8.74308 0.00182911 8.87379 0.0018291 9.0058C0.0018291 9.13781 0.0279664 9.26852 0.0787353 9.39037C0.129504 9.51223 0.2039 9.62283 0.297628 9.7158L5.29763 14.7158C5.39059 14.8095 5.50119 14.8839 5.62305 14.9347C5.74491 14.9855 5.87561 15.0116 6.00763 15.0116C6.13964 15.0116 6.27034 14.9855 6.3922 14.9347C6.51406 14.8839 6.62466 14.8095 6.71763 14.7158Z" fill="white"/>
</svg>
