<svg width="216" height="24" viewBox="0 0 216 24" fill="none" xmlns="http://www.w3.org/2000/svg">
<g clip-path="url(#clip0_1603_31461)">
<rect width="216" height="24" rx="4" fill="#FC6600"/>
<mask id="mask0_1603_31461" style="mask-type:alpha" maskUnits="userSpaceOnUse" x="0" y="0" width="216" height="24">
<rect width="216" height="24" rx="4" fill="#FC6600"/>
</mask>
<g mask="url(#mask0_1603_31461)">
<g filter="url(#filter0_f_1603_31461)">
<path fill-rule="evenodd" clip-rule="evenodd" d="M8.01524 -20.0429L3.38762 -24L-42.6094 20.2904L-37.9818 24.2476L8.01524 -20.0429ZM25.6479 -16.0429L21.0203 -20L-24.9767 24.2904L-20.3491 28.2476L25.6479 -16.0429Z" fill="white" fill-opacity="0.6"/>
</g>
</g>
</g>
<path d="M15.353 8.488H10.817V10.882C11.013 10.6393 11.293 10.4433 11.657 10.294C12.021 10.1353 12.4083 10.056 12.819 10.056C13.5656 10.056 14.177 10.2193 14.653 10.546C15.129 10.8727 15.4743 11.2927 15.689 11.806C15.9036 12.31 16.011 12.8513 16.011 13.43C16.011 14.5033 15.703 15.3667 15.087 16.02C14.4803 16.6733 13.6123 17 12.483 17C11.419 17 10.5696 16.734 9.93498 16.202C9.30031 15.67 8.94098 14.9747 8.85698 14.116H10.761C10.845 14.4893 11.0316 14.788 11.321 15.012C11.6196 15.236 11.9976 15.348 12.455 15.348C13.0056 15.348 13.421 15.1753 13.701 14.83C13.981 14.4847 14.121 14.0273 14.121 13.458C14.121 12.8793 13.9763 12.4407 13.687 12.142C13.407 11.834 12.9916 11.68 12.441 11.68C12.049 11.68 11.7223 11.778 11.461 11.974C11.1996 12.17 11.013 12.4313 10.901 12.758H9.02498V6.766H15.353V8.488ZM17.5027 11.764C17.5027 10.1493 17.7921 8.88467 18.3707 7.97C18.9587 7.05533 19.9294 6.598 21.2827 6.598C22.6361 6.598 23.6021 7.05533 24.1807 7.97C24.7687 8.88467 25.0627 10.1493 25.0627 11.764C25.0627 13.388 24.7687 14.662 24.1807 15.586C23.6021 16.51 22.6361 16.972 21.2827 16.972C19.9294 16.972 18.9587 16.51 18.3707 15.586C17.7921 14.662 17.5027 13.388 17.5027 11.764ZM23.1307 11.764C23.1307 11.0733 23.0841 10.4947 22.9907 10.028C22.9067 9.552 22.7294 9.16467 22.4587 8.866C22.1974 8.56733 21.8054 8.418 21.2827 8.418C20.7601 8.418 20.3634 8.56733 20.0927 8.866C19.8314 9.16467 19.6541 9.552 19.5607 10.028C19.4767 10.4947 19.4347 11.0733 19.4347 11.764C19.4347 12.4733 19.4767 13.0707 19.5607 13.556C19.6447 14.032 19.8221 14.4193 20.0927 14.718C20.3634 15.0073 20.7601 15.152 21.2827 15.152C21.8054 15.152 22.2021 15.0073 22.4727 14.718C22.7434 14.4193 22.9207 14.032 23.0047 13.556C23.0887 13.0707 23.1307 12.4733 23.1307 11.764ZM26.3295 9.3C26.3295 8.59067 26.5349 8.03533 26.9455 7.634C27.3655 7.23267 27.9022 7.032 28.5555 7.032C29.2089 7.032 29.7409 7.23267 30.1515 7.634C30.5715 8.03533 30.7815 8.59067 30.7815 9.3C30.7815 10.0187 30.5715 10.5787 30.1515 10.98C29.7409 11.3813 29.2089 11.582 28.5555 11.582C27.9022 11.582 27.3655 11.3813 26.9455 10.98C26.5349 10.5787 26.3295 10.0187 26.3295 9.3ZM35.3175 7.2L29.8155 17H27.9115L33.3995 7.2H35.3175ZM28.5415 8.208C28.0282 8.208 27.7715 8.572 27.7715 9.3C27.7715 10.0373 28.0282 10.406 28.5415 10.406C28.7935 10.406 28.9895 10.3173 29.1295 10.14C29.2695 9.95333 29.3395 9.67333 29.3395 9.3C29.3395 8.572 29.0735 8.208 28.5415 8.208ZM32.4755 14.886C32.4755 14.1673 32.6809 13.612 33.0915 13.22C33.5115 12.8187 34.0482 12.618 34.7015 12.618C35.3549 12.618 35.8822 12.8187 36.2835 13.22C36.6942 13.612 36.8995 14.1673 36.8995 14.886C36.8995 15.6047 36.6942 16.1647 36.2835 16.566C35.8822 16.9673 35.3549 17.168 34.7015 17.168C34.0389 17.168 33.5022 16.9673 33.0915 16.566C32.6809 16.1647 32.4755 15.6047 32.4755 14.886ZM34.6875 13.794C34.1555 13.794 33.8895 14.158 33.8895 14.886C33.8895 15.6233 34.1555 15.992 34.6875 15.992C35.2102 15.992 35.4715 15.6233 35.4715 14.886C35.4715 14.158 35.2102 13.794 34.6875 13.794ZM46.2569 17.098C45.3422 17.098 44.5022 16.8833 43.7369 16.454C42.9715 16.0247 42.3649 15.432 41.9169 14.676C41.4689 13.9107 41.2449 13.0473 41.2449 12.086C41.2449 11.134 41.4689 10.28 41.9169 9.524C42.3649 8.75867 42.9715 8.16133 43.7369 7.732C44.5022 7.30267 45.3422 7.088 46.2569 7.088C47.1809 7.088 48.0209 7.30267 48.7769 7.732C49.5422 8.16133 50.1442 8.75867 50.5829 9.524C51.0309 10.28 51.2549 11.134 51.2549 12.086C51.2549 13.0473 51.0309 13.9107 50.5829 14.676C50.1442 15.432 49.5422 16.0247 48.7769 16.454C48.0115 16.8833 47.1715 17.098 46.2569 17.098ZM46.2569 15.348C46.8449 15.348 47.3629 15.2173 47.8109 14.956C48.2589 14.6853 48.6089 14.3027 48.8609 13.808C49.1129 13.3133 49.2389 12.7393 49.2389 12.086C49.2389 11.4327 49.1129 10.8633 48.8609 10.378C48.6089 9.88333 48.2589 9.50533 47.8109 9.244C47.3629 8.98267 46.8449 8.852 46.2569 8.852C45.6689 8.852 45.1462 8.98267 44.6889 9.244C44.2409 9.50533 43.8909 9.88333 43.6389 10.378C43.3869 10.8633 43.2609 11.4327 43.2609 12.086C43.2609 12.7393 43.3869 13.3133 43.6389 13.808C43.8909 14.3027 44.2409 14.6853 44.6889 14.956C45.1462 15.2173 45.6689 15.348 46.2569 15.348ZM58.7471 7.228V8.81H54.6731V11.316H57.7951V12.87H54.6731V17H52.7131V7.228H58.7471ZM66.1709 7.228V8.81H62.0969V11.316H65.2189V12.87H62.0969V17H60.1369V7.228H66.1709ZM74.4527 10.854H73.0947V17H71.1067V10.854H70.2247V9.244H71.1067V8.852C71.1067 7.9 71.3773 7.2 71.9187 6.752C72.46 6.304 73.2767 6.094 74.3687 6.122V7.774C73.8927 7.76467 73.5613 7.844 73.3747 8.012C73.188 8.18 73.0947 8.48333 73.0947 8.922V9.244H74.4527V10.854ZM79.1668 17.126C78.4202 17.126 77.7482 16.9627 77.1508 16.636C76.5535 16.3 76.0822 15.8287 75.7368 15.222C75.4008 14.6153 75.2328 13.9153 75.2328 13.122C75.2328 12.3287 75.4055 11.6287 75.7508 11.022C76.1055 10.4153 76.5862 9.94867 77.1928 9.622C77.7995 9.286 78.4762 9.118 79.2228 9.118C79.9695 9.118 80.6462 9.286 81.2528 9.622C81.8595 9.94867 82.3355 10.4153 82.6808 11.022C83.0355 11.6287 83.2128 12.3287 83.2128 13.122C83.2128 13.9153 83.0308 14.6153 82.6668 15.222C82.3122 15.8287 81.8268 16.3 81.2108 16.636C80.6042 16.9627 79.9228 17.126 79.1668 17.126ZM79.1668 15.418C79.5215 15.418 79.8528 15.334 80.1608 15.166C80.4782 14.9887 80.7302 14.7273 80.9168 14.382C81.1035 14.0367 81.1968 13.6167 81.1968 13.122C81.1968 12.3847 81.0008 11.82 80.6088 11.428C80.2262 11.0267 79.7548 10.826 79.1948 10.826C78.6348 10.826 78.1635 11.0267 77.7808 11.428C77.4075 11.82 77.2208 12.3847 77.2208 13.122C77.2208 13.8593 77.4028 14.4287 77.7668 14.83C78.1402 15.222 78.6068 15.418 79.1668 15.418ZM86.6106 10.448C86.8626 10.0373 87.1892 9.71533 87.5906 9.482C88.0012 9.24867 88.4679 9.132 88.9906 9.132V11.19H88.4726C87.8566 11.19 87.3899 11.3347 87.0726 11.624C86.7646 11.9133 86.6106 12.4173 86.6106 13.136V17H84.6506V9.244H86.6106V10.448ZM93.1427 13.122C93.1427 12.3193 93.306 11.6193 93.6327 11.022C93.9593 10.4153 94.412 9.94867 94.9907 9.622C95.5693 9.286 96.232 9.118 96.9787 9.118C97.94 9.118 98.7333 9.36067 99.3587 9.846C99.9933 10.322 100.418 10.994 100.633 11.862H98.5187C98.4067 11.526 98.2153 11.2647 97.9447 11.078C97.6833 10.882 97.3567 10.784 96.9647 10.784C96.4047 10.784 95.9613 10.9893 95.6347 11.4C95.308 11.8013 95.1447 12.3753 95.1447 13.122C95.1447 13.8593 95.308 14.4333 95.6347 14.844C95.9613 15.2453 96.4047 15.446 96.9647 15.446C97.758 15.446 98.276 15.0913 98.5187 14.382H100.633C100.418 15.222 99.9933 15.8893 99.3587 16.384C98.724 16.8787 97.9307 17.126 96.9787 17.126C96.232 17.126 95.5693 16.9627 94.9907 16.636C94.412 16.3 93.9593 15.8333 93.6327 15.236C93.306 14.6293 93.1427 13.9247 93.1427 13.122ZM109.391 9.244V17H107.417V16.02C107.165 16.356 106.833 16.622 106.423 16.818C106.021 17.0047 105.583 17.098 105.107 17.098C104.5 17.098 103.963 16.972 103.497 16.72C103.03 16.4587 102.661 16.0807 102.391 15.586C102.129 15.082 101.999 14.4847 101.999 13.794V9.244H103.959V13.514C103.959 14.13 104.113 14.606 104.421 14.942C104.729 15.2687 105.149 15.432 105.681 15.432C106.222 15.432 106.647 15.2687 106.955 14.942C107.263 14.606 107.417 14.13 107.417 13.514V9.244H109.391ZM113.284 10.448C113.536 10.0373 113.863 9.71533 114.264 9.482C114.675 9.24867 115.142 9.132 115.664 9.132V11.19H115.146C114.53 11.19 114.064 11.3347 113.746 11.624C113.438 11.9133 113.284 12.4173 113.284 13.136V17H111.324V9.244H113.284V10.448ZM118.945 10.448C119.197 10.0373 119.523 9.71533 119.925 9.482C120.335 9.24867 120.802 9.132 121.325 9.132V11.19H120.807C120.191 11.19 119.724 11.3347 119.407 11.624C119.099 11.9133 118.945 12.4173 118.945 13.136V17H116.985V9.244H118.945V10.448ZM129.855 12.954C129.855 13.234 129.836 13.486 129.799 13.71H124.129C124.175 14.27 124.371 14.7087 124.717 15.026C125.062 15.3433 125.487 15.502 125.991 15.502C126.719 15.502 127.237 15.1893 127.545 14.564H129.659C129.435 15.3107 129.005 15.9267 128.371 16.412C127.736 16.888 126.957 17.126 126.033 17.126C125.286 17.126 124.614 16.9627 124.017 16.636C123.429 16.3 122.967 15.8287 122.631 15.222C122.304 14.6153 122.141 13.9153 122.141 13.122C122.141 12.3193 122.304 11.6147 122.631 11.008C122.957 10.4013 123.415 9.93467 124.003 9.608C124.591 9.28133 125.267 9.118 126.033 9.118C126.77 9.118 127.428 9.27667 128.007 9.594C128.595 9.91133 129.047 10.364 129.365 10.952C129.691 11.5307 129.855 12.198 129.855 12.954ZM127.825 12.394C127.815 11.89 127.633 11.4887 127.279 11.19C126.924 10.882 126.49 10.728 125.977 10.728C125.491 10.728 125.081 10.8773 124.745 11.176C124.418 11.4653 124.217 11.8713 124.143 12.394H127.825ZM135.583 9.132C136.507 9.132 137.254 9.426 137.823 10.014C138.393 10.5927 138.677 11.4047 138.677 12.45V17H136.717V12.716C136.717 12.1 136.563 11.6287 136.255 11.302C135.947 10.966 135.527 10.798 134.995 10.798C134.454 10.798 134.025 10.966 133.707 11.302C133.399 11.6287 133.245 12.1 133.245 12.716V17H131.285V9.244H133.245V10.21C133.507 9.874 133.838 9.61267 134.239 9.426C134.65 9.23 135.098 9.132 135.583 9.132ZM142.823 10.854V14.606C142.823 14.8673 142.884 15.0587 143.005 15.18C143.136 15.292 143.351 15.348 143.649 15.348H144.559V17H143.327C141.675 17 140.849 16.1973 140.849 14.592V10.854H139.925V9.244H140.849V7.326H142.823V9.244H144.559V10.854H142.823ZM158.937 9.132C159.889 9.132 160.654 9.426 161.233 10.014C161.821 10.5927 162.115 11.4047 162.115 12.45V17H160.155V12.716C160.155 12.1093 160.001 11.6473 159.693 11.33C159.385 11.0033 158.965 10.84 158.433 10.84C157.901 10.84 157.476 11.0033 157.159 11.33C156.851 11.6473 156.697 12.1093 156.697 12.716V17H154.737V12.716C154.737 12.1093 154.583 11.6473 154.275 11.33C153.967 11.0033 153.547 10.84 153.015 10.84C152.474 10.84 152.044 11.0033 151.727 11.33C151.419 11.6473 151.265 12.1093 151.265 12.716V17H149.305V9.244H151.265V10.182C151.517 9.85533 151.839 9.59867 152.231 9.412C152.632 9.22533 153.071 9.132 153.547 9.132C154.154 9.132 154.695 9.26267 155.171 9.524C155.647 9.776 156.016 10.14 156.277 10.616C156.529 10.168 156.893 9.80867 157.369 9.538C157.854 9.26733 158.377 9.132 158.937 9.132ZM167.419 17.126C166.672 17.126 166 16.9627 165.403 16.636C164.805 16.3 164.334 15.8287 163.989 15.222C163.653 14.6153 163.485 13.9153 163.485 13.122C163.485 12.3287 163.657 11.6287 164.003 11.022C164.357 10.4153 164.838 9.94867 165.445 9.622C166.051 9.286 166.728 9.118 167.475 9.118C168.221 9.118 168.898 9.286 169.505 9.622C170.111 9.94867 170.587 10.4153 170.933 11.022C171.287 11.6287 171.465 12.3287 171.465 13.122C171.465 13.9153 171.283 14.6153 170.919 15.222C170.564 15.8287 170.079 16.3 169.463 16.636C168.856 16.9627 168.175 17.126 167.419 17.126ZM167.419 15.418C167.773 15.418 168.105 15.334 168.413 15.166C168.73 14.9887 168.982 14.7273 169.169 14.382C169.355 14.0367 169.449 13.6167 169.449 13.122C169.449 12.3847 169.253 11.82 168.861 11.428C168.478 11.0267 168.007 10.826 167.447 10.826C166.887 10.826 166.415 11.0267 166.033 11.428C165.659 11.82 165.473 12.3847 165.473 13.122C165.473 13.8593 165.655 14.4287 166.019 14.83C166.392 15.222 166.859 15.418 167.419 15.418ZM177.201 9.132C178.125 9.132 178.871 9.426 179.441 10.014C180.01 10.5927 180.295 11.4047 180.295 12.45V17H178.335V12.716C178.335 12.1 178.181 11.6287 177.873 11.302C177.565 10.966 177.145 10.798 176.613 10.798C176.071 10.798 175.642 10.966 175.325 11.302C175.017 11.6287 174.863 12.1 174.863 12.716V17H172.903V9.244H174.863V10.21C175.124 9.874 175.455 9.61267 175.857 9.426C176.267 9.23 176.715 9.132 177.201 9.132ZM184.44 10.854V14.606C184.44 14.8673 184.501 15.0587 184.622 15.18C184.753 15.292 184.968 15.348 185.266 15.348H186.176V17H184.944C183.292 17 182.466 16.1973 182.466 14.592V10.854H181.542V9.244H182.466V7.326H184.44V9.244H186.176V10.854H184.44ZM191.954 9.132C192.542 9.132 193.065 9.26267 193.522 9.524C193.979 9.776 194.334 10.154 194.586 10.658C194.847 11.1527 194.978 11.75 194.978 12.45V17H193.018V12.716C193.018 12.1 192.864 11.6287 192.556 11.302C192.248 10.966 191.828 10.798 191.296 10.798C190.755 10.798 190.325 10.966 190.008 11.302C189.7 11.6287 189.546 12.1 189.546 12.716V17H187.586V6.64H189.546V10.21C189.798 9.874 190.134 9.61267 190.554 9.426C190.974 9.23 191.441 9.132 191.954 9.132ZM198.802 6.64V17H196.842V6.64H198.802ZM208.158 9.244L203.356 20.668H201.27L202.95 16.804L199.842 9.244H202.04L204.042 14.662L206.072 9.244H208.158Z" fill="white"/>
<defs>
<filter id="filter0_f_1603_31461" x="-46.6094" y="-28" width="76.2578" height="60.248" filterUnits="userSpaceOnUse" color-interpolation-filters="sRGB">
<feFlood flood-opacity="0" result="BackgroundImageFix"/>
<feBlend mode="normal" in="SourceGraphic" in2="BackgroundImageFix" result="shape"/>
<feGaussianBlur stdDeviation="2" result="effect1_foregroundBlur_1603_31461"/>
</filter>
<clipPath id="clip0_1603_31461">
<rect width="216" height="24" rx="4" fill="white"/>
</clipPath>
</defs>
</svg>
