<svg width="13" height="16" viewBox="0 0 13 16" fill="none" xmlns="http://www.w3.org/2000/svg">
<path d="M6.28237 8.29592L1.28237 13.2959C1.18913 13.3892 1.11517 13.4998 1.06471 13.6217C1.01425 13.7435 0.988281 13.8741 0.988281 14.0059C0.988281 14.2722 1.09407 14.5276 1.28237 14.7159C1.37561 14.8092 1.4863 14.8831 1.60812 14.9336C1.72995 14.984 1.86051 15.01 1.99237 15.01C2.25867 15.01 2.51407 14.9042 2.70237 14.7159L6.99237 10.4159L11.2824 14.7159C11.3753 14.8097 11.4859 14.884 11.6078 14.9348C11.7297 14.9856 11.8604 15.0117 11.9924 15.0117C12.1244 15.0117 12.2551 14.9856 12.3769 14.9348C12.4988 14.884 12.6094 14.8097 12.7024 14.7159C12.7961 14.623 12.8705 14.5124 12.9213 14.3905C12.972 14.2686 12.9982 14.1379 12.9982 14.0059C12.9982 13.8739 12.972 13.7432 12.9213 13.6213C12.8705 13.4995 12.7961 13.3889 12.7024 13.2959L7.70237 8.29592C7.60941 8.20219 7.49881 8.1278 7.37695 8.07703C7.25509 8.02626 7.12439 8.00012 6.99237 8.00012C6.86036 8.00012 6.72966 8.02626 6.6078 8.07703C6.48594 8.1278 6.37534 8.20219 6.28237 8.29592Z" fill="white"/>
<path d="M6.28237 1.2842L1.28237 6.2842C1.18913 6.37744 1.11517 6.48813 1.06471 6.60995C1.01425 6.73177 0.988281 6.86234 0.988281 6.9942C0.988281 7.2605 1.09407 7.5159 1.28237 7.7042C1.37561 7.79744 1.4863 7.8714 1.60812 7.92186C1.72995 7.97232 1.86051 7.99829 1.99237 7.99829C2.25867 7.99829 2.51407 7.89251 2.70237 7.7042L6.99237 3.4042L11.2824 7.7042C11.3753 7.79793 11.4859 7.87233 11.6078 7.92309C11.7297 7.97386 11.8604 8 11.9924 8C12.1244 8 12.2551 7.97386 12.3769 7.92309C12.4988 7.87233 12.6094 7.79793 12.7024 7.7042C12.7961 7.61124 12.8705 7.50064 12.9213 7.37878C12.972 7.25692 12.9982 7.12622 12.9982 6.9942C12.9982 6.86219 12.972 6.73149 12.9213 6.60963C12.8705 6.48777 12.7961 6.37717 12.7024 6.2842L7.70237 1.2842C7.60941 1.19047 7.49881 1.11608 7.37695 1.06531C7.25509 1.01454 7.12439 0.988404 6.99237 0.988404C6.86036 0.988404 6.72966 1.01454 6.6078 1.06531C6.48594 1.11608 6.37534 1.19047 6.28237 1.2842Z" fill="white"/>
</svg>
