<svg width="122" height="122" viewBox="0 0 122 122" fill="none" xmlns="http://www.w3.org/2000/svg">
<rect x="0.296875" y="0.378906" width="120.865" height="120.865" rx="60.4324" fill="#F4F4F4"/>
<path d="M56.3081 56.3912C58.5759 54.1235 61.6286 52.8142 64.8347 52.7342C68.0408 52.6542 71.155 53.8095 73.5331 55.9612L73.9856 56.3912L81.0556 63.4637C83.3582 65.7703 84.6688 68.8851 84.708 72.1441C84.7473 75.4031 83.5121 78.5486 81.2657 80.91C79.0194 83.2715 75.9395 84.6622 72.6826 84.7857C69.4257 84.9092 66.2494 83.7557 63.8306 81.5712L63.3806 81.1412L58.0756 75.8362C57.6272 75.3863 57.3669 74.7826 57.3475 74.1477C57.3282 73.5128 57.5511 72.8944 57.9712 72.418C58.3913 71.9416 58.977 71.6429 59.6093 71.5827C60.2416 71.5224 60.8731 71.7051 61.3756 72.0937L61.6106 72.3012L66.9156 77.6062C68.2908 78.9894 70.1507 79.7824 72.1009 79.8171C74.0511 79.8518 75.9381 79.1254 77.3616 77.792C78.7851 76.4586 79.6331 74.623 79.7258 72.6748C79.8185 70.7265 79.1486 68.8187 77.8581 67.3562L77.5206 66.9987L70.4506 59.9287C69.7542 59.2321 68.9273 58.6795 68.0173 58.3025C67.1073 57.9256 66.1319 57.7315 65.1469 57.7315C64.1618 57.7315 63.1865 57.9256 62.2764 58.3025C61.3664 58.6795 60.5396 59.2321 59.8431 59.9287C59.374 60.3974 58.7379 60.6607 58.0747 60.6604C57.4116 60.6602 56.7756 60.3965 56.3069 59.9274C55.8381 59.4583 55.5749 58.8222 55.5751 58.159C55.5753 57.4959 55.839 56.8599 56.3081 56.3912ZM40.3981 40.4812C42.6659 38.2135 45.7186 36.9042 48.9247 36.8242C52.1308 36.7442 55.245 37.8995 57.6231 40.0512L58.0756 40.4812L63.3781 45.7887C63.8265 46.2386 64.0868 46.8423 64.1062 47.4771C64.1256 48.112 63.9026 48.7305 63.4825 49.2069C63.0624 49.6833 62.4767 49.9819 61.8444 50.0422C61.2121 50.1024 60.5806 49.9197 60.0781 49.5312L59.8431 49.3237L54.5406 44.0212C53.163 42.6526 51.3083 41.8716 49.3667 41.8426C47.4251 41.8136 45.5479 42.5388 44.13 43.8656C42.7122 45.1925 41.8642 47.0175 41.7646 48.9568C41.6649 50.8961 42.3213 52.7985 43.5956 54.2637L43.9331 54.6237L51.0056 61.6962C52.4121 63.1022 54.3194 63.8921 56.3081 63.8921C58.2968 63.8921 60.2042 63.1022 61.6106 61.6962C61.8427 61.4639 62.1183 61.2796 62.4216 61.1538C62.725 61.0281 63.0501 60.9633 63.3785 60.9632C63.7068 60.963 64.032 61.0276 64.3354 61.1532C64.6389 61.2787 64.9146 61.4628 65.1469 61.6949C65.3791 61.927 65.5634 62.2026 65.6892 62.506C65.815 62.8093 65.8798 63.1344 65.8799 63.4628C65.88 63.7912 65.8154 64.1163 65.6899 64.4198C65.5643 64.7232 65.3802 64.9989 65.1481 65.2312C62.8803 67.4988 59.8276 68.8081 56.6215 68.8881C53.4155 68.9682 50.3013 67.8129 47.9231 65.6612L47.4681 65.2312L40.3981 58.1587C38.0547 55.8146 36.7383 52.6357 36.7383 49.3212C36.7383 46.0066 38.0547 42.8253 40.3981 40.4812Z" fill="#222222"/>
</svg>
