<svg width="122" height="122" viewBox="0 0 122 122" fill="none" xmlns="http://www.w3.org/2000/svg">
<circle cx="61.2977" cy="61.0145" r="60.4324" fill="white"/>
<g clip-path="url(#clip0_910_9060)">
<path d="M77.5332 31.2031H45.6582C37.8917 31.2031 31.5957 37.4991 31.5957 45.2656V77.1406C31.5957 84.9071 37.8917 91.2031 45.6582 91.2031H77.5332C85.2997 91.2031 91.5957 84.9071 91.5957 77.1406V45.2656C91.5957 37.4991 85.2997 31.2031 77.5332 31.2031Z" fill="url(#paint0_radial_910_9060)"/>
<path d="M77.5332 31.2031H45.6582C37.8917 31.2031 31.5957 37.4991 31.5957 45.2656V77.1406C31.5957 84.9071 37.8917 91.2031 45.6582 91.2031H77.5332C85.2997 91.2031 91.5957 84.9071 91.5957 77.1406V45.2656C91.5957 37.4991 85.2997 31.2031 77.5332 31.2031Z" fill="url(#paint1_radial_910_9060)"/>
<path d="M61.5978 37.7656C55.2327 37.7656 54.4337 37.7935 51.9338 37.9072C49.4387 38.0216 47.7355 38.4165 46.2453 38.9961C44.7036 39.5947 43.396 40.3955 42.0934 41.6987C40.7895 43.0016 39.9887 44.3091 39.3882 45.8502C38.807 47.3408 38.4116 49.0447 38.2993 51.5387C38.1875 54.0387 38.1582 54.838 38.1582 61.2034C38.1582 67.5688 38.1863 68.3652 38.2998 70.865C38.4146 73.3602 38.8095 75.0634 39.3887 76.5535C39.9877 78.0952 40.7886 79.4028 42.0917 80.7055C43.3941 82.0093 44.7017 82.812 46.2423 83.4106C47.7336 83.9902 49.437 84.3852 51.9317 84.4995C54.4318 84.6132 55.2301 84.6411 61.595 84.6411C67.9609 84.6411 68.7573 84.6132 71.2571 84.4995C73.7523 84.3852 75.4573 83.9902 76.9487 83.4106C78.4897 82.812 79.7954 82.0093 81.0976 80.7055C82.4014 79.4028 83.202 78.0952 83.8027 76.5542C84.3788 75.0634 84.7745 73.3597 84.8916 70.8655C85.0039 68.3656 85.0332 67.5688 85.0332 61.2034C85.0332 54.838 85.0039 54.0392 84.8916 51.5391C84.7745 49.044 84.3788 47.341 83.8027 45.8509C83.202 44.3091 82.4014 43.0016 81.0976 41.6987C79.794 40.3951 78.4902 39.5942 76.9473 38.9963C75.4531 38.4165 73.749 38.0213 71.2538 37.9072C68.7537 37.7935 67.9578 37.7656 61.5905 37.7656H61.5978ZM59.4952 41.9893C60.1194 41.9884 60.8157 41.9893 61.5978 41.9893C67.8559 41.9893 68.5974 42.0118 71.0687 42.1241C73.3538 42.2286 74.5941 42.6104 75.4203 42.9313C76.5141 43.3559 77.2939 43.8638 78.1138 44.6844C78.9341 45.5047 79.4417 46.2859 79.8676 47.3797C80.1884 48.2047 80.5707 49.445 80.6748 51.7302C80.787 54.2009 80.8114 54.943 80.8114 61.198C80.8114 67.453 80.787 68.1952 80.6748 70.6658C80.5702 72.9509 80.1884 74.1912 79.8676 75.0165C79.4429 76.1103 78.9341 76.8891 78.1138 77.709C77.2934 78.5293 76.5146 79.037 75.4203 79.4619C74.5951 79.7841 73.3538 80.165 71.0687 80.2695C68.5979 80.3818 67.8559 80.4062 61.5978 80.4062C55.3395 80.4062 54.5977 80.3818 52.1272 80.2695C49.842 80.1641 48.6017 79.7823 47.7748 79.4614C46.6812 79.0365 45.8998 78.5288 45.0795 77.7085C44.2592 76.8882 43.7516 76.1089 43.3257 75.0146C43.0048 74.1894 42.6226 72.9491 42.5185 70.6639C42.4062 68.1931 42.3837 67.4511 42.3837 61.1921C42.3837 54.9331 42.4062 54.1951 42.5185 51.7243C42.623 49.4391 43.0048 48.1988 43.3257 47.3727C43.7506 46.2788 44.2592 45.4977 45.0798 44.6773C45.9003 43.857 46.6812 43.3491 47.7751 42.9235C48.6012 42.6013 49.842 42.2204 52.1272 42.1154C54.2893 42.0177 55.1272 41.9884 59.4952 41.9834V41.9893ZM74.1088 45.8809C72.556 45.8809 71.2963 47.1395 71.2963 48.6924C71.2963 50.2452 72.556 51.5049 74.1088 51.5049C75.6615 51.5049 76.9213 50.2452 76.9213 48.6924C76.9213 47.1397 75.6615 45.8799 74.1088 45.8799V45.8809ZM61.5978 49.167C54.9509 49.167 49.5617 54.5563 49.5617 61.2034C49.5617 67.8505 54.9509 73.2371 61.5978 73.2371C68.2449 73.2371 73.6323 67.8505 73.6323 61.2034C73.6323 54.5565 68.2445 49.167 61.5973 49.167H61.5978ZM61.5978 53.3907C65.9124 53.3907 69.4105 56.8883 69.4105 61.2034C69.4105 65.518 65.9124 69.016 61.5978 69.016C57.2832 69.016 53.7854 65.518 53.7854 61.2034C53.7854 56.8883 57.283 53.3907 61.5978 53.3907Z" fill="white"/>
</g>
<defs>
<radialGradient id="paint0_radial_910_9060" cx="0" cy="0" r="1" gradientUnits="userSpaceOnUse" gradientTransform="translate(47.5332 95.8243) rotate(-90) scale(59.4645 55.3066)">
<stop stop-color="#FFDD55"/>
<stop offset="0.1" stop-color="#FFDD55"/>
<stop offset="0.5" stop-color="#FF543E"/>
<stop offset="1" stop-color="#C837AB"/>
</radialGradient>
<radialGradient id="paint1_radial_910_9060" cx="0" cy="0" r="1" gradientUnits="userSpaceOnUse" gradientTransform="translate(21.5455 35.5252) rotate(78.681) scale(26.5809 109.567)">
<stop stop-color="#3771C8"/>
<stop offset="0.128" stop-color="#3771C8"/>
<stop offset="1" stop-color="#6600FF" stop-opacity="0"/>
</radialGradient>
<clipPath id="clip0_910_9060">
<rect width="60" height="60" fill="white" transform="translate(31.5957 31.2031)"/>
</clipPath>
</defs>
</svg>
