<svg width="32" height="44" viewBox="0 0 32 44" fill="none" xmlns="http://www.w3.org/2000/svg">
<path d="M13.9489 1.05662C13.7826 0.969942 13.5818 0.983596 13.4288 1.09198L0.710997 10.1002C0.578656 10.1939 0.5 10.346 0.5 10.5082V35.5971C0.5 35.7805 0.600346 35.9491 0.761483 36.0366L13.4793 42.9394C13.6099 43.0103 13.7653 43.0195 13.9033 42.9643L31.1855 36.0615C31.3754 35.9856 31.5 35.8017 31.5 35.5971V10.5082C31.5 10.3218 31.3964 10.1509 31.2311 10.0648L13.9489 1.05662ZM15.6282 10.5301V5.44139L19.0703 7.00874V11.7818L15.6282 10.5301ZM21.7645 12.5984V8.51253L24.0663 9.70215V13.5495L21.7645 12.5984ZM24.5268 13.7398L24.5245 13.7388L24.5268 13.7398ZM15.4631 21.5889L15.4632 21.5844L15.4631 21.5889ZM15.4722 21.2625L15.6122 16.2465L19.0703 16.8752V21.46L15.4722 21.2625ZM19.3466 16.9255C19.3464 16.9254 19.3462 16.9254 19.346 16.9253L19.3466 16.9255ZM15.224 16.1759L15.2243 16.176C15.2241 16.176 15.2239 16.1759 15.2237 16.1759L15.224 16.1759ZM22.425 37.6661L22.4246 37.6663L22.425 37.6661ZM22.226 37.7416L17.7677 39.4324V26.9262L22.226 26.535V37.7416ZM28.2501 35.1998L25.5252 36.3937V26.8214L28.2501 26.5445V35.1998ZM24.1122 21.8064L21.6468 21.651L21.7489 17.4462L24.1122 17.9411V21.8064ZM24.4078 18.003C24.4074 18.0029 24.4071 18.0028 24.4068 18.0028L24.4078 18.003ZM27.7054 14.1302V10.9101L29.2544 11.78V14.8247L27.7054 14.1302ZM27.7123 22.0731L27.784 18.5461L29.2544 18.9142V22.1893L27.7123 22.0731ZM29.5585 18.9904C29.5581 18.9903 29.5577 18.9902 29.5573 18.9901L29.5582 18.9903L29.5585 18.9904Z" stroke="#222222" stroke-opacity="0.8" stroke-miterlimit="10" stroke-linecap="round" stroke-linejoin="round"/>
</svg>
