<svg width="52" height="52" viewBox="0 0 52 52" fill="none" xmlns="http://www.w3.org/2000/svg">
<path d="M26.2003 3.95707C26.7354 3.35137 27.4461 2.93424 28.3158 2.70662C28.3257 2.70402 28.3356 2.70174 28.3457 2.69976L28.3766 2.69366L28.4076 2.68755L28.4089 2.6873L36.0477 1.20229L36.0478 1.20226C36.5891 1.09722 37.015 1.00845 37.3875 0.927774L37.3898 0.927271L37.3898 0.927277L37.4262 0.919571C38.362 0.721561 39.1137 0.562485 39.7199 0.514999C40.3465 0.465911 40.8948 0.528104 41.3831 0.841596C41.8553 1.14472 42.2 1.63876 42.5312 2.28052C42.8641 2.92574 43.2191 3.79506 43.675 4.91355C43.675 4.91363 43.6751 4.91372 43.6751 4.9138L26.2003 3.95707ZM26.2003 3.95707C25.6656 3.35186 24.9591 2.93427 24.0842 2.70646C24.0745 2.70393 24.0647 2.7017 24.0548 2.69976L24.0239 2.69366L23.9929 2.68755L23.9916 2.68731L16.3528 1.20229L16.3527 1.20226C15.8115 1.09722 15.3856 1.00845 15.013 0.927774L15.013 0.927768L15.0107 0.927277L14.9743 0.919575C14.0386 0.721563 13.2868 0.562485 12.6805 0.514998C12.0538 0.465908 11.5055 0.528123 11.0171 0.841508C10.5447 1.14453 10.1995 1.63844 9.86776 2.28019C9.5342 2.92544 9.17841 3.79482 8.72143 4.91344L8.72129 4.91379C5.93624 11.7459 3.6093 17.9725 3.2558 22.9727L26.2003 3.95707ZM20.9101 32.8058L20.9097 32.8062C19.5255 33.9642 17.9351 34.6749 16.1436 34.9198L20.9101 32.8058ZM20.9101 32.8058C23.8887 30.3083 25.4085 26.5993 26.2001 22.5984L20.9101 32.8058ZM15.9615 51.4663L15.9615 51.4663L2.02585 48.8096C1.01421 48.6168 0.335113 47.6477 0.534581 46.6313C0.732983 45.6203 1.72035 44.9654 2.73316 45.1583C2.7332 45.1583 2.73324 45.1583 2.73328 45.1583L7.89459 46.1404L10.3618 34.261C7.58671 33.3555 5.69617 31.907 4.55758 29.97C3.41427 28.0249 3.06586 25.6493 3.25579 22.9729L15.9615 51.4663ZM15.9615 51.4663C16.9744 51.6593 17.9618 51.0043 18.1602 49.9933C18.3597 48.9769 17.6806 48.0078 16.6689 47.815L11.5856 46.8444M15.9615 51.4663L11.5856 46.8444M42.0345 34.261L44.3285 45.3184L49.2667 44.3771L49.2667 44.3771C50.2796 44.1841 51.267 44.8391 51.4654 45.8502C51.6649 46.8666 50.9858 47.8357 49.9742 48.0284L49.9741 48.0284L36.0426 50.6811C35.0298 50.8741 34.0423 50.2191 33.8439 49.208C33.6445 48.1916 34.3235 47.2226 35.3352 47.0298L40.6455 46.0183L38.3567 34.9936C37.634 35.0364 36.9323 35.0123 36.2572 34.9198C34.4617 34.675 32.871 33.9644 31.4905 32.8058C31.4904 32.8058 31.4903 32.8057 31.4903 32.8057L31.8117 32.4227L42.0345 34.261ZM42.0345 34.261C44.8098 33.3555 46.7003 31.9059 47.8388 29.9684C48.9821 28.0228 49.3306 25.6473 49.1406 22.9727L42.0345 34.261ZM11.5856 46.8444L14.0439 34.9935C14.7685 35.0364 15.4678 35.0123 16.1434 34.9198L11.5856 46.8444ZM41.382 5.82764L40.9612 5.99918C40.6506 5.23711 40.4275 4.69302 40.2287 4.2984C40.0268 3.89781 39.8832 3.72285 39.7651 3.6386C39.6707 3.57129 39.5456 3.52825 39.2685 3.5455C38.9718 3.56397 38.5844 3.64475 37.9974 3.76899C37.5769 3.85835 37.0939 3.96092 36.606 4.05544L41.382 5.82764ZM41.382 5.82764L40.9612 5.99918C41.8752 8.2414 42.7331 10.4021 43.4815 12.457C41.7618 12.5853 39.508 13.2887 37.0485 14.2345C34.5714 15.1872 31.8156 16.415 29.0773 17.635C28.8859 17.7203 28.6945 17.8055 28.5034 17.8907C28.2718 15.2338 28.2381 12.5243 28.2115 10.0282L28.2115 10.0271C28.1952 8.77847 28.1789 7.57497 28.1428 6.48398C28.1958 6.19704 28.2906 6.00349 28.4067 5.87009L28.4072 5.86952C28.518 5.74176 28.7017 5.61946 29.0076 5.53254L36.6057 4.0555L41.382 5.82764ZM11.4392 5.99939L11.4393 5.99918C11.7499 5.23711 11.973 4.69302 12.1719 4.2984C12.3737 3.89781 12.5173 3.72285 12.6354 3.6386C12.7298 3.57129 12.855 3.52825 13.132 3.5455C13.4288 3.56397 13.8161 3.64475 14.4032 3.76899C14.8236 3.85836 15.3066 3.96093 15.7946 4.05545C15.7947 4.05547 15.7948 4.05549 15.7949 4.0555L23.397 5.53254C23.703 5.61947 23.8867 5.74176 23.9975 5.86952L23.998 5.87009C24.114 6.00349 24.2089 6.19704 24.2619 6.48398C24.2257 7.57497 24.2094 8.77847 24.1932 10.0271V10.0272C24.1639 12.3076 24.1314 14.7654 23.9507 17.1986C21.7664 15.6107 19.1231 15.1654 16.428 15.0555C15.2081 15.0057 13.9569 15.0245 12.7222 15.0429C12.4316 15.0473 12.1419 15.0516 11.8538 15.0551C10.5504 15.0705 9.27259 15.0677 8.04381 14.9691C8.95925 12.1898 10.141 9.18027 11.4392 5.99939ZM32.1604 25.0113L32.1607 25.012C32.8952 26.8529 33.9256 28.2364 35.227 29.196L35.2281 29.1968C36.5251 30.1476 38.0748 30.6647 39.821 30.8134L39.8236 30.8136C39.8537 30.816 39.8709 30.839 39.8688 30.8641C39.8681 30.8736 39.8644 30.8818 39.8547 30.8898C39.8445 30.8983 39.8289 30.9047 39.8083 30.9031L39.7684 31.4015L39.8117 30.9033C38.012 30.7471 36.4563 30.2151 35.1594 29.2655C33.8708 28.312 32.821 26.9323 32.0616 25.0366C32.0574 25.0259 32.0581 25.0175 32.0618 25.0093C32.0657 25.0006 32.0738 24.9906 32.0907 24.9841C32.1226 24.9717 32.1513 24.9882 32.1604 25.0113ZM21.5954 22.8416L21.5961 22.8369C21.5972 22.829 21.6012 22.8203 21.6119 22.8124C21.6227 22.8044 21.636 22.8007 21.6509 22.8029L21.6509 22.8029L21.6574 22.8038C21.6888 22.8081 21.6988 22.8334 21.6967 22.8471L21.6963 22.8494C21.398 24.864 20.6994 26.4441 19.6598 27.6588L19.6593 27.6594C18.6185 28.8793 17.2286 29.749 15.517 30.3033C15.5017 30.3083 15.4856 30.307 15.4711 30.2998C15.4569 30.2928 15.4504 30.2834 15.4476 30.275C15.4415 30.2568 15.4506 30.2302 15.4783 30.2213C17.1459 29.682 18.5357 28.8316 19.5772 27.6093C20.6287 26.3849 21.3037 24.8026 21.5954 22.8416Z" stroke="#222222" stroke-opacity="0.8" stroke-linejoin="round"/>
</svg>
