<svg id="Layer_1" data-name="Layer 1" xmlns="http://www.w3.org/2000/svg" viewBox="0 0 2000 2000"><defs><style>.cls-1{fill:#fc6600;}</style></defs><path class="cls-1" d="M866.93,1553.54a39.19,39.19,0,0,1-15.64-2.84,22.11,22.11,0,0,1-10.1-8.31,24.51,24.51,0,0,1-3.64-13.3h14.52a11.3,11.3,0,0,0,7.18,10.59,19.5,19.5,0,0,0,7.68,1.39,20,20,0,0,0,7.13-1.15,11,11,0,0,0,4.75-3.25,7.51,7.51,0,0,0,1.71-4.89,6.31,6.31,0,0,0-1.42-4.15,11.5,11.5,0,0,0-4.25-3,38.2,38.2,0,0,0-7.19-2.25l-7.82-1.81q-10.12-2.29-15.37-7.24a16.75,16.75,0,0,1-5.26-12.8,19.55,19.55,0,0,1,3.5-11.59,23.09,23.09,0,0,1,9.7-7.7,34.94,34.94,0,0,1,14.32-2.76,34,34,0,0,1,14.32,2.79,22.08,22.08,0,0,1,9.44,7.89,22.58,22.58,0,0,1,3.57,12H879.78a10.23,10.23,0,0,0-3.86-7.57q-3.46-2.75-9.24-2.74a17.32,17.32,0,0,0-6.5,1.12,9.93,9.93,0,0,0-4.3,3.11,7.31,7.31,0,0,0-1.52,4.57,6.24,6.24,0,0,0,1.42,4.13,11.1,11.1,0,0,0,4.16,2.86,39,39,0,0,0,6.6,2l6.79,1.56a52.45,52.45,0,0,1,9.39,3,25.55,25.55,0,0,1,6.94,4.33,17,17,0,0,1,4.32,5.94,18.86,18.86,0,0,1,1.49,7.7,20.5,20.5,0,0,1-3.42,11.85,21.81,21.81,0,0,1-9.82,7.72A39.07,39.07,0,0,1,866.93,1553.54Z"/><path class="cls-1" d="M959.65,1553.49a34.17,34.17,0,0,1-17.48-4.5A31.86,31.86,0,0,1,930,1536.11q-4.47-8.38-4.47-20.07T930,1495.9a31.85,31.85,0,0,1,12.22-12.9,36.14,36.14,0,0,1,34.93,0,32,32,0,0,1,12.22,12.9q4.48,8.41,4.49,20.14t-4.49,20.09A31.8,31.8,0,0,1,977.1,1549,34.12,34.12,0,0,1,959.65,1553.49Zm0-13.25a17.77,17.77,0,0,0,9.92-2.81,18.36,18.36,0,0,0,6.7-8.24,37.62,37.62,0,0,0,0-26.39,18.36,18.36,0,0,0-6.7-8.24,18.93,18.93,0,0,0-19.85,0,18.46,18.46,0,0,0-6.72,8.26,32.55,32.55,0,0,0-2.42,13.22,32.2,32.2,0,0,0,2.42,13.15,18.46,18.46,0,0,0,6.72,8.24A17.78,17.78,0,0,0,959.65,1540.24Zm-5.28-12.86h12.71l6.74,8.66,6,7,12.32,15.39H978.37l-8.26-10.36-4.4-5.77Z"/><path class="cls-1" d="M1026.31,1552.41v-72.83h49.42v12.66h-34.46v19h31.67v12.37h-31.67v28.79Z"/><path class="cls-1" d="M1104.17,1492.24v-12.66h59.34v12.66h-22.14v60.17h-15v-60.17Z"/><path class="cls-1" d="M1211.79,971.36l69.76-73.5V653.68L1152,516.64H849.26l-129.57,137V897.86l68.52,72.25-81,86V1314L836.8,1451h326.4l129.56-137V1056.07Zm-16.4,294.47-86.47,91.46H891.08l-86.47-91.46v-172.1l54-57.37,282.7.83,54,56.54Zm-37.24-503.32V937.24H841.85V762.51H804.61l97.7-89.29,87.49-80c4.53-4.15,15.87-4.15,20.4,0l87.49,80,97.7,89.29Z"/></svg>