<?xml version="1.0" encoding="utf-8"?>
<!-- Generator: Adobe Illustrator 25.2.0, SVG Export Plug-In . SVG Version: 6.00 Build 0)  -->
<svg version="1.1" id="Layer_1" xmlns="http://www.w3.org/2000/svg" xmlns:xlink="http://www.w3.org/1999/xlink" x="0px" y="0px"
	 viewBox="0 0 72 32" style="enable-background:new 0 0 72 32;" xml:space="preserve">
<style type="text/css">
	.st0{fill:#FC6600;}
	.st1{fill:#FFFFFF;}
</style>
<g>
	<g>
		<g>
			<path class="st0" d="M34.69,20c-0.29-0.26-0.65-0.49-1.08-0.67c-0.43-0.19-0.91-0.34-1.46-0.46l-1.06-0.24
				c-0.4-0.09-0.74-0.2-1.03-0.32c-0.28-0.12-0.5-0.27-0.65-0.45c-0.15-0.18-0.22-0.39-0.22-0.64c0-0.27,0.08-0.51,0.24-0.71
				c0.16-0.21,0.38-0.37,0.67-0.48c0.29-0.12,0.63-0.17,1.01-0.17c0.6,0,1.08,0.14,1.44,0.43c0.36,0.28,0.56,0.68,0.6,1.18h2.22
				c-0.02-0.72-0.21-1.35-0.56-1.88c-0.35-0.53-0.84-0.94-1.47-1.23c-0.63-0.29-1.37-0.43-2.23-0.43c-0.84,0-1.59,0.14-2.23,0.43
				c-0.64,0.29-1.15,0.69-1.51,1.2c-0.36,0.51-0.54,1.11-0.54,1.8c0,0.82,0.27,1.48,0.82,1.99c0.55,0.51,1.34,0.89,2.39,1.13
				l1.22,0.28c0.45,0.1,0.82,0.22,1.12,0.35c0.29,0.13,0.51,0.29,0.66,0.46c0.15,0.18,0.22,0.39,0.22,0.65
				c0,0.29-0.09,0.54-0.27,0.76c-0.18,0.22-0.42,0.39-0.74,0.51c-0.31,0.12-0.68,0.18-1.11,0.18c-0.46,0-0.85-0.07-1.19-0.22
				c-0.34-0.14-0.61-0.36-0.8-0.63c-0.2-0.28-0.3-0.61-0.32-1.02h-2.26c0.01,0.81,0.2,1.5,0.57,2.07c0.37,0.57,0.89,1,1.57,1.29
				c0.68,0.29,1.49,0.44,2.43,0.44c0.92,0,1.72-0.14,2.38-0.42c0.66-0.28,1.17-0.68,1.53-1.2c0.36-0.52,0.53-1.13,0.53-1.85
				c0-0.45-0.08-0.85-0.23-1.2C35.21,20.57,34.98,20.26,34.69,20z"/>
			<path class="st0" d="M47.8,22.5c0.47-0.87,0.7-1.91,0.7-3.13c0-1.22-0.23-2.26-0.7-3.13c-0.47-0.87-1.1-1.54-1.9-2.01
				c-0.8-0.47-1.71-0.7-2.72-0.7c-1.01,0-1.92,0.23-2.72,0.7c-0.8,0.47-1.44,1.14-1.9,2.01c-0.46,0.87-0.7,1.92-0.7,3.13
				c0,1.21,0.23,2.25,0.7,3.12c0.46,0.87,1.1,1.54,1.9,2.01c0.8,0.47,1.71,0.7,2.72,0.7c0.72,0,1.39-0.12,2.01-0.36l0.9,1.13h2.15
				l-1.6-2C47.1,23.57,47.49,23.08,47.8,22.5z M41.64,22.7c-0.45-0.29-0.8-0.72-1.05-1.28s-0.38-1.25-0.38-2.05
				c0-0.81,0.13-1.49,0.38-2.06c0.25-0.57,0.6-0.99,1.05-1.29c0.45-0.29,0.96-0.44,1.54-0.44c0.58,0,1.1,0.15,1.54,0.44
				c0.45,0.29,0.79,0.72,1.04,1.28c0.25,0.56,0.37,1.25,0.37,2.06c0,0.8-0.12,1.48-0.37,2.05c-0.15,0.33-0.33,0.62-0.54,0.85
				l-0.89-1.14h-1.98l1.47,1.94c-0.21,0.04-0.42,0.07-0.65,0.07C42.6,23.14,42.08,22.99,41.64,22.7z"/>
			<polygon class="st0" points="51.44,25.42 53.76,25.42 53.76,20.94 58.69,20.94 58.69,19.01 53.76,19.01 53.76,16.05 59.13,16.05 
				59.13,14.08 51.44,14.08 			"/>
			<polygon class="st0" points="62.76,16.05 66.22,16.05 66.22,25.42 68.55,25.42 68.55,16.05 72,16.05 72,14.08 62.76,14.08 			"/>
		</g>
		<g>
			<path class="st0" d="M25.19,12.28v13.69H2.65V12.28H0l6.96-6.36l6.23-5.7c0.32-0.3,1.13-0.3,1.45,0l6.23,5.7l6.96,6.36H25.19z"/>
			<g>
				<path class="st1" d="M8.12,21.98v-5.12l1.61-1.71l-1.36-1.43V8.88l2.57-2.72h6.01l2.57,2.72v4.84l-1.38,1.46l1.61,1.68v5.12
					l-2.57,2.72h-6.48L8.12,21.98z M16.27,16.37h-4.7l-1.19,1.21v3.68l1.29,1.31h4.52l1.26-1.31v-3.68L16.27,16.37z M10.64,13.01
					l1.21,1.24h4.18l1.21-1.24V9.6l-1.29-1.31h-4.03L10.64,9.6V13.01z"/>
			</g>
		</g>
	</g>
	<g>
		<path d="M4.41,27.89v0.4H3.14v0.88h0.99v0.4H3.14v1.31H2.65v-2.99H4.41z"/>
		<path d="M6.22,28.62v2.25H5.73v-2.25H6.22z"/>
		<path d="M6.22,27.89v0.45H5.73v-0.45H6.22z"/>
		<path d="M9.42,28.58c0.15,0.08,0.26,0.19,0.35,0.34c0.08,0.15,0.12,0.34,0.12,0.55v1.4H9.4v-1.32c0-0.21-0.05-0.37-0.16-0.49
			c-0.11-0.11-0.25-0.17-0.43-0.17c-0.18,0-0.33,0.06-0.44,0.17c-0.11,0.11-0.16,0.28-0.16,0.49v1.32H7.72v-2.37h0.49v0.27
			c0.08-0.1,0.18-0.17,0.31-0.23c0.12-0.05,0.26-0.08,0.4-0.08C9.1,28.47,9.27,28.51,9.42,28.58z"/>
		<path d="M11.36,29.05c0.1-0.18,0.23-0.33,0.4-0.43c0.17-0.1,0.36-0.15,0.57-0.15c0.15,0,0.31,0.03,0.46,0.1
			c0.15,0.07,0.27,0.16,0.36,0.27v-1.14h0.49v3.18h-0.49v-0.36c-0.08,0.11-0.19,0.21-0.33,0.28c-0.14,0.07-0.3,0.11-0.49,0.11
			c-0.21,0-0.39-0.05-0.57-0.16c-0.17-0.1-0.31-0.25-0.4-0.44c-0.1-0.19-0.15-0.4-0.15-0.64C11.21,29.44,11.26,29.23,11.36,29.05z
			 M13.04,29.26c-0.07-0.12-0.16-0.21-0.26-0.28c-0.11-0.06-0.23-0.09-0.35-0.09c-0.13,0-0.24,0.03-0.35,0.09
			c-0.11,0.06-0.2,0.15-0.26,0.27c-0.07,0.12-0.1,0.26-0.1,0.42c0,0.16,0.03,0.31,0.1,0.43c0.07,0.12,0.16,0.22,0.27,0.28
			c0.11,0.06,0.23,0.1,0.35,0.1c0.13,0,0.24-0.03,0.35-0.09c0.11-0.06,0.2-0.16,0.26-0.28c0.07-0.12,0.1-0.26,0.1-0.43
			S13.11,29.38,13.04,29.26z"/>
		<path d="M19.25,28.51l-1.45,3.48h-0.51l0.48-1.15l-0.93-2.33h0.55l0.67,1.81l0.69-1.81H19.25z"/>
		<path d="M20.9,30.76c-0.18-0.1-0.32-0.24-0.43-0.43c-0.1-0.18-0.15-0.4-0.15-0.64c0-0.24,0.05-0.45,0.16-0.64
			c0.11-0.19,0.25-0.33,0.43-0.43c0.18-0.1,0.39-0.15,0.61-0.15c0.23,0,0.43,0.05,0.61,0.15c0.18,0.1,0.33,0.24,0.43,0.43
			c0.11,0.19,0.16,0.4,0.16,0.64s-0.05,0.45-0.16,0.64c-0.11,0.19-0.26,0.33-0.44,0.43c-0.19,0.1-0.39,0.15-0.62,0.15
			C21.29,30.91,21.08,30.86,20.9,30.76z M21.86,30.4c0.11-0.06,0.2-0.15,0.27-0.27c0.07-0.12,0.1-0.27,0.1-0.44s-0.03-0.32-0.1-0.44
			c-0.07-0.12-0.15-0.21-0.26-0.27c-0.11-0.06-0.23-0.09-0.35-0.09c-0.13,0-0.24,0.03-0.35,0.09c-0.11,0.06-0.19,0.15-0.26,0.27
			c-0.06,0.12-0.09,0.26-0.09,0.44c0,0.26,0.07,0.45,0.2,0.59c0.13,0.14,0.29,0.21,0.49,0.21C21.64,30.49,21.75,30.46,21.86,30.4z"
			/>
		<path d="M26.23,28.51v2.37h-0.49v-0.28c-0.08,0.1-0.18,0.17-0.3,0.23c-0.12,0.06-0.26,0.08-0.4,0.08c-0.19,0-0.35-0.04-0.5-0.12
			c-0.15-0.08-0.26-0.19-0.35-0.34c-0.08-0.15-0.13-0.34-0.13-0.55v-1.39h0.49v1.32c0,0.21,0.05,0.37,0.16,0.49
			c0.11,0.11,0.25,0.17,0.43,0.17c0.18,0,0.33-0.06,0.44-0.17c0.11-0.11,0.16-0.28,0.16-0.49v-1.32H26.23z"/>
		<path d="M28.51,28.57c0.12-0.07,0.26-0.1,0.42-0.1v0.51h-0.12c-0.19,0-0.34,0.05-0.44,0.15c-0.1,0.1-0.15,0.27-0.15,0.51v1.25
			h-0.49v-2.37h0.49v0.34C28.3,28.73,28.39,28.64,28.51,28.57z"/>
		<path d="M33.05,28.58c0.14-0.07,0.31-0.11,0.49-0.11c0.21,0,0.39,0.05,0.57,0.15c0.17,0.1,0.3,0.24,0.4,0.43
			c0.1,0.18,0.15,0.39,0.15,0.63c0,0.24-0.05,0.45-0.15,0.64c-0.1,0.19-0.23,0.33-0.4,0.44c-0.17,0.1-0.36,0.16-0.57,0.16
			c-0.18,0-0.34-0.04-0.48-0.11c-0.14-0.07-0.26-0.16-0.34-0.27V32h-0.49v-3.49h0.49v0.35C32.79,28.74,32.91,28.65,33.05,28.58z
			 M34.05,29.26c-0.07-0.12-0.16-0.21-0.27-0.27c-0.11-0.06-0.23-0.09-0.35-0.09c-0.12,0-0.24,0.03-0.35,0.09
			c-0.11,0.06-0.2,0.15-0.27,0.28c-0.07,0.12-0.1,0.26-0.1,0.43s0.03,0.31,0.1,0.43c0.07,0.12,0.16,0.21,0.27,0.28
			c0.11,0.06,0.23,0.09,0.35,0.09c0.13,0,0.24-0.03,0.35-0.1c0.11-0.06,0.2-0.16,0.27-0.28c0.07-0.12,0.1-0.27,0.1-0.43
			C34.15,29.52,34.12,29.37,34.05,29.26z"/>
		<path d="M36.77,28.57c0.12-0.07,0.26-0.1,0.42-0.1v0.51h-0.12c-0.19,0-0.34,0.05-0.44,0.15c-0.1,0.1-0.15,0.27-0.15,0.51v1.25
			h-0.49v-2.37h0.49v0.34C36.56,28.73,36.65,28.64,36.77,28.57z"/>
		<path d="M40.66,29.87h-1.81c0.01,0.19,0.08,0.34,0.21,0.46c0.13,0.11,0.28,0.17,0.46,0.17c0.26,0,0.45-0.11,0.56-0.33h0.53
			c-0.07,0.22-0.2,0.4-0.39,0.54c-0.19,0.14-0.42,0.21-0.7,0.21c-0.23,0-0.43-0.05-0.61-0.15c-0.18-0.1-0.32-0.24-0.42-0.43
			c-0.1-0.18-0.15-0.4-0.15-0.64c0-0.24,0.05-0.46,0.15-0.64c0.1-0.18,0.24-0.33,0.42-0.43c0.18-0.1,0.38-0.15,0.62-0.15
			c0.22,0,0.42,0.05,0.6,0.15c0.17,0.1,0.31,0.23,0.41,0.41c0.1,0.18,0.15,0.38,0.15,0.61C40.68,29.72,40.67,29.8,40.66,29.87z
			 M40.16,29.48c0-0.18-0.07-0.33-0.19-0.43c-0.13-0.11-0.28-0.16-0.47-0.16c-0.17,0-0.31,0.05-0.43,0.16
			c-0.12,0.11-0.19,0.25-0.21,0.44H40.16z"/>
		<path d="M43.01,28.91h-0.44v1.97h-0.49v-1.97H41.8v-0.4h0.28v-0.17c0-0.27,0.07-0.47,0.22-0.6c0.14-0.12,0.37-0.19,0.68-0.19v0.41
			c-0.15,0-0.25,0.03-0.31,0.08c-0.06,0.06-0.09,0.15-0.09,0.29v0.17h0.44V28.91z"/>
		<path d="M46.46,29.87h-1.81c0.01,0.19,0.08,0.34,0.21,0.46c0.13,0.11,0.28,0.17,0.46,0.17c0.26,0,0.45-0.11,0.56-0.33h0.53
			c-0.07,0.22-0.2,0.4-0.39,0.54c-0.19,0.14-0.42,0.21-0.7,0.21c-0.23,0-0.43-0.05-0.61-0.15c-0.18-0.1-0.32-0.24-0.42-0.43
			c-0.1-0.18-0.15-0.4-0.15-0.64c0-0.24,0.05-0.46,0.15-0.64c0.1-0.18,0.24-0.33,0.42-0.43c0.18-0.1,0.38-0.15,0.62-0.15
			c0.22,0,0.42,0.05,0.6,0.15c0.17,0.1,0.31,0.23,0.41,0.41c0.1,0.18,0.15,0.38,0.15,0.61C46.47,29.72,46.47,29.8,46.46,29.87z
			 M45.96,29.48c0-0.18-0.07-0.33-0.19-0.43c-0.13-0.11-0.28-0.16-0.47-0.16c-0.17,0-0.31,0.05-0.43,0.16
			c-0.12,0.11-0.19,0.25-0.21,0.44H45.96z"/>
		<path d="M47.8,29.05c0.1-0.18,0.24-0.33,0.41-0.43c0.17-0.1,0.38-0.15,0.6-0.15c0.29,0,0.52,0.07,0.71,0.2
			c0.19,0.14,0.31,0.33,0.38,0.58h-0.53c-0.04-0.12-0.11-0.21-0.21-0.28c-0.09-0.07-0.21-0.1-0.36-0.1c-0.2,0-0.36,0.07-0.48,0.21
			c-0.12,0.14-0.18,0.34-0.18,0.6c0,0.26,0.06,0.45,0.18,0.6c0.12,0.14,0.28,0.21,0.48,0.21c0.28,0,0.47-0.12,0.56-0.37h0.53
			c-0.07,0.24-0.2,0.43-0.39,0.57c-0.19,0.14-0.42,0.21-0.7,0.21c-0.23,0-0.43-0.05-0.6-0.15c-0.17-0.1-0.31-0.24-0.41-0.43
			c-0.1-0.18-0.15-0.4-0.15-0.64C47.65,29.44,47.7,29.23,47.8,29.05z"/>
		<path d="M51.82,28.91v1.31c0,0.09,0.02,0.15,0.06,0.19c0.04,0.04,0.11,0.06,0.21,0.06h0.3v0.41h-0.39c-0.22,0-0.39-0.05-0.51-0.15
			c-0.12-0.1-0.18-0.27-0.18-0.5v-1.31h-0.28v-0.4h0.28v-0.59h0.49v0.59h0.58v0.4H51.82z"/>
		<path d="M56.05,30.81c-0.15-0.07-0.26-0.16-0.35-0.28c-0.09-0.12-0.13-0.25-0.14-0.39h0.51c0.01,0.1,0.06,0.18,0.14,0.25
			c0.09,0.07,0.2,0.1,0.33,0.1c0.14,0,0.24-0.03,0.32-0.08c0.08-0.05,0.11-0.12,0.11-0.2c0-0.09-0.04-0.15-0.13-0.2
			c-0.08-0.04-0.22-0.09-0.4-0.14c-0.18-0.05-0.32-0.1-0.43-0.14c-0.11-0.05-0.21-0.12-0.29-0.21c-0.08-0.09-0.12-0.22-0.12-0.37
			c0-0.13,0.04-0.24,0.11-0.35c0.07-0.1,0.18-0.19,0.32-0.25c0.14-0.06,0.3-0.09,0.48-0.09c0.27,0,0.49,0.07,0.65,0.2
			c0.16,0.14,0.25,0.32,0.26,0.56h-0.49c-0.01-0.11-0.05-0.19-0.13-0.25c-0.08-0.06-0.18-0.09-0.31-0.09c-0.13,0-0.23,0.02-0.3,0.07
			c-0.07,0.05-0.1,0.11-0.1,0.19c0,0.06,0.02,0.12,0.07,0.16c0.05,0.04,0.1,0.08,0.17,0.1c0.07,0.02,0.16,0.06,0.29,0.09
			c0.17,0.05,0.31,0.09,0.42,0.14c0.11,0.05,0.21,0.12,0.29,0.21c0.08,0.09,0.12,0.21,0.12,0.37c0,0.13-0.04,0.26-0.11,0.36
			c-0.07,0.11-0.18,0.19-0.32,0.25c-0.14,0.06-0.3,0.09-0.48,0.09C56.36,30.91,56.19,30.88,56.05,30.81z"/>
		<path d="M59.67,28.58c0.14-0.07,0.31-0.11,0.49-0.11c0.21,0,0.39,0.05,0.57,0.15c0.17,0.1,0.3,0.24,0.4,0.43
			c0.1,0.18,0.15,0.39,0.15,0.63c0,0.24-0.05,0.45-0.15,0.64c-0.1,0.19-0.23,0.33-0.4,0.44c-0.17,0.1-0.36,0.16-0.57,0.16
			c-0.18,0-0.34-0.04-0.48-0.11c-0.14-0.07-0.26-0.16-0.34-0.27V32h-0.49v-3.49h0.49v0.35C59.42,28.74,59.53,28.65,59.67,28.58z
			 M60.67,29.26c-0.07-0.12-0.16-0.21-0.27-0.27c-0.11-0.06-0.23-0.09-0.35-0.09c-0.12,0-0.24,0.03-0.35,0.09
			c-0.11,0.06-0.2,0.15-0.27,0.28c-0.07,0.12-0.1,0.26-0.1,0.43s0.03,0.31,0.1,0.43c0.07,0.12,0.16,0.21,0.27,0.28
			c0.11,0.06,0.23,0.09,0.35,0.09c0.13,0,0.24-0.03,0.35-0.1c0.11-0.06,0.2-0.16,0.27-0.28c0.07-0.12,0.1-0.27,0.1-0.43
			C60.77,29.52,60.74,29.37,60.67,29.26z"/>
		<path d="M62.6,29.05c0.1-0.18,0.23-0.33,0.4-0.43c0.17-0.1,0.36-0.15,0.57-0.15c0.19,0,0.35,0.04,0.49,0.11
			c0.14,0.07,0.25,0.16,0.33,0.27v-0.34h0.49v2.37h-0.49v-0.35c-0.08,0.11-0.2,0.2-0.34,0.28c-0.14,0.07-0.31,0.11-0.49,0.11
			c-0.2,0-0.39-0.05-0.56-0.16c-0.17-0.1-0.3-0.25-0.4-0.44c-0.1-0.19-0.15-0.4-0.15-0.64C62.45,29.44,62.5,29.23,62.6,29.05z
			 M64.29,29.26c-0.07-0.12-0.16-0.21-0.26-0.28c-0.11-0.06-0.23-0.09-0.35-0.09c-0.13,0-0.24,0.03-0.35,0.09
			c-0.11,0.06-0.2,0.15-0.26,0.27c-0.07,0.12-0.1,0.26-0.1,0.42c0,0.16,0.03,0.31,0.1,0.43c0.07,0.12,0.16,0.22,0.27,0.28
			c0.11,0.06,0.23,0.1,0.35,0.1c0.13,0,0.24-0.03,0.35-0.09c0.11-0.06,0.2-0.16,0.26-0.28c0.07-0.12,0.1-0.26,0.1-0.43
			S64.36,29.38,64.29,29.26z"/>
		<path d="M66.38,29.05c0.1-0.18,0.24-0.33,0.41-0.43c0.17-0.1,0.38-0.15,0.6-0.15c0.29,0,0.52,0.07,0.71,0.2
			c0.19,0.14,0.31,0.33,0.38,0.58h-0.53c-0.04-0.12-0.11-0.21-0.21-0.28c-0.09-0.07-0.21-0.1-0.36-0.1c-0.2,0-0.36,0.07-0.48,0.21
			c-0.12,0.14-0.18,0.34-0.18,0.6c0,0.26,0.06,0.45,0.18,0.6c0.12,0.14,0.28,0.21,0.48,0.21c0.28,0,0.47-0.12,0.56-0.37h0.53
			c-0.07,0.24-0.2,0.43-0.39,0.57c-0.19,0.14-0.42,0.21-0.7,0.21c-0.23,0-0.43-0.05-0.6-0.15c-0.17-0.1-0.31-0.24-0.41-0.43
			c-0.1-0.18-0.15-0.4-0.15-0.64C66.23,29.44,66.28,29.23,66.38,29.05z"/>
		<path d="M71.98,29.87h-1.81c0.01,0.19,0.08,0.34,0.21,0.46c0.13,0.11,0.28,0.17,0.46,0.17c0.26,0,0.45-0.11,0.56-0.33h0.53
			c-0.07,0.22-0.2,0.4-0.39,0.54c-0.19,0.14-0.42,0.21-0.7,0.21c-0.23,0-0.43-0.05-0.61-0.15c-0.18-0.1-0.32-0.24-0.42-0.43
			c-0.1-0.18-0.15-0.4-0.15-0.64c0-0.24,0.05-0.46,0.15-0.64c0.1-0.18,0.24-0.33,0.42-0.43c0.18-0.1,0.38-0.15,0.62-0.15
			c0.22,0,0.42,0.05,0.6,0.15c0.17,0.1,0.31,0.23,0.41,0.41C71.95,29.2,72,29.4,72,29.63C72,29.72,71.99,29.8,71.98,29.87z
			 M71.49,29.48c0-0.18-0.07-0.33-0.19-0.43c-0.13-0.11-0.28-0.16-0.47-0.16c-0.17,0-0.31,0.05-0.43,0.16
			c-0.12,0.11-0.19,0.25-0.21,0.44H71.49z"/>
	</g>
</g>
</svg>
