<svg width="154" height="68" viewBox="0 0 154 68" fill="none" xmlns="http://www.w3.org/2000/svg">
<g clip-path="url(#clip0_1191_18119)">
<path d="M73.8527 42.5003C73.2364 41.9478 72.4714 41.4591 71.5577 41.0766C70.6439 40.6728 69.6239 40.3541 68.4552 40.0991L66.2027 39.5891C65.3527 39.3978 64.6302 39.1641 64.0139 38.9091C63.4189 38.6541 62.9514 38.3353 62.6327 37.9528C62.3139 37.5703 62.1652 37.1241 62.1652 36.5928C62.1652 36.0191 62.3352 35.5091 62.6752 35.0841C63.0152 34.6378 63.4827 34.2978 64.0989 34.0641C64.7152 33.8091 65.4377 33.7028 66.2452 33.7028C67.5202 33.7028 68.5402 34.0003 69.3052 34.6166C70.0702 35.2116 70.4952 36.0616 70.5802 37.1241H75.2977C75.2552 35.5941 74.8514 34.2553 74.1077 33.1291C73.3639 32.0028 72.3227 31.1316 70.9839 30.5153C69.6452 29.8991 68.0727 29.6016 66.2452 29.6016C64.4602 29.6016 62.8664 29.8991 61.5064 30.5153C60.1464 31.1316 59.0627 31.9816 58.2977 33.0653C57.5327 34.1491 57.1502 35.4241 57.1502 36.8903C57.1502 38.6328 57.7239 40.0353 58.8927 41.1191C60.0614 42.2028 61.7402 43.0103 63.9714 43.5203L66.5639 44.1153C67.5202 44.3278 68.3064 44.5828 68.9439 44.8591C69.5602 45.1353 70.0277 45.4753 70.3464 45.8366C70.6652 46.2191 70.8139 46.6653 70.8139 47.2178C70.8139 47.8341 70.6227 48.3653 70.2402 48.8328C69.8577 49.3003 69.3477 49.6616 68.6677 49.9166C68.0089 50.1716 67.2227 50.2991 66.3089 50.2991C65.3314 50.2991 64.5027 50.1503 63.7802 49.8316C63.0577 49.5341 62.4839 49.0666 62.0802 48.4928C61.6552 47.8978 61.4427 47.1966 61.4002 46.3253H56.5977C56.6189 48.0466 57.0227 49.5128 57.8089 50.7241C58.5952 51.9353 59.7002 52.8491 61.1452 53.4653C62.5902 54.0816 64.3114 54.4003 66.3089 54.4003C68.2639 54.4003 69.9639 54.1028 71.3664 53.5078C72.7689 52.9128 73.8527 52.0628 74.6177 50.9578C75.3827 49.8528 75.7439 48.5566 75.7439 47.0266C75.7439 46.0703 75.5739 45.2203 75.2552 44.4766C74.9577 43.7116 74.4689 43.0528 73.8527 42.5003Z" fill="#FC6600"/>
<path d="M101.712 47.8113C102.711 45.9625 103.2 43.7525 103.2 41.16C103.2 38.5675 102.711 36.3575 101.712 34.5087C100.714 32.66 99.3748 31.2362 97.6748 30.2375C95.9748 29.2387 94.0411 28.75 91.8948 28.75C89.7486 28.75 87.8148 29.2387 86.1148 30.2375C84.4148 31.2362 83.0548 32.66 82.0773 34.5087C81.0998 36.3575 80.5898 38.5888 80.5898 41.16C80.5898 43.7313 81.0786 45.9412 82.0773 47.79C83.0548 49.6388 84.4148 51.0625 86.1148 52.0613C87.8148 53.06 89.7486 53.5488 91.8948 53.5488C93.4248 53.5488 94.8486 53.2938 96.1661 52.7838L98.0786 55.185H102.647L99.2473 50.935C100.225 50.085 101.054 49.0438 101.712 47.8113ZM88.6223 48.2363C87.6661 47.62 86.9223 46.7063 86.3911 45.5163C85.8598 44.3263 85.5836 42.86 85.5836 41.16C85.5836 39.4388 85.8598 37.9937 86.3911 36.7825C86.9223 35.5712 87.6661 34.6788 88.6223 34.0413C89.5786 33.425 90.6623 33.1063 91.8948 33.1063C93.1273 33.1063 94.2323 33.425 95.1673 34.0413C96.1236 34.6575 96.8461 35.5712 97.3773 36.7612C97.9086 37.9512 98.1636 39.4175 98.1636 41.1388C98.1636 42.8388 97.9086 44.2838 97.3773 45.495C97.0586 46.1963 96.6761 46.8125 96.2298 47.3013L94.3386 44.8788H90.1311L93.2548 49.0012C92.8086 49.0863 92.3623 49.15 91.8736 49.15C90.6623 49.1712 89.5573 48.8525 88.6223 48.2363Z" fill="#FC6600"/>
<path d="M109.445 54.0194H114.375V44.4994H124.852V40.3981H114.375V34.1081H125.787V29.9219H109.445V54.0194Z" fill="#FC6600"/>
<path d="M133.5 34.1081H140.853V54.0194H145.804V34.1081H153.135V29.9219H133.5V34.1081Z" fill="#FC6600"/>
<path d="M53.6655 26.0978V55.1891H5.76797V26.0978H0.136719L14.9267 12.5828L28.1655 0.470313C28.8455 -0.167188 30.5667 -0.167188 31.2467 0.470313L44.4855 12.5828L59.2755 26.0978H53.6655Z" fill="#FC6600"/>
<path d="M17.3906 46.7113V35.8313L20.8119 32.1975L17.9219 29.1588V18.8738L23.3831 13.0938H36.1544L41.6156 18.8738V29.1588L38.6831 32.2613L42.1044 35.8313V46.7113L36.6431 52.4913H22.8731L17.3906 46.7113ZM34.7094 34.79H24.7219L22.1931 37.3612V45.1813L24.9344 47.965H34.5394L37.2169 45.1813V37.3612L34.7094 34.79ZM22.7456 27.65L25.3169 30.285H34.1994L36.7706 27.65V20.4038L34.0294 17.62H25.4656L22.7456 20.4038V27.65Z" fill="#222222"/>
<path d="M7.64794 64.368H10.3679V65H6.78394V64.424L9.48794 60.056H6.81594V59.424H10.3519V60L7.64794 64.368ZM15.4801 62.64C15.4801 62.7787 15.4721 62.9253 15.4561 63.08H11.9521C11.9787 63.512 12.1254 63.8507 12.3921 64.096C12.6641 64.336 12.9921 64.456 13.3761 64.456C13.6907 64.456 13.9521 64.384 14.1601 64.24C14.3734 64.0907 14.5227 63.8933 14.6081 63.648H15.3921C15.2747 64.0693 15.0401 64.4133 14.6881 64.68C14.3361 64.9413 13.8987 65.072 13.3761 65.072C12.9601 65.072 12.5867 64.9787 12.2561 64.792C11.9307 64.6053 11.6747 64.3413 11.4881 64C11.3014 63.6533 11.2081 63.2533 11.2081 62.8C11.2081 62.3467 11.2987 61.9493 11.4801 61.608C11.6614 61.2667 11.9147 61.0053 12.2401 60.824C12.5707 60.6373 12.9494 60.544 13.3761 60.544C13.7921 60.544 14.1601 60.6347 14.4801 60.816C14.8001 60.9973 15.0454 61.248 15.2161 61.568C15.3921 61.8827 15.4801 62.24 15.4801 62.64ZM14.7281 62.488C14.7281 62.2107 14.6667 61.9733 14.5441 61.776C14.4214 61.5733 14.2534 61.4213 14.0401 61.32C13.8321 61.2133 13.6001 61.16 13.3441 61.16C12.9761 61.16 12.6614 61.2773 12.4001 61.512C12.1441 61.7467 11.9974 62.072 11.9601 62.488H14.7281ZM17.289 61.328C17.417 61.0773 17.5983 60.8827 17.833 60.744C18.073 60.6053 18.3637 60.536 18.705 60.536V61.288H18.513C17.697 61.288 17.289 61.7307 17.289 62.616V65H16.561V60.616H17.289V61.328ZM21.5774 65.072C21.1667 65.072 20.7934 64.9787 20.4574 64.792C20.1267 64.6053 19.8654 64.3413 19.6734 64C19.4867 63.6533 19.3934 63.2533 19.3934 62.8C19.3934 62.352 19.4894 61.9573 19.6814 61.616C19.8787 61.2693 20.1454 61.0053 20.4814 60.824C20.8174 60.6373 21.1934 60.544 21.6094 60.544C22.0254 60.544 22.4014 60.6373 22.7374 60.824C23.0734 61.0053 23.3374 61.2667 23.5294 61.608C23.7267 61.9493 23.8254 62.3467 23.8254 62.8C23.8254 63.2533 23.724 63.6533 23.5214 64C23.324 64.3413 23.0547 64.6053 22.7134 64.792C22.372 64.9787 21.9934 65.072 21.5774 65.072ZM21.5774 64.432C21.8387 64.432 22.084 64.3707 22.3134 64.248C22.5427 64.1253 22.7267 63.9413 22.8654 63.696C23.0094 63.4507 23.0814 63.152 23.0814 62.8C23.0814 62.448 23.012 62.1493 22.8734 61.904C22.7347 61.6587 22.5534 61.4773 22.3294 61.36C22.1054 61.2373 21.8627 61.176 21.6014 61.176C21.3347 61.176 21.0894 61.2373 20.8654 61.36C20.6467 61.4773 20.4707 61.6587 20.3374 61.904C20.204 62.1493 20.1374 62.448 20.1374 62.8C20.1374 63.1573 20.2014 63.4587 20.3294 63.704C20.4627 63.9493 20.6387 64.1333 20.8574 64.256C21.076 64.3733 21.316 64.432 21.5774 64.432ZM29.9474 62.128C30.15 62.16 30.334 62.2427 30.4994 62.376C30.67 62.5093 30.8034 62.6747 30.8994 62.872C31.0007 63.0693 31.0514 63.28 31.0514 63.504C31.0514 63.7867 30.9794 64.0427 30.8354 64.272C30.6914 64.496 30.4807 64.6747 30.2034 64.808C29.9314 64.936 29.6087 65 29.2354 65H27.1554V59.424H29.1554C29.534 59.424 29.8567 59.488 30.1234 59.616C30.39 59.7387 30.59 59.9067 30.7234 60.12C30.8567 60.3333 30.9234 60.5733 30.9234 60.84C30.9234 61.1707 30.8327 61.4453 30.6514 61.664C30.4754 61.8773 30.2407 62.032 29.9474 62.128ZM27.8834 61.832H29.1074C29.4487 61.832 29.7127 61.752 29.8994 61.592C30.086 61.432 30.1794 61.2107 30.1794 60.928C30.1794 60.6453 30.086 60.424 29.8994 60.264C29.7127 60.104 29.4434 60.024 29.0914 60.024H27.8834V61.832ZM29.1714 64.4C29.534 64.4 29.8167 64.3147 30.0194 64.144C30.222 63.9733 30.3234 63.736 30.3234 63.432C30.3234 63.1227 30.2167 62.88 30.0034 62.704C29.79 62.5227 29.5047 62.432 29.1474 62.432H27.8834V64.4H29.1714ZM32.9096 61.328C33.0376 61.0773 33.219 60.8827 33.4536 60.744C33.6936 60.6053 33.9843 60.536 34.3256 60.536V61.288H34.1336C33.3176 61.288 32.9096 61.7307 32.9096 62.616V65H32.1816V60.616H32.9096V61.328ZM37.198 65.072C36.7873 65.072 36.414 64.9787 36.078 64.792C35.7473 64.6053 35.486 64.3413 35.294 64C35.1073 63.6533 35.014 63.2533 35.014 62.8C35.014 62.352 35.11 61.9573 35.302 61.616C35.4993 61.2693 35.766 61.0053 36.102 60.824C36.438 60.6373 36.814 60.544 37.23 60.544C37.646 60.544 38.022 60.6373 38.358 60.824C38.694 61.0053 38.958 61.2667 39.15 61.608C39.3473 61.9493 39.446 62.3467 39.446 62.8C39.446 63.2533 39.3447 63.6533 39.142 64C38.9447 64.3413 38.6753 64.6053 38.334 64.792C37.9927 64.9787 37.614 65.072 37.198 65.072ZM37.198 64.432C37.4593 64.432 37.7047 64.3707 37.934 64.248C38.1633 64.1253 38.3473 63.9413 38.486 63.696C38.63 63.4507 38.702 63.152 38.702 62.8C38.702 62.448 38.6327 62.1493 38.494 61.904C38.3553 61.6587 38.174 61.4773 37.95 61.36C37.726 61.2373 37.4833 61.176 37.222 61.176C36.9553 61.176 36.71 61.2373 36.486 61.36C36.2673 61.4773 36.0913 61.6587 35.958 61.904C35.8247 62.1493 35.758 62.448 35.758 62.8C35.758 63.1573 35.822 63.4587 35.95 63.704C36.0833 63.9493 36.2593 64.1333 36.478 64.256C36.6967 64.3733 36.9367 64.432 37.198 64.432ZM42.9712 65L41.2512 63.064V65H40.5232V59.08H41.2512V62.56L42.9392 60.616H43.9552L41.8912 62.8L43.9632 65H42.9712ZM48.7604 62.64C48.7604 62.7787 48.7524 62.9253 48.7364 63.08H45.2324C45.259 63.512 45.4057 63.8507 45.6724 64.096C45.9444 64.336 46.2724 64.456 46.6564 64.456C46.971 64.456 47.2324 64.384 47.4404 64.24C47.6537 64.0907 47.803 63.8933 47.8884 63.648H48.6724C48.555 64.0693 48.3204 64.4133 47.9684 64.68C47.6164 64.9413 47.179 65.072 46.6564 65.072C46.2404 65.072 45.867 64.9787 45.5364 64.792C45.211 64.6053 44.955 64.3413 44.7684 64C44.5817 63.6533 44.4884 63.2533 44.4884 62.8C44.4884 62.3467 44.579 61.9493 44.7604 61.608C44.9417 61.2667 45.195 61.0053 45.5204 60.824C45.851 60.6373 46.2297 60.544 46.6564 60.544C47.0724 60.544 47.4404 60.6347 47.7604 60.816C48.0804 60.9973 48.3257 61.248 48.4964 61.568C48.6724 61.8827 48.7604 62.24 48.7604 62.64ZM48.0084 62.488C48.0084 62.2107 47.947 61.9733 47.8244 61.776C47.7017 61.5733 47.5337 61.4213 47.3204 61.32C47.1124 61.2133 46.8804 61.16 46.6244 61.16C46.2564 61.16 45.9417 61.2773 45.6804 61.512C45.4244 61.7467 45.2777 62.072 45.2404 62.488H48.0084ZM50.5693 61.328C50.6973 61.0773 50.8786 60.8827 51.1133 60.744C51.3533 60.6053 51.644 60.536 51.9853 60.536V61.288H51.7933C50.9773 61.288 50.5693 61.7307 50.5693 62.616V65H49.8413V60.616H50.5693V61.328ZM52.6737 62.792C52.6737 62.344 52.7644 61.952 52.9457 61.616C53.127 61.2747 53.375 61.0107 53.6897 60.824C54.0097 60.6373 54.3644 60.544 54.7537 60.544C55.1377 60.544 55.471 60.6267 55.7537 60.792C56.0364 60.9573 56.247 61.1653 56.3857 61.416V60.616H57.1217V65H56.3857V64.184C56.2417 64.44 56.0257 64.6533 55.7377 64.824C55.455 64.9893 55.1244 65.072 54.7457 65.072C54.3564 65.072 54.0044 64.976 53.6897 64.784C53.375 64.592 53.127 64.3227 52.9457 63.976C52.7644 63.6293 52.6737 63.2347 52.6737 62.792ZM56.3857 62.8C56.3857 62.4693 56.319 62.1813 56.1857 61.936C56.0524 61.6907 55.871 61.504 55.6417 61.376C55.4177 61.2427 55.1697 61.176 54.8977 61.176C54.6257 61.176 54.3777 61.24 54.1537 61.368C53.9297 61.496 53.751 61.6827 53.6177 61.928C53.4844 62.1733 53.4177 62.4613 53.4177 62.792C53.4177 63.128 53.4844 63.4213 53.6177 63.672C53.751 63.9173 53.9297 64.1067 54.1537 64.24C54.3777 64.368 54.6257 64.432 54.8977 64.432C55.1697 64.432 55.4177 64.368 55.6417 64.24C55.871 64.1067 56.0524 63.9173 56.1857 63.672C56.319 63.4213 56.3857 63.1307 56.3857 62.8ZM60.2799 60.544C60.6586 60.544 60.9893 60.6267 61.2719 60.792C61.5599 60.9573 61.7733 61.1653 61.9119 61.416V60.616H62.6479V65.096C62.6479 65.496 62.5626 65.8507 62.3919 66.16C62.2213 66.4747 61.9759 66.72 61.6559 66.896C61.3413 67.072 60.9733 67.16 60.5519 67.16C59.9759 67.16 59.4959 67.024 59.1119 66.752C58.7279 66.48 58.5013 66.1093 58.4319 65.64H59.1519C59.2319 65.9067 59.3973 66.12 59.6479 66.28C59.8986 66.4453 60.1999 66.528 60.5519 66.528C60.9519 66.528 61.2773 66.4027 61.5279 66.152C61.7839 65.9013 61.9119 65.5493 61.9119 65.096V64.176C61.7679 64.432 61.5546 64.6453 61.2719 64.816C60.9893 64.9867 60.6586 65.072 60.2799 65.072C59.8906 65.072 59.5359 64.976 59.2159 64.784C58.9013 64.592 58.6533 64.3227 58.4719 63.976C58.2906 63.6293 58.1999 63.2347 58.1999 62.792C58.1999 62.344 58.2906 61.952 58.4719 61.616C58.6533 61.2747 58.9013 61.0107 59.2159 60.824C59.5359 60.6373 59.8906 60.544 60.2799 60.544ZM61.9119 62.8C61.9119 62.4693 61.8453 62.1813 61.7119 61.936C61.5786 61.6907 61.3973 61.504 61.1679 61.376C60.9439 61.2427 60.6959 61.176 60.4239 61.176C60.1519 61.176 59.9039 61.24 59.6799 61.368C59.4559 61.496 59.2773 61.6827 59.1439 61.928C59.0106 62.1733 58.9439 62.4613 58.9439 62.792C58.9439 63.128 59.0106 63.4213 59.1439 63.672C59.2773 63.9173 59.4559 64.1067 59.6799 64.24C59.9039 64.368 60.1519 64.432 60.4239 64.432C60.6959 64.432 60.9439 64.368 61.1679 64.24C61.3973 64.1067 61.5786 63.9173 61.7119 63.672C61.8453 63.4213 61.9119 63.1307 61.9119 62.8ZM67.9982 62.64C67.9982 62.7787 67.9902 62.9253 67.9742 63.08H64.4702C64.4969 63.512 64.6435 63.8507 64.9102 64.096C65.1822 64.336 65.5102 64.456 65.8942 64.456C66.2089 64.456 66.4702 64.384 66.6782 64.24C66.8915 64.0907 67.0409 63.8933 67.1262 63.648H67.9102C67.7929 64.0693 67.5582 64.4133 67.2062 64.68C66.8542 64.9413 66.4169 65.072 65.8942 65.072C65.4782 65.072 65.1049 64.9787 64.7742 64.792C64.4489 64.6053 64.1929 64.3413 64.0062 64C63.8195 63.6533 63.7262 63.2533 63.7262 62.8C63.7262 62.3467 63.8169 61.9493 63.9982 61.608C64.1795 61.2667 64.4329 61.0053 64.7582 60.824C65.0889 60.6373 65.4675 60.544 65.8942 60.544C66.3102 60.544 66.6782 60.6347 66.9982 60.816C67.3182 60.9973 67.5635 61.248 67.7342 61.568C67.9102 61.8827 67.9982 62.24 67.9982 62.64ZM67.2462 62.488C67.2462 62.2107 67.1849 61.9733 67.0622 61.776C66.9395 61.5733 66.7715 61.4213 66.5582 61.32C66.3502 61.2133 66.1182 61.16 65.8622 61.16C65.4942 61.16 65.1795 61.2773 64.9182 61.512C64.6622 61.7467 64.5155 62.072 64.4782 62.488H67.2462ZM77.1719 60.616L75.8039 65H75.0519L73.9959 61.52L72.9399 65H72.1879L70.8119 60.616H71.5559L72.5639 64.296L73.6519 60.616H74.3959L75.4599 64.304L76.4519 60.616H77.1719ZM78.3904 59.904C78.2518 59.904 78.1344 59.856 78.0384 59.76C77.9424 59.664 77.8944 59.5467 77.8944 59.408C77.8944 59.2693 77.9424 59.152 78.0384 59.056C78.1344 58.96 78.2518 58.912 78.3904 58.912C78.5238 58.912 78.6358 58.96 78.7264 59.056C78.8224 59.152 78.8704 59.2693 78.8704 59.408C78.8704 59.5467 78.8224 59.664 78.7264 59.76C78.6358 59.856 78.5238 59.904 78.3904 59.904ZM78.7424 60.616V65H78.0144V60.616H78.7424ZM80.9912 61.216V63.8C80.9912 64.0133 81.0365 64.1653 81.1272 64.256C81.2179 64.3413 81.3752 64.384 81.5992 64.384H82.1352V65H81.4792C81.0739 65 80.7699 64.9067 80.5672 64.72C80.3645 64.5333 80.2632 64.2267 80.2632 63.8V61.216H79.6952V60.616H80.2632V59.512H80.9912V60.616H82.1352V61.216H80.9912ZM85.3133 60.536C85.6439 60.536 85.9426 60.608 86.2093 60.752C86.4759 60.8907 86.6839 61.1013 86.8333 61.384C86.9879 61.6667 87.0653 62.0107 87.0653 62.416V65H86.3453V62.52C86.3453 62.0827 86.2359 61.7493 86.0173 61.52C85.7986 61.2853 85.4999 61.168 85.1213 61.168C84.7373 61.168 84.4306 61.288 84.2013 61.528C83.9773 61.768 83.8653 62.1173 83.8653 62.576V65H83.1373V59.08H83.8653V61.24C84.0093 61.016 84.2066 60.8427 84.4573 60.72C84.7133 60.5973 84.9986 60.536 85.3133 60.536ZM94.3553 61.056C94.3553 61.52 94.1953 61.9067 93.8753 62.216C93.5606 62.52 93.0779 62.672 92.4273 62.672H91.3553V65H90.6273V59.424H92.4273C93.0566 59.424 93.5339 59.576 93.8593 59.88C94.1899 60.184 94.3553 60.576 94.3553 61.056ZM92.4273 62.072C92.8326 62.072 93.1313 61.984 93.3233 61.808C93.5153 61.632 93.6113 61.3813 93.6113 61.056C93.6113 60.368 93.2166 60.024 92.4273 60.024H91.3553V62.072H92.4273ZM99.3801 62.64C99.3801 62.7787 99.3721 62.9253 99.3561 63.08H95.8521C95.8787 63.512 96.0254 63.8507 96.2921 64.096C96.5641 64.336 96.8921 64.456 97.2761 64.456C97.5907 64.456 97.8521 64.384 98.0601 64.24C98.2734 64.0907 98.4227 63.8933 98.5081 63.648H99.2921C99.1747 64.0693 98.9401 64.4133 98.5881 64.68C98.2361 64.9413 97.7987 65.072 97.2761 65.072C96.8601 65.072 96.4867 64.9787 96.1561 64.792C95.8307 64.6053 95.5747 64.3413 95.3881 64C95.2014 63.6533 95.1081 63.2533 95.1081 62.8C95.1081 62.3467 95.1987 61.9493 95.3801 61.608C95.5614 61.2667 95.8147 61.0053 96.1401 60.824C96.4707 60.6373 96.8494 60.544 97.2761 60.544C97.6921 60.544 98.0601 60.6347 98.3801 60.816C98.7001 60.9973 98.9454 61.248 99.1161 61.568C99.2921 61.8827 99.3801 62.24 99.3801 62.64ZM98.6281 62.488C98.6281 62.2107 98.5667 61.9733 98.4441 61.776C98.3214 61.5733 98.1534 61.4213 97.9401 61.32C97.7321 61.2133 97.5001 61.16 97.2441 61.16C96.8761 61.16 96.5614 61.2773 96.3001 61.512C96.0441 61.7467 95.8974 62.072 95.8601 62.488H98.6281ZM101.189 61.328C101.317 61.0773 101.498 60.8827 101.733 60.744C101.973 60.6053 102.264 60.536 102.605 60.536V61.288H102.413C101.597 61.288 101.189 61.7307 101.189 62.616V65H100.461V60.616H101.189V61.328ZM105.349 61.216H104.429V65H103.701V61.216H103.133V60.616H103.701V60.304C103.701 59.8133 103.827 59.456 104.077 59.232C104.333 59.0027 104.741 58.888 105.301 58.888V59.496C104.981 59.496 104.755 59.56 104.621 59.688C104.493 59.8107 104.429 60.016 104.429 60.304V60.616H105.349V61.216ZM110.318 62.64C110.318 62.7787 110.31 62.9253 110.294 63.08H106.79C106.817 63.512 106.964 63.8507 107.23 64.096C107.502 64.336 107.83 64.456 108.214 64.456C108.529 64.456 108.79 64.384 108.998 64.24C109.212 64.0907 109.361 63.8933 109.446 63.648H110.23C110.113 64.0693 109.878 64.4133 109.526 64.68C109.174 64.9413 108.737 65.072 108.214 65.072C107.798 65.072 107.425 64.9787 107.094 64.792C106.769 64.6053 106.513 64.3413 106.326 64C106.14 63.6533 106.046 63.2533 106.046 62.8C106.046 62.3467 106.137 61.9493 106.318 61.608C106.5 61.2667 106.753 61.0053 107.078 60.824C107.409 60.6373 107.788 60.544 108.214 60.544C108.63 60.544 108.998 60.6347 109.318 60.816C109.638 60.9973 109.884 61.248 110.054 61.568C110.23 61.8827 110.318 62.24 110.318 62.64ZM109.566 62.488C109.566 62.2107 109.505 61.9733 109.382 61.776C109.26 61.5733 109.092 61.4213 108.878 61.32C108.67 61.2133 108.438 61.16 108.182 61.16C107.814 61.16 107.5 61.2773 107.238 61.512C106.982 61.7467 106.836 62.072 106.798 62.488H109.566ZM111.127 62.8C111.127 62.3467 111.218 61.952 111.399 61.616C111.58 61.2747 111.831 61.0107 112.151 60.824C112.476 60.6373 112.847 60.544 113.263 60.544C113.802 60.544 114.244 60.6747 114.591 60.936C114.943 61.1973 115.175 61.56 115.287 62.024H114.503C114.428 61.7573 114.282 61.5467 114.063 61.392C113.85 61.2373 113.583 61.16 113.263 61.16C112.847 61.16 112.511 61.304 112.255 61.592C111.999 61.8747 111.871 62.2773 111.871 62.8C111.871 63.328 111.999 63.736 112.255 64.024C112.511 64.312 112.847 64.456 113.263 64.456C113.583 64.456 113.85 64.3813 114.063 64.232C114.276 64.0827 114.423 63.8693 114.503 63.592H115.287C115.17 64.04 114.935 64.4 114.583 64.672C114.231 64.9387 113.791 65.072 113.263 65.072C112.847 65.072 112.476 64.9787 112.151 64.792C111.831 64.6053 111.58 64.3413 111.399 64C111.218 63.6587 111.127 63.2587 111.127 62.8ZM117.267 61.216V63.8C117.267 64.0133 117.312 64.1653 117.403 64.256C117.493 64.3413 117.651 64.384 117.875 64.384H118.411V65H117.755C117.349 65 117.045 64.9067 116.843 64.72C116.64 64.5333 116.539 64.2267 116.539 63.8V61.216H115.971V60.616H116.539V59.512H117.267V60.616H118.411V61.216H117.267ZM123.433 65.056C123.065 65.056 122.735 64.992 122.441 64.864C122.153 64.7307 121.927 64.5493 121.761 64.32C121.596 64.0853 121.511 63.816 121.505 63.512H122.281C122.308 63.7733 122.415 63.9947 122.601 64.176C122.793 64.352 123.071 64.44 123.433 64.44C123.78 64.44 124.052 64.3547 124.249 64.184C124.452 64.008 124.553 63.784 124.553 63.512C124.553 63.2987 124.495 63.1253 124.377 62.992C124.26 62.8587 124.113 62.7573 123.937 62.688C123.761 62.6187 123.524 62.544 123.225 62.464C122.857 62.368 122.561 62.272 122.337 62.176C122.119 62.08 121.929 61.9307 121.769 61.728C121.615 61.52 121.537 61.2427 121.537 60.896C121.537 60.592 121.615 60.3227 121.769 60.088C121.924 59.8533 122.14 59.672 122.417 59.544C122.7 59.416 123.023 59.352 123.385 59.352C123.908 59.352 124.335 59.4827 124.665 59.744C125.001 60.0053 125.191 60.352 125.233 60.784H124.433C124.407 60.5707 124.295 60.384 124.097 60.224C123.9 60.0587 123.639 59.976 123.313 59.976C123.009 59.976 122.761 60.056 122.569 60.216C122.377 60.3707 122.281 60.5893 122.281 60.872C122.281 61.0747 122.337 61.24 122.449 61.368C122.567 61.496 122.708 61.5947 122.873 61.664C123.044 61.728 123.281 61.8027 123.585 61.888C123.953 61.9893 124.249 62.0907 124.473 62.192C124.697 62.288 124.889 62.44 125.049 62.648C125.209 62.8507 125.289 63.128 125.289 63.48C125.289 63.752 125.217 64.008 125.073 64.248C124.929 64.488 124.716 64.6827 124.433 64.832C124.151 64.9813 123.817 65.056 123.433 65.056ZM127.209 61.424C127.353 61.1733 127.566 60.9653 127.849 60.8C128.137 60.6293 128.47 60.544 128.849 60.544C129.238 60.544 129.59 60.6373 129.905 60.824C130.225 61.0107 130.475 61.2747 130.657 61.616C130.838 61.952 130.929 62.344 130.929 62.792C130.929 63.2347 130.838 63.6293 130.657 63.976C130.475 64.3227 130.225 64.592 129.905 64.784C129.59 64.976 129.238 65.072 128.849 65.072C128.475 65.072 128.145 64.9893 127.857 64.824C127.574 64.6533 127.358 64.4427 127.209 64.192V67.08H126.481V60.616H127.209V61.424ZM130.185 62.792C130.185 62.4613 130.118 62.1733 129.985 61.928C129.851 61.6827 129.67 61.496 129.441 61.368C129.217 61.24 128.969 61.176 128.697 61.176C128.43 61.176 128.182 61.2427 127.953 61.376C127.729 61.504 127.547 61.6933 127.409 61.944C127.275 62.1893 127.209 62.4747 127.209 62.8C127.209 63.1307 127.275 63.4213 127.409 63.672C127.547 63.9173 127.729 64.1067 127.953 64.24C128.182 64.368 128.43 64.432 128.697 64.432C128.969 64.432 129.217 64.368 129.441 64.24C129.67 64.1067 129.851 63.9173 129.985 63.672C130.118 63.4213 130.185 63.128 130.185 62.792ZM131.735 62.792C131.735 62.344 131.826 61.952 132.007 61.616C132.188 61.2747 132.436 61.0107 132.751 60.824C133.071 60.6373 133.426 60.544 133.815 60.544C134.199 60.544 134.532 60.6267 134.815 60.792C135.098 60.9573 135.308 61.1653 135.447 61.416V60.616H136.183V65H135.447V64.184C135.303 64.44 135.087 64.6533 134.799 64.824C134.516 64.9893 134.186 65.072 133.807 65.072C133.418 65.072 133.066 64.976 132.751 64.784C132.436 64.592 132.188 64.3227 132.007 63.976C131.826 63.6293 131.735 63.2347 131.735 62.792ZM135.447 62.8C135.447 62.4693 135.38 62.1813 135.247 61.936C135.114 61.6907 134.932 61.504 134.703 61.376C134.479 61.2427 134.231 61.176 133.959 61.176C133.687 61.176 133.439 61.24 133.215 61.368C132.991 61.496 132.812 61.6827 132.679 61.928C132.546 62.1733 132.479 62.4613 132.479 62.792C132.479 63.128 132.546 63.4213 132.679 63.672C132.812 63.9173 132.991 64.1067 133.215 64.24C133.439 64.368 133.687 64.432 133.959 64.432C134.231 64.432 134.479 64.368 134.703 64.24C134.932 64.1067 135.114 63.9173 135.247 63.672C135.38 63.4213 135.447 63.1307 135.447 62.8ZM137.261 62.8C137.261 62.3467 137.352 61.952 137.533 61.616C137.715 61.2747 137.965 61.0107 138.285 60.824C138.611 60.6373 138.981 60.544 139.397 60.544C139.936 60.544 140.379 60.6747 140.725 60.936C141.077 61.1973 141.309 61.56 141.421 62.024H140.637C140.563 61.7573 140.416 61.5467 140.197 61.392C139.984 61.2373 139.717 61.16 139.397 61.16C138.981 61.16 138.645 61.304 138.389 61.592C138.133 61.8747 138.005 62.2773 138.005 62.8C138.005 63.328 138.133 63.736 138.389 64.024C138.645 64.312 138.981 64.456 139.397 64.456C139.717 64.456 139.984 64.3813 140.197 64.232C140.411 64.0827 140.557 63.8693 140.637 63.592H141.421C141.304 64.04 141.069 64.4 140.717 64.672C140.365 64.9387 139.925 65.072 139.397 65.072C138.981 65.072 138.611 64.9787 138.285 64.792C137.965 64.6053 137.715 64.3413 137.533 64C137.352 63.6587 137.261 63.2587 137.261 62.8ZM146.513 62.64C146.513 62.7787 146.505 62.9253 146.489 63.08H142.985C143.011 63.512 143.158 63.8507 143.425 64.096C143.697 64.336 144.025 64.456 144.409 64.456C144.723 64.456 144.985 64.384 145.193 64.24C145.406 64.0907 145.555 63.8933 145.641 63.648H146.425C146.307 64.0693 146.073 64.4133 145.721 64.68C145.369 64.9413 144.931 65.072 144.409 65.072C143.993 65.072 143.619 64.9787 143.289 64.792C142.963 64.6053 142.707 64.3413 142.521 64C142.334 63.6533 142.241 63.2533 142.241 62.8C142.241 62.3467 142.331 61.9493 142.513 61.608C142.694 61.2667 142.947 61.0053 143.273 60.824C143.603 60.6373 143.982 60.544 144.409 60.544C144.825 60.544 145.193 60.6347 145.513 60.816C145.833 60.9973 146.078 61.248 146.249 61.568C146.425 61.8827 146.513 62.24 146.513 62.64ZM145.761 62.488C145.761 62.2107 145.699 61.9733 145.577 61.776C145.454 61.5733 145.286 61.4213 145.073 61.32C144.865 61.2133 144.633 61.16 144.377 61.16C144.009 61.16 143.694 61.2773 143.433 61.512C143.177 61.7467 143.03 62.072 142.993 62.488H145.761Z" fill="white"/>
</g>
<defs>
<clipPath id="clip0_1191_18119">
<rect width="153" height="68" fill="white" transform="translate(0.136719)"/>
</clipPath>
</defs>
</svg>
