<svg width="153" height="68" viewBox="0 0 153 68" fill="none" xmlns="http://www.w3.org/2000/svg">
<path d="M73.7207 42.5072C73.1007 41.9572 72.3407 41.4672 71.4307 41.0872C70.5207 40.6872 69.5007 40.3672 68.3307 40.1072L66.0807 39.5972C65.2307 39.4072 64.5107 39.1672 63.8907 38.9172C63.2907 38.6572 62.8307 38.3472 62.5107 37.9572C62.1907 37.5772 62.0407 37.1272 62.0407 36.5972C62.0407 36.0272 62.2107 35.5172 62.5507 35.0872C62.8907 34.6372 63.3607 34.2972 63.9707 34.0672C64.5907 33.8172 65.3107 33.7072 66.1207 33.7072C67.4007 33.7072 68.4107 34.0072 69.1807 34.6172C69.9407 35.2172 70.3707 36.0572 70.4507 37.1272H75.1707C75.1307 35.5972 74.7207 34.2572 73.9807 33.1372C73.2407 32.0072 72.1907 31.1372 70.8607 30.5272C69.5207 29.9072 67.9507 29.6172 66.1207 29.6172C64.3407 29.6172 62.7407 29.9172 61.3807 30.5272C60.0207 31.1472 58.9407 31.9972 58.1707 33.0772C57.4107 34.1572 57.0207 35.4372 57.0207 36.9072C57.0207 38.6472 57.5907 40.0472 58.7607 41.1372C59.9307 42.2172 61.6107 43.0272 63.8407 43.5372L66.4307 44.1372C67.3907 44.3472 68.1707 44.6072 68.8107 44.8772C69.4307 45.1572 69.8907 45.4972 70.2107 45.8572C70.5307 46.2372 70.6807 46.6872 70.6807 47.2372C70.6807 47.8572 70.4907 48.3872 70.1107 48.8472C69.7307 49.3072 69.2207 49.6772 68.5407 49.9272C67.8807 50.1772 67.1007 50.3072 66.1807 50.3072C65.2007 50.3072 64.3707 50.1572 63.6507 49.8372C62.9307 49.5372 62.3507 49.0772 61.9507 48.4972C61.5207 47.8972 61.3107 47.1972 61.2707 46.3272H56.4707C56.4907 48.0472 56.8907 49.5172 57.6807 50.7272C58.4707 51.9372 59.5707 52.8472 61.0207 53.4672C62.4607 54.0872 64.1907 54.3972 66.1807 54.3972C68.1307 54.3972 69.8307 54.0972 71.2407 53.5072C72.6407 52.9072 73.7307 52.0672 74.4907 50.9572C75.2507 49.8472 75.6207 48.5572 75.6207 47.0272C75.6207 46.0672 75.4507 45.2172 75.1307 44.4772C74.8207 43.7172 74.3307 43.0572 73.7207 42.5072Z" fill="white"/>
<path d="M101.579 47.8178C102.579 45.9678 103.069 43.7578 103.069 41.1678C103.069 38.5778 102.579 36.3678 101.579 34.5178C100.579 32.6678 99.2392 31.2478 97.5392 30.2478C95.8392 29.2478 93.9092 28.7578 91.7592 28.7578C89.6092 28.7578 87.6792 29.2478 85.9792 30.2478C84.2792 31.2478 82.9192 32.6678 81.9392 34.5178C80.9592 36.3678 80.4492 38.5978 80.4492 41.1678C80.4492 43.7378 80.9392 45.9478 81.9392 47.7978C82.9192 49.6478 84.2792 51.0678 85.9792 52.0678C87.6792 53.0678 89.6092 53.5578 91.7592 53.5578C93.2892 53.5578 94.7092 53.2978 96.0292 52.7878L97.9392 55.1878H102.509L99.1092 50.9378C100.089 50.0878 100.919 49.0478 101.579 47.8178ZM88.4892 48.2378C87.5292 47.6178 86.7892 46.7078 86.2592 45.5178C85.7292 44.3278 85.4492 42.8578 85.4492 41.1578C85.4492 39.4378 85.7292 37.9878 86.2592 36.7778C86.7892 35.5678 87.5392 34.6778 88.4892 34.0378C89.4492 33.4178 90.5292 33.0978 91.7592 33.0978C92.9892 33.0978 94.0992 33.4178 95.0292 34.0378C95.9892 34.6578 96.7092 35.5678 97.2392 36.7578C97.7692 37.9478 98.0292 39.4178 98.0292 41.1378C98.0292 42.8378 97.7692 44.2778 97.2392 45.4978C96.9192 46.1978 96.5392 46.8178 96.0892 47.3078L94.1992 44.8878H89.9892L93.1092 49.0078C92.6592 49.0978 92.2192 49.1578 91.7292 49.1578C90.5292 49.1778 89.4192 48.8578 88.4892 48.2378Z" fill="white"/>
<path d="M109.311 54.0297H114.241V44.5097H124.721V40.4097H114.241V34.1197H125.651V29.9297H109.311V54.0297Z" fill="white"/>
<path d="M133.359 34.1197H140.709V54.0297H145.659V34.1197H152.999V29.9297H133.359V34.1197Z" fill="white"/>
<path d="M34.0594 30.2928L36.6294 27.6628V20.4128L33.8894 17.6328H25.3294L22.6094 20.4128V27.6628L25.1794 30.2928H34.0594Z" fill="white"/>
<path d="M24.5905 34.7969L22.0605 37.3669V45.1869L24.8005 47.9669H34.4005L37.0805 45.1869V37.3669L34.5705 34.7969H24.5905Z" fill="white"/>
<path d="M44.35 12.59L31.11 0.48C30.43 -0.16 28.71 -0.16 28.03 0.48L14.79 12.59L0 26.11H5.63V55.2H53.53V26.11H59.14L44.35 12.59ZM41.97 46.72L36.51 52.5H22.74L17.26 46.72V35.84L20.68 32.21L17.79 29.17V18.88L23.25 13.1H36.02L41.48 18.88V29.16L38.55 32.26L41.97 35.83V46.72Z" fill="white"/>
<path d="M7.51039 64.3784H10.2304V65.0084H6.65039V64.4284L9.35039 60.0584H6.68039V59.4284H10.2204V60.0084L7.51039 64.3784ZM15.3404 62.6484C15.3404 62.7884 15.3304 62.9384 15.3204 63.0884H11.8204C11.8504 63.5184 11.9904 63.8584 12.2604 64.1084C12.5304 64.3484 12.8604 64.4684 13.2404 64.4684C13.5504 64.4684 13.8204 64.3984 14.0204 64.2484C14.2304 64.0984 14.3804 63.8984 14.4704 63.6584H15.2504C15.1304 64.0784 14.9004 64.4284 14.5504 64.6884C14.2004 64.9484 13.7604 65.0784 13.2404 65.0784C12.8204 65.0784 12.4504 64.9884 12.1204 64.7984C11.7904 64.6084 11.5404 64.3484 11.3504 64.0084C11.1604 63.6584 11.0704 63.2584 11.0704 62.8084C11.0704 62.3584 11.1604 61.9584 11.3404 61.6184C11.5204 61.2784 11.7704 61.0184 12.1004 60.8384C12.4304 60.6484 12.8104 60.5584 13.2404 60.5584C13.6604 60.5584 14.0204 60.6484 14.3404 60.8284C14.6604 61.0084 14.9104 61.2584 15.0804 61.5784C15.2604 61.8884 15.3404 62.2484 15.3404 62.6484ZM14.5904 62.4984C14.5904 62.2184 14.5304 61.9884 14.4104 61.7884C14.2904 61.5884 14.1204 61.4384 13.9104 61.3284C13.7004 61.2184 13.4704 61.1684 13.2104 61.1684C12.8404 61.1684 12.5304 61.2884 12.2704 61.5184C12.0104 61.7484 11.8704 62.0784 11.8304 62.4984H14.5904ZM17.1504 61.3384C17.2804 61.0884 17.4604 60.8884 17.6904 60.7584C17.9304 60.6184 18.2204 60.5484 18.5604 60.5484V61.2984H18.3704C17.5504 61.2984 17.1504 61.7384 17.1504 62.6284V65.0084H16.4204V60.6284H17.1504V61.3384ZM21.4404 65.0784C21.0304 65.0784 20.6604 64.9884 20.3204 64.7984C19.9904 64.6084 19.7304 64.3484 19.5404 64.0084C19.3504 63.6584 19.2604 63.2584 19.2604 62.8084C19.2604 62.3584 19.3604 61.9684 19.5504 61.6284C19.7504 61.2784 20.0104 61.0184 20.3504 60.8384C20.6904 60.6484 21.0604 60.5584 21.4804 60.5584C21.9004 60.5584 22.2704 60.6484 22.6104 60.8384C22.9504 61.0184 23.2104 61.2784 23.4004 61.6184C23.6004 61.9584 23.7004 62.3584 23.7004 62.8084C23.7004 63.2584 23.6004 63.6584 23.4004 64.0084C23.2004 64.3484 22.9304 64.6184 22.5904 64.7984C22.2404 64.9884 21.8604 65.0784 21.4404 65.0784ZM21.4404 64.4384C21.7004 64.4384 21.9504 64.3784 22.1804 64.2584C22.4104 64.1384 22.5904 63.9484 22.7304 63.7084C22.8704 63.4584 22.9504 63.1684 22.9504 62.8084C22.9504 62.4484 22.8804 62.1584 22.7404 61.9084C22.6004 61.6584 22.4204 61.4784 22.2004 61.3684C21.9804 61.2484 21.7304 61.1884 21.4704 61.1884C21.2004 61.1884 20.9604 61.2484 20.7304 61.3684C20.5104 61.4884 20.3404 61.6684 20.2004 61.9084C20.0704 62.1584 20.0004 62.4484 20.0004 62.8084C20.0004 63.1684 20.0604 63.4684 20.1904 63.7084C20.3204 63.9584 20.5004 64.1384 20.7204 64.2584C20.9404 64.3784 21.1804 64.4384 21.4404 64.4384ZM29.8104 62.1384C30.0104 62.1684 30.2004 62.2484 30.3604 62.3884C30.5304 62.5184 30.6604 62.6884 30.7604 62.8884C30.8604 63.0884 30.9104 63.2984 30.9104 63.5184C30.9104 63.7984 30.8404 64.0584 30.6904 64.2884C30.5504 64.5084 30.3404 64.6884 30.0604 64.8284C29.7904 64.9584 29.4704 65.0184 29.0904 65.0184H27.0104V59.4384H29.0104C29.3904 59.4384 29.7104 59.4984 29.9804 59.6284C30.2504 59.7484 30.4504 59.9184 30.5804 60.1284C30.7104 60.3384 30.7804 60.5784 30.7804 60.8484C30.7804 61.1784 30.6904 61.4584 30.5104 61.6684C30.3404 61.8884 30.1004 62.0384 29.8104 62.1384ZM27.7504 61.8384H28.9704C29.3104 61.8384 29.5804 61.7584 29.7604 61.5984C29.9504 61.4384 30.0404 61.2184 30.0404 60.9384C30.0404 60.6584 29.9504 60.4384 29.7604 60.2784C29.5704 60.1184 29.3004 60.0384 28.9504 60.0384H27.7404V61.8384H27.7504ZM29.0304 64.4084C29.3904 64.4084 29.6804 64.3184 29.8804 64.1484C30.0804 63.9784 30.1804 63.7384 30.1804 63.4384C30.1804 63.1284 30.0704 62.8884 29.8604 62.7084C29.6504 62.5284 29.3604 62.4384 29.0004 62.4384H27.7404V64.4084H29.0304ZM32.7704 61.3384C32.9004 61.0884 33.0804 60.8884 33.3104 60.7584C33.5504 60.6184 33.8404 60.5484 34.1804 60.5484V61.2984H34.0004C33.1804 61.2984 32.7804 61.7384 32.7804 62.6284V65.0084H32.0504V60.6284H32.7804V61.3384H32.7704ZM37.0604 65.0784C36.6504 65.0784 36.2804 64.9884 35.9404 64.7984C35.6104 64.6084 35.3504 64.3484 35.1604 64.0084C34.9704 63.6584 34.8804 63.2584 34.8804 62.8084C34.8804 62.3584 34.9804 61.9684 35.1704 61.6284C35.3704 61.2784 35.6304 61.0184 35.9704 60.8384C36.3104 60.6484 36.6804 60.5584 37.1004 60.5584C37.5204 60.5584 37.8904 60.6484 38.2304 60.8384C38.5704 61.0184 38.8304 61.2784 39.0204 61.6184C39.2204 61.9584 39.3204 62.3584 39.3204 62.8084C39.3204 63.2584 39.2204 63.6584 39.0204 64.0084C38.8204 64.3484 38.5504 64.6184 38.2104 64.7984C37.8704 64.9784 37.4804 65.0784 37.0604 65.0784ZM37.0604 64.4384C37.3204 64.4384 37.5704 64.3784 37.8004 64.2584C38.0304 64.1384 38.2104 63.9484 38.3504 63.7084C38.4904 63.4584 38.5704 63.1684 38.5704 62.8084C38.5704 62.4484 38.5004 62.1584 38.3604 61.9084C38.2204 61.6584 38.0404 61.4784 37.8204 61.3684C37.6004 61.2484 37.3504 61.1884 37.0904 61.1884C36.8204 61.1884 36.5804 61.2484 36.3504 61.3684C36.1304 61.4884 35.9604 61.6684 35.8204 61.9084C35.6904 62.1584 35.6204 62.4484 35.6204 62.8084C35.6204 63.1684 35.6804 63.4684 35.8104 63.7084C35.9404 63.9584 36.1204 64.1384 36.3404 64.2584C36.5604 64.3784 36.8004 64.4384 37.0604 64.4384ZM42.8304 65.0084L41.1104 63.0684V65.0084H40.3804V59.0884H41.1104V62.5684L42.8004 60.6284H43.8204L41.7604 62.8084L43.8304 65.0084H42.8304ZM48.6204 62.6484C48.6204 62.7884 48.6104 62.9384 48.6004 63.0884H45.1004C45.1304 63.5184 45.2704 63.8584 45.5404 64.1084C45.8104 64.3484 46.1404 64.4684 46.5204 64.4684C46.8304 64.4684 47.1004 64.3984 47.3004 64.2484C47.5104 64.0984 47.6604 63.8984 47.7504 63.6584H48.5304C48.4104 64.0784 48.1804 64.4284 47.8304 64.6884C47.4804 64.9484 47.0404 65.0784 46.5204 65.0784C46.1004 65.0784 45.7304 64.9884 45.4004 64.7984C45.0704 64.6084 44.8204 64.3484 44.6304 64.0084C44.4404 63.6584 44.3504 63.2584 44.3504 62.8084C44.3504 62.3584 44.4404 61.9584 44.6204 61.6184C44.8004 61.2784 45.0504 61.0184 45.3804 60.8384C45.7104 60.6484 46.0904 60.5584 46.5204 60.5584C46.9404 60.5584 47.3004 60.6484 47.6204 60.8284C47.9404 61.0084 48.1904 61.2584 48.3604 61.5784C48.5404 61.8884 48.6204 62.2484 48.6204 62.6484ZM47.8704 62.4984C47.8704 62.2184 47.8104 61.9884 47.6904 61.7884C47.5704 61.5884 47.4004 61.4384 47.1904 61.3284C46.9804 61.2184 46.7504 61.1684 46.4904 61.1684C46.1204 61.1684 45.8104 61.2884 45.5504 61.5184C45.2904 61.7484 45.1504 62.0784 45.1104 62.4984H47.8704ZM50.4304 61.3384C50.5604 61.0884 50.7404 60.8884 50.9704 60.7584C51.2104 60.6184 51.5004 60.5484 51.8404 60.5484V61.2984H51.6504C50.8304 61.2984 50.4304 61.7384 50.4304 62.6284V65.0084H49.7004V60.6284H50.4304V61.3384ZM52.5404 62.7984C52.5404 62.3484 52.6304 61.9584 52.8104 61.6184C52.9904 61.2784 53.2404 61.0084 53.5504 60.8284C53.8704 60.6384 54.2204 60.5484 54.6104 60.5484C54.9904 60.5484 55.3304 60.6284 55.6104 60.7984C55.8904 60.9684 56.1004 61.1684 56.2404 61.4184V60.6184H56.9804V64.9984H56.2404V64.1784C56.1004 64.4384 55.8804 64.6484 55.5904 64.8184C55.3104 64.9884 54.9804 65.0684 54.6004 65.0684C54.2104 65.0684 53.8604 64.9684 53.5404 64.7784C53.2304 64.5884 52.9804 64.3184 52.8004 63.9684C52.6304 63.6384 52.5404 63.2384 52.5404 62.7984ZM56.2504 62.8084C56.2504 62.4784 56.1804 62.1884 56.0504 61.9484C55.9204 61.6984 55.7404 61.5184 55.5104 61.3884C55.2904 61.2584 55.0404 61.1884 54.7704 61.1884C54.5004 61.1884 54.2504 61.2484 54.0304 61.3784C53.8104 61.5084 53.6304 61.6884 53.4904 61.9384C53.3604 62.1884 53.2904 62.4684 53.2904 62.7984C53.2904 63.1384 53.3604 63.4284 53.4904 63.6784C53.6204 63.9284 53.8004 64.1084 54.0304 64.2484C54.2504 64.3784 54.5004 64.4384 54.7704 64.4384C55.0404 64.4384 55.2904 64.3784 55.5104 64.2484C55.7404 64.1184 55.9204 63.9284 56.0504 63.6784C56.1804 63.4284 56.2504 63.1384 56.2504 62.8084ZM60.1404 60.5484C60.5204 60.5484 60.8504 60.6284 61.1304 60.7984C61.4204 60.9684 61.6304 61.1684 61.7704 61.4184V60.6184H62.5104V65.0984C62.5104 65.4984 62.4204 65.8484 62.2504 66.1584C62.0804 66.4684 61.8304 66.7184 61.5104 66.8984C61.2004 67.0784 60.8304 67.1584 60.4104 67.1584C59.8304 67.1584 59.3504 67.0184 58.9704 66.7484C58.5904 66.4784 58.3604 66.1084 58.2904 65.6384H59.0104C59.0904 65.9084 59.2604 66.1184 59.5104 66.2784C59.7604 66.4484 60.0604 66.5284 60.4104 66.5284C60.8104 66.5284 61.1404 66.3984 61.3904 66.1484C61.6504 65.8984 61.7704 65.5484 61.7704 65.0884V64.1684C61.6304 64.4284 61.4104 64.6384 61.1304 64.8084C60.8504 64.9784 60.5204 65.0684 60.1404 65.0684C59.7504 65.0684 59.4004 64.9684 59.0804 64.7784C58.7704 64.5884 58.5204 64.3184 58.3404 63.9684C58.1604 63.6184 58.0704 63.2284 58.0704 62.7884C58.0704 62.3384 58.1604 61.9484 58.3404 61.6084C58.5204 61.2684 58.7704 60.9984 59.0804 60.8184C59.4004 60.6484 59.7504 60.5484 60.1404 60.5484ZM61.7804 62.8084C61.7804 62.4784 61.7104 62.1884 61.5804 61.9484C61.4504 61.6984 61.2704 61.5184 61.0404 61.3884C60.8204 61.2584 60.5704 61.1884 60.3004 61.1884C60.0304 61.1884 59.7804 61.2484 59.5604 61.3784C59.3404 61.5084 59.1604 61.6884 59.0204 61.9384C58.8904 62.1884 58.8204 62.4684 58.8204 62.7984C58.8204 63.1384 58.8904 63.4284 59.0204 63.6784C59.1504 63.9284 59.3304 64.1084 59.5604 64.2484C59.7804 64.3784 60.0304 64.4384 60.3004 64.4384C60.5704 64.4384 60.8204 64.3784 61.0404 64.2484C61.2704 64.1184 61.4504 63.9284 61.5804 63.6784C61.7104 63.4284 61.7804 63.1384 61.7804 62.8084ZM67.8604 62.6484C67.8604 62.7884 67.8504 62.9384 67.8404 63.0884H64.3404C64.3704 63.5184 64.5104 63.8584 64.7804 64.1084C65.0504 64.3484 65.3804 64.4684 65.7604 64.4684C66.0704 64.4684 66.3404 64.3984 66.5404 64.2484C66.7504 64.0984 66.9004 63.8984 66.9904 63.6584H67.7704C67.6504 64.0784 67.4204 64.4284 67.0704 64.6884C66.7204 64.9484 66.2804 65.0784 65.7604 65.0784C65.3404 65.0784 64.9704 64.9884 64.6404 64.7984C64.3104 64.6084 64.0604 64.3484 63.8704 64.0084C63.6804 63.6584 63.5904 63.2584 63.5904 62.8084C63.5904 62.3584 63.6804 61.9584 63.8604 61.6184C64.0404 61.2784 64.2904 61.0184 64.6204 60.8384C64.9504 60.6484 65.3304 60.5584 65.7604 60.5584C66.1804 60.5584 66.5404 60.6484 66.8604 60.8284C67.1804 61.0084 67.4304 61.2584 67.6004 61.5784C67.7704 61.8884 67.8604 62.2484 67.8604 62.6484ZM67.1104 62.4984C67.1104 62.2184 67.0504 61.9884 66.9304 61.7884C66.8104 61.5884 66.6404 61.4384 66.4304 61.3284C66.2204 61.2184 65.9904 61.1684 65.7304 61.1684C65.3604 61.1684 65.0504 61.2884 64.7904 61.5184C64.5304 61.7484 64.3904 62.0784 64.3504 62.4984H67.1104ZM77.0404 60.6184L75.6704 64.9984H74.9204L73.8604 61.5184L72.8004 64.9984H72.0504L70.6704 60.6184H71.4104L72.4204 64.2984L73.5104 60.6184H74.2504L75.3104 64.3084L76.3004 60.6184H77.0404ZM78.2504 59.9084C78.1104 59.9084 77.9904 59.8584 77.9004 59.7684C77.8104 59.6784 77.7604 59.5584 77.7604 59.4184C77.7604 59.2784 77.8104 59.1584 77.9004 59.0684C77.9904 58.9784 78.1104 58.9284 78.2504 58.9284C78.3804 58.9284 78.5004 58.9784 78.5904 59.0684C78.6904 59.1684 78.7304 59.2784 78.7304 59.4184C78.7304 59.5584 78.6804 59.6784 78.5904 59.7684C78.5004 59.8584 78.3904 59.9084 78.2504 59.9084ZM78.6104 60.6184V64.9984H77.8804V60.6184H78.6104ZM80.8504 61.2184V63.7984C80.8504 64.0084 80.9004 64.1684 80.9904 64.2584C81.0804 64.3484 81.2404 64.3884 81.4604 64.3884H82.0004V65.0084H81.3404C80.9304 65.0084 80.6304 64.9184 80.4304 64.7284C80.2304 64.5384 80.1304 64.2384 80.1304 63.8084V61.2284H79.5604V60.6284H80.1304V59.5284H80.8604V60.6284H82.0004V61.2284H80.8504V61.2184ZM85.1804 60.5384C85.5104 60.5384 85.8104 60.6084 86.0804 60.7584C86.3504 60.8984 86.5504 61.1084 86.7004 61.3884C86.8504 61.6684 86.9304 62.0184 86.9304 62.4184V64.9984H86.2104V62.5184C86.2104 62.0784 86.1004 61.7484 85.8804 61.5184C85.6604 61.2884 85.3604 61.1684 84.9804 61.1684C84.6004 61.1684 84.2904 61.2884 84.0604 61.5284C83.8404 61.7684 83.7204 62.1184 83.7204 62.5784V64.9984H83.0004V59.0784H83.7304V61.2384C83.8704 61.0184 84.0704 60.8384 84.3204 60.7184C84.5804 60.6084 84.8604 60.5384 85.1804 60.5384ZM94.2204 61.0584C94.2204 61.5184 94.0604 61.9084 93.7404 62.2184C93.4304 62.5184 92.9404 62.6784 92.2904 62.6784H91.2204V65.0084H90.4904V59.4284H92.2904C92.9204 59.4284 93.4004 59.5784 93.7204 59.8884C94.0504 60.1884 94.2204 60.5784 94.2204 61.0584ZM92.2904 62.0784C92.7004 62.0784 92.9904 61.9884 93.1904 61.8184C93.3804 61.6384 93.4804 61.3884 93.4804 61.0684C93.4804 60.3784 93.0904 60.0384 92.3004 60.0384H91.2304V62.0884H92.2904V62.0784ZM99.2404 62.6484C99.2404 62.7884 99.2304 62.9384 99.2204 63.0884H95.7204C95.7504 63.5184 95.8904 63.8584 96.1604 64.1084C96.4304 64.3484 96.7604 64.4684 97.1404 64.4684C97.4504 64.4684 97.7204 64.3984 97.9204 64.2484C98.1304 64.0984 98.2804 63.8984 98.3704 63.6584H99.1504C99.0304 64.0784 98.8004 64.4284 98.4504 64.6884C98.1004 64.9484 97.6604 65.0784 97.1404 65.0784C96.7204 65.0784 96.3504 64.9884 96.0204 64.7984C95.6904 64.6084 95.4404 64.3484 95.2504 64.0084C95.0604 63.6584 94.9704 63.2584 94.9704 62.8084C94.9704 62.3584 95.0604 61.9584 95.2404 61.6184C95.4204 61.2784 95.6704 61.0184 96.0004 60.8384C96.3304 60.6484 96.7104 60.5584 97.1404 60.5584C97.5604 60.5584 97.9204 60.6484 98.2404 60.8284C98.5604 61.0084 98.8104 61.2584 98.9804 61.5784C99.1604 61.8884 99.2404 62.2484 99.2404 62.6484ZM98.4904 62.4984C98.4904 62.2184 98.4304 61.9884 98.3104 61.7884C98.1904 61.5884 98.0204 61.4384 97.8104 61.3284C97.6004 61.2184 97.3704 61.1684 97.1104 61.1684C96.7404 61.1684 96.4304 61.2884 96.1704 61.5184C95.9104 61.7484 95.7704 62.0784 95.7304 62.4984H98.4904ZM101.05 61.3384C101.18 61.0884 101.36 60.8884 101.59 60.7584C101.83 60.6184 102.12 60.5484 102.46 60.5484V61.2984H102.27C101.45 61.2984 101.05 61.7384 101.05 62.6284V65.0084H100.32V60.6284H101.05V61.3384ZM105.21 61.2184H104.29V64.9984H103.56V61.2184H103V60.6184H103.57V60.3084C103.57 59.8184 103.69 59.4584 103.95 59.2384C104.21 59.0084 104.61 58.8984 105.17 58.8984V59.5084C104.85 59.5084 104.62 59.5684 104.49 59.6984C104.36 59.8184 104.3 60.0284 104.3 60.3184V60.6284H105.22V61.2184H105.21ZM110.18 62.6484C110.18 62.7884 110.17 62.9384 110.16 63.0884H106.66C106.69 63.5184 106.83 63.8584 107.1 64.1084C107.37 64.3484 107.7 64.4684 108.08 64.4684C108.39 64.4684 108.66 64.3984 108.86 64.2484C109.07 64.0984 109.22 63.8984 109.31 63.6584H110.09C109.97 64.0784 109.74 64.4284 109.39 64.6884C109.04 64.9484 108.6 65.0784 108.08 65.0784C107.66 65.0784 107.29 64.9884 106.96 64.7984C106.64 64.6084 106.38 64.3484 106.19 64.0084C106 63.6584 105.91 63.2584 105.91 62.8084C105.91 62.3584 106 61.9584 106.18 61.6184C106.36 61.2784 106.61 61.0184 106.94 60.8384C107.27 60.6484 107.65 60.5584 108.08 60.5584C108.5 60.5584 108.86 60.6484 109.18 60.8284C109.5 61.0084 109.75 61.2584 109.92 61.5784C110.09 61.8884 110.18 62.2484 110.18 62.6484ZM109.43 62.4984C109.43 62.2184 109.37 61.9884 109.25 61.7884C109.13 61.5884 108.96 61.4384 108.75 61.3284C108.54 61.2184 108.31 61.1684 108.05 61.1684C107.68 61.1684 107.37 61.2884 107.11 61.5184C106.85 61.7484 106.71 62.0784 106.67 62.4984H109.43ZM110.99 62.8084C110.99 62.3584 111.08 61.9584 111.26 61.6284C111.44 61.2884 111.69 61.0184 112.01 60.8384C112.34 60.6484 112.71 60.5584 113.12 60.5584C113.66 60.5584 114.1 60.6884 114.45 60.9484C114.8 61.2084 115.03 61.5684 115.15 62.0384H114.37C114.3 61.7684 114.15 61.5584 113.93 61.4084C113.72 61.2584 113.45 61.1784 113.13 61.1784C112.71 61.1784 112.38 61.3184 112.12 61.6084C111.86 61.8884 111.74 62.2984 111.74 62.8184C111.74 63.3484 111.87 63.7584 112.12 64.0384C112.38 64.3284 112.71 64.4684 113.13 64.4684C113.45 64.4684 113.72 64.3984 113.93 64.2484C114.14 64.0984 114.29 63.8884 114.37 63.6084H115.15C115.03 64.0584 114.8 64.4184 114.45 64.6884C114.1 64.9584 113.66 65.0884 113.13 65.0884C112.71 65.0884 112.34 64.9984 112.02 64.8084C111.7 64.6184 111.45 64.3584 111.27 64.0184C111.08 63.6684 110.99 63.2684 110.99 62.8084ZM117.13 61.2184V63.7984C117.13 64.0084 117.18 64.1684 117.27 64.2584C117.36 64.3484 117.52 64.3884 117.74 64.3884H118.28V65.0084H117.62C117.21 65.0084 116.91 64.9184 116.71 64.7284C116.51 64.5384 116.41 64.2384 116.41 63.8084V61.2284H115.84V60.6284H116.41V59.5284H117.14V60.6284H118.28V61.2284H117.13V61.2184ZM123.3 65.0584C122.93 65.0584 122.6 64.9984 122.31 64.8684C122.02 64.7384 121.8 64.5584 121.63 64.3284C121.46 64.0984 121.38 63.8284 121.37 63.5184H122.15C122.18 63.7784 122.28 63.9984 122.47 64.1784C122.66 64.3584 122.94 64.4384 123.3 64.4384C123.65 64.4384 123.92 64.3484 124.12 64.1784C124.32 63.9984 124.42 63.7784 124.42 63.5084C124.42 63.2984 124.36 63.1184 124.24 62.9884C124.12 62.8584 123.98 62.7584 123.8 62.6884C123.62 62.6184 123.39 62.5484 123.09 62.4684C122.72 62.3684 122.43 62.2784 122.2 62.1784C121.98 62.0784 121.79 61.9284 121.63 61.7284C121.47 61.5184 121.4 61.2384 121.4 60.8984C121.4 60.5984 121.48 60.3284 121.63 60.0884C121.78 59.8584 122 59.6684 122.28 59.5484C122.56 59.4184 122.89 59.3584 123.25 59.3584C123.77 59.3584 124.2 59.4884 124.53 59.7484C124.87 60.0084 125.06 60.3584 125.1 60.7884H124.3C124.27 60.5784 124.16 60.3884 123.96 60.2284C123.76 60.0584 123.5 59.9784 123.18 59.9784C122.88 59.9784 122.63 60.0584 122.44 60.2184C122.25 60.3684 122.15 60.5884 122.15 60.8784C122.15 61.0784 122.21 61.2484 122.32 61.3784C122.44 61.5084 122.58 61.6084 122.74 61.6784C122.91 61.7384 123.15 61.8184 123.45 61.8984C123.82 61.9984 124.11 62.0984 124.34 62.1984C124.56 62.2984 124.76 62.4484 124.92 62.6584C125.08 62.8584 125.16 63.1384 125.16 63.4884C125.16 63.7584 125.09 64.0184 124.94 64.2584C124.8 64.4984 124.58 64.6884 124.3 64.8384C124.01 64.9884 123.68 65.0584 123.3 65.0584ZM127.07 61.4284C127.21 61.1784 127.43 60.9684 127.71 60.8084C128 60.6384 128.33 60.5484 128.71 60.5484C129.1 60.5484 129.45 60.6384 129.77 60.8284C130.09 61.0184 130.34 61.2784 130.52 61.6184C130.7 61.9584 130.79 62.3484 130.79 62.7984C130.79 63.2384 130.7 63.6384 130.52 63.9784C130.34 64.3284 130.09 64.5984 129.77 64.7884C129.45 64.9784 129.1 65.0784 128.71 65.0784C128.34 65.0784 128.01 64.9984 127.72 64.8284C127.44 64.6584 127.22 64.4484 127.07 64.1984V67.0884H126.34V60.6284H127.07V61.4284ZM130.05 62.7984C130.05 62.4684 129.98 62.1784 129.85 61.9384C129.72 61.6884 129.53 61.5084 129.31 61.3784C129.09 61.2484 128.84 61.1884 128.57 61.1884C128.3 61.1884 128.06 61.2584 127.83 61.3884C127.61 61.5184 127.43 61.7084 127.29 61.9584C127.16 62.2084 127.09 62.4884 127.09 62.8184C127.09 63.1484 127.16 63.4384 127.29 63.6884C127.43 63.9384 127.61 64.1184 127.83 64.2584C128.06 64.3884 128.31 64.4484 128.57 64.4484C128.84 64.4484 129.09 64.3884 129.31 64.2584C129.54 64.1284 129.72 63.9384 129.85 63.6884C129.98 63.4284 130.05 63.1384 130.05 62.7984ZM131.6 62.7984C131.6 62.3484 131.69 61.9584 131.87 61.6184C132.05 61.2784 132.3 61.0084 132.61 60.8284C132.93 60.6384 133.28 60.5484 133.67 60.5484C134.05 60.5484 134.39 60.6284 134.67 60.7984C134.95 60.9684 135.16 61.1684 135.3 61.4184V60.6184H136.04V64.9984H135.3V64.1784C135.16 64.4384 134.94 64.6484 134.65 64.8184C134.37 64.9884 134.04 65.0684 133.66 65.0684C133.27 65.0684 132.92 64.9684 132.6 64.7784C132.29 64.5884 132.04 64.3184 131.86 63.9684C131.69 63.6384 131.6 63.2384 131.6 62.7984ZM135.31 62.8084C135.31 62.4784 135.24 62.1884 135.11 61.9484C134.98 61.6984 134.8 61.5184 134.57 61.3884C134.35 61.2584 134.1 61.1884 133.83 61.1884C133.56 61.1884 133.31 61.2484 133.09 61.3784C132.87 61.5084 132.69 61.6884 132.55 61.9384C132.42 62.1884 132.35 62.4684 132.35 62.7984C132.35 63.1384 132.42 63.4284 132.55 63.6784C132.68 63.9284 132.86 64.1084 133.09 64.2484C133.31 64.3784 133.56 64.4384 133.83 64.4384C134.1 64.4384 134.35 64.3784 134.57 64.2484C134.8 64.1184 134.98 63.9284 135.11 63.6784C135.24 63.4284 135.31 63.1384 135.31 62.8084ZM137.12 62.8084C137.12 62.3584 137.21 61.9584 137.39 61.6284C137.57 61.2884 137.82 61.0184 138.14 60.8384C138.47 60.6484 138.84 60.5584 139.25 60.5584C139.79 60.5584 140.23 60.6884 140.58 60.9484C140.93 61.2084 141.16 61.5684 141.28 62.0384H140.5C140.43 61.7684 140.28 61.5584 140.06 61.4084C139.85 61.2584 139.58 61.1784 139.26 61.1784C138.84 61.1784 138.51 61.3184 138.25 61.6084C137.99 61.8884 137.87 62.2984 137.87 62.8184C137.87 63.3484 138 63.7584 138.25 64.0384C138.51 64.3284 138.84 64.4684 139.26 64.4684C139.58 64.4684 139.85 64.3984 140.06 64.2484C140.27 64.0984 140.42 63.8884 140.5 63.6084H141.28C141.16 64.0584 140.93 64.4184 140.58 64.6884C140.23 64.9584 139.79 65.0884 139.26 65.0884C138.84 65.0884 138.47 64.9984 138.15 64.8084C137.83 64.6184 137.58 64.3584 137.4 64.0184C137.21 63.6684 137.12 63.2684 137.12 62.8084ZM146.38 62.6484C146.38 62.7884 146.37 62.9384 146.36 63.0884H142.86C142.89 63.5184 143.03 63.8584 143.3 64.1084C143.57 64.3484 143.9 64.4684 144.28 64.4684C144.6 64.4684 144.86 64.3984 145.06 64.2484C145.27 64.0984 145.42 63.8984 145.51 63.6584H146.29C146.17 64.0784 145.94 64.4284 145.59 64.6884C145.24 64.9484 144.8 65.0784 144.28 65.0784C143.86 65.0784 143.49 64.9884 143.16 64.7984C142.83 64.6084 142.58 64.3484 142.39 64.0084C142.2 63.6584 142.11 63.2584 142.11 62.8084C142.11 62.3584 142.2 61.9584 142.38 61.6184C142.56 61.2784 142.81 61.0184 143.14 60.8384C143.47 60.6484 143.85 60.5584 144.28 60.5584C144.7 60.5584 145.06 60.6484 145.38 60.8284C145.7 61.0084 145.95 61.2584 146.12 61.5784C146.29 61.8884 146.38 62.2484 146.38 62.6484ZM145.62 62.4984C145.62 62.2184 145.56 61.9884 145.44 61.7884C145.32 61.5884 145.15 61.4384 144.94 61.3284C144.73 61.2184 144.5 61.1684 144.24 61.1684C143.87 61.1684 143.56 61.2884 143.3 61.5184C143.04 61.7484 142.9 62.0784 142.86 62.4984H145.62Z" fill="white"/>
</svg>
