<svg width="93" height="126" viewBox="0 0 93 126" fill="none" xmlns="http://www.w3.org/2000/svg">
<g clip-path="url(#clip0_3208_10916)">
<path d="M91.4325 92.2811C91.0311 91.5164 90.4363 91.1116 89.7376 90.8867C89.2023 90.6468 88.6077 90.5119 87.9832 90.5119H60.5081C60.1067 88.8477 59.5269 87.2884 58.8132 85.8491H78.691C80.8468 85.8491 82.5863 84.095 82.5863 81.921V80.8715C82.6458 80.3317 82.6458 79.747 82.5863 79.1323V78.3377C82.5863 76.1637 80.8468 74.4096 78.691 74.4096H52.9703L54.011 66.9581C54.1151 66.9581 54.2192 66.9581 54.353 66.9731C56.479 67.183 58.6051 67.4229 60.7311 67.5728C61.5488 67.6328 62.2179 67.8727 62.9464 67.4079C63.3627 67.138 63.214 66.4783 63.6005 66.1935C65.117 65.024 68.2392 64.8141 70.053 64.0495C72.5062 63.015 74.885 61.6806 76.8475 59.8665C86.3181 51.1406 81.055 36.1478 72.3872 29.1911C69.7706 27.0921 67.2431 24.8881 65.3846 22.0095C63.4073 18.966 62.545 15.6975 63.7641 12.1592C64.329 10.51 65.5333 9.31057 67.2877 9.05569C68.938 8.8158 69.7854 10.1502 70.6775 11.2746C71.1532 11.8743 71.5695 12.534 72.075 13.1188C73.2644 14.4831 73.3536 12.3091 73.309 11.4845C73.2049 9.41552 71.9858 7.84127 70.4545 6.53689C68.6555 5.00762 66.128 4.81271 63.8979 5.63732C60.3594 6.94169 58.3523 10.57 58.724 14.1233C59.2146 18.7561 61.0285 22.9391 62.9761 27.0621C64.8048 30.9303 66.7227 34.7235 67.8229 38.9215C69.0569 43.6442 69.2353 48.217 67.362 52.8198C65.8009 56.658 60.7757 60.5712 55.7208 59.1318C51.9593 58.0673 48.6587 52.8498 52.3459 48.7118C53.2379 47.7073 53.6691 46.6428 53.4163 45.3834C52.5094 40.9605 51.9147 36.4776 51.3051 32.0098C50.7699 28.0816 49.7589 24.2435 49.2237 20.3003C48.5546 15.3977 47.5437 10.54 46.6813 5.65231C46.384 3.86816 46.1461 2.03903 45.2987 0C44.2579 2.69871 44.1836 5.14255 43.8119 7.57139C42.7563 14.633 41.6115 21.6797 40.5708 28.7413C39.8423 33.689 39.4111 38.6816 38.3258 43.5693C37.8798 45.5483 37.8055 47.4824 39.4855 49.1016C40.0802 49.6713 40.5113 50.5109 40.6451 51.4255C41.1506 54.9188 39.9166 57.2877 37.3446 58.9369C34.4454 60.811 30.5204 60.3013 28.097 58.2323C24.4247 55.0838 22.8785 50.9907 22.7744 46.268C22.6555 40.5257 24.9153 35.4131 27.2793 30.3905C29.3756 25.9676 31.457 21.5447 32.1558 16.6571C32.9141 11.3196 29.0188 4.15302 22.0013 7.01666C19.7117 7.94622 17.2586 10.6299 17.4073 13.2687C17.4667 14.3782 17.9574 15.2178 19.0576 14.2432C19.9347 13.4636 20.5146 12.4291 21.2728 11.5445C22.0311 10.6599 23.1015 9.89529 24.2612 10.0002C25.0492 10.0752 25.7479 10.555 26.2683 11.1397C27.2941 12.2792 27.7253 13.8534 27.7699 15.3977C27.8294 17.7216 27.0711 20.0155 25.8966 22.0095C23.3989 26.2675 19.3698 29.5209 15.9354 32.9693C8.36784 40.6007 7.0595 53.5695 15.2961 61.1709C18.2101 63.8696 21.4066 66.2684 25.5398 66.2235C26.6251 66.2085 28.7512 65.9536 28.6768 67.5578C28.6471 68.2625 29.1823 68.2475 29.8514 68.1575C31.9774 67.8427 35.8281 66.8232 38.3853 66.4034L39.5003 74.4096H13.4674C11.3116 74.4096 9.5721 76.1637 9.5721 78.3377V81.906C9.5721 82.2059 9.60184 82.5057 9.67618 82.7906C9.67618 82.8056 9.67618 82.8056 9.67618 82.8056C9.89919 83.7801 10.479 84.6047 11.267 85.1445C11.267 85.1445 11.2819 85.1445 11.2819 85.1594C11.9063 85.5792 12.6497 85.8341 13.4525 85.8341H33.8656C33.1519 87.2584 32.5721 88.8327 32.1707 90.4969H4.53202C2.18296 90.4969 0.265057 92.416 0.265057 94.7999V96.0743C0.250189 96.4191 0.250189 96.7789 0.265057 97.1837C0.265057 97.2137 0.265057 97.2437 0.265057 97.2887C0.265057 97.3636 0.279924 97.4386 0.279924 97.5136C0.458334 99.2827 1.7072 100.737 3.37236 101.202C3.72918 101.307 4.11574 101.367 4.51716 101.367H5.67682C6.98516 101.427 8.2935 101.442 9.63157 101.412C10.1965 101.397 10.7615 101.382 11.3265 101.367H32.022C32.4086 103.241 33.0181 105.01 33.8061 106.614H13.7201C11.6238 106.614 9.92892 108.323 9.92892 110.437V113.646C9.92892 114.051 9.98839 114.455 10.1073 114.83C10.598 116.36 12.0252 117.469 13.7201 117.469H39.8274V121.997C39.8274 124.201 41.5967 126 43.7971 126H48.8966C51.0821 126 52.8662 124.216 52.8662 121.997V117.469H78.81C80.6684 117.469 82.2146 116.12 82.5417 114.336C82.5863 114.111 82.6012 113.886 82.6012 113.646V110.437C82.6012 109.313 82.1254 108.308 81.3672 107.619C80.6982 107.004 79.7912 106.614 78.81 106.614H58.8876C59.6755 105.01 60.2851 103.241 60.6716 101.367H87.9832C90.3323 101.367 92.2502 99.4476 92.2502 97.0638V94.7999C92.2502 93.8553 91.9528 92.9857 91.4325 92.2811ZM46.3543 104.77C42.7563 104.77 39.8423 100.977 39.8423 96.3141C39.8423 91.6364 42.7563 87.8582 46.3543 87.8582C49.9522 87.8582 52.8811 91.6514 52.8811 96.3141C52.8811 100.977 49.9522 104.77 46.3543 104.77Z" fill="white"/>
</g>
<defs>
<clipPath id="clip0_3208_10916">
<rect width="92" height="126" fill="white" transform="translate(0.25)"/>
</clipPath>
</defs>
</svg>
