<svg id="Layer_1" data-name="Layer 1" xmlns="http://www.w3.org/2000/svg" viewBox="0 0 27.85 25.98"><defs><style>.cls-1{fill:#fc6600;}.cls-2{fill:#fff;}</style></defs><path class="cls-1" d="M25.19,12.28V26H2.65V12.28H0L7,5.92,13.2.22a1.32,1.32,0,0,1,1.45,0l6.24,5.7,7,6.36Z"/><path class="cls-2" d="M8.12,22V16.87l1.6-1.71L8.36,13.73V8.88l2.57-2.72h6l2.57,2.72v4.85l-1.38,1.45,1.6,1.69V22L17.16,24.7H10.69Zm8.15-5.61H11.58l-1.19,1.21v3.69l1.28,1.31H16.2l1.26-1.31V17.58ZM10.64,13l1.21,1.24H16L17.24,13V9.6L16,8.29h-4L10.64,9.6Z"/></svg>