<svg width="97" height="28" viewBox="0 0 97 28" fill="none" xmlns="http://www.w3.org/2000/svg">
<path d="M17.7159 14.5003C17.0997 13.9478 16.3347 13.4591 15.4209 13.0766C14.5072 12.6728 13.4872 12.3541 12.3184 12.0991L10.0659 11.5891C9.21594 11.3978 8.49344 11.1641 7.87719 10.9091C7.28219 10.6541 6.81469 10.3353 6.49594 9.95281C6.17719 9.57031 6.02844 9.12406 6.02844 8.59281C6.02844 8.01906 6.19844 7.50906 6.53844 7.08406C6.87844 6.63781 7.34594 6.29781 7.96219 6.06406C8.57844 5.80906 9.30094 5.70281 10.1084 5.70281C11.3834 5.70281 12.4034 6.00031 13.1684 6.61656C13.9334 7.21156 14.3584 8.06156 14.4434 9.12406H19.1609C19.1184 7.59406 18.7147 6.25531 17.9709 5.12906C17.2272 4.00281 16.1859 3.13156 14.8472 2.51531C13.5084 1.89906 11.9359 1.60156 10.1084 1.60156C8.32344 1.60156 6.72969 1.89906 5.36969 2.51531C4.00969 3.13156 2.92594 3.98156 2.16094 5.06531C1.39594 6.14906 1.01344 7.42406 1.01344 8.89031C1.01344 10.6328 1.58719 12.0353 2.75594 13.1191C3.92469 14.2028 5.60344 15.0103 7.83469 15.5203L10.4272 16.1153C11.3834 16.3278 12.1697 16.5828 12.8072 16.8591C13.4234 17.1353 13.8909 17.4753 14.2097 17.8366C14.5284 18.2191 14.6772 18.6653 14.6772 19.2178C14.6772 19.8341 14.4859 20.3653 14.1034 20.8328C13.7209 21.3003 13.2109 21.6616 12.5309 21.9166C11.8722 22.1716 11.0859 22.2991 10.1722 22.2991C9.19469 22.2991 8.36594 22.1503 7.64344 21.8316C6.92094 21.5341 6.34719 21.0666 5.94344 20.4928C5.51844 19.8978 5.30594 19.1966 5.26344 18.3253H0.460938C0.482188 20.0466 0.885937 21.5128 1.67219 22.7241C2.45844 23.9353 3.56344 24.8491 5.00844 25.4653C6.45344 26.0816 8.17469 26.4003 10.1722 26.4003C12.1272 26.4003 13.8272 26.1028 15.2297 25.5078C16.6322 24.9128 17.7159 24.0628 18.4809 22.9578C19.2459 21.8528 19.6072 20.5566 19.6072 19.0266C19.6072 18.0703 19.4372 17.2203 19.1184 16.4766C18.8209 15.7116 18.3322 15.0528 17.7159 14.5003Z" fill="#FC6600"/>
<path d="M45.5756 19.8113C46.5744 17.9625 47.0631 15.7525 47.0631 13.16C47.0631 10.5675 46.5744 8.3575 45.5756 6.50875C44.5769 4.66 43.2381 3.23625 41.5381 2.2375C39.8381 1.23875 37.9044 0.75 35.7581 0.75C33.6119 0.75 31.6781 1.23875 29.9781 2.2375C28.2781 3.23625 26.9181 4.66 25.9406 6.50875C24.9631 8.3575 24.4531 10.5888 24.4531 13.16C24.4531 15.7313 24.9419 17.9412 25.9406 19.79C26.9181 21.6388 28.2781 23.0625 29.9781 24.0613C31.6781 25.06 33.6119 25.5488 35.7581 25.5488C37.2881 25.5488 38.7119 25.2938 40.0294 24.7838L41.9419 27.185H46.5106L43.1106 22.935C44.0881 22.085 44.9169 21.0438 45.5756 19.8113ZM32.4856 20.2363C31.5294 19.62 30.7856 18.7063 30.2544 17.5163C29.7231 16.3263 29.4469 14.86 29.4469 13.16C29.4469 11.4388 29.7231 9.99375 30.2544 8.7825C30.7856 7.57125 31.5294 6.67875 32.4856 6.04125C33.4419 5.425 34.5256 5.10625 35.7581 5.10625C36.9906 5.10625 38.0956 5.425 39.0306 6.04125C39.9869 6.6575 40.7094 7.57125 41.2406 8.76125C41.7719 9.95125 42.0269 11.4175 42.0269 13.1388C42.0269 14.8388 41.7719 16.2838 41.2406 17.495C40.9219 18.1963 40.5394 18.8125 40.0931 19.3013L38.2019 16.8788H33.9944L37.1181 21.0012C36.6719 21.0863 36.2256 21.15 35.7369 21.15C34.5256 21.1712 33.4206 20.8525 32.4856 20.2363Z" fill="#FC6600"/>
<path d="M53.3086 26.0194H58.2386V16.4994H68.7148V12.3981H58.2386V6.10812H69.6498V1.92188H53.3086V26.0194Z" fill="#FC6600"/>
<path d="M77.3633 6.10812H84.7158V26.0194H89.667V6.10812H96.9983V1.92188H77.3633V6.10812Z" fill="#FC6600"/>
</svg>
