<svg width="86" height="50" viewBox="0 0 86 50" fill="none" xmlns="http://www.w3.org/2000/svg">
<path d="M18.4375 40.5342H23.5675V43.7655C23.5675 44.448 22.893 44.9999 22.0587 44.9999H19.9463C19.112 44.9999 18.4375 44.448 18.4375 43.7655V40.5342Z" stroke="#FC6600"/>
<path d="M17.9495 9.42936H9.73381C8.8226 9.42936 8.08594 8.90412 8.08594 8.25544C8.08594 7.9311 8.27232 7.63581 8.56817 7.42281C8.86698 7.21223 9.2782 7.0791 9.73381 7.0791H17.6418C17.5353 7.35745 17.4761 7.65517 17.4761 7.96257C17.4761 8.03276 17.4791 8.10053 17.488 8.1683C17.5235 8.62577 17.6862 9.05177 17.9495 9.42936Z" stroke="#FC6600" stroke-miterlimit="10"/>
<path d="M33.9075 8.25544C33.9075 8.57978 33.7211 8.87266 33.4253 9.08565C33.1265 9.29865 32.7153 9.42936 32.2597 9.42936H24.2422C24.4877 9.07597 24.6475 8.67902 24.6948 8.25544L24.7037 8.1683C24.7126 8.10053 24.7155 8.03276 24.7155 7.96257C24.7155 7.65517 24.6593 7.35745 24.5499 7.0791H32.2597C33.1709 7.0791 33.9075 7.60676 33.9075 8.25544Z" stroke="#FC6600" stroke-miterlimit="10"/>
<path d="M27.63 16.4755V34.2319C27.63 36.2409 26.2987 37.9933 24.3165 38.93V31.2426C24.3165 29.9961 23.0799 28.9868 21.5592 28.9868H20.4409C18.9173 28.9868 17.6836 29.9961 17.6836 31.2426V38.93C15.7015 37.9933 14.3672 36.2409 14.3672 34.2319V16.4755C14.3672 13.479 17.3375 11.0488 21.0001 11.0488C22.8314 11.0488 24.4881 11.6564 25.6893 12.6391C26.8875 13.6193 27.63 14.9772 27.63 16.4755Z" stroke="#FC6600" stroke-miterlimit="10"/>
<path d="M24.3126 31.2422V40.0744C24.3126 40.3286 24.0611 40.5343 23.7505 40.5343H18.2418C17.9312 40.5343 17.6797 40.3286 17.6797 40.0744V31.2422C17.6797 29.9957 18.9134 28.9863 20.437 28.9863H21.5553C23.0759 28.9863 24.3126 29.9957 24.3126 31.2422Z" stroke="#FC6600" stroke-miterlimit="10"/>
<path d="M20.9962 17.0898C22.4439 17.0898 23.6174 16.1297 23.6174 14.9453C23.6174 13.7609 22.4439 12.8008 20.9962 12.8008C19.5486 12.8008 18.375 13.7609 18.375 14.9453C18.375 16.1297 19.5486 17.0898 20.9962 17.0898Z" stroke="#FC6600" stroke-miterlimit="10"/>
<path d="M24.6203 7.96263C24.6203 8.03282 24.6173 8.1006 24.6085 8.16837L24.5996 8.25551C24.5523 8.67908 24.3925 9.07604 24.147 9.42942C23.9724 9.67873 23.7535 9.90867 23.499 10.1047C22.8511 10.613 21.9695 10.9253 20.9991 10.9253C20.0258 10.9253 19.1442 10.613 18.4963 10.1047C18.2448 9.90867 18.0259 9.67873 17.8484 9.42942C17.5851 9.05183 17.4223 8.62583 17.3868 8.16837C17.378 8.1006 17.375 8.03282 17.375 7.96263C17.375 7.65523 17.4342 7.35752 17.5407 7.07917C17.6561 6.77177 17.8336 6.48616 18.0584 6.23201C18.7152 5.48409 19.7891 5 20.9991 5C22.2091 5 23.2801 5.48409 23.9369 6.23201C24.1617 6.48616 24.3393 6.77177 24.4546 7.07917C24.5641 7.35752 24.6203 7.65523 24.6203 7.96263Z" stroke="#FC6600" stroke-miterlimit="10"/>
<path d="M32.2936 8.25488H24.6016" stroke="#FC6600" stroke-miterlimit="10" stroke-linecap="round" stroke-linejoin="round"/>
<path d="M17.403 8.25488H9.71094" stroke="#FC6600" stroke-miterlimit="10" stroke-linecap="round" stroke-linejoin="round"/>
<g clip-path="url(#clip0_2146_22757)">
<path d="M38.0469 23.2953L42.3097 13.3395C43.0028 11.7173 44.7703 10.6445 46.7458 10.6445H69.0591C71.0346 10.6445 72.8021 11.7173 73.4952 13.3395L77.7581 23.2953M38.0469 23.2953H77.7581M38.0469 23.2953V35.7582M77.7581 23.2953V35.7582M77.7581 35.7582H38.0469M77.7581 35.7582V38.3028C77.7581 38.8927 77.2815 39.3727 76.6895 39.3727H75.2137C74.6245 39.3727 74.1451 38.8956 74.1451 38.3028V35.7582M38.0469 35.7582V38.3028C38.0469 38.8956 38.5263 39.3727 39.1155 39.3727H40.5884C41.1804 39.3727 41.657 38.8927 41.657 38.3028V35.7582" stroke="#FC6600" stroke-miterlimit="1.5625" stroke-linecap="round" stroke-linejoin="round"/>
<path d="M45.2738 32.3313C46.2707 32.3313 47.0789 31.5222 47.0789 30.5241C47.0789 29.5259 46.2707 28.7168 45.2738 28.7168C44.2769 28.7168 43.4688 29.5259 43.4688 30.5241C43.4688 31.5222 44.2769 32.3313 45.2738 32.3313Z" stroke="#FC6600" stroke-miterlimit="1.5625" stroke-linecap="round" stroke-linejoin="round"/>
<path d="M70.5394 32.3313C71.5363 32.3313 72.3445 31.5222 72.3445 30.5241C72.3445 29.5259 71.5363 28.7168 70.5394 28.7168C69.5425 28.7168 68.7344 29.5259 68.7344 30.5241C68.7344 31.5222 69.5425 32.3313 70.5394 32.3313Z" stroke="#FC6600" stroke-miterlimit="1.5625" stroke-linecap="round" stroke-linejoin="round"/>
</g>
<defs>
<clipPath id="clip0_2146_22757">
<rect width="40" height="29" fill="white" transform="translate(37.9062 10.5)"/>
</clipPath>
</defs>
</svg>
