<svg width="28" height="52" viewBox="0 0 28 52" fill="none" xmlns="http://www.w3.org/2000/svg">
<path d="M11.4375 45.418H16.5675V49.4571C16.5675 50.3103 15.893 51.0001 15.0587 51.0001H12.9463C12.112 51.0001 11.4375 50.3103 11.4375 49.4571V45.418Z" stroke="#FC6600"/>
<path d="M10.9495 6.53645H2.73381C1.8226 6.53645 1.08594 5.8799 1.08594 5.06905C1.08594 4.66363 1.27232 4.29451 1.56817 4.02826C1.86698 3.76504 2.2782 3.59863 2.73381 3.59863H10.6418C10.5353 3.94657 10.4761 4.31872 10.4761 4.70296C10.4761 4.7907 10.4791 4.87542 10.488 4.96013C10.5235 5.53196 10.6862 6.06446 10.9495 6.53645Z" stroke="#FC6600" stroke-miterlimit="10"/>
<path d="M26.9075 5.06905C26.9075 5.47448 26.7211 5.84057 26.4253 6.10682C26.1265 6.37307 25.7153 6.53645 25.2597 6.53645H17.2422C17.4877 6.09472 17.6475 5.59853 17.6948 5.06905L17.7037 4.96013C17.7126 4.87542 17.7155 4.7907 17.7155 4.70296C17.7155 4.31872 17.6593 3.94657 17.5499 3.59863H25.2597C26.1709 3.59863 26.9075 4.2582 26.9075 5.06905Z" stroke="#FC6600" stroke-miterlimit="10"/>
<path d="M20.63 15.3438V37.5393C20.63 40.0506 19.2987 42.2411 17.3165 43.412V33.8028C17.3165 32.2446 16.0799 30.983 14.5592 30.983H13.4409C11.9173 30.983 10.6836 32.2446 10.6836 33.8028V43.412C8.70146 42.2411 7.36719 40.0506 7.36719 37.5393V15.3438C7.36719 11.5982 10.3375 8.56055 14.0001 8.56055C15.8314 8.56055 17.4881 9.31996 18.6893 10.5483C19.8875 11.7737 20.63 13.471 20.63 15.3438Z" stroke="#FC6600" stroke-miterlimit="10"/>
<path d="M17.3126 33.8032V44.8435C17.3126 45.1612 17.0611 45.4183 16.7505 45.4183H11.2418C10.9312 45.4183 10.6797 45.1612 10.6797 44.8435V33.8032C10.6797 32.2451 11.9134 30.9834 13.437 30.9834H14.5553C16.0759 30.9834 17.3126 32.2451 17.3126 33.8032Z" stroke="#FC6600" stroke-miterlimit="10"/>
<path d="M13.9962 16.1123C15.4439 16.1123 16.6174 14.9121 16.6174 13.4316C16.6174 11.9511 15.4439 10.751 13.9962 10.751C12.5486 10.751 11.375 11.9511 11.375 13.4316C11.375 14.9121 12.5486 16.1123 13.9962 16.1123Z" stroke="#FC6600" stroke-miterlimit="10"/>
<path d="M17.6203 4.70328C17.6203 4.79102 17.6173 4.87574 17.6085 4.96046L17.5996 5.06938C17.5523 5.59885 17.3925 6.09504 17.147 6.53677C16.9724 6.8484 16.7535 7.13583 16.499 7.3809C15.8511 8.01627 14.9695 8.40657 13.9991 8.40657C13.0258 8.40657 12.1442 8.01627 11.4963 7.3809C11.2448 7.13583 11.0259 6.8484 10.8484 6.53677C10.5851 6.06478 10.4223 5.53229 10.3868 4.96046C10.378 4.87574 10.375 4.79102 10.375 4.70328C10.375 4.31904 10.4342 3.94689 10.5407 3.59895C10.6561 3.21471 10.8336 2.85769 11.0584 2.54001C11.7152 1.60511 12.7891 1 13.9991 1C15.2091 1 16.2801 1.60511 16.9369 2.54001C17.1617 2.85769 17.3393 3.21471 17.4546 3.59895C17.5641 3.94689 17.6203 4.31904 17.6203 4.70328Z" stroke="#FC6600" stroke-miterlimit="10"/>
<path d="M25.2936 5.06836H17.6016" stroke="#FC6600" stroke-miterlimit="10" stroke-linecap="round" stroke-linejoin="round"/>
<path d="M10.403 5.06836H2.71094" stroke="#FC6600" stroke-miterlimit="10" stroke-linecap="round" stroke-linejoin="round"/>
</svg>
