<svg width="56" height="40" viewBox="0 0 56 40" fill="none" xmlns="http://www.w3.org/2000/svg">
<g clip-path="url(#clip0_2146_22735)">
<path d="M0.695312 17.6588L6.55668 3.98624C7.50975 1.75844 9.94008 0.285156 12.6563 0.285156H43.3372C46.0534 0.285156 48.4838 1.75844 49.4368 3.98624L55.2982 17.6588M0.695312 17.6588H55.2982M0.695312 17.6588V34.7743M55.2982 17.6588V34.7743M55.2982 34.7743H0.695312M55.2982 34.7743V38.2689C55.2982 39.079 54.643 39.7382 53.8289 39.7382H51.7996C50.9895 39.7382 50.3303 39.083 50.3303 38.2689V34.7743M0.695312 34.7743V38.2689C0.695312 39.083 1.35452 39.7382 2.16463 39.7382H4.1899C5.00398 39.7382 5.65921 39.079 5.65921 38.2689V34.7743" stroke="#FC6600" stroke-miterlimit="1.5625" stroke-linecap="round" stroke-linejoin="round"/>
<path d="M10.6226 30.0684C11.9933 30.0684 13.1045 28.9572 13.1045 27.5864C13.1045 26.2157 11.9933 25.1045 10.6226 25.1045C9.25183 25.1045 8.14062 26.2157 8.14062 27.5864C8.14062 28.9572 9.25183 30.0684 10.6226 30.0684Z" stroke="#FC6600" stroke-miterlimit="1.5625" stroke-linecap="round" stroke-linejoin="round"/>
<path d="M45.3726 30.0684C46.7433 30.0684 47.8545 28.9572 47.8545 27.5864C47.8545 26.2157 46.7433 25.1045 45.3726 25.1045C44.0018 25.1045 42.8906 26.2157 42.8906 27.5864C42.8906 28.9572 44.0018 30.0684 45.3726 30.0684Z" stroke="#FC6600" stroke-miterlimit="1.5625" stroke-linecap="round" stroke-linejoin="round"/>
</g>
<defs>
<clipPath id="clip0_2146_22735">
<rect width="55" height="39.8264" fill="white" transform="translate(0.5 0.0869141)"/>
</clipPath>
</defs>
</svg>
