<svg width="52" height="41" viewBox="0 0 52 41" fill="none" xmlns="http://www.w3.org/2000/svg">
<path d="M14.9599 28.4248C14.9599 32.9527 11.2537 36.6215 6.67969 36.6215" stroke="#FC6600" stroke-miterlimit="33.3333" stroke-linecap="round" stroke-linejoin="round"/>
<path d="M37.0391 28.4248C37.0391 32.9527 40.7453 36.6215 45.3193 36.6215" stroke="#FC6600" stroke-miterlimit="33.3333" stroke-linecap="round" stroke-linejoin="round"/>
<path d="M26 28.4248V39.3527" stroke="#FC6600" stroke-miterlimit="33.3333" stroke-linecap="round" stroke-linejoin="round"/>
<path d="M1.15625 7.11303C1.15625 4.09664 3.62708 1.64746 6.67752 1.64746H45.3198C48.3669 1.64746 50.8411 4.09336 50.8411 7.11303V18.0409C50.8411 21.0573 48.3703 23.5065 45.3198 23.5065H6.67752C3.63039 23.5065 1.15625 21.0606 1.15625 18.0409V7.11303Z" stroke="#FC6600" stroke-miterlimit="33.3333" stroke-linecap="round" stroke-linejoin="round"/>
<path d="M12.1953 23.507V15.3102C12.1953 13.8021 13.4307 12.5791 14.9543 12.5791H37.0361C38.5596 12.5791 39.7951 13.8021 39.7951 15.3102V23.507" stroke="#FC6600" stroke-miterlimit="33.3333" stroke-linecap="round" stroke-linejoin="round"/>
</svg>
