<svg width="48" height="36" viewBox="0 0 48 36" fill="none" xmlns="http://www.w3.org/2000/svg">
<path d="M47.4 25.1035V24.7035H47H1H0.6V25.1035V35.1878V35.5878H1H47H47.4V35.1878V25.1035Z" stroke="#FC6600" stroke-width="0.8" stroke-miterlimit="10"/>
<path d="M1.874 2.2125H46.126C46.4155 2.2125 46.6983 2.15519 46.9236 2.04201C47.1279 1.93945 47.4 1.72504 47.4 1.37132V1.25956C47.4 0.907832 47.1305 0.691701 46.9263 0.587266C46.7009 0.471961 46.4173 0.4125 46.126 0.4125H1.874C1.58267 0.4125 1.29914 0.471961 1.07372 0.587266C0.869545 0.691702 0.6 0.907833 0.6 1.25956V1.36544C0.6 1.71717 0.869545 1.9333 1.07372 2.03773C1.29914 2.15304 1.58267 2.2125 1.874 2.2125Z" fill="#FC6600" stroke="#FC6600" stroke-width="0.8" stroke-miterlimit="10"/>
<mask id="path-3-inside-1_2146_22304" fill="white">
<path d="M6 24.9375L6 1.9375L5 1.9375L5 24.9375H6Z"/>
</mask>
<path d="M6 24.9375L6 1.9375L5 1.9375L5 24.9375H6Z" fill="#FC6600"/>
<path d="M6 1.9375L7 1.9375V0.9375L6 0.9375V1.9375ZM6 24.9375V25.9375H7V24.9375H6ZM5 24.9375H4L4 25.9375H5V24.9375ZM5 1.9375V0.9375L4 0.9375V1.9375L5 1.9375ZM5 1.9375L5 24.9375H7L7 1.9375L5 1.9375ZM6 23.9375H5L5 25.9375H6V23.9375ZM6 24.9375L6 1.9375L4 1.9375L4 24.9375H6ZM5 2.9375H6V0.9375L5 0.9375V2.9375Z" fill="#FC6600" mask="url(#path-3-inside-1_2146_22304)"/>
<mask id="path-5-inside-2_2146_22304" fill="white">
<path d="M14 24.9375L14 1.9375L13 1.9375L13 24.9375H14Z"/>
</mask>
<path d="M14 24.9375L14 1.9375L13 1.9375L13 24.9375H14Z" fill="#FC6600"/>
<path d="M14 1.9375L15 1.9375V0.9375L14 0.9375V1.9375ZM14 24.9375V25.9375H15V24.9375H14ZM13 24.9375H12V25.9375H13V24.9375ZM13 1.9375V0.9375L12 0.9375V1.9375L13 1.9375ZM13 1.9375L13 24.9375H15L15 1.9375L13 1.9375ZM14 23.9375H13V25.9375H14V23.9375ZM14 24.9375L14 1.9375L12 1.9375L12 24.9375H14ZM13 2.9375H14V0.9375L13 0.9375V2.9375Z" fill="#FC6600" mask="url(#path-5-inside-2_2146_22304)"/>
<mask id="path-7-inside-3_2146_22304" fill="white">
<path d="M21 24.9375L21 1.9375L20 1.9375L20 24.9375H21Z"/>
</mask>
<path d="M21 24.9375L21 1.9375L20 1.9375L20 24.9375H21Z" fill="#FC6600"/>
<path d="M21 1.9375L22 1.9375V0.9375L21 0.9375V1.9375ZM21 24.9375V25.9375H22V24.9375H21ZM20 24.9375H19V25.9375H20V24.9375ZM20 1.9375V0.9375L19 0.9375V1.9375L20 1.9375ZM20 1.9375L20 24.9375H22L22 1.9375L20 1.9375ZM21 23.9375H20V25.9375H21V23.9375ZM21 24.9375L21 1.9375L19 1.9375L19 24.9375H21ZM20 2.9375H21V0.9375L20 0.9375V2.9375Z" fill="#FC6600" mask="url(#path-7-inside-3_2146_22304)"/>
<mask id="path-9-inside-4_2146_22304" fill="white">
<path d="M29 24.9375L29 1.9375L28 1.9375L28 24.9375H29Z"/>
</mask>
<path d="M29 24.9375L29 1.9375L28 1.9375L28 24.9375H29Z" fill="#FC6600"/>
<path d="M29 1.9375L30 1.9375V0.9375L29 0.9375V1.9375ZM29 24.9375V25.9375H30V24.9375H29ZM28 24.9375H27V25.9375H28V24.9375ZM28 1.9375V0.9375L27 0.9375V1.9375L28 1.9375ZM28 1.9375L28 24.9375H30L30 1.9375L28 1.9375ZM29 23.9375H28V25.9375H29V23.9375ZM29 24.9375L29 1.9375L27 1.9375L27 24.9375H29ZM28 2.9375H29V0.9375L28 0.9375V2.9375Z" fill="#FC6600" mask="url(#path-9-inside-4_2146_22304)"/>
<mask id="path-11-inside-5_2146_22304" fill="white">
<path d="M36 24.9375L36 1.9375L35 1.9375L35 24.9375H36Z"/>
</mask>
<path d="M36 24.9375L36 1.9375L35 1.9375L35 24.9375H36Z" fill="#FC6600"/>
<path d="M36 1.9375L37 1.9375V0.9375L36 0.9375V1.9375ZM36 24.9375V25.9375H37V24.9375H36ZM35 24.9375H34V25.9375H35V24.9375ZM35 1.9375V0.9375L34 0.9375V1.9375L35 1.9375ZM35 1.9375L35 24.9375H37L37 1.9375L35 1.9375ZM36 23.9375H35V25.9375H36V23.9375ZM36 24.9375L36 1.9375L34 1.9375L34 24.9375H36ZM35 2.9375H36V0.9375L35 0.9375V2.9375Z" fill="#FC6600" mask="url(#path-11-inside-5_2146_22304)"/>
<mask id="path-13-inside-6_2146_22304" fill="white">
<path d="M44 24.9375L44 1.9375L43 1.9375L43 24.9375H44Z"/>
</mask>
<path d="M44 24.9375L44 1.9375L43 1.9375L43 24.9375H44Z" fill="#FC6600"/>
<path d="M44 1.9375L45 1.9375V0.9375L44 0.9375V1.9375ZM44 24.9375V25.9375H45V24.9375H44ZM43 24.9375H42V25.9375H43V24.9375ZM43 1.9375V0.9375L42 0.9375V1.9375L43 1.9375ZM43 1.9375L43 24.9375H45L45 1.9375L43 1.9375ZM44 23.9375H43V25.9375H44V23.9375ZM44 24.9375L44 1.9375L42 1.9375L42 24.9375H44ZM43 2.9375H44V0.9375L43 0.9375V2.9375Z" fill="#FC6600" mask="url(#path-13-inside-6_2146_22304)"/>
</svg>
