<svg width="50" height="40" viewBox="0 0 50 40" fill="none" xmlns="http://www.w3.org/2000/svg">
<g clip-path="url(#clip0_2146_22631)">
<mask id="path-1-inside-1_2146_22631" fill="white">
<path d="M0.296875 39.7044V20.0014C0.296875 17.2792 2.50829 15.0742 5.23848 15.0742H44.7624C47.4896 15.0742 49.704 17.2792 49.704 20.0014V39.7073"/>
</mask>
<path d="M-0.703125 39.7044C-0.703125 40.2567 -0.25541 40.7044 0.296875 40.7044C0.84916 40.7044 1.29688 40.2567 1.29688 39.7044H-0.703125ZM48.704 39.7073C48.704 40.2596 49.1517 40.7073 49.704 40.7073C50.2563 40.7073 50.704 40.2596 50.704 39.7073H48.704ZM1.29688 39.7044V20.0014H-0.703125V39.7044H1.29688ZM1.29688 20.0014C1.29688 17.8342 3.05783 16.0742 5.23848 16.0742V14.0742C1.95876 14.0742 -0.703125 16.7242 -0.703125 20.0014H1.29688ZM5.23848 16.0742H44.7624V14.0742H5.23848V16.0742ZM44.7624 16.0742C46.9405 16.0742 48.704 17.8346 48.704 20.0014H50.704C50.704 16.7238 48.0388 14.0742 44.7624 14.0742V16.0742ZM48.704 20.0014V39.7073H50.704V20.0014H48.704Z" fill="#FC6600" mask="url(#path-1-inside-1_2146_22631)"/>
<path d="M5.23438 15.0746V5.22311C5.23438 2.50088 7.44579 0.295898 10.173 0.295898H39.8167C42.5469 0.295898 44.7583 2.50088 44.7583 5.22311V15.0746" stroke="#FC6600" stroke-miterlimit="33.3333" stroke-linecap="round" stroke-linejoin="round"/>
<path d="M25 0.295898V15.0746" stroke="#FC6600" stroke-miterlimit="33.3333" stroke-linecap="round" stroke-linejoin="round"/>
<path d="M1 35L49 35" stroke="#FC6600" stroke-miterlimit="33.3333" stroke-linecap="round" stroke-linejoin="round"/>
</g>
<defs>
<clipPath id="clip0_2146_22631">
<rect width="50" height="40" fill="white"/>
</clipPath>
</defs>
</svg>
