<svg width="40" height="40" viewBox="0 0 40 40" fill="none" xmlns="http://www.w3.org/2000/svg">
<path d="M15.0607 23.0607C14.7794 23.342 14.3978 23.5 14 23.5C13.6022 23.5 13.2206 23.342 12.9393 23.0607C12.658 22.7794 12.5 22.3978 12.5 22C12.5 21.6022 12.658 21.2206 12.9393 20.9393C13.2206 20.658 13.6022 20.5 14 20.5C14.3978 20.5 14.7794 20.658 15.0607 20.9393C15.342 21.2206 15.5 21.6022 15.5 22C15.5 22.3978 15.342 22.7794 15.0607 23.0607ZM27.5 22C27.5 22.3978 27.342 22.7794 27.0607 23.0607C26.7794 23.342 26.3978 23.5 26 23.5C25.6022 23.5 25.2206 23.342 24.9393 23.0607C24.658 22.7794 24.5 22.3978 24.5 22C24.5 21.6022 24.658 21.2206 24.9393 20.9393C25.2206 20.658 25.6022 20.5 26 20.5C26.3978 20.5 26.7794 20.658 27.0607 20.9393C27.342 21.2206 27.5 21.6022 27.5 22Z" stroke="#FC6600"/>
<path d="M35.745 15.05L35.6009 14.5919L35.1374 14.7174C33.5098 15.1579 31.7977 15.392 30.03 15.392H30.0299C26.5863 15.3925 23.204 14.481 20.2269 12.7503C17.2498 11.0196 14.7841 8.53137 13.0805 5.53865L12.843 5.12136L12.4164 5.34181C9.13054 7.03999 6.51051 9.79298 4.97694 13.1589C3.44337 16.5247 3.08521 20.3083 3.95994 23.9021C4.83468 27.496 6.89158 30.6917 9.80046 32.9763C12.7093 35.2609 16.3013 36.5018 20 36.5C22.5911 36.5008 25.1459 35.8913 27.4576 34.721C29.7693 33.5507 31.7729 31.8524 33.3062 29.7636C34.8394 27.6748 35.8592 25.2543 36.2829 22.6981C36.7066 20.1418 36.5223 17.5218 35.745 15.05ZM39.5 20C39.5 30.7699 30.7699 39.5 20 39.5C9.23014 39.5 0.5 30.7699 0.5 20C0.5 9.23014 9.23014 0.5 20 0.5C30.7699 0.5 39.5 9.23014 39.5 20Z" stroke="#FC6600"/>
</svg>
