<svg width="52" height="41" viewBox="0 0 52 41" fill="none" xmlns="http://www.w3.org/2000/svg">
<g clip-path="url(#clip0_2146_21754)">
<path d="M46.5011 16.9571L44.9129 21.1175C44.6588 21.7829 43.9031 22.1201 43.2245 21.8715L28.3011 16.3947L29.0056 14.4852C29.3881 13.4486 28.8414 12.3042 27.7847 11.9296L27.2083 11.7245C26.1511 11.3499 24.9849 11.886 24.6019 12.9226L23.915 14.7846L17.4932 12.4273C16.8146 12.1782 16.4702 11.4366 16.7242 10.7713L18.313 6.61035L46.5011 16.9571Z" stroke="#FC6600" stroke-miterlimit="10"/>
<path d="M44.9375 21.0613L46.3284 21.5714C46.5243 21.4244 47.0021 21.0249 47.2517 20.3231C47.4774 19.6879 47.3978 19.1399 47.3479 18.9003C46.8907 18.714 46.4334 18.5276 45.9761 18.3408L44.9375 21.0613Z" stroke="#FC6600" stroke-miterlimit="10"/>
<path d="M17.2785 6.21508L48.1668 17.5519C48.3134 17.6056 48.4785 17.5558 48.5689 17.4303L51.8138 12.9182C51.9437 12.7372 51.8641 12.4842 51.6526 12.4071L19.4056 0.640534C19.2278 0.575385 19.0295 0.664007 18.963 0.838855L17.0768 5.78059C17.0098 5.95544 17.1002 6.14993 17.2785 6.21508Z" stroke="#FC6600" stroke-miterlimit="10"/>
<path d="M28.5423 14.3122L28.5422 14.3125L27.8377 16.2219L27.8377 16.222L27.1513 18.0834C27.1513 18.0835 27.1513 18.0835 27.1513 18.0836C26.8658 18.8569 25.9866 19.2692 25.1809 18.9834C25.1808 18.9834 25.1808 18.9834 25.1807 18.9834L24.6049 18.7789L24.6047 18.7788C23.8032 18.4944 23.4013 17.6354 23.6848 16.867C23.6848 16.867 23.6848 16.867 23.6848 16.867L24.3893 14.9581L24.3893 14.958L25.0762 13.096C25.0762 13.096 25.0762 13.096 25.0762 13.096C25.3615 12.3228 26.2403 11.9107 27.0461 12.1961C27.0462 12.1961 27.0463 12.1961 27.0464 12.1962L27.6224 12.401L27.6228 12.4012C28.4248 12.6856 28.8261 13.5444 28.5423 14.3122ZM29.0113 14.4856L28.3068 16.395L29.0113 14.4856Z" stroke="#FC6600" stroke-miterlimit="10"/>
<path d="M26.691 15.0248C27.2408 15.0248 27.6866 14.5877 27.6866 14.0485C27.6866 13.5094 27.2408 13.0723 26.691 13.0723C26.1411 13.0723 25.6953 13.5094 25.6953 14.0485C25.6953 14.5877 26.1411 15.0248 26.691 15.0248Z" stroke="#FC6600" stroke-miterlimit="10"/>
<path d="M25.5152 18.2508C26.0456 18.2508 26.4756 17.8291 26.4756 17.309C26.4756 16.7888 26.0456 16.3672 25.5152 16.3672C24.9847 16.3672 24.5547 16.7888 24.5547 17.309C24.5547 17.8291 24.9847 18.2508 25.5152 18.2508Z" stroke="#FC6600" stroke-miterlimit="10"/>
<path d="M23.9844 28.7156L26.3489 19.4697" stroke="#FC6600" stroke-miterlimit="10"/>
<path d="M21.2734 28.1294L23.7195 18.8174" stroke="#FC6600" stroke-miterlimit="10"/>
<path d="M21.9707 33.632C22.9944 33.632 23.8242 32.8183 23.8242 31.8145C23.8242 30.8108 22.9944 29.9971 21.9707 29.9971C20.947 29.9971 20.1172 30.8108 20.1172 31.8145C20.1172 32.8183 20.947 33.632 21.9707 33.632Z" stroke="#FC6600" stroke-miterlimit="10"/>
<path d="M21.9693 35.5003C24.0449 35.5003 25.7276 33.8504 25.7276 31.8151C25.7276 29.7798 24.0449 28.1299 21.9693 28.1299C19.8936 28.1299 18.2109 29.7798 18.2109 31.8151C18.2109 33.8504 19.8936 35.5003 21.9693 35.5003Z" stroke="#FC6600" stroke-miterlimit="10"/>
<path d="M18.5127 33.255H6.47656V30.3506H18.5127C18.3876 30.6433 18.2127 31.1563 18.2147 31.8145C18.2166 32.4603 18.3881 32.9642 18.5127 33.255Z" stroke="#FC6600" stroke-miterlimit="10"/>
<path d="M3.55469 38.2934H5.21914C5.91091 38.2934 6.47175 37.7435 6.47175 37.0652V26.363C6.47175 25.6847 5.91091 25.1348 5.21914 25.1348H3.55469V38.2934Z" stroke="#FC6600" stroke-miterlimit="10"/>
<path d="M0.125 40.3799H2.00685C2.86326 40.3799 3.55698 39.6991 3.55698 38.8599V24.77C3.55698 23.9302 2.86277 23.25 2.00685 23.25H0.125V40.3799Z" stroke="#FC6600" stroke-miterlimit="10"/>
<path d="M26.7169 13.0723L26.6641 15.0057" stroke="#FC6600" stroke-miterlimit="10"/>
<path d="M27.6856 14.0916L25.6953 14.0293" stroke="#FC6600" stroke-miterlimit="10"/>
<path d="M25.545 16.3428L25.4922 18.2762" stroke="#FC6600" stroke-miterlimit="10"/>
<path d="M26.5133 17.3621L24.5234 17.2998" stroke="#FC6600" stroke-miterlimit="10"/>
</g>
<defs>
<clipPath id="clip0_2146_21754">
<rect width="52" height="40" fill="white" transform="translate(0 0.5)"/>
</clipPath>
</defs>
</svg>
