<svg width="40" height="40" viewBox="0 0 40 40" fill="none" xmlns="http://www.w3.org/2000/svg">
<path d="M13.1578 2.30859L1.90625 37.3125L3.09687 37.6875L14.3453 2.69141L13.1578 2.30859ZM26.8453 2.30859L25.6578 2.69141L36.9078 37.6875L38.0953 37.3125L26.8453 2.30859ZM19.3766 2.5L19.3141 4.0625H20.6891L20.6266 2.5H19.3766ZM19.2672 5.3125L19.2047 6.875H20.7984L20.7359 5.3125H19.2672ZM19.15 8.125L19.0484 10.625H20.9547L20.8531 8.125H19.15ZM19.0016 11.875L18.8453 15.625H21.1578L21.0016 11.875H19.0016ZM18.7828 17.1875L18.5953 21.875H21.4078L21.2203 17.1875H18.7828ZM18.525 23.75L18.2984 29.375H21.7047L21.4781 23.75H18.525ZM18.2125 31.5625L17.9703 37.5H22.0328L21.7906 31.5625H18.2125Z" fill="#FC6600"/>
</svg>
