<svg width="42" height="43" viewBox="0 0 42 43" fill="none" xmlns="http://www.w3.org/2000/svg">
<path d="M36.6432 1.13238L36.5767 1.1727L36.5227 1.22863L23.3303 14.8896L22.9193 15.3153L23.3391 15.7322L26.7766 19.1457L27.2072 19.5734L27.6299 19.1378L40.919 5.44391L40.9915 5.36914L41.0346 5.2743C41.7218 3.76227 41.3589 2.29617 40.4076 1.41822C39.459 0.542863 37.9893 0.316201 36.6432 1.13238ZM18.7207 15.8565L18.7206 15.8564L18.7087 15.8633C18.558 15.9495 18.4087 16.0495 18.2638 16.1627C13.2504 19.4172 7.51604 18.8736 1.37612 17.038L0.611249 16.8093L0.604286 17.6076C0.548227 24.0344 2.52565 29.3895 5.99153 33.4361C9.45423 37.4789 14.3721 40.1804 20.1427 41.3613L20.6458 41.4642L20.8251 40.9831L27.0543 24.2753C27.3314 23.6249 27.4276 22.9694 27.3037 22.3247C27.1791 21.677 26.8424 21.092 26.3403 20.569L26.3404 20.5689L26.3307 20.5593L24.2074 18.4466L24.1748 18.4133L24.1749 18.4133L24.1692 18.4076L21.8592 16.1075L21.8227 16.0712L21.7806 16.0416C21.292 15.6987 20.7811 15.5006 20.253 15.4693C19.7251 15.438 19.2262 15.5763 18.7662 15.8319L18.7207 15.8565Z" stroke="#FC6600" stroke-opacity="0.8" stroke-width="1.2" stroke-miterlimit="10"/>
</svg>
