<svg width="30" height="41" viewBox="0 0 30 41" fill="none" xmlns="http://www.w3.org/2000/svg">
<mask id="path-1-inside-1_2146_21786" fill="white">
<path d="M6.53094 34.7998V35.2398L6.79094 35.2798L6.62094 35.7898H5.40094L5.23094 35.2798L5.49094 35.2398V34.7998H4.21094V35.2398L4.48094 35.2798L5.63094 38.4698H6.41094L7.55094 35.2798L7.82094 35.2398V34.7998H6.53094ZM6.02094 37.6298H6.00094L5.58094 36.3298H6.45094L6.02094 37.6298Z"/>
</mask>
<path d="M6.53094 34.7998V35.2398L6.79094 35.2798L6.62094 35.7898H5.40094L5.23094 35.2798L5.49094 35.2398V34.7998H4.21094V35.2398L4.48094 35.2798L5.63094 38.4698H6.41094L7.55094 35.2798L7.82094 35.2398V34.7998H6.53094ZM6.02094 37.6298H6.00094L5.58094 36.3298H6.45094L6.02094 37.6298Z" fill="#222222" fill-opacity="0.8"/>
<path d="M6.53094 34.7998V33.7998H5.53094V34.7998H6.53094ZM6.53094 35.2398H5.53094V36.0977L6.37888 36.2282L6.53094 35.2398ZM6.79094 35.2798L7.73962 35.596L8.11441 34.4717L6.943 34.2914L6.79094 35.2798ZM6.62094 35.7898V36.7898H7.3417L7.56962 36.106L6.62094 35.7898ZM5.40094 35.7898L4.45225 36.106L4.68018 36.7898H5.40094V35.7898ZM5.23094 35.2798L5.07888 34.2914L3.90746 34.4717L4.28225 35.596L5.23094 35.2798ZM5.49094 35.2398L5.643 36.2282L6.49094 36.0977V35.2398H5.49094ZM5.49094 34.7998H6.49094V33.7998H5.49094V34.7998ZM4.21094 34.7998V33.7998H3.21094V34.7998H4.21094ZM4.21094 35.2398H3.21094V36.1026L4.06439 36.229L4.21094 35.2398ZM4.48094 35.2798L5.42167 34.9407L5.21891 34.3782L4.62749 34.2906L4.48094 35.2798ZM5.63094 38.4698L4.6902 38.8089L4.92844 39.4698H5.63094V38.4698ZM6.41094 38.4698V39.4698H7.11551L7.35261 38.8063L6.41094 38.4698ZM7.55094 35.2798L7.40439 34.2906L6.8111 34.3785L6.60926 34.9433L7.55094 35.2798ZM7.82094 35.2398L7.96749 36.229L8.82094 36.1026V35.2398H7.82094ZM7.82094 34.7998H8.82094V33.7998H7.82094V34.7998ZM6.02094 37.6298V38.6298H6.74345L6.97035 37.9438L6.02094 37.6298ZM6.00094 37.6298L5.04937 37.9372L5.27312 38.6298H6.00094V37.6298ZM5.58094 36.3298V35.3298H4.20697L4.62937 36.6372L5.58094 36.3298ZM6.45094 36.3298L7.40035 36.6438L7.83499 35.3298H6.45094V36.3298ZM5.53094 34.7998V35.2398H7.53094V34.7998H5.53094ZM6.37888 36.2282L6.63888 36.2682L6.943 34.2914L6.683 34.2514L6.37888 36.2282ZM5.84225 34.9636L5.67225 35.4736L7.56962 36.106L7.73962 35.596L5.84225 34.9636ZM6.62094 34.7898H5.40094V36.7898H6.62094V34.7898ZM6.34962 35.4736L6.17962 34.9636L4.28225 35.596L4.45225 36.106L6.34962 35.4736ZM5.383 36.2682L5.643 36.2282L5.33888 34.2514L5.07888 34.2914L5.383 36.2682ZM6.49094 35.2398V34.7998H4.49094V35.2398H6.49094ZM5.49094 33.7998H4.21094V35.7998H5.49094V33.7998ZM3.21094 34.7998V35.2398H5.21094V34.7998H3.21094ZM4.06439 36.229L4.33439 36.269L4.62749 34.2906L4.35749 34.2506L4.06439 36.229ZM3.5402 35.6189L4.6902 38.8089L6.57167 38.1307L5.42167 34.9407L3.5402 35.6189ZM5.63094 39.4698H6.41094V37.4698H5.63094V39.4698ZM7.35261 38.8063L8.49261 35.6163L6.60926 34.9433L5.46926 38.1333L7.35261 38.8063ZM7.69749 36.269L7.96749 36.229L7.67439 34.2506L7.40439 34.2906L7.69749 36.269ZM8.82094 35.2398V34.7998H6.82094V35.2398H8.82094ZM7.82094 33.7998H6.53094V35.7998H7.82094V33.7998ZM6.02094 36.6298H6.00094V38.6298H6.02094V36.6298ZM6.95251 37.3224L6.53251 36.0224L4.62937 36.6372L5.04937 37.9372L6.95251 37.3224ZM5.58094 37.3298H6.45094V35.3298H5.58094V37.3298ZM5.50153 36.0158L5.07153 37.3158L6.97035 37.9438L7.40035 36.6438L5.50153 36.0158Z" fill="#FC6600" mask="url(#path-1-inside-1_2146_21786)"/>
<mask id="path-3-inside-2_2146_21786" fill="white">
<path d="M25.5275 5.72027L24.3875 2.53027H23.6075L22.4575 5.72027L22.1875 5.76027V6.20027H23.4775V5.76027L23.2175 5.72027L23.3875 5.21027H24.6075L24.7775 5.72027L24.5175 5.76027V6.20027H25.8075V5.76027L25.5275 5.72027ZM23.5575 4.67027L23.9775 3.38027H23.9975L24.4275 4.67027H23.5575Z"/>
</mask>
<path d="M25.5275 5.72027L24.3875 2.53027H23.6075L22.4575 5.72027L22.1875 5.76027V6.20027H23.4775V5.76027L23.2175 5.72027L23.3875 5.21027H24.6075L24.7775 5.72027L24.5175 5.76027V6.20027H25.8075V5.76027L25.5275 5.72027ZM23.5575 4.67027L23.9775 3.38027H23.9975L24.4275 4.67027H23.5575Z" fill="#222222" fill-opacity="0.8"/>
<path d="M25.5275 5.72027L24.5858 6.0568L24.7888 6.6249L25.3861 6.71022L25.5275 5.72027ZM24.3875 2.53027L25.3292 2.19375L25.0921 1.53027H24.3875V2.53027ZM23.6075 2.53027V1.53027H22.905L22.6668 2.19114L23.6075 2.53027ZM22.4575 5.72027L22.604 6.70948L23.1955 6.62186L23.3982 6.05941L22.4575 5.72027ZM22.1875 5.76027L22.041 4.77107L21.1875 4.89751V5.76027H22.1875ZM22.1875 6.20027H21.1875V7.20027H22.1875V6.20027ZM23.4775 6.20027V7.20027H24.4775V6.20027H23.4775ZM23.4775 5.76027H24.4775V4.90235L23.6296 4.7719L23.4775 5.76027ZM23.2175 5.72027L22.2688 5.40405L21.894 6.52843L23.0654 6.70865L23.2175 5.72027ZM23.3875 5.21027V4.21027H22.6667L22.4388 4.89405L23.3875 5.21027ZM24.6075 5.21027L25.5562 4.89405L25.3283 4.21027H24.6075V5.21027ZM24.7775 5.72027L24.9296 6.70865L26.101 6.52843L25.7262 5.40405L24.7775 5.72027ZM24.5175 5.76027L24.3654 4.7719L23.5175 4.90235V5.76027H24.5175ZM24.5175 6.20027H23.5175V7.20027H24.5175V6.20027ZM25.8075 6.20027V7.20027H26.8075V6.20027H25.8075ZM25.8075 5.76027H26.8075V4.89298L25.9489 4.77032L25.8075 5.76027ZM23.5575 4.67027L22.6066 4.36069L22.1803 5.67027H23.5575V4.67027ZM23.9775 3.38027V2.38027H23.2514L23.0266 3.07069L23.9775 3.38027ZM23.9975 3.38027L24.9462 3.06405L24.7183 2.38027H23.9975V3.38027ZM24.4275 4.67027V5.67027H25.8149L25.3762 4.35405L24.4275 4.67027ZM26.4692 5.38375L25.3292 2.19375L23.4458 2.8668L24.5858 6.0568L26.4692 5.38375ZM24.3875 1.53027H23.6075V3.53027H24.3875V1.53027ZM22.6668 2.19114L21.5168 5.38114L23.3982 6.05941L24.5482 2.86941L22.6668 2.19114ZM22.311 4.73107L22.041 4.77107L22.334 6.74948L22.604 6.70948L22.311 4.73107ZM21.1875 5.76027V6.20027H23.1875V5.76027H21.1875ZM22.1875 7.20027H23.4775V5.20027H22.1875V7.20027ZM24.4775 6.20027V5.76027H22.4775V6.20027H24.4775ZM23.6296 4.7719L23.3696 4.7319L23.0654 6.70865L23.3254 6.74865L23.6296 4.7719ZM24.1662 6.0365L24.3362 5.5265L22.4388 4.89405L22.2688 5.40405L24.1662 6.0365ZM23.3875 6.21027H24.6075V4.21027H23.3875V6.21027ZM23.6588 5.5265L23.8288 6.0365L25.7262 5.40405L25.5562 4.89405L23.6588 5.5265ZM24.6254 4.7319L24.3654 4.7719L24.6696 6.74865L24.9296 6.70865L24.6254 4.7319ZM23.5175 5.76027V6.20027H25.5175V5.76027H23.5175ZM24.5175 7.20027H25.8075V5.20027H24.5175V7.20027ZM26.8075 6.20027V5.76027H24.8075V6.20027H26.8075ZM25.9489 4.77032L25.6689 4.73032L25.3861 6.71022L25.6661 6.75022L25.9489 4.77032ZM24.5084 4.97986L24.9284 3.68986L23.0266 3.07069L22.6066 4.36069L24.5084 4.97986ZM23.9775 4.38027H23.9975V2.38027H23.9775V4.38027ZM23.0488 3.6965L23.4788 4.9865L25.3762 4.35405L24.9462 3.06405L23.0488 3.6965ZM24.4275 3.67027H23.5575V5.67027H24.4275V3.67027Z" fill="#FC6600" mask="url(#path-3-inside-2_2146_21786)"/>
<path d="M15.4821 25.4637L16.538 27.8299H13.5331L14.305 25.412C14.3723 25.2011 14.2929 24.971 14.1099 24.8465C13.9269 24.722 13.6837 24.7327 13.5123 24.8727C12.4178 25.767 11.1959 25.8781 10.2263 25.4671C9.25378 25.0548 8.4785 24.0932 8.33604 22.7188C8.22473 21.6256 8.70277 20.2936 9.87852 18.6566C10.9935 17.1042 12.6897 15.3414 14.9396 13.3369C17.2017 15.341 18.9007 17.1099 20.0373 18.6672C21.2349 20.3081 21.7648 21.6555 21.7388 22.7576C21.6987 24.3207 20.861 25.3195 19.8043 25.7096C18.7335 26.1049 17.3761 25.897 16.2761 24.891C16.1013 24.7311 15.8383 24.7158 15.6462 24.8544C15.454 24.993 15.3855 25.2474 15.4821 25.4637Z" stroke="#FC6600" stroke-linejoin="round"/>
<path d="M29 0.5H1V40.5H29V0.5Z" stroke="#FC6600" stroke-width="0.8" stroke-miterlimit="10"/>
</svg>
