<svg width="28" height="40" viewBox="0 0 28 40" fill="none" xmlns="http://www.w3.org/2000/svg">
<path d="M9.1155 30.9665L9.11551 9.54564C9.11551 8.95906 9.59095 8.4834 10.1777 8.4834L18.2503 8.4834C18.8369 8.4834 19.3125 8.95886 19.3125 9.54564L19.3125 30.9665C19.3125 31.553 18.837 32.0287 18.2503 32.0287L10.1777 32.0287C9.59115 32.0287 9.1155 31.553 9.1155 30.9665Z" stroke="#FC6600" stroke-width="0.8" stroke-miterlimit="10"/>
<path d="M20.7853 15.457L20.7853 10.6992C20.7853 10.4804 20.9627 10.3027 21.1818 10.3027L26.3359 10.3027L26.3359 15.8535L21.1818 15.8535C20.9629 15.8535 20.7853 15.6759 20.7853 15.457Z" stroke="#FC6600" stroke-width="0.8" stroke-miterlimit="10"/>
<path d="M20.7853 17.6659C20.7853 16.9151 21.394 16.3066 22.1445 16.3066L26.3359 16.3066L26.3359 17.6659L20.7853 17.6659Z" stroke="#FC6600" stroke-width="0.8" stroke-miterlimit="10"/>
<path d="M26.3361 17.666L27.6953 17.666L27.6953 8.49034L26.3361 8.49034L26.3361 17.666Z" stroke="#FC6600" stroke-width="0.8" stroke-miterlimit="10"/>
<path d="M20.7853 8.49023L26.3359 8.49023L26.3359 9.84951L22.1447 9.84951C21.394 9.84951 20.7853 9.24083 20.7853 8.49023Z" stroke="#FC6600" stroke-width="0.8" stroke-miterlimit="10"/>
<path d="M20.7853 29.8193L20.7853 25.0616C20.7853 24.8427 20.9627 24.665 21.1818 24.665L26.3359 24.665L26.3359 30.2158L21.1818 30.2158C20.9629 30.2158 20.7853 30.0384 20.7853 29.8193Z" stroke="#FC6600" stroke-width="0.8" stroke-miterlimit="10"/>
<path d="M20.7853 32.0282C20.7853 31.2774 21.394 30.6689 22.1445 30.6689L26.3359 30.6689L26.3359 32.0282L20.7853 32.0282Z" stroke="#FC6600" stroke-width="0.8" stroke-miterlimit="10"/>
<path d="M26.3361 32.0283L27.6953 32.0283L27.6953 22.8526L26.3361 22.8526L26.3361 32.0283Z" stroke="#FC6600" stroke-width="0.8" stroke-miterlimit="10"/>
<path d="M20.7853 22.8525L26.3359 22.8525L26.3359 24.2118L22.1447 24.2118C21.394 24.212 20.7853 23.6033 20.7853 22.8525Z" stroke="#FC6600" stroke-width="0.8" stroke-miterlimit="10"/>
<path d="M7.16406 25.0616L7.16406 29.8193C7.16406 30.0382 6.98663 30.2158 6.76756 30.2158L1.61341 30.2158L1.61341 24.665L6.76756 24.665C6.98663 24.665 7.16406 24.8427 7.16406 25.0616Z" stroke="#FC6600" stroke-width="0.8" stroke-miterlimit="10"/>
<path d="M7.16406 22.8525C7.16406 23.6033 6.55539 24.2118 5.80482 24.2118L1.6136 24.2118L1.6136 22.8525L7.16406 22.8525Z" stroke="#FC6600" stroke-width="0.8" stroke-miterlimit="10"/>
<path d="M1.60924 22.8525L0.25 22.8525L0.25 32.0282L1.60924 32.0282L1.60924 22.8525Z" stroke="#FC6600" stroke-width="0.8" stroke-miterlimit="10"/>
<path d="M7.16406 32.0282L1.61341 32.0282L1.61341 30.6689L5.80462 30.6689C6.55539 30.6687 7.16406 31.2774 7.16406 32.0282Z" stroke="#FC6600" stroke-width="0.8" stroke-miterlimit="10"/>
<path d="M7.16406 10.7002L7.16406 15.458C7.16406 15.6769 6.98663 15.8545 6.76756 15.8545L1.61341 15.8545L1.61341 10.3037L6.76756 10.3037C6.98663 10.3037 7.16406 10.4811 7.16406 10.7002Z" stroke="#FC6600" stroke-width="0.8" stroke-miterlimit="10"/>
<path d="M7.16406 8.49023C7.16406 9.24103 6.55539 9.84951 5.80482 9.84951L1.6136 9.84951L1.6136 8.49023L7.16406 8.49023Z" stroke="#FC6600" stroke-width="0.8" stroke-miterlimit="10"/>
<path d="M1.60924 8.49023L0.25 8.49023L0.25 17.6659L1.60924 17.6659L1.60924 8.49023Z" stroke="#FC6600" stroke-width="0.8" stroke-miterlimit="10"/>
<path d="M7.16406 17.6659L1.61341 17.6659L1.61341 16.3066L5.80462 16.3066C6.55539 16.3064 7.16406 16.9151 7.16406 17.6659Z" stroke="#FC6600" stroke-width="0.8" stroke-miterlimit="10"/>
<path d="M16.5957 6.94826L11.838 6.94826C11.6192 6.94826 11.4415 6.77082 11.4415 6.55174L11.4415 1.39746L16.9922 1.39746L16.9922 6.55175C16.9922 6.77063 16.8148 6.94826 16.5957 6.94826Z" stroke="#FC6600" stroke-width="0.8" stroke-miterlimit="10"/>
<path d="M18.8047 6.94826C18.0539 6.94826 17.4454 6.33957 17.4454 5.58898L17.4454 1.39746L18.8047 1.39746L18.8047 6.94826Z" stroke="#FC6600" stroke-width="0.8" stroke-miterlimit="10"/>
<path d="M18.8047 1.39736L18.8047 0.0380859L9.62925 0.0380855L9.62925 1.39736L18.8047 1.39736Z" stroke="#FC6600" stroke-width="0.8" stroke-miterlimit="10"/>
<path d="M9.62513 6.94826L9.62513 1.39746L10.9844 1.39746L10.9844 5.58878C10.9844 6.33957 10.3759 6.94826 9.62513 6.94826Z" stroke="#FC6600" stroke-width="0.8" stroke-miterlimit="10"/>
<path d="M11.8302 33.1289L16.5879 33.1289C16.8067 33.1289 16.9844 33.3063 16.9844 33.5254L16.9844 38.6797L11.4337 38.6797L11.4337 33.5254C11.4337 33.3063 11.6113 33.1289 11.8302 33.1289Z" stroke="#FC6600" stroke-width="0.8" stroke-miterlimit="10"/>
<path d="M9.62513 33.1289C10.3759 33.1289 10.9844 33.7376 10.9844 34.4882L10.9844 38.6795L9.62513 38.6795L9.62513 33.1289Z" stroke="#FC6600" stroke-width="0.8" stroke-miterlimit="10"/>
<path d="M9.63281 38.6798L9.63281 40.0391L18.8083 40.0391L18.8083 38.6798L9.63281 38.6798Z" stroke="#FC6600" stroke-width="0.8" stroke-miterlimit="10"/>
<path d="M18.8047 33.1289L18.8047 38.6797L17.4454 38.6797L17.4454 34.4884C17.4454 33.7376 18.0541 33.1289 18.8047 33.1289Z" stroke="#FC6600" stroke-width="0.8" stroke-miterlimit="10"/>
</svg>
