<svg width="40" height="41" viewBox="0 0 40 41" fill="none" xmlns="http://www.w3.org/2000/svg">
<path d="M39.1809 20.0521L39.1834 20.0447C39.664 18.6091 39.6649 17.7565 39.511 17.3347C39.4883 17.2731 39.4668 17.234 39.4507 17.2107C39.4444 17.2016 39.4394 17.1957 39.4361 17.192C39.432 17.1919 39.4265 17.192 39.4197 17.1927L39.1809 20.0521ZM39.1809 20.0521L39.1788 20.0595M39.1809 20.0521L39.1788 20.0595M39.1788 20.0595L39.1683 20.0952L39.1683 20.0952M39.1788 20.0595L39.1683 20.0952M39.1683 20.0952L39.167 20.1M39.1683 20.0952L39.167 20.1M39.167 20.1L38.254 23.3744L38.2538 23.3753M39.167 20.1L38.2538 23.3753M38.2538 23.3753C38.1391 23.7904 38.0456 24.1432 37.9622 24.4579C37.9387 24.5468 37.9159 24.6326 37.8937 24.7159L37.8935 24.7169M38.2538 23.3753L37.8935 24.7169M37.8935 24.7169C37.6246 25.7367 37.4532 26.3818 37.1399 27.0304M37.8935 24.7169L37.1399 27.0304M28.9992 36.5811H28.4144L29.0858 35.9002C29.6855 35.292 30.3404 34.661 31.0019 34.0237L31.0613 33.9665L28.9992 36.5811ZM28.9992 36.5811V40.1006H22.1188V36.5423L22.1358 36.201C22.1463 35.9897 22.1562 35.7917 22.1789 35.5893L22.1798 35.5811L22.1804 35.5729C22.2114 35.1328 22.2492 34.6948 22.3005 34.2508C22.4319 33.1158 22.5218 32.3609 22.76 31.7512L22.76 31.7511C22.9792 31.1894 23.3675 30.6573 24.1743 29.9649L24.1743 29.9649L24.1762 29.9632C24.3356 29.8247 24.5041 29.6837 24.6785 29.5469C24.8386 29.4236 24.9956 29.3154 25.1503 29.2286C25.4988 29.0357 25.7937 28.8777 26.0647 28.7325C26.1405 28.6919 26.2145 28.6522 26.2872 28.6132C27.8911 27.7589 28.7923 27.2762 30.8431 25.2954L30.8431 25.2954L30.8464 25.2922L30.8505 25.2881L32.7075 23.616L32.7168 23.6077L32.7255 23.5988C32.7274 23.5968 32.7295 23.5947 32.7317 23.5925C32.7527 23.5712 32.7869 23.5363 32.8173 23.4998L32.8174 23.4997C33.1619 23.0843 33.4642 22.8123 33.7154 22.6467C33.9691 22.4795 34.1492 22.4347 34.2577 22.4347C34.2691 22.4347 34.2819 22.4354 34.2971 22.437L34.2996 22.4372C34.3117 22.4384 34.3184 22.4409 34.3216 22.4423C34.3226 22.4428 34.3236 22.4433 34.3246 22.4438C34.3265 22.4467 34.3293 22.4512 34.3326 22.4577C34.3403 22.4729 34.3493 22.4959 34.3571 22.528C34.4025 22.7298 34.3328 23.1138 33.9063 23.5307C33.8627 23.5702 33.8279 23.6116 33.8111 23.6316C33.8105 23.6323 33.8099 23.633 33.8094 23.6337L29.0011 29.1009C29.001 29.1011 29.0008 29.1013 29.0006 29.1015C28.5948 29.5604 28.6332 30.2669 29.0854 30.6806C29.5413 31.1009 30.2491 31.0593 30.6574 30.5935L35.4558 25.1333C35.7484 24.8443 35.981 24.5372 36.1574 24.2181C36.2062 24.151 36.2522 24.0729 36.2876 23.9866L36.2876 23.9867L35.9177 23.8345L36.2879 23.9859L28.9992 36.5811ZM37.1399 27.0304C36.8284 27.6751 36.3677 28.3399 35.4982 29.3628M37.1399 27.0304L35.4982 29.3628M35.4982 29.3628C33.9758 31.1517 32.4944 32.5826 31.0616 33.9662L35.4982 29.3628ZM38.9707 17.4653C39.1562 17.2734 39.3213 17.2032 39.4196 17.1927L38.9707 17.4653Z" stroke="#FC6600" stroke-width="0.8" stroke-miterlimit="10"/>
<path d="M20.0016 0.899023C21.6755 0.899023 23.0407 2.28351 23.0407 4.00798C23.0407 5.73565 21.6723 7.11693 20.0016 7.11693C18.3312 7.11693 16.9625 5.73216 16.9625 4.00798C16.9625 2.28379 18.3312 0.899023 20.0016 0.899023Z" stroke="#FC6600" stroke-width="0.8" stroke-miterlimit="10"/>
<path d="M14.1367 19.2607L16.3534 16.999L18.5292 19.2501L16.791 21.0235L16.5204 21.2996L16.7872 21.5795L18.4004 23.2718L18.4008 23.2722L18.9296 23.8254C19.2672 24.2968 19.1621 24.7641 18.9121 25.0243C18.7828 25.1588 18.6153 25.239 18.4363 25.2474C18.2647 25.2555 18.0502 25.1989 17.8182 25.0042L14.2712 21.3148C14.0398 20.9825 13.9051 20.6564 13.8752 20.3291C13.846 20.0098 13.9134 19.6577 14.1367 19.2607Z" stroke="#FC6600" stroke-width="0.8" stroke-miterlimit="10"/>
<path d="M23.651 17.0004L25.8644 19.2587C26.0877 19.6558 26.1551 20.0078 26.1259 20.3272C26.096 20.6545 25.9613 20.9807 25.7298 21.313L22.1861 25.0058C21.9541 25.2004 21.7398 25.257 21.5681 25.2489C21.3892 25.2404 21.2216 25.1603 21.0923 25.0257C20.8424 24.7656 20.7373 24.2983 21.0749 23.8269L21.6037 23.2737L21.6041 23.2733L23.2173 21.581L23.4841 21.3011L23.2134 21.025L21.4753 19.2516L23.651 17.0004Z" stroke="#FC6600" stroke-width="0.8" stroke-miterlimit="10"/>
<path d="M23.2858 12.2809V14.5507H16.7196V12.2878V11.2732L16.0272 12.0148L13.2928 14.9434C13.2927 14.9435 13.2926 14.9436 13.2925 14.9438C12.9051 15.3562 12.4122 15.4348 12.0695 15.1834C11.874 15.038 11.7327 14.8043 11.6881 14.5657C11.6442 14.3303 11.699 14.1323 11.8313 14.0011L15.4337 10.432C15.4337 10.432 15.4338 10.4319 15.4338 10.4319C15.5459 10.3209 15.6781 10.181 15.8175 10.0333C15.8673 9.98065 15.918 9.92698 15.969 9.8733C16.1677 9.66428 16.3803 9.44563 16.5959 9.24655C16.8129 9.04611 17.0226 8.87511 17.2141 8.75621C17.4133 8.63249 17.5498 8.59238 17.6296 8.59238H22.4521C22.5132 8.59238 22.6353 8.62694 22.8274 8.75096C23.0101 8.86888 23.2127 9.03898 23.4246 9.23938C23.6351 9.43837 23.8444 9.65712 24.0423 9.86738C24.079 9.90631 24.1155 9.94521 24.1516 9.98373C24.3065 10.1488 24.455 10.3071 24.5822 10.4324C24.5823 10.4325 24.5824 10.4326 24.5825 10.4327L28.1847 14.0013L28.1856 14.0022C28.3158 14.1303 28.3702 14.3256 28.3255 14.5618C28.2802 14.8011 28.1382 15.0359 27.9449 15.1816C27.604 15.4337 27.1194 15.3586 26.723 14.94C26.7228 14.9397 26.7225 14.9395 26.7223 14.9392L23.9778 12.0075L23.2858 11.2683V12.2809Z" stroke="#FC6600" stroke-width="0.8" stroke-miterlimit="10"/>
<path d="M17.8866 36.5471L17.8693 36.1983C17.8588 35.9874 17.8487 35.7863 17.8288 35.5762L17.8279 35.5666L17.828 35.5666C17.797 35.1265 17.7592 34.6883 17.7079 34.2443L17.7079 34.2443C17.5769 33.1094 17.4869 32.3545 17.2485 31.745L17.2484 31.7447C17.0292 31.1831 16.6406 30.651 15.8341 29.9585L15.8325 29.9571C15.6724 29.8183 15.5042 29.6772 15.3299 29.5406C15.1693 29.4169 15.0125 29.3086 14.8583 29.2224C14.5034 29.0257 14.2039 28.8654 13.9285 28.7179C13.8581 28.6802 13.7893 28.6434 13.7215 28.607C13.7213 28.6068 13.721 28.6067 13.7207 28.6065L13.91 28.2541C12.3281 27.4116 11.4606 26.9494 9.44321 25.0013L17.8866 36.5471ZM17.8866 36.5471V40.0984H11.0624V36.1788V35.7788H10.798C10.2249 35.2015 9.60533 34.6049 8.98001 34.0027L8.94007 33.9643L8.93965 33.9639L8.93553 33.9599C7.50427 32.5775 6.02403 31.1477 4.50349 29.3605C3.6338 28.3376 3.17297 27.6728 2.86154 27.0281C2.54823 26.3796 2.37689 25.7345 2.10818 24.7147L2.108 24.714C2.09106 24.6502 2.07378 24.5849 2.05606 24.5179C1.96853 24.1873 1.87019 23.8158 1.74789 23.3731L1.74764 23.3722L0.834692 20.0978L0.834721 20.0977L0.833338 20.093L0.822906 20.0573L0.820744 20.0499L0.8183 20.0426C0.338114 18.6069 0.336984 17.7543 0.49049 17.3313C0.5132 17.2699 0.53464 17.2308 0.550739 17.2075C0.556965 17.1985 0.561841 17.1926 0.56508 17.1891L17.8866 36.5471Z" stroke="#FC6600" stroke-width="0.8" stroke-miterlimit="10"/>
<path d="M19.6142 18.6234L16.9078 15.862V15.7311H23.0489V15.8125L20.2941 18.6234H19.6142Z" stroke="#FC6600" stroke-width="0.8" stroke-miterlimit="10"/>
</svg>
