<svg width="70" height="44" viewBox="0 0 70 44" fill="none" xmlns="http://www.w3.org/2000/svg">
<path d="M15.0453 36.5518V12.9447C15.0453 12.3091 14.5392 11.7787 13.8967 11.7787H1.5846C0.942021 11.7787 0.435937 12.3091 0.435937 12.9447V36.5518C0.435937 37.1867 0.941369 37.7177 1.5846 37.7177H13.8967C14.5392 37.7177 15.0453 37.1873 15.0453 36.5518Z" stroke="#FC6600" stroke-width="0.8" stroke-miterlimit="10"/>
<path d="M38.4091 19.1375L38.4095 19.1377C38.4841 19.1857 38.5697 19.2106 38.6562 19.2106H45.5463L38.4091 19.1375ZM38.4091 19.1375C34.5869 16.6893 30.7134 14.5549 26.8146 13.8212C26.7346 13.8059 26.6552 13.7992 26.5779 13.7992H18.2949C17.5834 13.7992 17.0219 14.3868 17.0219 15.0921V34.6632C17.0219 35.1422 17.2831 35.5864 17.7077 35.8105M38.4091 19.1375L17.7077 35.8105M38.1502 29.5785L38.1652 29.5797C38.5521 29.6107 38.9645 29.5801 39.4015 29.5375C39.4678 29.531 39.535 29.5242 39.6028 29.5174C39.9686 29.4804 40.3521 29.4417 40.7134 29.4417C44.8955 29.4362 48.186 28.6229 50.2171 25.4265L50.2173 25.4261C50.232 25.4031 50.246 25.3763 50.2586 25.3464C50.2587 25.3462 50.2588 25.3461 50.2589 25.3459L51.1746 23.1563C51.1746 23.1562 51.1746 23.1562 51.1746 23.1561C51.2923 22.8745 51.5054 22.6427 51.7778 22.5048L62.0992 17.2714C62.0994 17.2714 62.0995 17.2713 62.0996 17.2712C62.1591 17.2408 62.2209 17.2152 62.2831 17.1948L62.2841 17.1945C65.0881 16.2802 67.5327 17.3121 68.7516 19.1539C69.9735 21.0002 69.9245 23.6026 67.8831 25.7131M38.1502 29.5785L67.5956 25.435M38.1502 29.5785L38.1351 29.5784M38.1502 29.5785L38.1351 29.5784M67.8831 25.7131L67.5956 25.435M67.8831 25.7131C67.8831 25.7131 67.8831 25.713 67.8832 25.713L67.5956 25.435M67.8831 25.7131C67.8324 25.7655 67.7776 25.813 67.7208 25.8549M67.5956 25.435C67.5609 25.4708 67.5228 25.5039 67.4827 25.5335M67.7208 25.8549C67.721 25.8548 67.7212 25.8546 67.7214 25.8545L67.4827 25.5335M67.7208 25.8549C67.7206 25.8551 67.7204 25.8552 67.7202 25.8554L67.4827 25.5335M67.7208 25.8549C60.0026 31.5925 52.0889 36.3191 43.9914 40.1409M67.4827 25.5335L43.9492 40.1636M43.9914 40.1409C43.9909 40.1412 43.9903 40.1414 43.9898 40.1417L43.8191 39.7799L43.9928 40.1402C43.9924 40.1404 43.9919 40.1407 43.9914 40.1409ZM43.9914 40.1409C43.9753 40.1487 43.9614 40.1563 43.9492 40.1636M43.9492 40.1636C43.9496 40.1634 43.95 40.1632 43.9504 40.1629L43.7397 39.8229L43.9482 40.1642C43.9486 40.164 43.9489 40.1638 43.9492 40.1636ZM17.7077 35.8105L17.8944 35.4568L17.7076 35.8105L17.7077 35.8105ZM38.1351 29.5784C37.6153 29.576 37.2694 29.4054 37.0557 29.1887C36.8382 28.9682 36.7308 28.6734 36.7355 28.3765C36.7402 28.0792 36.857 27.7918 37.0744 27.5855C37.2861 27.3847 37.619 27.2363 38.1051 27.2592C41.4863 27.5697 44.9556 27.7039 47.606 25.7158L38.1351 29.5784ZM25.918 40.1474L25.9278 40.1525L26.1147 39.7988L25.9085 40.1416C25.9117 40.1435 25.9148 40.1454 25.918 40.1474Z" stroke="#FC6600" stroke-width="0.8" stroke-miterlimit="10"/>
<path d="M55.9946 8.954C55.9946 4.62212 52.5593 1.1 48.309 1.1C44.0588 1.1 40.6234 4.62212 40.6234 8.954C40.6234 13.2859 44.0588 16.808 48.309 16.808C52.565 16.808 55.9946 13.28 55.9946 8.954Z" stroke="#FC6600" stroke-width="0.8" stroke-miterlimit="10"/>
<path fill-rule="evenodd" clip-rule="evenodd" d="M50.9382 5.37251H48.8713C49.2344 5.66723 49.4979 6.09001 49.573 6.67946H50.9382V7.32053H49.5849C49.4597 8.62787 48.445 9.46122 46.8417 9.51204C47.1421 9.8312 47.451 10.176 47.7652 10.5385C48.2039 11.0444 48.6529 11.5861 49.105 12.1429C49.3816 12.4837 49.6592 12.8304 49.9365 13.178H48.7334C48.4496 12.8273 48.1708 12.4845 47.8889 12.1429C47.4518 11.6129 47.0081 11.0857 46.5279 10.5381C46.2537 10.226 45.9679 9.90685 45.6641 9.57627V8.78193H46.3534C47.7067 8.78193 48.4326 8.2047 48.5204 7.32053H45.6641V6.67946H48.4831C48.3075 5.93595 47.6432 5.56479 46.5537 5.56479H45.6641V4.73145H50.9378V5.37251H50.9382Z" fill="#FC6600"/>
</svg>
