<svg width="60" height="40" viewBox="0 0 60 40" fill="none" xmlns="http://www.w3.org/2000/svg">
<g clip-path="url(#clip0_2146_21675)">
<path d="M57.1496 39.8666H2.84796C1.62446 39.8666 0.632812 38.8788 0.632812 37.6607V10.2401C0.632812 9.02168 1.62479 8.03418 2.84796 8.03418H57.1496C58.3731 8.03418 59.3647 9.022 59.3647 10.2401V37.6607C59.3647 38.8791 58.3731 39.8666 57.1496 39.8666Z" stroke="#FC6600" stroke-opacity="0.8" stroke-width="0.5" stroke-miterlimit="10"/>
<path d="M53.324 6.11133H48.4297V7.93907H53.324V6.11133Z" stroke="#FC6600" stroke-opacity="0.8" stroke-width="0.5" stroke-miterlimit="10"/>
<path d="M53.324 5.00667L53.4083 0.133468C53.3803 0.13314 53.352 0.132812 53.324 0.132812C50.6389 0.132812 48.4297 2.33312 48.4297 5.00667H53.324Z" stroke="#FC6600" stroke-opacity="0.8" stroke-width="0.5" stroke-miterlimit="10"/>
<path d="M54.4382 13.631C55.6209 13.631 56.5796 12.6763 56.5796 11.4986C56.5796 10.3209 55.6209 9.36621 54.4382 9.36621C53.2556 9.36621 52.2969 10.3209 52.2969 11.4986C52.2969 12.6763 53.2556 13.631 54.4382 13.631Z" stroke="#FC6600" stroke-opacity="0.8" stroke-width="0.5" stroke-miterlimit="10"/>
<path d="M47.5554 13.631C48.7381 13.631 49.6968 12.6763 49.6968 11.4986C49.6968 10.3209 48.7381 9.36621 47.5554 9.36621C46.3728 9.36621 45.4141 10.3209 45.4141 11.4986C45.4141 12.6763 46.3728 13.631 47.5554 13.631Z" stroke="#FC6600" stroke-opacity="0.8" stroke-width="0.5" stroke-miterlimit="10"/>
<path d="M40.3679 13.631C41.5506 13.631 42.5093 12.6763 42.5093 11.4986C42.5093 10.3209 41.5506 9.36621 40.3679 9.36621C39.1853 9.36621 38.2266 10.3209 38.2266 11.4986C38.2266 12.6763 39.1853 13.631 40.3679 13.631Z" stroke="#FC6600" stroke-opacity="0.8" stroke-width="0.5" stroke-miterlimit="10"/>
<path d="M20.3955 18.8291L17.3366 25.6829H21.619L11.2188 35.1259L16.419 26.9773H11.8303L20.3955 18.8291Z" stroke="#FC6600" stroke-opacity="0.8" stroke-width="0.5" stroke-miterlimit="10" stroke-linejoin="round"/>
<path d="M24.3568 38.0582H8.47434C6.95246 38.0582 5.71875 36.8297 5.71875 35.3142V18.6415C5.71875 17.126 6.95246 15.8975 8.47434 15.8975H24.3568C25.8787 15.8975 27.1124 17.126 27.1124 18.6415V35.3145C27.1124 36.8297 25.8787 38.0582 24.3568 38.0582Z" stroke="#FC6600" stroke-opacity="0.8" stroke-width="0.5" stroke-miterlimit="10"/>
<path d="M55.1122 38.0384H39.6948C38.8839 38.0384 38.2266 37.3838 38.2266 36.5764V16.1974C38.2266 15.39 38.8839 14.7354 39.6948 14.7354H55.1122C55.923 14.7354 56.5804 15.39 56.5804 16.1974V36.5767C56.5804 37.3838 55.923 38.0384 55.1122 38.0384Z" stroke="#FC6600" stroke-opacity="0.8" stroke-width="0.5" stroke-miterlimit="10"/>
<path d="M54.437 18.2764H41.0078V22.7314H54.437V18.2764Z" stroke="#FC6600" stroke-opacity="0.8" stroke-width="0.5" stroke-miterlimit="10"/>
<path d="M46.1743 24.3311H41.5859V36.0971H46.1743V24.3311Z" stroke="#FC6600" stroke-opacity="0.8" stroke-width="0.5" stroke-miterlimit="10"/>
<path d="M54.2837 24.3311H49.6953V36.0971H54.2837V24.3311Z" stroke="#FC6600" stroke-opacity="0.8" stroke-width="0.5" stroke-miterlimit="10"/>
<path d="M41.5859 26.6729H46.1743" stroke="#FC6600" stroke-opacity="0.8" stroke-width="0.5" stroke-miterlimit="10"/>
<path d="M41.5859 30.2139H46.1743" stroke="#FC6600" stroke-opacity="0.8" stroke-width="0.5" stroke-miterlimit="10"/>
<path d="M41.5859 33.7549H46.1743" stroke="#FC6600" stroke-opacity="0.8" stroke-width="0.5" stroke-miterlimit="10"/>
<path d="M49.6953 26.6729H54.2837" stroke="#FC6600" stroke-opacity="0.8" stroke-width="0.5" stroke-miterlimit="10"/>
<path d="M49.6953 30.2139H54.2837" stroke="#FC6600" stroke-opacity="0.8" stroke-width="0.5" stroke-miterlimit="10"/>
<path d="M49.6953 33.7549H54.2837" stroke="#FC6600" stroke-opacity="0.8" stroke-width="0.5" stroke-miterlimit="10"/>
<path d="M36.0416 22.732H38.2291V17.3252H36.0416C35.7037 17.3252 35.4297 17.5981 35.4297 17.9345V22.123C35.4297 22.4591 35.7037 22.732 36.0416 22.732Z" stroke="#FC6600" stroke-opacity="0.8" stroke-width="0.5" stroke-miterlimit="10"/>
<path d="M36.0416 34.5927H38.2291V29.1855H36.0416C35.7037 29.1855 35.4297 29.4584 35.4297 29.7949V33.9833C35.4297 34.3198 35.7037 34.5927 36.0416 34.5927Z" stroke="#FC6600" stroke-opacity="0.8" stroke-width="0.5" stroke-miterlimit="10"/>
<path d="M40.4297 11.4988L41.5847 10.3486" stroke="#FC6600" stroke-opacity="0.8" stroke-width="0.5" stroke-miterlimit="10" stroke-linecap="round" stroke-linejoin="round"/>
<path d="M47.5547 11.3721H49.2386" stroke="#FC6600" stroke-opacity="0.8" stroke-width="0.5" stroke-miterlimit="10" stroke-linecap="round" stroke-linejoin="round"/>
<path d="M54.3594 11.499V13.2077" stroke="#FC6600" stroke-opacity="0.8" stroke-width="0.5" stroke-miterlimit="10" stroke-linecap="round" stroke-linejoin="round"/>
<path d="M52.9794 5.00684H48.7734V6.08255H52.9794V5.00684Z" stroke="#FC6600" stroke-opacity="0.8" stroke-width="0.5" stroke-miterlimit="10"/>
<path d="M54.4372 0.494141H53.3984V4.37788H54.4372V0.494141Z" stroke="#FC6600" stroke-opacity="0.8" stroke-width="0.5" stroke-miterlimit="10"/>
</g>
<defs>
<clipPath id="clip0_2146_21675">
<rect width="59" height="40" fill="white" transform="translate(0.5)"/>
</clipPath>
</defs>
</svg>
