<svg width="56" height="40" viewBox="0 0 56 40" fill="none" xmlns="http://www.w3.org/2000/svg">
<g clip-path="url(#clip0_2146_22255)">
<path d="M20.2854 11.2577L20.2863 11.2438C20.3022 10.9836 20.2528 10.6871 20.1088 10.4327L20.1084 10.432C19.6601 9.63664 19.207 8.84639 18.7528 8.05422C18.5618 7.72108 18.3706 7.38759 18.1795 7.05325C18.009 7.34883 17.838 7.64132 17.6679 7.93238C17.1682 8.78752 16.6756 9.6304 16.2212 10.5035L20.2854 11.2577ZM20.2854 11.2577L20.2853 11.2716M20.2854 11.2577L20.2853 11.2716M20.2853 11.2716C20.28 12.2142 19.7614 12.97 19.0157 13.2712L19.0154 13.2713C18.1405 13.6253 17.2841 13.4457 16.6531 12.7942L16.6529 12.794M20.2853 11.2716L16.6529 12.794M16.6529 12.794C16.0229 12.1443 15.8419 11.2323 16.2212 10.5035L16.6529 12.794Z" stroke="#FC6600"/>
<path d="M35.6448 11.2577L35.6456 11.2438C35.6616 10.9836 35.6122 10.6871 35.4682 10.4327L35.4678 10.432C35.0195 9.63666 34.5664 8.84643 34.1123 8.05428C33.9212 7.72112 33.73 7.38761 33.5389 7.05325C33.3684 7.34884 33.1974 7.64132 33.0273 7.93239C32.5275 8.78752 32.0349 9.6304 31.5805 10.5035L35.6448 11.2577ZM35.6448 11.2577L35.6447 11.2716M35.6448 11.2577L35.6447 11.2716M35.6447 11.2716C35.6394 12.2138 35.1195 12.97 34.3748 13.2713L34.3748 13.2713C33.4999 13.6253 32.6434 13.4457 32.0124 12.7942L32.0122 12.794M35.6447 11.2716L32.0122 12.794M32.0122 12.794C31.3822 12.1443 31.2013 11.2323 31.5805 10.5035L32.0122 12.794Z" stroke="#FC6600"/>
<path d="M28.0901 5.02821L28.091 5.01433C28.1069 4.75407 28.0575 4.45762 27.9135 4.2032L27.9131 4.20246C27.4648 3.40716 27.0117 2.61692 26.5576 1.82476C26.3665 1.4916 26.1753 1.15811 25.9842 0.823761C25.8137 1.11934 25.6427 1.41182 25.4726 1.70288C24.9729 2.55802 24.4803 3.4009 24.0259 4.27403L28.0901 5.02821ZM28.0901 5.02821L28.09 5.04211M28.0901 5.02821L28.09 5.04211M28.09 5.04211C28.0847 5.98367 27.5653 6.73898 26.8197 7.04197C25.9449 7.39579 25.0886 7.21609 24.4577 6.56472L24.4576 6.56453M28.09 5.04211L24.4576 6.56453M24.4576 6.56453C23.8276 5.91476 23.6466 5.00283 24.0258 4.27406L24.4576 6.56453Z" stroke="#FC6600"/>
<path d="M53.0321 39.1797H2.96793C1.72982 39.1797 0.935764 37.8639 1.51294 36.7688C1.51295 36.7688 1.51296 36.7687 1.51298 36.7687L9.21703 22.1585C9.94574 20.7775 11.3788 19.9121 12.9418 19.9121H43.0615C44.6229 19.9121 46.0575 20.7775 46.7862 22.1584C46.7862 22.1584 46.7862 22.1585 46.7862 22.1585L54.4901 36.7683C54.4901 36.7684 54.4902 36.7684 54.4902 36.7685C55.066 37.8636 54.2721 39.1797 53.0321 39.1797Z" stroke="#FC6600" stroke-miterlimit="10"/>
<path d="M15.1662 19.4141L12.5625 39.6801" stroke="#FC6600" stroke-miterlimit="10"/>
<path d="M21.9453 19.3662L22.6918 39.7281" stroke="#FC6600" stroke-miterlimit="10"/>
<path d="M29.4609 19.4189L31.6523 39.6754" stroke="#FC6600" stroke-miterlimit="10"/>
<path d="M37.7344 19.6885L41.8374 39.5439" stroke="#FC6600" stroke-miterlimit="10"/>
</g>
<defs>
<clipPath id="clip0_2146_22255">
<rect width="55" height="40" fill="white" transform="translate(0.5)"/>
</clipPath>
</defs>
</svg>
