<svg width="41" height="34" viewBox="0 0 41 34" fill="none" xmlns="http://www.w3.org/2000/svg">
<path d="M9.08696 6.29928V13.7106H13.0262V6.29928H9.08696Z" stroke="#222222" stroke-opacity="0.8" stroke-width="0.7" stroke-linejoin="round"/>
<path d="M6.51387 1H1.77249C1.07346 1 0.5 1.58435 0.5 2.29665V33H7.78636V2.29665C7.78636 1.58435 7.21289 1 6.51387 1Z" stroke="#222222" stroke-opacity="0.8" stroke-width="0.7" stroke-linejoin="round"/>
<path d="M14.4955 7.71624V12.7272C19.3662 13.1492 18.8583 17.8698 20.2058 21.1353C19.6277 21.2704 19.0895 21.4718 18.5626 21.6689L18.5341 21.6796L18.5336 21.6798C17.7598 21.9719 17.0216 22.2506 16.542 22.1207C16.0041 21.9756 15.4082 21.7942 14.8591 21.6261C14.0514 21.3779 13.3298 21.1583 12.6458 21.0208C12.2129 20.91 11.7912 20.8661 11.3658 20.8718C10.9404 20.868 10.5187 20.91 10.0858 21.0208C9.84033 21.0704 9.59108 21.1296 9.33246 21.1984V24.1908C10.7361 23.8127 12.9513 23.8776 14.027 24.4161L14.042 24.4219C14.548 24.5765 15.0971 24.7465 15.8261 24.9394C17.1792 25.3003 18.3223 24.8725 19.5199 24.4219L19.6379 24.3779C20.3238 24.1201 21.0285 23.87 21.6394 23.8852C21.84 23.891 22.256 24.1125 22.6908 24.355L22.7901 24.4085C23.5697 24.8439 24.3643 25.2812 25.307 25.3175C26.4614 25.3614 27.2841 24.8668 28.1068 24.3722L28.2024 24.3149C28.6166 24.0667 29.0251 23.8337 29.3118 23.8222C29.7766 23.8069 30.3257 24.0476 30.8711 24.2939L30.9329 24.3226C31.6638 24.6548 32.3928 24.9833 33.2867 25.0539C34.3868 25.1399 35.2208 24.7312 35.9891 24.2557C36.1447 24.1583 36.2984 24.0571 36.4501 23.9597C36.8643 23.6885 37.271 23.4231 37.5296 23.3945C37.8415 23.3594 38.6061 23.6926 39.275 23.9841L39.3418 24.0132C39.5086 24.0838 39.6735 24.1564 39.8328 24.2232C40.0633 24.3187 40.2845 24.4066 40.5 24.4715V21.3397L40.4756 21.3263L40.4595 21.3192C39.4622 20.8834 38.2922 20.3721 37.2185 20.4918C36.3789 20.5873 35.7249 20.9749 35.0765 21.397C35.0708 21.0017 34.9696 20.5395 34.7616 19.9991C34.1057 11.1078 26.1953 6.7786 14.4955 7.71624Z" stroke="#222222" stroke-opacity="0.8" stroke-width="0.7" stroke-linejoin="round"/>
<path d="M16.542 27.5804C16.0041 27.4353 15.4082 27.2539 14.8591 27.0858C12.1885 26.2685 11.3658 26.1272 9.33058 26.6657V29.6314C10.723 29.2208 12.9325 29.2857 14.0251 29.8796L14.0401 29.8854C14.5461 30.04 15.0952 30.21 15.8242 30.4029C17.1773 30.7638 18.3205 30.336 19.518 29.8854L19.6361 29.8414C20.322 29.5836 21.0266 29.3335 21.6376 29.3487C21.8381 29.3545 22.2541 29.576 22.6889 29.8185L22.7882 29.872C23.5678 30.3074 24.3624 30.7447 25.3051 30.781C26.4595 30.8249 27.2822 30.3303 28.1049 29.8357L28.2005 29.7784C28.6147 29.5302 29.0232 29.2972 29.31 29.2857C29.7747 29.2705 30.3238 29.5111 30.8692 29.7574L30.931 29.7861C31.6619 30.1183 32.3909 30.4468 33.2849 30.5175C34.3849 30.6015 35.2189 30.1947 35.9873 29.7192C36.1428 29.6218 36.2965 29.5206 36.4483 29.4232C36.8624 29.1521 37.2691 28.8866 37.5277 28.858C37.8396 28.8229 38.6043 29.1561 39.2732 29.4476L39.34 29.4767C39.5067 29.5474 39.6717 29.6199 39.831 29.6868C40.0615 29.7822 40.2826 29.8701 40.4981 29.935V26.8032L40.4738 26.7898L40.4576 26.7827C39.4603 26.347 38.2903 25.8356 37.2166 25.9553C36.3096 26.0584 35.6199 26.5072 34.9172 26.9655L34.8917 26.982C34.3938 27.3034 33.8855 27.6315 33.5023 27.6014C33.09 27.5709 32.5971 27.3474 32.1023 27.1221C31.2328 26.7268 30.3557 26.3315 29.2238 26.3697C28.1705 26.406 27.4115 26.8605 26.6544 27.3169C26.1897 27.5957 25.723 27.8726 25.41 27.863C25.1383 27.8535 24.6454 27.5804 24.16 27.3092C23.3861 26.8796 22.6214 26.4556 21.7106 26.4308C20.5056 26.4003 19.4993 26.7765 18.5341 27.1393L18.5336 27.1395C17.7598 27.4316 17.0216 27.7102 16.542 27.5804Z" stroke="#222222" stroke-opacity="0.8" stroke-width="0.7" stroke-linejoin="round"/>
</svg>
