<svg width="42" height="42" viewBox="0 0 42 42" fill="none" xmlns="http://www.w3.org/2000/svg">
<path d="M21.1602 3.21756C21.5936 2.76061 22.1544 2.44468 22.8273 2.26855C22.8372 2.26596 22.8472 2.26367 22.8572 2.26169L22.882 2.25681L22.9068 2.25193L22.908 2.25168L29.0191 1.06367L29.0192 1.06364C29.4514 0.979758 29.7914 0.908884 30.0888 0.844484L30.0911 0.843982L30.1264 0.836525C30.8697 0.679224 31.4766 0.550809 31.9681 0.512304C32.48 0.472205 32.9439 0.521659 33.3605 0.789126C33.761 1.04622 34.0467 1.46095 34.3138 1.97856C34.5827 2.49963 34.8686 3.19995 35.2326 4.09304C35.2326 4.09313 35.2327 4.09321 35.2327 4.0933L21.1602 3.21756ZM21.1602 3.21756C20.7276 2.76102 20.1696 2.44469 19.4925 2.26839C19.4828 2.26587 19.473 2.26363 19.4632 2.26169L19.4384 2.25681L19.4137 2.25193L19.4124 2.25168L13.3014 1.06367L13.3012 1.06364C12.869 0.979758 12.529 0.908884 12.2316 0.844484L12.2316 0.844479L12.2293 0.843988L12.194 0.836526C11.4507 0.679224 10.8438 0.550809 10.3522 0.512304C9.84027 0.472203 9.3764 0.521678 8.95964 0.789037C8.55904 1.04603 8.27295 1.46063 8.00538 1.97823C7.73599 2.49933 7.44947 3.19971 7.08457 4.09293L7.08443 4.09328C4.85763 9.5559 2.98902 14.5522 2.70489 18.5711C2.5521 20.724 2.83134 22.647 3.75985 24.2266C4.67385 25.7816 6.18143 26.9437 8.37338 27.6758L6.43776 36.9957L2.40534 36.2284C1.54196 36.0639 0.699043 36.6221 0.529536 37.4858C0.358972 38.3549 0.939796 39.1816 1.80196 39.3459L12.9504 41.4713L12.9505 41.4713C13.8139 41.6358 14.6568 41.0776 14.8263 40.2139C14.9969 39.3448 14.416 38.5181 13.5539 38.3538L9.58703 37.5963L11.5156 28.2993C12.0706 28.3273 12.6079 28.3062 13.1285 28.2349C14.5805 28.0364 15.8703 27.4599 16.9919 26.5216L16.9923 26.5213C19.2809 24.6023 20.4993 21.803 21.16 18.7706C21.8206 21.8047 23.0389 24.6042 25.3279 26.5211C26.4467 27.4601 27.7369 28.0365 29.1923 28.2349C29.7123 28.3061 30.2511 28.3272 30.8049 28.2994L32.5978 36.9354L28.4495 37.7256C27.5873 37.8899 27.0064 38.7166 27.177 39.5857C27.3465 40.4494 28.1894 41.0076 29.0528 40.8431L40.198 38.721L40.198 38.721C41.0602 38.5567 41.641 37.73 41.4705 36.8609C41.301 35.9971 40.458 35.439 39.5947 35.6035L39.5946 35.6035L35.7407 36.3381L33.9436 27.6758C36.1358 26.9437 37.6433 25.7807 38.5573 24.2254C39.4858 22.6454 39.765 20.7224 39.6122 18.5711L21.1602 3.21756ZM22.313 5.35937C22.3428 6.23817 22.356 7.21136 22.3692 8.22687C22.3906 10.2314 22.4176 12.4252 22.607 14.5792C22.7679 14.5076 22.9291 14.4359 23.0904 14.364M22.313 5.35937L22.8065 5.44014C22.809 5.42467 22.8117 5.40958 22.8145 5.39486M22.313 5.35937C22.3626 5.05667 22.465 4.81581 22.6236 4.63354L30.6188 3.31298M22.313 5.35937L22.8128 5.34246C22.8134 5.3599 22.8139 5.37736 22.8145 5.39486M22.8145 5.39486C22.8432 6.26594 22.8562 7.22586 22.8692 8.22036L22.8692 8.22153C22.89 10.1751 22.9162 12.2879 23.0904 14.364M22.8145 5.39486C22.8548 5.18441 22.9237 5.05035 23.0008 4.96171L23.0013 4.96114C23.0736 4.87778 23.2006 4.78898 23.4294 4.72337L29.5036 3.54258C29.8951 3.46674 30.2824 3.38447 30.6188 3.31298M23.0904 14.364C23.2005 14.315 23.3107 14.2659 23.421 14.2167C25.6113 13.2408 27.8186 12.2574 29.8029 11.4943C31.707 10.762 33.4706 10.2056 34.8464 10.077M23.0904 14.364L34.8464 10.077M34.8464 10.077C34.259 8.47168 33.5892 6.78584 32.8764 5.03709L33.3394 4.84836L34.8464 10.077ZM30.6188 3.31298C30.6188 3.313 30.6187 3.31301 30.6186 3.31303L30.5151 2.82388L30.619 3.31294C30.6189 3.31295 30.6189 3.31297 30.6188 3.31298ZM9.44398 5.0373L9.44407 5.03709C9.69316 4.42596 9.86991 3.99503 10.0268 3.68373C10.1867 3.36645 10.2926 3.24496 10.3664 3.1923C10.4165 3.15657 10.4908 3.12322 10.6994 3.1362C10.9277 3.15042 11.2291 3.21297 11.7016 3.31298C12.0379 3.38445 12.4252 3.4667 12.8166 3.54252C12.8167 3.54254 12.8168 3.54256 12.8169 3.54258L18.8943 4.72338C19.1231 4.78899 19.2501 4.87778 19.3224 4.96114L19.3229 4.9617C19.4 5.05035 19.4689 5.1844 19.5092 5.39486C19.4805 6.26594 19.4675 7.22586 19.4546 8.22036V8.22044C19.4318 9.99005 19.4067 11.8897 19.2736 13.7747C17.5312 12.5708 15.4499 12.2303 13.3465 12.1445C12.3674 12.1045 11.363 12.1196 10.3751 12.1344C10.1429 12.1379 9.91165 12.1413 9.68186 12.144C8.68442 12.1559 7.70904 12.1542 6.7701 12.0853C7.49556 9.89922 8.42439 7.53549 9.44398 5.0373ZM21.0758 3.31022C21.0756 3.31049 21.0753 3.31075 21.0751 3.31101C21.0749 3.31124 21.0747 3.31148 21.0745 3.31171L21.1602 3.38666L21.1628 3.38895L21.4509 3.64082L21.164 3.38795L21.1614 3.38565L21.0758 3.31022Z" stroke="#FC6600" stroke-linejoin="round"/>
</svg>
