<svg width="36" height="52" viewBox="0 0 36 52" fill="none" xmlns="http://www.w3.org/2000/svg">
<path d="M19.2781 10.6006L11.5781 22.1505H16.7114V29.8505L24.4114 18.3005H19.2781V10.6006Z" fill="#FC6600"/>
<path fill-rule="evenodd" clip-rule="evenodd" d="M35.8484 19.9342C35.4587 23.2392 34.1303 26.3633 32.0203 28.9367C30.7857 30.4459 27.648 34.7528 26.9806 37.5504H9.01409C8.34677 34.7502 5.20518 30.4421 3.97063 28.9329C1.86155 26.3583 0.534405 23.2333 0.146318 19.9278C-0.23616 16.6293 0.339468 13.2905 1.80437 10.3106C3.28223 7.30731 5.58092 4.78436 8.43403 3.03411C11.3109 1.26506 14.6227 0.330241 17.9999 0.333996C21.3853 0.333996 24.7015 1.27082 27.5658 3.03796C30.4182 4.78893 32.716 7.31231 34.1929 10.3157C35.6572 13.2963 36.2319 16.6356 35.8484 19.9342ZM25.1622 34.9838H10.8313C10.2846 33.7223 9.55437 32.4582 8.87421 31.384C7.97888 29.9727 7.00546 28.6124 5.9585 27.3095C4.15967 25.1145 3.02757 22.4499 2.69628 19.6314C2.37036 16.8224 2.86045 13.979 4.10794 11.4412C5.37261 8.87284 7.33939 6.7156 9.78024 5.21961C12.2523 3.69982 15.0981 2.89696 17.9999 2.90065C20.9131 2.90065 23.7621 3.70786 26.2196 5.22346C28.6595 6.71983 30.6254 8.87703 31.8894 11.445C33.1362 13.9834 33.6254 16.8273 33.2985 19.6365C32.966 22.4544 31.833 25.118 30.0337 27.3121C28.985 28.6133 28.0119 29.9737 27.1192 31.3866C26.4391 32.4608 25.7089 33.7223 25.1622 34.9838Z" fill="#FC6600"/>
<path d="M9.00781 41.4005C9.00781 41.0602 9.14302 40.7337 9.38369 40.4931C9.62436 40.2524 9.95078 40.1172 10.2911 40.1172H25.691C26.0314 40.1172 26.3578 40.2524 26.5985 40.4931C26.8392 40.7337 26.9744 41.0602 26.9744 41.4005C26.9744 41.7409 26.8392 42.0673 26.5985 42.308C26.3578 42.5486 26.0314 42.6838 25.691 42.6838H10.2911C9.95078 42.6838 9.62436 42.5486 9.38369 42.308C9.14302 42.0673 9.00781 41.7409 9.00781 41.4005Z" fill="#FC6600"/>
<path fill-rule="evenodd" clip-rule="evenodd" d="M9.00781 45.25H26.9744V49.1C26.9744 49.7807 26.7039 50.4335 26.2226 50.9149C25.7413 51.3962 25.0884 51.6666 24.4077 51.6666H11.5745C10.8937 51.6666 10.2409 51.3962 9.75957 50.9149C9.27823 50.4335 9.00781 49.7807 9.00781 49.1V45.25ZM11.5745 47.8166H24.4077V49.1H11.5745V47.8166Z" fill="#FC6600"/>
</svg>
