<svg width="32" height="32" viewBox="0 0 32 32" fill="none" xmlns="http://www.w3.org/2000/svg">
<path d="M25.1225 10.5C24.9394 13.0419 23.0538 15 20.9975 15C18.9413 15 17.0525 13.0425 16.8725 10.5C16.685 7.85562 18.5207 6 20.9975 6C23.4744 6 25.31 7.90375 25.1225 10.5Z" stroke="#FC6600" stroke-linecap="round" stroke-linejoin="round"/>
<path d="M20.9998 19C16.9266 19 13.0098 21.0231 12.0285 24.9631C11.8985 25.4844 12.2254 26 12.761 26H29.2391C29.7748 26 30.0998 25.4844 29.9716 24.9631C28.9904 20.96 25.0735 19 20.9998 19Z" stroke="#FC6600" stroke-miterlimit="10"/>
<path d="M12.5025 11.6213C12.3563 13.6513 10.8325 15.25 9.19005 15.25C7.54755 15.25 6.0213 13.6519 5.87755 11.6213C5.72818 9.50938 7.2113 8 9.19005 8C11.1688 8 12.6519 9.54813 12.5025 11.6213Z" stroke="#FC6600" stroke-linecap="round" stroke-linejoin="round"/>
<path d="M12.8756 19.1248C11.7475 18.6079 10.505 18.4092 9.18811 18.4092C5.93811 18.4092 2.80686 20.0248 2.02249 23.1717C1.91936 23.5879 2.18061 23.9998 2.60811 23.9998H9.62561" stroke="#FC6600" stroke-miterlimit="10" stroke-linecap="round"/>
</svg>
