<svg width="34" height="49" viewBox="0 0 34 49" fill="none" xmlns="http://www.w3.org/2000/svg">
<g clip-path="url(#clip0_2146_22589)">
<path d="M32.2316 9.93217L20.414 6.42755L26.2568 3.53907C27.0245 3.15706 27.3336 2.23038 26.9472 1.47129C26.5609 0.712204 25.6236 0.406597 24.8559 0.788606L15.8151 5.25441C7.36758 5.47376 0.629985 12.3031 0.625 20.658V40.6728C0.625 41.523 1.32294 42.2131 2.1829 42.2131C3.04286 42.2131 3.74079 41.523 3.74079 40.6728V34.5113H6.85659V45.2938C6.85659 46.9944 8.25246 48.3746 9.97238 48.3746H22.4356C24.1555 48.3746 25.5514 46.9944 25.5514 45.2938V20.6481C25.5439 16.1404 22.2561 12.2932 17.7619 11.5366V8.85515L31.3343 12.8823C32.1519 13.146 33.0318 12.7023 33.2985 11.894C33.5652 11.0856 33.1165 10.2156 32.2989 9.95188C32.2765 9.94449 32.2541 9.93956 32.2316 9.93217Z" stroke="#FC6600" stroke-miterlimit="10"/>
<path d="M3.74219 31.433V20.6505C3.74967 14.4447 8.42086 9.20998 14.6475 8.42871V11.539C10.1532 12.2956 6.86546 16.1428 6.85798 20.6505V31.433H3.74219Z" stroke="#FC6600" stroke-miterlimit="10"/>
<path d="M22.4319 34.5137H9.96875V45.2962H22.4319V34.5137Z" stroke="#FC6600" stroke-miterlimit="10"/>
<path d="M22.4319 20.6507V31.4332H9.96875V20.6507C9.96875 17.2471 12.758 14.4893 16.2003 14.4893C19.6427 14.4893 22.4319 17.2471 22.4319 20.6507Z" stroke="#FC6600" stroke-miterlimit="10"/>
</g>
<defs>
<clipPath id="clip0_2146_22589">
<rect width="33" height="48" fill="white" transform="translate(0.5 0.5)"/>
</clipPath>
</defs>
</svg>
