<svg width="40" height="40" viewBox="0 0 40 40" fill="none" xmlns="http://www.w3.org/2000/svg">
<g clip-path="url(#clip0_2146_22771)">
<path d="M38.5714 37.1429H34.2857V2.85714H35.7143C36.5029 2.85714 37.1429 2.21714 37.1429 1.42857C37.1429 0.64 36.5029 0 35.7143 0H4.28571C3.49714 0 2.85714 0.64 2.85714 1.42857C2.85714 2.21714 3.49714 2.85714 4.28571 2.85714H5.71429V37.1429H1.42857C0.64 37.1429 0 37.7829 0 38.5714C0 39.36 0.64 40 1.42857 40H38.5714C39.36 40 40 39.36 40 38.5714C40 37.7829 39.36 37.1429 38.5714 37.1429ZM12.8571 7.14286H17.1429C17.9314 7.14286 18.5714 7.78286 18.5714 8.57143C18.5714 9.36 17.9314 10 17.1429 10H12.8571C12.0686 10 11.4286 9.36 11.4286 8.57143C11.4286 7.78286 12.0686 7.14286 12.8571 7.14286ZM12.8571 14.2857H17.1429C17.9314 14.2857 18.5714 14.9257 18.5714 15.7143C18.5714 16.5029 17.9314 17.1429 17.1429 17.1429H12.8571C12.0686 17.1429 11.4286 16.5029 11.4286 15.7143C11.4286 14.9257 12.0686 14.2857 12.8571 14.2857ZM11.4286 22.8571C11.4286 22.0686 12.0686 21.4286 12.8571 21.4286H17.1429C17.9314 21.4286 18.5714 22.0686 18.5714 22.8571C18.5714 23.6457 17.9314 24.2857 17.1429 24.2857H12.8571C12.0686 24.2857 11.4286 23.6457 11.4286 22.8571ZM24.2857 37.1429H15.7143V30H24.2857V37.1429ZM27.1429 24.2857H22.8571C22.0686 24.2857 21.4286 23.6457 21.4286 22.8571C21.4286 22.0686 22.0686 21.4286 22.8571 21.4286H27.1429C27.9314 21.4286 28.5714 22.0686 28.5714 22.8571C28.5714 23.6457 27.9314 24.2857 27.1429 24.2857ZM27.1429 17.1429H22.8571C22.0686 17.1429 21.4286 16.5029 21.4286 15.7143C21.4286 14.9257 22.0686 14.2857 22.8571 14.2857H27.1429C27.9314 14.2857 28.5714 14.9257 28.5714 15.7143C28.5714 16.5029 27.9314 17.1429 27.1429 17.1429ZM27.1429 10H22.8571C22.0686 10 21.4286 9.36 21.4286 8.57143C21.4286 7.78286 22.0686 7.14286 22.8571 7.14286H27.1429C27.9314 7.14286 28.5714 7.78286 28.5714 8.57143C28.5714 9.36 27.9314 10 27.1429 10Z" fill="#FC6600"/>
</g>
<defs>
<clipPath id="clip0_2146_22771">
<rect width="40" height="40" fill="white"/>
</clipPath>
</defs>
</svg>
