<svg width="32" height="32" viewBox="0 0 32 32" fill="none" xmlns="http://www.w3.org/2000/svg">
<path d="M26.4977 11.5288V9C26.4977 7.80653 26.0236 6.66193 25.1797 5.81802C24.3357 4.97411 23.1911 4.5 21.9977 4.5H9.99767C8.8042 4.5 7.6596 4.97411 6.81569 5.81802C5.97178 6.66193 5.49767 7.80653 5.49767 9V11.5288C4.39809 11.6523 3.38257 12.1766 2.64512 13.0015C1.90767 13.8264 1.5 14.8941 1.5 16.0006C1.5 17.1071 1.90767 18.1748 2.64512 18.9998C3.38257 19.8247 4.39809 20.349 5.49767 20.4725V25C5.49767 25.3978 5.65571 25.7794 5.93701 26.0607C6.21832 26.342 6.59985 26.5 6.99767 26.5H24.9977C25.3955 26.5 25.777 26.342 26.0583 26.0607C26.3396 25.7794 26.4977 25.3978 26.4977 25V20.4725C27.5972 20.349 28.6128 19.8247 29.3502 18.9998C30.0877 18.1748 30.4953 17.1071 30.4953 16.0006C30.4953 14.8941 30.0877 13.8264 29.3502 13.0015C28.6128 12.1766 27.5972 11.6523 26.4977 11.5288ZM9.99767 5.5H21.9977C22.9259 5.5 23.8162 5.86875 24.4725 6.52513C25.1289 7.1815 25.4977 8.07174 25.4977 9V11.5288C24.3978 11.6517 23.3818 12.1757 22.6439 13.0006C21.906 13.8254 21.4979 14.8933 21.4977 16V16.5H10.4977V16C10.4975 14.8933 10.0894 13.8254 9.35148 13.0006C8.61357 12.1757 7.59756 11.6517 6.49767 11.5288V9C6.49767 8.07174 6.86642 7.1815 7.5228 6.52513C8.17918 5.86875 9.06941 5.5 9.99767 5.5ZM26.0352 19.5H25.9977C25.8651 19.5 25.7379 19.5527 25.6441 19.6464C25.5503 19.7402 25.4977 19.8674 25.4977 20V25C25.4977 25.1326 25.445 25.2598 25.3512 25.3536C25.2575 25.4473 25.1303 25.5 24.9977 25.5H6.99767C6.86506 25.5 6.73789 25.4473 6.64412 25.3536C6.55035 25.2598 6.49767 25.1326 6.49767 25V20C6.49767 19.8674 6.44499 19.7402 6.35122 19.6464C6.25746 19.5527 6.13028 19.5 5.99767 19.5H5.96017C5.26958 19.4926 4.59662 19.2811 4.026 18.892C3.45538 18.5029 3.01262 17.9538 2.75345 17.3136C2.49429 16.6735 2.4303 15.9709 2.56956 15.2945C2.70881 14.618 3.04508 13.9979 3.53602 13.5122C4.02696 13.0264 4.65064 12.6968 5.32853 12.5648C6.00642 12.4327 6.70822 12.5042 7.34558 12.7702C7.98294 13.0361 8.52737 13.4847 8.91032 14.0595C9.29327 14.6342 9.49763 15.3094 9.49767 16V21C9.49767 21.1326 9.55035 21.2598 9.64412 21.3536C9.73789 21.4473 9.86506 21.5 9.99767 21.5C10.1303 21.5 10.2575 21.4473 10.3512 21.3536C10.445 21.2598 10.4977 21.1326 10.4977 21V17.5H21.4977V21C21.4977 21.1326 21.5503 21.2598 21.6441 21.3536C21.7379 21.4473 21.8651 21.5 21.9977 21.5C22.1303 21.5 22.2575 21.4473 22.3512 21.3536C22.445 21.2598 22.4977 21.1326 22.4977 21V16C22.4977 15.3094 22.7021 14.6342 23.085 14.0595C23.468 13.4847 24.0124 13.0361 24.6498 12.7702C25.2871 12.5042 25.9889 12.4327 26.6668 12.5648C27.3447 12.6968 27.9684 13.0264 28.4593 13.5122C28.9503 13.9979 29.2865 14.618 29.4258 15.2945C29.565 15.9709 29.5011 16.6735 29.2419 17.3136C28.9827 17.9538 28.54 18.5029 27.9693 18.892C27.3987 19.2811 26.7258 19.4926 26.0352 19.5Z" fill="#FC6600"/>
</svg>
