<svg width="60" height="35" viewBox="0 0 60 35" fill="none" xmlns="http://www.w3.org/2000/svg">
<g clip-path="url(#clip0_2167_22976)">
<path d="M49.5293 16.9997C50.1787 16.9901 50.825 16.7367 51.2753 16.2429C51.3611 16.1499 51.4469 16.044 51.5663 16.0024C51.7624 15.9382 51.9584 16.0729 52.1361 16.1755C52.7641 16.5347 53.5728 16.5123 54.1824 16.1242C54.7919 15.7362 55.181 14.9922 55.1626 14.245C55.1595 14.1167 55.1503 13.9756 55.2239 13.8729C55.3004 13.7639 55.4444 13.7383 55.5731 13.719C56.2715 13.6196 56.973 13.456 57.5887 13.1001C58.2044 12.7441 58.7313 12.1701 58.9212 11.4613C59.1418 10.6371 58.8783 9.72959 58.3913 9.0401C57.9042 8.3506 57.218 7.84712 56.5135 7.40777C56.4002 7.33721 56.2807 7.26025 56.2347 7.12876C56.198 7.02293 56.2194 6.90428 56.2378 6.79203C56.3695 6.0352 56.394 5.25912 56.3083 4.49908C56.2225 3.7262 55.9866 2.90844 55.3985 2.43381C54.7705 1.92391 53.8852 1.92391 53.1133 2.12594C52.3965 2.31195 51.6858 2.67433 51.2631 3.3061C51.1834 3.42475 51.0946 3.56586 50.9537 3.57548C50.825 3.58189 50.7209 3.46965 50.6351 3.36703C50.0561 2.68074 49.2474 2.10991 48.3775 2.17084C47.4095 2.24139 46.6437 3.06558 46.1474 3.93786C46.0647 4.08217 45.9667 4.24573 45.8074 4.26818C45.7094 4.28421 45.6113 4.23931 45.5194 4.19762C44.6433 3.816 43.5743 3.75827 42.7993 4.32911C42.0243 4.89994 41.7608 6.21799 42.4409 6.91069C42.5174 6.98766 42.6063 7.06783 42.6124 7.17687C42.6185 7.31797 42.4837 7.41739 42.3643 7.48794C41.4361 8.04274 40.56 8.80278 40.1802 9.84824C39.3562 12.1188 41.5188 13.5715 43.418 13.7094C43.5191 13.7158 43.6294 13.7222 43.7121 13.7896C43.8438 13.8986 43.8346 14.1071 43.8346 14.2834C43.8285 14.9986 44.193 15.7041 44.7689 16.0921C45.3418 16.4802 46.1076 16.5347 46.7294 16.2365C46.9653 16.1242 47.2165 15.9575 47.4616 16.0472C47.5963 16.0954 47.6944 16.2108 47.7954 16.3134C48.2549 16.7816 48.8952 17.0093 49.5293 16.9997Z" stroke="#FC6600" stroke-width="0.7" stroke-miterlimit="10"/>
<path d="M48.5343 16.8301L47.6406 34.4064H50.8353L49.9416 16.8301C49.7156 16.8647 49.4794 16.8889 49.2397 16.8889C49 16.8889 48.7603 16.8647 48.5343 16.8301Z" stroke="#FC6600" stroke-width="0.531" stroke-miterlimit="10"/>
<path d="M36.3259 9.60938H1.96875V16.7396H36.3259V9.60938Z" stroke="#FC6600" stroke-width="0.7" stroke-miterlimit="10"/>
<path d="M10.0476 18H8V21.6485H10.0476V18Z" stroke="#FC6600" stroke-width="0.7" stroke-miterlimit="10"/>
<path d="M28.696 18H26.6484V21.6485H28.696V18Z" stroke="#FC6600" stroke-width="0.7" stroke-miterlimit="10"/>
<path d="M38.1454 22.9492H0.148438V26.4001H38.1454V22.9492Z" stroke="#FC6600" stroke-width="0.7" stroke-miterlimit="10"/>
<path d="M7.20286 28.2588H3.78906V33.5476H7.20286V28.2588Z" stroke="#FC6600" stroke-width="0.7" stroke-miterlimit="10"/>
<path d="M34.5075 28.2588H31.0938V33.5476H34.5075V28.2588Z" stroke="#FC6600" stroke-width="0.7" stroke-miterlimit="10"/>
</g>
<defs>
<clipPath id="clip0_2167_22976">
<rect width="60" height="34" fill="white" transform="translate(0 0.5)"/>
</clipPath>
</defs>
</svg>
