<svg width="49" height="32" viewBox="0 0 49 32" fill="none" xmlns="http://www.w3.org/2000/svg">
<path d="M39.5781 22.715H40.1975C40.5245 22.715 40.8054 22.9773 40.8054 23.3159V24.9327C40.8054 25.2721 40.5228 25.5336 40.1975 25.5336H26.7039C26.3777 25.5336 26.0969 25.2722 26.0969 24.9327V23.3159C26.0969 22.9772 26.376 22.715 26.7039 22.715H27.3242V22.4145V4.41645H21.6758V22.4145V22.715H22.2952C22.6223 22.715 22.9031 22.9773 22.9031 23.3159V24.9327C22.9031 25.2714 22.6223 25.5336 22.2952 25.5336H8.8025C8.47796 25.5336 8.19465 25.2738 8.19465 24.9327V23.3159C8.19465 22.9756 8.47626 22.715 8.8025 22.715H9.42191V22.4145V4.41645H5.98698L4.49565 29.6348H4.74875C4.97041 29.6348 5.15176 29.8147 5.15176 30.0364V30.9484C5.15176 31.1777 4.96088 31.35 4.74875 31.35H1.55301C1.34474 31.35 1.15 31.1823 1.15 30.9484V30.0364C1.15 29.8054 1.33908 29.6348 1.55301 29.6348H1.63368L3.12502 4.41645H2.23941C2.0732 4.41645 1.92154 4.34982 1.81142 4.24324C1.69812 4.13444 1.62707 3.97989 1.62707 3.81113V1.25532C1.62707 1.08414 1.69991 0.931737 1.81023 0.824374C1.92044 0.717112 2.07259 0.65 2.23941 0.65H46.7606C46.9256 0.65 47.0804 0.715881 47.1921 0.82671L46.9457 1.0752L47.1898 0.82438C47.3001 0.931733 47.3729 1.08413 47.3729 1.25532V3.81113C47.3729 3.98233 47.3001 4.13472 47.1898 4.24207L39.5781 22.715ZM39.5781 22.715V22.4145V4.41645H43.013M39.5781 22.715L43.013 4.41645M43.013 4.41645L44.5044 29.6348H44.2513C44.0334 29.6348 43.8482 29.8101 43.8482 30.0364V30.9484C43.8482 31.1823 44.043 31.35 44.2513 31.35H47.447C47.6553 31.35 47.85 31.1823 47.85 30.9484V30.0364C47.85 29.8101 47.6648 29.6348 47.447 29.6348H47.3663L45.875 4.41645H43.013ZM10.9179 4.41645H20.1798V22.4145V22.715H10.9179V22.4145V4.41645ZM28.8193 4.41645H38.0821V22.4145V22.715H28.8193V22.4145V4.41645Z" stroke="#222222" stroke-opacity="0.8" stroke-width="0.7"/>
</svg>
