<svg width="26" height="43" viewBox="0 0 26 43" fill="none" xmlns="http://www.w3.org/2000/svg">
<path d="M6.08396 6.11555C6.06199 5.96909 5.96091 5.84676 5.82122 5.79758C5.68153 5.7484 5.52611 5.78043 5.41723 5.88082C4.60918 6.6259 3.95873 7.51764 3.49702 8.49339C2.92606 9.69648 2.56967 10.7792 2.52004 11.8832C2.47012 12.9935 2.73181 14.0906 3.33971 15.3219L3.3397 15.322L3.34105 15.3246C4.22667 17.0852 5.64897 18.1968 7.74556 18.4226C7.89375 18.4385 8.03853 18.3708 8.12121 18.2468C8.20389 18.1227 8.21075 17.963 8.13902 17.8324C7.91733 17.4286 7.8413 16.8586 7.96333 16.0983C7.96419 16.0929 7.96494 16.0875 7.96558 16.0822C8.0245 15.5872 8.20118 15.1055 8.47874 14.6772C8.60436 15.0295 8.79245 15.3613 9.04056 15.6603C9.14195 15.7825 9.306 15.8331 9.45862 15.7894C9.61125 15.7456 9.72354 15.6158 9.74479 15.4584C9.92309 14.1381 10.3507 12.9732 10.9031 12.1182C11.2992 11.5052 11.7403 11.0786 12.1776 10.8467C12.1814 11.2205 12.265 11.5927 12.4244 11.9407C12.6059 12.3415 12.7995 12.6151 12.9599 12.8417C13.0053 12.9058 13.048 12.9662 13.087 13.0246C13.2592 13.2823 13.4182 13.5755 13.5468 14.1666C13.6226 14.5464 13.6692 14.9222 13.6785 15.3046C13.6821 15.4524 13.7669 15.5861 13.899 15.6524C14.0311 15.7187 14.189 15.7067 14.3096 15.6213C14.6496 15.3804 14.8751 14.9745 15.037 14.5273C15.1252 14.2837 15.2004 14.011 15.2653 13.7161C15.4119 13.9197 15.5389 14.1367 15.6465 14.3652L15.6467 14.3656C15.9313 14.9686 16.089 15.4645 16.1205 15.9366C16.1516 16.4015 16.0621 16.8722 15.8054 17.4269C15.7394 17.5694 15.763 17.7374 15.8656 17.8563C15.9683 17.9752 16.131 18.023 16.2817 17.9785C17.6307 17.5802 18.6052 16.8602 19.1662 15.8096C19.7215 14.7698 19.8412 13.4631 19.6038 11.9444C19.3628 10.3423 18.7189 8.8568 17.4253 7.61619C17.3125 7.50804 17.1471 7.47545 17.0017 7.53274C16.8564 7.59002 16.7577 7.7267 16.749 7.88269C16.7119 8.55133 16.524 9.20164 16.206 9.79625C15.811 7.66036 15.0663 5.75009 14.1082 4.26549C13.0074 2.55961 11.5864 1.36086 10.0425 1.11006C9.90973 1.08849 9.77498 1.13512 9.68393 1.23416C9.59287 1.3332 9.5577 1.47138 9.59033 1.6019C9.79815 2.43316 9.71743 3.30146 9.36338 4.09126C9.08178 4.71946 8.80725 5.10994 8.52492 5.51152C8.43436 5.64034 8.34299 5.7703 8.25033 5.90961C7.86398 6.49048 7.51823 7.15455 7.25714 8.38164L7.25679 8.3833C7.17056 8.79722 7.10334 9.21553 7.05896 9.63809C6.93899 9.42402 6.82468 9.16904 6.71705 8.87137C6.45246 8.13958 6.24724 7.20405 6.08396 6.11555Z" stroke="#FC6600" stroke-width="0.8" stroke-miterlimit="10" stroke-linecap="round" stroke-linejoin="round"/>
<path d="M20.9324 18.2023L20.9322 18.2023V18.2148V28.1148C20.9322 28.6772 21.4134 29.0948 21.9422 29.0948H24.3922C24.9354 29.0948 25.4022 28.673 25.4022 28.1148V18.2148C25.4022 17.6524 24.921 17.2348 24.3922 17.2348H21.9422C21.4018 17.2348 20.9493 17.6607 20.9324 18.2023ZM20.0622 27.9548L20.0643 27.5548H20.4522V18.7748V18.3786L20.0561 18.3748C13.8633 18.3146 9.60646 19.0921 6.28813 22.2134L6.28787 22.2137C3.04694 25.2676 1.73192 29.6469 1.7822 36.9275L1.78494 37.3248H2.18219H11.3022H11.7047L11.7022 36.9222C11.6872 34.5809 11.8 32.8584 12.0555 31.594C12.3112 30.3291 12.7011 29.567 13.2049 29.0974L13.2056 29.0967C13.6709 28.6611 14.4009 28.3569 15.5337 28.1734C16.5822 28.0035 17.9318 27.9434 19.6522 27.9516V27.9548H20.0522H20.0622ZM12.8722 40.9148V38.9548H12.9022V38.5548C12.9022 37.9924 12.421 37.5748 11.8922 37.5748H1.60219C1.05902 37.5748 0.592187 37.9965 0.592187 38.5548V40.9148C0.592187 41.4772 1.07338 41.8948 1.60219 41.8948H11.8622C12.4054 41.8948 12.8722 41.473 12.8722 40.9148Z" stroke="#FC6600" stroke-width="0.8" stroke-miterlimit="10"/>
</svg>
