<svg width="40" height="40" viewBox="0 0 40 40" fill="none" xmlns="http://www.w3.org/2000/svg">
<path fill-rule="evenodd" clip-rule="evenodd" d="M19.958 4.50002H20.048V3.50002H19.958V4.50002ZM20.048 1.00002L20.0495 1.00002C20.4213 0.999462 20.7941 1.00981 21.1656 1.03105L21.4982 1.05699C31.2898 1.82071 39 10.0103 39 20C39 30.4937 30.4937 39 20 39C9.50628 39 1 30.4937 1 20C1 9.5063 9.50628 1.00002 20 1.00002L20.048 1.00002ZM21.576 0.0560353V0.0560226C21.0682 0.0179369 20.5572 -0.00074356 20.048 2.23551e-05H20C8.95399 2.23551e-05 0 8.95402 0 20C0 31.046 8.95399 40 20 40C31.046 40 40 31.046 40 20C40 9.48402 31.884 0.864022 21.576 0.0600223V0.0560353ZM25.3344 13.9783C22.4871 12.5909 20.0136 10.5506 18.1122 8.02936C17.9089 7.75968 17.712 7.48449 17.522 7.20402C17.2853 7.44598 17.0413 7.68003 16.7904 7.90587C15.4689 9.09549 13.9561 10.0576 12.3133 10.7502C10.3586 11.5744 8.25929 12.0006 6.138 12.004C4.73446 14.4366 3.99596 17.1958 3.99671 20.0043C3.99747 22.8128 4.73744 25.5716 6.14228 28.0034C7.54712 30.4353 9.56732 32.4545 11.9998 33.8582C14.4324 35.2619 17.1915 36.0006 20 36C22.446 36.0005 24.8596 35.4403 27.0552 34.3622C29.2509 33.2842 31.1701 31.7171 32.6654 29.7814C34.1608 27.8457 35.1924 25.5929 35.681 23.1962C36.1696 20.7994 36.1022 18.3226 35.484 15.956C31.986 16.196 28.4864 15.514 25.3344 13.9783ZM11.5 34.7244C14.0845 36.2157 17.0159 37.0005 19.9998 37H20.0002C22.5989 37.0005 25.1632 36.4052 27.4959 35.2598C29.8288 34.1144 31.868 32.4494 33.4568 30.3927C35.0456 28.336 36.1417 25.9424 36.6608 23.3959C37.18 20.8494 37.1084 18.2178 36.4515 15.7033L36.2421 14.9017L35.4155 14.9584C32.0921 15.1864 28.7671 14.5384 25.7725 13.0793C22.7778 11.6202 20.2184 9.40087 18.3499 6.64309L17.6631 5.62959L16.8071 6.50477C15.4167 7.92623 13.7569 9.05626 11.9248 9.82878C10.0926 10.6013 8.12478 11.0008 6.1364 11.004L5.55992 11.0049L5.27183 11.5043C3.78057 14.0889 2.99591 17.0206 2.99671 20.0046C2.99751 22.9886 3.78374 25.9198 5.27638 28.5036C6.76902 31.0875 8.91548 33.2329 11.5 34.7244ZM15 20C15 20.2652 14.8946 20.5196 14.7071 20.7071C14.5196 20.8946 14.2652 21 14 21C13.7348 21 13.4804 20.8946 13.2929 20.7071C13.1054 20.5196 13 20.2652 13 20C13 19.7348 13.1054 19.4804 13.2929 19.2929C13.4804 19.1054 13.7348 19 14 19C14.2652 19 14.5196 19.1054 14.7071 19.2929C14.8946 19.4804 15 19.7348 15 20ZM26.7071 20.7071C26.5196 20.8946 26.2652 21 26 21C25.7348 21 25.4804 20.8946 25.2929 20.7071C25.1054 20.5196 25 20.2652 25 20C25 19.7348 25.1054 19.4804 25.2929 19.2929C25.4804 19.1054 25.7348 19 26 19C26.2652 19 26.5196 19.1054 26.7071 19.2929C26.8946 19.4804 27 19.7348 27 20C27 20.2652 26.8946 20.5196 26.7071 20.7071ZM16 20C16 20.5304 15.7893 21.0391 15.4142 21.4142C15.0391 21.7893 14.5304 22 14 22C13.4696 22 12.9609 21.7893 12.5858 21.4142C12.2107 21.0391 12 20.5304 12 20C12 19.4696 12.2107 18.9609 12.5858 18.5858C12.9609 18.2107 13.4696 18 14 18C14.5304 18 15.0391 18.2107 15.4142 18.5858C15.7893 18.9609 16 19.4696 16 20ZM26 22C26.5304 22 27.0391 21.7893 27.4142 21.4142C27.7893 21.0391 28 20.5304 28 20C28 19.4696 27.7893 18.9609 27.4142 18.5858C27.0391 18.2107 26.5304 18 26 18C25.4696 18 24.9609 18.2107 24.5858 18.5858C24.2107 18.9609 24 19.4696 24 20C24 20.5304 24.2107 21.0391 24.5858 21.4142C24.9609 21.7893 25.4696 22 26 22Z" fill="#FC6600"/>
</svg>
