<svg width="40" height="40" viewBox="0 0 40 40" fill="none" xmlns="http://www.w3.org/2000/svg">
<path d="M23.8401 29.4387L23.8537 29.4461L23.8678 29.4527C25.064 30.0135 25.5 30.6782 25.5 31.34V34.82V35.5917L26.2043 35.2763C28.9339 34.0541 30.5 32.4683 30.5 30.4V21.6C30.5 19.7336 29.3106 18.2983 27.132 17.1571L27.1287 17.1554C24.9514 16.0356 22.5718 15.5 20 15.5C17.4282 15.5 15.0486 16.0356 12.8713 17.1554L12.8713 17.1553L12.868 17.1571C10.6894 18.2983 9.5 19.7336 9.5 21.6V30.4C9.5 32.2721 10.7562 33.7885 13.0426 34.8903C15.2908 35.9832 17.6052 36.5 20 36.5H20.02L20.0399 36.4984L22.0399 36.3384L22.5 36.3016V35.84V31.82V31.273L21.9552 31.322L19.9777 31.5C18.219 31.4973 16.4609 31.1746 14.7755 30.517C15.0575 30.0945 15.5888 29.685 16.4714 29.2731L16.4744 29.2717C17.5825 28.7458 18.7486 28.5 20 28.5C21.3673 28.5 22.6428 28.7839 23.8401 29.4387ZM20 20.5C20.663 20.5 21.2989 20.7634 21.7678 21.2322C22.2366 21.7011 22.5 22.337 22.5 23C22.5 23.663 22.2366 24.2989 21.7678 24.7678C21.2989 25.2366 20.663 25.5 20 25.5C19.337 25.5 18.7011 25.2366 18.2322 24.7678C17.7634 24.2989 17.5 23.663 17.5 23C17.5 22.337 17.7634 21.7011 18.2322 21.2322C18.7011 20.7634 19.337 20.5 20 20.5ZM20 0.5C22.5608 0.5 25.0965 1.00438 27.4623 1.98435C29.8282 2.96432 31.9778 4.40068 33.7886 6.21142C35.5993 8.02216 37.0357 10.1718 38.0157 12.5377C38.9956 14.9035 39.5 17.4392 39.5 20C39.5 25.1717 37.4455 30.1316 33.7886 33.7886C30.1316 37.4455 25.1717 39.5 20 39.5C17.4392 39.5 14.9035 38.9956 12.5377 38.0157C10.1718 37.0357 8.02216 35.5993 6.21142 33.7886C2.55446 30.1316 0.5 25.1717 0.5 20C0.5 14.8283 2.55446 9.86838 6.21142 6.21142C9.86838 2.55446 14.8283 0.5 20 0.5ZM20 3.5C18.5413 3.5 17.1424 4.07946 16.1109 5.11091C15.0795 6.14236 14.5 7.54131 14.5 9C14.5 10.4587 15.0795 11.8576 16.1109 12.8891C17.1424 13.9205 18.5413 14.5 20 14.5C21.4587 14.5 22.8576 13.9205 23.8891 12.8891C24.9205 11.8576 25.5 10.4587 25.5 9C25.5 7.54131 24.9205 6.14236 23.8891 5.11091C22.8576 4.07946 21.4587 3.5 20 3.5Z" stroke="#FC6600"/>
</svg>
