<svg width="50" height="41" viewBox="0 0 50 41" fill="none" xmlns="http://www.w3.org/2000/svg">
<g clip-path="url(#clip0_2161_22946)">
<path d="M44.5691 15.4021L36.4297 3.64378L40.3036 0.899414L48.443 12.6577L44.5691 15.4021Z" stroke="#FC6600" stroke-miterlimit="10"/>
<path d="M40.1093 21.4758L36.0396 15.5995L16.6674 29.3214L20.7371 35.2005L16.8632 37.9449L6.00781 22.2653L9.88169 19.5209L13.9514 25.4L33.3236 11.6782L29.2568 5.79905L33.1306 3.05469L43.9832 18.7315L40.1093 21.4758Z" stroke="#FC6600" stroke-miterlimit="10"/>
<path d="M45.7288 8.73901L49.6026 5.99464L46.8895 2.07617L43.0156 4.82054L45.7288 8.73901Z" stroke="#FC6600" stroke-miterlimit="10"/>
<path d="M13.568 37.3569L5.42857 25.5986L1.55469 28.343L9.69409 40.1013L13.568 37.3569Z" stroke="#FC6600" stroke-miterlimit="10"/>
<path d="M6.97764 36.1792L3.10376 38.9236L0.390625 35.0051L4.2645 32.2607L6.97764 36.1792Z" stroke="#FC6600" stroke-miterlimit="10"/>
</g>
<defs>
<clipPath id="clip0_2161_22946">
<rect width="50" height="40" fill="white" transform="translate(0 0.5)"/>
</clipPath>
</defs>
</svg>
