<svg width="38" height="41" viewBox="0 0 38 41" fill="none" xmlns="http://www.w3.org/2000/svg">
<g clip-path="url(#clip0_2146_21889)">
<path fill-rule="evenodd" clip-rule="evenodd" d="M3.45669 32.7851C4.98937 32.7851 6.23583 34.0235 6.23583 35.5468C6.23583 37.0701 4.98937 38.3085 3.45669 38.3085C1.92401 38.3085 0.668326 37.0701 0.668326 35.5468C0.677559 34.0136 1.92401 32.7851 3.45669 32.7851ZM28.6166 32.5296L28.9305 32.4313C28.9859 32.4117 29.0506 32.4411 29.0783 32.5099C30.2693 35.9006 30.971 37.3453 34.4703 37.7286H34.4796H37.5357C37.6003 37.7286 37.6557 37.7876 37.6557 37.8564V40.0284C37.6557 40.0972 37.6003 40.1561 37.5357 40.1561H27.6102C27.5456 40.1561 27.4902 40.0972 27.4902 40.0284V37.8564C27.4902 37.7876 27.5456 37.7286 27.6102 37.7286H27.6841C27.758 37.7286 27.8134 37.65 27.7949 37.5714L26.6869 33.3257C26.6685 33.2569 26.7054 33.1979 26.7608 33.1782L26.8624 33.1389C26.927 33.1193 26.9639 33.0407 26.9362 32.9719L22.6336 21.1881L22.6244 21.1684L19.4113 11.763V11.7532C18.9589 10.6918 18.6727 9.60085 18.3772 8.53943C17.7586 6.23967 17.1677 4.02837 15.118 3.22247C14.7394 3.07505 14.3055 2.95712 13.8346 2.86867C13.336 2.77039 12.8097 2.72125 12.2465 2.69176C10.6584 2.61314 9.09806 3.0554 7.81467 4.0382C6.65131 4.93255 5.70031 6.29864 5.1648 8.15614C4.62928 9.98414 4.37076 11.5075 4.61082 12.8343C4.84164 14.1119 5.56182 15.2814 6.9837 16.4706C7.02986 16.5099 7.0945 16.5689 7.15913 16.6279C7.25146 16.7065 7.33455 16.7851 7.40842 16.8343C8.29479 17.3846 9.22732 17.8564 10.1229 18.3281C10.2799 18.4067 10.4368 18.4854 10.5846 18.564C10.7969 18.6721 11.0093 18.7802 11.2216 18.8883C13.5299 20.048 14.9425 20.7655 15.3488 24.048C15.4227 24.6475 15.4227 25.2274 15.358 25.7876C15.3488 25.8466 15.3857 25.8957 15.4319 25.9153C20.944 28.0579 24.7018 31.9104 26.253 38.2298C26.2714 38.3085 26.216 38.3871 26.1422 38.3871H7.42688C7.33455 38.3871 7.27916 38.279 7.33455 38.1905C8.23015 36.795 8.49791 35.0947 7.89777 33.5812C6.89137 31.0063 3.79831 29.935 0.982248 31.193C0.816054 31.2618 0.659093 31.3306 0.511365 31.419C0.437501 31.4583 0.335938 31.3994 0.335938 31.3109V23.822C0.335938 23.7532 0.391336 23.6942 0.455967 23.6942C0.936083 23.6942 1.4162 23.704 1.88708 23.7237C1.95171 23.7237 2.00711 23.6647 2.00711 23.5959V21.2962C2.00711 21.2274 2.06251 21.1684 2.12714 21.1684H5.68185C5.74648 21.1684 5.80188 21.2274 5.80188 21.2962V23.7827C5.80188 23.8515 5.84804 23.9006 5.91267 23.9104C8.70104 24.1463 11.2586 24.5886 13.5576 25.2765C13.6315 25.2962 13.7053 25.2372 13.7053 25.1586C13.7146 24.8736 13.7053 24.5886 13.6684 24.2937C13.3914 21.994 12.2927 21.4436 10.5107 20.5493C10.3076 20.4411 10.0952 20.3429 9.8644 20.2151C9.70743 20.1365 9.55047 20.0579 9.40275 19.9792C8.47021 19.4977 7.50998 19.0063 6.56821 18.4264C6.36509 18.2986 6.21736 18.161 6.06963 18.0333C6.01423 17.994 5.9773 17.9645 5.9219 17.9153C4.13993 16.4215 3.22587 14.908 2.92118 13.1782C2.62572 11.5075 2.91195 9.71879 3.52132 7.61559C4.17687 5.35515 5.35869 3.67456 6.82674 2.54434C8.43328 1.30601 10.3814 0.755645 12.3388 0.853925C12.9944 0.883409 13.5945 0.952205 14.1393 1.06031C14.7117 1.16842 15.2288 1.31584 15.7089 1.50257C18.5896 2.63279 19.3005 5.27653 20.0299 8.0382C20.3069 9.06031 20.5839 10.1021 20.9717 11.0063C20.9902 11.0357 20.9994 11.0751 21.0179 11.1045L24.2309 20.5493L28.6166 32.5296Z" stroke="#FC6600" stroke-width="0.7" stroke-miterlimit="10"/>
</g>
<defs>
<clipPath id="clip0_2146_21889">
<rect width="37.9661" height="40" fill="white" transform="translate(0.015625 0.5)"/>
</clipPath>
</defs>
</svg>
