<svg width="30" height="41" viewBox="0 0 30 41" fill="none" xmlns="http://www.w3.org/2000/svg">
<path d="M22.3406 21.5586V39.9622C22.3406 40.1868 22.1586 40.3688 21.934 40.3688H2.64097C2.41633 40.3688 2.23438 40.1868 2.23438 39.9622V20.6722C2.23438 20.4476 2.41633 20.2656 2.64097 20.2656H6.35625" stroke="#FC6600" stroke-opacity="0.8" stroke-miterlimit="10" stroke-linecap="round" stroke-linejoin="round"/>
<path d="M7.0499 21.2363C6.30314 21.3827 5.7554 22.0752 5.836 22.8795C5.90673 23.5877 6.48243 24.1609 7.19136 24.2292C8.00064 24.3065 8.69395 23.7497 8.83294 22.9988L7.0499 21.2363Z" stroke="#FC6600" stroke-opacity="0.8"/>
<path d="M16.5078 24.2012C17.3362 24.2012 18.0078 23.5296 18.0078 22.7012C18.0078 21.8727 17.3362 21.2012 16.5078 21.2012C15.6794 21.2012 15.0078 21.8727 15.0078 22.7012C15.0078 23.5296 15.6794 24.2012 16.5078 24.2012Z" stroke="#FC6600" stroke-opacity="0.8"/>
<path d="M7.32813 31.4473C8.15655 31.4473 8.82813 30.7757 8.82813 29.9473C8.82813 29.1188 8.15655 28.4473 7.32813 28.4473C6.4997 28.4473 5.82812 29.1188 5.82812 29.9473C5.82812 30.7757 6.4997 31.4473 7.32813 31.4473Z" stroke="#FC6600" stroke-opacity="0.8"/>
<path d="M16.5078 31.4473C17.3362 31.4473 18.0078 30.7757 18.0078 29.9473C18.0078 29.1188 17.3362 28.4473 16.5078 28.4473C15.6794 28.4473 15.0078 29.1188 15.0078 29.9473C15.0078 30.7757 15.6794 31.4473 16.5078 31.4473Z" stroke="#FC6600" stroke-opacity="0.8"/>
<path d="M7.32813 38.6934C8.15655 38.6934 8.82813 38.0218 8.82813 37.1934C8.82813 36.3649 8.15655 35.6934 7.32813 35.6934C6.4997 35.6934 5.82812 36.3649 5.82812 37.1934C5.82812 38.0218 6.4997 38.6934 7.32813 38.6934Z" stroke="#FC6600" stroke-opacity="0.8"/>
<path d="M16.5078 38.6934C17.3362 38.6934 18.0078 38.0218 18.0078 37.1934C18.0078 36.3649 17.3362 35.6934 16.5078 35.6934C15.6794 35.6934 15.0078 36.3649 15.0078 37.1934C15.0078 38.0218 15.6794 38.6934 16.5078 38.6934Z" stroke="#FC6600" stroke-opacity="0.8"/>
<path d="M28.932 14.884L15.373 28.6066C15.2154 28.7662 14.9572 28.7682 14.7976 28.6097L1.07397 15.0517C0.914379 14.8941 0.912346 14.6359 1.07092 14.4763L14.6299 0.752679C14.7875 0.59309 15.0457 0.591057 15.2052 0.74963L28.9279 14.3086C29.0885 14.4662 29.0895 14.7244 28.932 14.884Z" stroke="#FC6600" stroke-opacity="0.8" stroke-miterlimit="10" stroke-linecap="round" stroke-linejoin="round"/>
<path d="M5.14844 14.9092C5.97686 14.9092 6.64844 14.2376 6.64844 13.4092C6.64844 12.5808 5.97686 11.9092 5.14844 11.9092C4.32001 11.9092 3.64844 12.5808 3.64844 13.4092C3.64844 14.2376 4.32001 14.9092 5.14844 14.9092Z" stroke="#FC6600" stroke-opacity="0.8"/>
<path d="M13.7812 6.1748C14.6097 6.1748 15.2812 5.50323 15.2812 4.6748C15.2812 3.84638 14.6097 3.1748 13.7812 3.1748C12.9528 3.1748 12.2812 3.84638 12.2812 4.6748C12.2812 5.50323 12.9528 6.1748 13.7812 6.1748Z" stroke="#FC6600" stroke-opacity="0.8"/>
<path d="M14.625 15.8076C15.4534 15.8076 16.125 15.136 16.125 14.3076C16.125 13.4792 15.4534 12.8076 14.625 12.8076C13.7966 12.8076 13.125 13.4792 13.125 14.3076C13.125 15.136 13.7966 15.8076 14.625 15.8076Z" stroke="#FC6600" stroke-opacity="0.8"/>
<path d="M24.4062 16.4756C25.2347 16.4756 25.9062 15.804 25.9062 14.9756C25.9062 14.1472 25.2347 13.4756 24.4062 13.4756C23.5778 13.4756 22.9062 14.1472 22.9062 14.9756C22.9062 15.804 23.5778 16.4756 24.4062 16.4756Z" stroke="#FC6600" stroke-opacity="0.8"/>
</svg>
