<svg width="56" height="43" viewBox="0 0 56 43" fill="none" xmlns="http://www.w3.org/2000/svg">
<path d="M5.32651 15.0717L5.32526 15.0727C4.75316 15.5469 4.04258 15.7532 3.35409 15.7016M5.32651 15.0717L3.39141 15.203M5.32651 15.0717C8.82138 12.1556 12.5291 9.95492 16.3368 8.49372C20.1575 7.02829 24.0803 6.29733 28.008 6.33055C31.8893 6.36379 35.7994 7.13644 39.6455 8.68502L39.6456 8.68508C43.4025 10.1965 47.1027 12.4435 50.6549 15.4652C51.2179 15.9458 51.9332 16.162 52.6222 16.1159C53.2744 16.0747 53.911 15.8001 54.3974 15.312C54.4585 15.2566 54.5213 15.1903 54.5773 15.1123C55.0108 14.576 55.2061 13.9202 55.1635 13.2777C55.1207 12.6322 54.8342 12.0076 54.333 11.5341C54.2808 11.4792 54.2224 11.4284 54.1614 11.3836C50.1564 7.99166 45.9527 5.44494 41.6456 3.72326L41.6454 3.7232C37.1792 1.93953 32.6078 1.03982 28.0512 1.00126L28.0512 1.00126C23.4289 0.962712 18.8439 1.80673 14.4121 3.50087L14.412 3.50089C10.016 5.18194 5.77113 7.69481 1.79921 11.0093L1.78455 11.0216L1.78009 11.0259M5.32651 15.0717L2.11957 11.3932L2.11523 11.3975M3.35409 15.7016L3.39141 15.203M3.35409 15.7016C3.35419 15.7016 3.35428 15.7017 3.35438 15.7017L3.39141 15.203M3.35409 15.7016C2.66263 15.6502 1.9868 15.3413 1.49594 14.7806L1.47642 14.7583L1.46677 14.7442M3.39141 15.203C2.82277 15.1608 2.27149 14.9074 1.87214 14.4512L1.86346 14.4385M1.46677 14.7442C1.47346 14.752 1.4802 14.7598 1.48699 14.7676L1.7649 14.5247L1.86346 14.4385M1.46677 14.7442L1.45966 14.7338L1.45098 14.7211L1.86346 14.4385M1.46677 14.7442C0.994779 14.1915 0.79119 13.5018 0.844123 12.8364M1.86346 14.4385C1.46845 13.9866 1.29916 13.4206 1.34257 12.8758M1.34257 12.8758L0.844099 12.8367C0.844107 12.8366 0.844115 12.8365 0.844123 12.8364M1.34257 12.8758C1.38598 12.3225 1.64642 11.786 2.11523 11.3975M1.34257 12.8758L0.844147 12.8361C0.844139 12.8362 0.844131 12.8363 0.844123 12.8364M0.844123 12.8364C0.897407 12.1581 1.21473 11.5018 1.78009 11.0259M2.11523 11.3975L1.76653 11.0391L1.77087 11.0349L1.78009 11.0259M2.11523 11.3975L2.06664 11.3388L1.79615 11.0125C1.79077 11.017 1.78542 11.0214 1.78009 11.0259M19.5955 29.4455C19.118 29.8214 18.5277 29.9777 17.9634 29.9185C17.4251 29.8636 16.9042 29.6186 16.5223 29.1963C16.4788 29.154 16.4398 29.1076 16.4094 29.0611C16.0621 28.6092 15.9232 28.0685 15.9797 27.5448C16.0361 27.021 16.2879 26.5142 16.7219 26.1425C16.761 26.1045 16.8044 26.0707 16.8478 26.0411C18.5841 24.6769 20.3986 23.6336 22.2608 22.9282L19.5955 29.4455ZM19.5955 29.4455C20.9585 28.3684 22.3693 27.5448 23.8061 26.9957L19.5955 29.4455ZM24.2083 40.4687L24.2092 40.4696C25.1847 41.4141 26.5236 42 28.0036 42C29.4788 42 30.8227 41.4144 31.7945 40.4687C32.7664 39.5231 33.374 38.2135 33.374 36.761C33.374 35.3129 32.7666 33.9991 31.7945 33.0532C30.8228 32.1077 29.4834 31.5219 28.0036 31.5219C26.5236 31.5219 25.1847 32.1078 24.2092 33.0523L24.2083 33.0532C23.2363 33.9991 22.6289 35.3129 22.6289 36.761C22.6289 38.209 23.2363 39.5229 24.2083 40.4687ZM19.9048 29.8383L19.9055 29.8378C21.2344 28.7877 22.6015 27.9913 23.9846 27.4628L23.9862 27.4621C25.3447 26.9375 26.7037 26.6719 28.0485 26.6678C29.3815 26.6638 30.7312 26.9133 32.0873 27.433L32.0878 27.4332C33.4284 27.9452 34.7774 28.7205 36.1045 29.7775L36.1067 29.7792C36.6915 30.2396 37.4118 30.4237 38.0966 30.3571L38.0999 30.3567C38.7805 30.2859 39.4375 29.9693 39.9116 29.4154L39.9177 29.4095L39.9345 29.3892C40.41 28.8175 40.6033 28.1082 40.5336 27.4303L40.5332 27.4264C40.4583 26.75 40.1213 26.0943 39.5348 25.6321C37.7447 24.2095 35.8811 23.1391 33.983 22.4264L33.8072 22.8945L33.983 22.4264C32.0264 21.6918 30.0393 21.3342 28.0459 21.3385C26.0256 21.3429 24.0258 21.7222 22.0836 22.4607C20.1736 23.1842 18.3194 24.2508 16.5512 25.6383C16.4983 25.6752 16.4412 25.7196 16.3856 25.7723C15.8589 26.2283 15.5517 26.8489 15.4825 27.4912C15.4132 28.1345 15.5826 28.7984 16.0024 29.352C16.0498 29.4217 16.1046 29.486 16.1615 29.5428C16.6302 30.0552 17.2627 30.3493 17.9113 30.4158C18.6012 30.4881 19.3221 30.2971 19.9048 29.8383ZM46.8443 19.4873C43.8902 16.7797 40.856 14.742 37.7753 13.3614C34.6089 11.9414 31.391 11.2155 28.1641 11.1636C24.8963 11.1075 21.656 11.7516 18.4816 13.0508L18.4811 13.051C15.3161 14.3499 12.215 16.3068 9.22461 18.8832L9.22433 18.8835C8.6602 19.3703 8.34831 20.0371 8.30534 20.7217L8.30521 20.7238C8.26779 21.3637 8.46512 22.0246 8.9119 22.5603L8.91337 22.5621C8.93921 22.5945 8.98719 22.6548 9.05167 22.7139C9.54516 23.2227 10.1976 23.5006 10.8617 23.5414L10.8646 23.5415C11.5066 23.5771 12.1732 23.3917 12.7191 22.9653C12.7804 22.9231 12.8333 22.8767 12.874 22.8379C15.3769 20.6872 17.9249 19.0734 20.4827 18.0044C23.0122 16.9556 25.5529 16.4434 28.0778 16.4844C30.5651 16.5254 33.0805 17.1035 35.6057 18.2516C38.1073 19.3923 40.625 21.088 43.123 23.3811L43.1233 23.3814C43.6712 23.8834 44.3726 24.1202 45.0647 24.0996L45.0653 24.0996C45.7305 24.079 46.3885 23.8218 46.8985 23.3307L46.9067 23.3228L46.9145 23.3146L46.9631 23.2633C46.9637 23.2627 46.9643 23.2621 46.9648 23.2615C47.4808 22.7274 47.7284 22.0387 47.7069 21.354L47.7069 21.3534C47.6856 20.6991 47.4235 20.0463 46.9134 19.5499L46.9063 19.543L46.8989 19.5363L46.8462 19.489C46.8456 19.4884 46.8449 19.4879 46.8443 19.4873ZM43.4611 23.0127C40.9304 20.6897 38.3694 18.9622 35.8127 17.7964L46.5517 22.9705C46.135 23.3717 45.5968 23.5829 45.0498 23.5998C44.4812 23.6167 43.9082 23.4224 43.4611 23.0127Z" stroke="#FC6600"/>
</svg>
