<svg width="26" height="41" viewBox="0 0 26 41" fill="none" xmlns="http://www.w3.org/2000/svg">
<path d="M23.1091 40.1H2.88973C1.84599 40.1 1.00156 39.2567 1.00156 38.2187V2.78134C1.00156 1.74326 1.84562 0.9 2.88973 0.9H23.1091C24.1529 0.9 24.9973 1.74331 24.9973 2.78134V38.2189C24.9973 38.219 24.9973 38.219 24.9973 38.2191C24.9969 39.2568 24.1527 40.1 23.1091 40.1Z" stroke="#FC6600" stroke-width="0.8" stroke-miterlimit="10"/>
<path d="M6.49764 25.7778C6.49764 26.2955 6.07642 26.7172 5.55429 26.7172C5.03216 26.7172 4.61094 26.2955 4.61094 25.7778C4.61094 25.2602 5.03216 24.8385 5.55429 24.8385C6.07642 24.8385 6.49764 25.2602 6.49764 25.7778Z" stroke="#FC6600" stroke-width="0.8" stroke-miterlimit="10"/>
<path d="M11.5055 25.7778C11.5055 26.2955 11.0842 26.7172 10.5621 26.7172C10.04 26.7172 9.61875 26.2955 9.61875 25.7778C9.61875 25.2602 10.04 24.8385 10.5621 24.8385C11.0842 24.8385 11.5055 25.2602 11.5055 25.7778Z" stroke="#FC6600" stroke-width="0.8" stroke-miterlimit="10"/>
<path d="M16.5055 25.7778C16.5055 26.2955 16.0842 26.7172 15.5621 26.7172C15.04 26.7172 14.6188 26.2955 14.6188 25.7778C14.6188 25.2602 15.04 24.8385 15.5621 24.8385C16.0842 24.8385 16.5055 25.2602 16.5055 25.7778Z" stroke="#FC6600" stroke-width="0.8" stroke-miterlimit="10"/>
<path d="M21.4976 25.7778C21.4976 26.2955 21.0764 26.7172 20.5543 26.7172C20.0322 26.7172 19.6109 26.2955 19.6109 25.7778C19.6109 25.2602 20.0322 24.8385 20.5543 24.8385C21.0764 24.8385 21.4976 25.2602 21.4976 25.7778Z" stroke="#FC6600" stroke-width="0.8" stroke-miterlimit="10"/>
<path d="M6.49764 29.7827C6.49764 30.3004 6.07642 30.722 5.55429 30.722C5.03216 30.722 4.61094 30.3004 4.61094 29.7827C4.61094 29.265 5.03216 28.8434 5.55429 28.8434C6.07642 28.8434 6.49764 29.265 6.49764 29.7827Z" stroke="#FC6600" stroke-width="0.8" stroke-miterlimit="10"/>
<path d="M11.5055 29.7827C11.5055 30.3004 11.0842 30.722 10.5621 30.722C10.04 30.722 9.61875 30.3004 9.61875 29.7827C9.61875 29.265 10.04 28.8434 10.5621 28.8434C11.0842 28.8434 11.5055 29.265 11.5055 29.7827Z" stroke="#FC6600" stroke-width="0.8" stroke-miterlimit="10"/>
<path d="M16.5055 29.7827C16.5055 30.3004 16.0842 30.722 15.5621 30.722C15.04 30.722 14.6188 30.3004 14.6188 29.7827C14.6188 29.265 15.04 28.8434 15.5621 28.8434C16.0842 28.8434 16.5055 29.265 16.5055 29.7827Z" stroke="#FC6600" stroke-width="0.8" stroke-miterlimit="10"/>
<path d="M21.4976 29.7827C21.4976 30.3004 21.0764 30.722 20.5543 30.722C20.0322 30.722 19.6109 30.3004 19.6109 29.7827C19.6109 29.265 20.0322 28.8434 20.5543 28.8434C21.0764 28.8434 21.4976 29.265 21.4976 29.7827Z" stroke="#FC6600" stroke-width="0.8" stroke-miterlimit="10"/>
<path d="M6.49764 33.7895C6.49764 34.3072 6.07642 34.7289 5.55429 34.7289C5.03216 34.7289 4.61094 34.3072 4.61094 33.7895C4.61094 33.2719 5.03216 32.8502 5.55429 32.8502C6.07642 32.8502 6.49764 33.2719 6.49764 33.7895Z" stroke="#FC6600" stroke-width="0.8" stroke-miterlimit="10"/>
<path d="M11.5055 33.7895C11.5055 34.3072 11.0842 34.7289 10.5621 34.7289C10.04 34.7289 9.61875 34.3072 9.61875 33.7895C9.61875 33.2719 10.04 32.8502 10.5621 32.8502C11.0842 32.8502 11.5055 33.2719 11.5055 33.7895Z" stroke="#FC6600" stroke-width="0.8" stroke-miterlimit="10"/>
<path d="M16.5055 33.7895C16.5055 34.3072 16.0842 34.7289 15.5621 34.7289C15.04 34.7289 14.6188 34.3072 14.6188 33.7895C14.6188 33.2719 15.04 32.8502 15.5621 32.8502C16.0842 32.8502 16.5055 33.2719 16.5055 33.7895Z" stroke="#FC6600" stroke-width="0.8" stroke-miterlimit="10"/>
<path d="M21.4976 33.7895C21.4976 34.3072 21.0764 34.7289 20.5543 34.7289C20.0322 34.7289 19.6109 34.3072 19.6109 33.7895C19.6109 33.2719 20.0322 32.8502 20.5543 32.8502C21.0764 32.8502 21.4976 33.2719 21.4976 33.7895Z" stroke="#FC6600" stroke-width="0.8" stroke-miterlimit="10"/>
<path d="M6.49764 37.7974C6.49764 38.315 6.07642 38.7367 5.55429 38.7367C5.03216 38.7367 4.61094 38.315 4.61094 37.7974C4.61094 37.2797 5.03216 36.858 5.55429 36.858C6.07642 36.858 6.49764 37.2797 6.49764 37.7974Z" stroke="#FC6600" stroke-width="0.8" stroke-miterlimit="10"/>
<path d="M11.5055 37.7974C11.5055 38.315 11.0842 38.7367 10.5621 38.7367C10.04 38.7367 9.61875 38.315 9.61875 37.7974C9.61875 37.2797 10.04 36.858 10.5621 36.858C11.0842 36.858 11.5055 37.2797 11.5055 37.7974Z" stroke="#FC6600" stroke-width="0.8" stroke-miterlimit="10"/>
<path d="M16.5055 37.7974C16.5055 38.315 16.0842 38.7367 15.5621 38.7367C15.04 38.7367 14.6188 38.315 14.6188 37.7974C14.6188 37.2797 15.04 36.858 15.5621 36.858C16.0842 36.858 16.5055 37.2797 16.5055 37.7974Z" stroke="#FC6600" stroke-width="0.8" stroke-miterlimit="10"/>
<path d="M21.4976 37.7974C21.4976 38.315 21.0764 38.7367 20.5543 38.7367C20.0322 38.7367 19.6109 38.315 19.6109 37.7974C19.6109 37.2797 20.0322 36.858 20.5543 36.858C21.0764 36.858 21.4976 37.2797 21.4976 37.7974Z" stroke="#FC6600" stroke-width="0.8" stroke-miterlimit="10"/>
<path d="M4.54844 22.0251V19.1471H21.4405V22.0251H4.54844Z" stroke="#FC6600" stroke-width="0.8" stroke-miterlimit="10"/>
<path d="M9.50524 13.2871L9.50511 13.287C8.17238 12.2741 7.31406 10.6758 7.31406 8.87816C7.31406 5.81868 9.80193 3.33652 12.8735 3.33652C15.945 3.33652 18.4329 5.81868 18.4329 8.87816C18.4329 10.6911 17.5599 12.301 16.2078 13.3129C16.0507 13.4302 15.8879 13.5393 15.7199 13.639L15.7193 13.6394C14.8873 14.1349 13.9144 14.4198 12.8735 14.4198C11.8183 14.4198 10.8331 14.1272 9.99376 13.6194C9.82456 13.5169 9.6616 13.4061 9.50524 13.2871Z" stroke="#FC6600" stroke-width="0.8" stroke-miterlimit="10"/>
<path d="M14.5309 7.86581C14.5309 8.73463 13.8242 9.44099 12.9498 9.44099C12.0755 9.44099 11.3688 8.73463 11.3688 7.86581C11.3688 6.99698 12.0755 6.29063 12.9498 6.29063C13.8242 6.29063 14.5309 6.99698 14.5309 7.86581Z" stroke="#FC6600" stroke-width="0.8" stroke-miterlimit="10"/>
<mask id="path-21-inside-1_2146_21794" fill="white">
<path d="M16.112 11.7613C15.9886 11.8917 15.8566 12.0143 15.7176 12.1281C15.1949 11.1837 14.1855 10.5425 13.0292 10.5425C11.8812 10.5425 10.8784 11.1742 10.3524 12.1075C10.2138 11.9928 10.083 11.8694 9.96094 11.7378C10.1079 11.4977 10.2846 11.2736 10.489 11.0694C11.1673 10.3931 12.0695 10.0205 13.0292 10.0205C13.9885 10.0205 14.8907 10.3931 15.569 11.0694C15.7801 11.2798 15.9622 11.5125 16.112 11.7613Z"/>
</mask>
<path d="M16.112 11.7613L16.6932 12.3111L17.1109 11.8694L16.7973 11.3487L16.112 11.7613ZM15.7176 12.1281L15.0176 12.5155L15.4822 13.355L16.2245 12.7471L15.7176 12.1281ZM10.3524 12.1075L9.84246 12.7239L10.5796 13.3338L11.0494 12.5003L10.3524 12.1075ZM9.96094 11.7378L9.27852 11.3203L8.96217 11.8374L9.3744 12.2818L9.96094 11.7378ZM10.489 11.0694L9.92417 10.5028L9.9236 10.5034L10.489 11.0694ZM15.5308 11.2116C15.4313 11.3168 15.3242 11.4163 15.2107 11.5092L16.2245 12.7471C16.3891 12.6122 16.546 12.4667 16.6932 12.3111L15.5308 11.2116ZM16.4175 11.7408C15.7596 10.5519 14.488 9.74246 13.0292 9.74246V11.3425C13.883 11.3425 14.6302 11.8154 15.0176 12.5155L16.4175 11.7408ZM13.0292 9.74246C11.5809 9.74246 10.3175 10.54 9.6555 11.7147L11.0494 12.5003C11.4394 11.8083 12.1815 11.3425 13.0292 11.3425V9.74246ZM10.8624 11.4911C10.7505 11.3985 10.6453 11.2993 10.5475 11.1938L9.3744 12.2818C9.52071 12.4396 9.67711 12.5871 9.84246 12.7239L10.8624 11.4911ZM10.6434 12.1553C10.7567 11.97 10.894 11.7956 11.0544 11.6353L9.9236 10.5034C9.67515 10.7516 9.45897 11.0254 9.27852 11.3203L10.6434 12.1553ZM11.0538 11.6359C11.5819 11.1094 12.2808 10.8205 13.0292 10.8205V9.22051C11.8581 9.22051 10.7527 9.67677 9.92417 10.5028L11.0538 11.6359ZM13.0292 10.8205C13.7771 10.8205 14.4761 11.1094 15.0042 11.6359L16.1338 10.5028C15.3053 9.6768 14.1999 9.22051 13.0292 9.22051V10.8205ZM15.0042 11.6359C15.1693 11.8006 15.3108 11.9817 15.4266 12.174L16.7973 11.3487C16.6135 11.0433 16.3908 10.759 16.1338 10.5028L15.0042 11.6359Z" fill="#FC6600" mask="url(#path-21-inside-1_2146_21794)"/>
</svg>
