<svg width="30" height="41" viewBox="0 0 30 41" fill="none" xmlns="http://www.w3.org/2000/svg">
<g clip-path="url(#clip0_2161_22938)">
<path d="M14.9975 0.625L0.398438 9.09665H5.80227V31.9033H0.398438L14.9975 40.3749L29.5966 31.9033H24.1927V9.09665H29.5966L14.9975 0.625Z" stroke="#FC6600" stroke-width="0.7" stroke-miterlimit="10"/>
<path d="M16.3285 9.18326C16.1324 9.18326 15.8709 9.18326 15.5659 9.16171C15.1519 9.16171 14.8904 9.14015 14.8032 9.14015L13.7791 9.11859C13.6702 9.11859 13.5394 9.11859 13.3433 9.09704C13.278 9.07548 13.2344 9.05392 13.2344 8.98926C13.2344 8.75214 13.2344 8.36412 13.2562 7.88988C13.2562 7.39408 13.278 7.02763 13.278 6.79051C13.278 6.53183 13.278 6.14381 13.2562 5.60491C13.2344 5.08755 13.2344 4.67798 13.2344 4.41931C13.2344 4.37619 13.278 4.35464 13.3433 4.35464C13.4087 4.35464 13.5176 4.35464 13.6484 4.35464C13.7791 4.35464 13.8881 4.35464 13.9534 4.35464C14.0188 4.35464 14.1495 4.35464 14.2803 4.33308C14.411 4.31152 14.5418 4.31152 14.6071 4.31152C14.6507 4.31152 14.6507 4.33308 14.6507 4.37619V4.41931C14.6289 4.85043 14.5853 5.47557 14.5635 6.33782V7.24319C14.5635 7.52342 14.5635 7.73899 14.5635 7.86832C14.5635 7.88988 14.5635 7.93299 14.5635 7.95455C14.5635 7.97611 14.5853 7.99766 14.6071 7.99766C14.6071 7.99766 14.6289 7.99766 14.6943 7.99766C14.8904 7.99766 15.2172 7.97611 15.6094 7.97611C16.0235 7.95455 16.3285 7.95455 16.5246 7.95455C16.59 7.95455 16.6118 7.97611 16.6118 8.04078C16.6118 8.42879 16.59 8.75214 16.5246 9.03237C16.5028 9.09704 16.481 9.11859 16.4592 9.14015C16.4592 9.18326 16.4157 9.18326 16.3285 9.18326Z" fill="#FC6600"/>
<path d="M15.4336 14.9607C15.4336 15.2194 15.4336 15.6289 15.4554 16.1678C15.4772 16.7068 15.4772 17.0948 15.4772 17.375C15.4772 17.4181 15.4772 17.4397 15.4554 17.4612C15.4554 17.4612 15.4118 17.4612 15.3682 17.4828C15.2157 17.5043 15.0196 17.5043 14.7799 17.5043C14.4531 17.5043 14.2352 17.5043 14.148 17.4828C14.0826 17.4612 14.0391 17.4397 14.0391 17.375C14.0391 17.4181 14.0391 17.2025 14.0609 16.7714C14.1044 15.8661 14.1262 15.2625 14.1262 14.9607C14.1262 14.7236 14.1262 14.3571 14.1044 13.8613C14.0826 13.3871 14.0826 13.0206 14.0826 12.7619C14.0826 12.7188 14.1044 12.6973 14.1698 12.6973C14.2352 12.6973 14.3441 12.6973 14.4966 12.6973C14.6492 12.6973 14.7363 12.6973 14.8235 12.6973C14.8889 12.6973 14.9978 12.6973 15.1285 12.6973C15.2593 12.6973 15.3682 12.6973 15.4336 12.6973C15.499 12.6973 15.5425 12.7188 15.5425 12.7619C15.5425 12.9991 15.5208 13.3655 15.499 13.8613C15.4554 14.3571 15.4336 14.7236 15.4336 14.9607Z" fill="#FC6600"/>
<path d="M16.6533 22.1601C16.6533 22.1816 16.6315 22.2032 16.5879 22.2032C16.4136 22.2032 16.1521 22.1816 15.8035 22.1601C15.4548 22.1385 15.1934 22.117 15.0191 22.117C14.8012 22.117 14.6704 22.117 14.6268 22.1385C14.5397 22.1816 14.4961 22.2894 14.4961 22.4619C14.4961 22.6774 14.5615 22.8068 14.6704 22.8283C14.714 22.8499 14.7794 22.8499 14.8883 22.8499C15.0408 22.8499 15.2805 22.8499 15.6074 22.8283C15.9124 22.8068 16.1521 22.8068 16.3264 22.8068C16.3918 22.8068 16.4354 23.0008 16.4354 23.4103C16.4354 23.7552 16.4136 23.9492 16.3918 24.0139C16.37 24.057 16.3482 24.0786 16.3046 24.0786C16.3264 24.0786 16.2611 24.0786 16.0867 24.057C15.8471 24.0355 15.4766 24.0139 14.9755 24.0139C14.8229 24.0139 14.7358 24.0139 14.714 24.0139C14.605 24.0355 14.5397 24.0786 14.5397 24.1648C14.5397 24.4882 14.5615 24.8546 14.5833 25.2642C14.605 25.6522 14.6268 25.8031 14.6268 25.76C14.6268 25.8246 14.5615 25.8462 14.4089 25.8678C14.4525 25.8678 14.3436 25.8678 14.1039 25.8678C13.6681 25.8678 13.4066 25.8462 13.2759 25.8246C13.2105 25.8031 13.1669 25.7815 13.1669 25.7169C13.1669 25.4582 13.1669 25.0917 13.1887 24.5959C13.2105 24.1001 13.2105 23.7121 13.2105 23.475C13.2105 23.1732 13.1887 22.8068 13.1669 22.3541C13.1234 21.6643 13.1016 21.2763 13.1016 21.2331V21.19C13.1016 21.1254 13.1234 21.1038 13.2105 21.1038C13.3848 21.1038 13.6245 21.1038 13.9731 21.1038C14.3218 21.1038 14.5615 21.1038 14.7358 21.1038C14.9101 21.1038 15.1934 21.0822 15.5638 21.0607C15.9342 21.0391 16.1957 21.0176 16.3918 21.0176C16.5007 21.0176 16.5661 21.0607 16.5879 21.1469C16.5879 21.2547 16.5879 21.384 16.6097 21.578C16.6097 21.6212 16.6315 21.7289 16.6533 21.8583C16.6533 21.9876 16.6533 22.0954 16.6533 22.1601Z" fill="#FC6600"/>
<path d="M16.5891 30.4382C16.5891 30.4814 16.5673 30.5029 16.5238 30.5029C16.4366 30.5029 16.088 30.4814 15.4996 30.4598C15.4779 31.0418 15.4779 31.4298 15.4779 31.667C15.4779 31.9256 15.4779 32.3352 15.4996 32.8741C15.5214 33.413 15.5214 33.801 15.5214 34.0813C15.5214 34.1244 15.5214 34.1459 15.4996 34.1675C15.4996 34.1675 15.4561 34.1675 15.4125 34.1891C15.2817 34.2106 15.0639 34.2106 14.8024 34.2106C14.4973 34.2106 14.3012 34.2106 14.1923 34.1891C14.1269 34.1675 14.1051 34.1459 14.1051 34.0813C14.1051 33.8226 14.1269 33.413 14.1487 32.8741C14.1705 32.3352 14.1923 31.9472 14.1923 31.667C14.1923 31.4945 14.1923 31.1065 14.1705 30.4814C13.7129 30.5245 13.3425 30.546 13.081 30.546C13.0374 30.546 13.0156 30.5245 13.0156 30.5029C13.0156 30.4814 13.0374 30.3951 13.0592 30.2442C13.1028 30.0933 13.1246 29.9856 13.1246 29.964C13.1246 29.8562 13.1464 29.7484 13.1464 29.6407C13.1682 29.4682 13.1899 29.382 13.2335 29.382C13.2335 29.382 13.2553 29.382 13.2771 29.382C13.6475 29.4251 14.1923 29.4466 14.9113 29.4466C15.1074 29.4466 15.4996 29.4251 16.0444 29.382C16.3494 29.3604 16.502 29.3389 16.502 29.3389C16.5455 29.3389 16.5673 29.3389 16.5891 29.3389C16.5891 29.3389 16.6109 29.3604 16.6109 29.4035C16.6109 29.4682 16.6109 29.5544 16.6109 29.6622C16.6109 29.7916 16.6109 29.8562 16.6109 29.9209C16.6109 29.9856 16.6109 30.0502 16.6327 30.1796C16.5673 30.2873 16.5891 30.3736 16.5891 30.4382Z" fill="#FC6600"/>
</g>
<defs>
<clipPath id="clip0_2161_22938">
<rect width="30" height="40" fill="white" transform="translate(0 0.5)"/>
</clipPath>
</defs>
</svg>
