<svg width="26" height="26" viewBox="0 0 26 26" fill="none" xmlns="http://www.w3.org/2000/svg">
<path fill-rule="evenodd" clip-rule="evenodd" d="M6.38672 0.75H6.63672H9.68472H9.93472V1V1.35849L24.0676 6.37891H24.7734H25.0234V6.62891V6.71846L25.4703 6.8772H25.0234V8.74091V8.99091H24.7734H23.2418V10.6124V10.8624H22.9918H21.7402V12.9453V13.1953H21.4902H20.8059V13.7999C20.9953 13.8051 21.1637 13.8546 21.2945 13.9689C21.4314 14.0886 21.4919 14.2485 21.52 14.3975C21.5478 14.5448 21.5487 14.7075 21.5449 14.8605C21.5434 14.9207 21.5413 14.9786 21.5391 15.0358C21.5355 15.1343 21.5319 15.2308 21.5319 15.3334C21.5319 15.439 21.5357 15.5336 21.5395 15.6273L21.5395 15.6274C21.5415 15.6768 21.5435 15.726 21.5449 15.7764C21.5487 15.9106 21.5484 16.0562 21.5178 16.1869C21.485 16.327 21.4133 16.4663 21.2666 16.562C21.1792 16.619 21.078 16.6519 20.9676 16.6682L22.0496 17.42L22.05 17.4202L23.7028 18.5645H23.7536H23.7557H23.8502C23.8506 18.5645 23.8509 18.5645 23.8512 18.5645H24.7747H25.0247V18.8145V19.7372C25.0247 19.7381 25.0247 19.739 25.0247 19.7399V20.6569V20.6676V20.6904C25.0247 20.6919 25.0247 20.6933 25.0247 20.6948V21.3945V21.6445H24.7747H15.6367H15.3867V21.3945V20.6951V20.6901V20.6677C15.3866 20.6641 15.3866 20.6605 15.3867 20.6569V19.74V19.7371V19.4691C15.3867 19.4687 15.3867 19.4683 15.3867 19.4679V18.8145V18.5645H15.6367H16.5602H16.5612H16.6498C16.6505 18.5645 16.6511 18.5645 16.6518 18.5645H16.6977L18.3447 17.4202L19.4081 16.6814H19.1719V16.4314V15.2434V14.9433L19.4665 14.9974L19.4666 14.9974L19.4668 14.9975L19.4669 14.9975L19.467 14.9975L19.4674 14.9976L19.4728 14.9985L19.4829 15.0001L19.4973 15.0022C19.5193 15.0052 19.5517 15.0092 19.5909 15.0124C19.6707 15.0189 19.7722 15.0217 19.8702 15.0101C19.9719 14.9981 20.0467 14.9732 20.0917 14.9419C20.1249 14.9188 20.147 14.891 20.1502 14.8284L20.1505 14.8236L20.1505 14.8236C20.1557 14.7516 20.1559 14.6782 20.1559 14.5951C20.1471 14.4292 20.0162 14.3054 19.8539 14.3054H19.6039V14.0554V13.1953H18.9102H18.6602V12.9453V10.8624H17.5078H17.2578V10.6124V8.99091H9.93412V22.6387H13.1216H13.3716V22.8887V25.0007V25.2507H13.1216H3.10156H2.85156V25.0007V22.8887V22.6387H3.10156H5.82812V8.99091H0.773438H0.523438V8.74091V6.87786V6.62891V6.62786V6.37891V5.00612V4.75612V4.75586V4.50586V3.32812V3.07812H0.773438H3.62344H3.87344V3.32812V4.50586H5.71144H5.96144V4.75586V6.37891H6.38672V1V0.75ZM17.8287 19.3696L17.7188 19.2889L17.7594 19.2552L17.8565 19.3563L17.8287 19.3696ZM19.3331 19.53L19.2005 19.449L19.3906 19.291L19.5264 19.4236L19.3331 19.53ZM21.0753 19.5295L20.8844 19.4243L21.018 19.2937L21.2058 19.4497L21.0753 19.5295ZM22.5777 19.3689L22.5497 19.3555L22.6487 19.2524L22.6898 19.2865L22.5777 19.3689ZM17.2961 20.1777L17.1906 20.2281L17.3501 20.3372L17.3863 20.3071L17.2961 20.1777ZM16.9504 20.6695L16.8694 20.6141L16.9282 20.688L16.9504 20.6695ZM16.0693 21.1445L15.8867 21.0578V21.1445H16.0693ZM16.2501 20.6768L16.2981 20.6996L16.2717 20.6665L16.2501 20.6768ZM17.5526 21.0813L17.6449 21.1445H17.438L17.5526 21.0813ZM18.5102 21.0452L18.2628 20.6902L18.5595 20.5268L18.8342 20.7286L18.5102 21.0452ZM19.3976 21.1425L19.3944 21.1445H19.4003L19.3976 21.1425ZM20.2027 21.0775L19.944 20.8081L20.2046 20.6486L20.463 20.8065L20.2027 21.0775ZM21.0101 21.1408L21.0052 21.1445H21.016L21.0101 21.1408ZM21.9009 21.045L21.5746 20.7261L21.847 20.5261L22.1466 20.6913L21.9009 21.045ZM23.058 20.3394L23.0211 20.3088L23.1124 20.1774L23.22 20.2287L23.058 20.3394ZM22.8567 21.0828L22.7665 21.1445H22.9685L22.8567 21.0828ZM23.4783 20.6888L23.4578 20.6718L23.5331 20.6203L23.4783 20.6888ZM23.9808 19.7084L23.9987 19.6962L23.9355 19.6708L23.9808 19.7084ZM24.5247 19.1349V19.0645H24.4543L24.5247 19.1349ZM24.1371 20.6656L24.1093 20.7005L24.16 20.6765L24.1371 20.6656ZM22.6549 19.9595L22.6352 19.9879L22.6091 19.9662L22.6327 19.9489L22.6549 19.9595ZM21.1182 20.1242L21.041 20.2046L20.9983 20.1629L21.0884 20.1077L21.1182 20.1242ZM19.4119 20.1641L19.3673 20.2077L19.2884 20.1255L19.32 20.108L19.4119 20.1641ZM17.7963 19.9662L17.7722 19.9863L17.7535 19.9595L17.7739 19.9497L17.7963 19.9662ZM16.4306 19.7084L16.4759 19.6708L16.4127 19.6962L16.4306 19.7084ZM15.8867 19.0645H15.9572L15.8867 19.1349V19.0645ZM24.5247 21.1445H24.34L24.5247 21.0571V21.1445ZM20.8753 6.37891L9.93472 2.59397V6.37891H20.8753ZM9.42969 1.25V1.5332V2.2412V2.41925L9.43472 2.42099V6.378H6.88672V1.25H9.42969ZM9.93472 2.06489L22.3997 6.3772H22.5691L9.93472 1.8891V2.06489ZM1.02344 6.37786V5.00612H3.62344H3.87344V5.00586H5.46144V6.37786H1.02344ZM1.02344 4.50586H3.37344V3.57812H1.02344V4.50586ZM17.7578 8.99091H22.7418V10.3624H21.7402V10.3613H21.4902H18.9102H18.6602V10.3624H17.7578V8.99091ZM23.2418 8.49091H24.5234V6.87891H1.02344V8.49091H5.82812V8.48438H6.07812H9.68412H9.93412V8.49091H17.2578V8.48438H17.5078H22.9918H23.2418V8.49091ZM6.32812 8.99091H6.98186L6.32812 9.26179V8.99091ZM6.32812 9.80301L8.28802 8.99091H9.43412V9.51456L6.32812 10.8035V9.80301ZM6.32812 11.3449V12.345L9.43412 11.0508V10.0559L6.32812 11.3449ZM6.32812 12.8867L9.43412 11.5925V12.5926L6.32812 13.8815V12.8867ZM6.32812 14.4229V15.4236L9.43412 14.1346V13.1339L6.32812 14.4229ZM6.32812 15.9649L9.43412 14.6759V15.6766L6.32812 16.9656V15.9649ZM6.32812 17.5069V18.507L9.43412 17.2129V16.2179L6.32812 17.5069ZM6.32812 19.0487L9.43412 17.7545V18.7546L6.32812 20.0436V19.0487ZM6.32812 20.5849V21.5856L9.43412 20.2966V19.2959L6.32812 20.5849ZM6.32812 22.1269L9.43412 20.838V21.8264L7.4668 22.6384H6.32812V22.1269ZM8.77735 22.6384H9.43412V22.3673L8.77735 22.6384ZM3.35156 24.7507V23.1387H12.8716V24.7507H3.35156ZM20.1973 16.1331L20.2669 16.1814H20.7719C20.9147 16.1814 20.9728 16.1567 20.9934 16.1433C21.0042 16.1362 21.0188 16.1248 21.031 16.0728C21.0453 16.0115 21.0488 15.924 21.0451 15.7904C21.044 15.7518 21.0423 15.7087 21.0404 15.6625L21.0404 15.662C21.0364 15.5625 21.0319 15.4484 21.0319 15.3334C21.0319 15.223 21.0361 15.1079 21.04 15.0024C21.042 14.9477 21.0439 14.8956 21.0451 14.8481C21.0488 14.6985 21.0459 14.5815 21.0287 14.4902C21.0118 14.4007 20.9861 14.3634 20.9655 14.3455C20.9466 14.3289 20.8985 14.2994 20.7719 14.2994H20.5945C20.6303 14.386 20.6517 14.4803 20.6557 14.5794L20.6561 14.5894H20.6559V14.5931C20.6559 14.674 20.6559 14.7648 20.6494 14.857C20.637 15.0811 20.5295 15.2466 20.3771 15.3525C20.2359 15.4506 20.0681 15.4902 19.929 15.5067C19.8383 15.5174 19.7498 15.5194 19.6719 15.5174V16.1814H20.1278L20.1973 16.1331ZM20.8059 12.5254V12.6953H21.2402V10.8624H19.1602V12.6953H19.6039V12.5254V12.2754H19.8539H20.5559H20.8059V12.5254ZM20.1039 13.8447V13.1953H20.3059V13.7994V13.9439C20.2443 13.9018 20.1764 13.8682 20.1039 13.8447ZM18.63 17.8308L20.1973 16.7419L21.7647 17.8308L21.765 17.831L22.823 18.5635H20.1973H17.5754L18.63 17.8308ZM20.5559 14.2191V14.0554H20.4365C20.4828 14.1044 20.523 14.1594 20.5559 14.2191Z" fill="#FC6600"/>
</svg>
