<svg width="42" height="52" viewBox="0 0 42 52" fill="none" xmlns="http://www.w3.org/2000/svg">
<path d="M28.3192 40.4874C29.0769 38.598 30.8902 37.3127 32.9199 37.2303M41 44.074C41 46.249 39.0731 47.2486 37.0488 47.7045C36.7781 47.7649 36.5508 47.9407 36.4101 48.1824C35.6415 49.4841 34.743 51 33.2112 51C30.6239 51 28.5292 48.8744 28.5292 46.2545C28.5292 45.2549 28.8648 43.2226 28.8648 43.2226C29.4494 39.691 25.5414 38.3178 22.2938 38.5211C21.444 38.576 8.65931 32.3145 3.5714 22.2193C2.77033 20.6265 -1.10514 12.937 2.53217 6.8184C5.35217 2.08387 10.9705 1.17211 11.2357 1.12817C15.4197 0.513015 18.5916 2.2816 19.5279 2.84732C19.5225 2.95717 19.5171 3.07252 19.5171 3.18786C19.5171 5.46175 20.6267 7.472 22.3263 8.69134C22.5428 11.0421 23.9555 13.0414 25.9365 14.0685C25.9203 15.3537 32.356 32.2926 32.2964 33.2812C32.2748 33.6492 32.1341 33.9952 32.0853 34.3577C31.8039 36.5932 34.1097 39.323 36.3072 39.3175C36.3126 39.3175 36.318 39.3175 36.3235 39.3175C38.9053 39.323 41 41.4486 41 44.074Z" stroke="#FC6600" stroke-miterlimit="10"/>
</svg>
