<svg width="40" height="40" viewBox="0 0 40 40" fill="none" xmlns="http://www.w3.org/2000/svg">
<g clip-path="url(#clip0_2146_21707)">
<path d="M20.055 11.6071C20.4869 12.0146 21.1906 12.4721 22.24 12.5971C22.0781 13.3496 22.19 14.1784 22.5756 14.8534C23.06 15.7015 23.9006 16.1871 24.8806 16.1871H28.045C28.9469 16.1871 30.0206 16.4821 30.0206 17.8846V19.4978H31.1988V17.8846C31.1988 16.1115 29.9906 15.0096 28.045 15.0096H24.88C24.17 15.0096 23.7912 14.6071 23.5981 14.269C23.2644 13.6853 23.2606 12.8878 23.5881 12.3315C23.6427 12.2395 23.6711 12.1344 23.6703 12.0274C23.6696 11.9204 23.6396 11.8157 23.5838 11.7244C23.5279 11.6332 23.4482 11.559 23.3533 11.5097C23.2583 11.4604 23.1518 11.4379 23.045 11.4446C22.1513 11.4984 21.3994 11.2565 20.8625 10.7509C20.6346 10.5368 20.4526 10.2786 20.3273 9.99213C20.2021 9.70563 20.1362 9.3967 20.1338 9.08402C20.1338 8.26652 20.6113 6.73777 22.3931 6.68652V8.0709H23.5713V7.83152C25.2356 7.86527 26.4356 8.9834 26.4356 10.5184C26.4356 11.139 26.18 11.8609 25.7544 12.449C25.6903 12.5368 25.6517 12.6406 25.6431 12.749C25.6344 12.8573 25.6559 12.966 25.7053 13.0628C25.7546 13.1597 25.8298 13.241 25.9225 13.2977C26.0153 13.3544 26.1219 13.3843 26.2306 13.384H28.1013C30.5381 13.384 31.8531 15.4178 31.8531 17.3321V19.4996H33.0319V17.3321C33.0319 14.8121 31.1869 12.2059 28.1006 12.2059H27.2406C27.4819 11.6515 27.6125 11.069 27.6125 10.5184C27.6125 8.33777 25.8794 6.68902 23.57 6.65402V5.15527H22.3912V5.5084C20.1356 5.55527 18.9531 7.3284 18.9531 9.08465C18.9565 9.55777 19.0558 10.0253 19.245 10.459C19.4341 10.8926 19.7093 11.2834 20.0538 11.6078L20.055 11.6071ZM30.0213 20.0784H31.1994V23.6378H30.0213V20.0784ZM31.8631 20.0784H33.0406V23.6378H31.8631V20.0784Z" fill="#FC6600"/>
<path d="M29.0106 20.485H24.27H24.125L24.0225 20.3825L11.1756 7.53624L10.8863 7.24692L11.217 7.00591C13.8748 5.06869 17.0796 4.02634 20.3685 4.02938M29.0106 20.485L35.9725 19.6337C35.9725 19.634 35.9725 19.6342 35.9725 19.6344C35.9725 19.9109 35.9652 20.1858 35.9509 20.4589M29.0106 20.485V23.3019M29.0106 20.485V23.3019M20.3685 4.02938L20.3681 4.37937V4.02938C20.3682 4.02938 20.3683 4.02938 20.3685 4.02938ZM20.3685 4.02938C28.9728 4.02955 35.9731 11.0293 35.9731 19.6344V20.4812L35.9509 20.4589M35.9509 20.4589C35.7882 23.5583 34.7146 26.4193 32.9963 28.7839L32.7554 29.1153L32.4657 28.8256L27.5388 23.8994L26.9412 23.3019H27.7863H29.0106M35.9509 20.4589L29.0106 23.3019M4.7638 20.4762L4.76312 19.634C4.76052 16.3825 5.77933 13.2122 7.67569 10.5709L7.91606 10.2361L8.20749 10.5275L17.5669 19.8869L18.1643 20.4844H17.3194H7.72687V23.3012H20.8362H20.9812L21.0837 23.4038L29.4737 31.7931L29.7653 32.0847L29.4302 32.325C26.7883 34.2199 23.6186 35.2384 20.3673 35.2369M4.7638 20.4762L20.3675 34.8869M4.7638 20.4762L4.78512 20.455M4.7638 20.4762L5.1125 19.6331H4.76375C4.76375 19.6334 4.76375 19.6337 4.76375 19.634C4.76377 19.9094 4.77095 20.1831 4.78512 20.455M20.3673 35.2369L20.3675 34.8869M20.3673 35.2369C20.3674 35.2369 20.3675 35.2369 20.3675 35.2369L20.3675 34.8869M20.3673 35.2369C12.0397 35.238 5.21386 28.6801 4.78512 20.455M20.3675 34.8869C12.1202 34.8881 5.37922 28.3079 5.1214 20.1197L4.78512 20.455M11.7124 7.08305L11.6706 7.04126L11.4231 7.28875C11.5188 7.21899 11.6153 7.15042 11.7124 7.08305ZM5.11312 19.6337H5.11375H5.11312ZM1.08437 19.6337C1.08437 9.00078 9.73456 0.35 20.3675 0.35H20.3681C31.0011 0.35 39.6519 9.0008 39.6513 19.6337C39.6513 30.2661 31.0005 38.9169 20.3675 38.9169C9.73517 38.9169 1.08437 30.2661 1.08437 19.6337Z" stroke="#FC6600" stroke-width="0.7"/>
</g>
<defs>
<clipPath id="clip0_2146_21707">
<rect width="40" height="40" fill="white"/>
</clipPath>
</defs>
</svg>
