<svg width="32" height="48" viewBox="0 0 32 48" fill="none" xmlns="http://www.w3.org/2000/svg">
<g clip-path="url(#clip0_2146_22826)">
<g clip-path="url(#clip1_2146_22826)">
<path d="M24.2616 19.3766V19.3771C24.2625 20.3084 23.4978 21.0729 22.5425 21.0729H9.45342C8.49954 21.0729 7.73438 20.3085 7.73438 19.3766V6.42853C7.73438 5.4979 8.49937 4.7334 9.45342 4.7334H22.5425C23.4966 4.7334 24.2616 5.4979 24.2616 6.42853V19.3766Z" stroke="#FC6600" stroke-miterlimit="10" stroke-linecap="round" stroke-linejoin="round"/>
<path d="M16 43.7662V21.5723" stroke="#FC6600" stroke-miterlimit="10" stroke-linecap="round" stroke-linejoin="round"/>
<path d="M19.4235 11.3515C19.4235 11.8491 19.3403 12.2983 19.1739 12.698C19.0076 13.0976 18.7713 13.4398 18.4623 13.7206C18.1534 14.0027 17.7758 14.2208 17.327 14.3749C16.8781 14.529 16.3434 14.606 15.7216 14.606H14.5783V18.191C14.5783 18.2315 14.5664 18.2681 14.5426 18.2981C14.5188 18.3281 14.4832 18.3529 14.4343 18.3712C14.3855 18.3895 14.3182 18.4039 14.2324 18.4169C14.1465 18.43 14.0396 18.4365 13.9102 18.4365C13.7808 18.4365 13.6726 18.43 13.5881 18.4169C13.5023 18.4039 13.4336 18.3882 13.3821 18.3712C13.3306 18.3529 13.2937 18.3294 13.2739 18.2981C13.2527 18.2667 13.2422 18.2315 13.2422 18.191V9.00594C13.2422 8.8009 13.2963 8.65462 13.4059 8.56712C13.5142 8.47962 13.6369 8.43652 13.7716 8.43652H15.9262C16.144 8.43652 16.3526 8.44567 16.552 8.46395C16.7513 8.48223 16.9877 8.52011 17.2596 8.57888C17.5316 8.63765 17.8088 8.74866 18.0914 8.90929C18.3739 9.07124 18.6142 9.26975 18.8109 9.50613C19.0076 9.74252 19.1594 10.0155 19.2664 10.325C19.3707 10.6358 19.4235 10.978 19.4235 11.3515ZM18.0161 11.4599C18.0161 11.055 17.9395 10.7168 17.7864 10.4438C17.6332 10.1722 17.4445 9.96976 17.2187 9.83655C16.9929 9.70334 16.7593 9.61845 16.519 9.58319C16.2774 9.54792 16.0437 9.52964 15.8153 9.52964H14.5783V13.5221H15.7836C16.1876 13.5221 16.5243 13.4711 16.7909 13.368C17.0576 13.2661 17.2821 13.1237 17.4643 12.9409C17.6451 12.7594 17.7837 12.5413 17.8762 12.2866C17.9699 12.0332 18.0161 11.7577 18.0161 11.4599Z" fill="#FC6600"/>
</g>
</g>
<defs>
<clipPath id="clip0_2146_22826">
<rect width="48" height="32" fill="white" transform="translate(32) rotate(90)"/>
</clipPath>
<clipPath id="clip1_2146_22826">
<rect width="18" height="40" fill="white" transform="translate(7 4)"/>
</clipPath>
</defs>
</svg>
