<svg width="48" height="33" viewBox="0 0 48 33" fill="none" xmlns="http://www.w3.org/2000/svg">
<path d="M39.0781 23.215H39.6975C40.0245 23.215 40.3054 23.4773 40.3054 23.8159V25.4327C40.3054 25.7721 40.0228 26.0336 39.6975 26.0336H26.2039C25.8777 26.0336 25.5969 25.7722 25.5969 25.4327V23.8159C25.5969 23.4772 25.876 23.215 26.2039 23.215H26.8242V22.9145V4.91645H21.1758V22.9145V23.215H21.7952C22.1223 23.215 22.4031 23.4773 22.4031 23.8159V25.4327C22.4031 25.7714 22.1223 26.0336 21.7952 26.0336H8.3025C7.97796 26.0336 7.69465 25.7738 7.69465 25.4327V23.8159C7.69465 23.4756 7.97626 23.215 8.3025 23.215H8.92191V22.9145V4.91645H5.48698L3.99565 30.1348H4.24875C4.47041 30.1348 4.65176 30.3147 4.65176 30.5364V31.4484C4.65176 31.6777 4.46088 31.85 4.24875 31.85H1.05301C0.844745 31.85 0.65 31.6823 0.65 31.4484V30.5364C0.65 30.3054 0.839078 30.1348 1.05301 30.1348H1.13368L2.62502 4.91645H1.73941C1.5732 4.91645 1.42154 4.84982 1.31142 4.74324C1.19812 4.63444 1.12707 4.47989 1.12707 4.31113V1.75532C1.12707 1.58414 1.19991 1.43174 1.31023 1.32437C1.42044 1.21711 1.57259 1.15 1.73941 1.15H46.2606C46.4256 1.15 46.5804 1.21588 46.6921 1.32671L46.4457 1.5752L46.6898 1.32438C46.8001 1.43173 46.8729 1.58413 46.8729 1.75532V4.31113C46.8729 4.48233 46.8001 4.63472 46.6898 4.74207L39.0781 23.215ZM39.0781 23.215V22.9145V4.91645H42.513M39.0781 23.215L42.513 4.91645M42.513 4.91645L44.0044 30.1348H43.7513C43.5334 30.1348 43.3482 30.3101 43.3482 30.5364V31.4484C43.3482 31.6823 43.543 31.85 43.7513 31.85H46.947C47.1553 31.85 47.35 31.6823 47.35 31.4484V30.5364C47.35 30.3101 47.1648 30.1348 46.947 30.1348H46.8663L45.375 4.91645H42.513ZM10.4179 4.91645H19.6798V22.9145V23.215H10.4179V22.9145V4.91645ZM28.3193 4.91645H37.5821V22.9145V23.215H28.3193V22.9145V4.91645Z" stroke="#FC6600" stroke-width="0.7"/>
</svg>
