<svg width="42" height="42" viewBox="0 0 42 42" fill="none" xmlns="http://www.w3.org/2000/svg">
<path d="M24.8742 12.5626L24.8743 12.5625C25.4734 11.782 26.4181 11.0337 27.3571 10.6702L24.8742 12.5626ZM24.8742 12.5626C24.5796 12.9465 24.3309 13.4082 24.3206 13.8855M24.8742 12.5626L24.3206 13.8855M29.8326 11.0297L29.8327 11.0298C30.1188 11.2244 30.4002 11.4465 30.664 11.6547C30.7784 11.745 30.8896 11.8327 30.9963 11.9144C31.3651 12.1966 31.7177 12.4377 32.1064 12.6056L32.1067 12.6057C32.1432 12.6215 32.2049 12.6403 32.31 12.667C32.3313 12.6724 32.355 12.6783 32.3801 12.6845C32.4616 12.7047 32.5592 12.7289 32.649 12.7554C32.7677 12.7905 32.913 12.8406 33.0461 12.9191C33.1796 12.9978 33.3427 13.1298 33.4289 13.3462L29.8326 11.0297ZM29.8326 11.0297C29.1042 10.5346 28.2944 10.307 27.3572 10.6701L29.8326 11.0297ZM30.2695 16.0837L30.2695 16.0837C29.8466 16.284 29.5568 16.5351 29.3434 16.8222L29.0912 17.1615L28.7147 16.9693C28.2397 16.7267 27.7648 16.4841 27.2899 16.2416C26.5732 15.8755 25.8565 15.5094 25.1395 15.1434L30.2695 16.0837ZM30.2695 16.0837L30.2717 16.0827M30.2695 16.0837L30.2717 16.0827M30.2717 16.0827C30.3858 16.028 30.5449 15.9911 30.782 15.9704M30.2717 16.0827L30.782 15.9704M30.782 15.9704C30.9693 15.954 31.1726 15.9497 31.4129 15.9445M30.782 15.9704L31.4129 15.9445M31.4129 15.9445C31.4812 15.943 31.5525 15.9415 31.6273 15.9396L31.4129 15.9445ZM24.3206 13.8855C24.3153 14.1357 24.3761 14.3868 24.5244 14.6144M24.3206 13.8855L24.5244 14.6144M24.5244 14.6144C24.6704 14.8387 24.883 15.0126 25.1394 15.1434L24.5244 14.6144Z" stroke="#FC6600" stroke-opacity="0.8" stroke-miterlimit="10"/>
<path d="M24.3216 14.9314L24.708 15.0988L28.7256 16.8388L29.1624 17.028L28.9949 17.4735C28.7411 18.1488 28.661 18.845 28.5736 19.6044C28.5486 19.8218 28.523 20.0444 28.4925 20.2732C28.3602 21.2668 28.135 22.3263 27.3636 23.2627L27.3634 23.2629C27.3019 23.3375 27.2457 23.4117 27.1826 23.4953C27.1559 23.5307 27.1279 23.5677 27.0977 23.6071C27.0025 23.7315 26.8921 23.8704 26.7633 24.0003C26.7633 24.0003 26.7633 24.0003 26.7632 24.0003L26.4083 23.6482C26.2185 23.8396 26.0027 23.9927 25.7899 24.1437C25.3777 24.4361 24.9761 24.721 24.7942 25.2623L24.3216 14.9314ZM24.3216 14.9314L24.0909 15.2838M24.3216 14.9314L24.0909 15.2838M25.5405 29.3238C25.7976 29.3044 26.0502 29.342 26.2659 29.4716C26.5075 29.6167 26.6444 29.8425 26.6961 30.078C26.7912 30.5115 26.6082 30.9716 26.3527 31.2866L26.2026 31.4717H25.9643H23.523H23.0602L23.0245 31.0103C22.9731 30.3454 22.8996 29.6618 22.8246 28.9645C22.8151 28.876 22.8055 28.7873 22.796 28.6984C22.7119 27.9124 22.6294 27.112 22.5813 26.3245L22.5813 26.3244C22.576 26.2362 22.5044 26.0658 22.2502 25.814C22.0095 25.5755 21.6707 25.3282 21.2832 25.0827C20.8989 24.8391 20.4874 24.6101 20.1095 24.4024C20.0697 24.3805 20.03 24.3588 19.9906 24.3372C19.6668 24.1596 19.3615 23.9921 19.1507 23.8548M25.5405 29.3238L19.4238 23.4359M25.5405 29.3238C25.5149 29.196 25.4837 29.0571 25.4521 28.9212C25.4225 28.7942 25.3897 28.6585 25.3593 28.5321C25.3384 28.4458 25.3187 28.3639 25.3017 28.2921C25.2798 28.1997 25.2617 28.1204 25.2484 28.0575C25.2418 28.0261 25.237 28.0012 25.2337 27.9822C25.2301 27.9619 25.2296 27.9558 25.2299 27.9591L25.23 27.9594L25.5405 29.3238ZM19.1507 23.8548L19.4238 23.4359M19.1507 23.8548C19.1508 23.8548 19.1508 23.8548 19.1508 23.8548L19.4238 23.4359M19.1507 23.8548C19.0864 23.8129 19.0196 23.7688 18.9506 23.7233C18.4699 23.4066 17.8817 23.019 17.2827 22.7796C16.6197 22.5145 16.1256 22.5017 15.7797 22.7646M19.4238 23.4359C19.3627 23.3961 19.2979 23.3533 19.2299 23.3085C18.2086 22.6346 16.4621 21.4824 15.3903 22.4381M15.7797 22.7646C15.7809 22.7484 15.7825 22.7361 15.7843 22.7263C15.7849 22.7228 15.7853 22.7212 15.7853 22.7212C15.7852 22.7212 15.7736 22.7658 15.7248 22.8098L15.3903 22.4381M15.7797 22.7646C15.777 22.8 15.7757 22.8537 15.7766 22.9383C15.7769 22.9653 15.7774 22.9942 15.7779 23.0249C15.7817 23.2516 15.7871 23.577 15.7271 23.9614C15.5918 24.828 15.1389 25.9368 13.7893 27.2903M15.7797 22.7646C15.7604 22.7793 15.7415 22.7948 15.7231 22.8113L15.3903 22.4381M15.3903 22.4381L13.7893 27.2903M13.7893 27.2903L13.7854 27.0757L13.2855 27.0848L13.6332 27.4441C13.6865 27.3925 13.7386 27.3412 13.7893 27.2903ZM13.7893 27.2903L13.8255 29.2801M13.7893 27.2903L13.8098 29.7801C14.5322 29.7801 14.4935 30.5024 14.2296 30.9713H12.8394C12.3998 30.9713 12.2127 30.9934 12.1363 30.9118C12.0521 30.8218 12.1025 30.6059 12.0973 30.0955M13.8255 29.2801C13.8203 29.2801 13.815 29.2801 13.8098 29.2801H13.3345V29.7801L13.8098 29.7714L13.8344 29.771L13.8255 29.2801ZM13.8255 29.2801C14.0837 29.2828 14.3301 29.3503 14.5295 29.5098C14.7339 29.6732 14.8382 29.8927 14.8799 30.1022C14.9584 30.4963 14.8337 30.9173 14.6654 31.2165L14.522 31.4713H14.2296H12.8394C12.7728 31.4713 12.7059 31.472 12.6414 31.4727C12.5127 31.474 12.3939 31.4752 12.3079 31.4706L12.3072 31.4706C12.2008 31.4648 11.9021 31.4487 11.7171 31.187C11.6337 31.0689 11.6075 30.9461 11.597 30.8653C11.5864 30.7845 11.5864 30.7016 11.5875 30.6344C11.5884 30.5842 11.59 30.535 11.5916 30.4834C11.5951 30.3771 11.5989 30.2601 11.5973 30.1006L11.5973 30.1009L12.0973 30.0955M12.0973 30.0955L12.0745 27.9993L12.0973 30.0955ZM7.28543 24.8287C7.48997 24.0165 7.86793 22.8775 8.32469 21.7996C8.78096 20.7228 9.34504 19.6358 9.93096 19.0167C10.8402 18.0559 11.9578 17.5415 13.1268 17.1781L13.1269 17.1781C13.3394 17.1121 13.5462 17.0334 13.7539 16.9424L13.7542 16.9422C14.1605 16.7645 14.5655 16.633 15.0596 16.6083L7.28543 24.8287ZM7.28543 24.8287L6.99329 25.5406C6.99327 25.5406 6.99325 25.5407 6.99323 25.5407C6.99321 25.5408 6.99319 25.5408 6.99317 25.5409C6.85748 25.871 6.78148 26.22 6.75799 26.5291C6.73625 26.8153 6.75288 27.1503 6.88107 27.4034C6.94789 27.5354 7.09097 27.7299 7.35488 27.7833C7.617 27.8363 7.82907 27.7156 7.95394 27.6133C8.19177 27.4184 8.40363 27.0595 8.60874 26.5904C8.61782 26.5724 8.62838 26.5519 8.63989 26.5296C8.68582 26.4404 8.74713 26.3214 8.792 26.2099L8.7927 26.2081C9.40162 24.677 10.0815 23.3146 10.8071 21.8606C10.8513 21.7721 10.8956 21.6833 10.9401 21.5941C10.9835 21.6528 11.0284 21.7373 11.0741 21.8618C11.1374 22.0341 11.1891 22.2445 11.251 22.5125C11.2579 22.5425 11.2649 22.5731 11.272 22.6043C11.3266 22.8425 11.3889 23.114 11.4707 23.3981L11.4707 23.3981C11.7154 24.2475 11.7068 24.8436 11.6429 25.3131C11.6157 25.5137 11.5787 25.6908 11.5407 25.8728C11.5322 25.9131 11.5238 25.9536 11.5153 25.9947C11.471 26.2109 11.4261 26.4505 11.425 26.6984L11.4248 26.7282L11.4282 26.7578L11.5748 28.0307L11.5973 30.1006L7.28543 24.8287ZM24.0909 15.2838C23.8211 15.6959 23.4285 16.0164 22.9621 16.2329L24.0909 15.2838ZM15.8527 16.5605C15.5844 16.578 15.3198 16.5952 15.0598 16.6083L22.9619 16.233C21.9286 16.7119 20.5819 16.8437 19.4473 16.6316L19.4471 16.6316C18.235 16.4056 17.0099 16.4853 15.8527 16.5605Z" stroke="#FC6600" stroke-opacity="0.8" stroke-miterlimit="10"/>
<path d="M41.5 20.9998C41.5 9.67908 32.3214 0.5 21.0002 0.5C9.67905 0.5 0.50044 9.67908 0.5 21.0002C0.5 32.3209 9.67863 41.5 20.9998 41.5C32.3214 41.5 41.5 32.3209 41.5 20.9998Z" stroke="#FC6600" stroke-opacity="0.8" stroke-miterlimit="10"/>
<path d="M38.252 21C38.252 11.473 30.528 3.74902 21.001 3.74902C11.4744 3.74902 3.75 11.4734 3.75 21C3.75 30.527 11.474 38.251 21.001 38.251C30.528 38.251 38.252 30.527 38.252 21Z" stroke="#FC6600" stroke-opacity="0.8" stroke-miterlimit="10"/>
</svg>
