<svg width="55" height="34" viewBox="0 0 55 34" fill="none" xmlns="http://www.w3.org/2000/svg">
<path d="M46.7427 9.97812H54.5833V1H27.5V10.2625C31.5896 10.2625 34.9073 13.5125 34.9073 17.5073C34.9073 21.5156 31.5896 24.7521 27.5 24.7521V33.5H54.5833V25.0229H46.7427V9.97812Z" stroke="#222222" stroke-opacity="0.8" stroke-width="0.8" stroke-miterlimit="10"/>
<path d="M20.094 17.5073C20.094 13.499 23.4117 10.2625 27.5013 10.2625V1H0.417969V9.97812H8.25859V25.0229H0.417969V33.5H27.5013V24.7521C23.4117 24.7521 20.094 21.5021 20.094 17.5073Z" stroke="#222222" stroke-opacity="0.8" stroke-width="0.8" stroke-miterlimit="10"/>
<path d="M0.417969 9.97656V25.0214V9.97656Z" stroke="#222222" stroke-opacity="0.8" stroke-width="0.8" stroke-miterlimit="10"/>
<path d="M8.25859 9.97656H0.417969V25.0214H8.25859V9.97656Z" stroke="#222222" stroke-opacity="0.8" stroke-width="0.8" stroke-miterlimit="10"/>
<path d="M54.5859 9.97656V25.0214V9.97656Z" stroke="#222222" stroke-opacity="0.8" stroke-width="0.8" stroke-miterlimit="10"/>
<path d="M54.5867 9.97656H46.7461V25.0214H54.5867V9.97656Z" stroke="#222222" stroke-opacity="0.8" stroke-width="0.8" stroke-miterlimit="10"/>
<path d="M20.0977 17.5104C20.0977 21.5188 23.4154 24.7552 27.5049 24.7552C31.5945 24.7552 34.9122 21.5052 34.9122 17.5104C34.9122 13.5021 31.5945 10.2656 27.5049 10.2656C23.4154 10.2656 20.0977 13.5021 20.0977 17.5104Z" stroke="#222222" stroke-opacity="0.8" stroke-width="0.8" stroke-miterlimit="10"/>
</svg>
