<svg width="48" height="55" viewBox="0 0 48 55" fill="none" xmlns="http://www.w3.org/2000/svg">
<path d="M24.9297 6.69274C24.9297 8.51354 26.4061 9.98997 28.2269 9.98997C30.0477 9.98997 31.5241 8.51354 31.5241 6.69274C31.5241 4.87194 30.0517 3.39551 28.2269 3.39551C26.4022 3.39551 24.9297 4.87194 24.9297 6.69274Z" stroke="#FC6600" stroke-width="2" stroke-miterlimit="33.3333" stroke-linecap="round" stroke-linejoin="round"/>
<path d="M4 38.6506L20.4941 41.9478L22.968 37" stroke="#FC6600" stroke-width="2" stroke-miterlimit="33.3333" stroke-linecap="round" stroke-linejoin="round"/>
<path d="M41 48.0326L36.747 50V38.5924L26 30.3949L28.6859 14" stroke="#FC6600" stroke-width="2" stroke-miterlimit="33.3333" stroke-linecap="round" stroke-linejoin="round"/>
<path d="M18 22V15.9994L28.455 14L34.7275 20.0006L41 22" stroke="#FC6600" stroke-width="2" stroke-miterlimit="33.3333" stroke-linecap="round" stroke-linejoin="round"/>
<path d="M43 40C44.6547 40 46 38.6547 46 37C46 35.3453 44.6547 34 43 34C41.3453 34 40 35.3453 40 37C40.0072 38.6619 41.3453 40 43 40Z" stroke="#FC6600" stroke-width="2" stroke-miterlimit="33.3333" stroke-linecap="round" stroke-linejoin="round"/>
</svg>
