<svg width="48" height="33" viewBox="0 0 48 33" fill="none" xmlns="http://www.w3.org/2000/svg">
<path fill-rule="evenodd" clip-rule="evenodd" d="M39.3265 22.9654H39.6959C40.1552 22.9654 40.5538 23.3338 40.5538 23.8163V25.4331C40.5538 25.917 40.1529 26.284 39.6959 26.284H26.2023C25.744 26.284 25.3454 25.9165 25.3454 25.4331V23.8163C25.3454 23.3343 25.7417 22.9654 26.2023 22.9654H26.5726V22.9148V5.16684H21.4243V22.9148V22.9654H21.7937C22.2529 22.9654 22.6515 23.3338 22.6515 23.8163V25.4331C22.6515 25.9156 22.2529 26.284 21.7937 26.284H8.30094C7.84534 26.284 7.44309 25.9192 7.44309 25.4331V23.8163C7.44309 23.3316 7.84306 22.9654 8.30094 22.9654H8.67035V22.9148V5.16684H5.72107L4.2593 29.8853C4.6126 29.8918 4.9002 30.1802 4.9002 30.5368V31.4488C4.9002 31.8225 4.59095 32.1004 4.24719 32.1004H1.05145C0.714327 32.1004 0.398438 31.8298 0.398438 31.4488V30.5368C0.398438 30.2192 0.618403 29.9727 0.895339 29.9043L2.35824 5.16684H1.73785C1.50422 5.16684 1.29106 5.07321 1.1363 4.92356C0.976102 4.76952 0.875508 4.55082 0.875508 4.31152V1.75571C0.875508 1.51222 0.979202 1.29656 1.13431 1.14561C1.28923 0.99483 1.50321 0.900391 1.73785 0.900391H46.259C46.4894 0.900391 46.7064 0.991836 46.8644 1.14735C47.0185 1.29821 47.1214 1.51315 47.1214 1.75571V4.31152C47.1214 4.55502 47.0177 4.77068 46.8626 4.92163C46.7076 5.0724 46.4937 5.16684 46.259 5.16684H45.6386L47.1015 29.9042C47.3821 29.9733 47.5984 30.2247 47.5984 30.5368V31.4488C47.5984 31.8299 47.2825 32.1004 46.9454 32.1004H43.7497C43.4126 32.1004 43.0967 31.8299 43.0967 31.4488V30.5368C43.0967 30.173 43.3906 29.8918 43.7376 29.8853L42.2758 5.16684H39.3265V22.9148V22.9654ZM42.8414 4.56684L44.3386 29.8852L44.3741 30.4852H43.7731H43.7497C43.72 30.4852 43.6967 30.5088 43.6967 30.5368V31.4488C43.6967 31.4768 43.7218 31.5004 43.7497 31.5004H46.9454C46.9733 31.5004 46.9984 31.4768 46.9984 31.4488V30.5368C46.9984 30.5088 46.9751 30.4852 46.9454 30.4852H46.5348L45.0376 5.16684L45.0021 4.56684H45.6032H46.259C46.3309 4.56684 46.3965 4.53799 46.4441 4.49165C46.4917 4.4453 46.5214 4.38147 46.5214 4.31152V1.75571C46.5214 1.68576 46.4917 1.62193 46.4441 1.57559C46.3974 1.52925 46.3309 1.50039 46.259 1.50039H1.73785C1.66598 1.50039 1.60039 1.52925 1.55277 1.57559C1.50516 1.62193 1.47551 1.68576 1.47551 1.75571V4.31152C1.47551 4.38147 1.50516 4.44618 1.55277 4.49165C1.60039 4.53799 1.66598 4.56684 1.73785 4.56684H2.39372H2.99477L2.95928 5.16684L1.46203 30.4852H1.05145C1.0218 30.4852 0.998438 30.508 0.998438 30.5368V31.4488C0.998438 31.4768 1.02359 31.5004 1.05145 31.5004H4.24719C4.27504 31.5004 4.3002 31.4759 4.3002 31.4488V30.5368C4.3002 30.5097 4.27684 30.4852 4.24719 30.4852H4.22382H3.62277L3.65826 29.8852L5.15551 4.56684H8.67035H9.27035V5.16684V22.3148V22.9148H9.46637H9.87035H10.0664V22.3148V5.16684V4.56684H10.6664H19.4282H20.0282V5.16684V22.3148V22.9148H20.2243H20.6282H20.8243V22.3148V5.16684V4.56684H21.4243H26.5726H27.1726V5.16684V22.3148V22.9148H27.3677H27.7726H27.9677V22.3148V5.16684V4.56684H28.5677H37.3305H37.9305V5.16684V22.3148V22.9148H38.1265H38.5305H38.7265V22.3148V5.16684V4.56684H39.3265H42.8414ZM37.3305 5.16684H28.5677V22.9148V22.9654H37.3305V22.9148V5.16684ZM19.4282 5.16684H10.6664V22.9148V22.9654H19.4282V22.9148V5.16684ZM39.6959 23.5654H26.2023C26.0604 23.5654 25.9454 23.6782 25.9454 23.8163V25.4331C25.9454 25.5712 26.0613 25.684 26.2023 25.684H39.6959C39.837 25.684 39.9538 25.5703 39.9538 25.4331V23.8163C39.9538 23.6791 39.8379 23.5654 39.6959 23.5654ZM21.7937 23.5654H8.30094C8.15898 23.5654 8.04309 23.6782 8.04309 23.8163V25.4331C8.04309 25.5712 8.15988 25.684 8.30094 25.684H21.7937C21.9356 25.684 22.0515 25.5703 22.0515 25.4331V23.8163C22.0515 23.6791 21.9356 23.5654 21.7937 23.5654Z" fill="#FC6600"/>
</svg>
