<svg width="32" height="41" viewBox="0 0 32 41" fill="none" xmlns="http://www.w3.org/2000/svg">
<path d="M7.23097 8.4886V8.9886H7.73097H14.2421H14.7421V8.4886V1.61332C14.7421 1.26462 15.0188 1 15.3257 1H17.3155C17.6223 1 17.8991 1.26462 17.8991 1.61332V8.4886V8.9886H18.3991H21.4699V17.3138C21.4699 21.9043 17.8155 25.639 13.3835 25.639H12.8323L12.8858 26.1876C13.2319 29.7335 14.0507 32.295 15.2265 33.9369L15.2267 33.9371C15.9702 34.9744 16.8636 35.6197 17.8579 35.8309L17.8582 35.831C18.9089 36.0537 20.0738 35.818 21.2591 35.2451L21.2597 35.2449C23.5156 34.1511 25.8337 31.8676 27.8737 28.6462L27.874 28.6458C28.471 27.7009 29.6893 27.4429 30.5952 28.0488L30.5957 28.0492C31.5121 28.6604 31.7787 29.9308 31.1795 30.8814C28.6842 34.8203 25.7724 37.5777 22.9403 38.9479L22.9402 38.948C20.9295 39.9214 18.9387 40.2263 17.0799 39.8333C15.1675 39.4288 13.4428 38.3096 12.0472 36.3625C10.4537 34.1357 9.29865 30.7659 8.90088 26.0934L8.86276 25.6457L8.41355 25.6359C4.05846 25.5411 0.5 21.8456 0.5 17.3138V8.9886H3.57082H4.07082V8.4886V1.61332C4.07082 1.26559 4.34663 1 4.65759 1H6.64737C6.95422 1 7.23097 1.26462 7.23097 1.61332V8.4886Z" stroke="#FC6600" stroke-opacity="0.8"/>
</svg>
