<svg width="27" height="26" viewBox="0 0 27 26" fill="none" xmlns="http://www.w3.org/2000/svg">
<path d="M13.9961 0.257812C13.7937 0.257812 13.5914 0.263281 13.3891 0.272578L13.4328 1.25586C13.6187 1.24711 13.8047 1.24219 13.9961 1.24219C20.493 1.24219 25.7539 6.50312 25.7539 13C25.7539 19.4969 20.493 24.7578 13.9961 24.7578C9.09609 24.7578 4.89883 21.7664 3.13242 17.5063L4.64344 17.0523L1.99492 15.1766L0.953125 18.157L2.18633 17.7906C4.08016 22.45 8.65859 25.7422 13.9961 25.7422C21.0289 25.7422 26.7383 20.0328 26.7383 13C26.7383 5.96719 21.0289 0.257812 13.9961 0.257812ZM12.3117 0.369375C11.5844 0.465078 10.8844 0.620938 10.2008 0.833125L10.507 1.76773C11.1305 1.57414 11.7812 1.43141 12.443 1.34391L12.3117 0.369375ZM9.19453 1.19625C8.51641 1.47242 7.87109 1.80437 7.25859 2.18719L7.77813 3.01898C8.34141 2.6668 8.9375 2.36109 9.56094 2.10734L9.19453 1.19625ZM6.36172 2.80078C5.78759 3.23109 5.25068 3.70892 4.75664 4.22922L5.47031 4.90078C5.92422 4.42117 6.42188 3.98148 6.94688 3.585L6.68438 3.2257L6.36172 2.80078ZM10.1625 3.27L9.92188 4.22375L21.7891 7.25781L22.0297 6.30625L10.1625 3.27ZM4.0468 5.04297C3.59891 5.60078 3.19695 6.20234 2.84695 6.83125L3.70281 7.3125C4.02602 6.72734 4.3968 6.175 4.81078 5.65547L4.0468 5.04297ZM11.0266 5.52422C10.8133 6.94609 11.1797 8.54297 11.8031 9.85547C12.1531 10.5883 12.5797 11.2336 13.0008 11.7039C13.2305 11.9609 13.4602 12.1578 13.668 12.3L13.3727 13.4594C13.1211 13.4812 12.8258 13.5469 12.4977 13.6617C11.9016 13.8695 11.218 14.2305 10.5617 14.7063C9.38047 15.5594 8.29766 16.7789 7.80547 18.1297L16.9656 20.4758C17.1789 19.0539 16.8125 17.457 16.1891 16.1445C15.8391 15.4117 15.4125 14.7664 14.9914 14.2961C14.7617 14.0391 14.532 13.8422 14.3242 13.7L14.6195 12.5406C14.8656 12.5133 15.1664 12.4531 15.4945 12.3383C16.0906 12.1305 16.7742 11.7695 17.4305 11.2937C18.6117 10.4406 19.6945 9.22109 20.1867 7.87031L11.0266 5.52422ZM2.36078 7.79922C2.0693 8.45547 1.83031 9.13359 1.64984 9.83906L2.60578 10.0687C2.77148 9.42344 2.99078 8.8 3.2593 8.19844L2.36078 7.79922ZM1.42891 10.8945C1.31461 11.5781 1.25391 12.2836 1.25391 13V13.0492L2.23828 13.0383V13C2.23828 12.3383 2.29406 11.6875 2.39961 11.0531L1.42891 10.8945ZM6.20312 18.7422L5.9625 19.6938L17.8297 22.7289L18.0703 21.7773L6.20312 18.7422Z" fill="#FC6600"/>
</svg>
