<svg width="36" height="40" viewBox="0 0 36 40" fill="none" xmlns="http://www.w3.org/2000/svg">
<g clip-path="url(#clip0_2146_22761)">
<path d="M26.75 40C31.582 40 35.5 36.082 35.5 31.25C35.5 26.418 31.582 22.5 26.75 22.5C21.918 22.5 18 26.418 18 31.25C18 36.082 21.918 40 26.75 40ZM30.948 28.768L27.61 34.332C27.078 35.22 25.926 35.508 25.038 34.976C24.906 34.896 24.784 34.802 24.676 34.692L22.74 32.76C22.252 32.272 22.252 31.478 22.74 30.99C23.228 30.502 24.022 30.502 24.51 30.99L25.878 32.36L28.802 27.482C29.156 26.89 29.924 26.698 30.516 27.052C31.108 27.406 31.302 28.176 30.948 28.768Z" fill="#FC6600"/>
<path d="M0.5 2.5C0.5 1.12 1.62 0 3 0H28C29.38 0 30.5 1.12 30.5 2.5V20.64C29.296 20.216 28.028 19.998 26.75 20C23.224 20 19.902 21.654 17.774 24.468C17.92 24.258 18 24.008 17.998 23.75V21.25C17.998 20.56 17.438 20 16.748 20H14.248C13.558 20 12.998 20.56 12.998 21.25V23.75C12.998 24.44 13.558 25 14.248 25H16.748C17.128 25 17.486 24.828 17.724 24.532C16.534 26.132 15.788 28.018 15.566 30H11.75C11.06 30 10.5 30.56 10.5 31.25V40H3C1.62 40 0.5 38.88 0.5 37.5V2.5ZM5.5 6.25V8.75C5.5 9.44 6.06 10 6.75 10H9.25C9.94 10 10.5 9.44 10.5 8.75V6.25C10.5 5.56 9.94 5 9.25 5H6.75C6.06 5 5.5 5.56 5.5 6.25ZM13 6.25V8.75C13 9.44 13.56 10 14.25 10H16.75C17.44 10 18 9.44 18 8.75V6.25C18 5.56 17.44 5 16.75 5H14.25C13.56 5 13 5.56 13 6.25ZM21.75 5C21.06 5 20.5 5.56 20.5 6.25V8.75C20.5 9.44 21.06 10 21.75 10H24.25C24.94 10 25.5 9.44 25.5 8.75V6.25C25.5 5.56 24.94 5 24.25 5H21.75ZM5.5 13.75V16.25C5.5 16.94 6.06 17.5 6.75 17.5H9.25C9.94 17.5 10.5 16.94 10.5 16.25V13.75C10.5 13.06 9.94 12.5 9.25 12.5H6.75C6.06 12.5 5.5 13.06 5.5 13.75ZM14.25 12.5C13.56 12.5 13 13.06 13 13.75V16.25C13 16.94 13.56 17.5 14.25 17.5H16.75C17.44 17.5 18 16.94 18 16.25V13.75C18 13.06 17.44 12.5 16.75 12.5H14.25ZM20.5 13.75V16.25C20.5 16.94 21.06 17.5 21.75 17.5H24.25C24.94 17.5 25.5 16.94 25.5 16.25V13.75C25.5 13.06 24.94 12.5 24.25 12.5H21.75C21.06 12.5 20.5 13.06 20.5 13.75ZM6.75 20C6.06 20 5.5 20.56 5.5 21.25V23.75C5.5 24.44 6.06 25 6.75 25H9.25C9.94 25 10.5 24.44 10.5 23.75V21.25C10.5 20.56 9.94 20 9.25 20H6.75Z" fill="#FC6600"/>
</g>
<defs>
<clipPath id="clip0_2146_22761">
<rect width="35" height="40" fill="white" transform="translate(0.5)"/>
</clipPath>
</defs>
</svg>
