<svg width="40" height="41" viewBox="0 0 40 41" fill="none" xmlns="http://www.w3.org/2000/svg">
<g clip-path="url(#clip0_2146_22614)">
<path d="M5.79363 33.2739L5.79131 33.2809L5.78925 33.288C5.65699 33.7392 5.18426 33.9981 4.73543 33.8666C4.28406 33.7343 4.02521 33.2616 4.15672 32.813L4.15683 32.813L4.15935 32.8035C4.16307 32.7896 4.16795 32.7748 4.17425 32.759L4.17862 32.7481L4.18233 32.737L5.43246 28.987C5.58061 28.5426 6.06214 28.3018 6.50667 28.4499C6.95117 28.5981 7.1919 29.0796 7.04376 29.524L5.79363 33.2739ZM29.546 33.2739L29.5437 33.2809L29.5416 33.288C29.4094 33.7392 28.9366 33.9981 28.4878 33.8666C28.0364 33.7343 27.7776 33.2616 27.9091 32.813L27.9092 32.813L27.9117 32.8035C27.9155 32.7896 27.9203 32.7748 27.9266 32.759L27.931 32.7481L27.9347 32.737L29.1848 28.987C29.333 28.5426 29.8145 28.3018 30.259 28.4499C30.7036 28.5981 30.9443 29.0796 30.7961 29.524L29.546 33.2739ZM10.7941 37.0239L10.7918 37.0309L10.7897 37.038C10.6575 37.4892 10.1848 37.7481 9.73593 37.6166C9.28456 37.4843 9.02571 37.0116 9.15722 36.563L9.15733 36.563L9.15985 36.5535C9.16357 36.5396 9.16845 36.5248 9.17475 36.509L9.17912 36.4981L9.18283 36.487L10.433 32.737C10.5811 32.2926 11.0626 32.0518 11.5072 32.1999C11.9517 32.3481 12.1924 32.8296 12.0443 33.2739L10.7941 37.0239ZM34.5465 37.0239L34.5442 37.0309L34.5421 37.038C34.4099 37.4892 33.9371 37.7481 33.4883 37.6166C33.0369 37.4843 32.7781 37.0116 32.9096 36.563L32.9097 36.563L32.9122 36.5535C32.9159 36.5396 32.9208 36.5248 32.9271 36.509L32.9315 36.4981L32.9352 36.487L34.1853 32.737C34.3335 32.2926 34.815 32.0518 35.2595 32.1999C35.704 32.3481 35.9448 32.8296 35.7966 33.2739L34.5465 37.0239ZM33.1115 10.6503L33.1671 10.9305L33.4502 10.9688C36.9761 11.446 39.6043 14.4564 39.6005 18.014C39.5967 21.935 36.4138 25.1102 32.4921 25.1065H32.4917H8.74054C8.42379 25.1045 8.10884 25.0872 7.79729 25.0511L7.7971 25.0511C3.21382 24.5224 -0.0728492 20.3826 0.455855 15.8003C0.984606 11.2176 5.12674 7.93116 9.7076 8.45981L10.0032 8.49393L10.1209 8.22062C11.6969 4.55961 14.9749 1.90922 18.8841 1.13482L18.8842 1.1348C25.4402 -0.166197 31.8104 4.09498 33.1115 10.6503ZM24.4026 33.5346L19.4026 39.784L19.4021 39.7846C19.1091 40.1488 18.5735 40.2069 18.2069 39.9127C17.9502 39.7063 17.8359 39.3693 17.9146 39.0484C17.9146 39.0482 17.9146 39.0481 17.9147 39.0479L18.7764 35.6015L18.9006 35.1045H18.3883H16.2401C15.7709 35.1045 15.39 34.7235 15.39 34.2545C15.39 34.1238 15.421 33.9926 15.4802 33.8725C15.4803 33.8722 15.4805 33.872 15.4806 33.8717L17.9797 28.874C17.9797 28.8739 17.9798 28.8738 17.9798 28.8737C18.1243 28.5865 18.4183 28.4045 18.7404 28.4045H21.2406C21.7098 28.4045 22.0907 28.7854 22.0907 29.2545C22.0907 29.344 22.0761 29.4338 22.0468 29.5232C22.0468 29.5234 22.0467 29.5236 22.0467 29.5237L21.3471 31.6283L21.1722 32.1545H21.7267H23.7409C24.2094 32.1545 24.5903 32.5365 24.589 33.0053V33.0065C24.589 33.1983 24.5235 33.3851 24.404 33.5328L24.4026 33.5346Z" stroke="#FC6600" stroke-width="0.8"/>
</g>
<defs>
<clipPath id="clip0_2146_22614">
<rect width="40" height="40" fill="white" transform="translate(0 0.5)"/>
</clipPath>
</defs>
</svg>
