<svg width="44" height="41" viewBox="0 0 44 41" fill="none" xmlns="http://www.w3.org/2000/svg">
<path fill-rule="evenodd" clip-rule="evenodd" d="M19.94 18.3281C19.5126 17.0822 19.1298 15.8192 18.8052 14.5392C20.015 13.2255 24.6869 13.3982 26.0301 14.5189L24.786 17.4512C25.4558 16.5809 25.6813 16.2223 26.078 15.738C26.2454 15.8463 26.4026 15.9684 26.5529 16.1038C26.9083 16.4222 27.2227 16.771 27.2878 17.2618C27.3287 17.5801 27.2366 17.9018 26.9529 18.2303L24.099 21.5249C23.7298 21.464 23.3711 21.3793 23.0224 21.2539C23.1829 20.878 23.3778 20.4618 23.5419 20.0822L22.5029 21.1928C21.4196 20.966 20.548 21.1015 19.7379 21.5278L16.8431 18.0844C16.6724 17.8779 16.5938 17.6747 16.5938 17.4682C16.5971 16.6352 17.8481 15.9173 18.5043 15.6467L19.94 18.3281Z" stroke="#FC6600" stroke-opacity="0.8" stroke-width="0.8" stroke-miterlimit="10" stroke-linecap="round" stroke-linejoin="round"/>
<path fill-rule="evenodd" clip-rule="evenodd" d="M42.1329 14.401C42.1085 14.3774 42.085 14.3535 42.0576 14.3336L22.3338 1.13106C22.0878 0.941298 21.7466 0.961885 21.5243 1.16507L1.84991 14.3861C1.84208 14.3914 1.83455 14.3965 1.82732 14.4025C1.79419 14.4305 1.76317 14.4618 1.73547 14.4953C1.1476 15.2236 0.939493 16.002 1.01478 16.6898C1.06568 17.1296 1.23343 17.5324 1.49604 17.8612C1.75926 18.1929 2.11855 18.4466 2.5459 18.5889C3.01662 18.7434 3.56594 18.7628 4.15863 18.5942C4.30379 18.5531 4.44895 18.6587 4.44895 18.8085V34.3645C4.44895 34.7097 4.73294 34.9875 5.07778 34.9875H6.70948V34.9941H11.3808C11.4188 34.4027 11.5191 33.8083 11.6699 33.2176L6.70918 33.2164H6.46554C6.34055 33.2164 6.23966 33.1158 6.23966 32.9926V17.848C6.23966 17.8346 6.23906 17.8203 6.23786 17.8074C6.23304 17.7275 6.2752 17.6517 6.34206 17.6078L21.9333 7.3765C22.0098 7.32667 22.1092 7.32727 22.1851 7.37769L37.4878 17.6126C37.5513 17.655 37.5862 17.7266 37.5862 17.803C37.5862 17.803 37.5862 17.8036 37.5862 17.8042V32.9995C37.5862 33.1233 37.4847 33.2238 37.3598 33.2238L32.2722 33.2226C32.2816 33.2486 32.29 33.2749 32.299 33.3014C32.4544 33.8758 32.5574 34.4436 32.6038 34.9943H38.7481C39.0966 34.9943 39.377 34.7136 39.377 34.3714C39.377 29.2036 39.377 24.0359 39.3806 18.8655C39.3806 18.7115 39.5336 18.6029 39.6799 18.6539C40.3 18.8687 40.899 18.8505 41.4173 18.6638C41.7968 18.5286 42.1287 18.3048 42.3883 18.0136C42.6479 17.726 42.8358 17.3706 42.9319 16.9813C43.124 16.1855 42.9256 15.2472 42.1329 14.401Z" stroke="#FC6600" stroke-opacity="0.8" stroke-width="0.8" stroke-miterlimit="10"/>
<path fill-rule="evenodd" clip-rule="evenodd" d="M32.6078 34.9935C32.5615 34.4427 32.4585 33.8749 32.3031 33.3006C32.294 33.274 32.2859 33.2477 32.2763 33.2218C31.8233 31.8618 31.2728 30.6385 30.6452 29.5286C29.3908 27.3105 25.5121 22.4349 23.0926 21.9879L23.6564 24.5476L22.3541 21.9375H21.3666L19.4937 24.3993L20.7824 22.0187C19.4458 22.4656 18.3285 23.5391 17.2895 24.4435C16.8865 24.7989 16.4998 25.1817 16.1243 25.5946C14.32 27.5773 12.4043 30.356 11.674 33.2176C11.5228 33.8084 11.4228 34.4027 11.3849 34.9941C11.315 36.0652 11.4484 37.1274 11.8526 38.1434C12.9082 40.8078 16.9585 40.8012 19.5765 40.937C22.0132 41.062 26.3295 41.028 28.6436 40.5676C31.7089 39.9574 32.8349 37.6782 32.6078 34.9935ZM25.0143 27.5068H22.6541C23.0691 27.8327 23.3697 28.3002 23.4555 28.9521H25.0143V29.6611H23.469C23.3263 31.107 22.1674 32.0283 20.3363 32.0847C20.6797 32.4377 21.0323 32.8187 21.3907 33.2197C21.8915 33.7794 22.4044 34.3783 22.9206 34.9938C23.2365 35.3709 23.5537 35.7543 23.8702 36.1383H22.4963C22.1719 35.7508 21.8536 35.3715 21.532 34.9938C21.0329 34.4078 20.5261 33.8245 19.978 33.2191C19.665 32.8739 19.3383 32.5209 18.9916 32.1557V31.2773H19.7789C21.3242 31.2773 22.1533 30.6391 22.2535 29.6614H18.9916V28.9524H22.2108C22.0105 28.1304 21.2519 27.7199 20.0075 27.7199H18.9916V26.7985H25.0143V27.5068Z" fill="#FC6600" fill-opacity="0.8"/>
</svg>
