<svg width="41" height="34" viewBox="0 0 41 34" fill="none" xmlns="http://www.w3.org/2000/svg">
<g clip-path="url(#clip0_216_3954)">
<path fill-rule="evenodd" clip-rule="evenodd" d="M29.9391 9.56938C27.1191 10.1694 23.7391 10.5294 20.4791 10.6094C17.2191 10.5394 13.8591 10.1594 11.0391 9.56938C13.8491 8.98938 17.2291 8.68937 20.4891 8.60938C23.7591 8.67938 27.1391 8.98938 29.9391 9.56938Z" fill="#222222" fill-opacity="0.8"/>
<path fill-rule="evenodd" clip-rule="evenodd" d="M10.7577 9.03C13.6577 8.43 17.1377 8.12 20.4977 8.05C23.8577 8.13 27.3277 8.44 30.2377 9.04V9.03C31.5677 2.77 44.8377 0 20.4977 0C-3.19226 0 9.43775 2.77 10.7577 9.01V9.03Z" fill="#222222" fill-opacity="0.8"/>
<path fill-rule="evenodd" clip-rule="evenodd" d="M40.5 33.5703H0.5L0.72 32.6703C3.39 20.9403 9.81 25.6103 15.37 21.7103C15.46 21.6403 15.54 21.5603 15.62 21.4803L15.69 20.0003C15.17 19.5203 14.78 19.0603 14.46 18.5903C13.96 17.8603 13.63 17.0803 13.24 16.0503C13.18 15.8803 13.12 15.7003 13.06 15.5403C12.48 15.5403 11.99 15.0603 11.64 14.3703C11.37 13.8403 11.19 13.1903 11.12 12.5803C11.05 11.9503 11.11 11.3603 11.33 10.9903L11.03 9.57031C13.85 10.1603 17.22 10.5503 20.47 10.6103C23.73 10.5303 27.11 10.1703 29.93 9.57031L29.63 10.9903C29.86 11.3603 29.91 11.9503 29.84 12.5803C29.77 13.1903 29.59 13.8403 29.32 14.3703C28.97 15.0503 28.48 15.5403 27.9 15.5403C27.59 16.4503 27 17.5903 26.34 18.5603C25.99 19.0703 25.63 19.5403 25.28 19.9003L25.35 21.4903C25.43 21.5703 25.52 21.6403 25.6 21.7203C31.16 25.6203 37.58 20.9603 40.25 32.6803L40.5 33.5703Z" stroke="#222222" stroke-opacity="0.8" stroke-width="0.5" stroke-miterlimit="10"/>
<path fill-rule="evenodd" clip-rule="evenodd" d="M23.7888 20.4963C22.6088 21.2863 21.8888 21.7163 20.3688 21.6763C18.8888 21.6563 18.1088 21.1562 16.9188 20.4062C16.8288 25.3562 23.9088 25.6562 23.7888 20.4963Z" stroke="#222222" stroke-opacity="0.8" stroke-width="0.4208" stroke-miterlimit="10"/>
<path fill-rule="evenodd" clip-rule="evenodd" d="M6.77844 29.6719L7.01844 30.2619L7.65844 30.3119L7.16844 30.7219L7.31844 31.3519L6.77844 31.0119L6.22844 31.3519L6.38844 30.7219L5.89844 30.3119L6.53844 30.2619L6.77844 29.6719Z" fill="#222222" fill-opacity="0.8"/>
<path fill-rule="evenodd" clip-rule="evenodd" d="M9.75109 29.6719L9.99109 30.2619L10.6311 30.3119L10.1511 30.7219L10.3011 31.3519L9.75109 31.0119L9.21109 31.3519L9.36109 30.7219L8.87109 30.3119L9.51109 30.2619L9.75109 29.6719Z" fill="#222222" fill-opacity="0.8"/>
</g>
<defs>
<clipPath id="clip0_216_3954">
<rect width="40.64" height="33.82" fill="white" transform="translate(0.179688)"/>
</clipPath>
</defs>
</svg>
