<svg width="30" height="41" viewBox="0 0 30 41" fill="none" xmlns="http://www.w3.org/2000/svg">
<path d="M14.7801 0.902124C18.0814 0.858526 20.8066 1.49372 22.7015 2.10951V2.1129V2.1208V2.1287V2.1366V2.1445V2.15239V2.16029V2.16819V2.17609V2.18399V2.19189V2.19979V2.20768V2.21558V2.22348V2.23138V2.23928V2.24718V2.25507V2.26297V2.27087V2.27877V2.28667V2.29457V2.30247V2.31036V2.31826V2.32616V2.33406V2.34196V2.34986V2.35775V2.36565V2.37355V2.38145V2.38935V2.39725V2.40515V2.41304V2.42094V2.42884V2.43674V2.44464V2.45254V2.46044V2.46833V2.47623V2.48413V2.49203V2.49993V2.50783V2.51572V2.52362V2.53152V2.53942V2.54732V2.55522V2.56312V2.57101V2.57891V2.58681V2.59471V2.60261V2.61051V2.6184V2.6263V2.6342V2.6421V2.65V2.6579V2.6658V2.67369V2.68159V2.68949V2.69739V2.70529V2.71319V2.72108V2.72898V2.73688V2.74478V2.75268V2.76058V2.76848V2.77637V2.78427V2.79217V2.80007V2.80797V2.81587V2.82377V2.83166V2.83956V2.84746V2.85536V2.86326V2.87116V2.87905V2.88695V2.89485V2.90275V2.91065V2.91855V2.92645V2.93434V2.94224V2.95014V2.95804V2.96594V2.97384V2.98173V2.98963V2.99753V3.00543V3.01333V3.02123V3.02913V3.03702V3.04492V3.05282V3.06072V3.06862V3.07652V3.08441V3.09231V3.10021V3.10811V3.11601V3.12391V3.13181V3.1397V3.1476V3.1555V3.1634V3.1713V3.1792V3.18709V3.19499V3.20289V3.21079V3.21869V3.22659V3.23449V3.24238V3.25028V3.25818V3.26608V3.27398V3.28188V3.28977V3.29767V3.30557V3.31347V3.32137V3.32927V3.33717V3.34506V3.35296V3.36086V3.36876V3.37666V3.38456V3.39246V3.40035V3.40825V3.41615V3.42405V3.43195V3.43985V3.44774V3.45564V3.46354V3.47144V3.47934V3.48724V3.49514V3.50303V3.51093V3.51883V3.52673V3.53463V3.54253V3.55042V3.55832V3.56622V3.57412V3.58202V3.58992V3.59782V3.60571V3.61361V3.62151V3.62941V3.63731V3.64521V3.6531V3.661V3.6689V3.6768V3.6847V3.6926V3.7005V3.70839V3.71629V3.72419V3.73209V3.73999V3.74789V3.75578V3.76368V3.77158V3.77948V3.78738V3.79528V3.80318V3.81107V3.81897V3.82687V3.83477V3.84267V3.85057V3.85847V3.86636V3.87426V3.88216V3.89006V3.89796V3.90586V3.91375V3.92165V3.92955V3.93745V3.94535V3.95325V3.96115V3.96904V3.97694V3.98484V3.99274V4.00064V4.00854V4.01643V4.02433V4.03223V4.04013V4.04803V4.05593V4.06383V4.07172V4.07962V4.08752V4.09542V4.10332V4.11122V4.11911V4.12701V4.13491V4.14281V4.15071V4.15861V4.16651V4.1744V4.1823V4.1902V4.1981V4.206V4.2139V4.2218V4.22969V4.23759V4.24549V4.25339V4.26129V4.26919V4.27708V4.28498V4.29288V4.30078V4.30868V4.31658V4.32448V4.33237V4.34027V4.34817V4.35607V4.36397V4.37187V4.37976V4.38766V4.39556V4.40346V4.41136V4.41926V4.42716V4.43505V4.44295V4.45085V4.45875V4.46665V4.47455V4.48244V4.49034V4.49824V4.50614V4.51404V4.52194V4.52984V4.53773V4.54563V4.55353V4.56143V4.56933V4.57723V4.58512V4.59302V4.60092V4.60882V4.61672V4.62462V4.63252V4.64041V4.64831V4.65621V4.66411V4.67201V4.67991V4.68781V4.6957V4.7036V4.7115V4.7194V4.7273V4.7352V4.74309V4.75099V4.75889V4.76679V4.77469V4.78259V4.79049V4.79838V4.80628V4.81418V4.82208V4.82998V4.83788V4.84577V4.85367V4.86157V4.86947V4.87737V4.88527V4.89317V4.90106V4.90896V4.91686V4.92476V4.93266V4.94056V4.94845V4.95635V4.96425V4.97215V4.98005V4.98795V4.99585V5.00374V5.01164V5.01954V5.02744V5.03534V5.04324V5.05114V5.05903V5.06693V5.07483V5.08273V5.09063V5.09853V5.10642V5.11432V5.12222V5.13012V5.13802V5.14592V5.15382V5.16171V5.16961V5.17751V5.18541V5.19331V5.20121V5.2091V5.217V5.2249V5.2328V5.2407V5.2486V5.2565V5.26439V5.27229V5.28019V5.28809V5.29599V5.30389V5.31178V5.31968V5.32758V5.33548V5.34338V5.35128V5.35918V5.36707V5.37497V5.38287V5.39077V5.39867V5.40657V5.41446V5.42236V5.43026V5.43816V5.44606V5.45396V5.46186V5.46468H7.50156V2.10985C9.29487 1.52672 11.7852 0.941831 14.7801 0.902124ZM14.7801 0.902124L14.7748 0.502159L14.7801 0.902124Z" stroke="#FC6600" stroke-width="0.8" stroke-miterlimit="10"/>
<path d="M7.50156 9.85993V6.26426H22.701V9.85993H7.50156Z" stroke="#FC6600" stroke-width="0.8" stroke-miterlimit="10"/>
<path d="M6.48594 13.689C6.48594 12.6116 6.75027 11.587 7.22799 10.661H22.8539C23.3316 11.5865 23.596 12.6114 23.596 13.689C23.596 17.7404 19.8182 21.1127 15.041 21.1127C10.2637 21.1127 6.48594 17.74 6.48594 13.689Z" stroke="#FC6600" stroke-width="0.8" stroke-miterlimit="10"/>
<mask id="path-4-inside-1_2146_21852" fill="white">
<path d="M9.58594 19.8877V21.5114C9.7317 21.7333 11.3639 24.1253 14.4217 24.2365C17.7594 24.3577 19.6165 21.6464 19.7054 21.5114C19.7054 21.1314 19.7054 20.7515 19.7054 20.3715"/>
</mask>
<path d="M9.58594 21.5114H8.78594V21.7506L8.91729 21.9506L9.58594 21.5114ZM14.4217 24.2365L14.3926 25.036L14.3926 25.036L14.4217 24.2365ZM19.7054 21.5114L20.3735 21.9515L20.5054 21.7512V21.5114H19.7054ZM8.78594 19.8877V21.5114H10.3859V19.8877H8.78594ZM8.91729 21.9506C9.08712 22.2091 10.9174 24.9096 14.3926 25.036L14.4507 23.437C11.8104 23.341 10.3763 21.2574 10.2546 21.0721L8.91729 21.9506ZM14.3926 25.036C16.2972 25.1051 17.7729 24.363 18.7665 23.6065C19.7541 22.8546 20.2985 22.0653 20.3735 21.9515L19.0374 21.0712C19.0374 21.0712 19.0301 21.0822 19.0153 21.1031C19.0008 21.1235 18.9798 21.1526 18.9522 21.1889C18.8971 21.2617 18.8165 21.363 18.7112 21.4826C18.4998 21.7228 18.1932 22.032 17.7973 22.3335C17.0057 22.9362 15.884 23.4891 14.4507 23.437L14.3926 25.036ZM20.5054 21.5114C20.5054 21.5106 20.5054 21.5099 20.5054 21.5091C20.5054 21.5084 20.5054 21.5077 20.5054 21.5069C20.5054 21.5062 20.5054 21.5054 20.5054 21.5047C20.5054 21.5039 20.5054 21.5032 20.5054 21.5025C20.5054 21.5017 20.5054 21.501 20.5054 21.5002C20.5054 21.4995 20.5054 21.4988 20.5054 21.498C20.5054 21.4973 20.5054 21.4965 20.5054 21.4958C20.5054 21.495 20.5054 21.4943 20.5054 21.4936C20.5054 21.4928 20.5054 21.4921 20.5054 21.4913C20.5054 21.4906 20.5054 21.4898 20.5054 21.4891C20.5054 21.4884 20.5054 21.4876 20.5054 21.4869C20.5054 21.4861 20.5054 21.4854 20.5054 21.4847C20.5054 21.4839 20.5054 21.4832 20.5054 21.4824C20.5054 21.4817 20.5054 21.4809 20.5054 21.4802C20.5054 21.4795 20.5054 21.4787 20.5054 21.478C20.5054 21.4772 20.5054 21.4765 20.5054 21.4757C20.5054 21.475 20.5054 21.4743 20.5054 21.4735C20.5054 21.4728 20.5054 21.472 20.5054 21.4713C20.5054 21.4706 20.5054 21.4698 20.5054 21.4691C20.5054 21.4683 20.5054 21.4676 20.5054 21.4668C20.5054 21.4661 20.5054 21.4654 20.5054 21.4646C20.5054 21.4639 20.5054 21.4631 20.5054 21.4624C20.5054 21.4616 20.5054 21.4609 20.5054 21.4602C20.5054 21.4594 20.5054 21.4587 20.5054 21.4579C20.5054 21.4572 20.5054 21.4565 20.5054 21.4557C20.5054 21.455 20.5054 21.4542 20.5054 21.4535C20.5054 21.4527 20.5054 21.452 20.5054 21.4513C20.5054 21.4505 20.5054 21.4498 20.5054 21.449C20.5054 21.4483 20.5054 21.4475 20.5054 21.4468C20.5054 21.4461 20.5054 21.4453 20.5054 21.4446C20.5054 21.4438 20.5054 21.4431 20.5054 21.4424C20.5054 21.4416 20.5054 21.4409 20.5054 21.4401C20.5054 21.4394 20.5054 21.4386 20.5054 21.4379C20.5054 21.4372 20.5054 21.4364 20.5054 21.4357C20.5054 21.4349 20.5054 21.4342 20.5054 21.4334C20.5054 21.4327 20.5054 21.432 20.5054 21.4312C20.5054 21.4305 20.5054 21.4297 20.5054 21.429C20.5054 21.4283 20.5054 21.4275 20.5054 21.4268C20.5054 21.426 20.5054 21.4253 20.5054 21.4245C20.5054 21.4238 20.5054 21.4231 20.5054 21.4223C20.5054 21.4216 20.5054 21.4208 20.5054 21.4201C20.5054 21.4193 20.5054 21.4186 20.5054 21.4179C20.5054 21.4171 20.5054 21.4164 20.5054 21.4156C20.5054 21.4149 20.5054 21.4142 20.5054 21.4134C20.5054 21.4127 20.5054 21.4119 20.5054 21.4112C20.5054 21.4104 20.5054 21.4097 20.5054 21.409C20.5054 21.4082 20.5054 21.4075 20.5054 21.4067C20.5054 21.406 20.5054 21.4052 20.5054 21.4045C20.5054 21.4038 20.5054 21.403 20.5054 21.4023C20.5054 21.4015 20.5054 21.4008 20.5054 21.4001C20.5054 21.3993 20.5054 21.3986 20.5054 21.3978C20.5054 21.3971 20.5054 21.3963 20.5054 21.3956C20.5054 21.3949 20.5054 21.3941 20.5054 21.3934C20.5054 21.3926 20.5054 21.3919 20.5054 21.3911C20.5054 21.3904 20.5054 21.3897 20.5054 21.3889C20.5054 21.3882 20.5054 21.3874 20.5054 21.3867C20.5054 21.386 20.5054 21.3852 20.5054 21.3845C20.5054 21.3837 20.5054 21.383 20.5054 21.3822C20.5054 21.3815 20.5054 21.3808 20.5054 21.38C20.5054 21.3793 20.5054 21.3785 20.5054 21.3778C20.5054 21.377 20.5054 21.3763 20.5054 21.3756C20.5054 21.3748 20.5054 21.3741 20.5054 21.3733C20.5054 21.3726 20.5054 21.3719 20.5054 21.3711C20.5054 21.3704 20.5054 21.3696 20.5054 21.3689C20.5054 21.3681 20.5054 21.3674 20.5054 21.3667C20.5054 21.3659 20.5054 21.3652 20.5054 21.3644C20.5054 21.3637 20.5054 21.3629 20.5054 21.3622C20.5054 21.3615 20.5054 21.3607 20.5054 21.36C20.5054 21.3592 20.5054 21.3585 20.5054 21.3578C20.5054 21.357 20.5054 21.3563 20.5054 21.3555C20.5054 21.3548 20.5054 21.354 20.5054 21.3533C20.5054 21.3526 20.5054 21.3518 20.5054 21.3511C20.5054 21.3503 20.5054 21.3496 20.5054 21.3488C20.5054 21.3481 20.5054 21.3474 20.5054 21.3466C20.5054 21.3459 20.5054 21.3451 20.5054 21.3444C20.5054 21.3437 20.5054 21.3429 20.5054 21.3422C20.5054 21.3414 20.5054 21.3407 20.5054 21.3399C20.5054 21.3392 20.5054 21.3385 20.5054 21.3377C20.5054 21.337 20.5054 21.3362 20.5054 21.3355C20.5054 21.3347 20.5054 21.334 20.5054 21.3333C20.5054 21.3325 20.5054 21.3318 20.5054 21.331C20.5054 21.3303 20.5054 21.3296 20.5054 21.3288C20.5054 21.3281 20.5054 21.3273 20.5054 21.3266C20.5054 21.3258 20.5054 21.3251 20.5054 21.3244C20.5054 21.3236 20.5054 21.3229 20.5054 21.3221C20.5054 21.3214 20.5054 21.3207 20.5054 21.3199C20.5054 21.3192 20.5054 21.3184 20.5054 21.3177C20.5054 21.3169 20.5054 21.3162 20.5054 21.3155C20.5054 21.3147 20.5054 21.314 20.5054 21.3132C20.5054 21.3125 20.5054 21.3117 20.5054 21.311C20.5054 21.3103 20.5054 21.3095 20.5054 21.3088C20.5054 21.308 20.5054 21.3073 20.5054 21.3066C20.5054 21.3058 20.5054 21.3051 20.5054 21.3043C20.5054 21.3036 20.5054 21.3028 20.5054 21.3021C20.5054 21.3014 20.5054 21.3006 20.5054 21.2999C20.5054 21.2991 20.5054 21.2984 20.5054 21.2976C20.5054 21.2969 20.5054 21.2962 20.5054 21.2954C20.5054 21.2947 20.5054 21.2939 20.5054 21.2932C20.5054 21.2925 20.5054 21.2917 20.5054 21.291C20.5054 21.2902 20.5054 21.2895 20.5054 21.2887C20.5054 21.288 20.5054 21.2873 20.5054 21.2865C20.5054 21.2858 20.5054 21.285 20.5054 21.2843C20.5054 21.2835 20.5054 21.2828 20.5054 21.2821C20.5054 21.2813 20.5054 21.2806 20.5054 21.2798C20.5054 21.2791 20.5054 21.2784 20.5054 21.2776C20.5054 21.2769 20.5054 21.2761 20.5054 21.2754C20.5054 21.2746 20.5054 21.2739 20.5054 21.2732C20.5054 21.2724 20.5054 21.2717 20.5054 21.2709C20.5054 21.2702 20.5054 21.2694 20.5054 21.2687C20.5054 21.268 20.5054 21.2672 20.5054 21.2665C20.5054 21.2657 20.5054 21.265 20.5054 21.2643C20.5054 21.2635 20.5054 21.2628 20.5054 21.262C20.5054 21.2613 20.5054 21.2605 20.5054 21.2598C20.5054 21.2591 20.5054 21.2583 20.5054 21.2576C20.5054 21.2568 20.5054 21.2561 20.5054 21.2553C20.5054 21.2546 20.5054 21.2539 20.5054 21.2531C20.5054 21.2524 20.5054 21.2516 20.5054 21.2509C20.5054 21.2502 20.5054 21.2494 20.5054 21.2487C20.5054 21.2479 20.5054 21.2472 20.5054 21.2464C20.5054 21.2457 20.5054 21.245 20.5054 21.2442C20.5054 21.2435 20.5054 21.2427 20.5054 21.242C20.5054 21.2412 20.5054 21.2405 20.5054 21.2398C20.5054 21.239 20.5054 21.2383 20.5054 21.2375C20.5054 21.2368 20.5054 21.2361 20.5054 21.2353C20.5054 21.2346 20.5054 21.2338 20.5054 21.2331C20.5054 21.2323 20.5054 21.2316 20.5054 21.2309C20.5054 21.2301 20.5054 21.2294 20.5054 21.2286C20.5054 21.2279 20.5054 21.2271 20.5054 21.2264C20.5054 21.2257 20.5054 21.2249 20.5054 21.2242C20.5054 21.2234 20.5054 21.2227 20.5054 21.222C20.5054 21.2212 20.5054 21.2205 20.5054 21.2197C20.5054 21.219 20.5054 21.2182 20.5054 21.2175C20.5054 21.2168 20.5054 21.216 20.5054 21.2153C20.5054 21.2145 20.5054 21.2138 20.5054 21.213C20.5054 21.2123 20.5054 21.2116 20.5054 21.2108C20.5054 21.2101 20.5054 21.2093 20.5054 21.2086C20.5054 21.2079 20.5054 21.2071 20.5054 21.2064C20.5054 21.2056 20.5054 21.2049 20.5054 21.2041C20.5054 21.2034 20.5054 21.2027 20.5054 21.2019C20.5054 21.2012 20.5054 21.2004 20.5054 21.1997C20.5054 21.1989 20.5054 21.1982 20.5054 21.1975C20.5054 21.1967 20.5054 21.196 20.5054 21.1952C20.5054 21.1945 20.5054 21.1938 20.5054 21.193C20.5054 21.1923 20.5054 21.1915 20.5054 21.1908C20.5054 21.19 20.5054 21.1893 20.5054 21.1886C20.5054 21.1878 20.5054 21.1871 20.5054 21.1863C20.5054 21.1856 20.5054 21.1848 20.5054 21.1841C20.5054 21.1834 20.5054 21.1826 20.5054 21.1819C20.5054 21.1811 20.5054 21.1804 20.5054 21.1797C20.5054 21.1789 20.5054 21.1782 20.5054 21.1774C20.5054 21.1767 20.5054 21.1759 20.5054 21.1752C20.5054 21.1745 20.5054 21.1737 20.5054 21.173C20.5054 21.1722 20.5054 21.1715 20.5054 21.1707C20.5054 21.17 20.5054 21.1693 20.5054 21.1685C20.5054 21.1678 20.5054 21.167 20.5054 21.1663C20.5054 21.1656 20.5054 21.1648 20.5054 21.1641C20.5054 21.1633 20.5054 21.1626 20.5054 21.1618C20.5054 21.1611 20.5054 21.1604 20.5054 21.1596C20.5054 21.1589 20.5054 21.1581 20.5054 21.1574C20.5054 21.1566 20.5054 21.1559 20.5054 21.1552C20.5054 21.1544 20.5054 21.1537 20.5054 21.1529C20.5054 21.1522 20.5054 21.1515 20.5054 21.1507C20.5054 21.15 20.5054 21.1492 20.5054 21.1485C20.5054 21.1477 20.5054 21.147 20.5054 21.1463C20.5054 21.1455 20.5054 21.1448 20.5054 21.144C20.5054 21.1433 20.5054 21.1425 20.5054 21.1418C20.5054 21.1411 20.5054 21.1403 20.5054 21.1396C20.5054 21.1388 20.5054 21.1381 20.5054 21.1374C20.5054 21.1366 20.5054 21.1359 20.5054 21.1351C20.5054 21.1344 20.5054 21.1336 20.5054 21.1329C20.5054 21.1322 20.5054 21.1314 20.5054 21.1307C20.5054 21.1299 20.5054 21.1292 20.5054 21.1285C20.5054 21.1277 20.5054 21.127 20.5054 21.1262C20.5054 21.1255 20.5054 21.1247 20.5054 21.124C20.5054 21.1233 20.5054 21.1225 20.5054 21.1218C20.5054 21.121 20.5054 21.1203 20.5054 21.1195C20.5054 21.1188 20.5054 21.1181 20.5054 21.1173C20.5054 21.1166 20.5054 21.1158 20.5054 21.1151C20.5054 21.1144 20.5054 21.1136 20.5054 21.1129C20.5054 21.1121 20.5054 21.1114 20.5054 21.1106C20.5054 21.1099 20.5054 21.1092 20.5054 21.1084C20.5054 21.1077 20.5054 21.1069 20.5054 21.1062C20.5054 21.1054 20.5054 21.1047 20.5054 21.104C20.5054 21.1032 20.5054 21.1025 20.5054 21.1017C20.5054 21.101 20.5054 21.1003 20.5054 21.0995C20.5054 21.0988 20.5054 21.098 20.5054 21.0973C20.5054 21.0965 20.5054 21.0958 20.5054 21.0951C20.5054 21.0943 20.5054 21.0936 20.5054 21.0928C20.5054 21.0921 20.5054 21.0913 20.5054 21.0906C20.5054 21.0899 20.5054 21.0891 20.5054 21.0884C20.5054 21.0876 20.5054 21.0869 20.5054 21.0862C20.5054 21.0854 20.5054 21.0847 20.5054 21.0839C20.5054 21.0832 20.5054 21.0824 20.5054 21.0817C20.5054 21.081 20.5054 21.0802 20.5054 21.0795C20.5054 21.0787 20.5054 21.078 20.5054 21.0772C20.5054 21.0765 20.5054 21.0758 20.5054 21.075C20.5054 21.0743 20.5054 21.0735 20.5054 21.0728C20.5054 21.0721 20.5054 21.0713 20.5054 21.0706C20.5054 21.0698 20.5054 21.0691 20.5054 21.0683C20.5054 21.0676 20.5054 21.0669 20.5054 21.0661C20.5054 21.0654 20.5054 21.0646 20.5054 21.0639C20.5054 21.0631 20.5054 21.0624 20.5054 21.0617C20.5054 21.0609 20.5054 21.0602 20.5054 21.0594C20.5054 21.0587 20.5054 21.058 20.5054 21.0572C20.5054 21.0565 20.5054 21.0557 20.5054 21.055C20.5054 21.0542 20.5054 21.0535 20.5054 21.0528C20.5054 21.052 20.5054 21.0513 20.5054 21.0505C20.5054 21.0498 20.5054 21.049 20.5054 21.0483C20.5054 21.0476 20.5054 21.0468 20.5054 21.0461C20.5054 21.0453 20.5054 21.0446 20.5054 21.0439C20.5054 21.0431 20.5054 21.0424 20.5054 21.0416C20.5054 21.0409 20.5054 21.0401 20.5054 21.0394C20.5054 21.0387 20.5054 21.0379 20.5054 21.0372C20.5054 21.0364 20.5054 21.0357 20.5054 21.0349C20.5054 21.0342 20.5054 21.0335 20.5054 21.0327C20.5054 21.032 20.5054 21.0312 20.5054 21.0305C20.5054 21.0298 20.5054 21.029 20.5054 21.0283C20.5054 21.0275 20.5054 21.0268 20.5054 21.026C20.5054 21.0253 20.5054 21.0246 20.5054 21.0238C20.5054 21.0231 20.5054 21.0223 20.5054 21.0216C20.5054 21.0208 20.5054 21.0201 20.5054 21.0194C20.5054 21.0186 20.5054 21.0179 20.5054 21.0171C20.5054 21.0164 20.5054 21.0157 20.5054 21.0149C20.5054 21.0142 20.5054 21.0134 20.5054 21.0127C20.5054 21.0119 20.5054 21.0112 20.5054 21.0105C20.5054 21.0097 20.5054 21.009 20.5054 21.0082C20.5054 21.0075 20.5054 21.0067 20.5054 21.006C20.5054 21.0053 20.5054 21.0045 20.5054 21.0038C20.5054 21.003 20.5054 21.0023 20.5054 21.0016C20.5054 21.0008 20.5054 21.0001 20.5054 20.9993C20.5054 20.9986 20.5054 20.9978 20.5054 20.9971C20.5054 20.9964 20.5054 20.9956 20.5054 20.9949C20.5054 20.9941 20.5054 20.9934 20.5054 20.9926C20.5054 20.9919 20.5054 20.9912 20.5054 20.9904C20.5054 20.9897 20.5054 20.9889 20.5054 20.9882C20.5054 20.9875 20.5054 20.9867 20.5054 20.986C20.5054 20.9852 20.5054 20.9845 20.5054 20.9837C20.5054 20.983 20.5054 20.9823 20.5054 20.9815C20.5054 20.9808 20.5054 20.98 20.5054 20.9793C20.5054 20.9785 20.5054 20.9778 20.5054 20.9771C20.5054 20.9763 20.5054 20.9756 20.5054 20.9748C20.5054 20.9741 20.5054 20.9734 20.5054 20.9726C20.5054 20.9719 20.5054 20.9711 20.5054 20.9704C20.5054 20.9696 20.5054 20.9689 20.5054 20.9682C20.5054 20.9674 20.5054 20.9667 20.5054 20.9659C20.5054 20.9652 20.5054 20.9644 20.5054 20.9637C20.5054 20.963 20.5054 20.9622 20.5054 20.9615C20.5054 20.9607 20.5054 20.96 20.5054 20.9593C20.5054 20.9585 20.5054 20.9578 20.5054 20.957C20.5054 20.9563 20.5054 20.9555 20.5054 20.9548C20.5054 20.9541 20.5054 20.9533 20.5054 20.9526C20.5054 20.9518 20.5054 20.9511 20.5054 20.9503C20.5054 20.9496 20.5054 20.9489 20.5054 20.9481C20.5054 20.9474 20.5054 20.9466 20.5054 20.9459C20.5054 20.9452 20.5054 20.9444 20.5054 20.9437C20.5054 20.9429 20.5054 20.9422 20.5054 20.9414C20.5054 20.9407 20.5054 20.94 20.5054 20.9392C20.5054 20.9385 20.5054 20.9377 20.5054 20.937C20.5054 20.9362 20.5054 20.9355 20.5054 20.9348C20.5054 20.934 20.5054 20.9333 20.5054 20.9325C20.5054 20.9318 20.5054 20.9311 20.5054 20.9303C20.5054 20.9296 20.5054 20.9288 20.5054 20.9281C20.5054 20.9273 20.5054 20.9266 20.5054 20.9259C20.5054 20.9251 20.5054 20.9244 20.5054 20.9236C20.5054 20.9229 20.5054 20.9222 20.5054 20.9214C20.5054 20.9207 20.5054 20.9199 20.5054 20.9192C20.5054 20.9184 20.5054 20.9177 20.5054 20.917C20.5054 20.9162 20.5054 20.9155 20.5054 20.9147C20.5054 20.914 20.5054 20.9132 20.5054 20.9125C20.5054 20.9118 20.5054 20.911 20.5054 20.9103C20.5054 20.9095 20.5054 20.9088 20.5054 20.9081C20.5054 20.9073 20.5054 20.9066 20.5054 20.9058C20.5054 20.9051 20.5054 20.9043 20.5054 20.9036C20.5054 20.9029 20.5054 20.9021 20.5054 20.9014C20.5054 20.9006 20.5054 20.8999 20.5054 20.8991C20.5054 20.8984 20.5054 20.8977 20.5054 20.8969C20.5054 20.8962 20.5054 20.8954 20.5054 20.8947C20.5054 20.894 20.5054 20.8932 20.5054 20.8925C20.5054 20.8917 20.5054 20.891 20.5054 20.8902C20.5054 20.8895 20.5054 20.8888 20.5054 20.888C20.5054 20.8873 20.5054 20.8865 20.5054 20.8858C20.5054 20.885 20.5054 20.8843 20.5054 20.8836C20.5054 20.8828 20.5054 20.8821 20.5054 20.8813C20.5054 20.8806 20.5054 20.8799 20.5054 20.8791C20.5054 20.8784 20.5054 20.8776 20.5054 20.8769C20.5054 20.8761 20.5054 20.8754 20.5054 20.8747C20.5054 20.8739 20.5054 20.8732 20.5054 20.8724C20.5054 20.8717 20.5054 20.8709 20.5054 20.8702C20.5054 20.8695 20.5054 20.8687 20.5054 20.868C20.5054 20.8672 20.5054 20.8665 20.5054 20.8658C20.5054 20.865 20.5054 20.8643 20.5054 20.8635C20.5054 20.8628 20.5054 20.862 20.5054 20.8613C20.5054 20.8606 20.5054 20.8598 20.5054 20.8591C20.5054 20.8583 20.5054 20.8576 20.5054 20.8568C20.5054 20.8561 20.5054 20.8554 20.5054 20.8546C20.5054 20.8539 20.5054 20.8531 20.5054 20.8524C20.5054 20.8517 20.5054 20.8509 20.5054 20.8502C20.5054 20.8494 20.5054 20.8487 20.5054 20.8479C20.5054 20.8472 20.5054 20.8465 20.5054 20.8457C20.5054 20.845 20.5054 20.8442 20.5054 20.8435C20.5054 20.8427 20.5054 20.842 20.5054 20.8413C20.5054 20.8405 20.5054 20.8398 20.5054 20.839C20.5054 20.8383 20.5054 20.8376 20.5054 20.8368C20.5054 20.8361 20.5054 20.8353 20.5054 20.8346C20.5054 20.8338 20.5054 20.8331 20.5054 20.8324C20.5054 20.8316 20.5054 20.8309 20.5054 20.8301C20.5054 20.8294 20.5054 20.8286 20.5054 20.8279C20.5054 20.8272 20.5054 20.8264 20.5054 20.8257C20.5054 20.8249 20.5054 20.8242 20.5054 20.8235C20.5054 20.8227 20.5054 20.822 20.5054 20.8212C20.5054 20.8205 20.5054 20.8197 20.5054 20.819C20.5054 20.8183 20.5054 20.8175 20.5054 20.8168C20.5054 20.816 20.5054 20.8153 20.5054 20.8145C20.5054 20.8138 20.5054 20.8131 20.5054 20.8123C20.5054 20.8116 20.5054 20.8108 20.5054 20.8101C20.5054 20.8094 20.5054 20.8086 20.5054 20.8079C20.5054 20.8071 20.5054 20.8064 20.5054 20.8056C20.5054 20.8049 20.5054 20.8042 20.5054 20.8034C20.5054 20.8027 20.5054 20.8019 20.5054 20.8012C20.5054 20.8004 20.5054 20.7997 20.5054 20.799C20.5054 20.7982 20.5054 20.7975 20.5054 20.7967C20.5054 20.796 20.5054 20.7953 20.5054 20.7945C20.5054 20.7938 20.5054 20.793 20.5054 20.7923C20.5054 20.7915 20.5054 20.7908 20.5054 20.7901C20.5054 20.7893 20.5054 20.7886 20.5054 20.7878C20.5054 20.7871 20.5054 20.7863 20.5054 20.7856C20.5054 20.7849 20.5054 20.7841 20.5054 20.7834C20.5054 20.7826 20.5054 20.7819 20.5054 20.7812C20.5054 20.7804 20.5054 20.7797 20.5054 20.7789C20.5054 20.7782 20.5054 20.7774 20.5054 20.7767C20.5054 20.776 20.5054 20.7752 20.5054 20.7745C20.5054 20.7737 20.5054 20.773 20.5054 20.7722C20.5054 20.7715 20.5054 20.7708 20.5054 20.77C20.5054 20.7693 20.5054 20.7685 20.5054 20.7678C20.5054 20.7671 20.5054 20.7663 20.5054 20.7656C20.5054 20.7648 20.5054 20.7641 20.5054 20.7633C20.5054 20.7626 20.5054 20.7619 20.5054 20.7611C20.5054 20.7604 20.5054 20.7596 20.5054 20.7589C20.5054 20.7581 20.5054 20.7574 20.5054 20.7567C20.5054 20.7559 20.5054 20.7552 20.5054 20.7544C20.5054 20.7537 20.5054 20.753 20.5054 20.7522C20.5054 20.7515 20.5054 20.7507 20.5054 20.75C20.5054 20.7492 20.5054 20.7485 20.5054 20.7478C20.5054 20.747 20.5054 20.7463 20.5054 20.7455C20.5054 20.7448 20.5054 20.744 20.5054 20.7433C20.5054 20.7426 20.5054 20.7418 20.5054 20.7411C20.5054 20.7403 20.5054 20.7396 20.5054 20.7389C20.5054 20.7381 20.5054 20.7374 20.5054 20.7366C20.5054 20.7359 20.5054 20.7351 20.5054 20.7344C20.5054 20.7337 20.5054 20.7329 20.5054 20.7322C20.5054 20.7314 20.5054 20.7307 20.5054 20.7299C20.5054 20.7292 20.5054 20.7285 20.5054 20.7277C20.5054 20.727 20.5054 20.7262 20.5054 20.7255C20.5054 20.7248 20.5054 20.724 20.5054 20.7233C20.5054 20.7225 20.5054 20.7218 20.5054 20.721C20.5054 20.7203 20.5054 20.7196 20.5054 20.7188C20.5054 20.7181 20.5054 20.7173 20.5054 20.7166C20.5054 20.7159 20.5054 20.7151 20.5054 20.7144C20.5054 20.7136 20.5054 20.7129 20.5054 20.7121C20.5054 20.7114 20.5054 20.7107 20.5054 20.7099C20.5054 20.7092 20.5054 20.7084 20.5054 20.7077C20.5054 20.7069 20.5054 20.7062 20.5054 20.7055C20.5054 20.7047 20.5054 20.704 20.5054 20.7032C20.5054 20.7025 20.5054 20.7018 20.5054 20.701C20.5054 20.7003 20.5054 20.6995 20.5054 20.6988C20.5054 20.698 20.5054 20.6973 20.5054 20.6966C20.5054 20.6958 20.5054 20.6951 20.5054 20.6943C20.5054 20.6936 20.5054 20.6928 20.5054 20.6921C20.5054 20.6914 20.5054 20.6906 20.5054 20.6899C20.5054 20.6891 20.5054 20.6884 20.5054 20.6877C20.5054 20.6869 20.5054 20.6862 20.5054 20.6854C20.5054 20.6847 20.5054 20.6839 20.5054 20.6832C20.5054 20.6825 20.5054 20.6817 20.5054 20.681C20.5054 20.6802 20.5054 20.6795 20.5054 20.6787C20.5054 20.678 20.5054 20.6773 20.5054 20.6765C20.5054 20.6758 20.5054 20.675 20.5054 20.6743C20.5054 20.6736 20.5054 20.6728 20.5054 20.6721C20.5054 20.6713 20.5054 20.6706 20.5054 20.6698C20.5054 20.6691 20.5054 20.6684 20.5054 20.6676C20.5054 20.6669 20.5054 20.6661 20.5054 20.6654C20.5054 20.6646 20.5054 20.6639 20.5054 20.6632C20.5054 20.6624 20.5054 20.6617 20.5054 20.6609C20.5054 20.6602 20.5054 20.6595 20.5054 20.6587C20.5054 20.658 20.5054 20.6572 20.5054 20.6565C20.5054 20.6557 20.5054 20.655 20.5054 20.6543C20.5054 20.6535 20.5054 20.6528 20.5054 20.652C20.5054 20.6513 20.5054 20.6505 20.5054 20.6498C20.5054 20.6491 20.5054 20.6483 20.5054 20.6476C20.5054 20.6468 20.5054 20.6461 20.5054 20.6454C20.5054 20.6446 20.5054 20.6439 20.5054 20.6431C20.5054 20.6424 20.5054 20.6416 20.5054 20.6409C20.5054 20.6402 20.5054 20.6394 20.5054 20.6387C20.5054 20.6379 20.5054 20.6372 20.5054 20.6364C20.5054 20.6357 20.5054 20.635 20.5054 20.6342C20.5054 20.6335 20.5054 20.6327 20.5054 20.632C20.5054 20.6313 20.5054 20.6305 20.5054 20.6298C20.5054 20.629 20.5054 20.6283 20.5054 20.6275C20.5054 20.6268 20.5054 20.6261 20.5054 20.6253C20.5054 20.6246 20.5054 20.6238 20.5054 20.6231C20.5054 20.6223 20.5054 20.6216 20.5054 20.6209C20.5054 20.6201 20.5054 20.6194 20.5054 20.6186C20.5054 20.6179 20.5054 20.6172 20.5054 20.6164C20.5054 20.6157 20.5054 20.6149 20.5054 20.6142C20.5054 20.6134 20.5054 20.6127 20.5054 20.612C20.5054 20.6112 20.5054 20.6105 20.5054 20.6097C20.5054 20.609 20.5054 20.6082 20.5054 20.6075C20.5054 20.6068 20.5054 20.606 20.5054 20.6053C20.5054 20.6045 20.5054 20.6038 20.5054 20.6031C20.5054 20.6023 20.5054 20.6016 20.5054 20.6008C20.5054 20.6001 20.5054 20.5993 20.5054 20.5986C20.5054 20.5979 20.5054 20.5971 20.5054 20.5964C20.5054 20.5956 20.5054 20.5949 20.5054 20.5941C20.5054 20.5934 20.5054 20.5927 20.5054 20.5919C20.5054 20.5912 20.5054 20.5904 20.5054 20.5897C20.5054 20.589 20.5054 20.5882 20.5054 20.5875C20.5054 20.5867 20.5054 20.586 20.5054 20.5852C20.5054 20.5845 20.5054 20.5838 20.5054 20.583C20.5054 20.5823 20.5054 20.5815 20.5054 20.5808C20.5054 20.58 20.5054 20.5793 20.5054 20.5786C20.5054 20.5778 20.5054 20.5771 20.5054 20.5763C20.5054 20.5756 20.5054 20.5749 20.5054 20.5741C20.5054 20.5734 20.5054 20.5726 20.5054 20.5719C20.5054 20.5711 20.5054 20.5704 20.5054 20.5697C20.5054 20.5689 20.5054 20.5682 20.5054 20.5674C20.5054 20.5667 20.5054 20.5659 20.5054 20.5652C20.5054 20.5645 20.5054 20.5637 20.5054 20.563C20.5054 20.5622 20.5054 20.5615 20.5054 20.5608C20.5054 20.56 20.5054 20.5593 20.5054 20.5585C20.5054 20.5578 20.5054 20.557 20.5054 20.5563C20.5054 20.5556 20.5054 20.5548 20.5054 20.5541C20.5054 20.5533 20.5054 20.5526 20.5054 20.5518C20.5054 20.5511 20.5054 20.5504 20.5054 20.5496C20.5054 20.5489 20.5054 20.5481 20.5054 20.5474C20.5054 20.5467 20.5054 20.5459 20.5054 20.5452C20.5054 20.5444 20.5054 20.5437 20.5054 20.5429C20.5054 20.5422 20.5054 20.5415 20.5054 20.5407C20.5054 20.54 20.5054 20.5392 20.5054 20.5385C20.5054 20.5377 20.5054 20.537 20.5054 20.5363C20.5054 20.5355 20.5054 20.5348 20.5054 20.534C20.5054 20.5333 20.5054 20.5326 20.5054 20.5318C20.5054 20.5311 20.5054 20.5303 20.5054 20.5296C20.5054 20.5288 20.5054 20.5281 20.5054 20.5274C20.5054 20.5266 20.5054 20.5259 20.5054 20.5251C20.5054 20.5244 20.5054 20.5237 20.5054 20.5229C20.5054 20.5222 20.5054 20.5214 20.5054 20.5207C20.5054 20.5199 20.5054 20.5192 20.5054 20.5185C20.5054 20.5177 20.5054 20.517 20.5054 20.5162C20.5054 20.5155 20.5054 20.5147 20.5054 20.514C20.5054 20.5133 20.5054 20.5125 20.5054 20.5118C20.5054 20.511 20.5054 20.5103 20.5054 20.5096C20.5054 20.5088 20.5054 20.5081 20.5054 20.5073C20.5054 20.5066 20.5054 20.5058 20.5054 20.5051C20.5054 20.5044 20.5054 20.5036 20.5054 20.5029C20.5054 20.5021 20.5054 20.5014 20.5054 20.5006C20.5054 20.4999 20.5054 20.4992 20.5054 20.4984C20.5054 20.4977 20.5054 20.4969 20.5054 20.4962C20.5054 20.4955 20.5054 20.4947 20.5054 20.494C20.5054 20.4932 20.5054 20.4925 20.5054 20.4917C20.5054 20.491 20.5054 20.4903 20.5054 20.4895C20.5054 20.4888 20.5054 20.488 20.5054 20.4873C20.5054 20.4865 20.5054 20.4858 20.5054 20.4851C20.5054 20.4843 20.5054 20.4836 20.5054 20.4828C20.5054 20.4821 20.5054 20.4814 20.5054 20.4806C20.5054 20.4799 20.5054 20.4791 20.5054 20.4784C20.5054 20.4776 20.5054 20.4769 20.5054 20.4762C20.5054 20.4754 20.5054 20.4747 20.5054 20.4739C20.5054 20.4732 20.5054 20.4724 20.5054 20.4717C20.5054 20.471 20.5054 20.4702 20.5054 20.4695C20.5054 20.4687 20.5054 20.468 20.5054 20.4673C20.5054 20.4665 20.5054 20.4658 20.5054 20.465C20.5054 20.4643 20.5054 20.4635 20.5054 20.4628C20.5054 20.4621 20.5054 20.4613 20.5054 20.4606C20.5054 20.4598 20.5054 20.4591 20.5054 20.4583C20.5054 20.4576 20.5054 20.4569 20.5054 20.4561C20.5054 20.4554 20.5054 20.4546 20.5054 20.4539C20.5054 20.4532 20.5054 20.4524 20.5054 20.4517C20.5054 20.4509 20.5054 20.4502 20.5054 20.4494C20.5054 20.4487 20.5054 20.448 20.5054 20.4472C20.5054 20.4465 20.5054 20.4457 20.5054 20.445C20.5054 20.4442 20.5054 20.4435 20.5054 20.4428C20.5054 20.442 20.5054 20.4413 20.5054 20.4405C20.5054 20.4398 20.5054 20.4391 20.5054 20.4383C20.5054 20.4376 20.5054 20.4368 20.5054 20.4361C20.5054 20.4353 20.5054 20.4346 20.5054 20.4339C20.5054 20.4331 20.5054 20.4324 20.5054 20.4316C20.5054 20.4309 20.5054 20.4301 20.5054 20.4294C20.5054 20.4287 20.5054 20.4279 20.5054 20.4272C20.5054 20.4264 20.5054 20.4257 20.5054 20.425C20.5054 20.4242 20.5054 20.4235 20.5054 20.4227C20.5054 20.422 20.5054 20.4212 20.5054 20.4205C20.5054 20.4198 20.5054 20.419 20.5054 20.4183C20.5054 20.4175 20.5054 20.4168 20.5054 20.416C20.5054 20.4153 20.5054 20.4146 20.5054 20.4138C20.5054 20.4131 20.5054 20.4123 20.5054 20.4116C20.5054 20.4109 20.5054 20.4101 20.5054 20.4094C20.5054 20.4086 20.5054 20.4079 20.5054 20.4071C20.5054 20.4064 20.5054 20.4057 20.5054 20.4049C20.5054 20.4042 20.5054 20.4034 20.5054 20.4027C20.5054 20.4019 20.5054 20.4012 20.5054 20.4005C20.5054 20.3997 20.5054 20.399 20.5054 20.3982C20.5054 20.3975 20.5054 20.3968 20.5054 20.396C20.5054 20.3953 20.5054 20.3945 20.5054 20.3938C20.5054 20.393 20.5054 20.3923 20.5054 20.3916C20.5054 20.3908 20.5054 20.3901 20.5054 20.3893C20.5054 20.3886 20.5054 20.3878 20.5054 20.3871C20.5054 20.3864 20.5054 20.3856 20.5054 20.3849C20.5054 20.3841 20.5054 20.3834 20.5054 20.3827C20.5054 20.3819 20.5054 20.3812 20.5054 20.3804C20.5054 20.3797 20.5054 20.3789 20.5054 20.3782C20.5054 20.3775 20.5054 20.3767 20.5054 20.376C20.5054 20.3752 20.5054 20.3745 20.5054 20.3737C20.5054 20.373 20.5054 20.3723 20.5054 20.3715H18.9054C18.9054 20.3723 18.9054 20.373 18.9054 20.3737C18.9054 20.3745 18.9054 20.3752 18.9054 20.376C18.9054 20.3767 18.9054 20.3775 18.9054 20.3782C18.9054 20.3789 18.9054 20.3797 18.9054 20.3804C18.9054 20.3812 18.9054 20.3819 18.9054 20.3827C18.9054 20.3834 18.9054 20.3841 18.9054 20.3849C18.9054 20.3856 18.9054 20.3864 18.9054 20.3871C18.9054 20.3878 18.9054 20.3886 18.9054 20.3893C18.9054 20.3901 18.9054 20.3908 18.9054 20.3916C18.9054 20.3923 18.9054 20.393 18.9054 20.3938C18.9054 20.3945 18.9054 20.3953 18.9054 20.396C18.9054 20.3968 18.9054 20.3975 18.9054 20.3982C18.9054 20.399 18.9054 20.3997 18.9054 20.4005C18.9054 20.4012 18.9054 20.4019 18.9054 20.4027C18.9054 20.4034 18.9054 20.4042 18.9054 20.4049C18.9054 20.4057 18.9054 20.4064 18.9054 20.4071C18.9054 20.4079 18.9054 20.4086 18.9054 20.4094C18.9054 20.4101 18.9054 20.4109 18.9054 20.4116C18.9054 20.4123 18.9054 20.4131 18.9054 20.4138C18.9054 20.4146 18.9054 20.4153 18.9054 20.416C18.9054 20.4168 18.9054 20.4175 18.9054 20.4183C18.9054 20.419 18.9054 20.4198 18.9054 20.4205C18.9054 20.4212 18.9054 20.422 18.9054 20.4227C18.9054 20.4235 18.9054 20.4242 18.9054 20.425C18.9054 20.4257 18.9054 20.4264 18.9054 20.4272C18.9054 20.4279 18.9054 20.4287 18.9054 20.4294C18.9054 20.4301 18.9054 20.4309 18.9054 20.4316C18.9054 20.4324 18.9054 20.4331 18.9054 20.4339C18.9054 20.4346 18.9054 20.4353 18.9054 20.4361C18.9054 20.4368 18.9054 20.4376 18.9054 20.4383C18.9054 20.4391 18.9054 20.4398 18.9054 20.4405C18.9054 20.4413 18.9054 20.442 18.9054 20.4428C18.9054 20.4435 18.9054 20.4442 18.9054 20.445C18.9054 20.4457 18.9054 20.4465 18.9054 20.4472C18.9054 20.448 18.9054 20.4487 18.9054 20.4494C18.9054 20.4502 18.9054 20.4509 18.9054 20.4517C18.9054 20.4524 18.9054 20.4532 18.9054 20.4539C18.9054 20.4546 18.9054 20.4554 18.9054 20.4561C18.9054 20.4569 18.9054 20.4576 18.9054 20.4583C18.9054 20.4591 18.9054 20.4598 18.9054 20.4606C18.9054 20.4613 18.9054 20.4621 18.9054 20.4628C18.9054 20.4635 18.9054 20.4643 18.9054 20.465C18.9054 20.4658 18.9054 20.4665 18.9054 20.4673C18.9054 20.468 18.9054 20.4687 18.9054 20.4695C18.9054 20.4702 18.9054 20.471 18.9054 20.4717C18.9054 20.4724 18.9054 20.4732 18.9054 20.4739C18.9054 20.4747 18.9054 20.4754 18.9054 20.4762C18.9054 20.4769 18.9054 20.4776 18.9054 20.4784C18.9054 20.4791 18.9054 20.4799 18.9054 20.4806C18.9054 20.4814 18.9054 20.4821 18.9054 20.4828C18.9054 20.4836 18.9054 20.4843 18.9054 20.4851C18.9054 20.4858 18.9054 20.4865 18.9054 20.4873C18.9054 20.488 18.9054 20.4888 18.9054 20.4895C18.9054 20.4903 18.9054 20.491 18.9054 20.4917C18.9054 20.4925 18.9054 20.4932 18.9054 20.494C18.9054 20.4947 18.9054 20.4955 18.9054 20.4962C18.9054 20.4969 18.9054 20.4977 18.9054 20.4984C18.9054 20.4992 18.9054 20.4999 18.9054 20.5006C18.9054 20.5014 18.9054 20.5021 18.9054 20.5029C18.9054 20.5036 18.9054 20.5044 18.9054 20.5051C18.9054 20.5058 18.9054 20.5066 18.9054 20.5073C18.9054 20.5081 18.9054 20.5088 18.9054 20.5096C18.9054 20.5103 18.9054 20.511 18.9054 20.5118C18.9054 20.5125 18.9054 20.5133 18.9054 20.514C18.9054 20.5147 18.9054 20.5155 18.9054 20.5162C18.9054 20.517 18.9054 20.5177 18.9054 20.5185C18.9054 20.5192 18.9054 20.5199 18.9054 20.5207C18.9054 20.5214 18.9054 20.5222 18.9054 20.5229C18.9054 20.5237 18.9054 20.5244 18.9054 20.5251C18.9054 20.5259 18.9054 20.5266 18.9054 20.5274C18.9054 20.5281 18.9054 20.5288 18.9054 20.5296C18.9054 20.5303 18.9054 20.5311 18.9054 20.5318C18.9054 20.5326 18.9054 20.5333 18.9054 20.534C18.9054 20.5348 18.9054 20.5355 18.9054 20.5363C18.9054 20.537 18.9054 20.5377 18.9054 20.5385C18.9054 20.5392 18.9054 20.54 18.9054 20.5407C18.9054 20.5415 18.9054 20.5422 18.9054 20.5429C18.9054 20.5437 18.9054 20.5444 18.9054 20.5452C18.9054 20.5459 18.9054 20.5467 18.9054 20.5474C18.9054 20.5481 18.9054 20.5489 18.9054 20.5496C18.9054 20.5504 18.9054 20.5511 18.9054 20.5518C18.9054 20.5526 18.9054 20.5533 18.9054 20.5541C18.9054 20.5548 18.9054 20.5556 18.9054 20.5563C18.9054 20.557 18.9054 20.5578 18.9054 20.5585C18.9054 20.5593 18.9054 20.56 18.9054 20.5608C18.9054 20.5615 18.9054 20.5622 18.9054 20.563C18.9054 20.5637 18.9054 20.5645 18.9054 20.5652C18.9054 20.5659 18.9054 20.5667 18.9054 20.5674C18.9054 20.5682 18.9054 20.5689 18.9054 20.5697C18.9054 20.5704 18.9054 20.5711 18.9054 20.5719C18.9054 20.5726 18.9054 20.5734 18.9054 20.5741C18.9054 20.5749 18.9054 20.5756 18.9054 20.5763C18.9054 20.5771 18.9054 20.5778 18.9054 20.5786C18.9054 20.5793 18.9054 20.58 18.9054 20.5808C18.9054 20.5815 18.9054 20.5823 18.9054 20.583C18.9054 20.5838 18.9054 20.5845 18.9054 20.5852C18.9054 20.586 18.9054 20.5867 18.9054 20.5875C18.9054 20.5882 18.9054 20.589 18.9054 20.5897C18.9054 20.5904 18.9054 20.5912 18.9054 20.5919C18.9054 20.5927 18.9054 20.5934 18.9054 20.5941C18.9054 20.5949 18.9054 20.5956 18.9054 20.5964C18.9054 20.5971 18.9054 20.5979 18.9054 20.5986C18.9054 20.5993 18.9054 20.6001 18.9054 20.6008C18.9054 20.6016 18.9054 20.6023 18.9054 20.6031C18.9054 20.6038 18.9054 20.6045 18.9054 20.6053C18.9054 20.606 18.9054 20.6068 18.9054 20.6075C18.9054 20.6082 18.9054 20.609 18.9054 20.6097C18.9054 20.6105 18.9054 20.6112 18.9054 20.612C18.9054 20.6127 18.9054 20.6134 18.9054 20.6142C18.9054 20.6149 18.9054 20.6157 18.9054 20.6164C18.9054 20.6172 18.9054 20.6179 18.9054 20.6186C18.9054 20.6194 18.9054 20.6201 18.9054 20.6209C18.9054 20.6216 18.9054 20.6223 18.9054 20.6231C18.9054 20.6238 18.9054 20.6246 18.9054 20.6253C18.9054 20.6261 18.9054 20.6268 18.9054 20.6275C18.9054 20.6283 18.9054 20.629 18.9054 20.6298C18.9054 20.6305 18.9054 20.6313 18.9054 20.632C18.9054 20.6327 18.9054 20.6335 18.9054 20.6342C18.9054 20.635 18.9054 20.6357 18.9054 20.6364C18.9054 20.6372 18.9054 20.6379 18.9054 20.6387C18.9054 20.6394 18.9054 20.6402 18.9054 20.6409C18.9054 20.6416 18.9054 20.6424 18.9054 20.6431C18.9054 20.6439 18.9054 20.6446 18.9054 20.6454C18.9054 20.6461 18.9054 20.6468 18.9054 20.6476C18.9054 20.6483 18.9054 20.6491 18.9054 20.6498C18.9054 20.6505 18.9054 20.6513 18.9054 20.652C18.9054 20.6528 18.9054 20.6535 18.9054 20.6543C18.9054 20.655 18.9054 20.6557 18.9054 20.6565C18.9054 20.6572 18.9054 20.658 18.9054 20.6587C18.9054 20.6595 18.9054 20.6602 18.9054 20.6609C18.9054 20.6617 18.9054 20.6624 18.9054 20.6632C18.9054 20.6639 18.9054 20.6646 18.9054 20.6654C18.9054 20.6661 18.9054 20.6669 18.9054 20.6676C18.9054 20.6684 18.9054 20.6691 18.9054 20.6698C18.9054 20.6706 18.9054 20.6713 18.9054 20.6721C18.9054 20.6728 18.9054 20.6736 18.9054 20.6743C18.9054 20.675 18.9054 20.6758 18.9054 20.6765C18.9054 20.6773 18.9054 20.678 18.9054 20.6787C18.9054 20.6795 18.9054 20.6802 18.9054 20.681C18.9054 20.6817 18.9054 20.6825 18.9054 20.6832C18.9054 20.6839 18.9054 20.6847 18.9054 20.6854C18.9054 20.6862 18.9054 20.6869 18.9054 20.6877C18.9054 20.6884 18.9054 20.6891 18.9054 20.6899C18.9054 20.6906 18.9054 20.6914 18.9054 20.6921C18.9054 20.6928 18.9054 20.6936 18.9054 20.6943C18.9054 20.6951 18.9054 20.6958 18.9054 20.6966C18.9054 20.6973 18.9054 20.698 18.9054 20.6988C18.9054 20.6995 18.9054 20.7003 18.9054 20.701C18.9054 20.7018 18.9054 20.7025 18.9054 20.7032C18.9054 20.704 18.9054 20.7047 18.9054 20.7055C18.9054 20.7062 18.9054 20.7069 18.9054 20.7077C18.9054 20.7084 18.9054 20.7092 18.9054 20.7099C18.9054 20.7107 18.9054 20.7114 18.9054 20.7121C18.9054 20.7129 18.9054 20.7136 18.9054 20.7144C18.9054 20.7151 18.9054 20.7159 18.9054 20.7166C18.9054 20.7173 18.9054 20.7181 18.9054 20.7188C18.9054 20.7196 18.9054 20.7203 18.9054 20.721C18.9054 20.7218 18.9054 20.7225 18.9054 20.7233C18.9054 20.724 18.9054 20.7248 18.9054 20.7255C18.9054 20.7262 18.9054 20.727 18.9054 20.7277C18.9054 20.7285 18.9054 20.7292 18.9054 20.7299C18.9054 20.7307 18.9054 20.7314 18.9054 20.7322C18.9054 20.7329 18.9054 20.7337 18.9054 20.7344C18.9054 20.7351 18.9054 20.7359 18.9054 20.7366C18.9054 20.7374 18.9054 20.7381 18.9054 20.7389C18.9054 20.7396 18.9054 20.7403 18.9054 20.7411C18.9054 20.7418 18.9054 20.7426 18.9054 20.7433C18.9054 20.744 18.9054 20.7448 18.9054 20.7455C18.9054 20.7463 18.9054 20.747 18.9054 20.7478C18.9054 20.7485 18.9054 20.7492 18.9054 20.75C18.9054 20.7507 18.9054 20.7515 18.9054 20.7522C18.9054 20.753 18.9054 20.7537 18.9054 20.7544C18.9054 20.7552 18.9054 20.7559 18.9054 20.7567C18.9054 20.7574 18.9054 20.7581 18.9054 20.7589C18.9054 20.7596 18.9054 20.7604 18.9054 20.7611C18.9054 20.7619 18.9054 20.7626 18.9054 20.7633C18.9054 20.7641 18.9054 20.7648 18.9054 20.7656C18.9054 20.7663 18.9054 20.7671 18.9054 20.7678C18.9054 20.7685 18.9054 20.7693 18.9054 20.77C18.9054 20.7708 18.9054 20.7715 18.9054 20.7722C18.9054 20.773 18.9054 20.7737 18.9054 20.7745C18.9054 20.7752 18.9054 20.776 18.9054 20.7767C18.9054 20.7774 18.9054 20.7782 18.9054 20.7789C18.9054 20.7797 18.9054 20.7804 18.9054 20.7812C18.9054 20.7819 18.9054 20.7826 18.9054 20.7834C18.9054 20.7841 18.9054 20.7849 18.9054 20.7856C18.9054 20.7863 18.9054 20.7871 18.9054 20.7878C18.9054 20.7886 18.9054 20.7893 18.9054 20.7901C18.9054 20.7908 18.9054 20.7915 18.9054 20.7923C18.9054 20.793 18.9054 20.7938 18.9054 20.7945C18.9054 20.7953 18.9054 20.796 18.9054 20.7967C18.9054 20.7975 18.9054 20.7982 18.9054 20.799C18.9054 20.7997 18.9054 20.8004 18.9054 20.8012C18.9054 20.8019 18.9054 20.8027 18.9054 20.8034C18.9054 20.8042 18.9054 20.8049 18.9054 20.8056C18.9054 20.8064 18.9054 20.8071 18.9054 20.8079C18.9054 20.8086 18.9054 20.8094 18.9054 20.8101C18.9054 20.8108 18.9054 20.8116 18.9054 20.8123C18.9054 20.8131 18.9054 20.8138 18.9054 20.8145C18.9054 20.8153 18.9054 20.816 18.9054 20.8168C18.9054 20.8175 18.9054 20.8183 18.9054 20.819C18.9054 20.8197 18.9054 20.8205 18.9054 20.8212C18.9054 20.822 18.9054 20.8227 18.9054 20.8235C18.9054 20.8242 18.9054 20.8249 18.9054 20.8257C18.9054 20.8264 18.9054 20.8272 18.9054 20.8279C18.9054 20.8286 18.9054 20.8294 18.9054 20.8301C18.9054 20.8309 18.9054 20.8316 18.9054 20.8324C18.9054 20.8331 18.9054 20.8338 18.9054 20.8346C18.9054 20.8353 18.9054 20.8361 18.9054 20.8368C18.9054 20.8376 18.9054 20.8383 18.9054 20.839C18.9054 20.8398 18.9054 20.8405 18.9054 20.8413C18.9054 20.842 18.9054 20.8427 18.9054 20.8435C18.9054 20.8442 18.9054 20.845 18.9054 20.8457C18.9054 20.8465 18.9054 20.8472 18.9054 20.8479C18.9054 20.8487 18.9054 20.8494 18.9054 20.8502C18.9054 20.8509 18.9054 20.8517 18.9054 20.8524C18.9054 20.8531 18.9054 20.8539 18.9054 20.8546C18.9054 20.8554 18.9054 20.8561 18.9054 20.8568C18.9054 20.8576 18.9054 20.8583 18.9054 20.8591C18.9054 20.8598 18.9054 20.8606 18.9054 20.8613C18.9054 20.862 18.9054 20.8628 18.9054 20.8635C18.9054 20.8643 18.9054 20.865 18.9054 20.8658C18.9054 20.8665 18.9054 20.8672 18.9054 20.868C18.9054 20.8687 18.9054 20.8695 18.9054 20.8702C18.9054 20.8709 18.9054 20.8717 18.9054 20.8724C18.9054 20.8732 18.9054 20.8739 18.9054 20.8747C18.9054 20.8754 18.9054 20.8761 18.9054 20.8769C18.9054 20.8776 18.9054 20.8784 18.9054 20.8791C18.9054 20.8799 18.9054 20.8806 18.9054 20.8813C18.9054 20.8821 18.9054 20.8828 18.9054 20.8836C18.9054 20.8843 18.9054 20.885 18.9054 20.8858C18.9054 20.8865 18.9054 20.8873 18.9054 20.888C18.9054 20.8888 18.9054 20.8895 18.9054 20.8902C18.9054 20.891 18.9054 20.8917 18.9054 20.8925C18.9054 20.8932 18.9054 20.894 18.9054 20.8947C18.9054 20.8954 18.9054 20.8962 18.9054 20.8969C18.9054 20.8977 18.9054 20.8984 18.9054 20.8991C18.9054 20.8999 18.9054 20.9006 18.9054 20.9014C18.9054 20.9021 18.9054 20.9029 18.9054 20.9036C18.9054 20.9043 18.9054 20.9051 18.9054 20.9058C18.9054 20.9066 18.9054 20.9073 18.9054 20.9081C18.9054 20.9088 18.9054 20.9095 18.9054 20.9103C18.9054 20.911 18.9054 20.9118 18.9054 20.9125C18.9054 20.9132 18.9054 20.914 18.9054 20.9147C18.9054 20.9155 18.9054 20.9162 18.9054 20.917C18.9054 20.9177 18.9054 20.9184 18.9054 20.9192C18.9054 20.9199 18.9054 20.9207 18.9054 20.9214C18.9054 20.9222 18.9054 20.9229 18.9054 20.9236C18.9054 20.9244 18.9054 20.9251 18.9054 20.9259C18.9054 20.9266 18.9054 20.9273 18.9054 20.9281C18.9054 20.9288 18.9054 20.9296 18.9054 20.9303C18.9054 20.9311 18.9054 20.9318 18.9054 20.9325C18.9054 20.9333 18.9054 20.934 18.9054 20.9348C18.9054 20.9355 18.9054 20.9362 18.9054 20.937C18.9054 20.9377 18.9054 20.9385 18.9054 20.9392C18.9054 20.94 18.9054 20.9407 18.9054 20.9414C18.9054 20.9422 18.9054 20.9429 18.9054 20.9437C18.9054 20.9444 18.9054 20.9452 18.9054 20.9459C18.9054 20.9466 18.9054 20.9474 18.9054 20.9481C18.9054 20.9489 18.9054 20.9496 18.9054 20.9503C18.9054 20.9511 18.9054 20.9518 18.9054 20.9526C18.9054 20.9533 18.9054 20.9541 18.9054 20.9548C18.9054 20.9555 18.9054 20.9563 18.9054 20.957C18.9054 20.9578 18.9054 20.9585 18.9054 20.9593C18.9054 20.96 18.9054 20.9607 18.9054 20.9615C18.9054 20.9622 18.9054 20.963 18.9054 20.9637C18.9054 20.9644 18.9054 20.9652 18.9054 20.9659C18.9054 20.9667 18.9054 20.9674 18.9054 20.9682C18.9054 20.9689 18.9054 20.9696 18.9054 20.9704C18.9054 20.9711 18.9054 20.9719 18.9054 20.9726C18.9054 20.9734 18.9054 20.9741 18.9054 20.9748C18.9054 20.9756 18.9054 20.9763 18.9054 20.9771C18.9054 20.9778 18.9054 20.9785 18.9054 20.9793C18.9054 20.98 18.9054 20.9808 18.9054 20.9815C18.9054 20.9823 18.9054 20.983 18.9054 20.9837C18.9054 20.9845 18.9054 20.9852 18.9054 20.986C18.9054 20.9867 18.9054 20.9875 18.9054 20.9882C18.9054 20.9889 18.9054 20.9897 18.9054 20.9904C18.9054 20.9912 18.9054 20.9919 18.9054 20.9926C18.9054 20.9934 18.9054 20.9941 18.9054 20.9949C18.9054 20.9956 18.9054 20.9964 18.9054 20.9971C18.9054 20.9978 18.9054 20.9986 18.9054 20.9993C18.9054 21.0001 18.9054 21.0008 18.9054 21.0016C18.9054 21.0023 18.9054 21.003 18.9054 21.0038C18.9054 21.0045 18.9054 21.0053 18.9054 21.006C18.9054 21.0067 18.9054 21.0075 18.9054 21.0082C18.9054 21.009 18.9054 21.0097 18.9054 21.0105C18.9054 21.0112 18.9054 21.0119 18.9054 21.0127C18.9054 21.0134 18.9054 21.0142 18.9054 21.0149C18.9054 21.0157 18.9054 21.0164 18.9054 21.0171C18.9054 21.0179 18.9054 21.0186 18.9054 21.0194C18.9054 21.0201 18.9054 21.0208 18.9054 21.0216C18.9054 21.0223 18.9054 21.0231 18.9054 21.0238C18.9054 21.0246 18.9054 21.0253 18.9054 21.026C18.9054 21.0268 18.9054 21.0275 18.9054 21.0283C18.9054 21.029 18.9054 21.0298 18.9054 21.0305C18.9054 21.0312 18.9054 21.032 18.9054 21.0327C18.9054 21.0335 18.9054 21.0342 18.9054 21.0349C18.9054 21.0357 18.9054 21.0364 18.9054 21.0372C18.9054 21.0379 18.9054 21.0387 18.9054 21.0394C18.9054 21.0401 18.9054 21.0409 18.9054 21.0416C18.9054 21.0424 18.9054 21.0431 18.9054 21.0439C18.9054 21.0446 18.9054 21.0453 18.9054 21.0461C18.9054 21.0468 18.9054 21.0476 18.9054 21.0483C18.9054 21.049 18.9054 21.0498 18.9054 21.0505C18.9054 21.0513 18.9054 21.052 18.9054 21.0528C18.9054 21.0535 18.9054 21.0542 18.9054 21.055C18.9054 21.0557 18.9054 21.0565 18.9054 21.0572C18.9054 21.058 18.9054 21.0587 18.9054 21.0594C18.9054 21.0602 18.9054 21.0609 18.9054 21.0617C18.9054 21.0624 18.9054 21.0631 18.9054 21.0639C18.9054 21.0646 18.9054 21.0654 18.9054 21.0661C18.9054 21.0669 18.9054 21.0676 18.9054 21.0683C18.9054 21.0691 18.9054 21.0698 18.9054 21.0706C18.9054 21.0713 18.9054 21.0721 18.9054 21.0728C18.9054 21.0735 18.9054 21.0743 18.9054 21.075C18.9054 21.0758 18.9054 21.0765 18.9054 21.0772C18.9054 21.078 18.9054 21.0787 18.9054 21.0795C18.9054 21.0802 18.9054 21.081 18.9054 21.0817C18.9054 21.0824 18.9054 21.0832 18.9054 21.0839C18.9054 21.0847 18.9054 21.0854 18.9054 21.0862C18.9054 21.0869 18.9054 21.0876 18.9054 21.0884C18.9054 21.0891 18.9054 21.0899 18.9054 21.0906C18.9054 21.0913 18.9054 21.0921 18.9054 21.0928C18.9054 21.0936 18.9054 21.0943 18.9054 21.0951C18.9054 21.0958 18.9054 21.0965 18.9054 21.0973C18.9054 21.098 18.9054 21.0988 18.9054 21.0995C18.9054 21.1003 18.9054 21.101 18.9054 21.1017C18.9054 21.1025 18.9054 21.1032 18.9054 21.104C18.9054 21.1047 18.9054 21.1054 18.9054 21.1062C18.9054 21.1069 18.9054 21.1077 18.9054 21.1084C18.9054 21.1092 18.9054 21.1099 18.9054 21.1106C18.9054 21.1114 18.9054 21.1121 18.9054 21.1129C18.9054 21.1136 18.9054 21.1144 18.9054 21.1151C18.9054 21.1158 18.9054 21.1166 18.9054 21.1173C18.9054 21.1181 18.9054 21.1188 18.9054 21.1195C18.9054 21.1203 18.9054 21.121 18.9054 21.1218C18.9054 21.1225 18.9054 21.1233 18.9054 21.124C18.9054 21.1247 18.9054 21.1255 18.9054 21.1262C18.9054 21.127 18.9054 21.1277 18.9054 21.1285C18.9054 21.1292 18.9054 21.1299 18.9054 21.1307C18.9054 21.1314 18.9054 21.1322 18.9054 21.1329C18.9054 21.1336 18.9054 21.1344 18.9054 21.1351C18.9054 21.1359 18.9054 21.1366 18.9054 21.1374C18.9054 21.1381 18.9054 21.1388 18.9054 21.1396C18.9054 21.1403 18.9054 21.1411 18.9054 21.1418C18.9054 21.1425 18.9054 21.1433 18.9054 21.144C18.9054 21.1448 18.9054 21.1455 18.9054 21.1463C18.9054 21.147 18.9054 21.1477 18.9054 21.1485C18.9054 21.1492 18.9054 21.15 18.9054 21.1507C18.9054 21.1515 18.9054 21.1522 18.9054 21.1529C18.9054 21.1537 18.9054 21.1544 18.9054 21.1552C18.9054 21.1559 18.9054 21.1566 18.9054 21.1574C18.9054 21.1581 18.9054 21.1589 18.9054 21.1596C18.9054 21.1604 18.9054 21.1611 18.9054 21.1618C18.9054 21.1626 18.9054 21.1633 18.9054 21.1641C18.9054 21.1648 18.9054 21.1656 18.9054 21.1663C18.9054 21.167 18.9054 21.1678 18.9054 21.1685C18.9054 21.1693 18.9054 21.17 18.9054 21.1707C18.9054 21.1715 18.9054 21.1722 18.9054 21.173C18.9054 21.1737 18.9054 21.1745 18.9054 21.1752C18.9054 21.1759 18.9054 21.1767 18.9054 21.1774C18.9054 21.1782 18.9054 21.1789 18.9054 21.1797C18.9054 21.1804 18.9054 21.1811 18.9054 21.1819C18.9054 21.1826 18.9054 21.1834 18.9054 21.1841C18.9054 21.1848 18.9054 21.1856 18.9054 21.1863C18.9054 21.1871 18.9054 21.1878 18.9054 21.1886C18.9054 21.1893 18.9054 21.19 18.9054 21.1908C18.9054 21.1915 18.9054 21.1923 18.9054 21.193C18.9054 21.1938 18.9054 21.1945 18.9054 21.1952C18.9054 21.196 18.9054 21.1967 18.9054 21.1975C18.9054 21.1982 18.9054 21.1989 18.9054 21.1997C18.9054 21.2004 18.9054 21.2012 18.9054 21.2019C18.9054 21.2027 18.9054 21.2034 18.9054 21.2041C18.9054 21.2049 18.9054 21.2056 18.9054 21.2064C18.9054 21.2071 18.9054 21.2079 18.9054 21.2086C18.9054 21.2093 18.9054 21.2101 18.9054 21.2108C18.9054 21.2116 18.9054 21.2123 18.9054 21.213C18.9054 21.2138 18.9054 21.2145 18.9054 21.2153C18.9054 21.216 18.9054 21.2168 18.9054 21.2175C18.9054 21.2182 18.9054 21.219 18.9054 21.2197C18.9054 21.2205 18.9054 21.2212 18.9054 21.222C18.9054 21.2227 18.9054 21.2234 18.9054 21.2242C18.9054 21.2249 18.9054 21.2257 18.9054 21.2264C18.9054 21.2271 18.9054 21.2279 18.9054 21.2286C18.9054 21.2294 18.9054 21.2301 18.9054 21.2309C18.9054 21.2316 18.9054 21.2323 18.9054 21.2331C18.9054 21.2338 18.9054 21.2346 18.9054 21.2353C18.9054 21.2361 18.9054 21.2368 18.9054 21.2375C18.9054 21.2383 18.9054 21.239 18.9054 21.2398C18.9054 21.2405 18.9054 21.2412 18.9054 21.242C18.9054 21.2427 18.9054 21.2435 18.9054 21.2442C18.9054 21.245 18.9054 21.2457 18.9054 21.2464C18.9054 21.2472 18.9054 21.2479 18.9054 21.2487C18.9054 21.2494 18.9054 21.2502 18.9054 21.2509C18.9054 21.2516 18.9054 21.2524 18.9054 21.2531C18.9054 21.2539 18.9054 21.2546 18.9054 21.2553C18.9054 21.2561 18.9054 21.2568 18.9054 21.2576C18.9054 21.2583 18.9054 21.2591 18.9054 21.2598C18.9054 21.2605 18.9054 21.2613 18.9054 21.262C18.9054 21.2628 18.9054 21.2635 18.9054 21.2643C18.9054 21.265 18.9054 21.2657 18.9054 21.2665C18.9054 21.2672 18.9054 21.268 18.9054 21.2687C18.9054 21.2694 18.9054 21.2702 18.9054 21.2709C18.9054 21.2717 18.9054 21.2724 18.9054 21.2732C18.9054 21.2739 18.9054 21.2746 18.9054 21.2754C18.9054 21.2761 18.9054 21.2769 18.9054 21.2776C18.9054 21.2784 18.9054 21.2791 18.9054 21.2798C18.9054 21.2806 18.9054 21.2813 18.9054 21.2821C18.9054 21.2828 18.9054 21.2835 18.9054 21.2843C18.9054 21.285 18.9054 21.2858 18.9054 21.2865C18.9054 21.2873 18.9054 21.288 18.9054 21.2887C18.9054 21.2895 18.9054 21.2902 18.9054 21.291C18.9054 21.2917 18.9054 21.2925 18.9054 21.2932C18.9054 21.2939 18.9054 21.2947 18.9054 21.2954C18.9054 21.2962 18.9054 21.2969 18.9054 21.2976C18.9054 21.2984 18.9054 21.2991 18.9054 21.2999C18.9054 21.3006 18.9054 21.3014 18.9054 21.3021C18.9054 21.3028 18.9054 21.3036 18.9054 21.3043C18.9054 21.3051 18.9054 21.3058 18.9054 21.3066C18.9054 21.3073 18.9054 21.308 18.9054 21.3088C18.9054 21.3095 18.9054 21.3103 18.9054 21.311C18.9054 21.3117 18.9054 21.3125 18.9054 21.3132C18.9054 21.314 18.9054 21.3147 18.9054 21.3155C18.9054 21.3162 18.9054 21.3169 18.9054 21.3177C18.9054 21.3184 18.9054 21.3192 18.9054 21.3199C18.9054 21.3207 18.9054 21.3214 18.9054 21.3221C18.9054 21.3229 18.9054 21.3236 18.9054 21.3244C18.9054 21.3251 18.9054 21.3258 18.9054 21.3266C18.9054 21.3273 18.9054 21.3281 18.9054 21.3288C18.9054 21.3296 18.9054 21.3303 18.9054 21.331C18.9054 21.3318 18.9054 21.3325 18.9054 21.3333C18.9054 21.334 18.9054 21.3347 18.9054 21.3355C18.9054 21.3362 18.9054 21.337 18.9054 21.3377C18.9054 21.3385 18.9054 21.3392 18.9054 21.3399C18.9054 21.3407 18.9054 21.3414 18.9054 21.3422C18.9054 21.3429 18.9054 21.3437 18.9054 21.3444C18.9054 21.3451 18.9054 21.3459 18.9054 21.3466C18.9054 21.3474 18.9054 21.3481 18.9054 21.3488C18.9054 21.3496 18.9054 21.3503 18.9054 21.3511C18.9054 21.3518 18.9054 21.3526 18.9054 21.3533C18.9054 21.354 18.9054 21.3548 18.9054 21.3555C18.9054 21.3563 18.9054 21.357 18.9054 21.3578C18.9054 21.3585 18.9054 21.3592 18.9054 21.36C18.9054 21.3607 18.9054 21.3615 18.9054 21.3622C18.9054 21.3629 18.9054 21.3637 18.9054 21.3644C18.9054 21.3652 18.9054 21.3659 18.9054 21.3667C18.9054 21.3674 18.9054 21.3681 18.9054 21.3689C18.9054 21.3696 18.9054 21.3704 18.9054 21.3711C18.9054 21.3719 18.9054 21.3726 18.9054 21.3733C18.9054 21.3741 18.9054 21.3748 18.9054 21.3756C18.9054 21.3763 18.9054 21.377 18.9054 21.3778C18.9054 21.3785 18.9054 21.3793 18.9054 21.38C18.9054 21.3808 18.9054 21.3815 18.9054 21.3822C18.9054 21.383 18.9054 21.3837 18.9054 21.3845C18.9054 21.3852 18.9054 21.386 18.9054 21.3867C18.9054 21.3874 18.9054 21.3882 18.9054 21.3889C18.9054 21.3897 18.9054 21.3904 18.9054 21.3911C18.9054 21.3919 18.9054 21.3926 18.9054 21.3934C18.9054 21.3941 18.9054 21.3949 18.9054 21.3956C18.9054 21.3963 18.9054 21.3971 18.9054 21.3978C18.9054 21.3986 18.9054 21.3993 18.9054 21.4001C18.9054 21.4008 18.9054 21.4015 18.9054 21.4023C18.9054 21.403 18.9054 21.4038 18.9054 21.4045C18.9054 21.4052 18.9054 21.406 18.9054 21.4067C18.9054 21.4075 18.9054 21.4082 18.9054 21.409C18.9054 21.4097 18.9054 21.4104 18.9054 21.4112C18.9054 21.4119 18.9054 21.4127 18.9054 21.4134C18.9054 21.4142 18.9054 21.4149 18.9054 21.4156C18.9054 21.4164 18.9054 21.4171 18.9054 21.4179C18.9054 21.4186 18.9054 21.4193 18.9054 21.4201C18.9054 21.4208 18.9054 21.4216 18.9054 21.4223C18.9054 21.4231 18.9054 21.4238 18.9054 21.4245C18.9054 21.4253 18.9054 21.426 18.9054 21.4268C18.9054 21.4275 18.9054 21.4283 18.9054 21.429C18.9054 21.4297 18.9054 21.4305 18.9054 21.4312C18.9054 21.432 18.9054 21.4327 18.9054 21.4334C18.9054 21.4342 18.9054 21.4349 18.9054 21.4357C18.9054 21.4364 18.9054 21.4372 18.9054 21.4379C18.9054 21.4386 18.9054 21.4394 18.9054 21.4401C18.9054 21.4409 18.9054 21.4416 18.9054 21.4424C18.9054 21.4431 18.9054 21.4438 18.9054 21.4446C18.9054 21.4453 18.9054 21.4461 18.9054 21.4468C18.9054 21.4475 18.9054 21.4483 18.9054 21.449C18.9054 21.4498 18.9054 21.4505 18.9054 21.4513C18.9054 21.452 18.9054 21.4527 18.9054 21.4535C18.9054 21.4542 18.9054 21.455 18.9054 21.4557C18.9054 21.4565 18.9054 21.4572 18.9054 21.4579C18.9054 21.4587 18.9054 21.4594 18.9054 21.4602C18.9054 21.4609 18.9054 21.4616 18.9054 21.4624C18.9054 21.4631 18.9054 21.4639 18.9054 21.4646C18.9054 21.4654 18.9054 21.4661 18.9054 21.4668C18.9054 21.4676 18.9054 21.4683 18.9054 21.4691C18.9054 21.4698 18.9054 21.4706 18.9054 21.4713C18.9054 21.472 18.9054 21.4728 18.9054 21.4735C18.9054 21.4743 18.9054 21.475 18.9054 21.4757C18.9054 21.4765 18.9054 21.4772 18.9054 21.478C18.9054 21.4787 18.9054 21.4795 18.9054 21.4802C18.9054 21.4809 18.9054 21.4817 18.9054 21.4824C18.9054 21.4832 18.9054 21.4839 18.9054 21.4847C18.9054 21.4854 18.9054 21.4861 18.9054 21.4869C18.9054 21.4876 18.9054 21.4884 18.9054 21.4891C18.9054 21.4898 18.9054 21.4906 18.9054 21.4913C18.9054 21.4921 18.9054 21.4928 18.9054 21.4936C18.9054 21.4943 18.9054 21.495 18.9054 21.4958C18.9054 21.4965 18.9054 21.4973 18.9054 21.498C18.9054 21.4988 18.9054 21.4995 18.9054 21.5002C18.9054 21.501 18.9054 21.5017 18.9054 21.5025C18.9054 21.5032 18.9054 21.5039 18.9054 21.5047C18.9054 21.5054 18.9054 21.5062 18.9054 21.5069C18.9054 21.5077 18.9054 21.5084 18.9054 21.5091C18.9054 21.5099 18.9054 21.5106 18.9054 21.5114H20.5054Z" fill="#FC6600" mask="url(#path-4-inside-1_2146_21852)"/>
<path d="M23.1195 24.0479L19.7031 21.5107" stroke="#FC6600" stroke-width="0.8" stroke-miterlimit="10"/>
<mask id="path-7-inside-2_2146_21852" fill="white">
<path d="M27.8359 27.5518L29.9998 29.1593V40.4987"/>
</mask>
<path d="M29.9998 29.1593H30.7998V28.757L30.4768 28.5171L29.9998 29.1593ZM27.3589 28.1939L29.5227 29.8014L30.4768 28.5171L28.313 26.9096L27.3589 28.1939ZM29.1998 29.1593V40.4987H30.7998V29.1593H29.1998Z" fill="#FC6600" mask="url(#path-7-inside-2_2146_21852)"/>
<path d="M9.58209 21.5107L6.17969 24.1013" stroke="#FC6600" stroke-width="0.8" stroke-miterlimit="10"/>
<mask id="path-10-inside-3_2146_21852" fill="white">
<path d="M0 40.4992V28.8073L1.5227 27.6484"/>
</mask>
<path d="M0 28.8073L-0.484488 28.1707L-0.8 28.4108V28.8073H0ZM0.8 40.4992V28.8073H-0.8V40.4992H0.8ZM0.484488 29.4439L2.00719 28.285L1.03821 27.0118L-0.484488 28.1707L0.484488 29.4439Z" fill="#FC6600" mask="url(#path-10-inside-3_2146_21852)"/>
<path d="M12.4453 23.8516V40.5001" stroke="#FC6600" stroke-width="0.8" stroke-miterlimit="10"/>
<path d="M17.5988 38.3029C17.5988 38.8032 17.1836 39.2214 16.6557 39.2214C16.1277 39.2214 15.7125 38.8032 15.7125 38.3029C15.7125 37.8026 16.1277 37.3844 16.6557 37.3844C17.1836 37.3844 17.5988 37.8026 17.5988 38.3029Z" stroke="#FC6600" stroke-width="0.8" stroke-miterlimit="10"/>
<path d="M17.5988 33.5109C17.5988 34.0112 17.1836 34.4294 16.6557 34.4294C16.1277 34.4294 15.7125 34.0112 15.7125 33.5109C15.7125 33.0106 16.1277 32.5924 16.6557 32.5924C17.1836 32.5924 17.5988 33.0106 17.5988 33.5109Z" stroke="#FC6600" stroke-width="0.8" stroke-miterlimit="10"/>
<path d="M17.5988 28.7199C17.5988 29.2202 17.1836 29.6384 16.6557 29.6384C16.1277 29.6384 15.7125 29.2202 15.7125 28.7199C15.7125 28.2196 16.1277 27.8014 16.6557 27.8014C17.1836 27.8014 17.5988 28.2196 17.5988 28.7199Z" stroke="#FC6600" stroke-width="0.8" stroke-miterlimit="10"/>
<path d="M5.7794 25.5209L2.42482 28.156L1.83857 27.4019L1.8385 27.4018L1.09768 26.4493L4.39275 23.8275L5.7794 24.3325V25.5209Z" stroke="#FC6600" stroke-width="0.8" stroke-miterlimit="10"/>
<path d="M28.1833 26.4494L27.5174 27.3056L27.5174 27.3056L26.8558 28.1561L23.5016 25.5209V24.3327L24.8882 23.8276L28.1833 26.4494Z" stroke="#FC6600" stroke-width="0.8" stroke-miterlimit="10"/>
</svg>
