<svg width="42" height="33" viewBox="0 0 42 33" fill="none" xmlns="http://www.w3.org/2000/svg">
<path d="M9.58696 5.79928V13.2106H13.5262V5.79928H9.58696Z" stroke="#FC6600" stroke-width="0.7" stroke-linejoin="round"/>
<path d="M7.01387 0.5H2.27249C1.57346 0.5 1 1.08435 1 1.79665V32.5H8.28636V1.79665C8.28636 1.08435 7.71289 0.5 7.01387 0.5Z" stroke="#FC6600" stroke-width="0.7" stroke-linejoin="round"/>
<path d="M14.9955 7.21624V12.2272C19.8662 12.6492 19.3583 17.3698 20.7058 20.6353C20.1277 20.7704 19.5895 20.9718 19.0626 21.1689L19.0341 21.1796L19.0336 21.1798C18.2598 21.4719 17.5216 21.7506 17.042 21.6207C16.5041 21.4756 15.9082 21.2942 15.3591 21.1261C14.5514 20.8779 13.8298 20.6583 13.1458 20.5208C12.7129 20.41 12.2912 20.3661 11.8658 20.3718C11.4404 20.368 11.0187 20.41 10.5858 20.5208C10.3403 20.5704 10.0911 20.6296 9.83246 20.6984V23.6908C11.2361 23.3127 13.4513 23.3776 14.527 23.9161L14.542 23.9219C15.048 24.0765 15.5971 24.2465 16.3261 24.4394C17.6792 24.8003 18.8223 24.3725 20.0199 23.9219L20.1379 23.8779C20.8238 23.6201 21.5285 23.37 22.1394 23.3852C22.34 23.391 22.756 23.6125 23.1908 23.855L23.2901 23.9085C24.0697 24.3439 24.8643 24.7812 25.807 24.8175C26.9614 24.8614 27.7841 24.3668 28.6068 23.8722L28.7024 23.8149C29.1166 23.5667 29.5251 23.3337 29.8118 23.3222C30.2766 23.3069 30.8257 23.5476 31.3711 23.7939L31.4329 23.8226C32.1638 24.1548 32.8928 24.4833 33.7867 24.5539C34.8868 24.6399 35.7208 24.2312 36.4891 23.7557C36.6447 23.6583 36.7984 23.5571 36.9501 23.4597C37.3643 23.1885 37.771 22.9231 38.0296 22.8945C38.3415 22.8594 39.1061 23.1926 39.775 23.4841L39.8418 23.5132C40.0086 23.5838 40.1735 23.6564 40.3328 23.7232C40.5633 23.8187 40.7845 23.9066 41 23.9715V20.8397L40.9756 20.8263L40.9595 20.8192C39.9622 20.3834 38.7922 19.8721 37.7185 19.9918C36.8789 20.0873 36.2249 20.4749 35.5765 20.897C35.5708 20.5017 35.4696 20.0395 35.2616 19.4991C34.6057 10.6078 26.6953 6.2786 14.9955 7.21624Z" stroke="#FC6600" stroke-width="0.7" stroke-linejoin="round"/>
<path d="M17.042 27.0804C16.5041 26.9353 15.9082 26.7539 15.3591 26.5858C12.6885 25.7685 11.8658 25.6272 9.83058 26.1657V29.1314C11.223 28.7208 13.4325 28.7857 14.5251 29.3796L14.5401 29.3854C15.0461 29.54 15.5952 29.71 16.3242 29.9029C17.6773 30.2638 18.8205 29.836 20.018 29.3854L20.1361 29.3414C20.822 29.0836 21.5266 28.8335 22.1376 28.8487C22.3381 28.8545 22.7541 29.076 23.1889 29.3185L23.2882 29.372C24.0678 29.8074 24.8624 30.2447 25.8051 30.281C26.9595 30.3249 27.7822 29.8303 28.6049 29.3357L28.7005 29.2784C29.1147 29.0302 29.5232 28.7972 29.81 28.7857C30.2747 28.7705 30.8238 29.0111 31.3692 29.2574L31.431 29.2861C32.1619 29.6183 32.8909 29.9468 33.7849 30.0175C34.8849 30.1015 35.7189 29.6947 36.4873 29.2192C36.6428 29.1218 36.7965 29.0206 36.9483 28.9232C37.3624 28.6521 37.7691 28.3866 38.0277 28.358C38.3396 28.3229 39.1043 28.6561 39.7732 28.9476L39.84 28.9767C40.0067 29.0474 40.1717 29.1199 40.331 29.1868C40.5615 29.2822 40.7826 29.3701 40.9981 29.435V26.3032L40.9738 26.2898L40.9576 26.2827C39.9603 25.847 38.7903 25.3356 37.7166 25.4553C36.8096 25.5584 36.1199 26.0072 35.4172 26.4655L35.3917 26.482C34.8938 26.8034 34.3855 27.1315 34.0023 27.1014C33.59 27.0709 33.0971 26.8474 32.6023 26.6221C31.7328 26.2268 30.8557 25.8315 29.7238 25.8697C28.6705 25.906 27.9115 26.3605 27.1544 26.8169C26.6897 27.0957 26.223 27.3726 25.91 27.363C25.6383 27.3535 25.1454 27.0804 24.66 26.8092C23.8861 26.3796 23.1214 25.9556 22.2106 25.9308C21.0056 25.9003 19.9993 26.2765 19.0341 26.6393L19.0336 26.6395C18.2598 26.9316 17.5216 27.2102 17.042 27.0804Z" stroke="#FC6600" stroke-width="0.7" stroke-linejoin="round"/>
</svg>
