<svg width="46" height="41" viewBox="0 0 46 41" fill="none" xmlns="http://www.w3.org/2000/svg">
<g clip-path="url(#clip0_2146_22598)">
<path d="M1.07593 0.631836L0.632812 2.42953L1.52166 2.65358L7.69404 4.21404L10.689 8.75572L17.0464 28.0427L13.2956 35.6315H15.1098C14.8986 36.0691 14.7787 36.5567 14.7787 37.0734C14.7787 38.8816 16.2488 40.3682 18.0369 40.3682C19.8251 40.3682 21.2952 38.8816 21.2952 37.0734C21.2952 36.5567 21.1753 36.0691 20.9615 35.6315H31.4009C31.1898 36.0691 31.0672 36.5567 31.0672 37.0734C31.0672 38.8816 32.5374 40.3682 34.3255 40.3682C36.1136 40.3682 37.5837 38.8816 37.5837 37.0734C37.5837 36.5567 37.4638 36.0691 37.2501 35.6315H38.4986V33.7785H16.2593L18.6 29.0417H38.2432L45.3696 7.41932H12.0053L8.8279 2.59032L1.96738 0.855889L1.07593 0.631836ZM12.7899 9.27236H22.0068V14.0091H14.3512L12.7899 9.27236ZM23.8392 9.27236H31.7814V14.0091H23.8392V9.27236ZM33.6139 9.27236H42.8307L41.2694 14.0091H33.6139V9.27236ZM14.9612 15.8621H22.0068V20.5989H16.5225L14.9612 15.8621ZM23.8392 15.8621H31.7814V20.5989H23.8392V15.8621ZM33.6139 15.8621H40.6569L39.0955 20.5989H33.6139V15.8621ZM17.1351 22.4519H22.0068V27.1887H18.6964L17.1351 22.4519ZM23.8392 22.4519H31.7814V27.1887H23.8392V22.4519ZM33.6139 22.4519H38.4856L36.9242 27.1887H33.6139V22.4519ZM18.0343 35.6315C18.832 35.6315 19.4601 36.2668 19.4601 37.0734C19.4601 37.8799 18.832 38.5152 18.0343 38.5152C17.2367 38.5152 16.6085 37.8799 16.6085 37.0734C16.6085 36.2668 17.2367 35.6315 18.0343 35.6315ZM34.3255 35.6315C35.1231 35.6315 35.7513 36.2668 35.7513 37.0734C35.7513 37.8799 35.1231 38.5152 34.3255 38.5152C33.5279 38.5152 32.8997 37.8799 32.8997 37.0734C32.8997 36.2668 33.5279 35.6315 34.3255 35.6315Z" stroke="#FC6600" stroke-width="0.8" stroke-miterlimit="10" stroke-linecap="round" stroke-linejoin="round"/>
</g>
<defs>
<clipPath id="clip0_2146_22598">
<rect width="45" height="40" fill="white" transform="translate(0.5 0.5)"/>
</clipPath>
</defs>
</svg>
