<svg width="34" height="45" viewBox="0 0 34 45" fill="none" xmlns="http://www.w3.org/2000/svg">
<path d="M18.4649 22.906L18.8313 18.9766L13.1241 14.3262L12.7578 18.2556L18.4649 22.906Z" stroke="#FC6600" stroke-miterlimit="10"/>
<path d="M7.04961 13.6059L6.68328 17.5353L0.976562 12.8854L2.07556 1.09668L30.6104 24.3474L30.244 28.2768L24.5369 23.6268M7.04961 13.6059L1.3429 8.95594M7.04961 13.6059L7.41594 9.67649M7.41594 9.67649L1.70923 5.0261M7.41594 9.67649L7.78227 5.74665M7.41594 9.67649L13.1231 14.3265M13.1231 14.3265L13.4894 10.397M13.1231 14.3265L18.8302 18.9769M18.8302 18.9769L19.1965 15.047M18.8302 18.9769L24.5369 23.6268M24.5369 23.6268L24.9032 19.6974" stroke="#FC6600" stroke-miterlimit="10"/>
<path d="M18.0938 26.8357L23.8009 31.4861L24.1672 27.5562L18.4605 22.9062L18.0938 26.8357Z" stroke="#FC6600" stroke-miterlimit="10"/>
<path d="M24.1755 27.5569L24.5418 23.6275L18.8351 18.9775L18.4688 22.907L24.1755 27.5569Z" stroke="#FC6600" stroke-miterlimit="10"/>
<path d="M18.0963 26.8351L17.7299 30.7649L18.0963 26.8351ZM18.0963 26.8351L12.3895 22.1851L12.0232 26.1145L12.3895 22.1851L6.68242 17.5347L6.31609 21.4646L6.68242 17.5347L0.975708 12.8848L0.609375 16.8142L13.081 26.9767L13.695 27.4711V27.4766L23.437 35.4149L23.8034 31.4855L18.0963 26.8351Z" stroke="#FC6600" stroke-miterlimit="10"/>
<path d="M24.1702 27.5564L29.8773 32.2068L24.1702 27.5564ZM24.1702 27.5564L23.8038 31.4862L29.511 36.1362L23.8038 31.4862L23.4375 35.4156L29.1446 40.0656L30.2436 28.2769L24.5365 23.627L24.1702 27.5564Z" stroke="#FC6600" stroke-miterlimit="10"/>
<path d="M12.7531 18.2564L7.04602 13.6064L6.67969 17.5359L12.3868 22.1863L12.7531 18.2564Z" stroke="#FC6600" stroke-miterlimit="10"/>
<path d="M11.4062 25.626V41.5017H13.6968V27.4766L13.0829 26.9766L11.4062 25.626Z" stroke="#FC6600" stroke-miterlimit="10"/>
<path d="M13.0781 26.9775L13.6921 27.4775V27.472L13.0781 26.9775Z" stroke="#FC6600" stroke-miterlimit="10"/>
<path d="M6.10938 41.5029V43.9038H18.9885V41.5029H13.6943H11.4037H6.10938Z" stroke="#FC6600" stroke-miterlimit="10"/>
<path d="M28.4496 11.1631C28.8332 13.008 29.9852 13.9295 29.9852 14.8529C29.9852 15.7763 29.6016 16.6979 28.4496 16.6979C27.2974 16.6979 26.9141 15.7763 26.9141 14.8529C26.9141 13.9314 28.0645 13.008 28.4496 11.1631Z" stroke="#FC6600" stroke-width="0.8" stroke-miterlimit="10"/>
<path d="M31.8559 6.28906C32.2395 8.29188 33.3915 9.29313 33.3915 10.2944C33.3915 11.2956 33.0079 12.2972 31.8559 12.2972C30.7039 12.2972 30.3203 11.296 30.3203 10.2944C30.3203 9.29313 31.4726 8.29188 31.8559 6.28906Z" stroke="#FC6600" stroke-width="0.8" stroke-miterlimit="10"/>
<path d="M26.7142 6.09668C26.9907 7.42276 27.819 8.08673 27.819 8.7507C27.819 9.41468 27.5424 10.0768 26.7142 10.0768C25.8859 10.0768 25.6094 9.41281 25.6094 8.7507C25.6091 8.08673 26.4373 7.42276 26.7142 6.09668Z" stroke="#FC6600" stroke-width="0.8" stroke-miterlimit="10"/>
</svg>
