<svg width="32" height="51" viewBox="0 0 32 51" fill="none" xmlns="http://www.w3.org/2000/svg">
<path d="M18.8554 26.8594L19.2218 22.5287L13.5149 17.4033L13.1484 21.7345L18.8554 26.8594Z" stroke="#FC6600" stroke-opacity="0.8" stroke-miterlimit="10"/>
<path d="M13.5108 17.4033L7.80392 12.2783L7.4375 16.6091L13.1444 21.7344L13.5108 17.4033Z" stroke="#FC6600" stroke-opacity="0.8" stroke-miterlimit="10"/>
<path d="M2.46645 2.82324L1.36719 15.8155L7.0741 20.9409L7.44052 16.6097L1.73361 11.4847L7.44052 16.6097L7.80695 12.2789L2.10003 7.15399L7.80695 12.2789L8.17337 7.94818L7.80695 12.2789L13.5139 17.4039L13.8803 13.0731L13.5139 17.4039L19.2208 22.5292L19.5872 18.1985L19.2208 22.5292L24.9277 27.6542L25.2941 23.3234L24.9277 27.6542L30.6346 32.7791L31.001 28.4484L2.46645 2.82324Z" stroke="#FC6600" stroke-opacity="0.8" stroke-miterlimit="10"/>
<path d="M13.1477 21.7344L12.7812 26.0651L18.4885 31.1901L18.8546 26.8593L13.1477 21.7344Z" stroke="#FC6600" stroke-opacity="0.8" stroke-miterlimit="10"/>
<path d="M18.4844 31.1901L24.1913 36.3155L24.5573 31.9843L18.8504 26.8594L18.4844 31.1901Z" stroke="#FC6600" stroke-opacity="0.8" stroke-miterlimit="10"/>
<path d="M24.5663 31.985L24.9327 27.6542L19.2258 22.5293L18.8594 26.86L24.5663 31.985Z" stroke="#FC6600" stroke-opacity="0.8" stroke-miterlimit="10"/>
<path d="M18.4875 31.1897L18.1211 35.5209L18.4875 31.1897ZM18.4875 31.1897L12.7802 26.0648L12.4142 30.3955L12.7802 26.0648L7.07334 20.9398L6.70729 25.2706L7.07334 20.9398L1.36642 15.8145L1 20.1456L13.472 31.3455L14.0859 31.8906V31.8967L23.828 40.6458L24.1945 36.3151L18.4875 31.1897Z" stroke="#FC6600" stroke-opacity="0.8" stroke-miterlimit="10"/>
<path d="M24.5606 31.985L30.2679 37.1104L24.5606 31.985ZM24.5606 31.985L24.1945 36.3162L29.9015 41.4412L24.1945 36.3162L23.8281 40.647L29.535 45.7719L30.6339 32.7792L24.927 27.6543L24.5606 31.985Z" stroke="#FC6600" stroke-opacity="0.8" stroke-miterlimit="10"/>
<path d="M13.1515 21.7347L7.44455 16.6094L7.07812 20.9406L12.785 26.0655L13.1515 21.7347Z" stroke="#FC6600" stroke-opacity="0.8" stroke-miterlimit="10"/>
<path d="M11.7969 29.8574V47.3544H14.0878V31.8972L13.4739 31.346L11.7969 29.8574Z" stroke="#FC6600" stroke-opacity="0.8" stroke-miterlimit="10"/>
<path d="M13.4688 31.3457L14.0826 31.8969V31.8908L13.4688 31.3457Z" stroke="#FC6600" stroke-opacity="0.8" stroke-miterlimit="10"/>
<path d="M6.5 47.3545V50.0005H19.3791V47.3545H14.085H11.7941H6.5Z" stroke="#FC6600" stroke-opacity="0.8" stroke-miterlimit="10"/>
<path d="M7.72744 4.4396C7.72741 4.43958 7.72738 4.43955 7.72735 4.43953C7.6418 4.36711 7.60787 4.18892 7.68524 4.06889C7.71871 4.01741 7.75789 3.99898 7.78543 3.99425C7.81176 3.98974 7.84299 3.9945 7.87639 4.02264C7.87641 4.02266 7.87644 4.02268 7.87647 4.0227L9.02636 4.99327C9.02637 4.99328 9.02639 4.99329 9.0264 4.99331C9.11198 5.0657 9.14594 5.24392 9.06856 5.36397C9.03509 5.41545 8.9959 5.43389 8.96836 5.43862C8.94203 5.44313 8.9108 5.43837 8.87741 5.41023C8.87738 5.41021 8.87735 5.41019 8.87732 5.41016L7.72744 4.4396Z" stroke="#FC6600" stroke-opacity="0.8" stroke-width="0.8" stroke-miterlimit="10"/>
<path d="M10.999 1.39647C10.9404 1.23954 11.0123 1.10104 11.0908 1.05554C11.1231 1.0412 11.1488 1.04356 11.1728 1.05428C11.2012 1.06698 11.2431 1.10017 11.2724 1.17082L11.8458 2.66699C11.9044 2.82391 11.8325 2.96241 11.754 3.00791C11.7217 3.02225 11.696 3.01989 11.672 3.00917C11.6436 2.99647 11.6017 2.96327 11.5724 2.89263L10.999 1.39647Z" stroke="#FC6600" stroke-opacity="0.8" stroke-width="0.8" stroke-miterlimit="10"/>
<path d="M10.6145 6.69889L10.6145 6.69894C10.4355 6.97527 10.282 7.26447 10.1564 7.56258L17.4501 13.7194C17.6371 13.5137 17.8125 13.2874 17.972 13.0412C18.7341 11.8642 19.012 10.4288 18.8344 9.07586C18.6567 7.7225 18.0263 6.45357 17.0029 5.58983L10.6145 6.69889ZM10.6145 6.69889C11.3768 5.52148 12.4767 4.8227 13.6204 4.62663M10.6145 6.69889L13.6204 4.62663M13.6204 4.62663C14.7735 4.4368 15.9917 4.73642 17.0029 5.58982L13.6204 4.62663Z" stroke="#FC6600" stroke-opacity="0.8" stroke-width="0.8" stroke-miterlimit="10"/>
<path d="M22.3985 10.824L22.3985 10.824L22.4014 10.8244C22.4313 10.8281 22.4681 10.8457 22.5008 10.8922C22.5336 10.9389 22.5565 11.009 22.5493 11.092C22.5395 11.174 22.5041 11.2313 22.4696 11.2624C22.4367 11.2922 22.4083 11.297 22.3854 11.2937L22.3854 11.2936L22.3799 11.2929L20.9541 11.105L20.9541 11.105L20.9513 11.1046C20.9211 11.1009 20.8846 11.0831 20.8529 11.0378C20.8207 10.992 20.7994 10.9241 20.8083 10.8448L20.8083 10.8448L20.8089 10.8383C20.817 10.7536 20.8523 10.6961 20.8856 10.6656C20.9172 10.6368 20.9446 10.632 20.9672 10.6353L20.9672 10.6354L20.9727 10.6361L22.3985 10.824Z" stroke="#FC6600" stroke-opacity="0.8" stroke-width="0.8" stroke-miterlimit="10"/>
<path d="M20.8638 15.3175C20.8638 15.3175 20.8639 15.3175 20.8639 15.3176C20.9487 15.3893 20.9839 15.5674 20.904 15.6909L21.2397 15.9081L20.9042 15.6906C20.8707 15.7422 20.8315 15.7607 20.8039 15.7654C20.7776 15.77 20.7463 15.7652 20.7129 15.7371C20.7129 15.737 20.7129 15.737 20.7129 15.737L19.563 14.7664C19.5629 14.7664 19.5629 14.7664 19.5629 14.7664C19.4781 14.6946 19.4428 14.5165 19.5227 14.393L19.1869 14.1757L19.5225 14.3934C19.556 14.3417 19.5953 14.3232 19.6229 14.3185C19.6492 14.314 19.6804 14.3187 19.7138 14.3469C19.7138 14.3469 19.7139 14.3469 19.7139 14.3469L20.8638 15.3175Z" stroke="#FC6600" stroke-opacity="0.8" stroke-width="0.8" stroke-miterlimit="10"/>
<path d="M15.176 0.613296L15.176 0.613298L15.1764 0.609092C15.1845 0.524584 15.2199 0.465642 15.2546 0.433383C15.2884 0.401989 15.3163 0.398318 15.3341 0.4006L15.3355 0.400768C15.3657 0.404531 15.4022 0.4223 15.4339 0.467554C15.466 0.513395 15.4874 0.581327 15.4785 0.660609L15.4785 0.660606L15.478 0.664919L15.3135 2.2928L15.3134 2.2928L15.3132 2.295C15.3051 2.3797 15.2699 2.43721 15.2365 2.46766C15.205 2.49647 15.1776 2.50125 15.155 2.49795L15.155 2.49786L15.1466 2.49681C15.1164 2.49305 15.0799 2.47528 15.0482 2.43003C15.0161 2.38419 14.9947 2.31625 15.0036 2.23697L15.0038 2.23467L15.176 0.613296Z" stroke="#FC6600" stroke-opacity="0.8" stroke-width="0.8" stroke-miterlimit="10"/>
<path d="M19.1213 2.30636C19.1213 2.30633 19.1214 2.30629 19.1214 2.30626C19.1567 2.25188 19.1964 2.23396 19.2214 2.22954C19.2442 2.22554 19.2752 2.22839 19.3126 2.25983C19.3973 2.33167 19.4325 2.50962 19.3526 2.63305L18.5025 3.94598C18.5025 3.94602 18.5025 3.94607 18.5025 3.94612C18.4692 3.99738 18.431 4.01469 18.405 4.01903C18.3798 4.02323 18.348 4.01878 18.3132 3.9895C18.2277 3.91702 18.1938 3.73879 18.2713 3.6188C18.2713 3.61875 18.2713 3.61871 18.2713 3.61867L19.1213 2.30636Z" stroke="#FC6600" stroke-opacity="0.8" stroke-width="0.8" stroke-miterlimit="10"/>
<path d="M21.7765 6.05566C21.8109 6.03905 21.8379 6.04111 21.863 6.05233C21.8911 6.06492 21.9326 6.09768 21.9619 6.16716C22.0201 6.3283 21.9436 6.46468 21.8685 6.50462L20.558 7.15934C20.5236 7.17596 20.4966 7.17389 20.4715 7.16268C20.4433 7.15008 20.4019 7.11732 20.3726 7.04786C20.3159 6.89087 20.3894 6.75299 20.4682 6.70928L21.7765 6.05566Z" stroke="#FC6600" stroke-opacity="0.8" stroke-width="0.8" stroke-miterlimit="10"/>
</svg>
