<svg width="58" height="59" viewBox="0 0 58 59" fill="none" xmlns="http://www.w3.org/2000/svg">
<path d="M29.7339 4.23438L28.6011 7.63281H38.4565L37.3237 4.23438H29.7339ZM18.1225 4.91406C15.1772 4.91406 13.0022 5.94719 11.6768 7.54672C10.3424 9.14512 9.85301 11.2012 9.85301 13.1836V42.9766H11.8921V13.1836C11.8921 11.541 12.3112 9.97207 13.2401 8.85172C14.1804 7.7325 15.6304 6.95312 18.1225 6.95312H26.6753L27.355 4.91406H18.1225ZM27.1057 9.67188L23.8072 12.8799C23.4855 13.1927 23.8436 13.7167 24.252 13.5306L26.9018 12.3227L23.649 20.516C23.4916 20.9125 23.9812 21.247 24.2934 20.9563L30.085 15.5625L29.993 23.2347C29.9875 23.6952 30.6365 23.7988 30.7746 23.3594L33.5628 14.4863L40.2124 25.5785C40.4477 25.9709 41.0509 25.7248 40.9445 25.2798L38.0034 12.9797L43.3157 16.098C43.6896 16.3175 44.0967 15.8684 43.8417 15.5177L39.5893 9.67188H27.1057ZM8.21609 45.0156L7.64062 56.3438H14.1011L13.5233 45.0156H8.21609Z" fill="#FC6600"/>
</svg>
