<svg width="38" height="39" viewBox="0 0 38 39" fill="none" xmlns="http://www.w3.org/2000/svg">
<path d="M19.4827 2.94922L18.7405 5.17578H25.1975L24.4554 2.94922H19.4827ZM11.8753 3.39453C9.94559 3.39453 8.52059 4.07141 7.65223 5.11938C6.77793 6.1666 6.4573 7.51367 6.4573 8.8125V28.332H7.79324V8.8125C7.79324 7.73633 8.06785 6.7084 8.67645 5.97438C9.29246 5.24109 10.2425 4.73047 11.8753 4.73047H17.4788L17.9241 3.39453H11.8753ZM17.7608 6.51172L14.5175 9.66602L17.6272 8.24844L15.0667 14.698L19.7128 10.3711L19.6311 17.177L21.9913 9.66602L27.2237 18.3941L24.9007 8.67891L29.4651 11.3582L25.9397 6.51172H17.7608ZM5.38484 29.668L5.00781 37.0898H9.24051L8.86199 29.668H5.38484Z" fill="#222222" fill-opacity="0.6"/>
</svg>
