<svg width="50" height="41" viewBox="0 0 50 41" fill="none" xmlns="http://www.w3.org/2000/svg">
<path d="M1.09151 31.111V27.0253C3.64595 26.1352 5.84451 26.7808 9.0493 27.7448L9.04961 27.7449L9.13429 27.7703C9.96803 28.0204 10.8753 28.2926 11.6984 28.5091C12.1784 28.6356 12.7396 28.5548 13.2877 28.413C13.8399 28.2702 14.4451 28.0464 15.0394 27.8267L15.0575 27.82C15.0576 27.82 15.0576 27.82 15.0576 27.82C16.5746 27.2592 18.0823 26.7096 19.8833 26.7551L19.8834 26.7551C21.1963 26.788 22.3117 27.3884 23.5367 28.0574C23.5367 28.0574 23.5367 28.0574 23.5368 28.0574L23.7285 27.7064L1.09151 31.111ZM1.09151 31.111C2.12605 30.5344 3.1127 30.3487 4.15818 30.4081C5.32118 30.4742 6.55425 30.8451 7.97431 31.2723L7.97794 31.2734L7.99149 31.2778L8.00826 31.2835C8.04801 31.2954 8.08793 31.3074 8.12804 31.3194C8.88491 31.5467 9.70942 31.7942 10.7813 32.0737L10.7816 32.0738C12.7647 32.5925 14.4386 31.9873 16.3277 31.2893L16.33 31.2884L16.5136 31.2219C16.514 31.2218 16.5143 31.2216 16.5147 31.2215C17.5717 30.831 18.7492 30.4144 19.7968 30.4402L19.7972 30.4402C19.9346 30.4438 20.0785 30.4813 20.2077 30.5247C20.3424 30.57 20.489 30.6314 20.6398 30.701C20.9405 30.84 21.2843 31.024 21.6241 31.2098C21.6245 31.21 21.6249 31.2102 21.6252 31.2104L21.7772 31.2922L21.7798 31.2936C23.0139 31.9697 24.1764 32.5922 25.5441 32.6435C27.2221 32.7061 28.4191 32.0086 29.7108 31.2448L29.7139 31.2429L29.7139 31.243L29.8623 31.157C29.8625 31.1569 29.8628 31.1567 29.8631 31.1565C30.1865 30.9668 30.5233 30.773 30.839 30.6247C31.1461 30.4805 31.4794 30.3564 31.7877 30.3453L31.7888 30.3453C32.2207 30.331 32.6689 30.4329 33.1012 30.5761C33.535 30.7198 33.9803 30.9148 34.4059 31.1042C34.4061 31.1043 34.4063 31.1044 34.4065 31.1044L34.5045 31.1478L34.506 31.1485C35.6547 31.6618 36.7352 32.1389 38.0575 32.24L1.09151 31.111ZM36.0048 27.7827L36.0045 27.7825C34.638 27.1742 33.3428 26.6041 31.6728 26.66L36.0048 27.7827ZM36.0048 27.7827C36.0259 27.7921 36.0472 27.8015 36.0685 27.811C36.8025 28.1372 37.6191 28.5002 38.3285 28.5528C38.7464 28.5856 39.1849 28.4241 39.5772 28.2298C39.9683 28.036 40.3774 27.7757 40.7588 27.533L40.7907 27.5127L40.7918 27.512M36.0048 27.7827L40.7918 27.512M40.7918 27.512C41.9004 26.8015 42.9064 26.1662 44.2215 26.0195M40.7918 27.512L44.2215 26.0195M41.0228 6.01416L41.0235 6.01404C41.7605 5.90348 42.2403 5.49815 42.5069 4.96273C42.78 4.41437 42.8358 3.71167 42.6632 3.03445C42.4912 2.3595 42.1004 1.74127 41.5207 1.34821C40.9487 0.960377 40.1604 0.769436 39.1405 0.999185C39.133 1.00088 39.1254 1.00235 39.1178 1.00361L26.4098 3.10409L26.4093 3.10417C26.1589 3.14525 25.8886 3.1832 25.6055 3.22293C25.0705 3.29805 24.4898 3.37957 23.9115 3.5007C23.0241 3.68658 22.2707 3.94431 21.842 4.32716C21.367 4.7517 21.1528 5.3431 21.2709 6.14562L21.2709 6.14584C21.3555 6.72302 21.6456 7.40278 22.017 8.1111C22.2426 8.54136 22.4789 8.94825 22.7057 9.33884C22.8583 9.60161 23.0066 9.857 23.1445 10.1072C23.1446 10.1074 23.1447 10.1076 23.1448 10.1077L24.7152 12.9353C24.8551 13.187 24.9873 13.4109 25.1087 13.6141C25.1327 13.6543 25.1564 13.6939 25.1797 13.7329C25.2732 13.889 25.3608 14.0353 25.4371 14.1694C25.6197 14.4904 25.7843 14.8161 25.8073 15.1421C25.8338 15.5182 25.6733 15.8236 25.3907 16.0913C25.126 16.3421 24.7248 16.5891 24.1946 16.8739L24.1946 16.8739L10.6182 24.1638L10.69 24.1851L13.7372 24.231C14.0701 24.1197 14.4179 23.9912 14.7794 23.8567L14.7802 23.8564L14.7808 23.8561C16.2873 23.2993 17.9296 22.6922 19.9036 22.7422C21.4269 22.7804 22.7 23.4757 23.8886 24.1248L23.9177 24.1407L23.9202 24.1421L24.3781 24.388L26.9673 24.4285C27.1188 24.3431 27.273 24.2528 27.426 24.1616L27.4274 24.1608L27.4512 24.1467C28.6267 23.4524 29.8896 22.7065 31.6423 22.6472L31.6424 22.6472C33.5099 22.5847 34.9563 23.2286 36.3077 23.8302L36.326 23.8384L41.0228 6.01416ZM41.0228 6.01416L35.4188 6.86621C35.4187 6.86622 35.4187 6.86622 35.4187 6.86623C33.8527 7.10395 32.2943 7.33366 30.728 7.55937L30.7245 7.55991C30.4859 7.59647 30.229 7.64938 30.0161 7.74707C29.8026 7.84504 29.557 8.02552 29.4941 8.35052L29.4939 8.35141C29.4344 8.66196 29.4977 8.98626 29.6001 9.28394C29.7041 9.58648 29.8627 9.90126 30.0371 10.2084C30.2105 10.5138 30.4078 10.8258 30.596 11.1233L30.6011 11.1315C30.7932 11.4352 30.9748 11.7227 31.1251 11.9902C31.1252 11.9902 31.1252 11.9902 31.1252 11.9902L38.1588 24.5126M41.0228 6.01416L38.1588 24.5126M38.1588 24.5126C37.6412 24.4198 37.0221 24.1475 36.3263 23.8385L38.1588 24.5126ZM44.2215 26.0195C44.9917 25.9347 45.817 26.0724 46.6592 26.3246C47.4298 26.5553 48.1913 26.8744 48.9183 27.1862V27.1885V27.1979V27.2073V27.2168V27.2262V27.2356V27.245V27.2544V27.2638V27.2732V27.2826V27.292V27.3014V27.3108V27.3202V27.3296V27.339V27.3484V27.3578V27.3672V27.3766V27.386V27.3955V27.4049V27.4143V27.4237V27.4331V27.4425V27.4519V27.4613V27.4707V27.4801V27.4895V27.4989V27.5083V27.5177V27.5271V27.5366V27.546V27.5554V27.5648V27.5742V27.5836V27.593V27.6024V27.6118V27.6212V27.6306V27.64V27.6494V27.6589V27.6683V27.6777V27.6871V27.6965V27.7059V27.7153V27.7247V27.7341V27.7435V27.7529V27.7623V27.7718V27.7812V27.7906V27.8V27.8094V27.8188V27.8282V27.8376V27.847V27.8564V27.8658V27.8753V27.8847V27.8941V27.9035V27.9129V27.9223V27.9317V27.9411V27.9505V27.9599V27.9694V27.9788V27.9882V27.9976V28.007V28.0164V28.0258V28.0352V28.0446V28.054V28.0635V28.0729V28.0823V28.0917V28.1011V28.1105V28.1199V28.1293V28.1387V28.1481V28.1576V28.167V28.1764V28.1858V28.1952V28.2046V28.214V28.2234V28.2328V28.2423V28.2517V28.2611V28.2705V28.2799V28.2893V28.2987V28.3081V28.3176V28.327V28.3364V28.3458V28.3552V28.3646V28.374V28.3834V28.3928V28.4023V28.4117V28.4211V28.4305V28.4399V28.4493V28.4587V28.4681V28.4776V28.487V28.4964V28.5058V28.5152V28.5246V28.534V28.5434V28.5529V28.5623V28.5717V28.5811V28.5905V28.5999V28.6093V28.6187V28.6282V28.6376V28.647V28.6564V28.6658V28.6752V28.6846V28.694V28.7035V28.7129V28.7223V28.7317V28.7411V28.7505V28.7599V28.7693V28.7788V28.7882V28.7976V28.807V28.8164V28.8258V28.8352V28.8447V28.8541V28.8635V28.8729V28.8823V28.8917V28.9011V28.9105V28.92V28.9294V28.9388V28.9482V28.9576V28.967V28.9764V28.9859V28.9953V29.0047V29.0141V29.0235V29.0329V29.0423V29.0517V29.0612V29.0706V29.08V29.0894V29.0988V29.1082V29.1176V29.1271V29.1365V29.1459V29.1553V29.1647V29.1741V29.1835V29.193V29.2024V29.2118V29.2212V29.2306V29.24V29.2494V29.2588V29.2683V29.2777V29.2871V29.2965V29.3059V29.3153V29.3247V29.3342V29.3436V29.353V29.3624V29.3718V29.3812V29.3906V29.4001V29.4095V29.4189V29.4283V29.4377V29.4471V29.4565V29.4659V29.4754V29.4848V29.4942V29.5036V29.513V29.5224V29.5318V29.5413V29.5507V29.5601V29.5695V29.5789V29.5883V29.5977V29.6072V29.6166V29.626V29.6354V29.6448V29.6542V29.6636V29.673V29.6825V29.6919V29.7013V29.7107V29.7201V29.7295V29.7389V29.7484V29.7578V29.7672V29.7766V29.786V29.7954V29.8048V29.8142V29.8237V29.8331V29.8425V29.8519V29.8613V29.8707V29.8801V29.8896V29.899V29.9084V29.9178V29.9272V29.9366V29.946V29.9554V29.9649V29.9743V29.9837V29.9931V30.0025V30.0119V30.0213V30.0307V30.0402V30.0496V30.059V30.0684V30.0778V30.0872V30.0966V30.106V30.1155V30.1249V30.1343V30.1437V30.1531V30.1625V30.1719V30.1813V30.1908V30.2002V30.2096V30.219V30.2284V30.2378V30.2472V30.2566V30.2661V30.2755V30.2849V30.2943V30.3037V30.3131V30.3225V30.3319V30.3414V30.3508V30.3602V30.3696V30.379V30.3884V30.3978V30.4072V30.4166V30.4261V30.4355V30.4449V30.4543V30.4637V30.4731V30.4825V30.4919V30.5013V30.5108V30.5202V30.5296V30.539V30.5484V30.5578V30.5672V30.5766V30.586V30.5954V30.6049V30.6143V30.6237V30.6331V30.6425V30.6519V30.6613V30.6707V30.6801V30.6896V30.699V30.7084V30.7178V30.7272V30.7366V30.746V30.7554V30.7648V30.7742V30.7836V30.7931V30.8025V30.8119V30.8213V30.8307V30.8401V30.8495V30.8589V30.8683V30.8777V30.8871V30.8966V30.906V30.9154V30.9248V30.9342V30.9436V30.953V30.9624V30.9718V30.9812V30.9906V31.0001V31.0095V31.0189V31.0283V31.0377V31.0471V31.0565V31.0659V31.0753V31.0847V31.0941V31.1035V31.1129V31.1224V31.1318V31.1412V31.1506V31.16V31.1694V31.1788V31.1862C48.759 31.1269 48.595 31.0618 48.4252 30.9928C48.2365 30.9147 48.0436 30.8324 47.8456 30.7479C47.7852 30.7222 47.7244 30.6963 47.6631 30.6702L44.2215 26.0195ZM42.9781 30.9548C43.6268 30.5388 44.2643 30.1309 44.6678 30.0871L44.6237 29.6896C44.624 29.6895 44.6244 29.6895 44.6247 29.6895C44.8231 29.6677 45.0525 29.7061 45.268 29.7591C45.4938 29.8146 45.7475 29.8975 46.0102 29.9934C46.5123 30.1768 47.0784 30.4195 47.5929 30.6401L47.6621 30.6698L42.5351 30.7623C42.3727 30.8656 42.2109 30.9684 42.0479 31.0699M42.9781 30.9548L42.7642 30.6168C42.7639 30.617 42.7637 30.6172 42.7634 30.6173C42.763 30.6176 42.7626 30.6178 42.7622 30.6181L42.9781 30.9548ZM42.9781 30.9548C42.903 31.0024 42.8274 31.0504 42.7517 31.0986C42.5879 31.2028 42.4229 31.3077 42.2577 31.4105M42.2577 31.4105L42.0496 31.0689C42.049 31.0693 42.0485 31.0696 42.0479 31.0699M42.2577 31.4105L42.0463 31.071C42.0468 31.0706 42.0474 31.0703 42.0479 31.0699M42.2577 31.4105L42.0479 31.0699M42.0479 31.0699C40.8691 31.7877 39.6524 32.3611 38.0577 32.24L42.0479 31.0699ZM41.5341 10.5781C44.3876 10.5781 46.7025 12.8945 46.7025 15.7529C46.7025 18.6113 44.3881 20.9277 41.5341 20.9277C38.6802 20.9277 36.3659 18.6116 36.3656 15.7534C36.3694 12.8903 38.6808 10.5781 41.5341 10.5781Z" stroke="#FC6600" stroke-width="0.8" stroke-miterlimit="10" stroke-linecap="round" stroke-linejoin="round"/>
<path d="M9.04961 35.1973L9.0493 35.1972C5.84451 34.2332 3.64595 33.5876 1.09151 34.4777V38.5634C2.12605 37.9868 3.1127 37.8012 4.15818 37.8605C5.32118 37.9266 6.55425 38.2975 7.9743 38.7247L7.97794 38.7258L7.99149 38.7302L8.00825 38.7359C8.04802 38.7478 8.08795 38.7598 8.12808 38.7719C8.88493 38.9991 9.70944 39.2466 10.7813 39.5261L10.7816 39.5262C12.7647 40.0449 14.4386 39.4397 16.3277 38.7417L16.33 38.7409L16.33 38.7409L16.5136 38.6743C16.514 38.6742 16.5143 38.674 16.5147 38.6739C17.5717 38.2834 18.7492 37.8668 19.7968 37.8926L19.7972 37.8927C19.9346 37.8962 20.0785 37.9337 20.2077 37.9771C20.3424 38.0224 20.489 38.0838 20.6398 38.1535C20.9405 38.2924 21.2843 38.4764 21.6241 38.6622C21.6245 38.6624 21.6249 38.6626 21.6252 38.6629L21.7772 38.7446L21.7798 38.746C23.014 39.4222 24.1765 40.0447 25.5442 40.0959C27.2221 40.1584 28.4191 39.461 29.7108 38.6972L29.7139 38.6954L29.7139 38.6954L29.8623 38.6094C29.8626 38.6092 29.8629 38.6091 29.8631 38.6089C30.1866 38.4192 30.5233 38.2254 30.839 38.0772C31.1461 37.9329 31.4794 37.8088 31.7877 37.7977L31.7888 37.7977C32.2207 37.7834 32.6689 37.8853 33.1012 38.0285C33.535 38.1722 33.9803 38.3672 34.4059 38.5566C34.4061 38.5567 34.4063 38.5568 34.4065 38.5569L34.5045 38.6002L34.506 38.6009C35.6547 39.1142 36.7353 39.5913 38.0577 39.6924C39.6524 39.8135 40.8691 39.2402 42.0479 38.5224C42.2109 38.4209 42.3726 38.318 42.535 38.2147C42.6109 38.1665 42.687 38.1181 42.7634 38.0698C43.0844 37.8639 43.4177 37.6502 43.7227 37.483C44.0155 37.3225 44.3366 37.1732 44.6242 37.1419M9.04961 35.1973L44.6678 37.5395M9.04961 35.1973L9.13169 35.2219L9.13539 35.2231M9.04961 35.1973L9.13539 35.2231M44.6242 37.1419C44.6244 37.1419 44.6245 37.1419 44.6247 37.1419L44.6678 37.5395M44.6242 37.1419C44.6241 37.1419 44.6239 37.142 44.6237 37.142L44.6678 37.5395M44.6242 37.1419C44.819 37.1204 45.0433 37.1571 45.254 37.2081C45.4744 37.2614 45.7216 37.3413 45.9777 37.434C46.4877 37.6187 47.066 37.8666 47.5904 38.0914L47.5969 38.0942L47.6621 38.1222M44.6678 37.5395C45.1604 37.4849 46.3814 38.0083 47.4393 38.4618L47.5055 38.4903M47.6621 38.1222L47.5055 38.4903M47.6621 38.1222L47.6631 38.1226L47.5055 38.4903M47.6621 38.1222C47.7239 38.1484 47.7851 38.1746 47.8459 38.2005C48.0438 38.2849 48.2364 38.3671 48.425 38.4451M47.5055 38.4903C47.5664 38.5161 47.627 38.542 47.6874 38.5678C47.8862 38.6526 48.0821 38.7361 48.2733 38.8152M48.2733 38.8152L48.4239 38.4446C48.4242 38.4448 48.4246 38.4449 48.425 38.4451M48.2733 38.8152C48.4927 38.9044 48.7077 38.9892 48.9183 39.0644V38.6386M48.2733 38.8152L48.4262 38.4456C48.4258 38.4454 48.4254 38.4452 48.425 38.4451M48.425 38.4451C48.5948 38.5141 48.759 38.5793 48.9183 38.6386M48.9183 38.6386C49.0549 38.6895 49.188 38.7361 49.3183 38.7773V34.3777M48.9183 38.6386V34.6386M48.9183 34.6386C48.9799 34.665 49.0413 34.6914 49.1025 34.7177L49.1108 34.7213L49.1409 34.7362L49.3183 34.3777M48.9183 34.6386C48.1882 34.3255 47.4232 34.005 46.6495 33.7741C45.8105 33.5237 44.9885 33.3874 44.2213 33.4719M48.9183 34.6386V34.3777H49.2486H49.2689L49.2786 34.358M49.3183 34.3777H49.2702M49.3183 34.3777L49.2786 34.358M49.2702 34.3777L40.576 34.6276C41.6763 33.9224 42.7565 33.2328 44.1774 33.0743M49.2702 34.3777L49.2786 34.358M49.2702 34.3777L44.2213 33.4719M49.2786 34.358L49.2604 34.3502C47.6972 33.6784 45.8606 32.8889 44.1774 33.0743M44.1774 33.0743L44.2212 33.4719C44.2212 33.4719 44.2213 33.4719 44.2213 33.4719M44.1774 33.0743L44.2217 33.4719C44.2216 33.4719 44.2214 33.4719 44.2213 33.4719M11.6985 35.9616C11.6984 35.9616 11.6984 35.9616 11.6984 35.9615L11.8003 35.5747L11.6985 35.9616ZM11.6985 35.9616C10.8756 35.7451 9.96873 35.473 9.13539 35.2231M11.6985 35.9616L9.13539 35.2231M38.3598 35.6064L38.3285 36.0052C38.3292 36.0053 38.3298 36.0053 38.3305 36.0054L38.3598 35.6064ZM31.6729 34.1124L31.6594 33.7126L31.6728 34.1124L31.6729 34.1124ZM19.8833 34.2076L19.8834 34.2076L15.0576 35.2724C16.5746 34.7116 18.0823 34.162 19.8833 34.2076ZM15.0515 35.2746L14.9133 34.901L15.0515 35.2746L15.0515 35.2746ZM14.9189 34.8972L15.0575 35.2724L14.9189 34.8972ZM23.7285 35.1588L23.5364 35.5096C23.5364 35.5096 23.5365 35.5097 23.5365 35.5097C23.5366 35.5097 23.5367 35.5098 23.5368 35.5098L23.7285 35.1588Z" stroke="#FC6600" stroke-width="0.8" stroke-miterlimit="10" stroke-linecap="round" stroke-linejoin="round"/>
</svg>
