<svg width="37" height="52" viewBox="0 0 37 52" fill="none" xmlns="http://www.w3.org/2000/svg">
<path d="M19.7859 10.6016L12.0859 22.1515H17.2192V29.8514L24.9192 18.3015H19.7859V10.6016Z" fill="#222222" fill-opacity="0.6"/>
<path fill-rule="evenodd" clip-rule="evenodd" d="M36.3523 19.9362C35.9627 23.2411 34.6342 26.3653 32.5242 28.9387C31.2896 30.4479 28.1519 34.7547 27.4846 37.5524H9.518C8.85067 34.7522 5.70909 30.444 4.47453 28.9348C2.36546 26.3603 1.03831 23.2352 0.650224 19.9298C0.267746 16.6313 0.843374 13.2925 2.30828 10.3125C3.78614 7.30926 6.08483 4.78631 8.93794 3.03606C11.8148 1.26701 15.1266 0.332194 18.5038 0.335949C21.8893 0.335949 25.2054 1.27278 28.0697 3.03991C30.9221 4.79088 33.2199 7.31426 34.6968 10.3176C36.1611 13.2982 36.7359 16.6375 36.3523 19.9362ZM25.6661 34.9857H11.3352C10.7885 33.7242 10.0583 32.4601 9.37812 31.386C8.48278 29.9746 7.50936 28.6143 6.4624 27.3114C4.66358 25.1164 3.53148 22.4518 3.20019 19.6333C2.87426 16.8243 3.36435 13.9809 4.61185 11.4431C5.87651 8.87479 7.8433 6.71756 10.2841 5.22157C12.7562 3.70178 15.602 2.89891 18.5038 2.9026C21.417 2.9026 24.266 3.70981 26.7235 5.22542C29.1634 6.72178 31.1293 8.87898 32.3933 11.447C33.6401 13.9854 34.1293 16.8293 33.8024 19.6384C33.4699 22.4564 32.3369 25.12 30.5376 27.314C29.4889 28.6153 28.5158 29.9757 27.6232 31.3886C26.943 32.4627 26.2128 33.7242 25.6661 34.9857Z" fill="#222222" fill-opacity="0.6"/>
<path d="M9.51562 41.4005C9.51562 41.0602 9.65083 40.7337 9.8915 40.4931C10.1322 40.2524 10.4586 40.1172 10.799 40.1172H26.1989C26.5392 40.1172 26.8656 40.2524 27.1063 40.4931C27.347 40.7337 27.4822 41.0602 27.4822 41.4005C27.4822 41.7409 27.347 42.0673 27.1063 42.308C26.8656 42.5486 26.5392 42.6838 26.1989 42.6838H10.799C10.4586 42.6838 10.1322 42.5486 9.8915 42.308C9.65083 42.0673 9.51562 41.7409 9.51562 41.4005Z" fill="#222222" fill-opacity="0.6"/>
<path fill-rule="evenodd" clip-rule="evenodd" d="M9.51562 45.25H27.4822V49.1C27.4822 49.7807 27.2118 50.4335 26.7304 50.9149C26.2491 51.3962 25.5962 51.6666 24.9155 51.6666H12.0823C11.4016 51.6666 10.7487 51.3962 10.2674 50.9149C9.78604 50.4335 9.51562 49.7807 9.51562 49.1V45.25ZM12.0823 47.8166H24.9155V49.1H12.0823V47.8166Z" fill="#222222" fill-opacity="0.6"/>
</svg>
