<svg width="42" height="42" viewBox="0 0 42 42" fill="none" xmlns="http://www.w3.org/2000/svg">
<mask id="path-1-inside-1_2146_21621" fill="white">
<path d="M21.8463 9.07547H21.5319L20.2675 7.15809V9.07547H19.9531V6.66406H20.2675L21.5319 8.57799V6.66406H21.8463V9.07547Z"/>
</mask>
<path d="M21.8463 9.07547V10.0755H22.8463V9.07547H21.8463ZM21.5319 9.07547L20.6971 9.626L20.9935 10.0755H21.5319V9.07547ZM20.2675 7.15809L21.1023 6.60756L19.2675 3.82526V7.15809H20.2675ZM20.2675 9.07547V10.0755H21.2675V9.07547H20.2675ZM19.9531 9.07547H18.9531V10.0755H19.9531V9.07547ZM19.9531 6.66406V5.66406H18.9531V6.66406H19.9531ZM20.2675 6.66406L21.1019 6.11284L20.8054 5.66406H20.2675V6.66406ZM21.5319 8.57799L20.6976 9.12921L22.5319 11.9058V8.57799H21.5319ZM21.5319 6.66406V5.66406H20.5319V6.66406H21.5319ZM21.8463 6.66406H22.8463V5.66406H21.8463V6.66406ZM21.8463 8.07547H21.5319V10.0755H21.8463V8.07547ZM22.3668 8.52494L21.1023 6.60756L19.4327 7.70862L20.6971 9.626L22.3668 8.52494ZM19.2675 7.15809V9.07547H21.2675V7.15809H19.2675ZM20.2675 8.07547H19.9531V10.0755H20.2675V8.07547ZM20.9531 9.07547V6.66406H18.9531V9.07547H20.9531ZM19.9531 7.66406H20.2675V5.66406H19.9531V7.66406ZM19.4331 7.21528L20.6976 9.12921L22.3663 8.02677L21.1019 6.11284L19.4331 7.21528ZM22.5319 8.57799V6.66406H20.5319V8.57799H22.5319ZM21.5319 7.66406H21.8463V5.66406H21.5319V7.66406ZM20.8463 6.66406V9.07547H22.8463V6.66406H20.8463Z" fill="#FC6600" fill-opacity="0.8" mask="url(#path-1-inside-1_2146_21621)"/>
<mask id="path-3-inside-2_2146_21621" fill="white">
<path d="M7.35938 19.2979L9.76733 19.9957V20.3481L7.82922 20.9078L9.76733 21.4882L9.77078 21.8371L7.35938 22.5108V22.1756L9.40113 21.6505L7.35938 21.0701V20.7177L9.39422 20.165L7.35938 19.6364V19.2979Z"/>
</mask>
<path d="M7.35938 19.2979L7.63773 18.3374L6.35938 17.9669V19.2979H7.35938ZM9.76733 19.9957H10.7673V19.2444L10.0457 19.0352L9.76733 19.9957ZM9.76733 20.3481L10.0448 21.3088L10.7673 21.1002V20.3481H9.76733ZM7.82922 20.9078L7.55178 19.947L4.28517 20.8903L7.54234 21.8657L7.82922 20.9078ZM9.76733 21.4882L10.7673 21.4783L10.76 20.7415L10.0542 20.5302L9.76733 21.4882ZM9.77078 21.8371L10.0398 22.8002L10.7783 22.5939L10.7707 21.8272L9.77078 21.8371ZM7.35938 22.5108H6.35938V23.8284L7.62844 23.4739L7.35938 22.5108ZM7.35938 22.1756L7.11029 21.2072L6.35938 21.4003V22.1756H7.35938ZM9.40113 21.6505L9.65021 22.619L13.2281 21.6988L9.67456 20.6886L9.40113 21.6505ZM7.35938 21.0701H6.35938V21.8255L7.08594 22.032L7.35938 21.0701ZM7.35938 20.7177L7.09723 19.7527L6.35938 19.9532V20.7177H7.35938ZM9.39422 20.165L9.65636 21.13L13.2884 20.1434L9.64563 19.1971L9.39422 20.165ZM7.35938 19.6364H6.35938V20.4098L7.10796 20.6043L7.35938 19.6364ZM7.08102 20.2583L9.48897 20.9562L10.0457 19.0352L7.63773 18.3374L7.08102 20.2583ZM8.76733 19.9957V20.3481H10.7673V19.9957H8.76733ZM9.48989 19.3873L7.55178 19.947L8.10665 21.8685L10.0448 21.3088L9.48989 19.3873ZM7.54234 21.8657L9.48045 22.4461L10.0542 20.5302L8.1161 19.9498L7.54234 21.8657ZM8.76738 21.4981L8.77083 21.847L10.7707 21.8272L10.7673 21.4783L8.76738 21.4981ZM9.50172 20.874L7.09031 21.5476L7.62844 23.4739L10.0398 22.8002L9.50172 20.874ZM8.35938 22.5108V22.1756H6.35938V22.5108H8.35938ZM7.60846 23.1441L9.65021 22.619L9.15204 20.682L7.11029 21.2072L7.60846 23.1441ZM9.67456 20.6886L7.63281 20.1082L7.08594 22.032L9.12769 22.6124L9.67456 20.6886ZM8.35938 21.0701V20.7177H6.35938V21.0701H8.35938ZM7.62152 21.6828L9.65636 21.13L9.13207 19.2L7.09723 19.7527L7.62152 21.6828ZM9.64563 19.1971L7.61079 18.6685L7.10796 20.6043L9.1428 21.1329L9.64563 19.1971ZM8.35938 19.6364V19.2979H6.35938V19.6364H8.35938Z" fill="#FC6600" fill-opacity="0.8" mask="url(#path-3-inside-2_2146_21621)"/>
<mask id="path-5-inside-3_2146_21621" fill="white">
<path d="M21.2438 30.4987C21.3692 30.555 21.4677 30.6334 21.5392 30.7336C21.6107 30.8338 21.6473 30.9495 21.6497 31.0808H21.3146C21.3032 30.9679 21.2566 30.8729 21.1747 30.7958C21.0928 30.7188 20.9736 30.6801 20.8171 30.6801C20.6675 30.6801 20.5494 30.7174 20.463 30.7924C20.3766 30.8673 20.3335 30.9634 20.3335 31.0808C20.3335 31.1731 20.3587 31.2477 20.4095 31.3054C20.4603 31.3631 20.5235 31.4066 20.5995 31.4367C20.6755 31.4667 20.7781 31.4989 20.9069 31.5334C21.0659 31.5749 21.193 31.6163 21.2887 31.6578C21.3844 31.6992 21.4659 31.7642 21.534 31.853C21.602 31.9417 21.6359 32.0609 21.6359 32.2105C21.6359 32.3418 21.6024 32.4582 21.5357 32.5595C21.469 32.6607 21.3751 32.7391 21.2542 32.7944C21.1332 32.8497 20.9944 32.8773 20.8379 32.8773C20.6123 32.8773 20.4274 32.821 20.2834 32.708C20.1393 32.595 20.0581 32.4454 20.0398 32.2589H20.3853C20.3967 32.3511 20.445 32.4323 20.5304 32.5025C20.6157 32.5726 20.7283 32.6078 20.8689 32.6078C21.0002 32.6078 21.1073 32.574 21.1902 32.5059C21.2731 32.4379 21.3146 32.3428 21.3146 32.2209C21.3146 32.1335 21.2897 32.062 21.2403 32.0067C21.1909 31.9514 21.1298 31.9093 21.0572 31.8806C20.9847 31.8519 20.8828 31.8191 20.7515 31.7821C20.5926 31.7383 20.4647 31.6951 20.368 31.6526C20.2713 31.6101 20.1884 31.5445 20.1193 31.4557C20.0502 31.3669 20.0156 31.2467 20.0156 31.0946C20.0156 30.9772 20.0467 30.8666 20.1089 30.763C20.1711 30.6594 20.2633 30.5754 20.3853 30.5108C20.5072 30.4462 20.6513 30.4141 20.8171 30.4141C20.976 30.4141 21.1184 30.4424 21.2438 30.4987Z"/>
</mask>
<path d="M21.6497 31.0808V32.0808H22.6683L22.6495 31.0624L21.6497 31.0808ZM21.3146 31.0808L20.3197 31.1812L20.4104 32.0808H21.3146V31.0808ZM20.9069 31.5334L20.648 32.4993L20.6545 32.501L20.9069 31.5334ZM20.0398 32.2589V31.2589H18.9369L19.0446 32.3566L20.0398 32.2589ZM20.3853 32.2589L21.3777 32.1362L21.2693 31.2589H20.3853V32.2589ZM20.7515 31.7821L21.0225 30.8196L21.0176 30.8182L20.7515 31.7821ZM20.8171 30.4141V29.4141V30.4141ZM20.8342 31.411C20.8275 31.408 20.8107 31.3995 20.7891 31.3823C20.767 31.3647 20.7447 31.3418 20.7252 31.3146L22.3531 30.1527C22.1673 29.8924 21.9219 29.707 21.6534 29.5865L20.8342 31.411ZM20.7252 31.3146C20.701 31.2807 20.6808 31.241 20.6673 31.1985C20.6541 31.1567 20.6503 31.1219 20.6499 31.0992L22.6495 31.0624C22.6437 30.7453 22.551 30.43 22.3531 30.1527L20.7252 31.3146ZM21.6497 30.0808H21.3146V32.0808H21.6497V30.0808ZM22.3096 30.9804C22.2742 30.6303 22.1193 30.3115 21.86 30.0675L20.4894 31.5241C20.4484 31.4855 20.4063 31.4324 20.3734 31.3655C20.3406 31.2987 20.325 31.2344 20.3197 31.1812L22.3096 30.9804ZM21.86 30.0675C21.531 29.758 21.1288 29.6801 20.8171 29.6801V31.6801C20.8154 31.6801 20.7767 31.6801 20.7157 31.6604C20.6507 31.6393 20.5678 31.5978 20.4894 31.5241L21.86 30.0675ZM20.8171 29.6801C20.5037 29.6801 20.1265 29.7603 19.8075 30.0372L21.1185 31.5475C20.9723 31.6745 20.8314 31.6801 20.8171 31.6801V29.6801ZM19.8075 30.0372C19.496 30.3076 19.3335 30.6821 19.3335 31.0808H21.3335C21.3335 31.1472 21.3206 31.2356 21.278 31.3304C21.2351 31.4259 21.1753 31.4982 21.1185 31.5475L19.8075 30.0372ZM19.3335 31.0808C19.3335 31.3647 19.4162 31.6905 19.6588 31.9661L21.1601 30.6447C21.2245 30.7178 21.2711 30.8011 21.2997 30.8856C21.3273 30.9673 21.3335 31.0361 21.3335 31.0808H19.3335ZM19.6588 31.9661C19.8218 32.1513 20.0198 32.2828 20.2317 32.3666L20.9672 30.5067C21.0272 30.5304 21.0987 30.5749 21.1601 30.6447L19.6588 31.9661ZM20.2317 32.3666C20.3593 32.417 20.5038 32.4606 20.648 32.4993L21.1659 30.5675C21.0524 30.5371 20.9917 30.5164 20.9672 30.5067L20.2317 32.3666ZM20.6545 32.501C20.7883 32.5359 20.861 32.5623 20.8912 32.5754L21.6862 30.7402C21.525 30.6703 21.3435 30.6138 21.1594 30.5658L20.6545 32.501ZM20.8912 32.5754C20.8582 32.5611 20.8268 32.5422 20.7989 32.52C20.7714 32.4981 20.7523 32.477 20.7403 32.4613L22.3276 31.2446C22.1641 31.0313 21.9499 30.8544 21.6862 30.7402L20.8912 32.5754ZM20.7403 32.4613C20.6898 32.3954 20.6624 32.3311 20.6487 32.2828C20.6421 32.2596 20.6389 32.2412 20.6374 32.2292C20.6359 32.2172 20.6359 32.2106 20.6359 32.2105H22.6359C22.6359 31.9158 22.5688 31.5593 22.3276 31.2446L20.7403 32.4613ZM20.6359 32.2105C20.6359 32.1904 20.6386 32.1588 20.6497 32.1201C20.661 32.0809 20.6785 32.043 20.7006 32.0094L22.3708 33.1095C22.5537 32.832 22.6359 32.5211 22.6359 32.2105H20.6359ZM20.7006 32.0094C20.7216 31.9775 20.7471 31.9493 20.7746 31.9263C20.8016 31.9038 20.8248 31.8911 20.8384 31.8849L21.6699 33.7039C21.9446 33.5783 22.191 33.3825 22.3708 33.1095L20.7006 32.0094ZM20.8384 31.8849C20.8528 31.8783 20.8624 31.8762 20.864 31.8758C20.8653 31.8756 20.8574 31.8773 20.8379 31.8773V33.8773C21.1125 33.8773 21.3973 33.8285 21.6699 33.7039L20.8384 31.8849ZM20.8379 31.8773C20.8077 31.8773 20.8053 31.8735 20.8219 31.8786C20.8406 31.8843 20.87 31.8973 20.9004 31.9211L19.6663 33.4949C20.0246 33.7759 20.4425 33.8773 20.8379 33.8773V31.8773ZM20.9004 31.9211C20.9277 31.9425 20.964 31.98 20.9934 32.0343C21.0226 32.0881 21.0325 32.135 21.035 32.1612L19.0446 32.3566C19.0889 32.8079 19.3019 33.2092 19.6663 33.4949L20.9004 31.9211ZM20.0398 33.2589H20.3853V31.2589H20.0398V33.2589ZM19.3928 32.3816C19.4415 32.7751 19.6518 33.0748 19.8954 33.275L21.1653 31.7299C21.1971 31.756 21.2452 31.8034 21.2892 31.8772C21.3347 31.9536 21.3661 32.0424 21.3777 32.1362L19.3928 32.3816ZM19.8954 33.275C20.2028 33.5276 20.5595 33.6078 20.8689 33.6078V31.6078C20.8972 31.6078 21.0286 31.6175 21.1653 31.7299L19.8954 33.275ZM20.8689 33.6078C21.1769 33.6078 21.5248 33.525 21.8247 33.2789L20.5558 31.733C20.6174 31.6824 20.684 31.6486 20.7456 31.6291C20.8048 31.6103 20.8492 31.6078 20.8689 31.6078V33.6078ZM21.8247 33.2789C22.1724 32.9934 22.3146 32.5961 22.3146 32.2209H20.3146C20.3146 32.1682 20.3238 32.0826 20.367 31.9837C20.4117 31.8811 20.4794 31.7956 20.5558 31.733L21.8247 33.2789ZM22.3146 32.2209C22.3146 31.9331 22.2271 31.6102 21.9859 31.3403L20.4947 32.6731C20.4296 32.6003 20.3814 32.5164 20.3513 32.4296C20.322 32.3451 20.3146 32.272 20.3146 32.2209H22.3146ZM21.9859 31.3403C21.8276 31.1632 21.6348 31.0336 21.4248 30.9506L20.6897 32.8106C20.6248 32.785 20.5543 32.7397 20.4947 32.6731L21.9859 31.3403ZM21.4248 30.9506C21.3057 30.9036 21.1662 30.86 21.0225 30.8196L20.4804 32.7447C20.5993 32.7782 20.6636 32.8003 20.6897 32.8106L21.4248 30.9506ZM21.0176 30.8182C20.8825 30.7809 20.8055 30.7526 20.7702 30.737L19.9658 32.5681C20.1239 32.6376 20.3026 32.6956 20.4854 32.7461L21.0176 30.8182ZM20.7702 30.737C20.8001 30.7501 20.8286 30.7673 20.854 30.7874C20.8791 30.8074 20.897 30.8268 20.9085 30.8415L19.3301 32.0698C19.4943 32.2809 19.7072 32.4545 19.9658 32.5681L20.7702 30.737ZM20.9085 30.8415C21.0169 30.9808 21.0156 31.1014 21.0156 31.0946H19.0156C19.0156 31.3919 19.0835 31.7529 19.3301 32.0698L20.9085 30.8415ZM21.0156 31.0946C21.0156 31.1253 21.0114 31.1595 21.0016 31.1944C20.9918 31.229 20.9786 31.2571 20.9664 31.2775L19.2514 30.2485C19.0988 30.5028 19.0156 30.7905 19.0156 31.0946H21.0156ZM20.9664 31.2775C20.9457 31.3119 20.9217 31.34 20.8985 31.3612C20.8759 31.3817 20.8587 31.3916 20.8534 31.3945L19.9172 29.6271C19.6588 29.764 19.4207 29.9664 19.2514 30.2485L20.9664 31.2775ZM20.8534 31.3945C20.8301 31.4068 20.8119 31.4121 20.8031 31.4141C20.795 31.4159 20.7985 31.4141 20.8171 31.4141V29.4141C20.5218 29.4141 20.2104 29.4718 19.9172 29.6271L20.8534 31.3945ZM20.8171 31.4141C20.8372 31.4141 20.8469 31.4158 20.8483 31.4161C20.8493 31.4163 20.8438 31.4153 20.8342 31.411L21.6534 29.5865C21.3812 29.4642 21.096 29.4141 20.8171 29.4141V31.4141Z" fill="#FC6600" fill-opacity="0.8" mask="url(#path-5-inside-3_2146_21621)"/>
<mask id="path-7-inside-4_2146_21621" fill="white">
<path d="M32.9492 20.6503H32.1442V21.5278H31.8851V20.6503H31.056V21.6315H30.7969V20.3359H33.2083V21.6315H32.9492V20.6503Z"/>
</mask>
<path d="M32.9492 20.6503H33.9492V19.6503H32.9492V20.6503ZM32.1442 20.6503V19.6503H31.1442V20.6503H32.1442ZM32.1442 21.5278V22.5278H33.1442V21.5278H32.1442ZM31.8851 21.5278H30.8851V22.5278H31.8851V21.5278ZM31.8851 20.6503H32.8851V19.6503H31.8851V20.6503ZM31.056 20.6503V19.6503H30.056V20.6503H31.056ZM31.056 21.6315V22.6315H32.056V21.6315H31.056ZM30.7969 21.6315H29.7969V22.6315H30.7969V21.6315ZM30.7969 20.3359V19.3359H29.7969V20.3359H30.7969ZM33.2083 20.3359H34.2083V19.3359H33.2083V20.3359ZM33.2083 21.6315V22.6315H34.2083V21.6315H33.2083ZM32.9492 21.6315H31.9492V22.6315H32.9492V21.6315ZM32.9492 19.6503H32.1442V21.6503H32.9492V19.6503ZM31.1442 20.6503V21.5278H33.1442V20.6503H31.1442ZM32.1442 20.5278H31.8851V22.5278H32.1442V20.5278ZM32.8851 21.5278V20.6503H30.8851V21.5278H32.8851ZM31.8851 19.6503H31.056V21.6503H31.8851V19.6503ZM30.056 20.6503V21.6315H32.056V20.6503H30.056ZM31.056 20.6315H30.7969V22.6315H31.056V20.6315ZM31.7969 21.6315V20.3359H29.7969V21.6315H31.7969ZM30.7969 21.3359H33.2083V19.3359H30.7969V21.3359ZM32.2083 20.3359V21.6315H34.2083V20.3359H32.2083ZM33.2083 20.6315H32.9492V22.6315H33.2083V20.6315ZM33.9492 21.6315V20.6503H31.9492V21.6315H33.9492Z" fill="#FC6600" fill-opacity="0.8" mask="url(#path-7-inside-4_2146_21621)"/>
<path d="M28.3422 26.22L30.9999 26.7736L41 20.9998L30.9999 15.2264L27.9991 15.8515L33.7795 7.45443L26.4628 12.4913L26.7736 11.0001L20.9998 1L15.2264 11.0001L15.657 13.0681L7.50235 7.45443L13.1626 15.6768L11.0001 15.2264L1 20.9998L11.0001 26.7736L12.8195 26.3944L7.50235 34.1184L15.7609 28.4332L15.2264 30.9999L20.9998 41L26.7736 30.9999L26.359 29.01L33.7795 34.1184L28.3422 26.22Z" stroke="#FC6600" stroke-opacity="0.8" stroke-width="0.5" stroke-miterlimit="10" stroke-linejoin="round"/>
<path d="M23.261 16.8057H18.5349L16.1719 20.8985L18.5349 24.9917H23.261L25.624 20.8985L23.261 16.8057Z" stroke="#FC6600" stroke-opacity="0.8" stroke-width="0.5" stroke-miterlimit="10"/>
</svg>
