<svg width="40" height="41" viewBox="0 0 40 41" fill="none" xmlns="http://www.w3.org/2000/svg">
<g clip-path="url(#clip0_2146_22601)">
<path d="M0.632812 20.5003C0.632812 9.80515 9.3039 1.13396 19.9991 1.13379C30.6921 1.14696 39.3555 9.81066 39.3659 20.5008C39.3657 31.1959 30.6945 39.8669 19.9994 39.8669C9.30407 39.8669 0.632812 31.1957 0.632812 20.5003Z" stroke="#FC6600" stroke-miterlimit="10"/>
<path d="M13.7965 22.9716L10.6554 13.1104H7.78906L12.7077 27.8902H14.8827L19.804 13.1104H16.9377L13.7965 22.9716Z" fill="#FC6600"/>
<path d="M31.6221 15.267C31.2352 14.5838 30.6934 14.0527 29.9915 13.6764C29.2896 13.3001 28.4783 13.1133 27.5576 13.1133H24.4164H22.9032H21.6328V27.8931H24.419V22.1579H27.5602C28.481 22.1579 29.2923 21.971 29.9942 21.6001C30.6961 21.2291 31.2405 20.7007 31.6248 20.0201C32.0118 19.3396 32.2039 18.547 32.2039 17.6476C32.2039 16.7482 32.0091 15.9502 31.6221 15.267ZM29.1028 18.6003C28.9613 18.8779 28.7612 19.0941 28.5076 19.2462C28.2541 19.3983 27.9605 19.4757 27.6296 19.4757H24.4164V15.7954H27.6296C27.9685 15.7954 28.2648 15.8728 28.5183 16.0249C28.7719 16.1771 28.9693 16.3932 29.1081 16.6761C29.2469 16.9564 29.3163 17.2819 29.3163 17.6476C29.3163 18.0052 29.2442 18.3228 29.1028 18.6003Z" fill="#FC6600"/>
</g>
<defs>
<clipPath id="clip0_2146_22601">
<rect width="40" height="40" fill="white" transform="translate(0 0.5)"/>
</clipPath>
</defs>
</svg>
