<svg width="36" height="42" viewBox="0 0 36 42" fill="none" xmlns="http://www.w3.org/2000/svg">
<path d="M16.0706 1V8.02031M10.5859 1H21.5552" stroke="#222222" stroke-opacity="0.6" stroke-linecap="round" stroke-linejoin="round"/>
<path d="M1.4375 8.31158V22.9375M27.0327 11.9683H22.681C22.3402 11.971 22.0054 11.8782 21.7146 11.7005C21.4238 11.5227 21.1886 11.2671 21.0356 10.9626L20.2317 9.31724C20.0787 9.01272 19.8435 8.75712 19.5527 8.57939C19.2619 8.40165 18.9272 8.30888 18.5864 8.31158H13.5405C13.1997 8.30888 12.865 8.40165 12.5742 8.57939C12.2834 8.75712 12.0482 9.01272 11.8951 9.31724L11.0904 10.9626C10.9374 11.2671 10.7022 11.5227 10.4114 11.7005C10.1206 11.8782 9.78584 11.971 9.44504 11.9683H1.4375V19.2808H25.2039C25.444 19.2807 25.6818 19.3279 25.9037 19.4197C26.1255 19.5115 26.3271 19.6461 26.497 19.8159C26.6668 19.9856 26.8015 20.1872 26.8934 20.409C26.9854 20.6308 27.0327 20.8686 27.0327 21.1087V24.7654C27.0327 25.2502 27.2253 25.7152 27.5681 26.058C27.9109 26.4008 28.3758 26.5933 28.8606 26.5933H32.5173C33.0021 26.5933 33.467 26.4008 33.8098 26.058C34.1526 25.7152 34.3452 25.2502 34.3452 24.7654V19.2808C34.3452 17.3414 33.5748 15.4814 32.2034 14.1101C30.832 12.7387 28.9721 11.9683 27.0327 11.9683Z" stroke="#222222" stroke-opacity="0.6" stroke-linecap="round" stroke-linejoin="round"/>
<path d="M34.5645 36.6651C34.5645 39.3256 32.8694 41.0004 30.1768 41.0004C27.4841 41.0004 25.7891 39.3256 25.7891 36.6651C25.7891 33.8102 28.9345 29.956 29.8992 28.8411C29.9335 28.8015 29.9761 28.7697 30.024 28.7479C30.072 28.7261 30.1241 28.7148 30.1769 28.7148C30.2297 28.7148 30.2818 28.7261 30.3298 28.7479C30.3777 28.7697 30.4203 28.8015 30.4546 28.8411C31.419 29.956 34.5645 33.8102 34.5645 36.6651Z" stroke="#222222" stroke-opacity="0.6" stroke-miterlimit="10"/>
</svg>
