<svg id="Layer_1" data-name="Layer 1" xmlns="http://www.w3.org/2000/svg" viewBox="0 0 585.53 1041.83"><defs><style>.cls-1{fill:#fff;}</style></defs><path class="cls-1" d="M159.69,1036.89a39.23,39.23,0,0,1-15.64-2.83,22.08,22.08,0,0,1-10.09-8.31,24.51,24.51,0,0,1-3.65-13.3h14.52A11.29,11.29,0,0,0,152,1023a19.45,19.45,0,0,0,7.67,1.39,20,20,0,0,0,7.14-1.15,10.91,10.91,0,0,0,4.74-3.25,7.51,7.51,0,0,0,1.71-4.89,6.26,6.26,0,0,0-1.42-4.15,11.42,11.42,0,0,0-4.25-3,38.2,38.2,0,0,0-7.19-2.25L152.6,1004q-10.11-2.3-15.37-7.24a16.77,16.77,0,0,1-5.25-12.8,19.55,19.55,0,0,1,3.49-11.59,23,23,0,0,1,9.7-7.7,35,35,0,0,1,14.33-2.76,34,34,0,0,1,14.32,2.79,22.06,22.06,0,0,1,9.43,7.89,22.55,22.55,0,0,1,3.57,12.05H172.55a10.25,10.25,0,0,0-3.86-7.58q-3.48-2.73-9.24-2.73a17.25,17.25,0,0,0-6.5,1.12,10,10,0,0,0-4.31,3.11,7.28,7.28,0,0,0-1.51,4.57,6.19,6.19,0,0,0,1.42,4.13,11.06,11.06,0,0,0,4.15,2.86,39.59,39.59,0,0,0,6.6,2l6.79,1.56a52.45,52.45,0,0,1,9.39,3,25.39,25.39,0,0,1,6.94,4.33,17.18,17.18,0,0,1,4.33,5.94,19,19,0,0,1,1.49,7.69,20.51,20.51,0,0,1-3.42,11.86,21.89,21.89,0,0,1-9.83,7.72A39.08,39.08,0,0,1,159.69,1036.89Z"/><path class="cls-1" d="M252.41,1036.85a34.17,34.17,0,0,1-17.48-4.5,31.92,31.92,0,0,1-12.22-12.88q-4.47-8.38-4.47-20.07t4.47-20.14a31.91,31.91,0,0,1,12.22-12.9,36.14,36.14,0,0,1,34.93,0,32,32,0,0,1,12.22,12.9q4.5,8.41,4.5,20.14t-4.5,20.09a31.8,31.8,0,0,1-12.22,12.88A34.12,34.12,0,0,1,252.41,1036.85Zm0-13.25a17.75,17.75,0,0,0,9.92-2.81,18.41,18.41,0,0,0,6.7-8.24,37.62,37.62,0,0,0,0-26.39,18.36,18.36,0,0,0-6.7-8.24,18.92,18.92,0,0,0-19.84,0,18.46,18.46,0,0,0-6.72,8.26,37.13,37.13,0,0,0,0,26.37,18.51,18.51,0,0,0,6.72,8.24A17.73,17.73,0,0,0,252.41,1023.6Zm-5.28-12.86h12.71l6.75,8.66,6,7,12.32,15.4H271.13l-8.26-10.36-4.4-5.77Z"/><path class="cls-1" d="M319.07,1035.77V962.94h49.42V975.6H334v19h31.68V1007H334v28.79Z"/><path class="cls-1" d="M396.93,975.6V962.94h59.34V975.6H434.13v60.17h-15V975.6Z"/><path class="cls-1" d="M504.55,454.72l69.76-73.5V137L444.75,0H142L12.46,137V381.22L81,453.47l-81,86V797.31l129.57,137H456l129.57-137V539.43Zm-16.4,294.47-86.47,91.46H183.85L97.37,749.19V577.09l54-57.37,282.69.83,54,56.54ZM450.91,245.87V420.59H134.62V245.87H97.37l97.7-89.29,87.49-80c4.54-4.15,15.87-4.15,20.41,0l87.49,80,97.69,89.29Z"/></svg>