<svg width="32" height="28" viewBox="0 0 32 28" fill="none" xmlns="http://www.w3.org/2000/svg">
<g clip-path="url(#clip0_2146_22681)">
<path fill-rule="evenodd" clip-rule="evenodd" d="M29.6172 8.47656H2.38281C2.16406 8.47656 2 8.3125 2 8.09375C2 7.875 2.16406 7.71094 2.38281 7.71094H29.6172C29.8359 7.71094 30 7.875 30 8.09375C30 8.3125 29.8359 8.47656 29.6172 8.47656Z" fill="#FC6600"/>
<path fill-rule="evenodd" clip-rule="evenodd" d="M29.125 27.7812H2.875C2.38281 27.7812 2 27.3437 2 26.8516V3.77344C2 3.28125 2.38281 2.84375 2.875 2.84375H29.125C29.6172 2.84375 30 3.28125 30 3.77344V26.8516C30 27.3437 29.6172 27.7812 29.125 27.7812ZM2.875 3.60937C2.82031 3.60937 2.76562 3.71875 2.76562 3.77344V26.8516C2.76562 26.9062 2.82031 27.0156 2.875 27.0156H29.125C29.1797 27.0156 29.2344 26.9062 29.2344 26.8516V3.77344C29.2344 3.71875 29.1797 3.60937 29.125 3.60937H2.875Z" fill="#FC6600"/>
<path fill-rule="evenodd" clip-rule="evenodd" d="M8.17969 13.8359H5.44531C5.11719 13.8359 4.84375 13.5625 4.84375 13.1797V10.1719C4.84375 9.84375 5.11719 9.51562 5.44531 9.51562H8.17969C8.5625 9.51562 8.83594 9.84375 8.83594 10.1719V13.1797C8.83594 13.5625 8.5625 13.8359 8.17969 13.8359ZM5.60938 13.0703H8.07031V10.2812H5.60938V13.0703Z" fill="#FC6600"/>
<path fill-rule="evenodd" clip-rule="evenodd" d="M14.3047 13.8359H11.5703C11.1875 13.8359 10.9141 13.5625 10.9141 13.1797V10.1719C10.9141 9.84375 11.1875 9.51562 11.5703 9.51562H14.3047C14.6875 9.51562 14.9609 9.84375 14.9609 10.1719V13.1797C14.9609 13.5625 14.6875 13.8359 14.3047 13.8359ZM11.6797 13.0703H14.1953V10.2812H11.6797V13.0703Z" fill="#FC6600"/>
<path fill-rule="evenodd" clip-rule="evenodd" d="M20.4297 13.8359H17.6953C17.3125 13.8359 17.0391 13.5625 17.0391 13.1797V10.1719C17.0391 9.84375 17.3125 9.51562 17.6953 9.51562H20.4297C20.8125 9.51562 21.0859 9.84375 21.0859 10.1719V13.1797C21.0859 13.5625 20.8125 13.8359 20.4297 13.8359ZM17.8047 13.0703H20.3203V10.2812H17.8047V13.0703Z" fill="#FC6600"/>
<path fill-rule="evenodd" clip-rule="evenodd" d="M26.5547 13.8359H23.8203C23.4375 13.8359 23.1641 13.5625 23.1641 13.1797V10.1719C23.1641 9.84375 23.4375 9.51562 23.8203 9.51562H26.5547C26.8828 9.51562 27.1562 9.89844 27.1562 10.1719V13.1797C27.1562 13.5625 26.8828 13.8359 26.5547 13.8359ZM23.9297 13.0703H26.3906V10.2812H23.9297V13.0703Z" fill="#FC6600"/>
<path fill-rule="evenodd" clip-rule="evenodd" d="M8.17969 19.9062H5.44531C5.11719 19.9062 4.84375 19.5234 4.84375 19.25V16.2422C4.84375 15.8594 5.11719 15.5859 5.44531 15.5859H8.17969C8.5625 15.5859 8.83594 15.8594 8.83594 16.2422V19.25C8.83594 19.5781 8.5625 19.9062 8.17969 19.9062ZM5.60938 19.1406H8.07031V16.3516H5.60938V19.1406Z" fill="#FC6600"/>
<path fill-rule="evenodd" clip-rule="evenodd" d="M14.3047 19.9062H11.5703C11.1875 19.9062 10.9141 19.5781 10.9141 19.25V16.2422C10.9141 15.8594 11.1875 15.5859 11.5703 15.5859H14.3047C14.6875 15.5859 14.9609 15.8594 14.9609 16.2422V19.25C14.9609 19.5781 14.6875 19.9062 14.3047 19.9062ZM11.6797 19.1406H14.1953V16.3516H11.6797V19.1406Z" fill="#FC6600"/>
<path fill-rule="evenodd" clip-rule="evenodd" d="M20.4297 19.9062H17.6953C17.3125 19.9062 17.0391 19.5781 17.0391 19.25V16.2422C17.0391 15.8594 17.3125 15.5859 17.6953 15.5859H20.4297C20.8125 15.5859 21.0859 15.8594 21.0859 16.2422V19.25C21.0859 19.5781 20.8125 19.9062 20.4297 19.9062ZM17.8047 19.1406H20.3203V16.3516H17.8047V19.1406Z" fill="#FC6600"/>
<path fill-rule="evenodd" clip-rule="evenodd" d="M26.5547 19.9062H23.8203C23.4375 19.9062 23.1641 19.5781 23.1641 19.25V16.2422C23.1641 15.8594 23.4375 15.5859 23.8203 15.5859H26.5547C26.8828 15.5859 27.1562 15.8594 27.1562 16.2422V19.25C27.1562 19.5234 26.8828 19.9062 26.5547 19.9062ZM23.9297 19.1406H26.3906V16.3516H23.9297V19.1406Z" fill="#FC6600"/>
<path fill-rule="evenodd" clip-rule="evenodd" d="M8.17969 25.9219H5.44531C5.11719 25.9219 4.84375 25.6484 4.84375 25.3203V22.3125C4.84375 21.9297 5.11719 21.6562 5.44531 21.6562H8.17969C8.5625 21.6562 8.83594 21.9297 8.83594 22.3125V25.3203C8.83594 25.6484 8.5625 25.9219 8.17969 25.9219ZM5.60938 25.1562H8.07031V22.4219H5.60938V25.1562Z" fill="#FC6600"/>
<path fill-rule="evenodd" clip-rule="evenodd" d="M14.3047 25.9219H11.5703C11.1875 25.9219 10.9141 25.6484 10.9141 25.3203V22.3125C10.9141 21.9297 11.1875 21.6562 11.5703 21.6562H14.3047C14.6875 21.6562 14.9609 21.9297 14.9609 22.3125V25.3203C14.9609 25.6484 14.6875 25.9219 14.3047 25.9219ZM11.6797 25.1562H14.1953V22.4219H11.6797V25.1562Z" fill="#FC6600"/>
<path fill-rule="evenodd" clip-rule="evenodd" d="M20.4297 25.9219H17.6953C17.3125 25.9219 17.0391 25.6484 17.0391 25.3203V22.3125C17.0391 21.9297 17.3125 21.6562 17.6953 21.6562H20.4297C20.8125 21.6562 21.0859 21.9297 21.0859 22.3125V25.3203C21.0859 25.6484 20.8125 25.9219 20.4297 25.9219ZM17.8047 25.1562H20.3203V22.4219H17.8047V25.1562Z" fill="#FC6600"/>
<path fill-rule="evenodd" clip-rule="evenodd" d="M26.5547 25.9219H23.8203C23.4375 25.9219 23.1641 25.6484 23.1641 25.3203V22.3125C23.1641 21.9297 23.4375 21.6562 23.8203 21.6562H26.5547C26.8828 21.6562 27.1562 21.9297 27.1562 22.3125V25.3203C27.1562 25.6484 26.8828 25.9219 26.5547 25.9219ZM23.9297 25.1562H26.3906V22.4219H23.9297V25.1562Z" fill="#FC6600"/>
<path fill-rule="evenodd" clip-rule="evenodd" d="M7.14062 6.28906C6.375 6.28906 5.60938 5.96094 5.00781 5.41406C4.46094 4.8125 4.13281 4.04687 4.13281 3.22656C4.13281 1.58594 5.5 0.21875 7.14062 0.21875C8.78125 0.21875 10.1484 1.58594 10.1484 3.22656C10.1484 3.44531 9.98438 3.60937 9.76562 3.60937C9.54688 3.60937 9.38281 3.44531 9.38281 3.22656C9.38281 1.96875 8.39844 0.984375 7.14062 0.984375C5.9375 0.984375 4.89844 2.02344 4.89844 3.22656C4.89844 4.48437 5.9375 5.52344 7.14062 5.52344C7.35938 5.52344 7.52344 5.6875 7.52344 5.90625C7.52344 6.125 7.35938 6.28906 7.14062 6.28906Z" fill="#FC6600"/>
<path fill-rule="evenodd" clip-rule="evenodd" d="M16 6.28906C15.1797 6.28906 14.4141 5.96094 13.8672 5.41406C13.3203 4.8125 12.9922 4.04687 12.9922 3.22656C12.9922 1.58594 14.3594 0.21875 16 0.21875C17.6406 0.21875 19.0078 1.58594 19.0078 3.22656C19.0078 3.44531 18.8438 3.60937 18.625 3.60937C18.4062 3.60937 18.2422 3.44531 18.2422 3.22656C18.2422 1.96875 17.2578 0.984375 16 0.984375C14.7422 0.984375 13.7578 1.96875 13.7578 3.22656C13.7578 4.53906 14.7422 5.52344 16 5.52344C16.2188 5.52344 16.3828 5.6875 16.3828 5.90625C16.3828 6.125 16.2188 6.28906 16 6.28906Z" fill="#FC6600"/>
<path fill-rule="evenodd" clip-rule="evenodd" d="M24.8594 6.28906C24.0391 6.28906 23.2734 5.96094 22.7266 5.41406C22.1797 4.8125 21.8516 4.04687 21.8516 3.22656C21.8516 1.58594 23.2188 0.21875 24.8594 0.21875C26.5 0.21875 27.8672 1.58594 27.8672 3.22656C27.8672 3.44531 27.7031 3.60937 27.4844 3.60937C27.2656 3.60937 27.1016 3.44531 27.1016 3.22656C27.1016 2.02344 26.0625 0.984375 24.8594 0.984375C23.6016 0.984375 22.6172 1.96875 22.6172 3.22656C22.6172 4.53906 23.6016 5.52344 24.8594 5.52344C25.0781 5.52344 25.2422 5.6875 25.2422 5.90625C25.2422 6.125 25.0781 6.28906 24.8594 6.28906Z" fill="#FC6600"/>
</g>
<defs>
<clipPath id="clip0_2146_22681">
<rect width="32" height="27.5625" fill="white" transform="translate(0 0.21875)"/>
</clipPath>
</defs>
</svg>
