<svg width="30" height="30" viewBox="0 0 30 30" fill="none" xmlns="http://www.w3.org/2000/svg">
<g clip-path="url(#clip0_2146_22924)">
<path d="M15 0.5C23 0.5 29.5 6.99 29.5 15C29.5 23 23.01 29.5 15 29.5C7 29.5 0.5 23.01 0.5 15C0.5 6.99 7 0.5 15 0.5Z" stroke="#FC6600" stroke-miterlimit="10"/>
<path fill-rule="evenodd" clip-rule="evenodd" d="M21.0022 7.52H16.3022C17.1322 8.22 17.7322 9.22 17.9022 10.61H21.0022V12.13H17.9222C17.6422 15.23 15.3322 17.2 11.6822 17.32C12.3622 18.08 13.0722 18.89 13.7822 19.75C14.7822 20.95 15.8022 22.23 16.8322 23.55C17.4622 24.36 18.0922 25.18 18.7222 26H15.9822C15.3322 25.17 14.7022 24.36 14.0622 23.55C13.0722 22.3 12.0622 21.05 10.9622 19.75C10.3422 19.01 9.69219 18.26 8.99219 17.47V15.59H10.5622C13.6422 15.59 15.2922 14.22 15.4922 12.13H9.00219V10.61H15.4122C15.0122 8.85 13.5022 7.97 11.0222 7.97H9.00219V6H21.0022V7.52Z" fill="#FC6600"/>
</g>
<defs>
<clipPath id="clip0_2146_22924">
<rect width="30" height="30" fill="white"/>
</clipPath>
</defs>
</svg>
