<?xml version="1.0" encoding="utf-8"?>
<!-- Generator: Adobe Illustrator 25.2.0, SVG Export Plug-In . SVG Version: 6.00 Build 0)  -->
<svg version="1.1" id="Layer_1" xmlns="http://www.w3.org/2000/svg" xmlns:xlink="http://www.w3.org/1999/xlink" x="0px" y="0px"
	 viewBox="0 0 8 9" style="enable-background:new 0 0 8 9;" xml:space="preserve">
<style type="text/css">
	.st0{fill:#FC6600;}
</style>
<path class="st0" d="M6.7,2.9c0,0,0.1-1-1.7-2.2c0,0-0.5-0.5-1,0.2c0,0-0.9,0.3-0.6,0.7c0.1,0.1,0.2,0.2,0.4,0.1
	C3.5,1.8,3.3,2.1,3.5,2.4c0,0,0.7-0.1,1,0c0,0,0.8,0.3,0.8,0L5.2,2c0,0,1,2.3,0.3,3.2C4.5,4.7,3.3,5.1,3.3,5.1S1.8,3.2,0,4.9v2.8
	c0,0,1.2,1.3,2.7,0.4c0,0,2.9,1.1,4.6-0.4C7.3,7.7,7.9,8,8,7C8,7,8.2,4.4,6.7,2.9z"/>
</svg>
