<svg width="50" height="50" viewBox="0 0 50 50" fill="none" xmlns="http://www.w3.org/2000/svg">
<g clip-path="url(#clip0_2167_22989)">
<path d="M29.9168 2.60059H2.35156V30.1267H29.9168V2.60059Z" stroke="#FC6600" stroke-miterlimit="10"/>
<path d="M31.1075 33.6611C30.7721 33.6611 30.5982 33.8353 30.4243 33.9971C30.2504 34.1713 30.0889 34.5073 30.0889 34.6815V40.4556L24.1386 36.5481C23.9647 36.3739 23.6293 36.3739 23.4554 36.3739C23.2814 36.3739 22.946 36.5481 22.7721 36.7099C22.5982 36.8841 22.4367 37.0459 22.4367 37.3943C22.4367 37.7303 22.4367 37.9045 22.6106 38.0788L24.6479 41.476H7.96467L10.0019 38.0788C10.1759 37.9045 10.1759 37.5685 10.1759 37.3943C10.1759 37.2201 10.0019 36.8841 9.84045 36.7099C9.66654 36.5357 9.50505 36.3739 9.15722 36.3739C8.98331 36.3739 8.6479 36.3739 8.47399 36.5481L2.34977 40.4556V34.6815C2.34977 34.3456 2.17585 34.1713 2.01436 33.9971C1.84045 33.8229 1.50505 33.6611 1.33113 33.6611C1.15722 33.6611 0.821817 33.8353 0.647904 33.9971C0.473991 34.1713 0.3125 34.5073 0.3125 34.6815V42.3222C0.3125 42.4964 0.3125 42.6581 0.486413 42.8324C0.486413 43.0066 0.660326 43.1684 0.821817 43.1684L8.3125 48.2704C8.48641 48.4446 8.6479 48.4446 8.82182 48.4446C8.99573 48.4446 9.15722 48.4446 9.33113 48.2704C9.66654 48.2704 9.66654 48.0962 9.84045 47.9344C10.0144 47.7602 10.0144 47.5984 10.0144 47.4242C10.0144 47.25 10.0144 47.0882 9.84045 46.914L7.80318 43.5168H24.6479L22.6106 46.7398C22.4367 46.914 22.4367 47.25 22.4367 47.4242C22.4367 47.5984 22.6106 47.9344 22.7721 48.1086C22.946 48.2828 23.1075 48.4446 23.4554 48.4446C23.6293 48.4446 23.9647 48.4446 24.1386 48.2704L31.7908 43.3426C31.9647 43.1684 32.1262 43.0066 32.1262 42.8324C32.1262 42.6581 32.1262 42.4964 32.3001 42.4964V34.6815C32.3001 34.5073 32.3001 34.3456 32.3001 34.3456C32.3001 34.1713 32.1262 34.1713 32.1262 34.0096C31.9523 33.8353 31.9523 33.8354 31.7908 33.8354C31.4554 33.6611 31.2814 33.6611 31.1075 33.6611Z" stroke="#FC6600" stroke-miterlimit="10"/>
<path d="M47.1043 22.9098C46.9304 22.7356 46.595 22.7356 46.4211 22.7356C46.2472 22.7356 45.9118 22.7356 45.7379 22.9098L42.3341 24.9506V8.12636L45.564 10.1672C45.7503 10.3289 46.0857 10.3289 46.2596 10.3289C46.4335 10.3289 46.7689 10.1547 46.9428 9.99296C47.1168 9.81874 47.2782 9.65697 47.2782 9.30854C47.2782 9.13432 47.2782 8.79833 47.1043 8.62412L42.3466 0.995944C42.3466 0.821728 42.1727 0.659955 42.0112 0.485739C41.8372 0.311523 41.6758 0.311523 41.3279 0.311523H33.6633C33.3279 0.311523 33.154 0.485739 32.9801 0.647511C32.8062 0.821727 32.6447 1.15772 32.6447 1.33193C32.6447 1.50615 32.8186 1.84214 32.9801 2.01635C33.154 2.19057 33.4894 2.35234 33.6633 2.35234H39.2782L35.3652 8.30057C35.1913 8.47479 35.1913 8.81078 35.1913 8.98499C35.1913 9.15921 35.3652 9.4952 35.5267 9.66941C35.7006 9.84363 35.8621 10.0054 36.2099 10.0054C36.3838 10.0054 36.7192 10.0054 36.8931 9.83118L40.2969 7.79037V24.6147L36.8931 22.7481C36.7192 22.5738 36.3838 22.5738 36.2099 22.5738C36.036 22.5738 35.7006 22.7481 35.5267 22.9098C35.3528 23.084 35.1913 23.2458 35.1913 23.5942C35.1913 23.7685 35.1913 24.1045 35.3652 24.2787L39.1043 30.3887H33.3155C32.9801 30.3887 32.8062 30.5629 32.6323 30.7247C32.4708 30.8864 32.2969 31.2349 32.2969 31.3966C32.2969 31.7326 32.4708 31.9068 32.6323 32.0811C32.8062 32.2553 33.1416 32.417 33.3155 32.417H41.1416C41.3155 32.417 41.3155 32.417 41.477 32.417C41.6509 32.417 41.8124 32.2428 41.9863 32.0811L46.918 24.4404C47.0919 24.2662 47.0919 23.9302 47.0919 23.756C47.2782 23.42 47.1043 23.2458 47.1043 22.9098Z" stroke="#FC6600" stroke-miterlimit="10"/>
</g>
<defs>
<clipPath id="clip0_2167_22989">
<rect width="50" height="50" fill="white"/>
</clipPath>
</defs>
</svg>
