<svg width="29" height="25" viewBox="0 0 29 25" fill="none" xmlns="http://www.w3.org/2000/svg">
<path d="M12.9292 19.3C13.4342 19.7276 13.9608 20.1185 14.5 20.5C15.0403 20.1236 15.5644 19.7232 16.0708 19.3C16.915 18.5886 17.7095 17.8172 18.4483 16.9915C20.1517 15.0799 22 12.3086 22 9.19785C22 8.18695 21.806 7.18596 21.4291 6.25201C21.0522 5.31806 20.4997 4.46946 19.8033 3.75465C19.1069 3.03984 18.2801 2.47282 17.3701 2.08596C16.4602 1.69911 15.4849 1.5 14.5 1.5C13.5151 1.5 12.5398 1.69911 11.6299 2.08596C10.7199 2.47282 9.89314 3.03984 9.1967 3.75465C8.50026 4.46946 7.94781 5.31806 7.5709 6.25201C7.19399 7.18596 7 8.18695 7 9.19785C7 12.3086 8.84833 15.079 10.5517 16.9915C11.2905 17.8175 12.085 18.5883 12.9292 19.3ZM14.5 11.9776C13.7817 11.9776 13.0928 11.6848 12.5849 11.1634C12.077 10.6421 11.7917 9.93509 11.7917 9.19785C11.7917 8.46061 12.077 7.75356 12.5849 7.23225C13.0928 6.71094 13.7817 6.41807 14.5 6.41807C15.2183 6.41807 15.9072 6.71094 16.4151 7.23225C16.923 7.75356 17.2083 8.46061 17.2083 9.19785C17.2083 9.93509 16.923 10.6421 16.4151 11.1634C15.9072 11.6848 15.2183 11.9776 14.5 11.9776Z" fill="#FC6600" fill-opacity="0.8"/>
<ellipse cx="14.5" cy="20" rx="13.5" ry="3.5" fill="#FC6600" fill-opacity="0.2"/>
</svg>
