<svg width="36" height="20" viewBox="0 0 36 20" fill="none" xmlns="http://www.w3.org/2000/svg">
<g clip-path="url(#clip0_1908_10325)">
<path d="M8.38699 0H0V20H8.38699V0Z" fill="#FC6600"/>
<path d="M17.5901 0H9.20312V20H17.5901V0Z" fill="#FC6600"/>
<path d="M26.7971 0H18.4102V20H26.7971V0Z" fill="#FC6600"/>
<path d="M36.0003 0H27.6133V20H36.0003V0Z" fill="#FC6600"/>
<path d="M6.31362 3.21094V7.36273H5.45452V4.66303L4.30547 7.36273H3.65398L2.49778 4.66303V7.36273H1.63867V3.21094H2.6159L3.97973 6.29879L5.34355 3.21094H6.31362Z" fill="white"/>
<path d="M4.82129 16.3747L3.56844 14.1706H3.21763V16.3747H1.75V10.5352H4.21634C4.69243 10.5352 5.09692 10.6149 5.4334 10.7777C5.76989 10.9406 6.02046 11.159 6.18512 11.4397C6.34978 11.7204 6.43569 12.0323 6.43569 12.3754C6.43569 12.7635 6.32115 13.1101 6.09563 13.4151C5.87012 13.72 5.53721 13.9349 5.09334 14.0631L6.48581 16.3747H4.82129ZM3.21763 13.1656H4.12685C4.39532 13.1656 4.59936 13.1032 4.7318 12.9749C4.86783 12.8467 4.93226 12.6665 4.93226 12.4343C4.93226 12.2125 4.86425 12.0392 4.7318 11.911C4.59578 11.7828 4.39532 11.7204 4.12685 11.7204H3.21763V13.1656Z" fill="white"/>
<path d="M12.897 11.6753V12.8571H14.8658V13.9557H12.897V15.238H15.1235V16.3782H11.4258V10.5352H15.1199V11.6753H12.897Z" fill="white"/>
<path d="M23.3994 16.3747L22.1466 14.1706H21.7958V16.3747H20.3281V10.5352H22.7945C23.2706 10.5352 23.675 10.6149 24.0115 10.7777C24.348 10.9406 24.5986 11.159 24.7632 11.4397C24.9279 11.7204 25.0138 12.0323 25.0138 12.3754C25.0138 12.7635 24.8993 13.1101 24.6738 13.4151C24.4482 13.72 24.1153 13.9349 23.6715 14.0631L25.0568 16.3747H23.3994ZM21.7922 13.1656H22.7014C22.9699 13.1656 23.1739 13.1032 23.3063 12.9749C23.4424 12.8467 23.5068 12.6665 23.5068 12.4343C23.5068 12.2125 23.4388 12.0392 23.3063 11.911C23.1703 11.7828 22.9699 11.7204 22.7014 11.7204H21.7922V13.1656Z" fill="white"/>
<path d="M33.0781 15.3419H30.8265L30.465 16.3747H28.9258L31.1093 10.5352H32.8096L34.9932 16.3747H33.4397L33.0781 15.3419ZM32.7023 14.2468L31.9541 12.1085L31.2167 14.2468H32.7023Z" fill="white"/>
<path d="M13.7888 6.5756H12.0813L11.7985 7.36576H10.8965L12.4393 3.20703H13.4416L14.9844 7.36576H14.0752L13.7888 6.5756ZM13.5561 5.90674L12.9369 4.17047L12.3176 5.90674H13.5561Z" fill="white"/>
<path d="M32.8005 6.5756H31.093L30.8103 7.36576H29.9082L31.451 3.20703H32.4533L33.9961 7.36576H33.0869L32.8005 6.5756ZM32.5678 5.90674L31.9486 4.17047L31.3293 5.90674H32.5678Z" fill="white"/>
<path d="M24.1444 3.21094V7.36273H23.2853V5.59527H21.4489V7.36273H20.5898V3.21094H21.4489V4.91948H23.2853V3.21094H24.1444Z" fill="white"/>
</g>
<defs>
<clipPath id="clip0_1908_10325">
<rect width="36" height="20" fill="white"/>
</clipPath>
</defs>
</svg>
