<svg width="38" height="40" viewBox="0 0 38 40" fill="none" xmlns="http://www.w3.org/2000/svg">
<path d="M15.3562 19.575L15.7 19.4619V19.1V11.25C15.7 10.9693 15.8609 10.7091 16.1213 10.58L36.3851 0.581394C36.3854 0.581243 36.3857 0.581092 36.386 0.580942C36.4954 0.52776 36.6148 0.5 36.7333 0.5C37.1627 0.5 37.5 0.842365 37.5 1.25V38.75C37.5 39.1576 37.1627 39.5 36.7333 39.5H29.1333C28.704 39.5 28.3667 39.1576 28.3667 38.75V35V34.5H27.8667H25.3333H24.8333V35V38.75C24.8333 39.1576 24.496 39.5 24.0667 39.5H1.26667C0.837345 39.5 0.5 39.1576 0.5 38.75V25C0.5 24.6814 0.706546 24.3929 1.0231 24.2891L1.02363 24.289L15.3562 19.575ZM5.06667 27H4.56667V27.5V30V30.5H5.06667H7.6H8.1V30V27.5V27H7.6H5.06667ZM10.1333 27H9.63333V27.5V30V30.5H10.1333H12.6667H13.1667V30V27.5V27H12.6667H10.1333ZM8.1 32.5V32H7.6H5.06667H4.56667V32.5V35V35.5H5.06667H7.6H8.1V35V32.5ZM10.1333 32H9.63333V32.5V35V35.5H10.1333H12.6667H13.1667V35V32.5V32H12.6667H10.1333ZM33.4333 7.5V7H32.9333H30.4H29.9V7.5V10V10.5H30.4H32.9333H33.4333V10V7.5ZM20.2667 12H19.7667V12.5V15V15.5H20.2667H22.8H23.3V15V12.5V12H22.8H20.2667ZM23.3 17.5V17H22.8H20.2667H19.7667V17.5V20V20.5H20.2667H22.8H23.3V20V17.5ZM20.2667 22H19.7667V22.5V25V25.5H20.2667H22.8H23.3V25V22.5V22H22.8H20.2667ZM25.3333 22H24.8333V22.5V25V25.5H25.3333H27.8667H28.3667V25V22.5V22H27.8667H25.3333ZM23.3 27.5V27H22.8H20.2667H19.7667V27.5V30V30.5H20.2667H22.8H23.3V30V27.5ZM25.3333 27H24.8333V27.5V30V30.5H25.3333H27.8667H28.3667V30V27.5V27H27.8667H25.3333ZM33.4333 22.5V22H32.9333H30.4H29.9V22.5V25V25.5H30.4H32.9333H33.4333V25V22.5ZM30.4 27H29.9V27.5V30V30.5H30.4H32.9333H33.4333V30V27.5V27H32.9333H30.4ZM25.3333 17H24.8333V17.5V20V20.5H25.3333H27.8667H28.3667V20V17.5V17H27.8667H25.3333ZM33.4333 17.5V17H32.9333H30.4H29.9V17.5V20V20.5H30.4H32.9333H33.4333V20V17.5ZM28.3667 12.5V12H27.8667H25.3333H24.8333V12.5V15V15.5H25.3333H27.8667H28.3667V15V12.5ZM30.4 12H29.9V12.5V15V15.5H30.4H32.9333H33.4333V15V12.5V12H32.9333H30.4Z" stroke="#FC6600"/>
</svg>
