<svg width="41" height="24" viewBox="0 0 41 24" fill="none" xmlns="http://www.w3.org/2000/svg">
<g clip-path="url(#clip0_1908_10301)">
<path d="M5.58642 8.65188L20.3075 0.420952C20.4128 0.362392 20.5315 0.331762 20.6523 0.332033C20.773 0.332304 20.8916 0.363467 20.9966 0.4225L35.7052 8.72538C36.0419 8.91494 36.1606 9.33972 35.9692 9.6732C35.9104 9.77568 35.8263 9.86168 35.7247 9.92311L21.1716 18.6972C20.938 18.8388 20.6528 18.828 20.4341 18.6933L5.53095 9.87514C5.19892 9.67784 5.09033 9.25074 5.28955 8.92191C5.35946 8.80488 5.46274 8.71093 5.58642 8.65188ZM25.4099 22.2966C25.7841 22.3941 26.0083 22.7755 25.9099 23.1469C25.8114 23.5175 25.4263 23.7396 25.052 23.6421L22.6872 23.0231C22.3122 22.9256 22.088 22.5442 22.1872 22.1728L22.8239 19.7866C22.9224 19.4152 23.3067 19.1939 23.6817 19.2914C24.0567 19.3889 24.281 19.7696 24.1825 20.141L23.963 20.9619L37.977 12.9554L37.2075 12.7511C36.8325 12.6521 36.6099 12.2698 36.7099 11.8992C36.8099 11.5278 37.1958 11.3065 37.5708 11.4056L39.9778 12.0447C40.3528 12.1437 40.5755 12.5259 40.4755 12.8973L39.8427 15.2371C39.7427 15.6085 39.3567 15.829 38.9817 15.7299C38.6067 15.6309 38.3841 15.2487 38.4841 14.8773L38.6786 14.1577L24.7395 22.1209L25.4099 22.2966ZM16.4185 23.6413C16.0309 23.673 15.6903 23.3875 15.6591 23.0045C15.6278 22.6208 15.9153 22.2834 16.3028 22.2525L17.0114 22.1929L2.33095 13.5039L2.51533 14.1864C2.61533 14.557 2.39267 14.9392 2.01767 15.0382C1.64267 15.138 1.25673 14.9168 1.15673 14.5454L0.523921 12.2064C0.423921 11.835 0.646577 11.4528 1.02158 11.3537L3.42861 10.7146C3.80361 10.6156 4.18955 10.8361 4.28955 11.2075C4.38955 11.5789 4.16689 11.9603 3.79189 12.0602L2.98876 12.2729L17.9536 21.1313L17.8856 20.3398C17.8544 19.9568 18.1419 19.6195 18.5294 19.5885C18.9161 19.5568 19.2567 19.8423 19.288 20.2253L19.4989 22.685C19.531 23.068 19.2427 23.4053 18.856 23.4371L16.4185 23.6413ZM20.6481 1.8245L7.2872 9.29484L20.8028 17.2921L33.9763 9.34901L20.6481 1.8245Z" fill="#FC6600"/>
</g>
<defs>
<clipPath id="clip0_1908_10301">
<rect width="40" height="23.3333" fill="white" transform="translate(0.5 0.332031)"/>
</clipPath>
</defs>
</svg>
