<svg width="40" height="40" viewBox="0 0 40 40" fill="none" xmlns="http://www.w3.org/2000/svg">
<path d="M37.5 33.125H35.625V11.25C35.625 11.0842 35.5592 10.9253 35.4419 10.8081C35.3247 10.6908 35.1658 10.625 35 10.625H28.125V6.25C28.125 6.08424 28.0592 5.92527 27.9419 5.80806C27.8247 5.69085 27.6658 5.625 27.5 5.625H12.5C12.3342 5.625 12.1753 5.69085 12.0581 5.80806C11.9408 5.92527 11.875 6.08424 11.875 6.25V15.625H5C4.83424 15.625 4.67527 15.6908 4.55806 15.8081C4.44085 15.9253 4.375 16.0842 4.375 16.25V33.125H2.5C2.33424 33.125 2.17527 33.1908 2.05806 33.3081C1.94085 33.4253 1.875 33.5842 1.875 33.75C1.875 33.9158 1.94085 34.0747 2.05806 34.1919C2.17527 34.3092 2.33424 34.375 2.5 34.375H37.5C37.6658 34.375 37.8247 34.3092 37.9419 34.1919C38.0592 34.0747 38.125 33.9158 38.125 33.75C38.125 33.5842 38.0592 33.4253 37.9419 33.3081C37.8247 33.1908 37.6658 33.125 37.5 33.125ZM5.625 16.875H12.5C12.6658 16.875 12.8247 16.8092 12.9419 16.6919C13.0592 16.5747 13.125 16.4158 13.125 16.25V6.875H26.875V11.25C26.875 11.4158 26.9408 11.5747 27.0581 11.6919C27.1753 11.8092 27.3342 11.875 27.5 11.875H34.375V33.125H23.125V26.25C23.125 26.0842 23.0592 25.9253 22.9419 25.8081C22.8247 25.6908 22.6658 25.625 22.5 25.625H17.5C17.3342 25.625 17.1753 25.6908 17.0581 25.8081C16.9408 25.9253 16.875 26.0842 16.875 26.25V33.125H5.625V16.875ZM21.875 33.125H18.125V26.875H21.875V33.125ZM18.125 11.25C18.125 11.0842 18.1908 10.9253 18.3081 10.8081C18.4253 10.6908 18.5842 10.625 18.75 10.625H21.25C21.4158 10.625 21.5747 10.6908 21.6919 10.8081C21.8092 10.9253 21.875 11.0842 21.875 11.25C21.875 11.4158 21.8092 11.5747 21.6919 11.6919C21.5747 11.8092 21.4158 11.875 21.25 11.875H18.75C18.5842 11.875 18.4253 11.8092 18.3081 11.6919C18.1908 11.5747 18.125 11.4158 18.125 11.25ZM18.125 16.25C18.125 16.0842 18.1908 15.9253 18.3081 15.8081C18.4253 15.6908 18.5842 15.625 18.75 15.625H21.25C21.4158 15.625 21.5747 15.6908 21.6919 15.8081C21.8092 15.9253 21.875 16.0842 21.875 16.25C21.875 16.4158 21.8092 16.5747 21.6919 16.6919C21.5747 16.8092 21.4158 16.875 21.25 16.875H18.75C18.5842 16.875 18.4253 16.8092 18.3081 16.6919C18.1908 16.5747 18.125 16.4158 18.125 16.25ZM26.875 16.25C26.875 16.0842 26.9408 15.9253 27.0581 15.8081C27.1753 15.6908 27.3342 15.625 27.5 15.625H30C30.1658 15.625 30.3247 15.6908 30.4419 15.8081C30.5592 15.9253 30.625 16.0842 30.625 16.25C30.625 16.4158 30.5592 16.5747 30.4419 16.6919C30.3247 16.8092 30.1658 16.875 30 16.875H27.5C27.3342 16.875 27.1753 16.8092 27.0581 16.6919C26.9408 16.5747 26.875 16.4158 26.875 16.25ZM13.125 21.25C13.125 21.4158 13.0592 21.5747 12.9419 21.6919C12.8247 21.8092 12.6658 21.875 12.5 21.875H10C9.83424 21.875 9.67527 21.8092 9.55806 21.6919C9.44085 21.5747 9.375 21.4158 9.375 21.25C9.375 21.0842 9.44085 20.9253 9.55806 20.8081C9.67527 20.6908 9.83424 20.625 10 20.625H12.5C12.6658 20.625 12.8247 20.6908 12.9419 20.8081C13.0592 20.9253 13.125 21.0842 13.125 21.25ZM13.125 26.25C13.125 26.4158 13.0592 26.5747 12.9419 26.6919C12.8247 26.8092 12.6658 26.875 12.5 26.875H10C9.83424 26.875 9.67527 26.8092 9.55806 26.6919C9.44085 26.5747 9.375 26.4158 9.375 26.25C9.375 26.0842 9.44085 25.9253 9.55806 25.8081C9.67527 25.6908 9.83424 25.625 10 25.625H12.5C12.6658 25.625 12.8247 25.6908 12.9419 25.8081C13.0592 25.9253 13.125 26.0842 13.125 26.25ZM18.125 21.25C18.125 21.0842 18.1908 20.9253 18.3081 20.8081C18.4253 20.6908 18.5842 20.625 18.75 20.625H21.25C21.4158 20.625 21.5747 20.6908 21.6919 20.8081C21.8092 20.9253 21.875 21.0842 21.875 21.25C21.875 21.4158 21.8092 21.5747 21.6919 21.6919C21.5747 21.8092 21.4158 21.875 21.25 21.875H18.75C18.5842 21.875 18.4253 21.8092 18.3081 21.6919C18.1908 21.5747 18.125 21.4158 18.125 21.25ZM26.875 21.25C26.875 21.0842 26.9408 20.9253 27.0581 20.8081C27.1753 20.6908 27.3342 20.625 27.5 20.625H30C30.1658 20.625 30.3247 20.6908 30.4419 20.8081C30.5592 20.9253 30.625 21.0842 30.625 21.25C30.625 21.4158 30.5592 21.5747 30.4419 21.6919C30.3247 21.8092 30.1658 21.875 30 21.875H27.5C27.3342 21.875 27.1753 21.8092 27.0581 21.6919C26.9408 21.5747 26.875 21.4158 26.875 21.25ZM26.875 26.25C26.875 26.0842 26.9408 25.9253 27.0581 25.8081C27.1753 25.6908 27.3342 25.625 27.5 25.625H30C30.1658 25.625 30.3247 25.6908 30.4419 25.8081C30.5592 25.9253 30.625 26.0842 30.625 26.25C30.625 26.4158 30.5592 26.5747 30.4419 26.6919C30.3247 26.8092 30.1658 26.875 30 26.875H27.5C27.3342 26.875 27.1753 26.8092 27.0581 26.6919C26.9408 26.5747 26.875 26.4158 26.875 26.25Z" fill="#FC6600"/>
</svg>
