<svg width="36" height="62" viewBox="0 0 36 62" fill="none" xmlns="http://www.w3.org/2000/svg">
<path fill-rule="evenodd" clip-rule="evenodd" d="M17.8088 8.41602C14.1276 8.41602 11.1433 11.5244 11.1433 15.3588C11.1433 19.1932 14.1276 22.3016 17.8088 22.3016C21.49 22.3016 24.4742 19.1932 24.4742 15.3588C24.4742 11.5244 21.49 8.41602 17.8088 8.41602ZM12.6245 15.3588C12.6245 12.3765 14.9456 9.95886 17.8088 9.95886C20.672 9.95886 22.993 12.3765 22.993 15.3588C22.993 18.3411 20.672 20.7587 17.8088 20.7587C14.9456 20.7587 12.6245 18.3411 12.6245 15.3588Z" fill="#FC6600"/>
<path d="M12.0357 37.2162H10.5545L10.5509 33.3591C10.5509 32.3699 10.5509 31.0448 10.7869 30.5424L16.4773 24.6158H17.9605V37.212L25.3666 42.6161V53.4145L23.8854 53.416V44.159L16.4773 38.706L16.4793 27.1877L12.0357 31.8163V37.2162Z" fill="#FC6600"/>
<path d="M8.58594 52.4136L17.779 42.8444L16.7326 41.8438L8.58594 50.3294V52.4136Z" fill="#FC6600"/>
<path d="M26.3778 36.4184L27.5859 35.1561L20.921 28.7301V31.0443L26.3778 36.4184Z" fill="#FC6600"/>
</svg>
