<svg width="8" height="9" viewBox="0 0 8 9" fill="none" xmlns="http://www.w3.org/2000/svg">
<path d="M8 8.07296C8 8.18622 7.95318 8.29484 7.86983 8.37492C7.78648 8.45501 7.67343 8.5 7.55556 8.5H0.444445C0.326571 8.5 0.213524 8.45501 0.130175 8.37492C0.0468253 8.29484 1.06982e-07 8.18622 1.06982e-07 8.07296V3.58479C-4.68816e-05 3.51972 0.0153854 3.45549 0.0451182 3.39702C0.074851 3.33855 0.118098 3.28739 0.171556 3.24743L3.72711 0.589974C3.80513 0.53166 3.90115 0.5 4 0.5C4.09885 0.5 4.19487 0.53166 4.27289 0.589974L7.82844 3.24743C7.8819 3.28739 7.92515 3.33855 7.95488 3.39702C7.98462 3.45549 8.00005 3.51972 8 3.58479V8.07296Z" fill="#1AA260"/>
<path d="M3.36799 5.84521L5.56025 3.58018C5.61199 3.52673 5.67235 3.5 5.74133 3.5C5.81031 3.5 5.87066 3.52673 5.9224 3.58018C5.97413 3.63363 6 3.69715 6 3.77073C6 3.84432 5.97413 3.90775 5.9224 3.96102L3.54906 6.41982C3.49733 6.47327 3.43697 6.5 3.36799 6.5C3.29901 6.5 3.23865 6.47327 3.18692 6.41982L2.07462 5.2706C2.02288 5.21715 1.99805 5.15372 2.00012 5.08031C2.00219 5.0069 2.02918 4.94339 2.08108 4.88976C2.13299 4.83612 2.19447 4.8094 2.26552 4.80958C2.33657 4.80975 2.39796 4.83648 2.4497 4.88976L3.36799 5.84521Z" fill="white"/>
</svg>
