<svg width="25" height="25" viewBox="0 0 25 25" fill="none" xmlns="http://www.w3.org/2000/svg">
<path opacity="0.3" fill-rule="evenodd" clip-rule="evenodd" d="M11.2979 2.59951C11.6519 2.24599 12.1255 2.03797 12.6253 2.01649C13.1252 1.99502 13.6149 2.16165 13.9979 2.48351L14.1259 2.60051L16.0259 4.49951H18.7119C19.2163 4.49961 19.702 4.69028 20.0718 5.03335C20.4416 5.37642 20.6681 5.84653 20.7059 6.34951L20.7119 6.49951V9.18551L22.6119 11.0855C22.9657 11.4396 23.1739 11.9134 23.1954 12.4134C23.2168 12.9135 23.05 13.4034 22.7279 13.7865L22.6109 13.9135L20.7109 15.8135V18.4995C20.711 19.0041 20.5205 19.4901 20.1774 19.8601C19.8343 20.23 19.364 20.4567 18.8609 20.4945L18.7119 20.4995H16.0269L14.1269 22.3995C13.7728 22.7533 13.299 22.9615 12.799 22.983C12.2989 23.0045 11.809 22.8377 11.4259 22.5155L11.2989 22.3995L9.39888 20.4995H6.71188C6.20731 20.4997 5.72132 20.3091 5.35134 19.966C4.98135 19.6229 4.75473 19.1527 4.71688 18.6495L4.71188 18.4995V15.8135L2.81188 13.9135C2.45808 13.5595 2.24988 13.0856 2.22841 12.5856C2.20693 12.0855 2.37374 11.5956 2.69588 11.2125L2.81188 11.0855L4.71188 9.18551V6.49951C4.71198 5.99511 4.90266 5.50937 5.24572 5.1396C5.58879 4.76983 6.0589 4.54334 6.56188 4.50551L6.71188 4.49951H9.39788L11.2979 2.59951Z" fill="#008F4B"/>
<path fill-rule="evenodd" clip-rule="evenodd" d="M15.7895 9.48286L11.5455 13.7269L9.77752 11.9589C9.58987 11.7714 9.33543 11.6661 9.07016 11.6662C8.80489 11.6663 8.55052 11.7717 8.36302 11.9594C8.17551 12.147 8.07022 12.4014 8.07031 12.6667C8.07041 12.932 8.17587 13.1864 8.36351 13.3739L10.7675 15.7779C10.8697 15.8801 10.991 15.9611 11.1244 16.0164C11.2579 16.0718 11.401 16.1002 11.5455 16.1002C11.69 16.1002 11.8331 16.0718 11.9666 16.0164C12.1001 15.9611 12.2214 15.8801 12.3235 15.7779L17.2035 10.8969C17.3857 10.7083 17.4865 10.4557 17.4842 10.1935C17.4819 9.93126 17.3767 9.68045 17.1913 9.49504C17.0059 9.30963 16.7551 9.20446 16.4929 9.20219C16.2307 9.19991 15.9781 9.3007 15.7895 9.48286Z" fill="#008F4B"/>
</svg>
