<svg width="105" height="77" viewBox="0 0 105 77" fill="none" xmlns="http://www.w3.org/2000/svg">
<g clip-path="url(#clip0_16_58271)">
<mask id="mask0_16_58271" style="mask-type:luminance" maskUnits="userSpaceOnUse" x="0" y="0" width="105" height="77">
<path d="M0 0H104.71V77H0V0Z" fill="white"/>
</mask>
<g mask="url(#mask0_16_58271)">
<path d="M42.6534 73.5396L39.2734 74.6996C43.3434 76.1796 47.7034 76.9796 52.1634 76.9996H52.5134C53.5734 76.9996 54.6434 76.9496 55.7134 76.8496C55.5534 76.7496 55.3934 76.4496 54.8934 75.7096C55.2734 75.0396 55.2034 75.1796 55.3534 74.7396C54.3434 74.8196 53.3434 74.8696 52.3534 74.8696C49.0234 74.8696 45.7734 74.4096 42.6534 73.5396ZM59.9534 70.3096C59.7634 70.2496 59.7934 70.3196 59.8034 70.0596C59.9634 70.0996 59.9434 70.0296 59.9534 70.3096ZM63.0334 69.3296C62.9134 69.3296 62.9534 69.2896 62.9434 69.1296C63.2234 69.1096 63.3734 69.0796 63.4534 69.0796C63.5634 69.0796 63.5234 69.1296 63.5434 69.2896C63.2634 69.3096 63.1134 69.3296 63.0334 69.3296ZM62.4734 67.5696C62.1934 67.4896 62.0534 67.5296 62.3334 67.1096C62.5834 67.4496 62.5334 67.3396 62.4734 67.5696ZM76.9634 61.7996L47.1634 71.9996C48.8534 72.2596 50.5834 72.3996 52.3234 72.3996C54.6534 72.3996 57.0134 72.1596 59.3834 71.6596C60.0034 71.5296 60.6234 71.3796 61.2334 71.2096C61.4434 70.9196 61.3634 71.0096 61.6934 70.7896C61.7034 70.9096 61.7034 71.0096 61.6834 71.0896C67.7034 69.3596 72.9134 66.0896 76.9634 61.7996ZM58.5234 75.9596C58.2834 75.7596 58.0334 75.5696 57.7734 75.3596C58.0834 75.1896 58.3234 75.0596 58.6234 74.8996C58.7134 75.9596 58.7434 75.7896 58.5234 75.9596ZM64.6034 73.1696C64.3034 73.0596 64.3334 73.1296 64.4434 72.8596C64.7334 73.0096 64.6834 72.9396 64.6034 73.1696ZM82.8134 60.7196L82.6334 60.6596C82.6334 60.5696 82.6734 60.4896 82.7434 60.2696C82.9034 60.4296 83.0834 60.4696 82.8134 60.7196ZM84.8634 59.0996L81.4734 60.2596C79.8934 62.3796 78.0834 64.3196 76.0734 66.0596C76.0434 66.1496 76.0234 66.1996 76.0134 66.2496L75.9234 66.1896C74.7834 67.1696 73.5734 68.0696 72.3134 68.9096C72.6134 69.0096 72.9334 69.1296 73.3134 69.2696C72.7134 69.4796 72.2634 69.6296 71.7434 69.8096C71.8134 69.6496 71.8534 69.5496 71.9234 69.3896C71.8334 69.3696 71.7134 69.3796 71.6534 69.3396C68.1434 71.5396 64.2034 73.1696 59.9234 74.0796C58.5734 74.3696 57.2234 74.5696 55.8834 74.6996C56.0734 74.9196 56.1434 75.2896 56.5034 75.3496C56.1434 75.7896 55.7634 76.2196 56.2034 76.8096C57.4334 76.6896 58.6734 76.4996 59.9034 76.2496C59.6834 76.1496 59.4634 76.0496 59.2234 75.9396C59.7834 74.9796 59.4634 75.1596 60.6734 75.0296C60.8734 75.4396 60.4534 75.3896 60.3434 75.5496C60.5434 75.5096 60.7434 75.4696 60.9334 75.4396C61.0934 75.7096 61.0434 75.8896 60.9434 76.0296C61.2134 75.9696 61.4934 75.8996 61.7634 75.8296C61.6834 75.7396 61.6034 75.6596 61.5034 75.6096C61.6834 75.4396 61.8134 75.3496 61.9134 75.3496C62.0334 75.3496 62.1334 75.4596 62.2634 75.7096C63.4034 75.4096 64.5234 75.0596 65.6034 74.6596C65.6134 74.6396 65.6134 74.6196 65.6234 74.5996C65.6334 74.6096 65.6334 74.6296 65.6434 74.6396C68.0434 73.7596 70.3134 72.6496 72.4434 71.3496C72.3234 71.3096 72.3434 71.1296 72.4134 70.6996C72.5534 70.8496 72.6834 70.9796 72.8134 71.1196C77.7134 68.0396 81.8134 63.8996 84.8634 59.0996Z" fill="#E30D16"/>
</g>
<mask id="mask1_16_58271" style="mask-type:luminance" maskUnits="userSpaceOnUse" x="0" y="0" width="105" height="77">
<path d="M0 0H104.71V77H0V0Z" fill="white"/>
</mask>
<g mask="url(#mask1_16_58271)">
<path d="M47.1469 36.0996C47.0369 36.0996 46.9169 36.1096 46.7969 36.1396L46.0469 36.2996L46.5069 38.4596H46.5269C46.6369 38.3296 46.6769 38.2696 46.7069 38.2696C46.7369 38.2696 46.7569 38.3096 46.8269 38.3696C46.8169 38.3796 46.8069 38.3896 46.8069 38.3996L46.8769 38.3796C47.0869 38.3396 47.2769 38.2796 47.4369 38.2096C47.5969 38.1396 47.7469 38.0496 47.8869 37.9396C47.9169 37.9096 47.9469 37.8896 47.9769 37.8596C47.9269 37.8496 47.8869 37.8296 47.8269 37.8196C47.9469 37.6996 48.0469 37.6396 48.1269 37.6396C48.1469 37.5996 48.1569 37.5696 48.1669 37.5296C48.2169 37.3596 48.2269 37.1796 48.1869 36.9696C48.1169 36.6396 47.9569 36.4096 47.7069 36.2596C47.5469 36.1496 47.3569 36.0996 47.1469 36.0996Z" fill="#E30D16"/>
</g>
<mask id="mask2_16_58271" style="mask-type:luminance" maskUnits="userSpaceOnUse" x="0" y="0" width="105" height="77">
<path d="M0 0H104.71V77H0V0Z" fill="white"/>
</mask>
<g mask="url(#mask2_16_58271)">
<path d="M37.2406 38.2002C37.1406 38.2002 37.0306 38.2102 36.9106 38.2402L36.3906 38.3502L36.8806 40.6702L37.1306 40.6202C38.0606 40.4202 38.4406 39.9102 38.2706 39.0802C38.1906 38.7102 38.0206 38.4602 37.7706 38.3302C37.6106 38.2402 37.4306 38.2002 37.2406 38.2002Z" fill="#E30D16"/>
</g>
<mask id="mask3_16_58271" style="mask-type:luminance" maskUnits="userSpaceOnUse" x="0" y="0" width="105" height="77">
<path d="M0 0H104.71V77H0V0Z" fill="white"/>
</mask>
<g mask="url(#mask3_16_58271)">
<path d="M27.3969 40.29C27.2969 40.29 27.1869 40.3 27.0669 40.33L26.5469 40.44L27.0369 42.76L27.2869 42.71C28.2169 42.51 28.5969 42 28.4269 41.17C28.3469 40.8 28.1869 40.55 27.9269 40.42C27.7669 40.33 27.5869 40.29 27.3969 40.29Z" fill="#E30D16"/>
</g>
<mask id="mask4_16_58271" style="mask-type:luminance" maskUnits="userSpaceOnUse" x="0" y="0" width="105" height="77">
<path d="M0 0H104.71V77H0V0Z" fill="white"/>
</mask>
<g mask="url(#mask4_16_58271)">
<path d="M16.1238 42.5801L16.0938 45.8601L17.5138 45.5601L16.1238 42.5801Z" fill="#E30D16"/>
</g>
<mask id="mask5_16_58271" style="mask-type:luminance" maskUnits="userSpaceOnUse" x="0" y="0" width="105" height="77">
<path d="M0 0H104.71V77H0V0Z" fill="white"/>
</mask>
<g mask="url(#mask5_16_58271)">
<path d="M57.2125 38.5698C57.1925 38.5698 57.1625 38.5498 57.1125 38.5398C57.2225 38.0798 57.2225 37.9798 57.2725 37.9798C57.3025 37.9798 57.3425 37.9998 57.4125 38.0198C57.2725 38.4698 57.2625 38.5698 57.2125 38.5698ZM57.3525 33.7598C57.2625 33.7598 57.1725 33.7698 57.0725 33.7898C56.9125 33.8198 56.7725 33.8798 56.6525 33.9598C56.5325 34.0398 56.4425 34.1298 56.3725 34.2398C56.3025 34.3498 56.2525 34.4698 56.2025 34.5998C56.1625 34.7298 56.1325 34.8698 56.1325 35.0098C56.1225 35.1598 56.1225 35.3098 56.1325 35.4598C56.1425 35.6198 56.1525 35.7698 56.1825 35.9198C56.2125 36.0698 56.2325 36.2198 56.2625 36.3598C56.2825 36.5098 56.3125 36.6398 56.3525 36.7698C56.3725 36.8698 56.3925 36.9398 56.4025 36.9898L56.4425 37.1698C56.4725 37.2898 56.5025 37.4198 56.5225 37.5598C56.5425 37.6998 56.5825 37.8398 56.6225 37.9798C56.6625 38.1198 56.7025 38.2698 56.7525 38.4098C56.7925 38.5498 56.8425 38.6898 56.9125 38.8198C56.9725 38.9498 57.0425 39.0798 57.1025 39.1898C57.1725 39.3098 57.2525 39.4098 57.3325 39.4998C57.4225 39.5898 57.5125 39.6698 57.6125 39.7198C57.7125 39.7798 57.8225 39.8198 57.9525 39.8298C58.0025 39.8398 58.0525 39.8398 58.1025 39.8398C58.1825 39.8398 58.2725 39.8298 58.3625 39.8098C58.5225 39.7798 58.6625 39.7198 58.7825 39.6398C58.9025 39.5598 58.9925 39.4598 59.0625 39.3498C59.1325 39.2398 59.1825 39.1098 59.2225 38.9698C59.2625 38.8298 59.2825 38.6798 59.2925 38.5198C59.3025 38.3598 59.2925 38.1998 59.2825 38.0298C59.2725 37.8598 59.2525 37.6998 59.2225 37.5298C59.1925 37.3698 59.1625 37.1998 59.1325 37.0498C59.1025 36.8898 59.0725 36.7398 59.0425 36.6098L59.0025 36.4298C58.9925 36.3798 58.9725 36.3098 58.9525 36.2098C58.9125 36.0598 58.8825 35.9098 58.8525 35.7398C58.8225 35.5698 58.7825 35.4098 58.7225 35.2398C58.6625 35.0698 58.6125 34.8998 58.5425 34.7398C58.4825 34.5798 58.4025 34.4298 58.3025 34.2998C58.2025 34.1698 58.1025 34.0498 57.9925 33.9598C57.8825 33.8698 57.7425 33.7998 57.5825 33.7698C57.5125 33.7598 57.4325 33.7598 57.3525 33.7598Z" fill="#E30D16"/>
</g>
<mask id="mask6_16_58271" style="mask-type:luminance" maskUnits="userSpaceOnUse" x="0" y="0" width="105" height="77">
<path d="M0 0H104.71V77H0V0Z" fill="white"/>
</mask>
<g mask="url(#mask6_16_58271)">
<path d="M63.4 47.6001C63.25 47.6001 63.11 47.6501 62.97 47.8001L63.69 47.6501C63.59 47.6201 63.5 47.6001 63.4 47.6001ZM17.91 57.2201L17.66 57.1101C17.69 57.0501 17.72 56.9901 17.78 56.8801C17.87 56.9501 17.96 56.9901 18.01 57.0601L17.91 57.2201ZM11.43 55.6101C11.19 55.4801 11.2 55.5701 11.3 55.3001C11.53 55.4001 11.49 55.3201 11.43 55.6101ZM10.14 53.5101C10.09 53.5101 10.02 53.4701 9.85 53.4001C9.97 53.2301 9.99 53.1801 10.05 53.1801C10.1 53.1801 10.18 53.2101 10.35 53.2401C10.22 53.4301 10.21 53.5101 10.14 53.5101ZM31.42 54.1901C30.97 54.1901 30.63 53.8501 30.61 53.4101C30.6 53.1601 30.6 53.1601 31.08 53.0801C31.21 53.4401 31.33 53.8101 31.46 54.1901C31.45 54.1901 31.43 54.1901 31.42 54.1901ZM13.9 53.5501C13.21 53.4201 13.52 52.8401 13.76 52.8401C13.78 52.8401 13.8 52.8401 13.82 52.8501C14.16 53.0201 14.01 53.2701 13.9 53.5501ZM34.02 53.0401C33.99 53.0401 33.95 53.0101 33.86 52.9801C33.98 52.8501 34 52.8101 34.03 52.8101C34.05 52.8101 34.09 52.8301 34.16 52.8501C34.08 52.9901 34.06 53.0401 34.02 53.0401ZM35.12 50.6701C35.1 50.6701 35.08 50.6401 35.01 50.6101C35.08 50.4901 35.1 50.4401 35.13 50.4401C35.15 50.4401 35.19 50.4701 35.28 50.5201C35.17 50.6301 35.14 50.6701 35.12 50.6701ZM17.39 48.0801C17.33 47.8101 17.32 47.7501 17.56 47.7501C17.62 47.7501 17.7 47.7501 17.8 47.7601C17.67 47.8601 17.54 47.9701 17.39 48.0801ZM47.86 48.0001L47.68 47.9101L47.77 47.7401C47.78 47.7401 47.79 47.7401 47.79 47.7401C47.84 47.7401 47.91 47.7801 47.99 47.8101L47.86 48.0001ZM58.63 47.9301C58.46 47.6901 58.39 47.8101 59.09 47.3901C59.05 47.8701 58.85 47.9101 58.63 47.9301ZM48.61 47.7201C48.55 47.7201 48.48 47.6801 48.36 47.5901L48.45 47.3501C48.46 47.3501 48.48 47.3501 48.5 47.3501C48.59 47.3501 48.7 47.3901 48.83 47.4201C48.75 47.5601 48.72 47.7201 48.61 47.7201ZM60.09 47.6301C60.05 47.6301 60.02 47.5701 59.94 47.4901C60.19 47.2501 60.26 47.1501 60.32 47.1501C60.36 47.1501 60.39 47.2101 60.48 47.3001C60.22 47.5401 60.14 47.6301 60.09 47.6301ZM62.19 47.0901C62.27 46.9101 62.35 46.7301 62.45 46.5101C62.62 46.9101 62.62 46.9101 62.19 47.0901ZM57.67 46.7601C57.28 46.5501 57.37 46.6401 57.44 46.3101C57.9 46.5001 57.87 46.4001 57.67 46.7601ZM51.43 46.3001C51.39 46.3001 51.35 46.2401 51.23 46.1501C51.38 46.0301 51.43 45.9801 51.47 45.9801C51.51 45.9801 51.55 46.0301 51.69 46.1001C51.52 46.2301 51.48 46.3001 51.43 46.3001ZM62.7 46.1101C62.41 45.9201 62.26 45.8701 62.2 45.7601L62.36 45.4801C62.49 45.4801 62.66 45.5401 62.74 45.6401C62.79 45.7201 62.72 45.8901 62.7 46.1101ZM69.19 45.4901C68.91 45.3001 68.95 45.4201 69.04 45.0301C69.41 45.2301 69.39 45.1001 69.19 45.4901ZM60.59 45.0301C60.55 45.0301 60.55 44.9701 60.52 44.8601C60.78 44.7501 60.87 44.7001 60.92 44.7001C60.96 44.7001 60.96 44.7401 61 44.8301C60.73 44.9601 60.63 45.0301 60.59 45.0301ZM12.71 45.5001C12.68 45.5001 12.65 45.4801 12.59 45.4601C12.73 44.9601 12.75 44.6101 13.04 44.6101C13.11 44.6101 13.2 44.6301 13.31 44.6801C12.85 45.3601 12.79 45.5001 12.71 45.5001ZM51.53 45.0901C51.54 44.5501 51.96 44.5601 52.38 44.4101C52.26 45.2001 51.61 45.3701 51.14 45.7801C50.97 45.5501 50.81 45.3301 50.66 45.1301C50.78 44.9401 50.89 44.8801 50.99 44.8801C51.17 44.8801 51.34 45.0701 51.53 45.0901ZM58.65 44.1801C58.77 44.1801 58.88 44.1601 59 44.1401C59.11 44.1201 59.22 44.1001 59.33 44.1001C59.55 44.1001 59.77 44.1801 59.97 44.5101C59.75 44.4601 59.56 44.3901 59.38 44.3901C59.22 44.3901 59.08 44.4401 58.94 44.6101C58.91 44.6501 58.86 44.6701 58.82 44.6701C58.67 44.6701 58.47 44.4601 58.32 44.1101C58.43 44.1601 58.54 44.1801 58.65 44.1801ZM71.24 43.3601L71.08 43.2701L71.18 43.0701L71.4 43.1601L71.24 43.3601ZM69.93 43.2601C69.8 43.2601 69.65 43.2301 69.49 43.1401C69.84 42.6801 69.48 42.7701 70.72 42.6901L70.66 42.9701C70.44 43.1101 70.22 43.2601 69.93 43.2601ZM66.25 41.9301C66.08 41.9001 65.92 41.8601 65.77 41.8301C65.69 41.5501 65.77 41.3701 66.01 41.3701C66.02 41.3701 66.03 41.3701 66.05 41.3701C66.38 41.4001 66.38 41.6301 66.25 41.9301ZM12.49 41.6901L12.38 41.1601L18.52 39.8601L21.96 46.7201C22.02 46.8401 22.07 46.9301 22.11 46.9901L22.25 47.1401L22.43 47.1801L22.96 47.0701L23.43 49.2901L18.33 50.3701L17.85 48.1501L18.59 47.9901C18.46 47.3701 18.27 47.0601 18.03 47.0601C18.01 47.0601 17.99 47.0601 17.96 47.0701L17.83 47.1001C17.73 47.3601 17.54 47.5501 17.18 47.6401C17.04 47.6701 16.9 47.7101 16.78 47.7101C16.62 47.7101 16.49 47.6501 16.39 47.4301C16.39 47.4201 16.4 47.4101 16.4 47.4001L16.25 47.4301L16.14 47.5201L16.12 47.6601L16.15 47.8601C16.17 47.9801 16.23 48.1001 16.3 48.2401C16.37 48.3601 16.44 48.4201 16.51 48.4201C16.52 48.4201 16.53 48.4201 16.54 48.4201L17.06 48.3101L17.53 50.5301L13.34 51.4201L13.15 50.5401C13.09 50.5101 13.09 50.4801 13.12 50.4001L12.87 49.2001C13.05 49.1601 13.21 49.1101 13.34 49.0501C13.64 48.9001 13.83 48.6601 13.9 48.3201C13.92 48.2101 13.95 47.9301 13.97 47.4701L14.14 43.0501L12.83 43.3301L12.54 41.9501C12.48 41.9001 12.39 41.8201 12.24 41.7001C12.34 41.7001 12.42 41.7001 12.49 41.6901ZM12.56 40.3301C12.24 40.1701 12.24 40.3301 12.48 39.6901C12.84 39.8001 12.8 39.6701 12.56 40.3301ZM14.9 39.9201L14.83 39.7401C15.22 39.5801 15.35 39.5201 15.41 39.5201C15.45 39.5201 15.46 39.5601 15.5 39.6301C15.23 39.8901 15.39 39.8301 14.9 39.9201ZM14.12 39.7801C14.09 39.7801 14.09 39.7501 14.07 39.7001C14.32 39.5601 14.41 39.4901 14.45 39.4901C14.48 39.4901 14.49 39.5301 14.53 39.6101C14.25 39.7301 14.16 39.7801 14.12 39.7801ZM12.68 39.4101C12.52 38.9901 12.7 38.7201 13.1 38.4501C13.22 39.1201 13.22 39.1201 12.68 39.4101ZM15.64 38.9501C15.55 38.5201 15.55 38.5201 16.18 38.3101C16 38.5101 15.83 38.7201 15.64 38.9501ZM9.46 38.7001C9.09 38.6001 9.05 38.4201 9.26 38.1201C9.59 38.2301 9.63 38.4201 9.46 38.7001ZM51.7 38.5501C51.81 38.2301 51.86 38.1001 51.98 38.1001C52.06 38.1001 52.16 38.1501 52.33 38.2301C52.18 38.5401 51.82 38.5501 51.7 38.5501C51.7 38.5601 51.7 38.5601 51.69 38.5701C51.69 38.5701 51.69 38.5701 51.69 38.5801C51.82 38.6801 51.9 38.8001 51.71 38.9201L51.47 38.8901C51.63 38.6701 51.68 38.6001 51.69 38.5801L51.68 38.5701C51.68 38.5701 51.68 38.5701 51.69 38.5701C51.64 38.5501 51.65 38.5501 51.7 38.5501ZM24.83 38.5201L25.72 38.3301L25.87 38.3001L26 38.2701L26.15 38.2401C26.42 38.1901 26.69 38.1301 26.95 38.0701C27.22 38.0101 27.48 37.9601 27.74 37.9301C28 37.9001 28.26 37.8701 28.51 37.8501C28.62 37.8401 28.73 37.8401 28.83 37.8401C28.97 37.8401 29.1 37.8501 29.24 37.8601C29.48 37.8901 29.7 37.9301 29.91 38.0001C30.12 38.0601 30.32 38.1601 30.51 38.2901C30.7 38.4201 30.88 38.5801 31.03 38.7601C31.19 38.9401 31.33 39.1701 31.45 39.4501C31.57 39.7301 31.68 40.0401 31.75 40.3901C31.89 41.0001 31.91 41.5401 31.81 42.0301C31.71 42.5101 31.51 42.9201 31.19 43.2601C30.88 43.6001 30.49 43.8801 30.03 44.1001C29.57 44.3201 29.02 44.5001 28.39 44.6301C28.1 44.6901 27.78 44.7401 27.45 44.7601L27.73 46.0601L28.63 45.8701L29.1 48.0901L23.78 49.2201L23.33 47.0001L24.29 46.8001L23.1 41.1701L22.17 41.3701L21.71 39.1901L24.67 38.5601C24.66 38.5401 24.64 38.5101 24.62 38.4801C24.87 38.2901 24.95 38.2201 24.99 38.2201C25.03 38.2201 25.04 38.2701 25.1 38.3501C24.97 38.4201 24.89 38.4801 24.83 38.5201ZM16.28 37.3001C16 37.2101 16.02 37.2901 16.15 36.9901C16.41 37.1201 16.35 37.0501 16.28 37.3001ZM15.26 37.0601C15.1 36.8801 15.07 36.9701 15.43 36.6601C15.58 36.8401 15.63 36.7601 15.26 37.0601ZM16.73 36.4201C16.5 36.3201 16.54 36.3901 16.59 36.1101C16.85 36.2601 16.81 36.1801 16.73 36.4201ZM32.01 39.2701L31.55 37.0901L35.57 36.2401L35.72 36.2101L35.85 36.1801L36 36.1501C36.27 36.1001 36.54 36.0401 36.8 35.9801C37.07 35.9201 37.33 35.8701 37.59 35.8401C37.85 35.8101 38.11 35.7801 38.36 35.7601C38.47 35.7501 38.58 35.7501 38.68 35.7501C38.82 35.7501 38.95 35.7601 39.09 35.7701C39.33 35.8001 39.55 35.8401 39.76 35.9101C39.97 35.9701 40.17 36.0701 40.36 36.2001C40.55 36.3301 40.73 36.4901 40.88 36.6701C41.04 36.8501 41.18 37.0801 41.3 37.3601C41.43 37.6301 41.53 37.9501 41.61 38.3001C41.75 38.9101 41.77 39.4501 41.67 39.9401C41.57 40.4201 41.37 40.8301 41.05 41.1701C40.74 41.5101 40.35 41.7901 39.89 42.0101C39.43 42.2301 38.88 42.4101 38.25 42.5501C37.96 42.6101 37.64 42.6601 37.31 42.6801L37.59 43.9801L38.49 43.7901L38.96 46.0001L33.64 47.1301L33.17 44.9101L34.13 44.7101L32.94 39.0801L32.01 39.2701ZM41.82 37.1901L41.36 35.0101L47.63 33.6801C48.07 33.5901 48.47 33.5401 48.84 33.5401C48.9 33.5401 48.95 33.5401 49.01 33.5401C49.42 33.5601 49.8 33.6401 50.14 33.7901C50.48 33.9401 50.77 34.1901 51 34.5201C51.23 34.8501 51.4 35.2701 51.51 35.7801C51.64 36.3801 51.55 36.9101 51.24 37.3701C50.94 37.8301 50.44 38.2101 49.76 38.4901C50.4 38.5001 50.88 38.6001 51.2 38.8001C51.52 39.0001 51.72 39.2801 51.8 39.6601L51.92 40.2301C51.95 40.3501 51.98 40.4401 52.01 40.5101L52.18 40.6801C52.26 40.7301 52.36 40.7501 52.49 40.7501C52.5 40.7501 52.5 40.7501 52.51 40.7501C52.65 40.7501 52.84 40.7201 53.07 40.6701L53.5 42.6901C53.52 42.6301 53.54 42.5701 53.58 42.5101L53.94 42.4001C54.03 42.4601 54.12 42.7101 54.07 42.7701C53.91 42.9601 53.7 43.0901 53.5 43.2501L53.38 43.1601C53.4 43.0801 53.42 43.0001 53.44 42.9201L51.93 43.2401C51.77 43.2701 51.64 43.3001 51.55 43.3201C51.46 43.3401 51.33 43.3601 51.18 43.3801C51.02 43.4001 50.9 43.4201 50.8 43.4201C50.78 43.4201 50.76 43.4201 50.74 43.4201C50.65 43.4201 50.55 43.4201 50.44 43.4101C50.3 43.4001 50.19 43.3801 50.1 43.3401C50.01 43.3101 49.91 43.2601 49.8 43.2001C49.69 43.1401 49.61 43.0601 49.53 42.9701C49.46 42.8801 49.39 42.7601 49.33 42.6301C49.27 42.4901 49.22 42.3401 49.18 42.1701L48.92 40.9601C48.87 40.7201 48.81 40.5201 48.75 40.3601C48.69 40.2001 48.6 40.0601 48.5 39.9301C48.39 39.8001 48.25 39.7201 48.08 39.6801C48.01 39.6601 47.93 39.6601 47.85 39.6601C47.73 39.6601 47.6 39.6801 47.45 39.7101L46.84 39.8401L47.28 41.9101L48.03 41.7501L48.5 43.9701C47.41 44.2001 45.75 44.5601 43.5 45.0401L43.03 42.8201L43.98 42.6201L42.79 36.9901L41.82 37.1901ZM26.11 33.1101C25.7 33.0701 25.77 33.1201 25.78 32.9101C26.2 33.0001 26.14 32.9501 26.11 33.1101ZM57.66 42.1001C57.12 42.1001 56.6 42.0201 56.09 41.8501C55.22 41.5701 54.48 41.0701 53.87 40.3801C53.26 39.6801 52.85 38.8501 52.65 37.8801C52.43 36.8201 52.45 35.8401 52.72 34.9501C52.99 34.0601 53.47 33.3301 54.14 32.7501C54.81 32.1701 55.64 31.7901 56.62 31.5801C57.05 31.4901 57.48 31.4401 57.89 31.4401C58.39 31.4401 58.88 31.5101 59.34 31.6501C60.19 31.9001 60.92 32.3801 61.53 33.0801C62.14 33.7801 62.56 34.6701 62.79 35.7301C63 36.7001 62.96 37.6301 62.69 38.5101C62.41 39.3901 61.94 40.1401 61.26 40.7601C61.16 40.8501 61.06 40.9301 60.95 41.0201C61.28 41.0401 61.58 41.0701 61.87 41.0701C62 41.0701 62.12 41.0601 62.25 41.0401C62.47 41.0101 62.67 40.9501 62.89 40.9501C63.09 40.9501 63.29 41.0001 63.51 41.1601C63.24 41.3601 63.02 41.5201 62.76 41.7101C62.64 41.4301 62.64 41.3301 62.54 41.3301C62.46 41.3301 62.32 41.3901 62.03 41.4701C62 41.7301 61.98 41.9801 61.95 42.3001C61.57 42.1501 61.28 42.0501 60.91 41.9001C60.9 41.6101 60.89 41.3501 60.88 41.0701C60.29 41.5101 59.6 41.8101 58.83 41.9701C58.66 42.0101 58.48 42.0401 58.31 42.0601C58.48 42.4401 58.65 42.8301 58.85 43.2901C58.13 43.0001 57.83 42.6001 57.94 42.0901C57.84 42.1001 57.75 42.1001 57.66 42.1001ZM60.63 30.8801C60.09 30.4001 60.3 30.0901 60.51 29.7901C60.72 29.8601 60.68 29.6901 60.63 30.8801ZM50.88 28.6601L50.7 28.5401L50.78 28.3501L50.96 28.4301C50.98 28.4701 50.92 28.5501 50.88 28.6601ZM66.37 28.9701C65.89 28.9501 65.46 29.0401 65.26 28.5201C65.51 28.3501 65.75 28.1601 66.08 28.1601C66.2 28.1601 66.33 28.1901 66.47 28.2501C66.44 28.4701 66.41 28.7001 66.37 28.9701ZM69.98 28.9401C69.59 28.7001 69.54 28.5001 69.67 27.9901C69.74 27.7201 69.74 27.7201 70.32 27.7201C70.21 28.1601 70.12 28.5401 70.03 28.9301L72 28.5101L72.46 30.6901C72.35 30.7101 72.25 30.7401 72.16 30.7701L71.93 30.8801L71.76 31.0001L71.64 31.1701L71.56 31.3501C71.54 31.4001 71.52 31.4701 71.5 31.5801C71.48 31.6901 71.47 31.7701 71.46 31.8301C71.45 31.8901 71.44 31.9901 71.43 32.1301C71.41 32.2701 71.4 32.3801 71.39 32.4501L70.56 39.2901L66.95 40.0601L63.05 32.6901L62.02 32.9101L61.56 30.7401L64.47 30.1201C64.41 30.1101 64.35 30.1001 64.31 30.0701C64.19 29.9901 64.33 29.8401 64.51 29.8401C64.53 29.8401 64.55 29.8401 64.57 29.8401C64.83 29.8801 64.81 29.8401 64.76 30.0601L66.9 29.6101L67.36 31.7901L66.64 31.9401L68.88 36.3301L69.23 32.6101C69.25 32.3501 69.24 32.1401 69.2 31.9701C69.16 31.8001 69.05 31.6801 68.88 31.6101C68.79 31.5801 68.69 31.5601 68.57 31.5601C68.45 31.5601 68.32 31.5801 68.16 31.6101L67.7 29.4301L69.98 28.9401ZM72.69 30.6401L72.23 28.4601L80.07 26.8001L80.93 30.8401L79.28 31.2001L78.41 29.4301L77.09 29.7101L77.46 31.4501L78.73 31.1801L79.19 33.3501L77.92 33.6201L78.28 35.3301L79.63 35.0401V34.6501L79.67 32.9201L81.36 32.5601L82.26 36.8101L74.36 38.4901L73.89 36.2701L74.87 36.0601L73.68 30.4301L72.69 30.6401ZM70.21 27.3301C70.04 27.0401 69.92 26.8301 69.78 26.5901C69.89 26.5801 69.98 26.5701 70.05 26.5701C70.35 26.5801 70.33 26.7001 70.21 27.3301ZM81.56 28.7501L81.1 26.5801L86.23 25.4901C86.82 25.3601 87.38 25.3001 87.89 25.3001C88.84 25.3001 89.65 25.5201 90.31 25.9501C91.33 26.6201 92.02 27.7701 92.37 29.4001C92.51 30.0701 92.53 30.7301 92.44 31.3801C92.34 32.0301 92.13 32.6301 91.8 33.1901C91.48 33.7501 91.01 34.2401 90.39 34.6501C89.78 35.0701 89.05 35.3701 88.22 35.5401L83.26 36.5901L82.79 34.3701L83.8 34.1601L82.6 28.5201L81.56 28.7501ZM80.85 25.0701C80.37 25.0701 80 24.6001 80.17 24.2801C80.78 23.1301 81.14 23.1901 80.8 22.7201C80.51 22.3301 81.07 22.3801 81.26 22.2501C81.23 22.0901 81.21 21.9701 81.17 21.7501C81.53 21.7701 81.84 21.7901 82.23 21.8101C82.11 22.3201 82.01 22.7301 81.9 23.1901C82.44 23.4801 82.4 24.0001 82.35 24.6301C82.15 24.4501 82.09 24.3401 82.02 24.3401C81.93 24.3401 81.83 24.4901 81.44 24.8301C81.23 25.0001 81.03 25.0701 80.85 25.0701ZM99.6 16.9201L79 21.2901C79.37 21.7501 79.24 21.6201 79.22 22.0301C78.68 21.8801 78.84 21.9401 78.63 21.7801C78.47 21.9201 78.39 22.2201 78.2 22.2201C78.15 22.2201 78.1 22.2001 78.03 22.1601C78.02 21.8701 78 21.6601 78 21.5001L17.95 34.2501C18.22 34.5301 18.47 34.8401 18.73 35.1201C18.47 35.2901 18.34 35.3701 18.17 35.3701C18.01 35.3701 17.82 35.2901 17.43 35.1301C17 35.5801 16.54 35.9801 15.92 35.9801C15.7 35.9801 15.47 35.9301 15.2 35.8201C15.2 35.5901 15.19 35.3201 15.19 34.9901C15.36 35.0101 15.52 35.0401 15.66 35.0401C15.86 35.0401 16.03 34.9901 16.19 34.7901C16.31 34.6401 16.68 34.6801 16.95 34.6301C16.98 34.5701 17 34.5001 17 34.4501L0 38.0601L9.9 47.5101L7.29 53.8501C7.36 53.8801 7.31 53.9401 7.26 54.1201C7.24 54.1101 7.21 54.1001 7.19 54.0901L6.94 54.6901C7.02 54.7901 7.11 54.9301 7.23 55.0901L7.07 55.2201C7 55.0701 6.93 55.0101 6.85 55.0101C6.83 55.0101 6.81 55.0101 6.79 55.0201L5.7 57.6701C5.73 57.6901 5.76 57.7001 5.79 57.7201C5.72 57.8801 5.64 58.0101 5.53 58.0801L4.67 60.1701L27.03 55.4201C27.05 55.4101 27.06 55.4001 27.07 55.3901L27.09 55.4101L29.23 54.9601C29.25 54.9301 29.26 54.9001 29.28 54.8701C29.39 54.6801 29.63 54.5601 29.86 54.3601C29.94 54.5001 29.97 54.6501 30 54.7901L34.38 53.8601C34.49 53.2701 34.59 53.4001 34.85 53.2301C34.88 53.4001 34.9 53.5701 34.93 53.7401L36.94 53.3101C36.89 53.2801 36.83 53.2601 36.77 53.2301C36.94 53.1401 37.04 53.0901 37.11 53.0901C37.18 53.0901 37.21 53.1401 37.26 53.2401L55.15 49.4401C55.09 49.3801 55.13 49.3801 55.19 49.2901C55.25 49.3301 55.31 49.3701 55.35 49.3901L56.04 49.2401C55.73 48.9601 55.84 48.5701 55.8 48.1701C57.12 48.6301 56.99 48.5601 56.97 48.6201C57.02 48.5801 57.24 48.3801 58.18 47.6601C58.31 47.9801 58.42 48.2501 58.53 48.5301C58.41 48.4701 58.29 48.4401 58.18 48.4401C58.01 48.4401 57.84 48.4901 57.68 48.5501C57.52 48.6001 57.36 48.6601 57.2 48.6601C57.12 48.6601 57.05 48.6501 56.97 48.6201C56.97 48.9401 56.73 49.0201 56.53 49.1401L61.5 48.0901C61.51 47.9701 61.51 47.9501 61.55 47.9501C61.57 47.9501 61.6 47.9501 61.64 47.9601C61.64 48.0001 61.65 48.0401 61.65 48.0701L62.75 47.8401C62.71 47.5901 62.66 47.4401 62.71 47.3501C62.97 46.9401 63.2 46.5201 63.15 46.0001C63.67 46.1501 64.12 46.2701 64.67 46.4201C63.99 47.0501 64.1 46.7901 64.03 47.5601L104.69 38.9301L94.79 29.4701L99.72 17.4701C99.68 17.4801 99.64 17.4901 99.6 17.4901C99.54 17.4901 99.47 17.4801 99.39 17.4501C99.36 17.2101 99.43 17.0201 99.6 16.9201ZM100.01 16.8301L99.86 16.8601C99.9 16.8701 99.94 16.8901 99.98 16.9101L100.01 16.8301Z" fill="#E30D16"/>
</g>
<mask id="mask7_16_58271" style="mask-type:luminance" maskUnits="userSpaceOnUse" x="0" y="0" width="105" height="77">
<path d="M0 0H104.71V77H0V0Z" fill="white"/>
</mask>
<g mask="url(#mask7_16_58271)">
<path d="M86.7022 27.7002C86.5722 27.7002 86.4322 27.7202 86.2822 27.7502L85.9922 27.8102L87.1922 33.4402L87.4122 33.3902C87.7122 33.3302 87.9622 33.2102 88.1722 33.0402C88.3722 32.8702 88.5222 32.6902 88.6222 32.4702C88.7222 32.2602 88.7822 32.0102 88.8122 31.7402C88.8422 31.4602 88.8522 31.2002 88.8322 30.9502C88.8122 30.7002 88.7722 30.4302 88.7122 30.1602C88.6522 29.8802 88.5822 29.6202 88.5122 29.3902C88.4522 29.2002 88.3722 29.0102 88.2722 28.8202C88.2222 29.0102 88.2022 29.1302 88.1422 29.2202C87.9322 29.5102 87.5422 29.7002 87.7022 30.1602C87.7122 30.2002 87.5322 30.3702 87.4422 30.3702C87.3522 30.3702 87.1822 30.2202 87.1822 30.1402C87.1822 29.2402 87.6422 29.6702 86.6922 29.0602C86.7222 28.8202 86.4922 28.9102 88.1722 28.6402C88.0422 28.4102 87.9022 28.2302 87.7422 28.0802C87.5722 27.9302 87.3622 27.8202 87.1122 27.7502C86.9822 27.7202 86.8422 27.7002 86.7022 27.7002Z" fill="#E30D16"/>
</g>
<mask id="mask8_16_58271" style="mask-type:luminance" maskUnits="userSpaceOnUse" x="0" y="0" width="105" height="77">
<path d="M0 0H104.71V77H0V0Z" fill="white"/>
</mask>
<g mask="url(#mask8_16_58271)">
<path d="M35.3534 70.94C35.0034 70.89 35.1034 70.72 35.1134 70.52C35.3134 70.67 35.4034 70.71 35.4534 70.78L35.3534 70.94ZM33.4134 70.65C33.3034 70.65 33.3334 70.6 33.3234 70.5C33.4434 70.49 33.5634 70.49 33.6834 70.48L33.6634 70.62C33.5434 70.64 33.4634 70.65 33.4134 70.65ZM27.8634 66.08C27.7534 66.06 27.6334 65.98 27.5834 65.9L27.7034 65.65C27.8034 65.71 27.9034 65.76 28.0734 65.85C27.9834 65.95 27.9134 66.08 27.8634 66.08ZM25.8234 65L25.7234 64.85C25.8534 64.79 25.9734 64.72 26.1034 64.67L26.1834 64.78C26.1534 64.81 26.1334 64.84 26.1034 64.87C26.2234 64.89 26.3434 65 26.4834 65.18C26.2534 65.3 26.0834 65.39 25.8534 65.52C25.8234 65.31 25.7434 65.13 25.8034 65.04C25.8034 65.03 25.8134 65.02 25.8234 65ZM22.3334 61.74C22.2534 61.74 22.1534 61.68 22.0334 61.53L22.1934 61.25C22.2034 61.25 22.2134 61.25 22.2234 61.25C22.3034 61.25 22.4334 61.34 22.6934 61.46C22.5834 61.56 22.4834 61.74 22.3334 61.74ZM21.5334 61.06C21.3034 61.06 21.0634 60.66 20.5734 60.05C20.6334 60.05 20.6934 60.04 20.7534 60.04C21.8134 60.04 21.9234 60.79 21.7134 60.98C21.6434 61.04 21.5834 61.06 21.5334 61.06ZM22.1034 58.66L20.3734 59.03C20.3634 59.03 20.3534 59.04 20.3434 59.04C20.3434 59.04 20.3434 59.04 20.3334 59.04L19.8534 59.14C23.9134 65.52 29.7534 70.51 36.5234 73.58C36.5834 73.51 36.6734 73.42 36.7734 73.3C37.0134 73.41 36.9534 73.58 36.9234 73.76C37.6934 74.1 38.4734 74.41 39.2734 74.7L42.6534 73.54C40.9234 73.06 39.2334 72.45 37.5934 71.72C37.6334 71.88 37.6934 72.09 37.7734 72.37C37.7534 72.37 37.7334 72.37 37.7134 72.37C37.4534 72.37 37.3134 72.55 37.1834 72.73C37.0534 72.91 36.9134 73.09 36.6734 73.09C36.5934 73.09 36.5134 73.07 36.4134 73.03C36.0934 72.64 36.0834 72.17 36.2434 71.56C36.5234 71.71 36.7234 71.82 37.0434 72C37.0734 71.82 37.0934 71.66 37.1234 71.51C31.0934 68.71 25.8534 64.28 22.1034 58.66ZM45.7034 70.28C45.8334 69.77 45.8534 69.56 45.8934 69.56C45.9234 69.56 45.9534 69.7 46.0634 69.91C46.2034 70.19 46.0734 70.27 45.7034 70.28ZM39.5334 69.58C39.3534 69.58 39.2934 69.43 39.1334 68.98C39.4534 69.17 39.6634 69.3 39.9534 69.47C39.7534 69.54 39.6234 69.58 39.5334 69.58ZM54.5634 69C54.3434 68.91 54.3934 69.05 54.3934 68.15C54.9734 68.63 55.0034 68.41 54.5634 69ZM42.3034 69.56C42.7834 69.02 43.1634 68.6 43.5934 68.11C43.6734 68.35 43.8134 68.56 43.7934 68.76C43.7234 69.48 43.1934 69.4 42.3034 69.56ZM39.0434 68.57C38.9134 68.57 38.7634 68.43 38.5134 68.17C38.9034 68.12 39.1734 68.08 39.4634 68.05C39.2934 68.4 39.1834 68.57 39.0434 68.57ZM38.6634 67.63L38.4034 67.55C38.2934 67.12 38.5634 66.98 38.7034 66.83C38.8034 67.14 38.9434 67.22 38.6634 67.63ZM39.6634 65.45C39.6234 65.45 39.6134 65.4 39.5634 65.29C39.7834 65.19 39.8634 65.14 39.9034 65.14C39.9434 65.14 39.9434 65.18 39.9934 65.26C39.7834 65.39 39.7034 65.45 39.6634 65.45ZM36.7134 65.25C36.6234 64.67 36.6234 64.49 36.8634 64.49C36.9534 64.49 37.0834 64.52 37.2534 64.56C37.5234 64.62 38.2934 64.36 38.7834 65.55C38.1834 65.69 38.1834 65.69 37.5934 66.6C37.3434 66.54 37.2534 66.41 37.2134 66.24C37.1834 66.29 37.1634 66.31 37.1334 66.31C37.0934 66.31 37.0534 66.26 36.9634 66.19C37.0334 66.11 37.1034 66.03 37.1834 65.95C37.1834 65.83 37.1734 65.71 37.1434 65.59C37.3434 65.47 37.5334 65.36 37.7734 65.22C37.6334 65.12 37.6234 65.06 37.5334 65.06C37.4334 65.06 37.2534 65.12 36.7134 65.25ZM55.1034 64.12C55.0634 64.12 55.0634 64.09 55.0334 64.02C55.2834 63.86 55.3734 63.79 55.4234 63.79C55.4634 63.79 55.4734 63.86 55.5334 63.98C55.2534 64.08 55.1534 64.12 55.1034 64.12ZM31.7434 64.86C31.8434 64.63 32.0234 64.42 31.9734 64.28C31.8834 63.97 32.0234 63.85 32.2734 63.66C32.6934 64.51 32.6534 64.6 31.7434 64.86ZM57.8134 63.92C57.4734 63.67 57.3634 63.52 57.5134 63.3C57.5834 63.3 57.6334 63.29 57.6634 63.29C57.7634 63.29 57.7434 63.36 57.8134 63.92ZM34.2534 63.64C34.0734 63.2 33.9234 62.85 33.7834 62.5C33.9134 62.41 34.0134 62.37 34.1034 62.37C34.4434 62.37 34.4734 62.97 34.8734 63C34.6534 63.23 34.4834 63.4 34.2534 63.64ZM52.8534 62.76C52.8034 62.76 52.7934 62.7 52.7334 62.62C52.8734 62.25 53.3034 62.28 53.5634 62.08L53.6634 62.22C53.0834 62.62 52.9234 62.76 52.8534 62.76ZM35.0934 63.85L34.9634 63.62C35.9434 62.65 36.0734 62.62 35.4534 62.15C35.3634 62.08 35.3634 61.91 35.2934 61.71C36.0334 61.91 36.9234 61.71 36.9434 62.91C36.3334 63.15 35.7534 63.58 35.0934 63.85ZM52.9034 62.18L52.6334 62.17C52.6234 61.97 52.6434 61.78 52.6434 61.58C52.7734 61.59 52.8134 61.58 52.8234 61.59C52.9634 61.78 53.1334 61.97 52.9034 62.18ZM29.6734 61.51C29.7534 61.23 29.8634 61.15 30.0034 61.15C30.1134 61.15 30.2434 61.21 30.3834 61.27C30.1434 61.35 29.9334 61.42 29.6734 61.51ZM35.4234 61.35C35.0734 61.16 35.1234 61.25 35.2534 60.96C35.5834 61.15 35.5134 61.06 35.4234 61.35ZM32.0534 61.72C32.0434 61.72 32.0434 61.72 32.0334 61.72C32.0034 61.5 31.9134 61.59 32.4634 61.31C32.3434 61.11 32.2234 60.91 32.0734 60.65C32.2534 60.58 32.4234 60.51 32.6434 60.42C32.6334 60.78 32.4634 61.12 33.0034 61.16C33.3434 61.19 33.6634 61.39 33.9634 61.51C33.7234 61.72 33.4634 61.91 33.1534 61.91C32.9934 61.91 32.8134 61.86 32.6234 61.73C32.5634 61.69 32.4934 61.68 32.4234 61.68C32.3634 61.68 32.3034 61.69 32.2334 61.69C32.1734 61.71 32.1134 61.72 32.0534 61.72ZM67.0034 60.6C66.9734 60.6 66.9234 60.57 66.8334 60.53C66.8834 60.41 66.9334 60.29 66.9934 60.18L67.1234 60.22C67.0734 60.52 67.0634 60.6 67.0034 60.6ZM68.3334 60.39C68.4234 60.31 68.5134 60.23 68.6134 60.14C68.7234 60.34 68.8434 60.48 68.8834 60.65C69.0034 61.11 68.7434 61.18 68.3134 61.18C68.1634 61.18 68.0034 61.17 67.8234 61.17C67.8034 61.17 67.7834 61.14 67.6134 61.03C67.8234 60.84 68.0234 60.67 68.2234 60.49C67.9034 60.57 67.7634 60.61 67.7034 60.61C67.6334 60.61 67.6534 60.56 67.6134 60.45C67.7434 60.32 67.8734 60.19 68.0134 60.19C68.1234 60.19 68.2234 60.25 68.3334 60.39ZM69.5434 60.1C69.4234 60.1 69.3534 59.98 69.1834 59.68C69.4434 59.76 69.6734 59.84 69.9234 59.92C69.7334 60.03 69.6234 60.1 69.5434 60.1ZM68.4734 60.02C68.1234 59.87 68.2034 59.96 68.2734 59.6C68.6434 59.74 68.6134 59.61 68.4734 60.02ZM33.6734 60.58C33.6834 60.21 33.6934 59.91 33.7034 59.61C33.8834 59.59 34.0134 59.57 34.1234 59.57C34.4434 59.57 34.5234 59.73 34.8334 60.37C34.4634 60.44 34.1134 60.5 33.6734 60.58ZM54.0934 60.97C53.9434 60.97 53.8234 60.79 53.6334 60.41C53.4334 60.02 52.9034 59.55 53.2634 59.27C53.3134 59.23 53.4234 59.21 53.5234 59.21C53.6034 59.21 53.6734 59.22 53.6934 59.26C54.0134 59.65 54.6434 59.81 54.6134 60.56C54.3834 60.83 54.2234 60.97 54.0934 60.97ZM32.0934 59.51C32.0434 59.51 31.9834 59.44 31.8034 59.31C31.9334 59.2 31.9534 59.14 32.0034 59.14C32.0634 59.14 32.1534 59.19 32.3934 59.3C32.2034 59.44 32.1434 59.51 32.0934 59.51ZM68.6134 59.41C68.3434 58.96 68.3134 59.07 68.7034 58.91C68.8134 59.43 68.8434 59.32 68.6134 59.41ZM28.8334 60.41C29.1634 59.89 28.9534 59.23 29.6134 58.77C29.7834 59.28 29.8234 59.44 29.8534 59.44C29.8734 59.44 29.8934 59.37 29.9334 59.28C30.2234 59.48 30.5034 59.68 30.7934 59.88C30.9134 59.74 31.0134 59.63 31.1234 59.5C31.2934 59.64 31.4234 59.76 31.5534 59.87C31.4934 59.95 31.5134 59.98 31.4234 59.98C31.3434 59.98 31.1934 59.96 30.8434 59.91C30.8834 59.94 30.9334 59.97 30.9734 60C30.4034 60.49 31.2634 60.34 31.2434 60.59C31.0734 60.82 30.8534 60.93 30.6234 60.93C30.3234 60.93 30.0034 60.74 29.7834 60.35C29.1734 60.4 29.4134 60.38 28.8334 60.41ZM38.8034 59.01C38.6634 59.01 38.5834 58.93 38.3934 58.74C38.5034 58.68 38.5934 58.66 38.6834 58.66C38.8334 58.66 38.9534 58.72 39.0434 58.79C39.1234 58.85 39.1834 58.91 39.2134 58.92C39.2234 58.92 39.2234 58.92 39.2334 58.91L39.2434 58.92C39.4834 58.89 39.7234 58.85 40.0034 58.81C39.8234 59.1 39.7234 59.24 39.6234 59.24C39.5334 59.24 39.4234 59.13 39.2434 58.92C39.2334 58.92 39.2334 58.92 39.2234 58.92C39.2234 58.92 39.2234 58.92 39.2134 58.92C39.0134 58.97 38.8934 59.01 38.8034 59.01ZM26.6534 59.36C26.1534 59.24 26.1534 59.24 26.1734 58.62C26.6434 58.74 26.4934 59.09 26.6534 59.36ZM28.7334 58.87C28.6834 58.87 28.6734 58.81 28.6234 58.69C28.9434 58.52 29.0634 58.44 29.1234 58.44C29.1834 58.44 29.1834 58.51 29.2434 58.66C28.9034 58.79 28.7834 58.87 28.7334 58.87ZM67.8234 58.57L67.6634 58.48L67.7334 58.28C67.7434 58.28 67.7434 58.27 67.7534 58.27C67.7934 58.27 67.8734 58.31 67.9534 58.34C67.9034 58.44 67.8834 58.52 67.8234 58.57ZM56.9534 58.42C56.9134 58.42 56.9134 58.38 56.8834 58.31C57.2834 58.17 57.4234 58.11 57.4834 58.11C57.5234 58.11 57.5134 58.15 57.5434 58.22C57.1434 58.36 57.0034 58.42 56.9534 58.42ZM41.5534 58.47C41.3634 58.4 41.2234 58.34 41.0434 58.27C41.2134 58.15 41.3134 58.08 41.3734 58.08C41.4534 58.08 41.4834 58.2 41.5534 58.47ZM73.6734 58.11C73.6334 58.11 73.5634 58.09 73.4234 58.06C73.4634 57.89 73.3734 57.92 73.7334 57.91C73.7134 58.07 73.7334 58.11 73.6734 58.11ZM76.3534 58.11C76.3234 58.11 76.3134 58.07 76.2634 58.01C76.4734 57.84 76.5334 57.78 76.5734 57.78C76.6034 57.78 76.6134 57.82 76.6634 57.88C76.4534 58.04 76.3934 58.11 76.3534 58.11ZM39.7134 57.97C39.5434 57.82 39.5434 57.88 39.7034 57.69C39.8234 57.81 39.8434 57.74 39.7134 57.97ZM74.2434 57.76C74.3534 57.4 74.4734 57.15 74.8134 57.15C74.8334 57.15 74.8534 57.15 74.8734 57.15C74.9434 57.16 74.9934 57.34 75.0734 57.48C74.7834 57.58 74.5534 57.66 74.2434 57.76ZM73.4834 57.56C73.3334 57.03 73.2934 57.14 73.6134 57.04C73.7934 57.57 73.8334 57.46 73.4834 57.56ZM44.1934 57.43L44.0734 57.37C44.1034 57.25 44.1434 57.13 44.1834 57.01C44.3934 57.1 44.4234 57.03 44.1934 57.43ZM64.0834 57.57C64.0034 57.57 63.8334 57.4 63.1434 56.85C63.3034 56.72 63.4534 56.66 63.5834 56.66C63.8434 56.66 64.0434 56.93 64.2034 57.46C64.1334 57.52 64.1234 57.57 64.0834 57.57ZM41.8534 57.28C41.7934 57.1 41.7334 56.93 41.6434 56.66C41.8134 56.71 41.9934 56.72 42.0434 56.8C42.1434 56.98 42.1834 57.21 41.8534 57.28ZM75.5434 56.77C75.4534 56.77 75.3534 56.74 75.2234 56.68C75.3834 56.56 75.5534 56.45 75.7834 56.28C75.8034 56.64 75.7134 56.77 75.5434 56.77ZM61.2934 56.57C61.5134 56.21 61.6134 55.89 61.8434 55.89C61.9934 55.89 62.1834 56.02 62.4934 56.36C62.1534 56.42 61.8334 56.47 61.2934 56.57ZM74.5234 56.65C74.1234 56.03 74.1434 55.98 74.8734 55.63C74.7534 55.98 74.6434 56.3 74.5234 56.65ZM78.6434 55.63C78.3434 55.47 78.1534 55.37 77.8734 55.22C78.0234 55.13 78.1334 55.08 78.2334 55.08C78.4534 55.09 78.5434 55.32 78.6434 55.63ZM73.0634 55.47C73.0134 55.47 72.9634 55.47 72.9034 55.46C73.1534 55 73.1934 54.87 73.2534 54.87C73.2834 54.87 73.3234 54.91 73.4034 54.95C73.4334 55.2 73.4934 55.47 73.0634 55.47ZM49.6834 56.51C50.0634 55.22 50.0834 55.56 49.6834 54.93C50.1134 54.85 50.4434 54.8 50.8534 54.72C50.7334 55.32 50.6234 55.87 50.5134 56.44C50.2534 56.47 50.0234 56.49 49.6834 56.51ZM76.1134 55.57C76.3234 55.23 76.5334 54.89 76.7534 54.53C77.1234 54.76 77.4134 55.03 77.3534 55.51C77.2434 55.67 77.1234 55.72 77.0034 55.72C76.8834 55.72 76.7634 55.67 76.6434 55.62C76.5234 55.57 76.4034 55.52 76.2834 55.52C76.2234 55.53 76.1734 55.54 76.1134 55.57ZM77.7134 54.39C77.0634 53.94 77.0634 53.94 77.3834 53.56C77.7234 53.69 77.6534 53.99 77.7134 54.39ZM76.1534 53.43C76.3234 53.28 76.3834 53.21 76.4134 53.21C76.4334 53.21 76.4434 53.25 76.4834 53.32C76.2934 53.39 76.2034 53.42 76.1534 53.43C76.1434 53.44 76.1334 53.44 76.1334 53.45C76.1334 53.45 76.1234 53.46 76.1134 53.47C75.9534 54 76.1434 53.77 75.4634 54.44C75.3834 54.39 75.2934 54.33 75.1234 54.22C75.8534 53.66 76.0634 53.51 76.1134 53.46C76.1134 53.45 76.1134 53.45 76.1234 53.44C76.1234 53.44 76.1334 53.44 76.1534 53.43ZM49.4634 54.59L49.2834 54.52C49.5434 53.65 49.5934 53.97 49.0034 53.11C49.1034 53.07 49.1934 53.06 49.2734 53.06C49.9034 53.06 49.8934 54.08 49.4634 54.59ZM53.6034 53.18C53.5734 53.18 53.5534 53.15 53.5034 53.12C53.6334 52.71 53.5234 52.83 54.0434 52.75C53.7134 53.09 53.6534 53.18 53.6034 53.18ZM67.8034 52.3C67.4434 52.08 67.5234 52.16 67.5534 51.98C67.9334 52.22 67.8934 52.15 67.8034 52.3ZM66.1334 50.58C66.1034 50.58 66.0534 50.55 65.9734 50.52L66.1234 50.28L66.2434 50.33C66.2034 50.53 66.1834 50.58 66.1334 50.58ZM67.5034 50.6C67.0234 50.6 66.6634 50.46 66.3934 49.99C66.7434 49.87 66.9834 49.79 67.2934 49.68C67.4834 49.96 67.6634 50.23 67.8934 50.58C67.7534 50.59 67.6234 50.6 67.5034 50.6ZM85.5834 45.19L47.7634 53.22L47.7234 53.61C47.2534 53.59 47.2834 53.55 47.1234 53.35L25.8234 57.87C25.8434 57.89 25.8734 57.93 25.9234 57.98C25.6834 58.22 25.6134 58.32 25.5734 58.32C25.5434 58.32 25.5134 58.27 25.4434 58.2C25.6134 58.03 25.6934 57.94 25.7434 57.9L24.7234 58.12C29.9934 65.54 38.1234 70.59 47.1634 72L76.9634 61.8C81.3034 57.21 84.3134 51.45 85.5834 45.19ZM90.4334 44.16L88.1934 44.64C88.0534 45.42 87.8934 46.2 87.7134 46.97C87.7434 47 87.7734 47.03 87.8034 47.06C87.7634 47.06 87.7234 47.05 87.6934 47.05C86.5234 51.85 84.3934 56.34 81.4734 60.26L84.8634 59.1C87.7034 54.6 89.6334 49.52 90.4334 44.16ZM63.0534 6.35C63.1634 6.56 63.2734 6.77 63.3834 6.98C63.6334 6.81 63.8334 6.71 64.0234 6.69C63.7034 6.57 63.3834 6.45 63.0534 6.35ZM24.7534 30.6C24.7234 30.6 24.6834 30.57 24.5834 30.52C24.7234 30.34 24.7634 30.27 24.8034 30.27C24.8434 30.27 24.8834 30.33 25.0134 30.42C24.8434 30.55 24.7934 30.6 24.7534 30.6ZM25.6334 30.01L25.4734 29.91C25.3834 29.66 25.4134 29.51 25.7034 29.51C25.7434 29.51 25.7934 29.51 25.8434 29.52C25.7634 29.72 25.6934 29.86 25.6334 30.01ZM19.7034 30.61C19.8934 30.09 20.0734 29.6 20.2634 29.09C20.6934 29.15 20.9934 29.2 20.9634 29.61C20.9234 30.22 20.5834 30.49 19.7034 30.61ZM33.1934 27.48C32.9334 27.31 32.9934 27.39 33.0234 27.11C33.2934 27.23 33.2734 27.13 33.1934 27.48ZM21.9434 27.2C21.6634 27.12 21.4434 27.06 21.2234 26.99C21.4734 26.79 21.6134 26.68 21.7034 26.68C21.8234 26.69 21.8634 26.85 21.9434 27.2ZM31.5134 27.5C30.7834 26.97 30.7934 26.51 31.6934 25.9C31.6234 26.53 31.5634 27.01 31.5134 27.5ZM21.5834 25.59C21.5334 25.59 21.4434 25.55 21.2934 25.51C21.4334 25.05 21.4334 24.94 21.5234 24.94C21.5634 24.94 21.6334 24.97 21.7534 24.99C21.6634 25.47 21.6834 25.59 21.5834 25.59ZM22.0834 25.33C22.1334 25.14 22.1934 24.95 22.2634 24.7C22.3934 24.78 22.5234 24.81 22.5534 24.88C22.7434 25.26 22.4534 25.31 22.0834 25.33ZM24.3034 23.25C24.1634 23.25 24.0634 23.16 23.9934 22.96C24.0934 22.9 24.1734 22.87 24.2434 22.87C24.3934 22.87 24.4934 22.98 24.6134 23.15C24.4934 23.22 24.3834 23.25 24.3034 23.25ZM22.9034 23.23C22.7834 23.23 22.6834 23.12 22.4334 22.87C22.6234 22.78 22.7234 22.73 22.8134 22.73C22.9334 22.73 23.0334 22.83 23.2534 23.05C23.0934 23.16 22.9934 23.23 22.9034 23.23ZM31.5134 20.12C31.4034 19.89 31.3334 19.98 31.7534 19.73C31.8834 19.96 31.9234 19.87 31.5134 20.12ZM59.1334 19.56L58.9534 19.42L59.1434 19.24L59.2834 19.38L59.1334 19.56ZM66.5334 19.35C66.3734 19.26 66.2534 19.24 66.2234 19.17L66.2734 18.9L66.5234 18.92C66.5734 19.03 66.5434 19.15 66.5334 19.35ZM52.3034 19.12L52.1934 18.96C52.3034 18.86 52.4234 18.78 52.5334 18.69L52.6834 18.92C52.5634 18.99 52.4434 19.06 52.3034 19.12ZM76.2434 19.53C75.9234 18.66 76.0634 18.97 75.6834 18.33C75.8234 18.24 75.9734 18.14 76.1234 18.05C76.5834 18.83 76.5934 18.9 76.2434 19.53ZM73.1034 18.72C72.7634 18.49 72.7734 18.68 72.9234 18.03C73.3834 18.42 73.4034 18.24 73.1034 18.72ZM76.2134 17.53C76.1134 17.53 75.9934 17.5 75.8534 17.41C76.1534 17.21 76.3834 17.05 76.6834 16.85C76.6734 17.03 76.7234 17.22 76.6534 17.29C76.5334 17.43 76.3934 17.53 76.2134 17.53ZM55.1334 16.47C55.1034 16.47 55.0934 16.43 55.0434 16.38C55.2034 16.24 55.2434 16.18 55.2834 16.18C55.3034 16.18 55.3234 16.21 55.3734 16.27C55.2134 16.41 55.1634 16.47 55.1334 16.47ZM65.8334 16.06C65.5334 15.66 65.5834 15.72 65.7734 15.64C65.8334 15.76 65.9034 15.88 65.9634 16L65.8334 16.06ZM56.7834 12.33C56.8734 11.96 56.7234 12.05 57.3334 11.98C57.3834 12.25 57.4934 12.16 56.7834 12.33ZM70.0634 12.99C70.3834 11.92 70.4634 11.58 70.5034 11.58C70.5334 11.58 70.5434 11.82 70.6434 12.07C70.7434 12.31 70.9534 12.56 71.3834 12.56C71.4234 12.56 71.4734 12.56 71.5234 12.55C71.3134 12.85 71.1134 12.92 70.9234 12.92C70.8434 12.92 70.7634 12.91 70.6834 12.9C70.6034 12.89 70.5234 12.88 70.4434 12.88C70.3134 12.87 70.1934 12.9 70.0634 12.99ZM57.8234 11.9C57.7934 11.9 57.7634 11.85 57.6834 11.78C57.8234 11.65 57.8634 11.59 57.8934 11.59C57.9234 11.59 57.9534 11.63 58.0234 11.72C57.9034 11.84 57.8634 11.9 57.8234 11.9ZM44.4934 11.92C44.4534 11.92 44.3934 11.87 44.2534 11.79C44.3634 11.63 44.3834 11.57 44.4334 11.57C44.4834 11.57 44.5534 11.62 44.7534 11.69C44.5734 11.85 44.5434 11.92 44.4934 11.92ZM72.0034 12.3C72.0634 11.99 72.1034 11.81 72.1534 11.51C72.4234 11.66 72.6034 11.77 72.9534 11.97C72.5434 12.12 72.3334 12.19 72.0034 12.3ZM50.3834 11.86C49.9534 11.72 50.0934 11.64 50.2434 11.43C50.4134 11.58 50.3834 11.45 50.3834 11.86ZM64.6334 11.76C64.3334 11.47 64.4434 11.32 64.7634 11.11C64.8534 11.65 64.8734 11.47 64.6334 11.76ZM60.7034 11.44C60.3634 11.42 60.0634 11.4 59.7334 11.37C59.7334 11.11 59.9534 10.93 60.1834 10.93C60.4034 10.94 60.6234 11.09 60.7034 11.44ZM59.6034 10.67C59.5634 10.67 59.5034 10.63 59.3634 10.56C59.4434 10.4 59.4234 10.37 59.5234 10.37C59.5734 10.37 59.6634 10.38 59.8234 10.39C59.6834 10.59 59.6634 10.67 59.6034 10.67ZM61.1034 11.56C60.5734 10.88 60.8334 10.27 61.0734 10.27C61.1434 10.27 61.2034 10.32 61.2534 10.43C61.3534 10.67 61.2134 10.79 61.2634 10.79C61.3134 10.79 61.5034 10.7 62.1134 10.52C62.1434 11.22 62.3734 11.86 61.8934 12.55C61.4334 11.76 61.4834 12.06 61.7334 11.21C61.6634 11.17 61.6334 11.14 61.6034 11.14C61.5434 11.16 61.4634 11.25 61.1034 11.56ZM70.4734 10.47C70.4034 10.47 70.3134 10.46 70.1934 10.45C70.4234 10.32 70.5634 10.25 70.7334 10.16C70.6734 10.4 70.6634 10.47 70.4734 10.47ZM64.3634 10.28C64.0134 10.28 63.7434 10.27 63.3534 10.27C63.5934 10 63.7134 9.87 63.8334 9.87C63.9634 9.86 64.1034 10 64.3634 10.28ZM45.5334 10.16C45.4834 10.16 45.2534 10.09 45.4634 9.83H45.4734C45.5034 9.83 45.6034 9.88 45.7134 9.92C45.6534 10.02 45.6134 10.11 45.5334 10.16C45.5434 10.16 45.5434 10.16 45.5334 10.16ZM68.1334 10.12C68.0734 10.12 68.0134 10.05 67.7334 9.82C67.8734 9.75 67.9734 9.73 68.0534 9.73C68.2334 9.73 68.2934 9.87 68.3434 10.06C68.2234 10.09 68.1834 10.12 68.1334 10.12ZM66.6834 9.99C66.6134 9.99 66.5534 9.9 66.4234 9.71C66.6434 9.73 66.8034 9.75 66.9634 9.77C66.8234 9.91 66.7434 9.99 66.6834 9.99ZM62.5134 10.35C62.1934 10.35 62.1434 10.24 61.9434 9.71C62.6234 9.72 62.6234 9.72 62.8034 10.34C62.6934 10.35 62.5934 10.35 62.5134 10.35ZM66.0834 10.38C65.7334 10.25 65.4334 10.23 65.3234 10.07C65.1934 9.89 65.3434 9.68 65.6234 9.65C65.7434 9.84 65.8634 10.03 66.0834 10.38ZM54.8834 10.39C54.5934 10.3 54.6234 10.46 54.9034 9.58C55.2434 9.98 54.9534 10.16 54.8834 10.39ZM67.8634 9.52C67.7534 9.52 67.7934 9.43 67.8234 9.06C68.3634 9.36 68.2834 9.27 68.2534 9.46C68.0534 9.5 67.9334 9.52 67.8634 9.52ZM67.7134 8.9L67.4634 8.84C67.4234 8.79 67.4734 8.67 67.4934 8.53C67.6334 8.59 67.7634 8.6 67.8034 8.67L67.7134 8.9ZM66.2034 9.51C66.1134 9.51 66.0034 9.47 65.8434 9.41C65.9334 9.06 66.0334 8.7 66.1634 8.23C66.3534 8.48 66.5134 8.68 66.6534 8.86C66.4434 9.35 66.3734 9.51 66.2034 9.51ZM44.6334 8.53C44.5034 8 44.6234 7.84 45.4134 7.63C45.1734 7.91 44.9234 8.19 44.6334 8.53ZM46.0734 7.15C45.9034 6.89 45.8234 6.77 45.6834 6.55C45.9434 6.55 46.0934 6.54 46.3134 6.54C46.2334 6.75 46.1734 6.88 46.0734 7.15ZM48.0334 7.1C47.9934 6.68 47.9634 6.32 47.9134 5.8C48.2034 5.96 49.4934 6.5 48.7134 6.86C48.4834 6.97 48.2334 7.03 48.0334 7.1ZM52.3934 4.61C51.8034 4.61 51.2034 4.63 50.6034 4.66C50.6834 4.77 50.6934 4.93 50.6034 5.17C50.3034 5.04 50.1534 4.9 50.2034 4.68C48.5834 4.78 46.9534 5.01 45.3234 5.35C36.0834 7.31 28.5234 12.87 23.8134 20.25C24.2434 20.39 24.7634 20.33 25.1134 20.82L24.8534 21.07C24.8134 21.07 24.7834 21.07 24.7434 21.07C24.1734 21.07 23.6434 21.03 23.4934 20.75C22.8234 21.83 22.2234 22.95 21.6834 24.11C21.6834 24.12 21.6934 24.13 21.6934 24.14C21.6834 24.13 21.6834 24.13 21.6734 24.12C21.0834 25.38 20.5634 26.68 20.1334 28.01C20.2734 28.07 20.3934 28.12 20.5534 28.19C20.3534 28.38 20.2134 28.51 19.9434 28.75C19.9434 28.7 19.9434 28.65 19.9434 28.6C19.6234 29.65 19.3534 30.72 19.1334 31.81L19.4934 31.73L19.4834 31.72C19.4834 31.64 19.5734 31.57 19.6634 31.44C19.7534 31.54 19.8534 31.61 19.8534 31.65L20.6434 31.48C20.7634 31.23 20.8334 30.96 20.7934 30.64C20.7634 30.37 21.0934 30.06 21.3034 29.71C21.4634 29.85 21.6534 29.88 21.8434 29.88C21.8934 29.88 21.9434 29.88 21.9934 29.88C22.0434 29.88 22.0934 29.88 22.1434 29.88C22.3934 29.88 22.6434 29.92 22.8334 30.22C22.9434 30.03 22.9934 30.12 22.6234 29.68C22.3634 29.38 22.3634 29.38 22.8334 29.04C23.0734 29.2 22.9734 29.69 23.4034 29.69L23.4734 30.03C23.4734 30.03 23.4834 30.03 23.4834 30.04C23.6034 30.01 23.7234 29.99 23.9034 29.95C23.9034 30.11 23.8934 30.23 23.8934 30.5C23.6134 30.18 23.5234 30.07 23.4934 30.04C23.4834 30.04 23.4834 30.04 23.4734 30.04V30.03C23.2734 30.31 22.8734 30.53 23.1334 30.95L80.0034 18.9C79.2734 17.87 78.4934 16.89 77.6634 15.96C77.5234 15.94 77.4634 15.87 77.3834 15.65C74.3334 12.32 70.6534 9.63 66.5834 7.74C66.4534 7.78 66.2234 7.83 65.8534 7.93L65.8234 7.9C65.8534 7.96 65.7534 8.06 65.5534 8.31C65.4834 8.08 65.4534 7.94 65.3834 7.72C65.5934 7.79 65.7234 7.83 65.7834 7.86L65.7734 7.85C65.7834 7.66 65.8134 7.52 65.8534 7.4C65.4634 7.23 65.0634 7.07 64.6634 6.91C64.7734 7 64.8834 7.11 65.0134 7.25C64.5534 8 64.2834 8.91 63.2634 9.16C63.1634 9.19 63.0634 9.23 62.9734 9.23C62.8734 9.23 62.7734 9.18 62.6934 9.01C62.9334 8.94 63.0534 8.64 63.3334 8.64C63.3934 8.64 63.4634 8.66 63.5534 8.69H63.5634C63.6334 8.69 63.8434 8.52 63.8534 8.42C63.8634 8.32 63.7134 8.13 63.6034 8.1C63.5734 8.09 63.5334 8.09 63.5034 8.09C63.3334 8.09 63.0734 8.17 62.3734 8.34C62.2234 7.9 62.4134 7.74 62.6734 7.62C62.6334 7.5 62.5934 7.37 62.5434 7.25C61.8534 7.46 61.8534 7.46 61.6934 8.26C61.3834 8.4 61.0734 8.54 60.7034 8.71C60.7134 8.5 60.6734 8.28 60.7534 8.11C61.1334 7.24 61.0334 6.94 60.1834 6.65C60.6834 6.29 61.1134 6.17 61.4734 6.17C61.8034 6.17 62.0734 6.27 62.2534 6.37C62.4334 6.47 62.5434 6.57 62.5534 6.57C62.5634 6.57 62.4734 6.46 62.2734 6.12C62.2934 6.11 62.3234 6.1 62.3434 6.09C61.4334 5.81 60.5134 5.57 59.5834 5.36C59.5934 5.37 59.5934 5.38 59.6034 5.4C59.3434 5.57 59.2534 5.65 59.2034 5.65C59.1634 5.65 59.1434 5.59 59.0834 5.47C59.2334 5.4 59.3234 5.35 59.3934 5.31C58.6234 5.15 57.8534 5.01 57.0634 4.9C57.1034 5.02 56.9934 5.13 56.8934 5.13C56.8734 5.13 56.8634 5.13 56.8434 5.12C56.6834 5.06 56.6734 4.95 56.7034 4.85C55.2734 4.7 53.8334 4.61 52.3934 4.61ZM14.8234 32.35C14.7334 32.12 14.6834 32.19 15.1134 32.02C15.1834 32.27 15.2634 32.2 14.8234 32.35ZM81.4934 15.34C81.3634 15.27 81.2434 15.24 81.2334 15.18L81.3134 14.94L81.5534 15.01C81.5934 15.07 81.5334 15.19 81.4934 15.34ZM23.6234 15.12C23.5934 15.12 23.5834 15.08 23.5434 15.02L23.6634 14.85C23.7434 14.82 23.8234 14.81 23.9134 14.81C23.9834 14.81 24.0634 14.82 24.1434 14.85C23.7834 15.04 23.6734 15.12 23.6234 15.12ZM77.1134 10.48C76.3634 9.68 76.4134 9.84 76.6034 9.63C76.9434 9.76 77.2234 9.95 77.1134 10.48ZM75.5634 9.46C74.5734 9.25 74.8434 9.44 74.4634 8.54C74.7034 8.44 74.9734 8.32 75.4734 8.11C75.0034 8.72 75.5834 8.99 75.5634 9.46ZM70.5734 5.69C70.3034 4.76 70.3034 4.92 70.4934 4.73C70.6834 4.86 70.8834 4.99 71.1234 5.17C70.9234 5.36 70.7734 5.5 70.5734 5.69ZM48.3034 1.02C48.1834 0.96 48.0734 0.91 47.9634 0.84L48.0134 0.71C48.4734 0.86 48.4034 0.82 48.3034 1.02ZM46.4834 0.95L46.3134 0.87C46.3234 0.78 46.3734 0.7 46.4234 0.58C46.5334 0.65 46.5934 0.68 46.6534 0.72L46.4834 0.95ZM52.4734 0H52.2634C49.6534 0.01 47.0134 0.28 44.3634 0.84C28.2134 4.27 16.5834 17.41 14.2734 32.84L16.4834 32.37C16.4834 32.34 16.4834 32.31 16.4834 32.29C16.4934 32.3 16.5034 32.32 16.5134 32.33C16.6634 31.48 16.8434 30.63 17.0434 29.79C16.9734 29.85 16.9034 29.9 16.8234 29.92C16.8034 29.93 16.7734 29.93 16.7434 29.93C16.6834 29.93 16.6134 29.92 16.5634 29.91C16.5134 29.9 16.4734 29.89 16.4534 29.89C16.4534 29.89 16.4534 29.89 16.4434 29.9C16.4334 29.9 16.4334 29.9 16.4234 29.9C16.3934 29.96 16.2834 30.2 15.8434 31.15C15.5034 30.36 15.6234 30.12 16.4234 29.9C16.4334 29.89 16.4334 29.89 16.4334 29.89C16.6534 29.59 16.6534 29.48 16.9534 29.48C16.9934 29.48 17.0334 29.48 17.0734 29.48L17.0934 29.52C20.4534 16.56 30.8434 5.89 44.8034 2.93C47.3334 2.39 49.8634 2.13 52.3534 2.13C54.4134 2.13 56.4534 2.31 58.4434 2.65C58.5434 2.52 58.6334 2.39 58.7334 2.26C58.3134 1.59 58.3134 1.59 59.3134 0.85C59.5634 1.05 59.7134 1.63 59.8534 2.86C59.8434 2.88 59.8334 2.89 59.8134 2.91C60.4834 3.05 61.1434 3.21 61.7934 3.39C61.9034 3.23 61.9434 3.16 61.9634 3.14C61.9634 3.13 61.9634 3.13 61.9534 3.12H61.9634C61.8434 2.72 61.5534 2.67 61.2534 2.67C61.2034 2.67 61.1534 2.67 61.1034 2.67C61.0534 2.67 61.0034 2.67 60.9534 2.67C60.6834 2.67 60.4634 2.62 60.4734 2.24C60.4834 1.96 60.7034 1.81 61.0434 1.81C61.5734 1.81 62.3834 2.17 63.0634 2.92C63.0634 2.92 63.0634 2.92 63.0634 2.91L63.0734 2.9C63.0734 2.9 63.0734 2.9 63.0734 2.91C63.0934 2.9 63.1034 2.9 63.1034 2.9C63.1134 2.9 63.1134 2.91 63.1134 2.92C63.4834 2.93 63.5534 3.16 63.5134 3.53C63.1534 3.45 63.1434 3.02 63.1134 2.92C63.1034 2.92 63.1034 2.92 63.0934 2.92C63.0834 2.92 63.0834 2.92 63.0734 2.92C62.9634 3.12 62.8234 3.17 62.6734 3.17C62.5834 3.17 62.4934 3.15 62.3934 3.13C62.3034 3.11 62.2034 3.09 62.1134 3.09C62.0634 3.09 62.0134 3.1 61.9634 3.11V3.12C61.9634 3.12 61.9634 3.13 61.9534 3.14C62.0034 3.27 62.0434 3.38 62.0734 3.47C62.9034 3.7 63.7234 3.96 64.5334 4.26C64.6134 4.01 64.6834 3.75 64.7834 3.42C65.3934 3.85 65.9634 4.26 66.5434 4.67C66.5034 4.88 66.4134 4.94 66.3134 4.94C72.8834 7.69 78.5834 12.34 82.5834 18.34L84.8234 17.86C84.1634 16.83 83.4634 15.83 82.7134 14.88C82.3334 14.63 82.3434 14.7 82.3934 14.48C79.9034 11.37 76.9534 8.68 73.6634 6.49C73.6934 6.76 73.5434 7.02 73.1534 7.02C72.9734 7.02 72.7334 6.96 72.4434 6.83C72.5634 6.74 72.6934 6.64 72.8334 6.54C72.5534 6.25 71.9834 6.67 71.9234 6.06C72.2334 6.02 72.5234 5.98 72.8234 5.95C69.1134 3.61 65.0034 1.9 60.6734 0.93C60.6834 0.94 60.6934 0.94 60.6934 0.95C60.4534 1.14 60.2734 1.28 60.1134 1.41C59.8134 1.28 59.7734 1.1 59.9334 0.9C59.9734 0.86 60.0034 0.82 60.0434 0.79C57.6034 0.28 55.0534 0.01 52.4734 0Z" fill="#E30D16"/>
</g>
<mask id="mask9_16_58271" style="mask-type:luminance" maskUnits="userSpaceOnUse" x="0" y="0" width="105" height="77">
<path d="M0 0H104.71V77H0V0Z" fill="white"/>
</mask>
<g mask="url(#mask9_16_58271)">
<path d="M22.0463 30.2196C22.0763 30.5696 21.6063 30.8696 21.8863 31.2296L22.1363 31.1796C22.4363 30.4496 22.5463 30.2896 22.0463 30.2196ZM63.2163 7.13965C62.9563 7.36965 62.8163 7.50965 62.6663 7.63965C62.7963 7.69965 62.9363 7.74965 63.1263 7.82965C63.1563 7.59965 63.1763 7.42965 63.2163 7.13965Z" fill="#E30D16"/>
</g>
<path d="M36.4809 26.19L33.1409 22.5L32.1109 22.73L33.0509 26.95L30.8809 27.44L28.4609 16.6L32.5309 15.69C33.3709 15.5 34.1209 15.49 34.7709 15.65C35.4309 15.81 35.9609 16.11 36.3709 16.55C36.7809 16.99 37.0509 17.51 37.1909 18.14C37.3509 18.85 37.2909 19.55 37.0009 20.21C36.7109 20.88 36.1909 21.41 35.4209 21.81L39.0009 25.63L36.4809 26.19ZM31.7509 21.09L33.5709 20.68C34.1609 20.55 34.5709 20.31 34.8009 19.96C35.0309 19.61 35.0809 19.18 34.9709 18.67C34.8609 18.17 34.6309 17.82 34.2809 17.61C33.9309 17.4 33.4609 17.36 32.8709 17.49L31.0509 17.9L31.7509 21.09Z" fill="white"/>
<path d="M40.9762 15.6402L41.5863 18.3602L45.2363 17.5402L45.6263 19.2602L41.9762 20.0802L42.6162 22.9502L46.7363 22.0302L47.1263 23.8002L40.8363 25.2102L38.4062 14.3502L44.7062 12.9502L45.0962 14.7202L40.9762 15.6402Z" fill="white"/>
<path d="M54.6997 22.1097L51.3597 18.4197L50.3297 18.6497L51.2697 22.8797L49.0997 23.3697L46.6797 12.5297L50.7497 11.6197C51.5897 11.4297 52.3397 11.4197 52.9897 11.5797C53.6497 11.7397 54.1797 12.0397 54.5897 12.4797C54.9997 12.9197 55.2697 13.4397 55.4097 14.0697C55.5697 14.7797 55.5097 15.4797 55.2197 16.1397C54.9297 16.8097 54.4097 17.3397 53.6397 17.7397L57.2197 21.5597L54.6997 22.1097ZM49.9697 17.0197L51.7897 16.6097C52.3797 16.4797 52.7897 16.2397 53.0197 15.8897C53.2497 15.5397 53.2997 15.1097 53.1897 14.5997C53.0797 14.0997 52.8497 13.7497 52.4997 13.5397C52.1497 13.3297 51.6797 13.2897 51.0897 13.4197L49.2697 13.8297L49.9697 17.0197Z" fill="white"/>
<path d="M65.2484 17.5902L60.9284 18.5502L60.6784 20.7802L58.3984 21.2902L59.8684 9.56024L62.3984 8.99023L68.7284 18.9802L66.4284 19.4902L65.2484 17.5902ZM64.2684 15.9802L61.6884 11.7902L61.1384 16.6802L64.2684 15.9802Z" fill="white"/>
<path d="M45.0981 66.7603L41.7581 63.0703L40.7281 63.3003L41.6681 67.5203L39.4981 68.0103L37.0781 57.1703L41.1481 56.2603C41.9881 56.0703 42.7381 56.0603 43.3881 56.2203C44.0481 56.3803 44.5781 56.6803 44.9881 57.1203C45.3981 57.5603 45.6681 58.0903 45.8081 58.7103C45.9681 59.4203 45.9081 60.1203 45.6181 60.7803C45.3281 61.4503 44.8081 61.9803 44.0381 62.3803L47.6181 66.2003L45.0981 66.7603ZM40.3681 61.6703L42.1881 61.2603C42.7781 61.1303 43.1881 60.8903 43.4181 60.5403C43.6481 60.1903 43.6981 59.7603 43.5881 59.2503C43.4781 58.7503 43.2481 58.4003 42.8981 58.1903C42.5481 57.9803 42.0781 57.9403 41.4881 58.0703L39.6681 58.4803L40.3681 61.6703Z" fill="white"/>
<path d="M49.6091 56.2095L50.2091 58.9295L53.8591 58.1195L54.2491 59.8395L50.5991 60.6595L51.2391 63.5295L55.3591 62.6095L55.7491 64.3795L49.4591 65.7895L47.0391 54.9295L53.3291 53.5195L53.7191 55.2895L49.6091 56.2095Z" fill="white"/>
<path d="M63.3169 62.69L59.9769 59L58.9469 59.23L59.8869 63.45L57.7169 63.94L55.2969 53.1L59.3669 52.19C60.2069 52 60.9569 51.99 61.6069 52.15C62.2669 52.31 62.7969 52.61 63.2069 53.05C63.6169 53.49 63.8869 54.01 64.0269 54.64C64.1869 55.35 64.1269 56.05 63.8369 56.71C63.5469 57.38 63.0269 57.91 62.2569 58.31L65.8369 62.13L63.3169 62.69ZM58.5869 57.6L60.4069 57.19C60.9969 57.06 61.4069 56.82 61.6369 56.47C61.8669 56.12 61.9169 55.69 61.8069 55.18C61.6969 54.68 61.4669 54.33 61.1169 54.12C60.7669 53.91 60.2969 53.87 59.7069 54L57.8869 54.41L58.5869 57.6Z" fill="white"/>
<path d="M73.8734 58.1603L69.5534 59.1303L69.3034 61.3603L67.0234 61.8703L68.4934 50.1403L71.0234 49.5703L77.3534 59.5603L75.0534 60.0703L73.8734 58.1603ZM72.8934 56.5603L70.3134 52.3703L69.7634 57.2603L72.8934 56.5603Z" fill="white"/>
</g>
<defs>
<clipPath id="clip0_16_58271">
<rect width="104.71" height="77" fill="white"/>
</clipPath>
</defs>
</svg>
